<svg width="553" height="36" viewBox="0 0 553 36" fill="none" xmlns="http://www.w3.org/2000/svg">
<path d="M18.9 23.6H25.75C25.75 25.1667 25.45 26.65 24.85 28.05C24.25 29.4167 23.4333 30.6167 22.4 31.65C21.3667 32.6833 20.15 33.5 18.75 34.1C17.3833 34.7 15.9167 35 14.35 35H12.05C10.4833 35 9 34.7 7.6 34.1C6.23333 33.5 5.03333 32.6833 4 31.65C2.96667 30.6167 2.15 29.4167 1.55 28.05C0.983333 26.65 0.7 25.1667 0.7 23.6V12.2C0.7 10.6333 0.983333 9.16667 1.55 7.8C2.15 6.4 2.96667 5.18333 4 4.15C5.03333 3.11667 6.23333 2.3 7.6 1.7C9 1.1 10.4833 0.799999 12.05 0.799999H14.35C15.9167 0.799999 17.3833 1.1 18.75 1.7C20.15 2.3 21.3667 3.11667 22.4 4.15C23.4333 5.18333 24.25 6.4 24.85 7.8C25.45 9.16667 25.75 10.6333 25.75 12.2H18.9H17.65C17.3833 12.2 17.3333 12.0833 17.5 11.85C18.0667 11.0833 18.0333 10.15 17.4 9.05C17.2667 8.88333 17.1333 8.73333 17 8.6C16.8667 8.43333 16.7 8.3 16.5 8.2C15.8667 7.83333 15.15 7.65 14.35 7.65H12.05C10.7833 7.65 9.7 8.1 8.8 9C7.93333 9.86667 7.5 10.9333 7.5 12.2V16.75V19V23.6C7.5 24.8667 7.93333 25.95 8.8 26.85C9.7 27.7167 10.7833 28.15 12.05 28.15H14.35C14.75 28.15 15.1167 28.1 15.45 28C15.7833 27.9 16.1333 27.7667 16.5 27.6C16.8333 27.4333 17.1333 27.1333 17.4 26.7C18.0333 25.6333 18.0667 24.7167 17.5 23.95C17.3333 23.7167 17.3833 23.6 17.65 23.6H18.9ZM21.2 8.6C20.8 8.6 20.6 8.81667 20.6 9.25C20.6 9.65 20.8 9.85 21.2 9.85C21.6 9.85 21.8 9.65 21.8 9.25C21.8 8.81667 21.6 8.6 21.2 8.6ZM18.1 4.75C17.9333 4.75 17.7833 4.81667 17.65 4.95C17.55 5.08333 17.5 5.23333 17.5 5.4C17.5 5.56667 17.55 5.71667 17.65 5.85C17.7833 5.95 17.9333 6 18.1 6C18.5333 6 18.75 5.8 18.75 5.4C18.75 4.96667 18.5333 4.75 18.1 4.75ZM13.7 3.55C13.5333 3.55 13.3833 3.61667 13.25 3.75C13.15 3.85 13.1 3.98333 13.1 4.15C13.1 4.58333 13.3 4.8 13.7 4.8C14.1 4.8 14.3 4.58333 14.3 4.15C14.3 3.98333 14.2333 3.85 14.1 3.75C14 3.61667 13.8667 3.55 13.7 3.55ZM9.2 4.3C8.76667 4.3 8.55 4.51667 8.55 4.95C8.55 5.35 8.76667 5.55 9.2 5.55C9.36667 5.55 9.5 5.5 9.6 5.4C9.73333 5.26667 9.8 5.11667 9.8 4.95C9.8 4.78333 9.73333 4.63333 9.6 4.5C9.5 4.36667 9.36667 4.3 9.2 4.3ZM4.4 11.75C4.23333 11.75 4.08333 11.8167 3.95 11.95C3.85 12.05 3.8 12.1833 3.8 12.35C3.8 12.5167 3.85 12.6667 3.95 12.8C4.08333 12.9333 4.23333 13 4.4 13C4.83333 13 5.05 12.7833 5.05 12.35C5.05 12.1833 4.98333 12.05 4.85 11.95C4.71667 11.8167 4.56667 11.75 4.4 11.75ZM4.4 16.3C4.23333 16.3 4.08333 16.3667 3.95 16.5C3.85 16.6333 3.8 16.7833 3.8 16.95C3.8 17.1167 3.85 17.2667 3.95 17.4C4.08333 17.5 4.23333 17.55 4.4 17.55C4.83333 17.55 5.05 17.35 5.05 16.95C5.05 16.5167 4.83333 16.3 4.4 16.3ZM3.8 21.55C3.8 21.7167 3.85 21.8667 3.95 22C4.08333 22.1 4.23333 22.15 4.4 22.15C4.83333 22.15 5.05 21.95 5.05 21.55C5.05 21.1167 4.83333 20.9 4.4 20.9C4.23333 20.9 4.08333 20.9667 3.95 21.1C3.85 21.2333 3.8 21.3833 3.8 21.55ZM4.85 27C5.28333 27 5.5 26.7833 5.5 26.35C5.5 26.1833 5.43333 26.05 5.3 25.95C5.16667 25.8167 5.01667 25.75 4.85 25.75C4.68333 25.75 4.53333 25.8167 4.4 25.95C4.3 26.05 4.25 26.1833 4.25 26.35C4.25 26.5167 4.3 26.6667 4.4 26.8C4.53333 26.9333 4.68333 27 4.85 27ZM5.4 8.65C5.8 8.65 6 8.43333 6 8C6 7.6 5.8 7.4 5.4 7.4C4.96667 7.4 4.75 7.6 4.75 8C4.75 8.43333 4.96667 8.65 5.4 8.65ZM7.3 30.85C7.7 30.85 7.9 30.6333 7.9 30.2C7.9 30.0333 7.83333 29.9 7.7 29.8C7.6 29.6667 7.46667 29.6 7.3 29.6C7.13333 29.6 6.98333 29.6667 6.85 29.8C6.71667 29.9 6.65 30.0333 6.65 30.2C6.65 30.6333 6.86667 30.85 7.3 30.85ZM11.8 32.3C12.2 32.3 12.4 32.0833 12.4 31.65C12.4 31.25 12.2 31.05 11.8 31.05C11.4 31.05 11.2 31.25 11.2 31.65C11.2 32.0833 11.4 32.3 11.8 32.3ZM16.95 31.65C17.3833 31.65 17.6 31.45 17.6 31.05C17.6 30.65 17.3833 30.45 16.95 30.45C16.7833 30.45 16.6333 30.5167 16.5 30.65C16.4 30.75 16.35 30.8833 16.35 31.05C16.35 31.2167 16.4 31.3667 16.5 31.5C16.6333 31.6 16.7833 31.65 16.95 31.65ZM21.05 27.65C20.6167 27.65 20.4 27.85 20.4 28.25C20.4 28.65 20.6167 28.85 21.05 28.85C21.45 28.85 21.65 28.65 21.65 28.25C21.65 27.85 21.45 27.65 21.05 27.65ZM52.5102 34.6C52.6102 34.7 52.6435 34.8 52.6102 34.9C52.5768 34.9667 52.4935 35 52.3602 35H43.5602C43.4268 35 43.3435 34.9667 43.3102 34.9C43.2768 34.8 43.3102 34.7 43.4102 34.6C44.1768 34 44.5602 32.6167 44.5602 30.45V25.9H35.4102V30.45C35.4102 32.6167 35.7935 34 36.5602 34.6C36.8268 34.8667 36.7768 35 36.4102 35H27.6102C27.4768 35 27.3935 34.9667 27.3602 34.9C27.3268 34.8 27.3602 34.7 27.4602 34.6C28.2268 34 28.6102 32.6167 28.6102 30.45V23.65V19.6C28.6102 18.1667 28.7435 16.8 29.0102 15.5C29.2768 14.1667 29.6935 12.8333 30.2602 11.5L32.8602 5.45C33.2935 3.31667 33.1935 1.91667 32.5602 1.25C32.4602 1.15 32.4268 1.06667 32.4602 1C32.4935 0.899999 32.5768 0.849999 32.7102 0.849999H47.2602C47.5935 0.849999 47.6602 0.983332 47.4602 1.25C46.8268 1.85 46.7102 3.25 47.1102 5.45L49.7102 11.5C50.2768 12.8333 50.6935 14.1667 50.9602 15.5C51.2268 16.8 51.3602 18.1667 51.3602 19.6V23.65V30.45C51.3602 32.6167 51.7435 34 52.5102 34.6ZM47.3602 16.65C46.9602 16.65 46.7602 16.8667 46.7602 17.3C46.7602 17.4667 46.8102 17.6167 46.9102 17.75C47.0435 17.85 47.1935 17.9 47.3602 17.9C47.5268 17.9 47.6768 17.85 47.8102 17.75C47.9435 17.6167 48.0102 17.4667 48.0102 17.3C48.0102 16.8667 47.7935 16.65 47.3602 16.65ZM43.1602 3.05C42.7602 3.05 42.5602 3.25 42.5602 3.65C42.5602 4.08333 42.7602 4.3 43.1602 4.3C43.5602 4.3 43.7602 4.08333 43.7602 3.65C43.7602 3.25 43.5602 3.05 43.1602 3.05ZM36.8102 3.5C36.3768 3.5 36.1602 3.7 36.1602 4.1C36.1602 4.53333 36.3768 4.75 36.8102 4.75C37.2435 4.75 37.4602 4.53333 37.4602 4.1C37.4602 3.7 37.2435 3.5 36.8102 3.5ZM32.0102 32.3C32.4435 32.3 32.6602 32.0833 32.6602 31.65C32.6602 31.4833 32.5935 31.35 32.4602 31.25C32.3268 31.1167 32.1768 31.05 32.0102 31.05C31.8435 31.05 31.6935 31.1167 31.5602 31.25C31.4268 31.35 31.3602 31.4833 31.3602 31.65C31.3602 32.0833 31.5768 32.3 32.0102 32.3ZM32.1602 27.55C32.5935 27.55 32.8102 27.3333 32.8102 26.9C32.8102 26.7333 32.7435 26.6 32.6102 26.5C32.5102 26.3667 32.3602 26.3 32.1602 26.3C31.9935 26.3 31.8435 26.3667 31.7102 26.5C31.6102 26.6 31.5602 26.7333 31.5602 26.9C31.5602 27.3333 31.7602 27.55 32.1602 27.55ZM32.1602 22.8C32.5935 22.8 32.8102 22.6 32.8102 22.2C32.8102 21.7667 32.5935 21.55 32.1602 21.55C31.7602 21.55 31.5602 21.7667 31.5602 22.2C31.5602 22.6 31.7602 22.8 32.1602 22.8ZM32.4602 18.2C32.6268 18.2 32.7768 18.15 32.9102 18.05C33.0435 17.9167 33.1102 17.7667 33.1102 17.6C33.1102 17.1667 32.8935 16.95 32.4602 16.95C32.0602 16.95 31.8602 17.1667 31.8602 17.6C31.8602 17.7667 31.9102 17.9167 32.0102 18.05C32.1435 18.15 32.2935 18.2 32.4602 18.2ZM33.1102 13.65C33.5102 13.65 33.7102 13.45 33.7102 13.05C33.7102 12.65 33.5102 12.45 33.1102 12.45C32.6768 12.45 32.4602 12.65 32.4602 13.05C32.4602 13.45 32.6768 13.65 33.1102 13.65ZM35.1602 9.05C35.5602 9.05 35.7602 8.85 35.7602 8.45C35.7602 8.01667 35.5602 7.8 35.1602 7.8C34.7268 7.8 34.5102 8.01667 34.5102 8.45C34.5102 8.85 34.7268 9.05 35.1602 9.05ZM37.2602 22.8C37.6935 22.8 37.9102 22.6 37.9102 22.2C37.9102 21.7667 37.6935 21.55 37.2602 21.55C36.8268 21.55 36.6102 21.7667 36.6102 22.2C36.6102 22.6 36.8268 22.8 37.2602 22.8ZM42.4102 22.85C42.5768 22.85 42.7102 22.8 42.8102 22.7C42.9435 22.5667 43.0102 22.4167 43.0102 22.25C43.0102 21.8167 42.8102 21.6 42.4102 21.6C41.9768 21.6 41.7602 21.8167 41.7602 22.25C41.7602 22.4167 41.8102 22.5667 41.9102 22.7C42.0435 22.8 42.2102 22.85 42.4102 22.85ZM44.5602 19.1C44.4602 17.4 44.0935 15.7667 43.4602 14.2L40.0102 6.15L36.5602 14.2C35.8602 15.7667 35.4935 17.4 35.4602 19.1H44.5602ZM44.6602 8.65C45.0602 8.65 45.2602 8.43333 45.2602 8C45.2602 7.56667 45.0602 7.35 44.6602 7.35C44.2268 7.35 44.0102 7.56667 44.0102 8C44.0102 8.43333 44.2268 8.65 44.6602 8.65ZM45.7102 12.6C45.7102 13.0333 45.9268 13.25 46.3602 13.25C46.7602 13.25 46.9602 13.0333 46.9602 12.6C46.9602 12.2 46.7602 12 46.3602 12C45.9268 12 45.7102 12.2 45.7102 12.6ZM46.7602 22.05C46.7602 22.4833 46.9602 22.7 47.3602 22.7C47.7935 22.7 48.0102 22.4833 48.0102 22.05C48.0102 21.65 47.7935 21.45 47.3602 21.45C46.9602 21.45 46.7602 21.65 46.7602 22.05ZM47.7102 32.15C47.8768 32.15 48.0102 32.1 48.1102 32C48.2435 31.8667 48.3102 31.7167 48.3102 31.55C48.3102 31.3833 48.2435 31.2333 48.1102 31.1C48.0102 30.9667 47.8768 30.9 47.7102 30.9C47.2768 30.9 47.0602 31.1167 47.0602 31.55C47.0602 31.95 47.2768 32.15 47.7102 32.15ZM47.7102 27.25C47.8768 27.25 48.0102 27.1833 48.1102 27.05C48.2435 26.9167 48.3102 26.7667 48.3102 26.6C48.3102 26.4333 48.2435 26.3 48.1102 26.2C48.0102 26.0667 47.8768 26 47.7102 26C47.5435 26 47.3935 26.0667 47.2602 26.2C47.1268 26.3 47.0602 26.4333 47.0602 26.6C47.0602 27.0333 47.2768 27.25 47.7102 27.25ZM69.5133 14.55C70.9466 14.55 72.2799 14.8167 73.5133 15.35C74.7466 15.8833 75.8299 16.6167 76.7633 17.55C77.6966 18.4833 78.4299 19.5667 78.9633 20.8C79.4966 22.0333 79.7633 23.3667 79.7633 24.8C79.7633 26.2 79.4966 27.5333 78.9633 28.8C78.4299 30.0333 77.6966 31.1167 76.7633 32.05C75.8299 32.95 74.7466 33.6667 73.5133 34.2C72.2799 34.7333 70.9466 35 69.5133 35H67.2633H64.9633C63.5633 35 62.2299 34.7333 60.9633 34.2C59.7299 33.6667 58.6466 32.95 57.7133 32.05C56.8133 31.1167 56.0966 30.0333 55.5633 28.8C55.0299 27.5333 54.7633 26.2 54.7633 24.8H61.5633H62.5133C62.7799 24.8 62.8633 24.9 62.7633 25.1C62.3966 25.7667 62.3633 26.35 62.6633 26.85C62.9633 27.35 63.2799 27.7 63.6133 27.9C64.0466 28.1 64.4966 28.2 64.9633 28.2H67.2633H69.5133C70.4799 28.2 71.2966 27.8667 71.9633 27.2C72.6299 26.5333 72.9633 25.7333 72.9633 24.8C72.9633 23.8333 72.6299 23.0167 71.9633 22.35C71.2966 21.6833 70.4799 21.35 69.5133 21.35H67.2633H64.9633C63.5633 21.35 62.2299 21.0833 60.9633 20.55C59.7299 20.0167 58.6466 19.2833 57.7133 18.35C56.8133 17.4167 56.0966 16.3333 55.5633 15.1C55.0299 13.8333 54.7633 12.5 54.7633 11.1C54.7633 9.7 55.0299 8.38333 55.5633 7.15C56.0966 5.88333 56.8133 4.78333 57.7133 3.85C58.6466 2.91667 59.7299 2.18333 60.9633 1.65C62.2299 1.11666 63.5633 0.849999 64.9633 0.849999H67.2633H69.5133C70.9466 0.849999 72.2799 1.11666 73.5133 1.65C74.7466 2.18333 75.8299 2.91667 76.7633 3.85C77.6966 4.78333 78.4299 5.88333 78.9633 7.15C79.4966 8.38333 79.7633 9.7 79.7633 11.1H72.9633H71.9633C71.6966 11.1 71.6299 11 71.7633 10.8C72.0966 10.1667 72.1133 9.58333 71.8133 9.05C71.5466 8.51666 71.2466 8.16667 70.9133 8C70.4466 7.8 69.9799 7.7 69.5133 7.7H67.2633H64.9633C64.0299 7.7 63.2299 8.03333 62.5633 8.7C61.8966 9.36666 61.5633 10.1667 61.5633 11.1C61.5633 12.0667 61.8966 12.8833 62.5633 13.55C63.2299 14.2167 64.0299 14.55 64.9633 14.55H67.2633H69.5133ZM75.9633 8.1C75.7966 8.1 75.6466 8.16666 75.5133 8.3C75.4133 8.4 75.3633 8.53333 75.3633 8.7C75.3633 9.13333 75.5633 9.35 75.9633 9.35C76.3966 9.35 76.6133 9.13333 76.6133 8.7C76.6133 8.53333 76.5466 8.4 76.4133 8.3C76.2799 8.16666 76.1299 8.1 75.9633 8.1ZM72.7133 4.3C72.3133 4.3 72.1133 4.51667 72.1133 4.95C72.1133 5.35 72.3133 5.55 72.7133 5.55C73.1133 5.55 73.3133 5.35 73.3133 4.95C73.3133 4.51667 73.1133 4.3 72.7133 4.3ZM68.1133 3.45C67.7133 3.45 67.5133 3.65 67.5133 4.05C67.5133 4.45 67.7133 4.65 68.1133 4.65C68.5466 4.65 68.7633 4.45 68.7633 4.05C68.7633 3.65 68.5466 3.45 68.1133 3.45ZM63.3633 3.45C62.9299 3.45 62.7133 3.65 62.7133 4.05C62.7133 4.45 62.9299 4.65 63.3633 4.65C63.7633 4.65 63.9633 4.45 63.9633 4.05C63.9633 3.65 63.7633 3.45 63.3633 3.45ZM59.5633 6.2C59.1633 6.2 58.9633 6.41667 58.9633 6.85C58.9633 7.01667 59.0133 7.16667 59.1133 7.3C59.2466 7.4 59.3966 7.45 59.5633 7.45C59.7299 7.45 59.8633 7.4 59.9633 7.3C60.0966 7.16667 60.1633 7.01667 60.1633 6.85C60.1633 6.41667 59.9633 6.2 59.5633 6.2ZM58.6133 11.75C59.0466 11.75 59.2633 11.55 59.2633 11.15C59.2633 10.7167 59.0466 10.5 58.6133 10.5C58.4466 10.5 58.2966 10.5667 58.1633 10.7C58.0633 10.8333 58.0133 10.9833 58.0133 11.15C58.0133 11.3167 58.0633 11.4667 58.1633 11.6C58.2966 11.7 58.4466 11.75 58.6133 11.75ZM60.1633 16.05C60.5966 16.05 60.8133 15.8333 60.8133 15.4C60.8133 15 60.5966 14.8 60.1633 14.8C59.9966 14.8 59.8466 14.8667 59.7133 15C59.6133 15.1 59.5633 15.2333 59.5633 15.4C59.5633 15.5667 59.6133 15.7167 59.7133 15.85C59.8466 15.9833 59.9966 16.05 60.1633 16.05ZM63.9633 18.55C64.3966 18.55 64.6133 18.3333 64.6133 17.9C64.6133 17.7333 64.5466 17.6 64.4133 17.5C64.2799 17.3667 64.1299 17.3 63.9633 17.3C63.7966 17.3 63.6466 17.3667 63.5133 17.5C63.4133 17.6 63.3633 17.7333 63.3633 17.9C63.3633 18.3333 63.5633 18.55 63.9633 18.55ZM68.7633 18.55C68.9299 18.55 69.0633 18.5 69.1633 18.4C69.2966 18.2667 69.3633 18.1 69.3633 17.9C69.3633 17.7333 69.2966 17.6 69.1633 17.5C69.0633 17.3667 68.9299 17.3 68.7633 17.3C68.5966 17.3 68.4466 17.3667 68.3133 17.5C68.1799 17.6 68.1133 17.7333 68.1133 17.9C68.1133 18.3333 68.3299 18.55 68.7633 18.55ZM59.5633 28.5C59.7299 28.5 59.8799 28.45 60.0133 28.35C60.1466 28.2167 60.2133 28.0667 60.2133 27.9C60.2133 27.4667 59.9966 27.25 59.5633 27.25C59.3966 27.25 59.2466 27.3167 59.1133 27.45C59.0133 27.5833 58.9633 27.7333 58.9633 27.9C58.9633 28.0667 59.0133 28.2167 59.1133 28.35C59.2466 28.45 59.3966 28.5 59.5633 28.5ZM63.2133 31.4C63.6466 31.4 63.8633 31.1833 63.8633 30.75C63.8633 30.35 63.6466 30.15 63.2133 30.15C62.8133 30.15 62.6133 30.35 62.6133 30.75C62.6133 31.1833 62.8133 31.4 63.2133 31.4ZM67.9633 31.7C68.1299 31.7 68.2799 31.65 68.4133 31.55C68.5466 31.4167 68.6133 31.2667 68.6133 31.1C68.6133 30.6667 68.3966 30.45 67.9633 30.45C67.5633 30.45 67.3633 30.6667 67.3633 31.1C67.3633 31.2667 67.4133 31.4167 67.5133 31.55C67.6466 31.65 67.7966 31.7 67.9633 31.7ZM73.0133 31.1C73.4466 31.1 73.6633 30.8833 73.6633 30.45C73.6633 30.05 73.4466 29.85 73.0133 29.85C72.6133 29.85 72.4133 30.05 72.4133 30.45C72.4133 30.8833 72.6133 31.1 73.0133 31.1ZM73.3133 19.25C73.7466 19.25 73.9633 19.05 73.9633 18.65C73.9633 18.25 73.7466 18.05 73.3133 18.05C73.1466 18.05 72.9966 18.1167 72.8633 18.25C72.7633 18.35 72.7133 18.4833 72.7133 18.65C72.7133 18.8167 72.7633 18.9667 72.8633 19.1C72.9966 19.2 73.1466 19.25 73.3133 19.25ZM75.9633 27.3C76.1299 27.3 76.2799 27.25 76.4133 27.15C76.5466 27.0167 76.6133 26.8667 76.6133 26.7C76.6133 26.2667 76.3966 26.05 75.9633 26.05C75.5633 26.05 75.3633 26.2667 75.3633 26.7C75.3633 26.8667 75.4133 27.0167 75.5133 27.15C75.6466 27.25 75.7966 27.3 75.9633 27.3ZM75.9633 22.6C76.3966 22.6 76.6133 22.4 76.6133 22C76.6133 21.5667 76.3966 21.35 75.9633 21.35C75.5633 21.35 75.3633 21.5667 75.3633 22C75.3633 22.4 75.5633 22.6 75.9633 22.6ZM90.1105 30.45C90.1105 32.5833 90.4939 33.9667 91.2605 34.6C91.3272 34.6667 91.3439 34.75 91.3105 34.85C91.3105 34.95 91.2272 35 91.0605 35H82.3105C82.1439 35 82.0439 34.95 82.0105 34.85C82.0105 34.75 82.0605 34.6667 82.1605 34.6C82.8939 33.9667 83.2605 32.5833 83.2605 30.45V5.4C83.2605 3.23333 82.8939 1.85 82.1605 1.25C81.8939 0.983332 81.9439 0.849999 82.3105 0.849999H87.8105H90.1105H91.0605C91.3939 0.849999 91.4605 0.983332 91.2605 1.25C90.4939 1.81666 90.1105 3.2 90.1105 5.4V7.65V11.8V19.05V28.15V30.45ZM86.7105 32.3C87.1105 32.3 87.3105 32.0833 87.3105 31.65C87.3105 31.25 87.1105 31.05 86.7105 31.05C86.2772 31.05 86.0605 31.25 86.0605 31.65C86.0605 32.0833 86.2772 32.3 86.7105 32.3ZM86.7105 27.5C87.1105 27.5 87.3105 27.3 87.3105 26.9C87.3105 26.5 87.1105 26.3 86.7105 26.3C86.2772 26.3 86.0605 26.5 86.0605 26.9C86.0605 27.3 86.2772 27.5 86.7105 27.5ZM86.7105 22.95C87.1105 22.95 87.3105 22.75 87.3105 22.35C87.3105 21.9167 87.1105 21.7 86.7105 21.7C86.2772 21.7 86.0605 21.9167 86.0605 22.35C86.0605 22.75 86.2772 22.95 86.7105 22.95ZM86.7105 18.35C87.1105 18.35 87.3105 18.1333 87.3105 17.7C87.3105 17.3 87.1105 17.1 86.7105 17.1C86.2772 17.1 86.0605 17.3 86.0605 17.7C86.0605 18.1333 86.2772 18.35 86.7105 18.35ZM86.7105 13.65C87.1439 13.65 87.3605 13.45 87.3605 13.05C87.3605 12.6167 87.1439 12.4 86.7105 12.4C86.5439 12.4 86.3939 12.4667 86.2605 12.6C86.1605 12.7 86.1105 12.85 86.1105 13.05C86.1105 13.2167 86.1605 13.3667 86.2605 13.5C86.3939 13.6 86.5439 13.65 86.7105 13.65ZM86.0605 8.45C86.0605 8.85 86.2772 9.05 86.7105 9.05C87.1105 9.05 87.3105 8.85 87.3105 8.45C87.3105 8.01667 87.1105 7.8 86.7105 7.8C86.2772 7.8 86.0605 8.01667 86.0605 8.45ZM86.7105 4.4C87.1439 4.4 87.3605 4.2 87.3605 3.8C87.3605 3.36667 87.1439 3.15 86.7105 3.15C86.5439 3.15 86.3939 3.21667 86.2605 3.35C86.1605 3.48333 86.1105 3.63333 86.1105 3.8C86.1105 3.96667 86.1605 4.11667 86.2605 4.25C86.3939 4.35 86.5439 4.4 86.7105 4.4ZM117.033 30.45C117.033 32.55 117.416 33.9333 118.183 34.6C118.283 34.6667 118.316 34.75 118.283 34.85C118.249 34.95 118.166 35 118.033 35H109.233C109.099 35 109.016 34.95 108.983 34.85C108.949 34.75 108.983 34.6667 109.083 34.6C109.683 34.1 110.033 33.1333 110.133 31.7C110.199 31.1 110.166 30.5667 110.033 30.1C109.933 29.6 109.699 29.1167 109.333 28.65L101.083 17.15V21.35V23.6V30.45C101.083 32.55 101.466 33.9333 102.233 34.6C102.333 34.6667 102.366 34.75 102.333 34.85C102.299 34.95 102.216 35 102.083 35H93.2828C93.1495 35 93.0661 34.95 93.0328 34.85C92.9995 34.75 93.0328 34.6667 93.1328 34.6C93.8995 33.9333 94.2828 32.55 94.2828 30.45V28.15V5.4C94.2828 3.23333 93.8995 1.85 93.1328 1.25C93.0328 1.15 92.9995 1.06667 93.0328 1C93.0661 0.899999 93.1495 0.849999 93.2828 0.849999H102.083C102.216 0.849999 102.299 0.899999 102.333 1C102.366 1.06667 102.333 1.15 102.233 1.25C101.799 1.58333 101.483 2.21667 101.283 3.15C101.149 3.85 101.133 4.48333 101.233 5.05C101.366 5.58333 101.633 6.13333 102.033 6.7L110.233 18.15V14.5V9.95V5.4C110.233 3.23333 109.849 1.85 109.083 1.25C108.983 1.15 108.949 1.06667 108.983 1C109.016 0.899999 109.099 0.849999 109.233 0.849999H118.033C118.166 0.849999 118.249 0.899999 118.283 1C118.316 1.06667 118.283 1.15 118.183 1.25C117.416 1.85 117.033 3.23333 117.033 5.4V30.45ZM97.7328 32.6C98.1328 32.6 98.3328 32.3833 98.3328 31.95C98.3328 31.5167 98.1328 31.3 97.7328 31.3C97.3328 31.3 97.1328 31.5167 97.1328 31.95C97.1328 32.3833 97.3328 32.6 97.7328 32.6ZM97.7328 27.8C98.1328 27.8 98.3328 27.6 98.3328 27.2C98.3328 26.7667 98.1328 26.55 97.7328 26.55C97.3328 26.55 97.1328 26.7667 97.1328 27.2C97.1328 27.6 97.3328 27.8 97.7328 27.8ZM97.7328 23.25C98.1328 23.25 98.3328 23.0333 98.3328 22.6C98.3328 22.4333 98.2661 22.3 98.1328 22.2C98.0328 22.0667 97.8995 22 97.7328 22C97.5661 22 97.4161 22.0667 97.2828 22.2C97.1828 22.3 97.1328 22.4333 97.1328 22.6C97.1328 23.0333 97.3328 23.25 97.7328 23.25ZM97.7328 18.6C97.8995 18.6 98.0328 18.55 98.1328 18.45C98.2661 18.3167 98.3328 18.1667 98.3328 18C98.3328 17.5667 98.1328 17.35 97.7328 17.35C97.3328 17.35 97.1328 17.5667 97.1328 18C97.1328 18.1667 97.1828 18.3167 97.2828 18.45C97.4161 18.55 97.5661 18.6 97.7328 18.6ZM97.7828 13.95C98.1828 13.95 98.3828 13.7333 98.3828 13.3C98.3828 12.9 98.1828 12.7 97.7828 12.7C97.3495 12.7 97.1328 12.9 97.1328 13.3C97.1328 13.7333 97.3495 13.95 97.7828 13.95ZM97.1328 8.7C97.1328 9.13333 97.3328 9.35 97.7328 9.35C98.1328 9.35 98.3328 9.13333 98.3328 8.7C98.3328 8.3 98.1328 8.1 97.7328 8.1C97.3328 8.1 97.1328 8.3 97.1328 8.7ZM97.7828 4.7C98.1828 4.7 98.3828 4.48333 98.3828 4.05C98.3828 3.88333 98.3161 3.75 98.1828 3.65C98.0828 3.51666 97.9495 3.45 97.7828 3.45C97.6161 3.45 97.4661 3.51666 97.3328 3.65C97.1995 3.75 97.1328 3.88333 97.1328 4.05C97.1328 4.48333 97.3495 4.7 97.7828 4.7ZM100.733 10.75C101.066 10.45 101.066 10.1333 100.733 9.8C100.666 9.76667 100.599 9.73333 100.533 9.7C100.499 9.66666 100.449 9.65 100.383 9.65L100.483 10.9C100.549 10.9 100.633 10.85 100.733 10.75ZM103.033 14.65C103.199 14.65 103.333 14.6 103.433 14.5C103.566 14.3667 103.633 14.2167 103.633 14.05C103.633 13.8833 103.566 13.75 103.433 13.65C103.333 13.5167 103.199 13.45 103.033 13.45C102.599 13.45 102.383 13.65 102.383 14.05C102.383 14.45 102.599 14.65 103.033 14.65ZM105.833 18.25C106.233 18.25 106.433 18.0333 106.433 17.6C106.433 17.4333 106.366 17.3 106.233 17.2C106.133 17.0667 105.999 17 105.833 17C105.666 17 105.516 17.0667 105.383 17.2C105.249 17.3 105.183 17.4333 105.183 17.6C105.183 18.0333 105.399 18.25 105.833 18.25ZM108.483 22.3C108.649 22.3 108.783 22.2333 108.883 22.1C109.016 21.9667 109.083 21.8167 109.083 21.65C109.083 21.4833 109.016 21.3333 108.883 21.2C108.783 21.0667 108.649 21 108.483 21C108.049 21 107.833 21.2167 107.833 21.65C107.833 22.0833 108.049 22.3 108.483 22.3ZM111.033 26.35C111.166 26.4833 111.299 26.55 111.433 26.55L111.333 25.3C111.233 25.3 111.133 25.35 111.033 25.45C110.733 25.75 110.733 26.05 111.033 26.35ZM113.733 32.25C114.133 32.25 114.333 32.0333 114.333 31.6C114.333 31.2 114.133 31 113.733 31C113.299 31 113.083 31.2 113.083 31.6C113.083 32.0333 113.299 32.25 113.733 32.25ZM113.733 27.45C114.133 27.45 114.333 27.25 114.333 26.85C114.333 26.4167 114.133 26.2 113.733 26.2C113.299 26.2 113.083 26.4167 113.083 26.85C113.083 27.25 113.299 27.45 113.733 27.45ZM113.733 22.9C113.899 22.9 114.033 22.85 114.133 22.75C114.266 22.6167 114.333 22.4667 114.333 22.3C114.333 21.8667 114.133 21.65 113.733 21.65C113.299 21.65 113.083 21.8667 113.083 22.3C113.083 22.4667 113.149 22.6167 113.283 22.75C113.416 22.85 113.566 22.9 113.733 22.9ZM113.733 18.25C114.133 18.25 114.333 18.05 114.333 17.65C114.333 17.2167 114.133 17 113.733 17C113.299 17 113.083 17.2167 113.083 17.65C113.083 18.05 113.299 18.25 113.733 18.25ZM113.783 13.6C113.949 13.6 114.083 13.5333 114.183 13.4C114.316 13.2667 114.383 13.1167 114.383 12.95C114.383 12.7833 114.316 12.65 114.183 12.55C114.083 12.4167 113.949 12.35 113.783 12.35C113.349 12.35 113.133 12.55 113.133 12.95C113.133 13.3833 113.349 13.6 113.783 13.6ZM113.083 8.35C113.083 8.78333 113.299 9 113.733 9C114.133 9 114.333 8.78333 114.333 8.35C114.333 7.95 114.133 7.75 113.733 7.75C113.299 7.75 113.083 7.95 113.083 8.35ZM113.783 4.35C113.949 4.35 114.083 4.3 114.183 4.2C114.316 4.06667 114.383 3.91667 114.383 3.75C114.383 3.58333 114.316 3.43333 114.183 3.3C114.083 3.16667 113.949 3.1 113.783 3.1C113.349 3.1 113.133 3.31667 113.133 3.75C113.133 3.91667 113.183 4.06667 113.283 4.2C113.416 4.3 113.583 4.35 113.783 4.35ZM134.137 1.15C135.704 1.15 137.17 1.45 138.537 2.05C139.937 2.65 141.154 3.46667 142.187 4.5C143.22 5.53333 144.037 6.75 144.637 8.15C145.237 9.51667 145.537 10.9833 145.537 12.55V23.95C145.537 25.5167 145.237 27 144.637 28.4C144.037 29.7667 143.22 30.9667 142.187 32C141.154 33.0333 139.937 33.85 138.537 34.45C137.17 35.0167 135.704 35.3 134.137 35.3H131.887C130.32 35.3 128.837 35.0167 127.437 34.45C126.07 33.85 124.87 33.0333 123.837 32C122.804 30.9667 121.987 29.7667 121.387 28.4C120.787 27 120.487 25.5167 120.487 23.95V12.55C120.487 10.9833 120.787 9.51667 121.387 8.15C121.987 6.75 122.804 5.53333 123.837 4.5C124.87 3.46667 126.07 2.65 127.437 2.05C128.837 1.45 130.32 1.15 131.887 1.15H134.137ZM142.637 14.75C142.637 14.5833 142.57 14.45 142.437 14.35C142.304 14.2167 142.154 14.15 141.987 14.15C141.82 14.15 141.67 14.2167 141.537 14.35C141.437 14.45 141.387 14.5833 141.387 14.75C141.387 14.9167 141.437 15.0667 141.537 15.2C141.67 15.3333 141.82 15.4 141.987 15.4C142.42 15.4 142.637 15.1833 142.637 14.75ZM142.637 18.95C142.637 18.55 142.42 18.35 141.987 18.35C141.587 18.35 141.387 18.55 141.387 18.95C141.387 19.3833 141.587 19.6 141.987 19.6C142.42 19.6 142.637 19.3833 142.637 18.95ZM141.387 9.55C141.22 9.55 141.07 9.61667 140.937 9.75C140.837 9.85 140.787 9.98333 140.787 10.15C140.787 10.3167 140.837 10.4667 140.937 10.6C141.07 10.7333 141.22 10.8 141.387 10.8C141.82 10.8 142.037 10.5833 142.037 10.15C142.037 9.75 141.82 9.55 141.387 9.55ZM135.387 4.1C135.22 4.1 135.07 4.16667 134.937 4.3C134.837 4.43333 134.787 4.58333 134.787 4.75C134.787 4.91667 134.837 5.06667 134.937 5.2C135.07 5.3 135.22 5.35 135.387 5.35C135.554 5.35 135.704 5.3 135.837 5.2C135.97 5.06667 136.037 4.91667 136.037 4.75C136.037 4.31667 135.82 4.1 135.387 4.1ZM130.337 3.8C129.937 3.8 129.737 4.01667 129.737 4.45C129.737 4.85 129.937 5.05 130.337 5.05C130.77 5.05 130.987 4.85 130.987 4.45C130.987 4.01667 130.77 3.8 130.337 3.8ZM124.137 25.35C124.57 25.35 124.787 25.15 124.787 24.75C124.787 24.3167 124.57 24.1 124.137 24.1C123.97 24.1 123.82 24.1667 123.687 24.3C123.587 24.4333 123.537 24.5833 123.537 24.75C123.537 24.9167 123.587 25.0667 123.687 25.2C123.82 25.3 123.97 25.35 124.137 25.35ZM123.387 20.05C123.387 20.45 123.587 20.65 123.987 20.65C124.42 20.65 124.637 20.45 124.637 20.05C124.637 19.6167 124.42 19.4 123.987 19.4C123.587 19.4 123.387 19.6167 123.387 20.05ZM124.137 16.35C124.57 16.35 124.787 16.1333 124.787 15.7C124.787 15.3 124.57 15.1 124.137 15.1C123.97 15.1 123.82 15.1667 123.687 15.3C123.587 15.4 123.537 15.5333 123.537 15.7C123.537 15.8667 123.587 16.0167 123.687 16.15C123.82 16.2833 123.97 16.35 124.137 16.35ZM124.487 11.5C124.887 11.5 125.087 11.2833 125.087 10.85C125.087 10.45 124.887 10.25 124.487 10.25C124.054 10.25 123.837 10.45 123.837 10.85C123.837 11.2833 124.054 11.5 124.487 11.5ZM125.737 29.5C126.137 29.5 126.337 29.3 126.337 28.9C126.337 28.4667 126.137 28.25 125.737 28.25C125.337 28.25 125.137 28.4667 125.137 28.9C125.137 29.3 125.337 29.5 125.737 29.5ZM126.337 7.1C126.537 7.1 126.687 7.05 126.787 6.95C126.92 6.81667 126.987 6.66667 126.987 6.5C126.987 6.06667 126.77 5.85 126.337 5.85C126.17 5.85 126.02 5.91667 125.887 6.05C125.787 6.15 125.737 6.3 125.737 6.5C125.737 6.66667 125.787 6.81667 125.887 6.95C126.02 7.05 126.17 7.1 126.337 7.1ZM129.737 32C130.137 32 130.337 31.8 130.337 31.4C130.337 31 130.137 30.8 129.737 30.8C129.304 30.8 129.087 31 129.087 31.4C129.087 31.8 129.304 32 129.737 32ZM134.137 32.45C134.537 32.45 134.737 32.25 134.737 31.85C134.737 31.45 134.537 31.25 134.137 31.25C133.704 31.25 133.487 31.45 133.487 31.85C133.487 32.25 133.704 32.45 134.137 32.45ZM134.137 28.5C135.404 28.5 136.47 28.0667 137.337 27.2C138.237 26.3 138.687 25.2167 138.687 23.95V19.4V17.1V12.55C138.687 11.2833 138.237 10.2167 137.337 9.35C136.47 8.45 135.404 8 134.137 8H131.887C131.254 8 130.654 8.11667 130.087 8.35C129.554 8.58333 129.07 8.91667 128.637 9.35C128.237 9.75 127.92 10.2333 127.687 10.8C127.454 11.3333 127.337 11.9167 127.337 12.55V17.1V19.4V23.95C127.337 24.5833 127.454 25.1833 127.687 25.75C127.92 26.2833 128.237 26.7667 128.637 27.2C129.07 27.6 129.554 27.9167 130.087 28.15C130.654 28.3833 131.254 28.5 131.887 28.5H134.137ZM138.187 31.4C138.354 31.4 138.504 31.35 138.637 31.25C138.77 31.1167 138.837 30.9667 138.837 30.8C138.837 30.3667 138.62 30.15 138.187 30.15C138.02 30.15 137.87 30.2167 137.737 30.35C137.637 30.45 137.587 30.6 137.587 30.8C137.587 30.9667 137.637 31.1167 137.737 31.25C137.87 31.35 138.02 31.4 138.187 31.4ZM139.487 6.9C139.92 6.9 140.137 6.68333 140.137 6.25C140.137 5.85 139.92 5.65 139.487 5.65C139.087 5.65 138.887 5.85 138.887 6.25C138.887 6.68333 139.087 6.9 139.487 6.9ZM141.037 27.7C141.437 27.7 141.637 27.4833 141.637 27.05C141.637 26.65 141.437 26.45 141.037 26.45C140.637 26.45 140.437 26.65 140.437 27.05C140.437 27.4833 140.637 27.7 141.037 27.7ZM142.137 23.75C142.57 23.75 142.787 23.55 142.787 23.15C142.787 22.75 142.57 22.55 142.137 22.55C141.737 22.55 141.537 22.75 141.537 23.15C141.537 23.55 141.737 23.75 142.137 23.75ZM169.652 30.45C169.652 32.5833 170.035 33.9667 170.802 34.6C170.868 34.6667 170.885 34.75 170.852 34.85C170.852 34.95 170.768 35 170.602 35H161.852C161.685 35 161.585 34.95 161.552 34.85C161.552 34.75 161.602 34.6667 161.702 34.6C162.435 33.9667 162.802 32.5833 162.802 30.45V5.4C162.802 3.23333 162.435 1.85 161.702 1.25C161.435 0.983332 161.485 0.849999 161.852 0.849999H167.352H169.652H170.602C170.935 0.849999 171.002 0.983332 170.802 1.25C170.035 1.81666 169.652 3.2 169.652 5.4V7.65V11.8V19.05V28.15V30.45ZM166.252 32.3C166.652 32.3 166.852 32.0833 166.852 31.65C166.852 31.25 166.652 31.05 166.252 31.05C165.818 31.05 165.602 31.25 165.602 31.65C165.602 32.0833 165.818 32.3 166.252 32.3ZM166.252 27.5C166.652 27.5 166.852 27.3 166.852 26.9C166.852 26.5 166.652 26.3 166.252 26.3C165.818 26.3 165.602 26.5 165.602 26.9C165.602 27.3 165.818 27.5 166.252 27.5ZM166.252 22.95C166.652 22.95 166.852 22.75 166.852 22.35C166.852 21.9167 166.652 21.7 166.252 21.7C165.818 21.7 165.602 21.9167 165.602 22.35C165.602 22.75 165.818 22.95 166.252 22.95ZM166.252 18.35C166.652 18.35 166.852 18.1333 166.852 17.7C166.852 17.3 166.652 17.1 166.252 17.1C165.818 17.1 165.602 17.3 165.602 17.7C165.602 18.1333 165.818 18.35 166.252 18.35ZM166.252 13.65C166.685 13.65 166.902 13.45 166.902 13.05C166.902 12.6167 166.685 12.4 166.252 12.4C166.085 12.4 165.935 12.4667 165.802 12.6C165.702 12.7 165.652 12.85 165.652 13.05C165.652 13.2167 165.702 13.3667 165.802 13.5C165.935 13.6 166.085 13.65 166.252 13.65ZM165.602 8.45C165.602 8.85 165.818 9.05 166.252 9.05C166.652 9.05 166.852 8.85 166.852 8.45C166.852 8.01667 166.652 7.8 166.252 7.8C165.818 7.8 165.602 8.01667 165.602 8.45ZM166.252 4.4C166.685 4.4 166.902 4.2 166.902 3.8C166.902 3.36667 166.685 3.15 166.252 3.15C166.085 3.15 165.935 3.21667 165.802 3.35C165.702 3.48333 165.652 3.63333 165.652 3.8C165.652 3.96667 165.702 4.11667 165.802 4.25C165.935 4.35 166.085 4.4 166.252 4.4ZM196.574 30.45C196.574 32.55 196.957 33.9333 197.724 34.6C197.824 34.6667 197.857 34.75 197.824 34.85C197.79 34.95 197.707 35 197.574 35H188.774C188.64 35 188.557 34.95 188.524 34.85C188.49 34.75 188.524 34.6667 188.624 34.6C189.224 34.1 189.574 33.1333 189.674 31.7C189.74 31.1 189.707 30.5667 189.574 30.1C189.474 29.6 189.24 29.1167 188.874 28.65L180.624 17.15V21.35V23.6V30.45C180.624 32.55 181.007 33.9333 181.774 34.6C181.874 34.6667 181.907 34.75 181.874 34.85C181.84 34.95 181.757 35 181.624 35H172.824C172.69 35 172.607 34.95 172.574 34.85C172.54 34.75 172.574 34.6667 172.674 34.6C173.44 33.9333 173.824 32.55 173.824 30.45V28.15V5.4C173.824 3.23333 173.44 1.85 172.674 1.25C172.574 1.15 172.54 1.06667 172.574 1C172.607 0.899999 172.69 0.849999 172.824 0.849999H181.624C181.757 0.849999 181.84 0.899999 181.874 1C181.907 1.06667 181.874 1.15 181.774 1.25C181.34 1.58333 181.024 2.21667 180.824 3.15C180.69 3.85 180.674 4.48333 180.774 5.05C180.907 5.58333 181.174 6.13333 181.574 6.7L189.774 18.15V14.5V9.95V5.4C189.774 3.23333 189.39 1.85 188.624 1.25C188.524 1.15 188.49 1.06667 188.524 1C188.557 0.899999 188.64 0.849999 188.774 0.849999H197.574C197.707 0.849999 197.79 0.899999 197.824 1C197.857 1.06667 197.824 1.15 197.724 1.25C196.957 1.85 196.574 3.23333 196.574 5.4V30.45ZM177.274 32.6C177.674 32.6 177.874 32.3833 177.874 31.95C177.874 31.5167 177.674 31.3 177.274 31.3C176.874 31.3 176.674 31.5167 176.674 31.95C176.674 32.3833 176.874 32.6 177.274 32.6ZM177.274 27.8C177.674 27.8 177.874 27.6 177.874 27.2C177.874 26.7667 177.674 26.55 177.274 26.55C176.874 26.55 176.674 26.7667 176.674 27.2C176.674 27.6 176.874 27.8 177.274 27.8ZM177.274 23.25C177.674 23.25 177.874 23.0333 177.874 22.6C177.874 22.4333 177.807 22.3 177.674 22.2C177.574 22.0667 177.44 22 177.274 22C177.107 22 176.957 22.0667 176.824 22.2C176.724 22.3 176.674 22.4333 176.674 22.6C176.674 23.0333 176.874 23.25 177.274 23.25ZM177.274 18.6C177.44 18.6 177.574 18.55 177.674 18.45C177.807 18.3167 177.874 18.1667 177.874 18C177.874 17.5667 177.674 17.35 177.274 17.35C176.874 17.35 176.674 17.5667 176.674 18C176.674 18.1667 176.724 18.3167 176.824 18.45C176.957 18.55 177.107 18.6 177.274 18.6ZM177.324 13.95C177.724 13.95 177.924 13.7333 177.924 13.3C177.924 12.9 177.724 12.7 177.324 12.7C176.89 12.7 176.674 12.9 176.674 13.3C176.674 13.7333 176.89 13.95 177.324 13.95ZM176.674 8.7C176.674 9.13333 176.874 9.35 177.274 9.35C177.674 9.35 177.874 9.13333 177.874 8.7C177.874 8.3 177.674 8.1 177.274 8.1C176.874 8.1 176.674 8.3 176.674 8.7ZM177.324 4.7C177.724 4.7 177.924 4.48333 177.924 4.05C177.924 3.88333 177.857 3.75 177.724 3.65C177.624 3.51666 177.49 3.45 177.324 3.45C177.157 3.45 177.007 3.51666 176.874 3.65C176.74 3.75 176.674 3.88333 176.674 4.05C176.674 4.48333 176.89 4.7 177.324 4.7ZM180.274 10.75C180.607 10.45 180.607 10.1333 180.274 9.8C180.207 9.76667 180.14 9.73333 180.074 9.7C180.04 9.66666 179.99 9.65 179.924 9.65L180.024 10.9C180.09 10.9 180.174 10.85 180.274 10.75ZM182.574 14.65C182.74 14.65 182.874 14.6 182.974 14.5C183.107 14.3667 183.174 14.2167 183.174 14.05C183.174 13.8833 183.107 13.75 182.974 13.65C182.874 13.5167 182.74 13.45 182.574 13.45C182.14 13.45 181.924 13.65 181.924 14.05C181.924 14.45 182.14 14.65 182.574 14.65ZM185.374 18.25C185.774 18.25 185.974 18.0333 185.974 17.6C185.974 17.4333 185.907 17.3 185.774 17.2C185.674 17.0667 185.54 17 185.374 17C185.207 17 185.057 17.0667 184.924 17.2C184.79 17.3 184.724 17.4333 184.724 17.6C184.724 18.0333 184.94 18.25 185.374 18.25ZM188.024 22.3C188.19 22.3 188.324 22.2333 188.424 22.1C188.557 21.9667 188.624 21.8167 188.624 21.65C188.624 21.4833 188.557 21.3333 188.424 21.2C188.324 21.0667 188.19 21 188.024 21C187.59 21 187.374 21.2167 187.374 21.65C187.374 22.0833 187.59 22.3 188.024 22.3ZM190.574 26.35C190.707 26.4833 190.84 26.55 190.974 26.55L190.874 25.3C190.774 25.3 190.674 25.35 190.574 25.45C190.274 25.75 190.274 26.05 190.574 26.35ZM193.274 32.25C193.674 32.25 193.874 32.0333 193.874 31.6C193.874 31.2 193.674 31 193.274 31C192.84 31 192.624 31.2 192.624 31.6C192.624 32.0333 192.84 32.25 193.274 32.25ZM193.274 27.45C193.674 27.45 193.874 27.25 193.874 26.85C193.874 26.4167 193.674 26.2 193.274 26.2C192.84 26.2 192.624 26.4167 192.624 26.85C192.624 27.25 192.84 27.45 193.274 27.45ZM193.274 22.9C193.44 22.9 193.574 22.85 193.674 22.75C193.807 22.6167 193.874 22.4667 193.874 22.3C193.874 21.8667 193.674 21.65 193.274 21.65C192.84 21.65 192.624 21.8667 192.624 22.3C192.624 22.4667 192.69 22.6167 192.824 22.75C192.957 22.85 193.107 22.9 193.274 22.9ZM193.274 18.25C193.674 18.25 193.874 18.05 193.874 17.65C193.874 17.2167 193.674 17 193.274 17C192.84 17 192.624 17.2167 192.624 17.65C192.624 18.05 192.84 18.25 193.274 18.25ZM193.324 13.6C193.49 13.6 193.624 13.5333 193.724 13.4C193.857 13.2667 193.924 13.1167 193.924 12.95C193.924 12.7833 193.857 12.65 193.724 12.55C193.624 12.4167 193.49 12.35 193.324 12.35C192.89 12.35 192.674 12.55 192.674 12.95C192.674 13.3833 192.89 13.6 193.324 13.6ZM192.624 8.35C192.624 8.78333 192.84 9 193.274 9C193.674 9 193.874 8.78333 193.874 8.35C193.874 7.95 193.674 7.75 193.274 7.75C192.84 7.75 192.624 7.95 192.624 8.35ZM193.324 4.35C193.49 4.35 193.624 4.3 193.724 4.2C193.857 4.06667 193.924 3.91667 193.924 3.75C193.924 3.58333 193.857 3.43333 193.724 3.3C193.624 3.16667 193.49 3.1 193.324 3.1C192.89 3.1 192.674 3.31667 192.674 3.75C192.674 3.91667 192.724 4.06667 192.824 4.2C192.957 4.3 193.124 4.35 193.324 4.35ZM237.856 0.849999C237.989 0.849999 238.073 0.899999 238.106 1C238.139 1.06667 238.089 1.15 237.956 1.25C237.223 1.91667 236.856 3.3 236.856 5.4V7.65V8.65C236.856 8.78333 236.806 8.86667 236.706 8.9C236.606 8.93333 236.523 8.9 236.456 8.8C235.789 8.03333 234.406 7.65 232.306 7.65H228.856V11.8V19.05V27.85V30.45C228.856 32.5833 229.223 33.9667 229.956 34.6C230.056 34.6667 230.089 34.75 230.056 34.85C230.056 34.95 229.973 35 229.806 35H221.006C220.873 35 220.789 34.95 220.756 34.85C220.723 34.75 220.773 34.6667 220.906 34.6C221.639 33.9333 222.006 32.55 222.006 30.45V7.65H218.556C216.389 7.65 215.006 8.03333 214.406 8.8C214.306 8.9 214.206 8.93333 214.106 8.9C214.039 8.86667 214.006 8.78333 214.006 8.65V7.65V5.4C214.006 3.3 213.623 1.91667 212.856 1.25C212.756 1.15 212.723 1.06667 212.756 1C212.789 0.899999 212.873 0.849999 213.006 0.849999H214.006H220.806H226.556H231.106H236.856H237.856ZM216.706 4.5C217.139 4.5 217.356 4.28333 217.356 3.85C217.356 3.45 217.139 3.25 216.706 3.25C216.306 3.25 216.106 3.45 216.106 3.85C216.106 4.28333 216.306 4.5 216.706 4.5ZM221.106 4.5C221.506 4.5 221.706 4.28333 221.706 3.85C221.706 3.45 221.506 3.25 221.106 3.25C220.673 3.25 220.456 3.45 220.456 3.85C220.456 4.28333 220.673 4.5 221.106 4.5ZM225.456 32.35C225.623 32.35 225.773 32.3 225.906 32.2C226.039 32.0667 226.106 31.9167 226.106 31.75C226.106 31.3167 225.889 31.1 225.456 31.1C225.056 31.1 224.856 31.3167 224.856 31.75C224.856 31.9167 224.906 32.0667 225.006 32.2C225.139 32.3 225.289 32.35 225.456 32.35ZM225.456 27.6C225.623 27.6 225.773 27.55 225.906 27.45C226.039 27.3167 226.106 27.1667 226.106 27C226.106 26.5667 225.889 26.35 225.456 26.35C225.056 26.35 224.856 26.5667 224.856 27C224.856 27.1667 224.906 27.3167 225.006 27.45C225.139 27.55 225.289 27.6 225.456 27.6ZM225.456 23C225.889 23 226.106 22.8 226.106 22.4C226.106 22 225.889 21.8 225.456 21.8C225.056 21.8 224.856 22 224.856 22.4C224.856 22.8 225.056 23 225.456 23ZM225.456 18.4C225.623 18.4 225.773 18.35 225.906 18.25C226.039 18.1167 226.106 17.9667 226.106 17.8C226.106 17.3667 225.889 17.15 225.456 17.15C225.056 17.15 224.856 17.3667 224.856 17.8C224.856 17.9667 224.906 18.1167 225.006 18.25C225.139 18.35 225.289 18.4 225.456 18.4ZM225.506 13.7C225.906 13.7 226.106 13.5 226.106 13.1C226.106 12.6667 225.906 12.45 225.506 12.45C225.073 12.45 224.856 12.6667 224.856 13.1C224.856 13.5 225.073 13.7 225.506 13.7ZM224.856 8.5C224.856 8.9 225.056 9.1 225.456 9.1C225.889 9.1 226.106 8.9 226.106 8.5C226.106 8.06666 225.889 7.85 225.456 7.85C225.056 7.85 224.856 8.06666 224.856 8.5ZM225.506 4.5C225.906 4.5 226.106 4.28333 226.106 3.85C226.106 3.45 225.906 3.25 225.506 3.25C225.073 3.25 224.856 3.45 224.856 3.85C224.856 4.28333 225.073 4.5 225.506 4.5ZM229.856 4.5C230.256 4.5 230.456 4.28333 230.456 3.85C230.456 3.45 230.256 3.25 229.856 3.25C229.423 3.25 229.206 3.45 229.206 3.85C229.206 4.28333 229.423 4.5 229.856 4.5ZM234.256 4.5C234.656 4.5 234.856 4.28333 234.856 3.85C234.856 3.45 234.656 3.25 234.256 3.25C233.823 3.25 233.606 3.45 233.606 3.85C233.606 4.28333 233.823 4.5 234.256 4.5ZM263.62 30.45C263.62 32.5833 263.986 33.9667 264.72 34.6C264.82 34.6667 264.853 34.75 264.82 34.85C264.82 34.95 264.736 35 264.57 35H255.77C255.636 35 255.553 34.95 255.52 34.85C255.486 34.75 255.536 34.6667 255.67 34.6C256.403 33.9333 256.77 32.55 256.77 30.45V23.6V21.35H247.67V23.6V30.45C247.67 32.5833 248.036 33.9667 248.77 34.6C248.87 34.6667 248.903 34.75 248.87 34.85C248.836 34.95 248.753 35 248.62 35H239.87C239.703 35 239.603 34.95 239.57 34.85C239.536 34.75 239.586 34.6667 239.72 34.6C240.453 33.9667 240.82 32.5833 240.82 30.45V28.15V5.4C240.82 3.23333 240.453 1.85 239.72 1.25C239.586 1.15 239.536 1.06667 239.57 1C239.603 0.899999 239.703 0.849999 239.87 0.849999H248.62C248.753 0.849999 248.836 0.899999 248.87 1C248.903 1.06667 248.87 1.15 248.77 1.25C248.036 1.85 247.67 3.23333 247.67 5.4V9.95V14.5H256.77V9.95V5.4C256.77 3.26667 256.403 1.88333 255.67 1.25C255.536 1.15 255.486 1.06667 255.52 1C255.553 0.899999 255.636 0.849999 255.77 0.849999H264.57C264.936 0.849999 264.986 0.983332 264.72 1.25C263.986 1.85 263.62 3.23333 263.62 5.4V30.45ZM244.12 32.7C244.553 32.7 244.77 32.5 244.77 32.1C244.77 31.6667 244.553 31.45 244.12 31.45C243.72 31.45 243.52 31.6667 243.52 32.1C243.52 32.5 243.72 32.7 244.12 32.7ZM244.12 27.95C244.553 27.95 244.77 27.7333 244.77 27.3C244.77 26.9 244.553 26.7 244.12 26.7C243.72 26.7 243.52 26.9 243.52 27.3C243.52 27.7333 243.72 27.95 244.12 27.95ZM244.12 23.35C244.553 23.35 244.77 23.15 244.77 22.75C244.77 22.35 244.553 22.15 244.12 22.15C243.72 22.15 243.52 22.35 243.52 22.75C243.52 23.15 243.72 23.35 244.12 23.35ZM244.12 18.75C244.553 18.75 244.77 18.5333 244.77 18.1C244.77 17.7 244.553 17.5 244.12 17.5C243.72 17.5 243.52 17.7 243.52 18.1C243.52 18.5333 243.72 18.75 244.12 18.75ZM244.17 14.05C244.603 14.05 244.82 13.85 244.82 13.45C244.82 13.0167 244.603 12.8 244.17 12.8C243.77 12.8 243.57 13.0167 243.57 13.45C243.57 13.85 243.77 14.05 244.17 14.05ZM243.52 8.85C243.52 9.25 243.72 9.45 244.12 9.45C244.553 9.45 244.77 9.25 244.77 8.85C244.77 8.41667 244.553 8.2 244.12 8.2C243.72 8.2 243.52 8.41667 243.52 8.85ZM244.17 4.8C244.603 4.8 244.82 4.6 244.82 4.2C244.82 3.8 244.603 3.6 244.17 3.6C243.77 3.6 243.57 3.8 243.57 4.2C243.57 4.6 243.77 4.8 244.17 4.8ZM249.42 18.6C249.586 18.6 249.72 18.55 249.82 18.45C249.953 18.3167 250.02 18.1667 250.02 18C250.02 17.8333 249.953 17.6833 249.82 17.55C249.72 17.4167 249.586 17.35 249.42 17.35C248.986 17.35 248.77 17.5667 248.77 18C248.77 18.4 248.986 18.6 249.42 18.6ZM254.57 18.6C254.97 18.6 255.17 18.4 255.17 18C255.17 17.5667 254.97 17.35 254.57 17.35C254.136 17.35 253.92 17.5667 253.92 18C253.92 18.4 254.136 18.6 254.57 18.6ZM260.22 2.95C259.786 2.95 259.57 3.16667 259.57 3.6C259.57 3.76667 259.636 3.91667 259.77 4.05C259.903 4.15 260.053 4.2 260.22 4.2C260.386 4.2 260.52 4.15 260.62 4.05C260.753 3.91667 260.82 3.76667 260.82 3.6C260.82 3.43333 260.753 3.28333 260.62 3.15C260.52 3.01667 260.386 2.95 260.22 2.95ZM260.17 7.6C260.003 7.6 259.853 7.66666 259.72 7.8C259.62 7.9 259.57 8.03333 259.57 8.2C259.57 8.63333 259.77 8.85 260.17 8.85C260.603 8.85 260.82 8.63333 260.82 8.2C260.82 8.03333 260.753 7.9 260.62 7.8C260.486 7.66666 260.336 7.6 260.17 7.6ZM260.82 12.8C260.82 12.6333 260.753 12.5 260.62 12.4C260.52 12.2667 260.386 12.2 260.22 12.2C260.053 12.2 259.903 12.2667 259.77 12.4C259.636 12.5 259.57 12.6333 259.57 12.8C259.57 13.2333 259.786 13.45 260.22 13.45C260.386 13.45 260.52 13.3833 260.62 13.25C260.753 13.1167 260.82 12.9667 260.82 12.8ZM260.17 32.1C260.603 32.1 260.82 31.8833 260.82 31.45C260.82 31.05 260.603 30.85 260.17 30.85C259.77 30.85 259.57 31.05 259.57 31.45C259.57 31.8833 259.77 32.1 260.17 32.1ZM260.17 27.3C260.603 27.3 260.82 27.1 260.82 26.7C260.82 26.2667 260.603 26.05 260.17 26.05C259.77 26.05 259.57 26.2667 259.57 26.7C259.57 27.1 259.77 27.3 260.17 27.3ZM260.17 22.75C260.336 22.75 260.486 22.7 260.62 22.6C260.753 22.4667 260.82 22.3167 260.82 22.15C260.82 21.7167 260.603 21.5 260.17 21.5C259.77 21.5 259.57 21.7167 259.57 22.15C259.57 22.3167 259.62 22.4667 259.72 22.6C259.853 22.7 260.003 22.75 260.17 22.75ZM260.32 18.4C260.72 18.4 260.92 18.2 260.92 17.8C260.92 17.4 260.72 17.2 260.32 17.2C259.92 17.2 259.72 17.4 259.72 17.8C259.72 18.2 259.92 18.4 260.32 18.4ZM290.82 30.45C290.82 32.6167 291.187 34.0167 291.92 34.65C292.02 34.7167 292.054 34.8 292.02 34.9C292.02 34.9667 291.937 35 291.77 35H267.07C266.904 35 266.804 34.9667 266.77 34.9C266.77 34.8 266.82 34.7167 266.92 34.65C267.654 34.0167 268.02 32.6167 268.02 30.45V28.2V5.4C268.02 2.36667 267.27 0.849999 265.77 0.849999H291.77C291.937 0.849999 292.02 0.899999 292.02 1C292.054 1.1 292.02 1.18333 291.92 1.25C291.187 1.88333 290.82 3.26667 290.82 5.4V7.7V8.7C290.82 8.83333 290.77 8.91667 290.67 8.95C290.57 8.98333 290.487 8.93333 290.42 8.8C289.787 8.06667 288.404 7.7 286.27 7.7H274.87V9.95V14.5H281.72C283.854 14.5 285.237 14.1333 285.87 13.4C285.937 13.3 286.02 13.2667 286.12 13.3C286.22 13.3333 286.27 13.4167 286.27 13.55V14.5V16.8V21.35V22.35C286.27 22.4833 286.22 22.5667 286.12 22.6C286.02 22.6333 285.937 22.6 285.87 22.5C285.204 21.7333 283.82 21.35 281.72 21.35H274.87V23.6V28.2H286.27C288.37 28.2 289.754 27.8167 290.42 27.05C290.487 26.95 290.57 26.9167 290.67 26.95C290.77 26.9833 290.82 27.0667 290.82 27.2V28.2V30.45ZM283.77 17.45C283.37 17.45 283.17 17.6667 283.17 18.1C283.17 18.5 283.37 18.7 283.77 18.7C284.204 18.7 284.42 18.5 284.42 18.1C284.42 17.6667 284.204 17.45 283.77 17.45ZM288.12 3.55C287.954 3.55 287.804 3.61667 287.67 3.75C287.57 3.85 287.52 3.98333 287.52 4.15C287.52 4.31666 287.57 4.46666 287.67 4.6C287.804 4.73333 287.954 4.8 288.12 4.8C288.554 4.8 288.77 4.58333 288.77 4.15C288.77 3.75 288.554 3.55 288.12 3.55ZM284.07 3.55C283.637 3.55 283.42 3.75 283.42 4.15C283.42 4.58333 283.637 4.8 284.07 4.8C284.237 4.8 284.37 4.73333 284.47 4.6C284.604 4.46666 284.67 4.31666 284.67 4.15C284.67 3.98333 284.604 3.85 284.47 3.75C284.37 3.61667 284.237 3.55 284.07 3.55ZM279.87 3.55C279.437 3.55 279.22 3.75 279.22 4.15C279.22 4.58333 279.437 4.8 279.87 4.8C280.037 4.8 280.17 4.73333 280.27 4.6C280.404 4.46666 280.47 4.31666 280.47 4.15C280.47 3.98333 280.404 3.85 280.27 3.75C280.17 3.61667 280.037 3.55 279.87 3.55ZM275.57 3.55C275.17 3.55 274.97 3.75 274.97 4.15C274.97 4.58333 275.17 4.8 275.57 4.8C275.97 4.8 276.17 4.58333 276.17 4.15C276.17 3.75 275.97 3.55 275.57 3.55ZM279.57 17.45C279.17 17.45 278.97 17.6667 278.97 18.1C278.97 18.5 279.17 18.7 279.57 18.7C280.004 18.7 280.22 18.5 280.22 18.1C280.22 17.6667 280.004 17.45 279.57 17.45ZM275.47 17.45C275.037 17.45 274.82 17.6667 274.82 18.1C274.82 18.5 275.037 18.7 275.47 18.7C275.637 18.7 275.77 18.65 275.87 18.55C276.004 18.4167 276.07 18.2667 276.07 18.1C276.07 17.9333 276.004 17.7833 275.87 17.65C275.77 17.5167 275.637 17.45 275.47 17.45ZM271.22 32.65C271.654 32.65 271.87 32.45 271.87 32.05C271.87 31.6167 271.654 31.4 271.22 31.4C270.82 31.4 270.62 31.6167 270.62 32.05C270.62 32.45 270.82 32.65 271.22 32.65ZM271.22 27.9C271.654 27.9 271.87 27.7 271.87 27.3C271.87 26.8667 271.654 26.65 271.22 26.65C270.82 26.65 270.62 26.8667 270.62 27.3C270.62 27.7 270.82 27.9 271.22 27.9ZM271.22 23.35C271.654 23.35 271.87 23.1333 271.87 22.7C271.87 22.3 271.654 22.1 271.22 22.1C270.82 22.1 270.62 22.3 270.62 22.7C270.62 23.1333 270.82 23.35 271.22 23.35ZM271.22 18.7C271.654 18.7 271.87 18.5 271.87 18.1C271.87 17.6667 271.654 17.45 271.22 17.45C270.82 17.45 270.62 17.6667 270.62 18.1C270.62 18.5 270.82 18.7 271.22 18.7ZM271.27 14.05C271.704 14.05 271.92 13.8333 271.92 13.4C271.92 13 271.704 12.8 271.27 12.8C270.837 12.8 270.62 13 270.62 13.4C270.62 13.8333 270.837 14.05 271.27 14.05ZM270.62 8.8C270.62 9.2 270.82 9.4 271.22 9.4C271.654 9.4 271.87 9.2 271.87 8.8C271.87 8.36667 271.654 8.15 271.22 8.15C270.82 8.15 270.62 8.36667 270.62 8.8ZM271.27 4.8C271.704 4.8 271.92 4.58333 271.92 4.15C271.92 3.75 271.704 3.55 271.27 3.55C270.837 3.55 270.62 3.75 270.62 4.15C270.62 4.58333 270.837 4.8 271.27 4.8ZM275.42 32.65C275.854 32.65 276.07 32.45 276.07 32.05C276.07 31.6167 275.854 31.4 275.42 31.4C275.02 31.4 274.82 31.6167 274.82 32.05C274.82 32.45 275.02 32.65 275.42 32.65ZM279.57 32.65C279.737 32.65 279.87 32.6 279.97 32.5C280.104 32.3667 280.17 32.2167 280.17 32.05C280.17 31.8833 280.104 31.7333 279.97 31.6C279.87 31.4667 279.737 31.4 279.57 31.4C279.137 31.4 278.92 31.6167 278.92 32.05C278.92 32.45 279.137 32.65 279.57 32.65ZM283.77 32.65C284.17 32.65 284.37 32.45 284.37 32.05C284.37 31.6167 284.17 31.4 283.77 31.4C283.337 31.4 283.12 31.6167 283.12 32.05C283.12 32.45 283.337 32.65 283.77 32.65ZM288.17 32.65C288.337 32.65 288.47 32.6 288.57 32.5C288.704 32.3667 288.77 32.2167 288.77 32.05C288.77 31.8833 288.704 31.7333 288.57 31.6C288.47 31.4667 288.337 31.4 288.17 31.4C287.737 31.4 287.52 31.6167 287.52 32.05C287.52 32.45 287.737 32.65 288.17 32.65ZM337.894 30.45C337.894 32.55 338.277 33.9333 339.044 34.6C339.311 34.8667 339.261 35 338.894 35H330.094C329.961 35 329.877 34.9667 329.844 34.9C329.811 34.8 329.844 34.7 329.944 34.6C330.711 33.9333 331.094 32.55 331.094 30.45V21.6L327.144 31.2C326.511 32.7 326.377 33.85 326.744 34.65C326.844 34.8833 326.777 35 326.544 35H319.744C319.477 35 319.411 34.8833 319.544 34.65C319.944 33.9167 319.811 32.7667 319.144 31.2L315.144 21.5V29.1V29.15V30.45C315.144 32.5833 315.527 33.9667 316.294 34.6C316.394 34.7 316.427 34.8 316.394 34.9C316.361 34.9667 316.277 35 316.144 35H307.344C307.211 35 307.127 34.9667 307.094 34.9C307.061 34.8 307.094 34.7 307.194 34.6C307.927 33.9667 308.294 32.5833 308.294 30.45V5.4C308.294 3.26667 307.927 1.88333 307.194 1.25C307.094 1.18333 307.061 1.1 307.094 1C307.127 0.899999 307.211 0.849999 307.344 0.849999H312.894H316.144C316.277 0.849999 316.361 0.899999 316.394 1C316.427 1.1 316.394 1.18333 316.294 1.25C315.861 1.58333 315.544 2.16667 315.344 3C315.244 3.46666 315.294 3.91666 315.494 4.35L323.094 22.9L330.744 4.35C330.944 3.88333 330.977 3.43333 330.844 3C330.711 2.2 330.411 1.61667 329.944 1.25C329.844 1.18333 329.811 1.1 329.844 1C329.877 0.899999 329.961 0.849999 330.094 0.849999H335.644H338.894C339.061 0.849999 339.144 0.899999 339.144 1C339.177 1.1 339.144 1.18333 339.044 1.25C338.277 1.91667 337.894 3.3 337.894 5.4V7.7V9.95V11.85V19.05V28.2V30.45ZM311.544 32.3C311.944 32.3 312.144 32.0833 312.144 31.65C312.144 31.4833 312.077 31.35 311.944 31.25C311.844 31.1167 311.711 31.05 311.544 31.05C311.377 31.05 311.227 31.1167 311.094 31.25C310.961 31.35 310.894 31.4833 310.894 31.65C310.894 32.0833 311.111 32.3 311.544 32.3ZM311.544 27.55C311.944 27.55 312.144 27.3333 312.144 26.9C312.144 26.5 311.944 26.3 311.544 26.3C311.111 26.3 310.894 26.5 310.894 26.9C310.894 27.3333 311.111 27.55 311.544 27.55ZM311.544 22.95C311.944 22.95 312.144 22.75 312.144 22.35C312.144 21.9167 311.944 21.7 311.544 21.7C311.111 21.7 310.894 21.9167 310.894 22.35C310.894 22.75 311.111 22.95 311.544 22.95ZM311.544 18.35C311.944 18.35 312.144 18.1333 312.144 17.7C312.144 17.2667 311.944 17.05 311.544 17.05C311.111 17.05 310.894 17.2667 310.894 17.7C310.894 18.1333 311.111 18.35 311.544 18.35ZM311.594 13.65C311.761 13.65 311.894 13.5833 311.994 13.45C312.127 13.3167 312.194 13.1667 312.194 13C312.194 12.8333 312.127 12.7 311.994 12.6C311.894 12.4667 311.761 12.4 311.594 12.4C311.427 12.4 311.277 12.4667 311.144 12.6C311.011 12.7 310.944 12.8333 310.944 13C310.944 13.4333 311.161 13.65 311.594 13.65ZM310.894 8.4C310.894 8.83333 311.111 9.05 311.544 9.05C311.944 9.05 312.144 8.83333 312.144 8.4C312.144 8.23333 312.077 8.1 311.944 8C311.844 7.86667 311.711 7.8 311.544 7.8C311.377 7.8 311.227 7.86667 311.094 8C310.961 8.1 310.894 8.23333 310.894 8.4ZM311.594 4.4C311.761 4.4 311.894 4.35 311.994 4.25C312.127 4.11667 312.194 3.96667 312.194 3.8C312.194 3.63333 312.127 3.48333 311.994 3.35C311.894 3.21667 311.761 3.15 311.594 3.15C311.161 3.15 310.944 3.36667 310.944 3.8C310.944 4.2 311.161 4.4 311.594 4.4ZM314.244 10.4C314.644 10.4 314.844 10.1833 314.844 9.75C314.844 9.35 314.644 9.15 314.244 9.15C313.811 9.15 313.594 9.35 313.594 9.75C313.594 10.1833 313.811 10.4 314.244 10.4ZM315.644 14.7C315.811 14.7 315.961 14.65 316.094 14.55C316.227 14.4167 316.294 14.2667 316.294 14.1C316.294 13.6667 316.077 13.45 315.644 13.45C315.477 13.45 315.327 13.5167 315.194 13.65C315.094 13.7833 315.044 13.9333 315.044 14.1C315.044 14.2667 315.094 14.4167 315.194 14.55C315.327 14.65 315.477 14.7 315.644 14.7ZM317.244 18.9C317.644 18.9 317.844 18.7 317.844 18.3C317.844 17.9 317.644 17.7 317.244 17.7C316.844 17.7 316.644 17.9 316.644 18.3C316.644 18.7 316.844 18.9 317.244 18.9ZM319.144 23.15C319.544 23.15 319.744 22.95 319.744 22.55C319.744 22.15 319.544 21.95 319.144 21.95C318.711 21.95 318.494 22.15 318.494 22.55C318.494 22.95 318.711 23.15 319.144 23.15ZM321.044 27.35C321.444 27.35 321.644 27.15 321.644 26.75C321.644 26.3167 321.444 26.1 321.044 26.1C320.611 26.1 320.394 26.3167 320.394 26.75C320.394 27.15 320.611 27.35 321.044 27.35ZM322.894 31.65C323.327 31.65 323.544 31.45 323.544 31.05C323.544 30.65 323.327 30.45 322.894 30.45C322.727 30.45 322.577 30.5167 322.444 30.65C322.344 30.75 322.294 30.8833 322.294 31.05C322.294 31.2167 322.344 31.3667 322.444 31.5C322.577 31.6 322.727 31.65 322.894 31.65ZM324.994 27.3C325.427 27.3 325.644 27.1 325.644 26.7C325.644 26.3 325.427 26.1 324.994 26.1C324.827 26.1 324.677 26.1667 324.544 26.3C324.444 26.4 324.394 26.5333 324.394 26.7C324.394 26.8667 324.444 27.0167 324.544 27.15C324.677 27.25 324.827 27.3 324.994 27.3ZM326.844 23.15C327.244 23.15 327.444 22.9333 327.444 22.5C327.444 22.3333 327.377 22.2 327.244 22.1C327.144 21.9667 327.011 21.9 326.844 21.9C326.677 21.9 326.527 21.9667 326.394 22.1C326.294 22.2 326.244 22.3333 326.244 22.5C326.244 22.6667 326.294 22.8167 326.394 22.95C326.527 23.0833 326.677 23.15 326.844 23.15ZM328.694 18.9C328.861 18.9 328.994 18.8333 329.094 18.7C329.227 18.5667 329.294 18.4167 329.294 18.25C329.294 18.0833 329.227 17.95 329.094 17.85C328.994 17.7167 328.861 17.65 328.694 17.65C328.294 17.65 328.094 17.85 328.094 18.25C328.094 18.6833 328.294 18.9 328.694 18.9ZM330.544 14.35C330.711 14.35 330.844 14.3 330.944 14.2C331.077 14.0667 331.144 13.9167 331.144 13.75C331.144 13.5833 331.077 13.4333 330.944 13.3C330.844 13.1667 330.711 13.1 330.544 13.1C330.144 13.1 329.944 13.3167 329.944 13.75C329.944 14.15 330.144 14.35 330.544 14.35ZM332.344 10.3C332.744 10.3 332.944 10.0833 332.944 9.65C332.944 9.25 332.744 9.05 332.344 9.05C331.944 9.05 331.744 9.25 331.744 9.65C331.744 10.0833 331.944 10.3 332.344 10.3ZM334.744 32.3C335.177 32.3 335.394 32.1 335.394 31.7C335.394 31.3 335.177 31.1 334.744 31.1C334.344 31.1 334.144 31.3 334.144 31.7C334.144 32.1 334.344 32.3 334.744 32.3ZM334.744 27.55C335.177 27.55 335.394 27.3333 335.394 26.9C335.394 26.7333 335.327 26.6 335.194 26.5C335.061 26.3667 334.911 26.3 334.744 26.3C334.577 26.3 334.427 26.3667 334.294 26.5C334.194 26.6 334.144 26.7333 334.144 26.9C334.144 27.3333 334.344 27.55 334.744 27.55ZM334.744 23C335.177 23 335.394 22.7833 335.394 22.35C335.394 21.95 335.177 21.75 334.744 21.75C334.344 21.75 334.144 21.95 334.144 22.35C334.144 22.7833 334.344 23 334.744 23ZM334.744 18.35C335.177 18.35 335.394 18.1333 335.394 17.7C335.394 17.5333 335.327 17.4 335.194 17.3C335.061 17.1667 334.911 17.1 334.744 17.1C334.577 17.1 334.427 17.1667 334.294 17.3C334.194 17.4 334.144 17.5333 334.144 17.7C334.144 18.1333 334.344 18.35 334.744 18.35ZM334.794 13.65C334.961 13.65 335.094 13.6 335.194 13.5C335.327 13.3667 335.394 13.2167 335.394 13.05C335.394 12.8833 335.327 12.75 335.194 12.65C335.094 12.5167 334.961 12.45 334.794 12.45C334.361 12.45 334.144 12.65 334.144 13.05C334.144 13.45 334.361 13.65 334.794 13.65ZM334.144 8.45C334.144 8.85 334.344 9.05 334.744 9.05C335.177 9.05 335.394 8.85 335.394 8.45C335.394 8.05 335.177 7.85 334.744 7.85C334.344 7.85 334.144 8.05 334.144 8.45ZM334.794 4.45C334.961 4.45 335.094 4.38333 335.194 4.25C335.327 4.11667 335.394 3.96667 335.394 3.8C335.394 3.63333 335.327 3.5 335.194 3.4C335.094 3.26666 334.961 3.2 334.794 3.2C334.361 3.2 334.144 3.4 334.144 3.8C334.144 4.23333 334.361 4.45 334.794 4.45ZM364.746 30.45C364.746 32.6167 365.113 34.0167 365.846 34.65C365.946 34.7167 365.979 34.8 365.946 34.9C365.946 34.9667 365.863 35 365.696 35H340.996C340.829 35 340.729 34.9667 340.696 34.9C340.696 34.8 340.746 34.7167 340.846 34.65C341.579 34.0167 341.946 32.6167 341.946 30.45V28.2V5.4C341.946 2.36667 341.196 0.849999 339.696 0.849999H365.696C365.863 0.849999 365.946 0.899999 365.946 1C365.979 1.1 365.946 1.18333 365.846 1.25C365.113 1.88333 364.746 3.26667 364.746 5.4V7.7V8.7C364.746 8.83333 364.696 8.91667 364.596 8.95C364.496 8.98333 364.413 8.93333 364.346 8.8C363.713 8.06667 362.329 7.7 360.196 7.7H348.796V9.95V14.5H355.646C357.779 14.5 359.163 14.1333 359.796 13.4C359.863 13.3 359.946 13.2667 360.046 13.3C360.146 13.3333 360.196 13.4167 360.196 13.55V14.5V16.8V21.35V22.35C360.196 22.4833 360.146 22.5667 360.046 22.6C359.946 22.6333 359.863 22.6 359.796 22.5C359.129 21.7333 357.746 21.35 355.646 21.35H348.796V23.6V28.2H360.196C362.296 28.2 363.679 27.8167 364.346 27.05C364.413 26.95 364.496 26.9167 364.596 26.95C364.696 26.9833 364.746 27.0667 364.746 27.2V28.2V30.45ZM357.696 17.45C357.296 17.45 357.096 17.6667 357.096 18.1C357.096 18.5 357.296 18.7 357.696 18.7C358.129 18.7 358.346 18.5 358.346 18.1C358.346 17.6667 358.129 17.45 357.696 17.45ZM362.046 3.55C361.879 3.55 361.729 3.61667 361.596 3.75C361.496 3.85 361.446 3.98333 361.446 4.15C361.446 4.31666 361.496 4.46666 361.596 4.6C361.729 4.73333 361.879 4.8 362.046 4.8C362.479 4.8 362.696 4.58333 362.696 4.15C362.696 3.75 362.479 3.55 362.046 3.55ZM357.996 3.55C357.563 3.55 357.346 3.75 357.346 4.15C357.346 4.58333 357.563 4.8 357.996 4.8C358.163 4.8 358.296 4.73333 358.396 4.6C358.529 4.46666 358.596 4.31666 358.596 4.15C358.596 3.98333 358.529 3.85 358.396 3.75C358.296 3.61667 358.163 3.55 357.996 3.55ZM353.796 3.55C353.363 3.55 353.146 3.75 353.146 4.15C353.146 4.58333 353.363 4.8 353.796 4.8C353.963 4.8 354.096 4.73333 354.196 4.6C354.329 4.46666 354.396 4.31666 354.396 4.15C354.396 3.98333 354.329 3.85 354.196 3.75C354.096 3.61667 353.963 3.55 353.796 3.55ZM349.496 3.55C349.096 3.55 348.896 3.75 348.896 4.15C348.896 4.58333 349.096 4.8 349.496 4.8C349.896 4.8 350.096 4.58333 350.096 4.15C350.096 3.75 349.896 3.55 349.496 3.55ZM353.496 17.45C353.096 17.45 352.896 17.6667 352.896 18.1C352.896 18.5 353.096 18.7 353.496 18.7C353.929 18.7 354.146 18.5 354.146 18.1C354.146 17.6667 353.929 17.45 353.496 17.45ZM349.396 17.45C348.963 17.45 348.746 17.6667 348.746 18.1C348.746 18.5 348.963 18.7 349.396 18.7C349.563 18.7 349.696 18.65 349.796 18.55C349.929 18.4167 349.996 18.2667 349.996 18.1C349.996 17.9333 349.929 17.7833 349.796 17.65C349.696 17.5167 349.563 17.45 349.396 17.45ZM345.146 32.65C345.579 32.65 345.796 32.45 345.796 32.05C345.796 31.6167 345.579 31.4 345.146 31.4C344.746 31.4 344.546 31.6167 344.546 32.05C344.546 32.45 344.746 32.65 345.146 32.65ZM345.146 27.9C345.579 27.9 345.796 27.7 345.796 27.3C345.796 26.8667 345.579 26.65 345.146 26.65C344.746 26.65 344.546 26.8667 344.546 27.3C344.546 27.7 344.746 27.9 345.146 27.9ZM345.146 23.35C345.579 23.35 345.796 23.1333 345.796 22.7C345.796 22.3 345.579 22.1 345.146 22.1C344.746 22.1 344.546 22.3 344.546 22.7C344.546 23.1333 344.746 23.35 345.146 23.35ZM345.146 18.7C345.579 18.7 345.796 18.5 345.796 18.1C345.796 17.6667 345.579 17.45 345.146 17.45C344.746 17.45 344.546 17.6667 344.546 18.1C344.546 18.5 344.746 18.7 345.146 18.7ZM345.196 14.05C345.629 14.05 345.846 13.8333 345.846 13.4C345.846 13 345.629 12.8 345.196 12.8C344.763 12.8 344.546 13 344.546 13.4C344.546 13.8333 344.763 14.05 345.196 14.05ZM344.546 8.8C344.546 9.2 344.746 9.4 345.146 9.4C345.579 9.4 345.796 9.2 345.796 8.8C345.796 8.36667 345.579 8.15 345.146 8.15C344.746 8.15 344.546 8.36667 344.546 8.8ZM345.196 4.8C345.629 4.8 345.846 4.58333 345.846 4.15C345.846 3.75 345.629 3.55 345.196 3.55C344.763 3.55 344.546 3.75 344.546 4.15C344.546 4.58333 344.763 4.8 345.196 4.8ZM349.346 32.65C349.779 32.65 349.996 32.45 349.996 32.05C349.996 31.6167 349.779 31.4 349.346 31.4C348.946 31.4 348.746 31.6167 348.746 32.05C348.746 32.45 348.946 32.65 349.346 32.65ZM353.496 32.65C353.663 32.65 353.796 32.6 353.896 32.5C354.029 32.3667 354.096 32.2167 354.096 32.05C354.096 31.8833 354.029 31.7333 353.896 31.6C353.796 31.4667 353.663 31.4 353.496 31.4C353.063 31.4 352.846 31.6167 352.846 32.05C352.846 32.45 353.063 32.65 353.496 32.65ZM357.696 32.65C358.096 32.65 358.296 32.45 358.296 32.05C358.296 31.6167 358.096 31.4 357.696 31.4C357.263 31.4 357.046 31.6167 357.046 32.05C357.046 32.45 357.263 32.65 357.696 32.65ZM362.096 32.65C362.263 32.65 362.396 32.6 362.496 32.5C362.629 32.3667 362.696 32.2167 362.696 32.05C362.696 31.8833 362.629 31.7333 362.496 31.6C362.396 31.4667 362.263 31.4 362.096 31.4C361.663 31.4 361.446 31.6167 361.446 32.05C361.446 32.45 361.663 32.65 362.096 32.65ZM392.592 0.849999C392.726 0.849999 392.809 0.899999 392.842 1C392.876 1.06667 392.826 1.15 392.692 1.25C391.959 1.91667 391.592 3.3 391.592 5.4V7.65V8.65C391.592 8.78333 391.542 8.86667 391.442 8.9C391.342 8.93333 391.259 8.9 391.192 8.8C390.526 8.03333 389.142 7.65 387.042 7.65H383.592V11.8V19.05V27.85V30.45C383.592 32.5833 383.959 33.9667 384.692 34.6C384.792 34.6667 384.826 34.75 384.792 34.85C384.792 34.95 384.709 35 384.542 35H375.742C375.609 35 375.526 34.95 375.492 34.85C375.459 34.75 375.509 34.6667 375.642 34.6C376.376 33.9333 376.742 32.55 376.742 30.45V7.65H373.292C371.126 7.65 369.742 8.03333 369.142 8.8C369.042 8.9 368.942 8.93333 368.842 8.9C368.776 8.86667 368.742 8.78333 368.742 8.65V7.65V5.4C368.742 3.3 368.359 1.91667 367.592 1.25C367.492 1.15 367.459 1.06667 367.492 1C367.526 0.899999 367.609 0.849999 367.742 0.849999H368.742H375.542H381.292H385.842H391.592H392.592ZM371.442 4.5C371.876 4.5 372.092 4.28333 372.092 3.85C372.092 3.45 371.876 3.25 371.442 3.25C371.042 3.25 370.842 3.45 370.842 3.85C370.842 4.28333 371.042 4.5 371.442 4.5ZM375.842 4.5C376.242 4.5 376.442 4.28333 376.442 3.85C376.442 3.45 376.242 3.25 375.842 3.25C375.409 3.25 375.192 3.45 375.192 3.85C375.192 4.28333 375.409 4.5 375.842 4.5ZM380.192 32.35C380.359 32.35 380.509 32.3 380.642 32.2C380.776 32.0667 380.842 31.9167 380.842 31.75C380.842 31.3167 380.626 31.1 380.192 31.1C379.792 31.1 379.592 31.3167 379.592 31.75C379.592 31.9167 379.642 32.0667 379.742 32.2C379.876 32.3 380.026 32.35 380.192 32.35ZM380.192 27.6C380.359 27.6 380.509 27.55 380.642 27.45C380.776 27.3167 380.842 27.1667 380.842 27C380.842 26.5667 380.626 26.35 380.192 26.35C379.792 26.35 379.592 26.5667 379.592 27C379.592 27.1667 379.642 27.3167 379.742 27.45C379.876 27.55 380.026 27.6 380.192 27.6ZM380.192 23C380.626 23 380.842 22.8 380.842 22.4C380.842 22 380.626 21.8 380.192 21.8C379.792 21.8 379.592 22 379.592 22.4C379.592 22.8 379.792 23 380.192 23ZM380.192 18.4C380.359 18.4 380.509 18.35 380.642 18.25C380.776 18.1167 380.842 17.9667 380.842 17.8C380.842 17.3667 380.626 17.15 380.192 17.15C379.792 17.15 379.592 17.3667 379.592 17.8C379.592 17.9667 379.642 18.1167 379.742 18.25C379.876 18.35 380.026 18.4 380.192 18.4ZM380.242 13.7C380.642 13.7 380.842 13.5 380.842 13.1C380.842 12.6667 380.642 12.45 380.242 12.45C379.809 12.45 379.592 12.6667 379.592 13.1C379.592 13.5 379.809 13.7 380.242 13.7ZM379.592 8.5C379.592 8.9 379.792 9.1 380.192 9.1C380.626 9.1 380.842 8.9 380.842 8.5C380.842 8.06666 380.626 7.85 380.192 7.85C379.792 7.85 379.592 8.06666 379.592 8.5ZM380.242 4.5C380.642 4.5 380.842 4.28333 380.842 3.85C380.842 3.45 380.642 3.25 380.242 3.25C379.809 3.25 379.592 3.45 379.592 3.85C379.592 4.28333 379.809 4.5 380.242 4.5ZM384.592 4.5C384.992 4.5 385.192 4.28333 385.192 3.85C385.192 3.45 384.992 3.25 384.592 3.25C384.159 3.25 383.942 3.45 383.942 3.85C383.942 4.28333 384.159 4.5 384.592 4.5ZM388.992 4.5C389.392 4.5 389.592 4.28333 389.592 3.85C389.592 3.45 389.392 3.25 388.992 3.25C388.559 3.25 388.342 3.45 388.342 3.85C388.342 4.28333 388.559 4.5 388.992 4.5ZM419.356 34.6C419.456 34.7 419.489 34.8 419.456 34.9C419.423 34.9667 419.339 35 419.206 35H410.406C410.273 35 410.189 34.9667 410.156 34.9C410.123 34.8 410.156 34.7 410.256 34.6C411.023 34 411.406 32.6167 411.406 30.45V25.9H402.256V30.45C402.256 32.6167 402.639 34 403.406 34.6C403.673 34.8667 403.623 35 403.256 35H394.456C394.323 35 394.239 34.9667 394.206 34.9C394.173 34.8 394.206 34.7 394.306 34.6C395.073 34 395.456 32.6167 395.456 30.45V23.65V19.6C395.456 18.1667 395.589 16.8 395.856 15.5C396.123 14.1667 396.539 12.8333 397.106 11.5L399.706 5.45C400.139 3.31667 400.039 1.91667 399.406 1.25C399.306 1.15 399.273 1.06667 399.306 1C399.339 0.899999 399.423 0.849999 399.556 0.849999H414.106C414.439 0.849999 414.506 0.983332 414.306 1.25C413.673 1.85 413.556 3.25 413.956 5.45L416.556 11.5C417.123 12.8333 417.539 14.1667 417.806 15.5C418.073 16.8 418.206 18.1667 418.206 19.6V23.65V30.45C418.206 32.6167 418.589 34 419.356 34.6ZM414.206 16.65C413.806 16.65 413.606 16.8667 413.606 17.3C413.606 17.4667 413.656 17.6167 413.756 17.75C413.889 17.85 414.039 17.9 414.206 17.9C414.373 17.9 414.523 17.85 414.656 17.75C414.789 17.6167 414.856 17.4667 414.856 17.3C414.856 16.8667 414.639 16.65 414.206 16.65ZM410.006 3.05C409.606 3.05 409.406 3.25 409.406 3.65C409.406 4.08333 409.606 4.3 410.006 4.3C410.406 4.3 410.606 4.08333 410.606 3.65C410.606 3.25 410.406 3.05 410.006 3.05ZM403.656 3.5C403.223 3.5 403.006 3.7 403.006 4.1C403.006 4.53333 403.223 4.75 403.656 4.75C404.089 4.75 404.306 4.53333 404.306 4.1C404.306 3.7 404.089 3.5 403.656 3.5ZM398.856 32.3C399.289 32.3 399.506 32.0833 399.506 31.65C399.506 31.4833 399.439 31.35 399.306 31.25C399.173 31.1167 399.023 31.05 398.856 31.05C398.689 31.05 398.539 31.1167 398.406 31.25C398.273 31.35 398.206 31.4833 398.206 31.65C398.206 32.0833 398.423 32.3 398.856 32.3ZM399.006 27.55C399.439 27.55 399.656 27.3333 399.656 26.9C399.656 26.7333 399.589 26.6 399.456 26.5C399.356 26.3667 399.206 26.3 399.006 26.3C398.839 26.3 398.689 26.3667 398.556 26.5C398.456 26.6 398.406 26.7333 398.406 26.9C398.406 27.3333 398.606 27.55 399.006 27.55ZM399.006 22.8C399.439 22.8 399.656 22.6 399.656 22.2C399.656 21.7667 399.439 21.55 399.006 21.55C398.606 21.55 398.406 21.7667 398.406 22.2C398.406 22.6 398.606 22.8 399.006 22.8ZM399.306 18.2C399.473 18.2 399.623 18.15 399.756 18.05C399.889 17.9167 399.956 17.7667 399.956 17.6C399.956 17.1667 399.739 16.95 399.306 16.95C398.906 16.95 398.706 17.1667 398.706 17.6C398.706 17.7667 398.756 17.9167 398.856 18.05C398.989 18.15 399.139 18.2 399.306 18.2ZM399.956 13.65C400.356 13.65 400.556 13.45 400.556 13.05C400.556 12.65 400.356 12.45 399.956 12.45C399.523 12.45 399.306 12.65 399.306 13.05C399.306 13.45 399.523 13.65 399.956 13.65ZM402.006 9.05C402.406 9.05 402.606 8.85 402.606 8.45C402.606 8.01667 402.406 7.8 402.006 7.8C401.573 7.8 401.356 8.01667 401.356 8.45C401.356 8.85 401.573 9.05 402.006 9.05ZM404.106 22.8C404.539 22.8 404.756 22.6 404.756 22.2C404.756 21.7667 404.539 21.55 404.106 21.55C403.673 21.55 403.456 21.7667 403.456 22.2C403.456 22.6 403.673 22.8 404.106 22.8ZM409.256 22.85C409.423 22.85 409.556 22.8 409.656 22.7C409.789 22.5667 409.856 22.4167 409.856 22.25C409.856 21.8167 409.656 21.6 409.256 21.6C408.823 21.6 408.606 21.8167 408.606 22.25C408.606 22.4167 408.656 22.5667 408.756 22.7C408.889 22.8 409.056 22.85 409.256 22.85ZM411.406 19.1C411.306 17.4 410.939 15.7667 410.306 14.2L406.856 6.15L403.406 14.2C402.706 15.7667 402.339 17.4 402.306 19.1H411.406ZM411.506 8.65C411.906 8.65 412.106 8.43333 412.106 8C412.106 7.56667 411.906 7.35 411.506 7.35C411.073 7.35 410.856 7.56667 410.856 8C410.856 8.43333 411.073 8.65 411.506 8.65ZM412.556 12.6C412.556 13.0333 412.773 13.25 413.206 13.25C413.606 13.25 413.806 13.0333 413.806 12.6C413.806 12.2 413.606 12 413.206 12C412.773 12 412.556 12.2 412.556 12.6ZM413.606 22.05C413.606 22.4833 413.806 22.7 414.206 22.7C414.639 22.7 414.856 22.4833 414.856 22.05C414.856 21.65 414.639 21.45 414.206 21.45C413.806 21.45 413.606 21.65 413.606 22.05ZM414.556 32.15C414.723 32.15 414.856 32.1 414.956 32C415.089 31.8667 415.156 31.7167 415.156 31.55C415.156 31.3833 415.089 31.2333 414.956 31.1C414.856 30.9667 414.723 30.9 414.556 30.9C414.123 30.9 413.906 31.1167 413.906 31.55C413.906 31.95 414.123 32.15 414.556 32.15ZM414.556 27.25C414.723 27.25 414.856 27.1833 414.956 27.05C415.089 26.9167 415.156 26.7667 415.156 26.6C415.156 26.4333 415.089 26.3 414.956 26.2C414.856 26.0667 414.723 26 414.556 26C414.389 26 414.239 26.0667 414.106 26.2C413.973 26.3 413.906 26.4333 413.906 26.6C413.906 27.0333 414.123 27.25 414.556 27.25ZM446.259 0.799999C446.392 0.799999 446.476 0.849999 446.509 0.949997C446.542 1.05 446.509 1.13333 446.409 1.2C445.642 1.83333 445.259 3.21667 445.259 5.35V16.25C445.259 19.0167 444.709 21.7 443.609 24.3L441.009 30.4C440.542 32.5667 440.642 33.9667 441.309 34.6C441.409 34.6667 441.442 34.75 441.409 34.85C441.409 34.95 441.326 35 441.159 35H426.559C426.426 35 426.342 34.95 426.309 34.85C426.309 34.75 426.342 34.6667 426.409 34.6C427.042 33.9667 427.159 32.5667 426.759 30.4L424.159 24.3C423.592 23 423.176 21.7 422.909 20.4C422.642 19.0667 422.509 17.6833 422.509 16.25V5.35C422.509 3.25 422.126 1.86667 421.359 1.2C421.259 1.13333 421.226 1.05 421.259 0.949997C421.292 0.849999 421.376 0.799999 421.509 0.799999H430.309C430.442 0.799999 430.526 0.849999 430.559 0.949997C430.592 1.05 430.559 1.13333 430.459 1.2C429.692 1.86667 429.309 3.25 429.309 5.35V12.2V16.25C429.309 18.0833 429.676 19.8833 430.409 21.65L433.859 29.65L437.309 21.65C438.042 19.8833 438.409 18.0833 438.409 16.25V12.2V5.35C438.409 3.21667 438.042 1.83333 437.309 1.2C437.209 1.13333 437.159 1.05 437.159 0.949997C437.192 0.849999 437.292 0.799999 437.459 0.799999H446.259ZM426.559 13.85C426.559 13.4167 426.359 13.2 425.959 13.2C425.526 13.2 425.309 13.4167 425.309 13.85C425.309 14.0167 425.376 14.1667 425.509 14.3C425.642 14.4 425.792 14.45 425.959 14.45C426.126 14.45 426.259 14.4 426.359 14.3C426.492 14.1667 426.559 14.0167 426.559 13.85ZM425.659 3.75C425.226 3.75 425.009 3.95 425.009 4.35C425.009 4.75 425.226 4.95 425.659 4.95C426.059 4.95 426.259 4.75 426.259 4.35C426.259 3.95 426.059 3.75 425.659 3.75ZM425.009 9.25C425.009 9.68333 425.226 9.9 425.659 9.9C426.059 9.9 426.259 9.68333 426.259 9.25C426.259 8.85 426.059 8.65 425.659 8.65C425.226 8.65 425.009 8.85 425.009 9.25ZM425.309 18.6C425.309 19.0333 425.526 19.25 425.959 19.25C426.359 19.25 426.559 19.0333 426.559 18.6C426.559 18.4333 426.492 18.3 426.359 18.2C426.259 18.0667 426.126 18 425.959 18C425.792 18 425.642 18.0667 425.509 18.2C425.376 18.3 425.309 18.4333 425.309 18.6ZM427.009 23.9C427.176 23.9 427.309 23.85 427.409 23.75C427.542 23.6167 427.609 23.4667 427.609 23.3C427.609 23.1333 427.542 22.9833 427.409 22.85C427.309 22.7167 427.176 22.65 427.009 22.65C426.576 22.65 426.359 22.8667 426.359 23.3C426.359 23.7 426.576 23.9 427.009 23.9ZM428.859 28.2C429.026 28.2 429.159 28.15 429.259 28.05C429.392 27.9167 429.459 27.7667 429.459 27.6C429.459 27.4333 429.392 27.2833 429.259 27.15C429.159 27.0167 429.026 26.95 428.859 26.95C428.426 26.95 428.209 27.1667 428.209 27.6C428.209 28 428.426 28.2 428.859 28.2ZM430.609 32.4C431.042 32.4 431.259 32.1833 431.259 31.75C431.259 31.5833 431.192 31.45 431.059 31.35C430.926 31.2167 430.776 31.15 430.609 31.15C430.442 31.15 430.292 31.2167 430.159 31.35C430.059 31.45 430.009 31.5833 430.009 31.75C430.009 32.1833 430.209 32.4 430.609 32.4ZM436.809 32.4C436.976 32.4 437.126 32.35 437.259 32.25C437.392 32.1167 437.459 31.9667 437.459 31.8C437.459 31.3667 437.242 31.15 436.809 31.15C436.409 31.15 436.209 31.3667 436.209 31.8C436.209 31.9667 436.259 32.1167 436.359 32.25C436.492 32.35 436.642 32.4 436.809 32.4ZM438.509 28.05C438.909 28.05 439.109 27.85 439.109 27.45C439.109 27.05 438.909 26.85 438.509 26.85C438.076 26.85 437.859 27.05 437.859 27.45C437.859 27.85 438.076 28.05 438.509 28.05ZM440.559 23.45C440.992 23.45 441.209 23.25 441.209 22.85C441.209 22.45 440.992 22.25 440.559 22.25C440.126 22.25 439.909 22.45 439.909 22.85C439.909 23.25 440.126 23.45 440.559 23.45ZM441.159 18.95C441.592 18.95 441.809 18.7333 441.809 18.3C441.809 18.1333 441.742 18 441.609 17.9C441.476 17.7667 441.326 17.7 441.159 17.7C440.992 17.7 440.842 17.7667 440.709 17.9C440.576 18 440.509 18.1333 440.509 18.3C440.509 18.7333 440.726 18.95 441.159 18.95ZM441.459 14.3C441.892 14.3 442.109 14.1 442.109 13.7C442.109 13.2667 441.892 13.05 441.459 13.05C441.026 13.05 440.809 13.2667 440.809 13.7C440.809 14.1 441.026 14.3 441.459 14.3ZM441.459 9.6C441.626 9.6 441.776 9.55 441.909 9.45C442.042 9.31666 442.109 9.16666 442.109 9C442.109 8.56666 441.892 8.35 441.459 8.35C441.026 8.35 440.809 8.56666 440.809 9C440.809 9.16666 440.876 9.31666 441.009 9.45C441.142 9.55 441.292 9.6 441.459 9.6ZM441.609 4.8C442.042 4.8 442.259 4.6 442.259 4.2C442.259 3.8 442.042 3.6 441.609 3.6C441.176 3.6 440.959 3.8 440.959 4.2C440.959 4.6 441.176 4.8 441.609 4.8ZM472.021 30.45C472.021 32.6167 472.388 34.0167 473.121 34.65C473.221 34.7167 473.255 34.8 473.221 34.9C473.221 34.9667 473.138 35 472.971 35H448.271C448.105 35 448.005 34.9667 447.971 34.9C447.971 34.8 448.021 34.7167 448.121 34.65C448.855 34.0167 449.221 32.6167 449.221 30.45V28.2V5.4C449.221 2.36667 448.471 0.849999 446.971 0.849999H472.971C473.138 0.849999 473.221 0.899999 473.221 1C473.255 1.1 473.221 1.18333 473.121 1.25C472.388 1.88333 472.021 3.26667 472.021 5.4V7.7V8.7C472.021 8.83333 471.971 8.91667 471.871 8.95C471.771 8.98333 471.688 8.93333 471.621 8.8C470.988 8.06667 469.605 7.7 467.471 7.7H456.071V9.95V14.5H462.921C465.055 14.5 466.438 14.1333 467.071 13.4C467.138 13.3 467.221 13.2667 467.321 13.3C467.421 13.3333 467.471 13.4167 467.471 13.55V14.5V16.8V21.35V22.35C467.471 22.4833 467.421 22.5667 467.321 22.6C467.221 22.6333 467.138 22.6 467.071 22.5C466.405 21.7333 465.021 21.35 462.921 21.35H456.071V23.6V28.2H467.471C469.571 28.2 470.955 27.8167 471.621 27.05C471.688 26.95 471.771 26.9167 471.871 26.95C471.971 26.9833 472.021 27.0667 472.021 27.2V28.2V30.45ZM464.971 17.45C464.571 17.45 464.371 17.6667 464.371 18.1C464.371 18.5 464.571 18.7 464.971 18.7C465.405 18.7 465.621 18.5 465.621 18.1C465.621 17.6667 465.405 17.45 464.971 17.45ZM469.321 3.55C469.155 3.55 469.005 3.61667 468.871 3.75C468.771 3.85 468.721 3.98333 468.721 4.15C468.721 4.31666 468.771 4.46666 468.871 4.6C469.005 4.73333 469.155 4.8 469.321 4.8C469.755 4.8 469.971 4.58333 469.971 4.15C469.971 3.75 469.755 3.55 469.321 3.55ZM465.271 3.55C464.838 3.55 464.621 3.75 464.621 4.15C464.621 4.58333 464.838 4.8 465.271 4.8C465.438 4.8 465.571 4.73333 465.671 4.6C465.805 4.46666 465.871 4.31666 465.871 4.15C465.871 3.98333 465.805 3.85 465.671 3.75C465.571 3.61667 465.438 3.55 465.271 3.55ZM461.071 3.55C460.638 3.55 460.421 3.75 460.421 4.15C460.421 4.58333 460.638 4.8 461.071 4.8C461.238 4.8 461.371 4.73333 461.471 4.6C461.605 4.46666 461.671 4.31666 461.671 4.15C461.671 3.98333 461.605 3.85 461.471 3.75C461.371 3.61667 461.238 3.55 461.071 3.55ZM456.771 3.55C456.371 3.55 456.171 3.75 456.171 4.15C456.171 4.58333 456.371 4.8 456.771 4.8C457.171 4.8 457.371 4.58333 457.371 4.15C457.371 3.75 457.171 3.55 456.771 3.55ZM460.771 17.45C460.371 17.45 460.171 17.6667 460.171 18.1C460.171 18.5 460.371 18.7 460.771 18.7C461.205 18.7 461.421 18.5 461.421 18.1C461.421 17.6667 461.205 17.45 460.771 17.45ZM456.671 17.45C456.238 17.45 456.021 17.6667 456.021 18.1C456.021 18.5 456.238 18.7 456.671 18.7C456.838 18.7 456.971 18.65 457.071 18.55C457.205 18.4167 457.271 18.2667 457.271 18.1C457.271 17.9333 457.205 17.7833 457.071 17.65C456.971 17.5167 456.838 17.45 456.671 17.45ZM452.421 32.65C452.855 32.65 453.071 32.45 453.071 32.05C453.071 31.6167 452.855 31.4 452.421 31.4C452.021 31.4 451.821 31.6167 451.821 32.05C451.821 32.45 452.021 32.65 452.421 32.65ZM452.421 27.9C452.855 27.9 453.071 27.7 453.071 27.3C453.071 26.8667 452.855 26.65 452.421 26.65C452.021 26.65 451.821 26.8667 451.821 27.3C451.821 27.7 452.021 27.9 452.421 27.9ZM452.421 23.35C452.855 23.35 453.071 23.1333 453.071 22.7C453.071 22.3 452.855 22.1 452.421 22.1C452.021 22.1 451.821 22.3 451.821 22.7C451.821 23.1333 452.021 23.35 452.421 23.35ZM452.421 18.7C452.855 18.7 453.071 18.5 453.071 18.1C453.071 17.6667 452.855 17.45 452.421 17.45C452.021 17.45 451.821 17.6667 451.821 18.1C451.821 18.5 452.021 18.7 452.421 18.7ZM452.471 14.05C452.905 14.05 453.121 13.8333 453.121 13.4C453.121 13 452.905 12.8 452.471 12.8C452.038 12.8 451.821 13 451.821 13.4C451.821 13.8333 452.038 14.05 452.471 14.05ZM451.821 8.8C451.821 9.2 452.021 9.4 452.421 9.4C452.855 9.4 453.071 9.2 453.071 8.8C453.071 8.36667 452.855 8.15 452.421 8.15C452.021 8.15 451.821 8.36667 451.821 8.8ZM452.471 4.8C452.905 4.8 453.121 4.58333 453.121 4.15C453.121 3.75 452.905 3.55 452.471 3.55C452.038 3.55 451.821 3.75 451.821 4.15C451.821 4.58333 452.038 4.8 452.471 4.8ZM456.621 32.65C457.055 32.65 457.271 32.45 457.271 32.05C457.271 31.6167 457.055 31.4 456.621 31.4C456.221 31.4 456.021 31.6167 456.021 32.05C456.021 32.45 456.221 32.65 456.621 32.65ZM460.771 32.65C460.938 32.65 461.071 32.6 461.171 32.5C461.305 32.3667 461.371 32.2167 461.371 32.05C461.371 31.8833 461.305 31.7333 461.171 31.6C461.071 31.4667 460.938 31.4 460.771 31.4C460.338 31.4 460.121 31.6167 460.121 32.05C460.121 32.45 460.338 32.65 460.771 32.65ZM464.971 32.65C465.371 32.65 465.571 32.45 465.571 32.05C465.571 31.6167 465.371 31.4 464.971 31.4C464.538 31.4 464.321 31.6167 464.321 32.05C464.321 32.45 464.538 32.65 464.971 32.65ZM469.371 32.65C469.538 32.65 469.671 32.6 469.771 32.5C469.905 32.3667 469.971 32.2167 469.971 32.05C469.971 31.8833 469.905 31.7333 469.771 31.6C469.671 31.4667 469.538 31.4 469.371 31.4C468.938 31.4 468.721 31.6167 468.721 32.05C468.721 32.45 468.938 32.65 469.371 32.65ZM498.718 34.6C498.818 34.6667 498.851 34.75 498.818 34.85C498.784 34.95 498.701 35 498.568 35H489.768C489.634 35 489.551 34.95 489.518 34.85C489.484 34.75 489.518 34.6667 489.618 34.6C490.384 33.9667 490.768 32.5833 490.768 30.45V28.15V27C490.768 26.0667 490.584 25.1833 490.218 24.35C489.884 23.5167 489.401 22.8 488.768 22.2C488.134 21.5667 487.401 21.0833 486.568 20.75C485.734 20.3833 484.851 20.2 483.918 20.2H482.818V23.6V28.15V30.45C482.818 32.5833 483.184 33.9667 483.918 34.6C484.018 34.6667 484.051 34.75 484.018 34.85C484.018 34.95 483.934 35 483.768 35H482.818H480.518H474.968C474.834 35 474.751 34.95 474.718 34.85C474.684 34.75 474.734 34.6667 474.868 34.6C475.601 33.9333 475.968 32.55 475.968 30.45V5.4C475.968 3.26667 475.601 1.88333 474.868 1.25C474.734 1.15 474.684 1.05 474.718 0.949997C474.751 0.849999 474.834 0.799999 474.968 0.799999H480.518H487.868C489.201 0.799999 490.451 1.06667 491.618 1.6C492.818 2.1 493.851 2.8 494.718 3.7C495.618 4.56667 496.318 5.6 496.818 6.8C497.351 7.96667 497.618 9.21666 497.618 10.55C497.618 11.9833 497.318 13.35 496.718 14.65C496.118 15.95 495.268 17.05 494.168 17.95C495.368 19.35 496.234 20.7667 496.768 22.2C497.334 23.6 497.618 25.2 497.618 27V28.15V30.45C497.618 32.5833 497.984 33.9667 498.718 34.6ZM479.318 32.85C479.751 32.85 479.968 32.65 479.968 32.25C479.968 31.8167 479.751 31.6 479.318 31.6C478.918 31.6 478.718 31.8167 478.718 32.25C478.718 32.65 478.918 32.85 479.318 32.85ZM479.318 28.1C479.751 28.1 479.968 27.8833 479.968 27.45C479.968 27.2833 479.901 27.15 479.768 27.05C479.634 26.9167 479.484 26.85 479.318 26.85C479.151 26.85 479.001 26.9167 478.868 27.05C478.768 27.15 478.718 27.2833 478.718 27.45C478.718 27.8833 478.918 28.1 479.318 28.1ZM479.318 23.55C479.751 23.55 479.968 23.3333 479.968 22.9C479.968 22.7333 479.901 22.6 479.768 22.5C479.634 22.3667 479.484 22.3 479.318 22.3C479.151 22.3 479.001 22.3667 478.868 22.5C478.768 22.6 478.718 22.7333 478.718 22.9C478.718 23.3333 478.918 23.55 479.318 23.55ZM479.318 18.9C479.751 18.9 479.968 18.6833 479.968 18.25C479.968 18.0833 479.901 17.95 479.768 17.85C479.634 17.7167 479.484 17.65 479.318 17.65C479.151 17.65 479.001 17.7167 478.868 17.85C478.768 17.95 478.718 18.0833 478.718 18.25C478.718 18.6833 478.918 18.9 479.318 18.9ZM479.368 14.2C479.768 14.2 479.968 14 479.968 13.6C479.968 13.2 479.768 13 479.368 13C478.968 13 478.768 13.2 478.768 13.6C478.768 14 478.968 14.2 479.368 14.2ZM478.718 9C478.718 9.4 478.918 9.6 479.318 9.6C479.751 9.6 479.968 9.4 479.968 9C479.968 8.6 479.751 8.4 479.318 8.4C478.918 8.4 478.718 8.6 478.718 9ZM479.368 5C479.768 5 479.968 4.78333 479.968 4.35C479.968 3.95 479.768 3.75 479.368 3.75C478.968 3.75 478.768 3.95 478.768 4.35C478.768 4.78333 478.968 5 479.368 5ZM494.168 10.45C494.001 10.45 493.851 10.5167 493.718 10.65C493.584 10.75 493.518 10.8833 493.518 11.05C493.518 11.4833 493.734 11.7 494.168 11.7C494.568 11.7 494.768 11.4833 494.768 11.05C494.768 10.8833 494.701 10.75 494.568 10.65C494.468 10.5167 494.334 10.45 494.168 10.45ZM493.018 6.3C492.618 6.3 492.418 6.5 492.418 6.9C492.418 7.3 492.618 7.5 493.018 7.5C493.451 7.5 493.668 7.3 493.668 6.9C493.668 6.5 493.451 6.3 493.018 6.3ZM488.768 3.75C488.368 3.75 488.168 3.96667 488.168 4.4C488.168 4.56666 488.218 4.71666 488.318 4.85C488.451 4.95 488.601 5 488.768 5C488.934 5 489.084 4.95 489.218 4.85C489.351 4.71666 489.418 4.56666 489.418 4.4C489.418 3.96667 489.201 3.75 488.768 3.75ZM483.818 3.75C483.651 3.75 483.501 3.81667 483.368 3.95C483.268 4.08333 483.218 4.23333 483.218 4.4C483.218 4.56666 483.268 4.71666 483.368 4.85C483.501 4.95 483.651 5 483.818 5C483.984 5 484.134 4.95 484.268 4.85C484.401 4.71666 484.468 4.56666 484.468 4.4C484.468 3.96667 484.251 3.75 483.818 3.75ZM483.418 17.2C483.584 17.2 483.718 17.1333 483.818 17C483.951 16.8667 484.018 16.7167 484.018 16.55C484.018 16.3833 483.951 16.25 483.818 16.15C483.718 16.0167 483.584 15.95 483.418 15.95C483.251 15.95 483.101 16.0167 482.968 16.15C482.834 16.25 482.768 16.3833 482.768 16.55C482.768 16.9833 482.984 17.2 483.418 17.2ZM488.018 17.3C488.451 17.3 488.668 17.1 488.668 16.7C488.668 16.2667 488.451 16.05 488.018 16.05C487.618 16.05 487.418 16.2667 487.418 16.7C487.418 17.1 487.618 17.3 488.018 17.3ZM487.868 13.45C488.668 13.45 489.351 13.1833 489.918 12.65C490.484 12.0833 490.768 11.3833 490.768 10.55C490.768 9.75 490.484 9.06667 489.918 8.5C489.351 7.93333 488.668 7.65 487.868 7.65H482.818V7.7V8.05V13.4V13.45H487.868ZM491.118 20.5C491.551 20.5 491.768 20.3 491.768 19.9C491.768 19.4667 491.551 19.25 491.118 19.25C490.718 19.25 490.518 19.4667 490.518 19.9C490.518 20.3 490.718 20.5 491.118 20.5ZM491.868 15.8C491.868 16.2 492.084 16.4 492.518 16.4C492.684 16.4 492.818 16.35 492.918 16.25C493.051 16.1167 493.118 15.9667 493.118 15.8C493.118 15.6333 493.051 15.4833 492.918 15.35C492.818 15.2167 492.684 15.15 492.518 15.15C492.084 15.15 491.868 15.3667 491.868 15.8ZM492.918 23.5C492.918 23.9 493.134 24.1 493.568 24.1C493.968 24.1 494.168 23.9 494.168 23.5C494.168 23.0667 493.968 22.85 493.568 22.85C493.134 22.85 492.918 23.0667 492.918 23.5ZM494.218 27.2C494.051 27.2 493.901 27.2667 493.768 27.4C493.668 27.5 493.618 27.6333 493.618 27.8C493.618 27.9667 493.668 28.1167 493.768 28.25C493.901 28.35 494.051 28.4 494.218 28.4C494.651 28.4 494.868 28.2 494.868 27.8C494.868 27.4 494.651 27.2 494.218 27.2ZM494.368 32.85C494.801 32.85 495.018 32.65 495.018 32.25C495.018 31.8167 494.801 31.6 494.368 31.6C494.201 31.6 494.051 31.6667 493.918 31.8C493.818 31.9333 493.768 32.0833 493.768 32.25C493.768 32.4167 493.818 32.5667 493.918 32.7C494.051 32.8 494.201 32.85 494.368 32.85ZM515.265 14.55C516.699 14.55 518.032 14.8167 519.265 15.35C520.499 15.8833 521.582 16.6167 522.515 17.55C523.449 18.4833 524.182 19.5667 524.715 20.8C525.249 22.0333 525.515 23.3667 525.515 24.8C525.515 26.2 525.249 27.5333 524.715 28.8C524.182 30.0333 523.449 31.1167 522.515 32.05C521.582 32.95 520.499 33.6667 519.265 34.2C518.032 34.7333 516.699 35 515.265 35H513.015H510.715C509.315 35 507.982 34.7333 506.715 34.2C505.482 33.6667 504.399 32.95 503.465 32.05C502.565 31.1167 501.849 30.0333 501.315 28.8C500.782 27.5333 500.515 26.2 500.515 24.8H507.315H508.265C508.532 24.8 508.615 24.9 508.515 25.1C508.149 25.7667 508.115 26.35 508.415 26.85C508.715 27.35 509.032 27.7 509.365 27.9C509.799 28.1 510.249 28.2 510.715 28.2H513.015H515.265C516.232 28.2 517.049 27.8667 517.715 27.2C518.382 26.5333 518.715 25.7333 518.715 24.8C518.715 23.8333 518.382 23.0167 517.715 22.35C517.049 21.6833 516.232 21.35 515.265 21.35H513.015H510.715C509.315 21.35 507.982 21.0833 506.715 20.55C505.482 20.0167 504.399 19.2833 503.465 18.35C502.565 17.4167 501.849 16.3333 501.315 15.1C500.782 13.8333 500.515 12.5 500.515 11.1C500.515 9.7 500.782 8.38333 501.315 7.15C501.849 5.88333 502.565 4.78333 503.465 3.85C504.399 2.91667 505.482 2.18333 506.715 1.65C507.982 1.11666 509.315 0.849999 510.715 0.849999H513.015H515.265C516.699 0.849999 518.032 1.11666 519.265 1.65C520.499 2.18333 521.582 2.91667 522.515 3.85C523.449 4.78333 524.182 5.88333 524.715 7.15C525.249 8.38333 525.515 9.7 525.515 11.1H518.715H517.715C517.449 11.1 517.382 11 517.515 10.8C517.849 10.1667 517.865 9.58333 517.565 9.05C517.299 8.51666 516.999 8.16667 516.665 8C516.199 7.8 515.732 7.7 515.265 7.7H513.015H510.715C509.782 7.7 508.982 8.03333 508.315 8.7C507.649 9.36666 507.315 10.1667 507.315 11.1C507.315 12.0667 507.649 12.8833 508.315 13.55C508.982 14.2167 509.782 14.55 510.715 14.55H513.015H515.265ZM521.715 8.1C521.549 8.1 521.399 8.16666 521.265 8.3C521.165 8.4 521.115 8.53333 521.115 8.7C521.115 9.13333 521.315 9.35 521.715 9.35C522.149 9.35 522.365 9.13333 522.365 8.7C522.365 8.53333 522.299 8.4 522.165 8.3C522.032 8.16666 521.882 8.1 521.715 8.1ZM518.465 4.3C518.065 4.3 517.865 4.51667 517.865 4.95C517.865 5.35 518.065 5.55 518.465 5.55C518.865 5.55 519.065 5.35 519.065 4.95C519.065 4.51667 518.865 4.3 518.465 4.3ZM513.865 3.45C513.465 3.45 513.265 3.65 513.265 4.05C513.265 4.45 513.465 4.65 513.865 4.65C514.299 4.65 514.515 4.45 514.515 4.05C514.515 3.65 514.299 3.45 513.865 3.45ZM509.115 3.45C508.682 3.45 508.465 3.65 508.465 4.05C508.465 4.45 508.682 4.65 509.115 4.65C509.515 4.65 509.715 4.45 509.715 4.05C509.715 3.65 509.515 3.45 509.115 3.45ZM505.315 6.2C504.915 6.2 504.715 6.41667 504.715 6.85C504.715 7.01667 504.765 7.16667 504.865 7.3C504.999 7.4 505.149 7.45 505.315 7.45C505.482 7.45 505.615 7.4 505.715 7.3C505.849 7.16667 505.915 7.01667 505.915 6.85C505.915 6.41667 505.715 6.2 505.315 6.2ZM504.365 11.75C504.799 11.75 505.015 11.55 505.015 11.15C505.015 10.7167 504.799 10.5 504.365 10.5C504.199 10.5 504.049 10.5667 503.915 10.7C503.815 10.8333 503.765 10.9833 503.765 11.15C503.765 11.3167 503.815 11.4667 503.915 11.6C504.049 11.7 504.199 11.75 504.365 11.75ZM505.915 16.05C506.349 16.05 506.565 15.8333 506.565 15.4C506.565 15 506.349 14.8 505.915 14.8C505.749 14.8 505.599 14.8667 505.465 15C505.365 15.1 505.315 15.2333 505.315 15.4C505.315 15.5667 505.365 15.7167 505.465 15.85C505.599 15.9833 505.749 16.05 505.915 16.05ZM509.715 18.55C510.149 18.55 510.365 18.3333 510.365 17.9C510.365 17.7333 510.299 17.6 510.165 17.5C510.032 17.3667 509.882 17.3 509.715 17.3C509.549 17.3 509.399 17.3667 509.265 17.5C509.165 17.6 509.115 17.7333 509.115 17.9C509.115 18.3333 509.315 18.55 509.715 18.55ZM514.515 18.55C514.682 18.55 514.815 18.5 514.915 18.4C515.049 18.2667 515.115 18.1 515.115 17.9C515.115 17.7333 515.049 17.6 514.915 17.5C514.815 17.3667 514.682 17.3 514.515 17.3C514.349 17.3 514.199 17.3667 514.065 17.5C513.932 17.6 513.865 17.7333 513.865 17.9C513.865 18.3333 514.082 18.55 514.515 18.55ZM505.315 28.5C505.482 28.5 505.632 28.45 505.765 28.35C505.899 28.2167 505.965 28.0667 505.965 27.9C505.965 27.4667 505.749 27.25 505.315 27.25C505.149 27.25 504.999 27.3167 504.865 27.45C504.765 27.5833 504.715 27.7333 504.715 27.9C504.715 28.0667 504.765 28.2167 504.865 28.35C504.999 28.45 505.149 28.5 505.315 28.5ZM508.965 31.4C509.399 31.4 509.615 31.1833 509.615 30.75C509.615 30.35 509.399 30.15 508.965 30.15C508.565 30.15 508.365 30.35 508.365 30.75C508.365 31.1833 508.565 31.4 508.965 31.4ZM513.715 31.7C513.882 31.7 514.032 31.65 514.165 31.55C514.299 31.4167 514.365 31.2667 514.365 31.1C514.365 30.6667 514.149 30.45 513.715 30.45C513.315 30.45 513.115 30.6667 513.115 31.1C513.115 31.2667 513.165 31.4167 513.265 31.55C513.399 31.65 513.549 31.7 513.715 31.7ZM518.765 31.1C519.199 31.1 519.415 30.8833 519.415 30.45C519.415 30.05 519.199 29.85 518.765 29.85C518.365 29.85 518.165 30.05 518.165 30.45C518.165 30.8833 518.365 31.1 518.765 31.1ZM519.065 19.25C519.499 19.25 519.715 19.05 519.715 18.65C519.715 18.25 519.499 18.05 519.065 18.05C518.899 18.05 518.749 18.1167 518.615 18.25C518.515 18.35 518.465 18.4833 518.465 18.65C518.465 18.8167 518.515 18.9667 518.615 19.1C518.749 19.2 518.899 19.25 519.065 19.25ZM521.715 27.3C521.882 27.3 522.032 27.25 522.165 27.15C522.299 27.0167 522.365 26.8667 522.365 26.7C522.365 26.2667 522.149 26.05 521.715 26.05C521.315 26.05 521.115 26.2667 521.115 26.7C521.115 26.8667 521.165 27.0167 521.265 27.15C521.399 27.25 521.549 27.3 521.715 27.3ZM521.715 22.6C522.149 22.6 522.365 22.4 522.365 22C522.365 21.5667 522.149 21.35 521.715 21.35C521.315 21.35 521.115 21.5667 521.115 22C521.115 22.4 521.315 22.6 521.715 22.6ZM551.562 30.45C551.562 32.6167 551.929 34.0167 552.663 34.65C552.763 34.7167 552.796 34.8 552.763 34.9C552.763 34.9667 552.679 35 552.513 35H527.813C527.646 35 527.546 34.9667 527.513 34.9C527.513 34.8 527.563 34.7167 527.663 34.65C528.396 34.0167 528.763 32.6167 528.763 30.45V28.2V5.4C528.763 2.36667 528.013 0.849999 526.512 0.849999H552.513C552.679 0.849999 552.763 0.899999 552.763 1C552.796 1.1 552.763 1.18333 552.663 1.25C551.929 1.88333 551.562 3.26667 551.562 5.4V7.7V8.7C551.562 8.83333 551.513 8.91667 551.413 8.95C551.313 8.98333 551.229 8.93333 551.163 8.8C550.529 8.06667 549.146 7.7 547.013 7.7H535.613V9.95V14.5H542.463C544.596 14.5 545.979 14.1333 546.613 13.4C546.679 13.3 546.763 13.2667 546.863 13.3C546.963 13.3333 547.013 13.4167 547.013 13.55V14.5V16.8V21.35V22.35C547.013 22.4833 546.963 22.5667 546.863 22.6C546.763 22.6333 546.679 22.6 546.613 22.5C545.946 21.7333 544.563 21.35 542.463 21.35H535.613V23.6V28.2H547.013C549.113 28.2 550.496 27.8167 551.163 27.05C551.229 26.95 551.313 26.9167 551.413 26.95C551.513 26.9833 551.562 27.0667 551.562 27.2V28.2V30.45ZM544.513 17.45C544.113 17.45 543.913 17.6667 543.913 18.1C543.913 18.5 544.113 18.7 544.513 18.7C544.946 18.7 545.163 18.5 545.163 18.1C545.163 17.6667 544.946 17.45 544.513 17.45ZM548.863 3.55C548.696 3.55 548.546 3.61667 548.413 3.75C548.313 3.85 548.263 3.98333 548.263 4.15C548.263 4.31666 548.313 4.46666 548.413 4.6C548.546 4.73333 548.696 4.8 548.863 4.8C549.296 4.8 549.513 4.58333 549.513 4.15C549.513 3.75 549.296 3.55 548.863 3.55ZM544.813 3.55C544.379 3.55 544.163 3.75 544.163 4.15C544.163 4.58333 544.379 4.8 544.813 4.8C544.979 4.8 545.113 4.73333 545.213 4.6C545.346 4.46666 545.413 4.31666 545.413 4.15C545.413 3.98333 545.346 3.85 545.213 3.75C545.113 3.61667 544.979 3.55 544.813 3.55ZM540.613 3.55C540.179 3.55 539.963 3.75 539.963 4.15C539.963 4.58333 540.179 4.8 540.613 4.8C540.779 4.8 540.913 4.73333 541.013 4.6C541.146 4.46666 541.213 4.31666 541.213 4.15C541.213 3.98333 541.146 3.85 541.013 3.75C540.913 3.61667 540.779 3.55 540.613 3.55ZM536.313 3.55C535.913 3.55 535.713 3.75 535.713 4.15C535.713 4.58333 535.913 4.8 536.313 4.8C536.713 4.8 536.913 4.58333 536.913 4.15C536.913 3.75 536.713 3.55 536.313 3.55ZM540.313 17.45C539.913 17.45 539.713 17.6667 539.713 18.1C539.713 18.5 539.913 18.7 540.313 18.7C540.746 18.7 540.963 18.5 540.963 18.1C540.963 17.6667 540.746 17.45 540.313 17.45ZM536.213 17.45C535.779 17.45 535.563 17.6667 535.563 18.1C535.563 18.5 535.779 18.7 536.213 18.7C536.379 18.7 536.513 18.65 536.613 18.55C536.746 18.4167 536.813 18.2667 536.813 18.1C536.813 17.9333 536.746 17.7833 536.613 17.65C536.513 17.5167 536.379 17.45 536.213 17.45ZM531.963 32.65C532.396 32.65 532.613 32.45 532.613 32.05C532.613 31.6167 532.396 31.4 531.963 31.4C531.563 31.4 531.363 31.6167 531.363 32.05C531.363 32.45 531.563 32.65 531.963 32.65ZM531.963 27.9C532.396 27.9 532.613 27.7 532.613 27.3C532.613 26.8667 532.396 26.65 531.963 26.65C531.563 26.65 531.363 26.8667 531.363 27.3C531.363 27.7 531.563 27.9 531.963 27.9ZM531.963 23.35C532.396 23.35 532.613 23.1333 532.613 22.7C532.613 22.3 532.396 22.1 531.963 22.1C531.563 22.1 531.363 22.3 531.363 22.7C531.363 23.1333 531.563 23.35 531.963 23.35ZM531.963 18.7C532.396 18.7 532.613 18.5 532.613 18.1C532.613 17.6667 532.396 17.45 531.963 17.45C531.563 17.45 531.363 17.6667 531.363 18.1C531.363 18.5 531.563 18.7 531.963 18.7ZM532.013 14.05C532.446 14.05 532.663 13.8333 532.663 13.4C532.663 13 532.446 12.8 532.013 12.8C531.579 12.8 531.363 13 531.363 13.4C531.363 13.8333 531.579 14.05 532.013 14.05ZM531.363 8.8C531.363 9.2 531.563 9.4 531.963 9.4C532.396 9.4 532.613 9.2 532.613 8.8C532.613 8.36667 532.396 8.15 531.963 8.15C531.563 8.15 531.363 8.36667 531.363 8.8ZM532.013 4.8C532.446 4.8 532.663 4.58333 532.663 4.15C532.663 3.75 532.446 3.55 532.013 3.55C531.579 3.55 531.363 3.75 531.363 4.15C531.363 4.58333 531.579 4.8 532.013 4.8ZM536.163 32.65C536.596 32.65 536.813 32.45 536.813 32.05C536.813 31.6167 536.596 31.4 536.163 31.4C535.763 31.4 535.563 31.6167 535.563 32.05C535.563 32.45 535.763 32.65 536.163 32.65ZM540.313 32.65C540.479 32.65 540.613 32.6 540.713 32.5C540.846 32.3667 540.913 32.2167 540.913 32.05C540.913 31.8833 540.846 31.7333 540.713 31.6C540.613 31.4667 540.479 31.4 540.313 31.4C539.879 31.4 539.663 31.6167 539.663 32.05C539.663 32.45 539.879 32.65 540.313 32.65ZM544.513 32.65C544.913 32.65 545.113 32.45 545.113 32.05C545.113 31.6167 544.913 31.4 544.513 31.4C544.079 31.4 543.863 31.6167 543.863 32.05C543.863 32.45 544.079 32.65 544.513 32.65ZM548.913 32.65C549.079 32.65 549.213 32.6 549.313 32.5C549.446 32.3667 549.513 32.2167 549.513 32.05C549.513 31.8833 549.446 31.7333 549.313 31.6C549.213 31.4667 549.079 31.4 548.913 31.4C548.479 31.4 548.263 31.6167 548.263 32.05C548.263 32.45 548.479 32.65 548.913 32.65Z" fill="#CCA354"/>
</svg>
