<svg width="195" height="28" viewBox="0 0 195 28" fill="none" xmlns="http://www.w3.org/2000/svg">
<path d="M19.44 5.24C20.16 6.01333 20.68 6.92 21 7.96C21.32 9 21.3733 10.1333 21.16 11.36H16.16H15.28C15.0667 11.36 15.0267 11.2667 15.16 11.08C15.4267 10.84 15.5867 10.5333 15.64 10.16H20.24C20.3733 9.22667 20.36 8.34667 20.2 7.52C20.0667 6.69333 19.8133 5.93333 19.44 5.24ZM9.28 26.76C10.32 26.76 11.3333 26.5867 12.32 26.24C13.3333 25.8667 14.2533 25.36 15.08 24.72C15.9067 24.08 16.6267 23.3333 17.24 22.48C17.88 21.6267 18.3467 20.6933 18.64 19.68H19.84C19.6533 20.8267 19.2667 21.9067 18.68 22.92C18.0933 23.9333 17.36 24.8133 16.48 25.56C15.6267 26.3067 14.6533 26.9067 13.56 27.36C12.4933 27.7867 11.3867 28 10.24 28H8.6C7.21333 28 5.97333 27.6933 4.88 27.08C3.81333 26.44 2.98667 25.6133 2.4 24.6C3.04 25.2933 3.8 25.8267 4.68 26.2C5.56 26.5733 6.54667 26.76 7.64 26.76H9.28ZM7.28 26.16C6.13333 26.16 5.08 25.9467 4.12 25.52C3.18667 25.0667 2.4 24.4667 1.76 23.72C1.14667 22.9733 0.693333 22.0933 0.4 21.08C0.133333 20.0667 0.0933334 18.9867 0.28 17.84L1.6 9.52C1.78667 8.37333 2.17333 7.30667 2.76 6.32C3.34667 5.30666 4.06667 4.42666 4.92 3.68C5.8 2.93333 6.77333 2.34667 7.84 1.92C8.93333 1.46667 10.0533 1.24 11.2 1.24H12.84C13.9867 1.24 15.0267 1.46667 15.96 1.92C16.92 2.34667 17.72 2.93333 18.36 3.68C19 4.42666 19.4533 5.30666 19.72 6.32C20.0133 7.30667 20.0667 8.37333 19.88 9.52H14.88H14C13.7867 9.52 13.76 9.44 13.92 9.28C14.16 8.98667 14.3067 8.62667 14.36 8.2C14.0667 8.09333 13.7467 8.04 13.4 8.04H11.76C11.28 8.04 10.8267 8.13333 10.4 8.32C9.97333 8.48 9.57333 8.72 9.2 9.04C8.85333 9.33333 8.56 9.68 8.32 10.08C8.08 10.48 7.92 10.9067 7.84 11.36L7.32 14.68L7.08 16.36L6.52 19.68C6.46667 20.1067 6.48 20.48 6.56 20.8C6.98667 21.04 7.49333 21.16 8.08 21.16H9.72C10.28 21.16 10.8267 21.0267 11.36 20.76C11.52 20.7067 11.6533 20.6267 11.76 20.52C11.8933 20.4133 12.0133 20.2933 12.12 20.16C12.4133 19.7333 12.5867 19.36 12.64 19.04C12.6933 18.72 12.6533 18.4133 12.52 18.12C12.4667 18.0667 12.4533 18.0133 12.48 17.96C12.5067 17.88 12.5733 17.84 12.68 17.84H13.56H18.56C18.3733 18.9867 17.9867 20.0667 17.4 21.08C16.8133 22.0933 16.08 22.9733 15.2 23.72C14.32 24.4667 13.3333 25.0667 12.24 25.52C11.1733 25.9467 10.0667 26.16 8.92 26.16H7.28ZM5.84 20.2C5.62667 19.72 5.56 19.1333 5.64 18.44L6.16 15.12L6.44 13.48L6.96 10.16C7.04 9.70667 7.18667 9.28 7.4 8.88C7.64 8.48 7.93333 8.13333 8.28 7.84C8.62667 7.52 9.01333 7.28 9.44 7.12C9.89333 6.93333 10.3467 6.84 10.8 6.84H12.44C12.7333 6.84 13 6.86667 13.24 6.92C13.5067 6.97333 13.76 7.08 14 7.24C14.0533 7.24 14.08 7.25333 14.08 7.28C14.1067 7.30667 14.1467 7.33333 14.2 7.36C14.1733 7.33333 14.16 7.32 14.16 7.32C14.1867 7.29333 14.1867 7.26667 14.16 7.24C14.1067 7.10666 14.0267 7 13.92 6.92C13.84 6.81333 13.7333 6.70667 13.6 6.6C13.36 6.46667 13.12 6.37333 12.88 6.32C12.64 6.24 12.3733 6.2 12.08 6.2H10.44C9.98667 6.2 9.53333 6.29333 9.08 6.48C8.65333 6.64 8.26667 6.88 7.92 7.2C7.57333 7.49333 7.28 7.84 7.04 8.24C6.82667 8.64 6.68 9.06667 6.6 9.52L6.04 12.88L5.8 14.52L5.28 17.84C5.12 18.8 5.30667 19.5867 5.84 20.2ZM42.3281 9.8C42.4615 8.86667 42.4481 7.97333 42.2881 7.12C42.1548 6.24 41.9015 5.45333 41.5281 4.76C42.2215 5.53333 42.7281 6.46666 43.0481 7.56C43.3948 8.62667 43.4748 9.78667 43.2881 11.04L41.9281 19.52C41.7415 20.6933 41.3415 21.8 40.7281 22.84C40.1415 23.8533 39.3948 24.7467 38.4881 25.52C37.6081 26.2933 36.6081 26.9067 35.4881 27.36C34.3948 27.7867 33.2615 28 32.0881 28H30.4081C28.9948 28 27.7415 27.6933 26.6481 27.08C25.5548 26.44 24.7015 25.6 24.0881 24.56C24.7548 25.2533 25.5281 25.8 26.4081 26.2C27.3148 26.5733 28.3281 26.76 29.4481 26.76H31.1281C32.3015 26.76 33.4348 26.5467 34.5281 26.12C35.6481 25.6667 36.6481 25.0533 37.5281 24.28C38.4081 23.5067 39.1548 22.6133 39.7681 21.6C40.3815 20.56 40.7815 19.4533 40.9681 18.28L42.3281 9.8ZM29.0881 26.16C27.9148 26.16 26.8348 25.9467 25.8481 25.52C24.8881 25.0667 24.0881 24.4533 23.4481 23.68C22.8081 22.9067 22.3415 22.0133 22.0481 21C21.7548 19.96 21.7015 18.8533 21.8881 17.68L23.2481 9.16C23.4348 8.01333 23.8215 6.93333 24.4081 5.92C25.0215 4.88 25.7815 3.97333 26.6881 3.2C27.5948 2.42667 28.5948 1.82667 29.6881 1.4C30.8081 0.946665 31.9548 0.719998 33.1281 0.719998H34.8081C35.9815 0.719998 37.0481 0.946665 38.0081 1.4C38.9681 1.82667 39.7681 2.42667 40.4081 3.2C41.0481 3.97333 41.5015 4.88 41.7681 5.92C42.0615 6.93333 42.1148 8.01333 41.9281 9.16L40.5681 17.68C40.3815 18.8533 39.9815 19.96 39.3681 21C38.7815 22.0133 38.0348 22.9067 37.1281 23.68C36.2481 24.4533 35.2615 25.0667 34.1681 25.52C33.0748 25.9467 31.9415 26.16 30.7681 26.16H29.0881ZM36.8481 9.16C36.9015 8.97333 36.9148 8.78667 36.8881 8.6C36.8881 8.41333 36.8748 8.22667 36.8481 8.04C36.6081 7.90667 36.3548 7.81333 36.0881 7.76C35.8481 7.68 35.5815 7.64 35.2881 7.64H33.6081C33.1281 7.64 32.6615 7.73333 32.2081 7.92C31.7815 8.08 31.3948 8.32 31.0481 8.64C30.7015 8.93333 30.4081 9.29333 30.1681 9.72C29.9281 10.12 29.7681 10.56 29.6881 11.04L29.1281 14.44L28.8881 16.12L28.3281 19.52C28.2748 19.7333 28.2481 19.9333 28.2481 20.12C28.2748 20.3067 28.3015 20.4933 28.3281 20.68C28.5681 20.8133 28.8081 20.92 29.0481 21C29.3148 21.0533 29.5948 21.08 29.8881 21.08H31.5681C32.0481 21.08 32.5015 21 32.9281 20.84C33.3815 20.6533 33.7815 20.4133 34.1281 20.12C34.4748 19.8 34.7681 19.44 35.0081 19.04C35.2481 18.6133 35.4081 18.16 35.4881 17.68L36.0481 14.28L36.3281 12.56L36.8481 9.16ZM27.0081 17.68C26.8748 18.64 27.0881 19.44 27.6481 20.08C27.3815 19.4933 27.3015 18.8933 27.4081 18.28L27.9281 14.88L28.2081 13.2L28.7681 9.8C28.8481 9.32 29.0081 8.88 29.2481 8.48C29.4881 8.05333 29.7815 7.69333 30.1281 7.4C30.4748 7.08 30.8615 6.84 31.2881 6.68C31.7415 6.49333 32.2081 6.4 32.6881 6.4H34.3681C35.3548 6.4 36.1015 6.72 36.6081 7.36C36.3948 6.90666 36.0481 6.53333 35.5681 6.24C35.1148 5.94667 34.5815 5.8 33.9681 5.8H32.2881C31.8081 5.8 31.3415 5.89333 30.8881 6.08C30.4615 6.24 30.0748 6.48 29.7281 6.8C29.3815 7.09333 29.0881 7.45333 28.8481 7.88C28.6081 8.28 28.4481 8.70667 28.3681 9.16L27.8481 12.56L27.5681 14.28L27.0081 17.68ZM68.0253 27.72C68.0786 27.7733 68.092 27.84 68.0653 27.92C68.0386 27.9733 67.972 28 67.8653 28H61.3053C61.1986 28 61.132 27.9733 61.1053 27.92C61.1053 27.84 61.1453 27.7733 61.2253 27.72C61.3586 27.5867 61.492 27.4533 61.6253 27.32C61.7586 27.16 61.8653 26.9733 61.9453 26.76H66.9053C67.012 26.76 67.0786 26.7333 67.1053 26.68C67.1586 26.6 67.1453 26.52 67.0653 26.44C66.5853 25.9867 66.4653 24.96 66.7053 23.36L66.9853 21.68L68.0253 14.88L68.9053 9.48L69.1053 8.08L69.3853 6.4L69.6653 4.68C69.7186 4.22667 69.7986 3.82667 69.9053 3.48C70.012 3.13333 70.132 2.82666 70.2653 2.56H71.8653C71.972 2.56 72.0386 2.6 72.0653 2.68C72.092 2.73333 72.052 2.78667 71.9453 2.84C71.3053 3.32 70.8653 4.36 70.6253 5.96L70.3453 7.64L70.0653 9.36L69.8653 10.72L69.0253 16.12L67.9453 22.92L67.6653 24.6C67.4253 26.2 67.5453 27.24 68.0253 27.72ZM63.8653 0.959998C63.7853 0.906665 63.7586 0.853332 63.7853 0.8C63.8386 0.719999 63.9186 0.679999 64.0253 0.679999H68.1453H70.5853C70.6653 0.679999 70.7053 0.719999 70.7053 0.8C70.732 0.853332 70.7053 0.906665 70.6253 0.959998C70.0386 1.41333 69.5986 2.45333 69.3053 4.08L69.0653 5.76L68.7853 7.48L68.5453 8.88L67.7053 14.28L66.6253 21.04L66.3453 22.72C66.1053 24.3467 66.212 25.3867 66.6653 25.84C66.7453 25.8933 66.7586 25.96 66.7053 26.04C66.6786 26.0933 66.6253 26.12 66.5453 26.12H59.9853C59.8786 26.12 59.812 26.0933 59.7853 26.04C59.7853 25.96 59.8253 25.8933 59.9053 25.84C60.5453 25.36 60.9853 24.32 61.2253 22.72L61.3853 21.92L59.5453 25.16C58.8786 26.28 58.6386 27.1467 58.8253 27.76C58.852 27.92 58.7986 28 58.6653 28H53.5853C53.3986 28 53.3453 27.92 53.4253 27.76C53.6386 27.4667 53.7453 27.1333 53.7453 26.76H57.7053C57.892 26.76 57.9453 26.68 57.8653 26.52C57.7053 25.9333 57.9586 25.0667 58.6253 23.92L61.9853 17.96L62.2653 16.16L58.2253 23.32C57.5853 24.44 57.3453 25.2933 57.5053 25.88C57.532 26.04 57.4653 26.12 57.3053 26.12H52.2653C52.052 26.12 52.012 26.04 52.1453 25.88C52.492 25.32 52.532 24.4667 52.2653 23.32L51.3853 19.96L50.8253 23.6V23.64L50.6653 24.6C50.4253 26.1733 50.5453 27.2133 51.0253 27.72C51.0786 27.7733 51.092 27.84 51.0653 27.92C51.0653 27.9733 51.012 28 50.9053 28H44.3453C44.2386 28 44.172 27.9733 44.1453 27.92C44.1453 27.84 44.1853 27.7733 44.2653 27.72C44.4253 27.5867 44.5586 27.4533 44.6653 27.32C44.772 27.16 44.8786 26.9733 44.9853 26.76H49.9453C50.212 26.76 50.2653 26.6533 50.1053 26.44C49.6253 26.04 49.5053 25.0133 49.7453 23.36L49.9053 22.4V22.36L50.7053 17.24L50.4253 16.08L49.5053 21.72V21.8L49.3453 22.72C49.1053 24.32 49.2253 25.36 49.7053 25.84C49.7853 25.8933 49.7986 25.96 49.7453 26.04C49.7186 26.0933 49.652 26.12 49.5453 26.12H43.0253C42.9186 26.12 42.852 26.0933 42.8253 26.04C42.8253 25.96 42.8653 25.8933 42.9453 25.84C43.5853 25.36 44.0253 24.32 44.2653 22.72L47.2253 4.08C47.492 2.48 47.3853 1.44 46.9053 0.959998C46.8253 0.906665 46.7986 0.853332 46.8253 0.8C46.8786 0.719999 46.9586 0.679999 47.0653 0.679999H51.1853H53.5853C53.692 0.679999 53.7453 0.719999 53.7453 0.8C53.772 0.853332 53.7453 0.906665 53.6653 0.959998C53.452 1.09333 53.2786 1.28 53.1453 1.52C53.012 1.73333 52.8786 1.98667 52.7453 2.28C52.6386 2.57333 52.612 2.92 52.6653 3.32L56.2253 17.12L56.3853 16.84L53.1053 3.92C52.9986 3.57333 53.012 3.24 53.1453 2.92C53.172 2.84 53.1986 2.77333 53.2253 2.72C53.252 2.66667 53.2786 2.61333 53.3053 2.56H54.9053C55.012 2.56 55.0653 2.6 55.0653 2.68C55.092 2.73333 55.052 2.78667 54.9453 2.84C54.572 3.16 54.292 3.6 54.1053 4.16C53.9186 4.48 53.892 4.81333 54.0253 5.16L56.7853 16.08L64.0653 3.32C64.252 2.97333 64.332 2.62667 64.3053 2.28C64.3053 1.98667 64.2653 1.73333 64.1853 1.52C64.1053 1.28 63.9986 1.09333 63.8653 0.959998ZM94.6269 27.72C94.6802 27.7733 94.6935 27.84 94.6669 27.92C94.6402 27.9733 94.5735 28 94.4669 28H87.9069C87.8002 28 87.7335 27.9733 87.7069 27.92C87.7069 27.84 87.7469 27.7733 87.8269 27.72C87.9602 27.5867 88.0935 27.4533 88.2269 27.32C88.3602 27.16 88.4669 26.9733 88.5469 26.76H93.5069C93.6135 26.76 93.6802 26.7333 93.7069 26.68C93.7602 26.6 93.7469 26.52 93.6669 26.44C93.1869 25.9867 93.0669 24.96 93.3069 23.36L93.5869 21.68L94.6269 14.88L95.5069 9.48L95.7069 8.08L95.9869 6.4L96.2669 4.68C96.3202 4.22667 96.4002 3.82667 96.5069 3.48C96.6135 3.13333 96.7335 2.82666 96.8669 2.56H98.4669C98.5735 2.56 98.6402 2.6 98.6669 2.68C98.6935 2.73333 98.6535 2.78667 98.5469 2.84C97.9069 3.32 97.4669 4.36 97.2269 5.96L96.9469 7.64L96.6669 9.36L96.4669 10.72L95.6269 16.12L94.5469 22.92L94.2669 24.6C94.0269 26.2 94.1469 27.24 94.6269 27.72ZM90.4669 0.959998C90.3869 0.906665 90.3602 0.853332 90.3869 0.8C90.4402 0.719999 90.5202 0.679999 90.6269 0.679999H94.7469H97.1869C97.2669 0.679999 97.3069 0.719999 97.3069 0.8C97.3335 0.853332 97.3069 0.906665 97.2269 0.959998C96.6402 1.41333 96.2002 2.45333 95.9069 4.08L95.6669 5.76L95.3869 7.48L95.1469 8.88L94.3069 14.28L93.2269 21.04L92.9469 22.72C92.7069 24.3467 92.8135 25.3867 93.2669 25.84C93.3469 25.8933 93.3602 25.96 93.3069 26.04C93.2802 26.0933 93.2269 26.12 93.1469 26.12H86.5869C86.4802 26.12 86.4135 26.0933 86.3869 26.04C86.3869 25.96 86.4269 25.8933 86.5069 25.84C87.1469 25.36 87.5869 24.32 87.8269 22.72L87.9869 21.92L86.1469 25.16C85.4802 26.28 85.2402 27.1467 85.4269 27.76C85.4535 27.92 85.4002 28 85.2669 28H80.1869C80.0002 28 79.9469 27.92 80.0269 27.76C80.2402 27.4667 80.3469 27.1333 80.3469 26.76H84.3069C84.4935 26.76 84.5469 26.68 84.4669 26.52C84.3069 25.9333 84.5602 25.0667 85.2269 23.92L88.5869 17.96L88.8669 16.16L84.8269 23.32C84.1869 24.44 83.9469 25.2933 84.1069 25.88C84.1335 26.04 84.0669 26.12 83.9069 26.12H78.8669C78.6535 26.12 78.6135 26.04 78.7469 25.88C79.0935 25.32 79.1335 24.4667 78.8669 23.32L77.9869 19.96L77.4269 23.6V23.64L77.2669 24.6C77.0269 26.1733 77.1469 27.2133 77.6269 27.72C77.6802 27.7733 77.6935 27.84 77.6669 27.92C77.6669 27.9733 77.6135 28 77.5069 28H70.9469C70.8402 28 70.7735 27.9733 70.7469 27.92C70.7469 27.84 70.7869 27.7733 70.8669 27.72C71.0269 27.5867 71.1602 27.4533 71.2669 27.32C71.3735 27.16 71.4802 26.9733 71.5869 26.76H76.5469C76.8135 26.76 76.8669 26.6533 76.7069 26.44C76.2269 26.04 76.1069 25.0133 76.3469 23.36L76.5069 22.4V22.36L77.3069 17.24L77.0269 16.08L76.1069 21.72V21.8L75.9469 22.72C75.7069 24.32 75.8269 25.36 76.3069 25.84C76.3869 25.8933 76.4002 25.96 76.3469 26.04C76.3202 26.0933 76.2535 26.12 76.1469 26.12H69.6269C69.5202 26.12 69.4535 26.0933 69.4269 26.04C69.4269 25.96 69.4669 25.8933 69.5469 25.84C70.1869 25.36 70.6269 24.32 70.8669 22.72L73.8269 4.08C74.0935 2.48 73.9869 1.44 73.5069 0.959998C73.4269 0.906665 73.4002 0.853332 73.4269 0.8C73.4802 0.719999 73.5602 0.679999 73.6669 0.679999H77.7869H80.1869C80.2935 0.679999 80.3469 0.719999 80.3469 0.8C80.3735 0.853332 80.3469 0.906665 80.2669 0.959998C80.0535 1.09333 79.8802 1.28 79.7469 1.52C79.6135 1.73333 79.4802 1.98667 79.3469 2.28C79.2402 2.57333 79.2135 2.92 79.2669 3.32L82.8269 17.12L82.9869 16.84L79.7069 3.92C79.6002 3.57333 79.6135 3.24 79.7469 2.92C79.7735 2.84 79.8002 2.77333 79.8269 2.72C79.8535 2.66667 79.8802 2.61333 79.9069 2.56H81.5069C81.6135 2.56 81.6669 2.6 81.6669 2.68C81.6935 2.73333 81.6535 2.78667 81.5469 2.84C81.1735 3.16 80.8935 3.6 80.7069 4.16C80.5202 4.48 80.4935 4.81333 80.6269 5.16L83.3869 16.08L90.6669 3.32C90.8535 2.97333 90.9335 2.62667 90.9069 2.28C90.9069 1.98667 90.8669 1.73333 90.7869 1.52C90.7069 1.28 90.6002 1.09333 90.4669 0.959998ZM116.428 19.52C116.242 20.6933 115.842 21.8 115.228 22.84C114.642 23.8533 113.895 24.7467 112.988 25.52C112.108 26.2933 111.122 26.9067 110.028 27.36C108.935 27.7867 107.802 28 106.628 28C105.215 28 103.962 27.6933 102.868 27.08C101.775 26.44 100.922 25.5867 100.308 24.52C100.975 25.2133 101.748 25.76 102.628 26.16C103.535 26.56 104.548 26.76 105.668 26.76C106.842 26.76 107.975 26.5467 109.068 26.12C110.162 25.6667 111.148 25.0533 112.028 24.28C112.935 23.5067 113.695 22.6133 114.308 21.6C114.922 20.56 115.322 19.4533 115.508 18.28L117.668 4.68C117.802 3.77333 118.002 3.06667 118.268 2.56H119.868C119.948 2.56 120.002 2.6 120.028 2.68C120.055 2.73333 120.015 2.78667 119.908 2.84C119.268 3.32 118.828 4.36 118.588 5.96L116.428 19.52ZM111.348 9.16L112.148 4.08C112.415 2.48 112.308 1.45333 111.828 1C111.695 0.813332 111.748 0.719998 111.988 0.719998H118.548C118.815 0.719998 118.828 0.813332 118.588 1C117.975 1.48 117.535 2.50667 117.268 4.08L115.148 17.64C114.962 18.8133 114.562 19.92 113.948 20.96C113.335 22 112.575 22.9067 111.668 23.68C110.788 24.4533 109.788 25.0667 108.668 25.52C107.575 25.9467 106.442 26.16 105.268 26.16C104.095 26.16 103.028 25.9467 102.068 25.52C101.135 25.0667 100.348 24.4533 99.7084 23.68C99.0684 22.9067 98.6018 22 98.3084 20.96C98.0418 19.92 98.0018 18.8133 98.1884 17.64L100.308 4.08C100.575 2.50667 100.455 1.48 99.9484 1C99.8151 0.813332 99.8684 0.719998 100.108 0.719998H106.668C106.935 0.719998 106.948 0.813332 106.708 1C106.095 1.48 105.655 2.50667 105.388 4.08L104.588 9.16L103.788 14.28L103.268 17.64C103.108 18.6533 103.308 19.4667 103.868 20.08C103.602 19.4933 103.522 18.8933 103.628 18.28L104.148 14.88L104.988 9.76L105.788 4.68C105.895 3.82667 106.082 3.12 106.348 2.56H107.948C108.082 2.56 108.148 2.6 108.148 2.68C108.175 2.73333 108.135 2.78667 108.028 2.84C107.388 3.32 106.948 4.36 106.708 5.96L105.908 11.04L105.108 16.12L104.548 19.52C104.495 19.7333 104.468 19.9333 104.468 20.12C104.495 20.28 104.535 20.4533 104.588 20.64C105.015 20.9067 105.508 21.04 106.068 21.04C106.548 21.04 107.002 20.96 107.428 20.8C107.882 20.6133 108.282 20.3733 108.628 20.08C109.002 19.76 109.308 19.4 109.548 19C109.788 18.5733 109.948 18.12 110.028 17.64L110.548 14.28L111.348 9.16ZM141.193 3.36C140.579 3.78667 140.153 4.8 139.913 6.4L137.033 24.68C136.766 26.2267 136.873 27.24 137.353 27.72C137.406 27.7733 137.419 27.84 137.393 27.92C137.366 27.9733 137.299 28 137.193 28H130.793C130.686 28 130.619 27.9733 130.593 27.92C130.593 27.84 130.633 27.7733 130.713 27.72C131.033 27.4533 131.259 27.1333 131.393 26.76H136.273C136.353 26.76 136.406 26.7333 136.433 26.68C136.486 26.6 136.486 26.5333 136.433 26.48C135.953 26 135.846 24.9867 136.113 23.44L138.993 5.16C139.099 4.33333 139.286 3.64 139.553 3.08H141.113C141.219 3.08 141.286 3.12 141.313 3.2C141.339 3.25333 141.299 3.30667 141.193 3.36ZM119.313 21.2L121.953 4.56C122.193 2.98667 122.086 1.97333 121.633 1.52C121.579 1.46666 121.566 1.41333 121.593 1.36C121.619 1.28 121.673 1.24 121.753 1.24H128.193C128.299 1.24 128.353 1.28 128.353 1.36C128.379 1.41333 128.353 1.46666 128.273 1.52C128.086 1.68 127.913 1.88 127.753 2.12C127.619 2.33333 127.499 2.61333 127.393 2.96C127.179 3.46666 127.086 3.92 127.113 4.32C127.166 4.69333 127.299 5.09333 127.513 5.52L132.113 13.88L132.153 13.8L127.873 6.12C127.633 5.69333 127.499 5.28 127.473 4.88C127.473 4.48 127.553 4.02666 127.713 3.52C127.819 3.30667 127.886 3.16 127.913 3.08H129.473C129.579 3.08 129.646 3.12 129.673 3.2C129.699 3.25333 129.659 3.30667 129.553 3.36C129.153 3.65333 128.859 4.12 128.673 4.76C128.326 5.69333 128.366 6.56 128.793 7.36L132.193 13.48L132.553 11.24L133.073 7.92L133.593 4.56C133.833 3.01333 133.713 2 133.233 1.52C133.179 1.46666 133.166 1.41333 133.193 1.36C133.246 1.28 133.313 1.24 133.393 1.24H139.833C139.939 1.24 139.993 1.28 139.993 1.36C140.019 1.41333 139.993 1.46666 139.913 1.52C139.273 2 138.833 3.01333 138.593 4.56L135.713 22.84C135.473 24.4133 135.593 25.4267 136.073 25.88C136.126 25.9333 136.139 26 136.113 26.08C136.086 26.16 136.019 26.2 135.913 26.2H129.473C129.393 26.2 129.339 26.16 129.313 26.08C129.286 26 129.313 25.9333 129.393 25.88C129.899 25.5067 130.273 24.7867 130.513 23.72C130.753 22.92 130.673 22.1867 130.273 21.52L126.873 15.36L126.433 18.04L126.153 19.68L125.393 24.68C125.126 26.2267 125.233 27.24 125.713 27.72C125.766 27.7733 125.779 27.84 125.753 27.92C125.726 27.9733 125.659 28 125.553 28H119.153C119.046 28 118.979 27.9733 118.953 27.92C118.953 27.84 118.993 27.7733 119.073 27.72C119.366 27.5067 119.606 27.1867 119.793 26.76H124.633C124.739 26.76 124.806 26.7333 124.833 26.68C124.859 26.6 124.846 26.5333 124.793 26.48C124.313 26 124.206 24.9867 124.473 23.44L125.233 18.44L125.513 16.8L125.993 13.8L125.593 13.16L125.113 16.2L124.873 17.88L124.073 22.84C123.833 24.4133 123.953 25.4267 124.433 25.88C124.486 25.9333 124.499 26 124.473 26.08C124.446 26.16 124.379 26.2 124.273 26.2H117.833C117.753 26.2 117.699 26.16 117.673 26.08C117.646 26 117.686 25.9333 117.793 25.88C118.406 25.4533 118.833 24.44 119.073 22.84L119.313 21.2ZM146.356 26.72C146.463 26.72 146.53 26.6933 146.556 26.64C146.583 26.56 146.57 26.4933 146.516 26.44C146.036 25.96 145.916 24.92 146.156 23.32L146.436 21.64L147.476 14.88L148.356 9.48L148.836 6.4L149.116 4.68C149.223 3.82667 149.41 3.12 149.676 2.56H150.556H151.276C151.383 2.56 151.45 2.6 151.476 2.68C151.503 2.73333 151.463 2.78667 151.356 2.84C150.716 3.32 150.276 4.34667 150.036 5.92L149.756 7.64L149.276 10.72L148.436 16.12L147.356 22.92L147.076 24.6C146.836 26.1733 146.956 27.2 147.436 27.68C147.49 27.7333 147.503 27.8 147.476 27.88C147.45 27.96 147.383 28 147.276 28H140.716C140.61 28 140.543 27.96 140.516 27.88C140.516 27.8 140.556 27.7333 140.636 27.68C140.796 27.5733 140.93 27.44 141.036 27.28C141.143 27.12 141.263 26.9333 141.396 26.72H146.356ZM139.316 25.84C139.956 25.36 140.396 24.32 140.636 22.72L143.596 4.08C143.863 2.48 143.756 1.44 143.276 0.959998C143.196 0.906665 143.17 0.853332 143.196 0.8C143.25 0.719999 143.33 0.679999 143.436 0.679999H147.556H149.276H149.996C150.103 0.679999 150.156 0.719999 150.156 0.8C150.156 0.853332 150.13 0.906665 150.076 0.959998C149.73 1.2 149.45 1.58666 149.236 2.12C149.023 2.62667 148.85 3.28 148.716 4.08L148.476 5.76L147.956 8.88L147.116 14.28L146.036 21.04L145.756 22.72C145.516 24.3467 145.636 25.3867 146.116 25.84C146.17 25.8933 146.183 25.96 146.156 26.04C146.13 26.0933 146.063 26.12 145.956 26.12H139.396C139.29 26.12 139.223 26.0933 139.196 26.04C139.196 25.96 139.236 25.8933 139.316 25.84ZM170.753 4.68C170.887 3.82667 171.087 3.12 171.353 2.56H172.193H172.953C173.033 2.56 173.087 2.6 173.113 2.68C173.14 2.73333 173.1 2.78667 172.993 2.84C172.353 3.32 171.913 4.36 171.673 5.96L171.393 7.64L171.273 8.36C171.22 8.65333 171.113 8.69333 170.953 8.48C170.58 7.92 169.593 7.64 167.993 7.64H165.433L164.953 10.76L164.073 16.16L163.073 22.68L162.753 24.6C162.513 26.2 162.633 27.24 163.113 27.72C163.167 27.7733 163.18 27.84 163.153 27.92C163.127 27.9733 163.06 28 162.953 28H156.393C156.287 28 156.22 27.9733 156.193 27.92C156.193 27.84 156.247 27.7733 156.353 27.72C156.647 27.48 156.873 27.16 157.033 26.76H161.993C162.1 26.76 162.167 26.7333 162.193 26.68C162.247 26.6 162.247 26.52 162.193 26.44C161.687 26.0133 161.553 24.9867 161.793 23.36L162.073 21.44L163.113 14.88L163.993 9.48L164.473 6.4H167.073C168.673 6.4 169.66 6.68 170.033 7.24C170.087 7.32 170.14 7.34667 170.193 7.32C170.273 7.29333 170.327 7.22667 170.353 7.12L170.473 6.4L170.753 4.68ZM153.313 4.08C153.553 2.48 153.433 1.45333 152.953 1C152.9 0.946665 152.887 0.893332 152.913 0.839999C152.967 0.759999 153.047 0.719998 153.153 0.719998H153.873H158.953H163.233H166.633H170.913H171.633C171.74 0.719998 171.793 0.759999 171.793 0.839999C171.82 0.893332 171.78 0.946665 171.673 1C171.033 1.50667 170.593 2.53333 170.353 4.08L170.073 5.8L169.993 6.52C169.967 6.62667 169.913 6.69333 169.833 6.72C169.78 6.74667 169.727 6.72 169.673 6.64C169.273 6.08 168.273 5.8 166.673 5.8H164.113L163.633 8.88L162.793 14.28L161.753 20.8L161.433 22.76C161.193 24.3333 161.3 25.36 161.753 25.84C161.913 26.0533 161.873 26.16 161.633 26.16H155.073C154.967 26.16 154.9 26.1333 154.873 26.08C154.847 26 154.887 25.92 154.993 25.84C155.633 25.36 156.073 24.3333 156.313 22.76L158.713 7.64H157.753C156.18 7.64 155.113 7.92 154.553 8.48C154.447 8.56 154.353 8.6 154.273 8.6C154.22 8.57333 154.207 8.49333 154.233 8.36L154.353 7.64L154.513 6.72C155.047 6.50667 155.82 6.4 156.833 6.4H158.913L158.993 5.8H156.433C154.833 5.8 153.753 6.08 153.193 6.64C153.113 6.72 153.047 6.74667 152.993 6.72C152.94 6.69333 152.927 6.62667 152.953 6.52L153.033 5.8L153.313 4.08ZM194.124 2.56C194.231 2.56 194.284 2.6 194.284 2.68C194.311 2.73333 194.271 2.78667 194.164 2.84C193.524 3.34667 193.084 4.38667 192.844 5.96L192.564 7.64L192.284 9.36C192.151 10.2933 191.871 11.1867 191.444 12.04C191.044 12.8667 190.524 13.64 189.884 14.36C189.244 15.08 188.511 15.7067 187.684 16.24C186.884 16.7733 186.018 17.1733 185.084 17.44L184.284 22.68L183.964 24.6C183.724 26.2 183.844 27.24 184.324 27.72C184.378 27.7733 184.391 27.84 184.364 27.92C184.338 27.9733 184.271 28 184.164 28H177.644C177.511 28 177.431 27.9733 177.404 27.92C177.404 27.84 177.458 27.7733 177.564 27.72C177.858 27.48 178.084 27.16 178.244 26.76H183.204C183.311 26.76 183.378 26.7333 183.404 26.68C183.458 26.6 183.458 26.52 183.404 26.44C182.924 26.04 182.804 25.0133 183.044 23.36L183.324 21.44L184.164 16.2C185.098 15.9333 185.964 15.5333 186.764 15C187.591 14.4667 188.311 13.84 188.924 13.12C189.564 12.4 190.098 11.6133 190.524 10.76C190.951 9.90667 191.231 9.01333 191.364 8.08L191.644 6.4L191.924 4.68C191.978 4.22667 192.058 3.84 192.164 3.52C192.271 3.17333 192.391 2.85333 192.524 2.56H194.124ZM183.004 25.84C183.164 26.0533 183.111 26.16 182.844 26.16H176.284C176.178 26.16 176.111 26.1333 176.084 26.08C176.084 26 176.124 25.92 176.204 25.84C176.844 25.3867 177.284 24.36 177.524 22.76L178.484 16.72C178.004 16.4267 177.578 16.08 177.204 15.68C176.831 15.28 176.498 14.84 176.204 14.36C176.551 14.7333 176.911 15.0533 177.284 15.32C177.684 15.5867 178.124 15.8133 178.604 16L178.684 15.56C177.831 15.2933 177.084 14.8933 176.444 14.36C175.804 13.8267 175.284 13.2133 174.884 12.52C174.484 11.8 174.204 11.0133 174.044 10.16C173.884 9.30667 173.884 8.41333 174.044 7.48L174.284 5.8L174.564 4.08C174.831 2.50667 174.711 1.48 174.204 1C174.071 0.813332 174.138 0.719998 174.404 0.719998H180.924C181.191 0.719998 181.204 0.813332 180.964 1C180.351 1.48 179.911 2.50667 179.644 4.08L179.364 5.8L179.124 7.48C179.044 7.96 179.058 8.41333 179.164 8.84C179.298 9.24 179.498 9.58667 179.764 9.88C179.498 9.37333 179.404 8.77333 179.484 8.08L179.764 6.4L180.044 4.68C180.098 4.22667 180.178 3.84 180.284 3.52C180.391 3.17333 180.511 2.85333 180.644 2.56H182.244C182.351 2.56 182.404 2.6 182.404 2.68C182.431 2.73333 182.404 2.78667 182.324 2.84C181.684 3.29333 181.244 4.33333 181.004 5.96L180.724 7.64L180.444 9.36C180.418 9.57333 180.391 9.77333 180.364 9.96C180.364 10.12 180.391 10.2933 180.444 10.48C180.924 10.7467 181.431 10.88 181.964 10.88C182.444 10.88 182.898 10.8 183.324 10.64C183.778 10.4533 184.178 10.2133 184.524 9.92C184.898 9.6 185.204 9.24 185.444 8.84C185.684 8.41333 185.844 7.96 185.924 7.48L186.164 5.8L186.444 4.08C186.711 2.50667 186.591 1.48 186.084 1C185.951 0.813332 186.018 0.719998 186.284 0.719998H192.844C192.924 0.719998 192.964 0.746665 192.964 0.8C192.991 0.853332 192.951 0.919999 192.844 1C192.231 1.48 191.791 2.50667 191.524 4.08L191.244 5.8L191.004 7.48C190.844 8.41333 190.551 9.30667 190.124 10.16C189.724 11.0133 189.204 11.8 188.564 12.52C187.924 13.2133 187.191 13.8267 186.364 14.36C185.564 14.8933 184.711 15.2933 183.804 15.56L182.964 20.8L182.644 22.76C182.404 24.3333 182.524 25.36 183.004 25.84Z" fill="white"/>
</svg>
