<svg width="832" height="137" viewBox="0 0 832 137" fill="none" xmlns="http://www.w3.org/2000/svg">
<path d="M128.2 135.6C128.6 135.867 128.733 136.2 128.6 136.6C128.467 136.867 128.133 137 127.6 137H94.8C94.2667 137 93.9333 136.867 93.8 136.6C93.8 136.2 93.9333 135.867 94.2 135.6C95.6667 134.133 96.6667 132.533 97.2 130.8H122C122.533 130.8 122.867 130.667 123 130.4C123.133 130 122.933 129.6 122.4 129.2C119.6 126.8 118.2 121.667 118.2 113.8V105.4V71.4V44.4V37.4V29V20.4C118.2 18.1333 118.333 16.1333 118.6 14.4C118.867 12.6667 119.2 11.1333 119.6 9.79999H127.6C128.133 9.79999 128.467 9.99999 128.6 10.4C128.733 10.6667 128.6 10.9333 128.2 11.2C125.4 13.6 124 18.8 124 26.8V35.2V43.8V50.6V77.6V111.6V120C124 128 125.4 133.2 128.2 135.6ZM86.2 1.79999C85.8 1.53333 85.6667 1.26666 85.8 0.999999C85.9333 0.599996 86.2667 0.399994 86.8 0.399994H107.4H119.6C120 0.399994 120.267 0.599996 120.4 0.999999C120.533 1.26666 120.4 1.53333 120 1.79999C117.333 4.06666 116 9.26666 116 17.4V25.8V34.4V41.4V68.4V102.2V110.6C116 118.733 117.333 123.933 120 126.2C120.4 126.467 120.533 126.8 120.4 127.2C120.267 127.467 120 127.6 119.6 127.6H86.8C86.2667 127.6 85.9333 127.467 85.8 127.2C85.6667 126.8 85.8 126.467 86.2 126.2C89 123.8 90.4 118.6 90.4 110.6V106.6L83.8 122.8C81.4 128.533 80.9333 132.867 82.4 135.8C82.5333 136.6 82.2667 137 81.6 137H56.2C55.2667 137 55 136.6 55.4 135.8C56.0667 134.2 56.3333 132.533 56.2 130.8H76C76.8 130.8 77 130.4 76.6 129.6C75.2667 126.8 75.8 122.467 78.2 116.6L90.4 86.8V77.8L75.8 113.6C73.5333 119.2 73 123.467 74.2 126.4C74.6 127.2 74.3333 127.6 73.4 127.6H48.2C47.2667 127.6 47 127.2 47.4 126.4C48.8667 123.6 48.4 119.333 46 113.6L39 96.8V115V115.2V120C39 127.867 40.4 133.067 43.2 135.6C43.6 135.867 43.7333 136.2 43.6 136.6C43.6 136.867 43.3333 137 42.8 137H10C9.46667 137 9.13333 136.867 9 136.6C9 136.2 9.13333 135.867 9.4 135.6C10.0667 134.933 10.6 134.267 11 133.6C11.5333 132.8 12 131.867 12.4 130.8H37.2C38.5333 130.8 38.6667 130.267 37.6 129.2C34.8 127.067 33.4 121.933 33.4 113.8V109V108.8V83.2L31 77.4V105.6V106V110.6C31 118.6 32.4 123.8 35.2 126.2C35.6 126.467 35.7333 126.8 35.6 127.2C35.4667 127.467 35.1333 127.6 34.6 127.6H2C1.46667 127.6 1.13333 127.467 1 127.2C0.866667 126.8 1 126.467 1.4 126.2C4.2 123.8 5.6 118.6 5.6 110.6V17.4C5.6 9.39999 4.2 4.19999 1.4 1.79999C1 1.53333 0.866667 1.26666 1 0.999999C1.13333 0.599996 1.46667 0.399994 2 0.399994H22.6H34.6C35.1333 0.399994 35.4667 0.599996 35.6 0.999999C35.7333 1.26666 35.6 1.53333 35.2 1.79999C33.7333 2.99999 32.6 5.19999 31.8 8.4C31.4 9.99999 31.5333 11.7333 32.2 13.6L60.8 82.6L61.4 81.2L34.8 16.6C34 14.8667 33.8 13.2 34.2 11.6C34.3333 11.2 34.4 10.8667 34.4 10.6C34.5333 10.3333 34.6667 10.0667 34.8 9.79999H42.8C43.3333 9.79999 43.6 9.99999 43.6 10.4C43.7333 10.6667 43.6 10.9333 43.2 11.2C41.6 12.8 40.5333 15 40 17.8C39.4667 19.5333 39.6 21.2 40.4 22.8L62.8 77.4L89.2 13.6C89.8667 11.7333 90 9.99999 89.6 8.4C89.0667 5.46666 87.9333 3.26666 86.2 1.79999ZM17.6 117.6C18.2667 117.6 18.8 117.4 19.2 117C19.7333 116.467 20 115.867 20 115.2C20 114.533 19.7333 114 19.2 113.6C18.8 113.2 18.2667 113 17.6 113C16.9333 113 16.3333 113.2 15.8 113.6C15.4 114 15.2 114.533 15.2 115.2C15.2 115.867 15.4 116.467 15.8 117C16.3333 117.4 16.9333 117.6 17.6 117.6ZM17.6 99.8C18.2667 99.8 18.8 99.6 19.2 99.2C19.7333 98.8 20 98.2667 20 97.6C20 96.9333 19.7333 96.4 19.2 96C18.8 95.4667 18.2667 95.2 17.6 95.2C16.9333 95.2 16.3333 95.4667 15.8 96C15.4 96.4 15.2 96.9333 15.2 97.6C15.2 98.2667 15.4 98.8 15.8 99.2C16.3333 99.6 16.9333 99.8 17.6 99.8ZM17.6 82.8C18.2667 82.8 18.8 82.6 19.2 82.2C19.7333 81.6667 20 81.0667 20 80.4C20 79.7333 19.7333 79.2 19.2 78.8C18.8 78.4 18.2667 78.2 17.6 78.2C16.9333 78.2 16.3333 78.4 15.8 78.8C15.4 79.2 15.2 79.7333 15.2 80.4C15.2 81.0667 15.4 81.6667 15.8 82.2C16.3333 82.6 16.9333 82.8 17.6 82.8ZM17.6 65.6C18.2667 65.6 18.8 65.4 19.2 65C19.7333 64.4667 20 63.8667 20 63.2C20 62.5333 19.7333 62 19.2 61.6C18.8 61.2 18.2667 61 17.6 61C16.9333 61 16.3333 61.2 15.8 61.6C15.4 62 15.2 62.5333 15.2 63.2C15.2 63.8667 15.4 64.4667 15.8 65C16.3333 65.4 16.9333 65.6 17.6 65.6ZM17.8 48C19.2667 48 20 47.2667 20 45.8C20 44.3333 19.2667 43.6 17.8 43.6C16.2 43.6 15.4 44.3333 15.4 45.8C15.4 47.2667 16.2 48 17.8 48ZM15.2 28.6C15.2 29.2667 15.4 29.8667 15.8 30.4C16.3333 30.8 16.9333 31 17.6 31C18.2667 31 18.8 30.8 19.2 30.4C19.7333 29.8667 20 29.2667 20 28.6C20 27.9333 19.7333 27.4 19.2 27C18.8 26.6 18.2667 26.4 17.6 26.4C16.9333 26.4 16.3333 26.6 15.8 27C15.4 27.4 15.2 27.9333 15.2 28.6ZM17.8 13.8C18.4667 13.8 19 13.6 19.4 13.2C19.8 12.6667 20 12.0667 20 11.4C20 10.7333 19.8 10.2 19.4 9.79999C19 9.26666 18.4667 8.99999 17.8 8.99999C17.1333 8.99999 16.5333 9.26666 16 9.79999C15.6 10.2 15.4 10.7333 15.4 11.4C15.4 12.0667 15.6 12.6667 16 13.2C16.5333 13.6 17.1333 13.8 17.8 13.8ZM27.6 36C29.2 36 30 35.2 30 33.6C30 32.9333 29.7333 32.4 29.2 32C28.8 31.4667 28.2667 31.2 27.6 31.2C26.9333 31.2 26.4 31.4667 26 32C25.6 32.4 25.4 32.9333 25.4 33.6C25.4 35.2 26.1333 36 27.6 36ZM33 52C33.6667 52 34.2 51.8 34.6 51.4C35.1333 51 35.4 50.4667 35.4 49.8C35.4 49.1333 35.1333 48.6 34.6 48.2C34.2 47.6667 33.6667 47.4 33 47.4C31.4 47.4 30.6 48.2 30.6 49.8C30.6 51.2667 31.4 52 33 52ZM38.8 67.8C40.4 67.8 41.2 67 41.2 65.4C41.2 63.9333 40.4 63.2 38.8 63.2C37.3333 63.2 36.6 63.9333 36.6 65.4C36.6 67 37.3333 67.8 38.8 67.8ZM46 83.6C47.4667 83.6 48.2 82.8667 48.2 81.4C48.2 79.8 47.4667 79 46 79C44.4 79 43.6 79.8 43.6 81.4C43.6 82.8667 44.4 83.6 46 83.6ZM53 99.2C54.4667 99.2 55.2 98.4667 55.2 97C55.2 95.4 54.4667 94.6 53 94.6C51.4 94.6 50.6 95.4 50.6 97C50.6 98.4667 51.4 99.2 53 99.2ZM60 115.2C61.6 115.2 62.4 114.467 62.4 113C62.4 112.333 62.1333 111.8 61.6 111.4C61.2 110.867 60.6667 110.6 60 110.6C59.3333 110.6 58.8 110.867 58.4 111.4C58 111.8 57.8 112.333 57.8 113C57.8 114.467 58.5333 115.2 60 115.2ZM67.8 99C69.2667 99 70 98.2667 70 96.8C70 95.2 69.2667 94.4 67.8 94.4C66.3333 94.4 65.6 95.2 65.6 96.8C65.6 98.2667 66.3333 99 67.8 99ZM74.6 83.6C75.2667 83.6 75.8 83.4 76.2 83C76.6 82.4667 76.8 81.8667 76.8 81.2C76.8 80.5333 76.6 80 76.2 79.6C75.8 79.0667 75.2667 78.8 74.6 78.8C73.9333 78.8 73.4 79.0667 73 79.6C72.6 80 72.4 80.5333 72.4 81.2C72.4 81.8667 72.6 82.4667 73 83C73.4 83.4 73.9333 83.6 74.6 83.6ZM81.4 67.6C82.0667 67.6 82.6 67.4 83 67C83.5333 66.6 83.8 66.0667 83.8 65.4C83.8 64.7333 83.5333 64.2 83 63.8C82.6 63.2667 82.0667 63 81.4 63C79.9333 63 79.2 63.8 79.2 65.4C79.2 66.8667 79.9333 67.6 81.4 67.6ZM104.2 9.19999C103.533 9.19999 102.933 9.39999 102.4 9.79999C102 10.2 101.8 10.7333 101.8 11.4C101.8 12.0667 102 12.6667 102.4 13.2C102.933 13.6 103.533 13.8 104.2 13.8C104.867 13.8 105.4 13.6 105.8 13.2C106.333 12.6667 106.6 12.0667 106.6 11.4C106.6 10.7333 106.333 10.2 105.8 9.79999C105.4 9.39999 104.867 9.19999 104.2 9.19999ZM104 26.4C102.533 26.4 101.8 27.2 101.8 28.8C101.8 29.4667 102 30.0667 102.4 30.6C102.8 31 103.333 31.2 104 31.2C104.667 31.2 105.2 31 105.6 30.6C106.133 30.0667 106.4 29.4667 106.4 28.8C106.4 28.1333 106.133 27.6 105.6 27.2C105.2 26.6667 104.667 26.4 104 26.4ZM106.6 46C106.6 45.3333 106.333 44.8 105.8 44.4C105.4 43.8667 104.867 43.6 104.2 43.6C103.533 43.6 102.933 43.8667 102.4 44.4C102 44.8 101.8 45.3333 101.8 46C101.8 46.6667 102 47.2 102.4 47.6C102.933 48 103.533 48.2 104.2 48.2C104.867 48.2 105.4 48 105.8 47.6C106.333 47.2 106.6 46.6667 106.6 46ZM104 61C102.533 61 101.8 61.7333 101.8 63.2C101.8 64.8 102.533 65.6 104 65.6C104.667 65.6 105.2 65.4 105.6 65C106.133 64.4667 106.4 63.8667 106.4 63.2C106.4 62.5333 106.133 62 105.6 61.6C105.2 61.2 104.667 61 104 61ZM104 78.2C103.333 78.2 102.8 78.4667 102.4 79C102 79.4 101.8 79.9333 101.8 80.6C101.8 81.2667 102 81.8667 102.4 82.4C102.8 82.8 103.333 83 104 83C104.667 83 105.2 82.8 105.6 82.4C106.133 81.8667 106.4 81.2667 106.4 80.6C106.4 79.9333 106.133 79.4 105.6 79C105.2 78.4667 104.667 78.2 104 78.2ZM104 95.2C103.333 95.2 102.8 95.4667 102.4 96C102 96.4 101.8 96.9333 101.8 97.6C101.8 98.2667 102 98.8667 102.4 99.4C102.8 99.8 103.333 100 104 100C104.667 100 105.2 99.8 105.6 99.4C106.133 98.8667 106.4 98.2667 106.4 97.6C106.4 96.9333 106.133 96.4 105.6 96C105.2 95.4667 104.667 95.2 104 95.2ZM104 113C102.533 113 101.8 113.8 101.8 115.4C101.8 116.867 102.533 117.6 104 117.6C104.667 117.6 105.2 117.4 105.6 117C106.133 116.6 106.4 116.067 106.4 115.4C106.4 114.733 106.133 114.2 105.6 113.8C105.2 113.267 104.667 113 104 113ZM95.2 31C93.6 31 92.8 31.7333 92.8 33.2C92.8 34.8 93.6 35.6 95.2 35.6C96.6667 35.6 97.4 34.8 97.4 33.2C97.4 31.7333 96.6667 31 95.2 31ZM90.6 48.4C90.6 46.9333 89.8667 46.2 88.4 46.2C87.7333 46.2 87.1333 46.4 86.6 46.8C86.2 47.2 86 47.7333 86 48.4C86 49.0667 86.2 49.6667 86.6 50.2C87.1333 50.6 87.7333 50.8 88.4 50.8C89.8667 50.8 90.6 50 90.6 48.4ZM237.008 12.4C237.541 12.4 237.808 12.6 237.808 13C237.941 13.2667 237.874 13.5333 237.608 13.8C234.808 16.2 233.408 21.2667 233.408 29V37.4V41C233.408 41.4 233.208 41.6667 232.808 41.8C232.541 41.9333 232.274 41.8 232.008 41.4C229.741 38.7333 224.674 37.4 216.808 37.4H175.408V45.6V53.2H192.408C200.141 53.2 205.208 51.8 207.608 49C207.874 48.7333 208.141 48.6667 208.408 48.8C208.808 48.8 209.008 49.0667 209.008 49.6V53.2V61.6V78.2V81.6C209.008 82.1333 208.808 82.4667 208.408 82.6C208.141 82.7333 207.874 82.6 207.608 82.2C205.341 79.5333 200.274 78.2 192.408 78.2H167.408V86.4V103H169.808V89.4V81H194.608C202.341 81 207.408 82.4 209.808 85.2C210.074 85.6 210.408 85.7333 210.808 85.6C211.208 85.4667 211.408 85.1333 211.408 84.6V81V64.4V60.8C213.141 60 214.474 59.1333 215.408 58.2C215.674 57.8 215.941 57.6667 216.208 57.8C216.608 57.9333 216.808 58.2667 216.808 58.8V62.2V70.6V87.2V90.8C216.808 91.3333 216.608 91.6667 216.208 91.8C215.941 91.8 215.674 91.6667 215.408 91.4C213.008 88.6 207.941 87.2 200.208 87.2H175.408V95.6V103H209.008C216.741 103 221.808 101.667 224.208 99C224.474 98.6 224.741 98.4667 225.008 98.6C225.408 98.6 225.608 98.8667 225.608 99.4V103V111.4C225.608 119.267 226.941 124.333 229.608 126.6C230.008 126.867 230.141 127.2 230.008 127.6C230.008 127.867 229.741 128 229.208 128H138.808C138.408 128 138.141 127.867 138.008 127.6C137.874 127.2 138.008 126.867 138.408 126.6C141.074 124.2 142.408 119.133 142.408 111.4V103V20C142.408 8.93333 139.674 3.39999 134.208 3.39999H229.208C229.741 3.39999 230.008 3.59999 230.008 4C230.141 4.26666 230.008 4.53333 229.608 4.8C226.941 7.06666 225.608 12.1333 225.608 20V28.2V31.8C225.608 32.3333 225.408 32.6667 225.008 32.8C224.741 32.9333 224.474 32.8 224.208 32.4C221.808 29.6 216.741 28.2 209.008 28.2H167.408V36.6V53.2H169.808V39.6V31.2H211.408C219.141 31.2 224.141 32.6 226.408 35.4C226.674 35.6667 227.008 35.8 227.408 35.8C227.808 35.6667 228.008 35.3333 228.008 34.8V31.2V22.8C228.008 18.5333 228.408 15.0667 229.208 12.4H237.008ZM215.808 13C215.141 13 214.541 13.2667 214.008 13.8C213.608 14.2 213.408 14.7333 213.408 15.4C213.408 16.0667 213.608 16.6 214.008 17C214.541 17.4 215.141 17.6 215.808 17.6C217.274 17.6 218.008 16.8667 218.008 15.4C218.008 14.7333 217.808 14.2 217.408 13.8C217.008 13.2667 216.474 13 215.808 13ZM200.808 13C200.141 13 199.608 13.2667 199.208 13.8C198.808 14.2 198.608 14.7333 198.608 15.4C198.608 16.8667 199.341 17.6 200.808 17.6C201.474 17.6 202.008 17.4 202.408 17C202.941 16.6 203.208 16.0667 203.208 15.4C203.208 14.7333 202.941 14.2 202.408 13.8C202.008 13.2667 201.474 13 200.808 13ZM185.608 13C184.941 13 184.341 13.2667 183.808 13.8C183.408 14.2 183.208 14.7333 183.208 15.4C183.208 16.8667 184.008 17.6 185.608 17.6C187.074 17.6 187.808 16.8667 187.808 15.4C187.808 14.7333 187.608 14.2 187.208 13.8C186.808 13.2667 186.274 13 185.608 13ZM170.008 13C169.341 13 168.741 13.2667 168.208 13.8C167.808 14.2 167.608 14.7333 167.608 15.4C167.608 16.8667 168.408 17.6 170.008 17.6C171.474 17.6 172.208 16.8667 172.208 15.4C172.208 14.7333 172.008 14.2 171.608 13.8C171.208 13.2667 170.674 13 170.008 13ZM215.808 114.8C214.341 114.8 213.608 115.6 213.608 117.2C213.608 118.667 214.341 119.4 215.808 119.4C216.474 119.4 217.008 119.2 217.408 118.8C217.941 118.4 218.208 117.867 218.208 117.2C218.208 116.533 217.941 116 217.408 115.6C217.008 115.067 216.474 114.8 215.808 114.8ZM199.808 114.8C198.341 114.8 197.608 115.6 197.608 117.2C197.608 118.667 198.341 119.4 199.808 119.4C201.274 119.4 202.008 118.667 202.008 117.2C202.008 115.6 201.274 114.8 199.808 114.8ZM184.408 114.8C182.941 114.8 182.208 115.6 182.208 117.2C182.208 118.667 182.941 119.4 184.408 119.4C186.008 119.4 186.808 118.667 186.808 117.2C186.808 115.6 186.008 114.8 184.408 114.8ZM200.008 63.8C199.341 63.8 198.741 64.0667 198.208 64.6C197.808 65 197.608 65.5333 197.608 66.2C197.608 67.6667 198.408 68.4 200.008 68.4C201.474 68.4 202.208 67.6667 202.208 66.2C202.208 65.5333 202.008 65 201.608 64.6C201.208 64.0667 200.674 63.8 200.008 63.8ZM184.608 63.8C183.941 63.8 183.408 64.0667 183.008 64.6C182.608 65 182.408 65.5333 182.408 66.2C182.408 67.6667 183.141 68.4 184.608 68.4C186.074 68.4 186.808 67.6667 186.808 66.2C186.808 65.5333 186.608 65 186.208 64.6C185.808 64.0667 185.274 63.8 184.608 63.8ZM154.208 119.4C155.674 119.4 156.408 118.667 156.408 117.2C156.408 115.6 155.674 114.8 154.208 114.8C152.608 114.8 151.808 115.6 151.808 117.2C151.808 118.667 152.608 119.4 154.208 119.4ZM154.208 102C155.674 102 156.408 101.267 156.408 99.8C156.408 98.3333 155.674 97.6 154.208 97.6C152.608 97.6 151.808 98.3333 151.808 99.8C151.808 101.267 152.608 102 154.208 102ZM154.208 85.4C155.674 85.4 156.408 84.6 156.408 83C156.408 81.5333 155.674 80.8 154.208 80.8C152.608 80.8 151.808 81.5333 151.808 83C151.808 84.6 152.608 85.4 154.208 85.4ZM154.208 68.4C155.674 68.4 156.408 67.6667 156.408 66.2C156.408 65.5333 156.208 65 155.808 64.6C155.408 64.0667 154.874 63.8 154.208 63.8C153.541 63.8 152.941 64.0667 152.408 64.6C152.008 65 151.808 65.5333 151.808 66.2C151.808 67.6667 152.608 68.4 154.208 68.4ZM154.208 51.4C154.874 51.4 155.408 51.2 155.808 50.8C156.341 50.2667 156.608 49.6667 156.608 49C156.608 48.3333 156.341 47.8 155.808 47.4C155.408 47 154.874 46.8 154.208 46.8C152.741 46.8 152.008 47.5333 152.008 49C152.008 50.6 152.741 51.4 154.208 51.4ZM151.808 32.2C151.808 33.8 152.608 34.6 154.208 34.6C155.674 34.6 156.408 33.8 156.408 32.2C156.408 30.7333 155.674 30 154.208 30C152.608 30 151.808 30.7333 151.808 32.2ZM154.208 17.6C154.874 17.6 155.408 17.4 155.808 17C156.341 16.6 156.608 16.0667 156.608 15.4C156.608 14.7333 156.341 14.2 155.808 13.8C155.408 13.2667 154.874 13 154.208 13C153.541 13 153.008 13.2667 152.608 13.8C152.208 14.2 152.008 14.7333 152.008 15.4C152.008 16.8667 152.741 17.6 154.208 17.6ZM169.408 114.8C167.941 114.8 167.208 115.6 167.208 117.2C167.208 118.667 167.941 119.4 169.408 119.4C170.074 119.4 170.608 119.2 171.008 118.8C171.541 118.4 171.808 117.867 171.808 117.2C171.808 116.533 171.541 116 171.008 115.6C170.608 115.067 170.074 114.8 169.408 114.8ZM169.608 68.4C171.074 68.4 171.808 67.6667 171.808 66.2C171.808 65.5333 171.608 65 171.208 64.6C170.808 64.0667 170.274 63.8 169.608 63.8C168.941 63.8 168.341 64.0667 167.808 64.6C167.408 65 167.208 65.5333 167.208 66.2C167.208 67.6667 168.008 68.4 169.608 68.4ZM233.408 120.4C233.408 128.4 234.808 133.467 237.608 135.6C237.874 135.867 237.941 136.2 237.808 136.6C237.808 136.867 237.541 137 237.008 137H146.808C146.274 137 145.941 136.867 145.808 136.6C145.808 136.2 145.941 135.867 146.208 135.6C147.408 134.533 148.341 133 149.008 131H231.608C232.008 131 232.274 130.867 232.408 130.6C232.541 130.2 232.474 129.867 232.208 129.6C229.408 127.2 228.008 122.133 228.008 114.4V110.6C228.941 110.333 229.674 110 230.208 109.6C230.874 109.067 231.474 108.533 232.008 108C232.274 107.6 232.541 107.467 232.808 107.6C233.208 107.733 233.408 108.067 233.408 108.6V112.2V120.4ZM335.75 20.4C335.75 16 336.217 12.4667 337.15 9.79999H341.35H345.15C345.55 9.79999 345.817 9.99999 345.95 10.4C346.083 10.6667 345.95 10.9333 345.55 11.2C342.75 13.6 341.35 18.8 341.35 26.8V35.2V38.8C341.35 39.4667 341.15 39.8667 340.75 40C340.483 40 340.15 39.8 339.75 39.4C337.483 36.6 332.35 35.2 324.35 35.2H311.55V50.8V77.8V110.4V120C311.55 128 312.95 133.2 315.75 135.6C316.15 135.867 316.283 136.2 316.15 136.6C316.017 136.867 315.683 137 315.15 137H282.35C281.817 137 281.483 136.867 281.35 136.6C281.35 136.2 281.55 135.867 281.95 135.6C283.15 134.533 284.083 132.933 284.75 130.8H309.55C310.083 130.8 310.417 130.667 310.55 130.4C310.683 130 310.55 129.6 310.15 129.2C307.217 126.933 305.75 121.8 305.75 113.8V104.2V71.4V44.4V29H318.75C326.75 29 331.883 30.4 334.15 33.2C334.55 33.6 334.883 33.7333 335.15 33.6C335.55 33.4667 335.75 33.1333 335.75 32.6V29V20.4ZM248.15 17.4C248.15 9.53333 246.75 4.4 243.95 2C243.55 1.73333 243.417 1.46666 243.55 1.2C243.683 0.799993 244.017 0.599992 244.55 0.599992H248.15H273.55H294.95H311.95H333.35H336.95C337.483 0.599992 337.817 0.799993 337.95 1.2C338.083 1.46666 337.95 1.73333 337.55 2C334.75 4.4 333.35 9.53333 333.35 17.4V26V29.6C333.35 30.1333 333.15 30.4667 332.75 30.6C332.483 30.7333 332.217 30.6 331.95 30.2C329.55 27.4 324.35 26 316.35 26H303.55V41.4V68.4V101V110.8C303.55 118.667 304.883 123.8 307.55 126.2C308.617 127.267 308.483 127.8 307.15 127.8H274.35C273.817 127.8 273.483 127.667 273.35 127.4C273.217 127 273.35 126.6 273.75 126.2C276.55 123.8 277.95 118.667 277.95 110.8V35.2H273.15C265.283 35.2 260.15 36.6 257.75 39.4C257.35 39.8 256.95 40 256.55 40C256.283 39.8667 256.15 39.4667 256.15 38.8V35.2V30.6C258.683 29.5333 262.483 29 267.55 29H277.95V26H265.15C257.15 26 251.95 27.4 249.55 30.2C249.283 30.6 248.95 30.7333 248.55 30.6C248.283 30.4667 248.15 30.1333 248.15 29.6V26V17.4ZM323.55 9.4C322.883 9.4 322.283 9.66666 321.75 10.2C321.35 10.6 321.15 11.1333 321.15 11.8C321.15 12.4667 321.35 13 321.75 13.4C322.283 13.8 322.883 14 323.55 14C324.217 14 324.75 13.8 325.15 13.4C325.683 13 325.95 12.4667 325.95 11.8C325.95 11.1333 325.683 10.6 325.15 10.2C324.75 9.66666 324.217 9.4 323.55 9.4ZM307.35 9.4C305.75 9.4 304.95 10.2 304.95 11.8C304.95 13.2667 305.75 14 307.35 14C308.817 14 309.55 13.2667 309.55 11.8C309.55 10.2 308.817 9.4 307.35 9.4ZM290.95 9.4C289.483 9.4 288.75 10.2 288.75 11.8C288.75 13.2667 289.483 14 290.95 14C292.55 14 293.35 13.2667 293.35 11.8C293.35 10.2 292.55 9.4 290.95 9.4ZM290.75 26.6C289.283 26.6 288.55 27.4 288.55 29C288.55 29.6667 288.75 30.2667 289.15 30.8C289.55 31.2 290.083 31.4 290.75 31.4C291.417 31.4 291.95 31.2 292.35 30.8C292.883 30.2667 293.15 29.6667 293.15 29C293.15 27.4 292.35 26.6 290.75 26.6ZM293.35 46.2C293.35 44.6 292.55 43.8 290.95 43.8C289.483 43.8 288.75 44.6 288.75 46.2C288.75 47.6667 289.483 48.4 290.95 48.4C292.55 48.4 293.35 47.6667 293.35 46.2ZM290.75 61.2C289.283 61.2 288.55 62 288.55 63.6C288.55 65.0667 289.283 65.8 290.75 65.8C292.35 65.8 293.15 65.0667 293.15 63.6C293.15 62 292.35 61.2 290.75 61.2ZM290.75 78.4C290.083 78.4 289.55 78.6667 289.15 79.2C288.75 79.6 288.55 80.1333 288.55 80.8C288.55 81.4667 288.75 82.0667 289.15 82.6C289.55 83 290.083 83.2 290.75 83.2C291.417 83.2 291.95 83 292.35 82.6C292.883 82.0667 293.15 81.4667 293.15 80.8C293.15 80.1333 292.883 79.6 292.35 79.2C291.95 78.6667 291.417 78.4 290.75 78.4ZM290.75 95.6C289.283 95.6 288.55 96.3333 288.55 97.8C288.55 98.4667 288.75 99.0667 289.15 99.6C289.55 100 290.083 100.2 290.75 100.2C291.417 100.2 291.95 100 292.35 99.6C292.883 99.0667 293.15 98.4667 293.15 97.8C293.15 96.3333 292.35 95.6 290.75 95.6ZM290.75 113.2C289.283 113.2 288.55 114 288.55 115.6C288.55 117.067 289.283 117.8 290.75 117.8C292.35 117.8 293.15 117.067 293.15 115.6C293.15 114 292.35 113.2 290.75 113.2ZM274.55 9.4C273.083 9.4 272.35 10.2 272.35 11.8C272.35 13.2667 273.083 14 274.55 14C276.15 14 276.95 13.2667 276.95 11.8C276.95 10.2 276.15 9.4 274.55 9.4ZM258.35 9.4C256.75 9.4 255.95 10.2 255.95 11.8C255.95 13.2667 256.75 14 258.35 14C259.817 14 260.55 13.2667 260.55 11.8C260.55 10.2 259.817 9.4 258.35 9.4ZM426.405 20.6C426.005 18.3333 425.671 16.3333 425.405 14.6C425.271 12.7333 425.338 11.0667 425.605 9.6H432.605C433.138 9.6 433.471 9.8 433.605 10.2C433.738 10.6 433.605 10.9333 433.205 11.2C430.805 13.6 430.405 18.8 432.005 26.8L441.805 49.4C445.938 59 448.005 69.0667 448.005 79.6V94.6V120C448.005 128 449.338 133.133 452.005 135.4C453.071 136.467 452.938 137 451.605 137H418.805C418.271 137 417.938 136.867 417.805 136.6C417.671 136.2 417.805 135.8 418.205 135.4C418.871 134.867 419.405 134.267 419.805 133.6C420.338 132.8 420.805 131.867 421.205 130.8H446.005C446.538 130.8 446.805 130.6 446.805 130.2C446.938 129.8 446.805 129.467 446.405 129.2C443.605 126.8 442.205 121.667 442.205 113.8V88.2V73.2C442.205 67.8667 441.738 62.8 440.805 58C439.871 53.0667 438.338 48.1333 436.205 43.2L426.405 20.6ZM410.205 126.2C413.005 123.8 414.405 118.667 414.405 110.8V103H388.405V120C388.405 127.867 389.805 133 392.605 135.4C393.138 135.8 393.338 136.2 393.205 136.6C393.071 136.867 392.738 137 392.205 137H359.405C358.205 137 358.005 136.467 358.805 135.4C360.005 134.467 361.005 132.933 361.805 130.8H386.605C387.138 130.8 387.405 130.6 387.405 130.2C387.538 129.8 387.405 129.467 387.005 129.2C384.205 126.667 382.805 121.533 382.805 113.8V96.8H414.405V93.8H380.405V110.8C380.405 118.667 381.805 123.8 384.605 126.2C385.005 126.467 385.138 126.8 385.005 127.2C384.871 127.467 384.605 127.6 384.205 127.6H351.405C350.871 127.6 350.538 127.467 350.405 127.2C350.271 126.8 350.405 126.467 350.805 126.2C353.605 123.8 355.005 118.667 355.005 110.8V85.2V70.2C355.005 59.8 357.071 49.8 361.205 40.2L370.805 17.6C372.405 9.46666 372.005 4.19999 369.605 1.79999C369.338 1.53333 369.271 1.26666 369.405 0.999999C369.538 0.599996 369.805 0.399994 370.205 0.399994H424.605C425.138 0.399994 425.405 0.599996 425.405 0.999999C425.538 1.26666 425.471 1.53333 425.205 1.79999C422.805 4.19999 422.405 9.46666 424.005 17.6L433.605 40.2C437.738 49.8 439.805 59.8 439.805 70.2V85.2V110.8C439.805 118.667 441.205 123.8 444.005 126.2C444.405 126.467 444.538 126.8 444.405 127.2C444.405 127.467 444.071 127.6 443.405 127.6H410.805C410.271 127.6 409.938 127.467 409.805 127.2C409.671 126.8 409.805 126.467 410.205 126.2ZM422.605 79.4C422.605 80.0667 422.805 80.6667 423.205 81.2C423.738 81.6 424.338 81.8 425.005 81.8C425.671 81.8 426.205 81.6 426.605 81.2C427.005 80.6667 427.205 80.0667 427.205 79.4C427.205 78.7333 427.005 78.2 426.605 77.8C426.205 77.2667 425.671 77 425.005 77C424.338 77 423.738 77.2667 423.205 77.8C422.805 78.2 422.605 78.7333 422.605 79.4ZM426.005 117C427.605 117 428.405 116.267 428.405 114.8C428.405 113.2 427.605 112.4 426.005 112.4C424.538 112.4 423.805 113.2 423.805 114.8C423.805 116.267 424.538 117 426.005 117ZM428.405 96.4C428.405 95.7333 428.138 95.2 427.605 94.8C427.205 94.2667 426.671 94 426.005 94C425.338 94 424.805 94.2667 424.405 94.8C424.005 95.2 423.805 95.7333 423.805 96.4C423.805 97.0667 424.005 97.6667 424.405 98.2C424.805 98.6 425.338 98.8 426.005 98.8C426.671 98.8 427.205 98.6 427.605 98.2C428.138 97.6667 428.405 97.0667 428.405 96.4ZM425.005 59.2C423.405 59.2 422.605 60 422.605 61.6C422.605 63.0667 423.405 63.8 425.005 63.8C426.471 63.8 427.205 63.0667 427.205 61.6C427.205 60 426.471 59.2 425.005 59.2ZM421.205 41.8C420.538 41.8 419.938 42.0667 419.405 42.6C419.005 43 418.805 43.5333 418.805 44.2C418.805 44.8667 419.005 45.4667 419.405 46C419.938 46.4 420.538 46.6 421.205 46.6C421.871 46.6 422.405 46.4 422.805 46C423.205 45.4667 423.405 44.8667 423.405 44.2C423.405 43.5333 423.205 43 422.805 42.6C422.405 42.0667 421.871 41.8 421.205 41.8ZM409.205 8.6C407.738 8.6 407.005 9.39999 407.005 11C407.005 12.4667 407.738 13.2 409.205 13.2C410.805 13.2 411.605 12.4667 411.605 11C411.605 9.39999 410.805 8.6 409.205 8.6ZM385.605 10.2C384.005 10.2 383.205 11 383.205 12.6C383.205 14.0667 384.005 14.8 385.605 14.8C386.271 14.8 386.805 14.6 387.205 14.2C387.738 13.8 388.005 13.2667 388.005 12.6C388.005 11.9333 387.738 11.4 387.205 11C386.805 10.4667 386.271 10.2 385.605 10.2ZM367.805 117.6C368.471 117.6 369.005 117.4 369.405 117C369.938 116.467 370.205 115.867 370.205 115.2C370.205 114.533 369.938 114 369.405 113.6C369.005 113.2 368.471 113 367.805 113C366.205 113 365.405 113.733 365.405 115.2C365.405 116.8 366.205 117.6 367.805 117.6ZM368.205 99.8C369.938 99.8 370.805 99.0667 370.805 97.6C370.805 96 369.938 95.2 368.205 95.2C367.538 95.2 366.938 95.4667 366.405 96C366.005 96.4 365.805 96.9333 365.805 97.6C365.805 98.2667 366.005 98.8 366.405 99.2C366.938 99.6 367.538 99.8 368.205 99.8ZM368.205 82.4C368.871 82.4 369.471 82.2 370.005 81.8C370.538 81.2667 370.805 80.6667 370.805 80C370.805 79.3333 370.538 78.8 370.005 78.4C369.471 77.8667 368.871 77.6 368.205 77.6C367.538 77.6 366.938 77.8667 366.405 78.4C366.005 78.8 365.805 79.3333 365.805 80C365.805 80.6667 366.005 81.2667 366.405 81.8C366.938 82.2 367.538 82.4 368.205 82.4ZM369.405 65C371.005 65 371.805 64.2 371.805 62.6C371.805 61.1333 371.005 60.4 369.405 60.4C368.738 60.4 368.138 60.6 367.605 61C367.205 61.4 367.005 61.9333 367.005 62.6C367.005 63.2667 367.205 63.8667 367.605 64.4C368.138 64.8 368.738 65 369.405 65ZM371.605 48.2C372.271 48.2 372.805 48 373.205 47.6C373.738 47.0667 374.005 46.4667 374.005 45.8C374.005 45.1333 373.738 44.6 373.205 44.2C372.805 43.6667 372.271 43.4 371.605 43.4C370.938 43.4 370.405 43.6667 370.005 44.2C369.605 44.6 369.405 45.1333 369.405 45.8C369.405 46.4667 369.605 47.0667 370.005 47.6C370.405 48 370.938 48.2 371.605 48.2ZM379.405 31C380.071 31 380.605 30.8 381.005 30.4C381.538 29.8667 381.805 29.2667 381.805 28.6C381.805 27.9333 381.538 27.4 381.005 27C380.605 26.6 380.071 26.4 379.405 26.4C377.805 26.4 377.005 27.1333 377.005 28.6C377.005 30.2 377.805 31 379.405 31ZM383.205 68.4C383.605 63.0667 384.871 58 387.005 53.2L399.405 24.6L397.405 20.2L384.605 50.2C382.071 55.9333 380.738 62 380.605 68.4H383.205ZM387.205 82.4C387.871 82.4 388.405 82.2 388.805 81.8C389.338 81.2667 389.605 80.6667 389.605 80C389.605 79.3333 389.338 78.8 388.805 78.4C388.405 77.8667 387.871 77.6 387.205 77.6C386.538 77.6 385.938 77.8667 385.405 78.4C385.005 78.8 384.805 79.3333 384.805 80C384.805 80.6667 385.005 81.2667 385.405 81.8C385.938 82.2 386.538 82.4 387.205 82.4ZM406.405 82.4C407.071 82.4 407.605 82.2 408.005 81.8C408.538 81.2667 408.805 80.6667 408.805 80C408.805 79.3333 408.538 78.8 408.005 78.4C407.605 78 407.071 77.8 406.405 77.8C404.805 77.8 404.005 78.5333 404.005 80C404.005 81.6 404.805 82.4 406.405 82.4ZM414.405 68.4C414.271 65.0667 413.871 62 413.205 59.2C412.538 56.2667 411.538 53.2667 410.205 50.2L403.405 34.2L392.605 59.6C391.271 62.6667 390.338 65.6 389.805 68.4H414.405ZM412.405 27C412.405 27.6667 412.605 28.2667 413.005 28.8C413.538 29.2 414.138 29.4 414.805 29.4C415.471 29.4 416.005 29.2 416.405 28.8C416.805 28.2667 417.005 27.6667 417.005 27C417.005 26.3333 416.805 25.8 416.405 25.4C416.005 24.8667 415.471 24.6 414.805 24.6C414.138 24.6 413.538 24.8667 413.005 25.4C412.605 25.8 412.405 26.3333 412.405 27ZM556.017 41.8C556.017 37.5333 555.351 33.5333 554.017 29.8C552.817 26.0667 551.084 22.6667 548.817 19.6C552.684 23.0667 555.751 27.2667 558.017 32.2C560.417 37.1333 561.617 42.4 561.617 48H536.217H532.617C531.551 48 531.284 47.5333 531.817 46.6C532.751 45 533.017 43.4 532.617 41.8H556.017ZM561.617 99C561.617 104.2 560.617 109.133 558.617 113.8C556.617 118.467 553.884 122.533 550.417 126C546.951 129.333 542.884 132 538.217 134C533.684 136 528.751 137 523.417 137H515.017H506.417C500.017 137 494.084 135.6 488.617 132.8C483.284 129.867 478.884 126 475.417 121.2C478.884 124.267 482.751 126.667 487.017 128.4C491.284 130 495.884 130.8 500.817 130.8H509.217H517.817C523.151 130.8 528.084 129.8 532.617 127.8C537.284 125.8 541.351 123.067 544.817 119.6C548.284 116.133 551.017 112.133 553.017 107.6C555.017 102.933 556.017 97.9333 556.017 92.6C556.017 88.4667 555.351 84.5333 554.017 80.8C552.817 76.9333 551.084 73.4667 548.817 70.4C552.684 73.8667 555.751 78.0667 558.017 83C560.417 87.9333 561.617 93.2667 561.617 99ZM489.417 89.6C490.217 89.6 490.484 90 490.217 90.8C489.017 92.9333 488.751 94.8667 489.417 96.6C490.217 98.3333 491.151 99.6667 492.217 100.6C491.951 99.8 491.817 99.2667 491.817 99H493.817H497.417C498.351 99 498.617 99.4 498.217 100.2C497.951 100.6 497.751 101 497.617 101.4C497.484 101.667 497.417 102 497.417 102.4H498.417H507.017H515.417C518.884 102.4 521.817 101.133 524.217 98.6C526.751 96.0667 528.017 93.0667 528.017 89.6C528.017 88.4 527.951 87.5333 527.817 87C526.617 86.4667 525.151 86.2 523.417 86.2H515.017H506.417C500.017 86.2 494.084 84.8 488.617 82C483.284 79.0667 478.884 75.1333 475.417 70.2C478.884 73.2667 482.751 75.6667 487.017 77.4C491.284 79.1333 495.884 80 500.817 80H509.217H517.817C521.017 80 523.884 81.0667 526.417 83.2C525.351 81.3333 523.817 79.8 521.817 78.6C519.951 77.4 517.817 76.8 515.417 76.8H507.017H498.417C493.084 76.8 488.084 75.8 483.417 73.8C478.884 71.8 474.884 69.1333 471.417 65.8C467.951 62.3333 465.217 58.2667 463.217 53.6C461.217 48.9333 460.217 44 460.217 38.8C460.217 33.4667 461.217 28.5333 463.217 24C465.217 19.3333 467.951 15.2667 471.417 11.8C474.884 8.33333 478.884 5.59999 483.417 3.59999C488.084 1.59999 493.084 0.599992 498.417 0.599992H507.017H515.417C520.617 0.599992 525.551 1.59999 530.217 3.59999C534.884 5.59999 538.951 8.33333 542.417 11.8C545.884 15.2667 548.617 19.3333 550.617 24C552.617 28.5333 553.617 33.4667 553.617 38.8H528.017H524.417C523.484 38.8 523.284 38.3333 523.817 37.4C523.951 37.1333 524.084 36.8 524.217 36.4C524.351 36 524.484 35.6 524.617 35.2H523.417H515.017H506.417C502.951 35.2 499.951 36.4667 497.417 39C495.017 41.5333 493.817 44.5333 493.817 48C493.817 48.4 493.817 48.8667 493.817 49.4C493.817 49.8 493.884 50.2 494.017 50.6C495.217 51.1333 496.684 51.4 498.417 51.4H507.017H515.417C520.617 51.4 525.551 52.4 530.217 54.4C534.884 56.4 538.951 59.1333 542.417 62.6C545.884 66.0667 548.617 70.1333 550.617 74.8C552.617 79.4667 553.617 84.4 553.617 89.6C553.617 94.8 552.617 99.7333 550.617 104.4C548.617 109.067 545.884 113.133 542.417 116.6C538.951 120.067 534.884 122.8 530.217 124.8C525.551 126.8 520.617 127.8 515.417 127.8H507.017H498.417C493.084 127.8 488.084 126.8 483.417 124.8C478.884 122.8 474.884 120.067 471.417 116.6C467.951 113.133 465.217 109.067 463.217 104.4C461.217 99.7333 460.217 94.8 460.217 89.6H485.617H489.417ZM478.417 103.4C479.884 103.4 480.617 102.667 480.617 101.2C480.617 99.7333 479.884 99 478.417 99C476.817 99 476.017 99.7333 476.017 101.2C476.017 102.667 476.817 103.4 478.417 103.4ZM539.417 27.6C537.951 27.6 537.217 28.3333 537.217 29.8C537.217 31.4 537.951 32.2 539.417 32.2C540.884 32.2 541.617 31.4 541.617 29.8C541.617 28.3333 540.884 27.6 539.417 27.6ZM527.217 13.4C526.551 13.4 525.951 13.6667 525.417 14.2C525.017 14.6 524.817 15.1333 524.817 15.8C524.817 16.4667 525.017 17 525.417 17.4C525.951 17.8 526.551 18 527.217 18C527.884 18 528.417 17.8 528.817 17.4C529.351 17 529.617 16.4667 529.617 15.8C529.617 15.1333 529.351 14.6 528.817 14.2C528.417 13.6667 527.884 13.4 527.217 13.4ZM510.017 9.99999C508.551 9.99999 507.817 10.8 507.817 12.4C507.817 13.8667 508.551 14.6 510.017 14.6C511.617 14.6 512.417 13.8667 512.417 12.4C512.417 10.8 511.617 9.99999 510.017 9.99999ZM492.217 9.99999C490.751 9.99999 490.017 10.8 490.017 12.4C490.017 13.8667 490.751 14.6 492.217 14.6C493.817 14.6 494.617 13.8667 494.617 12.4C494.617 10.8 493.817 9.99999 492.217 9.99999ZM478.217 20.4C477.551 20.4 477.017 20.6667 476.617 21.2C476.217 21.6 476.017 22.1333 476.017 22.8C476.017 24.2667 476.751 25 478.217 25C478.884 25 479.417 24.8 479.817 24.4C480.351 24 480.617 23.4667 480.617 22.8C480.617 22.1333 480.351 21.6 479.817 21.2C479.417 20.6667 478.884 20.4 478.217 20.4ZM474.817 41.2C476.284 41.2 477.017 40.4 477.017 38.8C477.017 37.3333 476.284 36.6 474.817 36.6C473.217 36.6 472.417 37.3333 472.417 38.8C472.417 40.4 473.217 41.2 474.817 41.2ZM480.617 57C482.084 57 482.817 56.2667 482.817 54.8C482.817 53.2 482.084 52.4 480.617 52.4C479.017 52.4 478.217 53.2 478.217 54.8C478.217 56.2667 479.017 57 480.617 57ZM489.817 48.2C488.751 46.0667 488.217 43.9333 488.217 41.8C488.217 38.3333 489.417 35.3333 491.817 32.8C494.351 30.2667 497.351 29 500.817 29H509.217H517.817C519.284 29 521.017 29.3333 523.017 30C523.417 30.4 523.751 30.6667 524.017 30.8C522.951 29.2 521.751 27.9333 520.417 27C518.684 26.3333 517.017 26 515.417 26H507.017H498.417C494.951 26 491.951 27.2667 489.417 29.8C486.884 32.2 485.617 35.2 485.617 38.8C485.617 42.5333 487.017 45.6667 489.817 48.2ZM494.617 66.4C495.284 66.4 495.817 66.2 496.217 65.8C496.751 65.2667 497.017 64.6667 497.017 64C497.017 63.3333 496.751 62.8 496.217 62.4C495.817 62 495.284 61.8 494.617 61.8C493.951 61.8 493.351 62 492.817 62.4C492.417 62.8 492.217 63.3333 492.217 64C492.217 64.6667 492.417 65.2667 492.817 65.8C493.351 66.2 493.951 66.4 494.617 66.4ZM512.417 66.4C513.884 66.4 514.617 65.6 514.617 64C514.617 62.5333 513.884 61.8 512.417 61.8C510.817 61.8 510.017 62.5333 510.017 64C510.017 65.6 510.817 66.4 512.417 66.4ZM539.417 76.8C538.751 76.8 538.217 77.0667 537.817 77.6C537.417 78 537.217 78.5333 537.217 79.2C537.217 79.8667 537.417 80.4667 537.817 81C538.217 81.4 538.751 81.6 539.417 81.6C540.084 81.6 540.617 81.4 541.017 81C541.417 80.4667 541.617 79.8667 541.617 79.2C541.617 78.5333 541.417 78 541.017 77.6C540.617 77.0667 540.084 76.8 539.417 76.8ZM539.417 94.4C537.951 94.4 537.217 95.1333 537.217 96.6C537.217 98.2 537.951 99 539.417 99C540.884 99 541.617 98.2 541.617 96.6C541.617 95.1333 540.884 94.4 539.417 94.4ZM527.217 66.8C527.217 68.2667 528.017 69 529.617 69C531.084 69 531.817 68.2667 531.817 66.8C531.817 65.3333 531.084 64.6 529.617 64.6C528.017 64.6 527.217 65.3333 527.217 66.8ZM528.417 108.4C527.751 108.4 527.151 108.667 526.617 109.2C526.217 109.6 526.017 110.133 526.017 110.8C526.017 111.467 526.217 112 526.617 112.4C527.151 112.8 527.751 113 528.417 113C529.084 113 529.617 112.8 530.017 112.4C530.551 112 530.817 111.467 530.817 110.8C530.817 110.133 530.551 109.6 530.017 109.2C529.617 108.667 529.084 108.4 528.417 108.4ZM509.617 110.8C508.017 110.8 507.217 111.533 507.217 113C507.217 114.6 508.017 115.4 509.617 115.4C511.084 115.4 511.817 114.6 511.817 113C511.817 111.533 511.084 110.8 509.617 110.8ZM491.817 109.6C490.351 109.6 489.617 110.4 489.617 112C489.617 113.467 490.351 114.2 491.817 114.2C493.284 114.2 494.017 113.467 494.017 112C494.017 110.4 493.284 109.6 491.817 109.6ZM606.555 130.6C607.088 130.6 607.355 130.467 607.355 130.2C607.488 129.8 607.421 129.467 607.155 129.2C604.355 126.8 602.955 121.6 602.955 113.6V105.2V71.4V44.4V29V20.4C602.955 16 603.355 12.4667 604.155 9.79999H608.555H612.155C612.688 9.79999 613.021 9.99999 613.155 10.4C613.288 10.6667 613.155 10.9333 612.755 11.2C609.955 13.6 608.555 18.7333 608.555 26.6V35.2V50.6V77.6V111.6V120C608.555 127.867 609.955 133 612.755 135.4C613.155 135.667 613.288 136 613.155 136.4C613.021 136.8 612.688 137 612.155 137H579.355C578.821 137 578.488 136.8 578.355 136.4C578.355 136 578.488 135.667 578.755 135.4C579.421 134.867 579.955 134.2 580.355 133.4C580.888 132.6 581.355 131.667 581.755 130.6H606.555ZM570.755 126.2C573.555 123.8 574.955 118.6 574.955 110.6V17.4C574.955 9.39999 573.555 4.19999 570.755 1.79999C570.355 1.53333 570.221 1.26666 570.355 0.999999C570.488 0.599996 570.821 0.399994 571.355 0.399994H591.955H600.555H604.155C604.688 0.399994 604.955 0.599996 604.955 0.999999C605.088 1.26666 605.021 1.53333 604.755 1.79999C601.955 4.06666 600.555 9.26666 600.555 17.4V25.8V41.4V68.4V102.2V110.6C600.555 118.733 601.955 123.933 604.755 126.2C605.021 126.467 605.088 126.8 604.955 127.2C604.955 127.467 604.688 127.6 604.155 127.6H571.355C570.821 127.6 570.488 127.467 570.355 127.2C570.221 126.8 570.355 126.467 570.755 126.2ZM587.955 8.99999C587.288 8.99999 586.688 9.26666 586.155 9.79999C585.755 10.2 585.555 10.7333 585.555 11.4C585.555 12.0667 585.755 12.6667 586.155 13.2C586.688 13.6 587.288 13.8 587.955 13.8C588.621 13.8 589.155 13.6 589.555 13.2C589.955 12.6667 590.155 12.0667 590.155 11.4C590.155 10.7333 589.955 10.2 589.555 9.79999C589.155 9.26666 588.621 8.99999 587.955 8.99999ZM587.755 26.4C586.155 26.4 585.355 27.2 585.355 28.8C585.355 30.2667 586.155 31 587.755 31C589.221 31 589.955 30.2667 589.955 28.8C589.955 27.2 589.221 26.4 587.755 26.4ZM590.155 45.8C590.155 44.3333 589.421 43.6 587.955 43.6C586.355 43.6 585.555 44.3333 585.555 45.8C585.555 47.4 586.355 48.2 587.955 48.2C589.421 48.2 590.155 47.4 590.155 45.8ZM587.755 61C586.155 61 585.355 61.7333 585.355 63.2C585.355 64.8 586.155 65.6 587.755 65.6C589.221 65.6 589.955 64.8 589.955 63.2C589.955 61.7333 589.221 61 587.755 61ZM587.755 78.2C586.155 78.2 585.355 79 585.355 80.6C585.355 82.0667 586.155 82.8 587.755 82.8C589.221 82.8 589.955 82.0667 589.955 80.6C589.955 79 589.221 78.2 587.755 78.2ZM587.755 95.2C586.155 95.2 585.355 96 585.355 97.6C585.355 99.0667 586.155 99.8 587.755 99.8C589.221 99.8 589.955 99.0667 589.955 97.6C589.955 96 589.221 95.2 587.755 95.2ZM587.755 113C586.155 113 585.355 113.8 585.355 115.4C585.355 116.867 586.155 117.6 587.755 117.6C589.221 117.6 589.955 116.867 589.955 115.4C589.955 113.8 589.221 113 587.755 113ZM720.541 13.8C717.874 15.9333 716.541 21 716.541 29V120.4C716.541 128.267 717.874 133.333 720.541 135.6C720.941 135.867 721.074 136.2 720.941 136.6C720.807 136.867 720.474 137 719.941 137H687.941C687.407 137 687.074 136.867 686.941 136.6C686.941 136.2 687.074 135.867 687.341 135.6C688.674 134.267 689.607 132.667 690.141 130.8H714.541C714.941 130.8 715.207 130.667 715.341 130.4C715.474 130 715.341 129.667 714.941 129.4C712.274 127 710.941 121.933 710.941 114.2V22.8C710.941 18.5333 711.341 15.0667 712.141 12.4H719.941C720.474 12.4 720.807 12.6 720.941 13C721.074 13.2667 720.941 13.5333 720.541 13.8ZM625.341 103V19.8C625.341 11.9333 624.007 6.86666 621.341 4.59999C620.941 4.33332 620.807 4.06666 620.941 3.8C621.074 3.4 621.341 3.19999 621.741 3.19999H653.941C654.474 3.19999 654.741 3.4 654.741 3.8C654.874 4.06666 654.807 4.33332 654.541 4.59999C652.807 6.33332 651.674 8.73332 651.141 11.8C650.474 14.3333 650.341 16.6 650.741 18.6C651.274 20.4667 652.274 22.4667 653.741 24.6L683.541 66.4V66L656.141 27.6C654.674 25.4667 653.741 23.4 653.341 21.4C652.941 19.4 652.941 17.1333 653.341 14.6C653.607 13.5333 653.807 12.8 653.941 12.4H661.741C662.274 12.4 662.607 12.6 662.741 13C662.874 13.2667 662.741 13.5333 662.341 13.8C660.741 15.2667 659.607 17.6 658.941 20.8C658.007 25.4667 658.941 29.8 661.741 33.8L683.541 64.4V53.2V36.6V19.8C683.541 12.0667 682.141 6.99999 679.341 4.59999C679.074 4.33332 679.007 4.06666 679.141 3.8C679.274 3.4 679.541 3.19999 679.941 3.19999H712.141C712.674 3.19999 712.941 3.4 712.941 3.8C713.074 4.06666 713.007 4.33332 712.741 4.59999C709.941 6.99999 708.541 12.0667 708.541 19.8V111.2C708.541 119.2 709.941 124.267 712.741 126.4C713.007 126.667 713.074 127 712.941 127.4C712.941 127.8 712.674 128 712.141 128H679.941C679.541 128 679.274 127.8 679.141 127.4C679.007 127 679.074 126.667 679.341 126.4C681.607 124.533 682.941 120.933 683.341 115.6C683.741 111.467 682.741 107.8 680.341 104.6L658.341 73.8V87.2V95.4V120.4C658.341 128.267 659.674 133.333 662.341 135.6C662.741 135.867 662.874 136.2 662.741 136.6C662.607 136.867 662.274 137 661.741 137H629.741C629.207 137 628.874 136.867 628.741 136.6C628.741 136.2 628.874 135.867 629.141 135.6C630.341 134.533 631.341 132.933 632.141 130.8H656.341C656.874 130.8 657.141 130.667 657.141 130.4C657.274 130 657.141 129.667 656.741 129.4C654.074 127 652.741 121.933 652.741 114.2V89.2V81V66L650.341 62.8V78V86.4V111.2C650.341 119.2 651.741 124.267 654.541 126.4C654.807 126.667 654.874 127 654.741 127.4C654.741 127.8 654.474 128 653.941 128H621.741C621.341 128 621.074 127.8 620.941 127.4C620.807 127 620.941 126.667 621.341 126.4C624.007 124.267 625.341 119.2 625.341 111.2V103ZM696.541 11.4C695.074 11.4 694.341 12.2 694.341 13.8C694.341 15.2667 695.074 16 696.541 16C698.007 16 698.741 15.2667 698.741 13.8C698.741 12.2 698.007 11.4 696.541 11.4ZM696.341 28.4C694.874 28.4 694.141 29.2 694.141 30.8C694.141 32.2667 694.874 33 696.341 33C697.941 33 698.741 32.2667 698.741 30.8C698.741 29.2 697.941 28.4 696.341 28.4ZM698.741 47.4C698.741 45.9333 698.007 45.2 696.541 45.2C695.074 45.2 694.341 45.9333 694.341 47.4C694.341 48.8667 695.074 49.6 696.541 49.6C698.007 49.6 698.741 48.8667 698.741 47.4ZM696.341 62.2C694.874 62.2 694.141 63 694.141 64.6C694.141 66.0667 694.874 66.8 696.341 66.8C697.941 66.8 698.741 66.0667 698.741 64.6C698.741 63 697.941 62.2 696.341 62.2ZM696.341 79.2C694.874 79.2 694.141 79.9333 694.141 81.4C694.141 82.8667 694.874 83.6 696.341 83.6C697.941 83.6 698.741 82.8667 698.741 81.4C698.741 79.9333 697.941 79.2 696.341 79.2ZM696.341 95.8C694.874 95.8 694.141 96.6 694.141 98.2C694.141 99.6667 694.874 100.4 696.341 100.4C697.941 100.4 698.741 99.6667 698.741 98.2C698.741 96.6 697.941 95.8 696.341 95.8ZM696.341 113.2C694.874 113.2 694.141 113.933 694.141 115.4C694.141 117 694.874 117.8 696.341 117.8C697.941 117.8 698.741 117 698.741 115.4C698.741 113.933 697.941 113.2 696.341 113.2ZM686.741 93C685.541 94.2 685.541 95.3333 686.741 96.4C686.874 96.8 687.274 97 687.941 97L687.741 92.4C687.207 92.6667 686.874 92.8667 686.741 93ZM677.341 76.8C675.741 76.8 674.941 77.6 674.941 79.2C674.941 80.6667 675.741 81.4 677.341 81.4C678.807 81.4 679.541 80.6667 679.541 79.2C679.541 77.6 678.807 76.8 677.341 76.8ZM667.541 62.2C666.074 62.2 665.341 63 665.341 64.6C665.341 66.0667 666.074 66.8 667.541 66.8C669.141 66.8 669.941 66.0667 669.941 64.6C669.941 63 669.141 62.2 667.541 62.2ZM657.341 49.2C656.674 49.2 656.074 49.4 655.541 49.8C655.141 50.2 654.941 50.7333 654.941 51.4C654.941 52.0667 655.141 52.6 655.541 53C656.074 53.4 656.674 53.6 657.341 53.6C658.807 53.6 659.541 52.8667 659.541 51.4C659.541 49.9333 658.807 49.2 657.341 49.2ZM649.141 36C648.741 35.6 648.274 35.4 647.741 35.4L648.141 40C648.674 39.7333 649.007 39.5333 649.141 39.4C649.541 38.8667 649.741 38.2667 649.741 37.6C649.741 36.9333 649.541 36.4 649.141 36ZM638.141 12.8C636.674 12.8 635.941 13.5333 635.941 15C635.941 16.4667 636.674 17.2 638.141 17.2C639.607 17.2 640.341 16.4667 640.341 15C640.341 13.5333 639.607 12.8 638.141 12.8ZM637.941 29.6C637.274 29.6 636.741 29.8667 636.341 30.4C635.941 30.8 635.741 31.3333 635.741 32C635.741 33.4667 636.474 34.2 637.941 34.2C639.541 34.2 640.341 33.4667 640.341 32C640.341 31.3333 640.074 30.8 639.541 30.4C639.141 29.8667 638.607 29.6 637.941 29.6ZM640.341 48.8C640.341 47.2 639.607 46.4 638.141 46.4C636.674 46.4 635.941 47.2 635.941 48.8C635.941 50.2667 636.674 51 638.141 51C639.607 51 640.341 50.2667 640.341 48.8ZM637.941 63.4C637.274 63.4 636.741 63.6667 636.341 64.2C635.941 64.6 635.741 65.1333 635.741 65.8C635.741 67.2667 636.474 68 637.941 68C639.541 68 640.341 67.2667 640.341 65.8C640.341 65.1333 640.074 64.6 639.541 64.2C639.141 63.6667 638.607 63.4 637.941 63.4ZM637.941 80.4C636.474 80.4 635.741 81.2 635.741 82.8C635.741 84.2667 636.474 85 637.941 85C639.541 85 640.341 84.2667 640.341 82.8C640.341 81.2 639.541 80.4 637.941 80.4ZM637.941 97C637.274 97 636.741 97.2667 636.341 97.8C635.941 98.2 635.741 98.7333 635.741 99.4C635.741 100.867 636.474 101.6 637.941 101.6C639.541 101.6 640.341 100.867 640.341 99.4C640.341 98.7333 640.074 98.2 639.541 97.8C639.141 97.2667 638.607 97 637.941 97ZM637.941 114.4C636.474 114.4 635.741 115.2 635.741 116.8C635.741 118.267 636.474 119 637.941 119C639.541 119 640.341 118.267 640.341 116.8C640.341 115.2 639.541 114.4 637.941 114.4ZM825.358 46C825.358 41.3333 824.624 36.8667 823.158 32.6C821.824 28.2 819.891 24.2667 817.358 20.8C821.624 24.6667 824.958 29.3333 827.358 34.8C829.891 40.1333 831.158 45.9333 831.158 52.2V94.6C831.158 100.467 830.024 106 827.758 111.2C825.624 116.267 822.624 120.733 818.758 124.6C814.891 128.467 810.358 131.533 805.158 133.8C799.958 135.933 794.424 137 788.558 137H780.158C773.091 137 766.558 135.467 760.558 132.4C754.691 129.2 749.824 125 745.958 119.8C749.824 123.267 754.158 126 758.958 128C763.758 129.867 768.958 130.8 774.558 130.8H782.958C788.824 130.8 794.358 129.733 799.558 127.6C804.758 125.333 809.224 122.267 812.958 118.4C816.824 114.533 819.824 110.067 821.958 105C824.224 99.8 825.358 94.2667 825.358 88.4V46ZM772.158 127.8C766.291 127.8 760.758 126.733 755.558 124.6C750.358 122.333 745.824 119.267 741.958 115.4C738.091 111.533 735.024 107.067 732.758 102C730.624 96.8 729.558 91.2667 729.558 85.4V42.8C729.558 37.0667 730.624 31.6667 732.758 26.6C735.024 21.4 738.091 16.8667 741.958 13C745.824 9.13333 750.358 6.13333 755.558 4C760.758 1.73333 766.291 0.599992 772.158 0.599992H780.558C786.424 0.599992 791.891 1.73333 796.958 4C802.158 6.13333 806.691 9.13333 810.558 13C814.424 16.8667 817.424 21.4 819.558 26.6C821.824 31.6667 822.958 37.0667 822.958 42.8V85.4C822.958 91.2667 821.824 96.8 819.558 102C817.424 107.067 814.424 111.533 810.558 115.4C806.691 119.267 802.158 122.333 796.958 124.6C791.891 126.733 786.424 127.8 780.558 127.8H772.158ZM764.158 115.4C765.624 115.4 766.358 114.667 766.358 113.2C766.358 111.6 765.624 110.8 764.158 110.8C762.558 110.8 761.758 111.6 761.758 113.2C761.758 114.667 762.558 115.4 764.158 115.4ZM780.558 117.2C782.024 117.2 782.758 116.4 782.758 114.8C782.758 114.133 782.558 113.6 782.158 113.2C781.758 112.667 781.224 112.4 780.558 112.4C779.891 112.4 779.291 112.667 778.758 113.2C778.358 113.6 778.158 114.133 778.158 114.8C778.158 116.4 778.958 117.2 780.558 117.2ZM810.358 84.6C811.958 84.6 812.758 83.8667 812.758 82.4C812.758 80.9333 811.958 80.2 810.358 80.2C808.891 80.2 808.158 80.9333 808.158 82.4C808.158 83.8667 808.891 84.6 810.358 84.6ZM807.558 66.8C807.558 67.4667 807.758 68.0667 808.158 68.6C808.691 69 809.291 69.2 809.958 69.2C810.624 69.2 811.158 69 811.558 68.6C811.958 68.0667 812.158 67.4667 812.158 66.8C812.158 65.2 811.424 64.4 809.958 64.4C808.358 64.4 807.558 65.2 807.558 66.8ZM812.358 51.2C812.358 50.5333 812.091 50 811.558 49.6C811.158 49.0667 810.624 48.8 809.958 48.8C808.358 48.8 807.558 49.6 807.558 51.2C807.558 52.6667 808.358 53.4 809.958 53.4C810.624 53.4 811.158 53.2 811.558 52.8C812.091 52.4 812.358 51.8667 812.358 51.2ZM807.558 31.6C806.891 31.6 806.358 31.8667 805.958 32.4C805.558 32.8 805.358 33.3333 805.358 34C805.358 35.6 806.091 36.4 807.558 36.4C809.158 36.4 809.958 35.6 809.958 34C809.958 33.3333 809.691 32.8 809.158 32.4C808.758 31.8667 808.224 31.6 807.558 31.6ZM806.358 94.6C804.758 94.6 803.958 95.4 803.958 97C803.958 98.4667 804.758 99.2 806.358 99.2C807.824 99.2 808.558 98.4667 808.558 97C808.558 95.4 807.824 94.6 806.358 94.6ZM800.558 17.2C798.958 17.2 798.158 17.9333 798.158 19.4C798.158 21 798.958 21.8 800.558 21.8C801.224 21.8 801.758 21.6 802.158 21.2C802.691 20.6667 802.958 20.0667 802.958 19.4C802.958 18.7333 802.691 18.2 802.158 17.8C801.758 17.4 801.224 17.2 800.558 17.2ZM795.758 113.2C797.358 113.2 798.158 112.4 798.158 110.8C798.158 109.333 797.358 108.6 795.758 108.6C794.291 108.6 793.558 109.333 793.558 110.8C793.558 112.4 794.291 113.2 795.758 113.2ZM797.558 42.8C797.558 41.0667 797.224 39.2 796.558 37.2C793.891 35.8667 791.224 35.2 788.558 35.2H780.158C775.491 35.2 771.491 36.8667 768.158 40.2C764.824 43.5333 763.158 47.5333 763.158 52.2V69.2V77.6V94.6C763.158 96.4667 763.491 98.4 764.158 100.4C766.824 101.733 769.491 102.4 772.158 102.4H780.558C785.224 102.4 789.224 100.733 792.558 97.4C795.891 94.0667 797.558 90.0667 797.558 85.4V68.4V59.8V42.8ZM785.358 11.4C784.691 11.4 784.091 11.6667 783.558 12.2C783.158 12.6 782.958 13.1333 782.958 13.8C782.958 14.4667 783.158 15.0667 783.558 15.6C784.091 16 784.691 16.2 785.358 16.2C786.024 16.2 786.558 16 786.958 15.6C787.491 15.0667 787.758 14.4667 787.758 13.8C787.758 13.1333 787.491 12.6 786.958 12.2C786.558 11.6667 786.024 11.4 785.358 11.4ZM766.358 10.4C764.891 10.4 764.158 11.2 764.158 12.8C764.158 14.2667 764.891 15 766.358 15C767.958 15 768.758 14.2667 768.758 12.8C768.758 11.2 767.958 10.4 766.358 10.4ZM755.158 85.4C755.158 87.6667 755.624 89.8667 756.558 92C757.491 94.1333 758.691 95.9333 760.158 97.4C758.424 94.6 757.558 91.6 757.558 88.4V71.4V63V46C757.558 41.3333 759.224 37.3333 762.558 34C765.891 30.6667 769.891 29 774.558 29H782.958C787.758 29 791.758 30.6 794.958 33.8C793.491 31.5333 791.491 29.6667 788.958 28.2C786.424 26.7333 783.624 26 780.558 26H772.158C769.758 26 767.491 26.4667 765.358 27.4C763.358 28.2 761.558 29.4 759.958 31C758.491 32.4667 757.291 34.2667 756.358 36.4C755.558 38.4 755.158 40.5333 755.158 42.8V59.8V68.4V85.4ZM751.558 18C750.091 18 749.358 18.7333 749.358 20.2C749.358 21.8 750.091 22.6 751.558 22.6C753.158 22.6 753.958 21.8 753.958 20.2C753.958 18.7333 753.158 18 751.558 18ZM749.358 101.4C747.758 101.4 746.958 102.2 746.958 103.8C746.958 105.267 747.758 106 749.358 106C750.824 106 751.558 105.267 751.558 103.8C751.558 102.2 750.824 101.4 749.358 101.4ZM744.558 34.2C743.891 34.2 743.291 34.4667 742.758 35C742.358 35.4 742.158 35.9333 742.158 36.6C742.158 37.2667 742.358 37.8667 742.758 38.4C743.291 38.8 743.891 39 744.558 39C745.224 39 745.758 38.8 746.158 38.4C746.558 37.8667 746.758 37.2667 746.758 36.6C746.758 35.9333 746.558 35.4 746.158 35C745.758 34.4667 745.224 34.2 744.558 34.2ZM743.358 52.4C742.691 52.4 742.091 52.6 741.558 53C741.158 53.4 740.958 53.9333 740.958 54.6C740.958 55.2667 741.158 55.8667 741.558 56.4C742.091 56.8 742.691 57 743.358 57C744.024 57 744.558 56.8 744.958 56.4C745.491 55.8667 745.758 55.2667 745.758 54.6C745.758 53.9333 745.491 53.4 744.958 53C744.558 52.6 744.024 52.4 743.358 52.4ZM742.758 68.6C741.291 68.6 740.558 69.3333 740.558 70.8C740.558 72.4 741.291 73.2 742.758 73.2C744.358 73.2 745.158 72.4 745.158 70.8C745.158 69.3333 744.358 68.6 742.758 68.6ZM740.958 88.2C740.958 88.8667 741.158 89.4667 741.558 90C742.091 90.4 742.691 90.6 743.358 90.6C744.024 90.6 744.558 90.4 744.958 90C745.491 89.4667 745.758 88.8667 745.758 88.2C745.758 87.5333 745.491 87 744.958 86.6C744.558 86.2 744.024 86 743.358 86C742.691 86 742.091 86.2 741.558 86.6C741.158 87 740.958 87.5333 740.958 88.2Z" fill="#CCA354"/>
</svg>
