<svg width="846" height="145" viewBox="0 0 846 145" fill="none" xmlns="http://www.w3.org/2000/svg">
<g filter="url(#filter0_d_18_6)">
<path d="M128.2 139.6C128.6 139.867 128.733 140.2 128.6 140.6C128.467 140.867 128.133 141 127.6 141H94.8C94.2667 141 93.9333 140.867 93.8 140.6C93.8 140.2 93.9333 139.867 94.2 139.6C95.6667 138.133 96.6667 136.533 97.2 134.8H122C122.533 134.8 122.867 134.667 123 134.4C123.133 134 122.933 133.6 122.4 133.2C119.6 130.8 118.2 125.667 118.2 117.8V109.4V75.4V48.4V41.4V33V24.4C118.2 22.1333 118.333 20.1333 118.6 18.4C118.867 16.6667 119.2 15.1333 119.6 13.8H127.6C128.133 13.8 128.467 14 128.6 14.4C128.733 14.6667 128.6 14.9333 128.2 15.2C125.4 17.6 124 22.8 124 30.8V39.2V47.8V54.6V81.6V115.6V124C124 132 125.4 137.2 128.2 139.6ZM86.2 5.79999C85.8 5.53333 85.6667 5.26666 85.8 5C85.9333 4.6 86.2667 4.39999 86.8 4.39999H107.4H119.6C120 4.39999 120.267 4.6 120.4 5C120.533 5.26666 120.4 5.53333 120 5.79999C117.333 8.06666 116 13.2667 116 21.4V29.8V38.4V45.4V72.4V106.2V114.6C116 122.733 117.333 127.933 120 130.2C120.4 130.467 120.533 130.8 120.4 131.2C120.267 131.467 120 131.6 119.6 131.6H86.8C86.2667 131.6 85.9333 131.467 85.8 131.2C85.6667 130.8 85.8 130.467 86.2 130.2C89 127.8 90.4 122.6 90.4 114.6V110.6L83.8 126.8C81.4 132.533 80.9333 136.867 82.4 139.8C82.5333 140.6 82.2667 141 81.6 141H56.2C55.2667 141 55 140.6 55.4 139.8C56.0667 138.2 56.3333 136.533 56.2 134.8H76C76.8 134.8 77 134.4 76.6 133.6C75.2667 130.8 75.8 126.467 78.2 120.6L90.4 90.8V81.8L75.8 117.6C73.5333 123.2 73 127.467 74.2 130.4C74.6 131.2 74.3333 131.6 73.4 131.6H48.2C47.2667 131.6 47 131.2 47.4 130.4C48.8667 127.6 48.4 123.333 46 117.6L39 100.8V119V119.2V124C39 131.867 40.4 137.067 43.2 139.6C43.6 139.867 43.7333 140.2 43.6 140.6C43.6 140.867 43.3333 141 42.8 141H10C9.46667 141 9.13333 140.867 9 140.6C9 140.2 9.13333 139.867 9.4 139.6C10.0667 138.933 10.6 138.267 11 137.6C11.5333 136.8 12 135.867 12.4 134.8H37.2C38.5333 134.8 38.6667 134.267 37.6 133.2C34.8 131.067 33.4 125.933 33.4 117.8V113V112.8V87.2L31 81.4V109.6V110V114.6C31 122.6 32.4 127.8 35.2 130.2C35.6 130.467 35.7333 130.8 35.6 131.2C35.4667 131.467 35.1333 131.6 34.6 131.6H2C1.46667 131.6 1.13333 131.467 1 131.2C0.866667 130.8 1 130.467 1.4 130.2C4.2 127.8 5.6 122.6 5.6 114.6V21.4C5.6 13.4 4.2 8.19999 1.4 5.79999C1 5.53333 0.866667 5.26666 1 5C1.13333 4.6 1.46667 4.39999 2 4.39999H22.6H34.6C35.1333 4.39999 35.4667 4.6 35.6 5C35.7333 5.26666 35.6 5.53333 35.2 5.79999C33.7333 6.99999 32.6 9.19999 31.8 12.4C31.4 14 31.5333 15.7333 32.2 17.6L60.8 86.6L61.4 85.2L34.8 20.6C34 18.8667 33.8 17.2 34.2 15.6C34.3333 15.2 34.4 14.8667 34.4 14.6C34.5333 14.3333 34.6667 14.0667 34.8 13.8H42.8C43.3333 13.8 43.6 14 43.6 14.4C43.7333 14.6667 43.6 14.9333 43.2 15.2C41.6 16.8 40.5333 19 40 21.8C39.4667 23.5333 39.6 25.2 40.4 26.8L62.8 81.4L89.2 17.6C89.8667 15.7333 90 14 89.6 12.4C89.0667 9.46666 87.9333 7.26666 86.2 5.79999ZM17.6 121.6C18.2667 121.6 18.8 121.4 19.2 121C19.7333 120.467 20 119.867 20 119.2C20 118.533 19.7333 118 19.2 117.6C18.8 117.2 18.2667 117 17.6 117C16.9333 117 16.3333 117.2 15.8 117.6C15.4 118 15.2 118.533 15.2 119.2C15.2 119.867 15.4 120.467 15.8 121C16.3333 121.4 16.9333 121.6 17.6 121.6ZM17.6 103.8C18.2667 103.8 18.8 103.6 19.2 103.2C19.7333 102.8 20 102.267 20 101.6C20 100.933 19.7333 100.4 19.2 100C18.8 99.4667 18.2667 99.2 17.6 99.2C16.9333 99.2 16.3333 99.4667 15.8 100C15.4 100.4 15.2 100.933 15.2 101.6C15.2 102.267 15.4 102.8 15.8 103.2C16.3333 103.6 16.9333 103.8 17.6 103.8ZM17.6 86.8C18.2667 86.8 18.8 86.6 19.2 86.2C19.7333 85.6667 20 85.0667 20 84.4C20 83.7333 19.7333 83.2 19.2 82.8C18.8 82.4 18.2667 82.2 17.6 82.2C16.9333 82.2 16.3333 82.4 15.8 82.8C15.4 83.2 15.2 83.7333 15.2 84.4C15.2 85.0667 15.4 85.6667 15.8 86.2C16.3333 86.6 16.9333 86.8 17.6 86.8ZM17.6 69.6C18.2667 69.6 18.8 69.4 19.2 69C19.7333 68.4667 20 67.8667 20 67.2C20 66.5333 19.7333 66 19.2 65.6C18.8 65.2 18.2667 65 17.6 65C16.9333 65 16.3333 65.2 15.8 65.6C15.4 66 15.2 66.5333 15.2 67.2C15.2 67.8667 15.4 68.4667 15.8 69C16.3333 69.4 16.9333 69.6 17.6 69.6ZM17.8 52C19.2667 52 20 51.2667 20 49.8C20 48.3333 19.2667 47.6 17.8 47.6C16.2 47.6 15.4 48.3333 15.4 49.8C15.4 51.2667 16.2 52 17.8 52ZM15.2 32.6C15.2 33.2667 15.4 33.8667 15.8 34.4C16.3333 34.8 16.9333 35 17.6 35C18.2667 35 18.8 34.8 19.2 34.4C19.7333 33.8667 20 33.2667 20 32.6C20 31.9333 19.7333 31.4 19.2 31C18.8 30.6 18.2667 30.4 17.6 30.4C16.9333 30.4 16.3333 30.6 15.8 31C15.4 31.4 15.2 31.9333 15.2 32.6ZM17.8 17.8C18.4667 17.8 19 17.6 19.4 17.2C19.8 16.6667 20 16.0667 20 15.4C20 14.7333 19.8 14.2 19.4 13.8C19 13.2667 18.4667 13 17.8 13C17.1333 13 16.5333 13.2667 16 13.8C15.6 14.2 15.4 14.7333 15.4 15.4C15.4 16.0667 15.6 16.6667 16 17.2C16.5333 17.6 17.1333 17.8 17.8 17.8ZM27.6 40C29.2 40 30 39.2 30 37.6C30 36.9333 29.7333 36.4 29.2 36C28.8 35.4667 28.2667 35.2 27.6 35.2C26.9333 35.2 26.4 35.4667 26 36C25.6 36.4 25.4 36.9333 25.4 37.6C25.4 39.2 26.1333 40 27.6 40ZM33 56C33.6667 56 34.2 55.8 34.6 55.4C35.1333 55 35.4 54.4667 35.4 53.8C35.4 53.1333 35.1333 52.6 34.6 52.2C34.2 51.6667 33.6667 51.4 33 51.4C31.4 51.4 30.6 52.2 30.6 53.8C30.6 55.2667 31.4 56 33 56ZM38.8 71.8C40.4 71.8 41.2 71 41.2 69.4C41.2 67.9333 40.4 67.2 38.8 67.2C37.3333 67.2 36.6 67.9333 36.6 69.4C36.6 71 37.3333 71.8 38.8 71.8ZM46 87.6C47.4667 87.6 48.2 86.8667 48.2 85.4C48.2 83.8 47.4667 83 46 83C44.4 83 43.6 83.8 43.6 85.4C43.6 86.8667 44.4 87.6 46 87.6ZM53 103.2C54.4667 103.2 55.2 102.467 55.2 101C55.2 99.4 54.4667 98.6 53 98.6C51.4 98.6 50.6 99.4 50.6 101C50.6 102.467 51.4 103.2 53 103.2ZM60 119.2C61.6 119.2 62.4 118.467 62.4 117C62.4 116.333 62.1333 115.8 61.6 115.4C61.2 114.867 60.6667 114.6 60 114.6C59.3333 114.6 58.8 114.867 58.4 115.4C58 115.8 57.8 116.333 57.8 117C57.8 118.467 58.5333 119.2 60 119.2ZM67.8 103C69.2667 103 70 102.267 70 100.8C70 99.2 69.2667 98.4 67.8 98.4C66.3333 98.4 65.6 99.2 65.6 100.8C65.6 102.267 66.3333 103 67.8 103ZM74.6 87.6C75.2667 87.6 75.8 87.4 76.2 87C76.6 86.4667 76.8 85.8667 76.8 85.2C76.8 84.5333 76.6 84 76.2 83.6C75.8 83.0667 75.2667 82.8 74.6 82.8C73.9333 82.8 73.4 83.0667 73 83.6C72.6 84 72.4 84.5333 72.4 85.2C72.4 85.8667 72.6 86.4667 73 87C73.4 87.4 73.9333 87.6 74.6 87.6ZM81.4 71.6C82.0667 71.6 82.6 71.4 83 71C83.5333 70.6 83.8 70.0667 83.8 69.4C83.8 68.7333 83.5333 68.2 83 67.8C82.6 67.2667 82.0667 67 81.4 67C79.9333 67 79.2 67.8 79.2 69.4C79.2 70.8667 79.9333 71.6 81.4 71.6ZM104.2 13.2C103.533 13.2 102.933 13.4 102.4 13.8C102 14.2 101.8 14.7333 101.8 15.4C101.8 16.0667 102 16.6667 102.4 17.2C102.933 17.6 103.533 17.8 104.2 17.8C104.867 17.8 105.4 17.6 105.8 17.2C106.333 16.6667 106.6 16.0667 106.6 15.4C106.6 14.7333 106.333 14.2 105.8 13.8C105.4 13.4 104.867 13.2 104.2 13.2ZM104 30.4C102.533 30.4 101.8 31.2 101.8 32.8C101.8 33.4667 102 34.0667 102.4 34.6C102.8 35 103.333 35.2 104 35.2C104.667 35.2 105.2 35 105.6 34.6C106.133 34.0667 106.4 33.4667 106.4 32.8C106.4 32.1333 106.133 31.6 105.6 31.2C105.2 30.6667 104.667 30.4 104 30.4ZM106.6 50C106.6 49.3333 106.333 48.8 105.8 48.4C105.4 47.8667 104.867 47.6 104.2 47.6C103.533 47.6 102.933 47.8667 102.4 48.4C102 48.8 101.8 49.3333 101.8 50C101.8 50.6667 102 51.2 102.4 51.6C102.933 52 103.533 52.2 104.2 52.2C104.867 52.2 105.4 52 105.8 51.6C106.333 51.2 106.6 50.6667 106.6 50ZM104 65C102.533 65 101.8 65.7333 101.8 67.2C101.8 68.8 102.533 69.6 104 69.6C104.667 69.6 105.2 69.4 105.6 69C106.133 68.4667 106.4 67.8667 106.4 67.2C106.4 66.5333 106.133 66 105.6 65.6C105.2 65.2 104.667 65 104 65ZM104 82.2C103.333 82.2 102.8 82.4667 102.4 83C102 83.4 101.8 83.9333 101.8 84.6C101.8 85.2667 102 85.8667 102.4 86.4C102.8 86.8 103.333 87 104 87C104.667 87 105.2 86.8 105.6 86.4C106.133 85.8667 106.4 85.2667 106.4 84.6C106.4 83.9333 106.133 83.4 105.6 83C105.2 82.4667 104.667 82.2 104 82.2ZM104 99.2C103.333 99.2 102.8 99.4667 102.4 100C102 100.4 101.8 100.933 101.8 101.6C101.8 102.267 102 102.867 102.4 103.4C102.8 103.8 103.333 104 104 104C104.667 104 105.2 103.8 105.6 103.4C106.133 102.867 106.4 102.267 106.4 101.6C106.4 100.933 106.133 100.4 105.6 100C105.2 99.4667 104.667 99.2 104 99.2ZM104 117C102.533 117 101.8 117.8 101.8 119.4C101.8 120.867 102.533 121.6 104 121.6C104.667 121.6 105.2 121.4 105.6 121C106.133 120.6 106.4 120.067 106.4 119.4C106.4 118.733 106.133 118.2 105.6 117.8C105.2 117.267 104.667 117 104 117ZM95.2 35C93.6 35 92.8 35.7333 92.8 37.2C92.8 38.8 93.6 39.6 95.2 39.6C96.6667 39.6 97.4 38.8 97.4 37.2C97.4 35.7333 96.6667 35 95.2 35ZM90.6 52.4C90.6 50.9333 89.8667 50.2 88.4 50.2C87.7333 50.2 87.1333 50.4 86.6 50.8C86.2 51.2 86 51.7333 86 52.4C86 53.0667 86.2 53.6667 86.6 54.2C87.1333 54.6 87.7333 54.8 88.4 54.8C89.8667 54.8 90.6 54 90.6 52.4ZM237.008 16.4C237.541 16.4 237.808 16.6 237.808 17C237.941 17.2667 237.874 17.5333 237.608 17.8C234.808 20.2 233.408 25.2667 233.408 33V41.4V45C233.408 45.4 233.208 45.6667 232.808 45.8C232.541 45.9333 232.274 45.8 232.008 45.4C229.741 42.7333 224.674 41.4 216.808 41.4H175.408V49.6V57.2H192.408C200.141 57.2 205.208 55.8 207.608 53C207.874 52.7333 208.141 52.6667 208.408 52.8C208.808 52.8 209.008 53.0667 209.008 53.6V57.2V65.6V82.2V85.6C209.008 86.1333 208.808 86.4667 208.408 86.6C208.141 86.7333 207.874 86.6 207.608 86.2C205.341 83.5333 200.274 82.2 192.408 82.2H167.408V90.4V107H169.808V93.4V85H194.608C202.341 85 207.408 86.4 209.808 89.2C210.074 89.6 210.408 89.7333 210.808 89.6C211.208 89.4667 211.408 89.1333 211.408 88.6V85V68.4V64.8C213.141 64 214.474 63.1333 215.408 62.2C215.674 61.8 215.941 61.6667 216.208 61.8C216.608 61.9333 216.808 62.2667 216.808 62.8V66.2V74.6V91.2V94.8C216.808 95.3333 216.608 95.6667 216.208 95.8C215.941 95.8 215.674 95.6667 215.408 95.4C213.008 92.6 207.941 91.2 200.208 91.2H175.408V99.6V107H209.008C216.741 107 221.808 105.667 224.208 103C224.474 102.6 224.741 102.467 225.008 102.6C225.408 102.6 225.608 102.867 225.608 103.4V107V115.4C225.608 123.267 226.941 128.333 229.608 130.6C230.008 130.867 230.141 131.2 230.008 131.6C230.008 131.867 229.741 132 229.208 132H138.808C138.408 132 138.141 131.867 138.008 131.6C137.874 131.2 138.008 130.867 138.408 130.6C141.074 128.2 142.408 123.133 142.408 115.4V107V24C142.408 12.9333 139.674 7.39999 134.208 7.39999H229.208C229.741 7.39999 230.008 7.59999 230.008 8C230.141 8.26666 230.008 8.53333 229.608 8.8C226.941 11.0667 225.608 16.1333 225.608 24V32.2V35.8C225.608 36.3333 225.408 36.6667 225.008 36.8C224.741 36.9333 224.474 36.8 224.208 36.4C221.808 33.6 216.741 32.2 209.008 32.2H167.408V40.6V57.2H169.808V43.6V35.2H211.408C219.141 35.2 224.141 36.6 226.408 39.4C226.674 39.6667 227.008 39.8 227.408 39.8C227.808 39.6667 228.008 39.3333 228.008 38.8V35.2V26.8C228.008 22.5333 228.408 19.0667 229.208 16.4H237.008ZM215.808 17C215.141 17 214.541 17.2667 214.008 17.8C213.608 18.2 213.408 18.7333 213.408 19.4C213.408 20.0667 213.608 20.6 214.008 21C214.541 21.4 215.141 21.6 215.808 21.6C217.274 21.6 218.008 20.8667 218.008 19.4C218.008 18.7333 217.808 18.2 217.408 17.8C217.008 17.2667 216.474 17 215.808 17ZM200.808 17C200.141 17 199.608 17.2667 199.208 17.8C198.808 18.2 198.608 18.7333 198.608 19.4C198.608 20.8667 199.341 21.6 200.808 21.6C201.474 21.6 202.008 21.4 202.408 21C202.941 20.6 203.208 20.0667 203.208 19.4C203.208 18.7333 202.941 18.2 202.408 17.8C202.008 17.2667 201.474 17 200.808 17ZM185.608 17C184.941 17 184.341 17.2667 183.808 17.8C183.408 18.2 183.208 18.7333 183.208 19.4C183.208 20.8667 184.008 21.6 185.608 21.6C187.074 21.6 187.808 20.8667 187.808 19.4C187.808 18.7333 187.608 18.2 187.208 17.8C186.808 17.2667 186.274 17 185.608 17ZM170.008 17C169.341 17 168.741 17.2667 168.208 17.8C167.808 18.2 167.608 18.7333 167.608 19.4C167.608 20.8667 168.408 21.6 170.008 21.6C171.474 21.6 172.208 20.8667 172.208 19.4C172.208 18.7333 172.008 18.2 171.608 17.8C171.208 17.2667 170.674 17 170.008 17ZM215.808 118.8C214.341 118.8 213.608 119.6 213.608 121.2C213.608 122.667 214.341 123.4 215.808 123.4C216.474 123.4 217.008 123.2 217.408 122.8C217.941 122.4 218.208 121.867 218.208 121.2C218.208 120.533 217.941 120 217.408 119.6C217.008 119.067 216.474 118.8 215.808 118.8ZM199.808 118.8C198.341 118.8 197.608 119.6 197.608 121.2C197.608 122.667 198.341 123.4 199.808 123.4C201.274 123.4 202.008 122.667 202.008 121.2C202.008 119.6 201.274 118.8 199.808 118.8ZM184.408 118.8C182.941 118.8 182.208 119.6 182.208 121.2C182.208 122.667 182.941 123.4 184.408 123.4C186.008 123.4 186.808 122.667 186.808 121.2C186.808 119.6 186.008 118.8 184.408 118.8ZM200.008 67.8C199.341 67.8 198.741 68.0667 198.208 68.6C197.808 69 197.608 69.5333 197.608 70.2C197.608 71.6667 198.408 72.4 200.008 72.4C201.474 72.4 202.208 71.6667 202.208 70.2C202.208 69.5333 202.008 69 201.608 68.6C201.208 68.0667 200.674 67.8 200.008 67.8ZM184.608 67.8C183.941 67.8 183.408 68.0667 183.008 68.6C182.608 69 182.408 69.5333 182.408 70.2C182.408 71.6667 183.141 72.4 184.608 72.4C186.074 72.4 186.808 71.6667 186.808 70.2C186.808 69.5333 186.608 69 186.208 68.6C185.808 68.0667 185.274 67.8 184.608 67.8ZM154.208 123.4C155.674 123.4 156.408 122.667 156.408 121.2C156.408 119.6 155.674 118.8 154.208 118.8C152.608 118.8 151.808 119.6 151.808 121.2C151.808 122.667 152.608 123.4 154.208 123.4ZM154.208 106C155.674 106 156.408 105.267 156.408 103.8C156.408 102.333 155.674 101.6 154.208 101.6C152.608 101.6 151.808 102.333 151.808 103.8C151.808 105.267 152.608 106 154.208 106ZM154.208 89.4C155.674 89.4 156.408 88.6 156.408 87C156.408 85.5333 155.674 84.8 154.208 84.8C152.608 84.8 151.808 85.5333 151.808 87C151.808 88.6 152.608 89.4 154.208 89.4ZM154.208 72.4C155.674 72.4 156.408 71.6667 156.408 70.2C156.408 69.5333 156.208 69 155.808 68.6C155.408 68.0667 154.874 67.8 154.208 67.8C153.541 67.8 152.941 68.0667 152.408 68.6C152.008 69 151.808 69.5333 151.808 70.2C151.808 71.6667 152.608 72.4 154.208 72.4ZM154.208 55.4C154.874 55.4 155.408 55.2 155.808 54.8C156.341 54.2667 156.608 53.6667 156.608 53C156.608 52.3333 156.341 51.8 155.808 51.4C155.408 51 154.874 50.8 154.208 50.8C152.741 50.8 152.008 51.5333 152.008 53C152.008 54.6 152.741 55.4 154.208 55.4ZM151.808 36.2C151.808 37.8 152.608 38.6 154.208 38.6C155.674 38.6 156.408 37.8 156.408 36.2C156.408 34.7333 155.674 34 154.208 34C152.608 34 151.808 34.7333 151.808 36.2ZM154.208 21.6C154.874 21.6 155.408 21.4 155.808 21C156.341 20.6 156.608 20.0667 156.608 19.4C156.608 18.7333 156.341 18.2 155.808 17.8C155.408 17.2667 154.874 17 154.208 17C153.541 17 153.008 17.2667 152.608 17.8C152.208 18.2 152.008 18.7333 152.008 19.4C152.008 20.8667 152.741 21.6 154.208 21.6ZM169.408 118.8C167.941 118.8 167.208 119.6 167.208 121.2C167.208 122.667 167.941 123.4 169.408 123.4C170.074 123.4 170.608 123.2 171.008 122.8C171.541 122.4 171.808 121.867 171.808 121.2C171.808 120.533 171.541 120 171.008 119.6C170.608 119.067 170.074 118.8 169.408 118.8ZM169.608 72.4C171.074 72.4 171.808 71.6667 171.808 70.2C171.808 69.5333 171.608 69 171.208 68.6C170.808 68.0667 170.274 67.8 169.608 67.8C168.941 67.8 168.341 68.0667 167.808 68.6C167.408 69 167.208 69.5333 167.208 70.2C167.208 71.6667 168.008 72.4 169.608 72.4ZM233.408 124.4C233.408 132.4 234.808 137.467 237.608 139.6C237.874 139.867 237.941 140.2 237.808 140.6C237.808 140.867 237.541 141 237.008 141H146.808C146.274 141 145.941 140.867 145.808 140.6C145.808 140.2 145.941 139.867 146.208 139.6C147.408 138.533 148.341 137 149.008 135H231.608C232.008 135 232.274 134.867 232.408 134.6C232.541 134.2 232.474 133.867 232.208 133.6C229.408 131.2 228.008 126.133 228.008 118.4V114.6C228.941 114.333 229.674 114 230.208 113.6C230.874 113.067 231.474 112.533 232.008 112C232.274 111.6 232.541 111.467 232.808 111.6C233.208 111.733 233.408 112.067 233.408 112.6V116.2V124.4ZM335.75 24.4C335.75 20 336.217 16.4667 337.15 13.8H341.35H345.15C345.55 13.8 345.817 14 345.95 14.4C346.083 14.6667 345.95 14.9333 345.55 15.2C342.75 17.6 341.35 22.8 341.35 30.8V39.2V42.8C341.35 43.4667 341.15 43.8667 340.75 44C340.483 44 340.15 43.8 339.75 43.4C337.483 40.6 332.35 39.2 324.35 39.2H311.55V54.8V81.8V114.4V124C311.55 132 312.95 137.2 315.75 139.6C316.15 139.867 316.283 140.2 316.15 140.6C316.017 140.867 315.683 141 315.15 141H282.35C281.817 141 281.483 140.867 281.35 140.6C281.35 140.2 281.55 139.867 281.95 139.6C283.15 138.533 284.083 136.933 284.75 134.8H309.55C310.083 134.8 310.417 134.667 310.55 134.4C310.683 134 310.55 133.6 310.15 133.2C307.217 130.933 305.75 125.8 305.75 117.8V108.2V75.4V48.4V33H318.75C326.75 33 331.883 34.4 334.15 37.2C334.55 37.6 334.883 37.7333 335.15 37.6C335.55 37.4667 335.75 37.1333 335.75 36.6V33V24.4ZM248.15 21.4C248.15 13.5333 246.75 8.4 243.95 6C243.55 5.73333 243.417 5.46666 243.55 5.2C243.683 4.79999 244.017 4.59999 244.55 4.59999H248.15H273.55H294.95H311.95H333.35H336.95C337.483 4.59999 337.817 4.79999 337.95 5.2C338.083 5.46666 337.95 5.73333 337.55 6C334.75 8.4 333.35 13.5333 333.35 21.4V30V33.6C333.35 34.1333 333.15 34.4667 332.75 34.6C332.483 34.7333 332.217 34.6 331.95 34.2C329.55 31.4 324.35 30 316.35 30H303.55V45.4V72.4V105V114.8C303.55 122.667 304.883 127.8 307.55 130.2C308.617 131.267 308.483 131.8 307.15 131.8H274.35C273.817 131.8 273.483 131.667 273.35 131.4C273.217 131 273.35 130.6 273.75 130.2C276.55 127.8 277.95 122.667 277.95 114.8V39.2H273.15C265.283 39.2 260.15 40.6 257.75 43.4C257.35 43.8 256.95 44 256.55 44C256.283 43.8667 256.15 43.4667 256.15 42.8V39.2V34.6C258.683 33.5333 262.483 33 267.55 33H277.95V30H265.15C257.15 30 251.95 31.4 249.55 34.2C249.283 34.6 248.95 34.7333 248.55 34.6C248.283 34.4667 248.15 34.1333 248.15 33.6V30V21.4ZM323.55 13.4C322.883 13.4 322.283 13.6667 321.75 14.2C321.35 14.6 321.15 15.1333 321.15 15.8C321.15 16.4667 321.35 17 321.75 17.4C322.283 17.8 322.883 18 323.55 18C324.217 18 324.75 17.8 325.15 17.4C325.683 17 325.95 16.4667 325.95 15.8C325.95 15.1333 325.683 14.6 325.15 14.2C324.75 13.6667 324.217 13.4 323.55 13.4ZM307.35 13.4C305.75 13.4 304.95 14.2 304.95 15.8C304.95 17.2667 305.75 18 307.35 18C308.817 18 309.55 17.2667 309.55 15.8C309.55 14.2 308.817 13.4 307.35 13.4ZM290.95 13.4C289.483 13.4 288.75 14.2 288.75 15.8C288.75 17.2667 289.483 18 290.95 18C292.55 18 293.35 17.2667 293.35 15.8C293.35 14.2 292.55 13.4 290.95 13.4ZM290.75 30.6C289.283 30.6 288.55 31.4 288.55 33C288.55 33.6667 288.75 34.2667 289.15 34.8C289.55 35.2 290.083 35.4 290.75 35.4C291.417 35.4 291.95 35.2 292.35 34.8C292.883 34.2667 293.15 33.6667 293.15 33C293.15 31.4 292.35 30.6 290.75 30.6ZM293.35 50.2C293.35 48.6 292.55 47.8 290.95 47.8C289.483 47.8 288.75 48.6 288.75 50.2C288.75 51.6667 289.483 52.4 290.95 52.4C292.55 52.4 293.35 51.6667 293.35 50.2ZM290.75 65.2C289.283 65.2 288.55 66 288.55 67.6C288.55 69.0667 289.283 69.8 290.75 69.8C292.35 69.8 293.15 69.0667 293.15 67.6C293.15 66 292.35 65.2 290.75 65.2ZM290.75 82.4C290.083 82.4 289.55 82.6667 289.15 83.2C288.75 83.6 288.55 84.1333 288.55 84.8C288.55 85.4667 288.75 86.0667 289.15 86.6C289.55 87 290.083 87.2 290.75 87.2C291.417 87.2 291.95 87 292.35 86.6C292.883 86.0667 293.15 85.4667 293.15 84.8C293.15 84.1333 292.883 83.6 292.35 83.2C291.95 82.6667 291.417 82.4 290.75 82.4ZM290.75 99.6C289.283 99.6 288.55 100.333 288.55 101.8C288.55 102.467 288.75 103.067 289.15 103.6C289.55 104 290.083 104.2 290.75 104.2C291.417 104.2 291.95 104 292.35 103.6C292.883 103.067 293.15 102.467 293.15 101.8C293.15 100.333 292.35 99.6 290.75 99.6ZM290.75 117.2C289.283 117.2 288.55 118 288.55 119.6C288.55 121.067 289.283 121.8 290.75 121.8C292.35 121.8 293.15 121.067 293.15 119.6C293.15 118 292.35 117.2 290.75 117.2ZM274.55 13.4C273.083 13.4 272.35 14.2 272.35 15.8C272.35 17.2667 273.083 18 274.55 18C276.15 18 276.95 17.2667 276.95 15.8C276.95 14.2 276.15 13.4 274.55 13.4ZM258.35 13.4C256.75 13.4 255.95 14.2 255.95 15.8C255.95 17.2667 256.75 18 258.35 18C259.817 18 260.55 17.2667 260.55 15.8C260.55 14.2 259.817 13.4 258.35 13.4ZM426.405 24.6C426.005 22.3333 425.671 20.3333 425.405 18.6C425.271 16.7333 425.338 15.0667 425.605 13.6H432.605C433.138 13.6 433.471 13.8 433.605 14.2C433.738 14.6 433.605 14.9333 433.205 15.2C430.805 17.6 430.405 22.8 432.005 30.8L441.805 53.4C445.938 63 448.005 73.0667 448.005 83.6V98.6V124C448.005 132 449.338 137.133 452.005 139.4C453.071 140.467 452.938 141 451.605 141H418.805C418.271 141 417.938 140.867 417.805 140.6C417.671 140.2 417.805 139.8 418.205 139.4C418.871 138.867 419.405 138.267 419.805 137.6C420.338 136.8 420.805 135.867 421.205 134.8H446.005C446.538 134.8 446.805 134.6 446.805 134.2C446.938 133.8 446.805 133.467 446.405 133.2C443.605 130.8 442.205 125.667 442.205 117.8V92.2V77.2C442.205 71.8667 441.738 66.8 440.805 62C439.871 57.0667 438.338 52.1333 436.205 47.2L426.405 24.6ZM410.205 130.2C413.005 127.8 414.405 122.667 414.405 114.8V107H388.405V124C388.405 131.867 389.805 137 392.605 139.4C393.138 139.8 393.338 140.2 393.205 140.6C393.071 140.867 392.738 141 392.205 141H359.405C358.205 141 358.005 140.467 358.805 139.4C360.005 138.467 361.005 136.933 361.805 134.8H386.605C387.138 134.8 387.405 134.6 387.405 134.2C387.538 133.8 387.405 133.467 387.005 133.2C384.205 130.667 382.805 125.533 382.805 117.8V100.8H414.405V97.8H380.405V114.8C380.405 122.667 381.805 127.8 384.605 130.2C385.005 130.467 385.138 130.8 385.005 131.2C384.871 131.467 384.605 131.6 384.205 131.6H351.405C350.871 131.6 350.538 131.467 350.405 131.2C350.271 130.8 350.405 130.467 350.805 130.2C353.605 127.8 355.005 122.667 355.005 114.8V89.2V74.2C355.005 63.8 357.071 53.8 361.205 44.2L370.805 21.6C372.405 13.4667 372.005 8.19999 369.605 5.79999C369.338 5.53333 369.271 5.26666 369.405 5C369.538 4.6 369.805 4.39999 370.205 4.39999H424.605C425.138 4.39999 425.405 4.6 425.405 5C425.538 5.26666 425.471 5.53333 425.205 5.79999C422.805 8.19999 422.405 13.4667 424.005 21.6L433.605 44.2C437.738 53.8 439.805 63.8 439.805 74.2V89.2V114.8C439.805 122.667 441.205 127.8 444.005 130.2C444.405 130.467 444.538 130.8 444.405 131.2C444.405 131.467 444.071 131.6 443.405 131.6H410.805C410.271 131.6 409.938 131.467 409.805 131.2C409.671 130.8 409.805 130.467 410.205 130.2ZM422.605 83.4C422.605 84.0667 422.805 84.6667 423.205 85.2C423.738 85.6 424.338 85.8 425.005 85.8C425.671 85.8 426.205 85.6 426.605 85.2C427.005 84.6667 427.205 84.0667 427.205 83.4C427.205 82.7333 427.005 82.2 426.605 81.8C426.205 81.2667 425.671 81 425.005 81C424.338 81 423.738 81.2667 423.205 81.8C422.805 82.2 422.605 82.7333 422.605 83.4ZM426.005 121C427.605 121 428.405 120.267 428.405 118.8C428.405 117.2 427.605 116.4 426.005 116.4C424.538 116.4 423.805 117.2 423.805 118.8C423.805 120.267 424.538 121 426.005 121ZM428.405 100.4C428.405 99.7333 428.138 99.2 427.605 98.8C427.205 98.2667 426.671 98 426.005 98C425.338 98 424.805 98.2667 424.405 98.8C424.005 99.2 423.805 99.7333 423.805 100.4C423.805 101.067 424.005 101.667 424.405 102.2C424.805 102.6 425.338 102.8 426.005 102.8C426.671 102.8 427.205 102.6 427.605 102.2C428.138 101.667 428.405 101.067 428.405 100.4ZM425.005 63.2C423.405 63.2 422.605 64 422.605 65.6C422.605 67.0667 423.405 67.8 425.005 67.8C426.471 67.8 427.205 67.0667 427.205 65.6C427.205 64 426.471 63.2 425.005 63.2ZM421.205 45.8C420.538 45.8 419.938 46.0667 419.405 46.6C419.005 47 418.805 47.5333 418.805 48.2C418.805 48.8667 419.005 49.4667 419.405 50C419.938 50.4 420.538 50.6 421.205 50.6C421.871 50.6 422.405 50.4 422.805 50C423.205 49.4667 423.405 48.8667 423.405 48.2C423.405 47.5333 423.205 47 422.805 46.6C422.405 46.0667 421.871 45.8 421.205 45.8ZM409.205 12.6C407.738 12.6 407.005 13.4 407.005 15C407.005 16.4667 407.738 17.2 409.205 17.2C410.805 17.2 411.605 16.4667 411.605 15C411.605 13.4 410.805 12.6 409.205 12.6ZM385.605 14.2C384.005 14.2 383.205 15 383.205 16.6C383.205 18.0667 384.005 18.8 385.605 18.8C386.271 18.8 386.805 18.6 387.205 18.2C387.738 17.8 388.005 17.2667 388.005 16.6C388.005 15.9333 387.738 15.4 387.205 15C386.805 14.4667 386.271 14.2 385.605 14.2ZM367.805 121.6C368.471 121.6 369.005 121.4 369.405 121C369.938 120.467 370.205 119.867 370.205 119.2C370.205 118.533 369.938 118 369.405 117.6C369.005 117.2 368.471 117 367.805 117C366.205 117 365.405 117.733 365.405 119.2C365.405 120.8 366.205 121.6 367.805 121.6ZM368.205 103.8C369.938 103.8 370.805 103.067 370.805 101.6C370.805 100 369.938 99.2 368.205 99.2C367.538 99.2 366.938 99.4667 366.405 100C366.005 100.4 365.805 100.933 365.805 101.6C365.805 102.267 366.005 102.8 366.405 103.2C366.938 103.6 367.538 103.8 368.205 103.8ZM368.205 86.4C368.871 86.4 369.471 86.2 370.005 85.8C370.538 85.2667 370.805 84.6667 370.805 84C370.805 83.3333 370.538 82.8 370.005 82.4C369.471 81.8667 368.871 81.6 368.205 81.6C367.538 81.6 366.938 81.8667 366.405 82.4C366.005 82.8 365.805 83.3333 365.805 84C365.805 84.6667 366.005 85.2667 366.405 85.8C366.938 86.2 367.538 86.4 368.205 86.4ZM369.405 69C371.005 69 371.805 68.2 371.805 66.6C371.805 65.1333 371.005 64.4 369.405 64.4C368.738 64.4 368.138 64.6 367.605 65C367.205 65.4 367.005 65.9333 367.005 66.6C367.005 67.2667 367.205 67.8667 367.605 68.4C368.138 68.8 368.738 69 369.405 69ZM371.605 52.2C372.271 52.2 372.805 52 373.205 51.6C373.738 51.0667 374.005 50.4667 374.005 49.8C374.005 49.1333 373.738 48.6 373.205 48.2C372.805 47.6667 372.271 47.4 371.605 47.4C370.938 47.4 370.405 47.6667 370.005 48.2C369.605 48.6 369.405 49.1333 369.405 49.8C369.405 50.4667 369.605 51.0667 370.005 51.6C370.405 52 370.938 52.2 371.605 52.2ZM379.405 35C380.071 35 380.605 34.8 381.005 34.4C381.538 33.8667 381.805 33.2667 381.805 32.6C381.805 31.9333 381.538 31.4 381.005 31C380.605 30.6 380.071 30.4 379.405 30.4C377.805 30.4 377.005 31.1333 377.005 32.6C377.005 34.2 377.805 35 379.405 35ZM383.205 72.4C383.605 67.0667 384.871 62 387.005 57.2L399.405 28.6L397.405 24.2L384.605 54.2C382.071 59.9333 380.738 66 380.605 72.4H383.205ZM387.205 86.4C387.871 86.4 388.405 86.2 388.805 85.8C389.338 85.2667 389.605 84.6667 389.605 84C389.605 83.3333 389.338 82.8 388.805 82.4C388.405 81.8667 387.871 81.6 387.205 81.6C386.538 81.6 385.938 81.8667 385.405 82.4C385.005 82.8 384.805 83.3333 384.805 84C384.805 84.6667 385.005 85.2667 385.405 85.8C385.938 86.2 386.538 86.4 387.205 86.4ZM406.405 86.4C407.071 86.4 407.605 86.2 408.005 85.8C408.538 85.2667 408.805 84.6667 408.805 84C408.805 83.3333 408.538 82.8 408.005 82.4C407.605 82 407.071 81.8 406.405 81.8C404.805 81.8 404.005 82.5333 404.005 84C404.005 85.6 404.805 86.4 406.405 86.4ZM414.405 72.4C414.271 69.0667 413.871 66 413.205 63.2C412.538 60.2667 411.538 57.2667 410.205 54.2L403.405 38.2L392.605 63.6C391.271 66.6667 390.338 69.6 389.805 72.4H414.405ZM412.405 31C412.405 31.6667 412.605 32.2667 413.005 32.8C413.538 33.2 414.138 33.4 414.805 33.4C415.471 33.4 416.005 33.2 416.405 32.8C416.805 32.2667 417.005 31.6667 417.005 31C417.005 30.3333 416.805 29.8 416.405 29.4C416.005 28.8667 415.471 28.6 414.805 28.6C414.138 28.6 413.538 28.8667 413.005 29.4C412.605 29.8 412.405 30.3333 412.405 31ZM556.017 45.8C556.017 41.5333 555.351 37.5333 554.017 33.8C552.817 30.0667 551.084 26.6667 548.817 23.6C552.684 27.0667 555.751 31.2667 558.017 36.2C560.417 41.1333 561.617 46.4 561.617 52H536.217H532.617C531.551 52 531.284 51.5333 531.817 50.6C532.751 49 533.017 47.4 532.617 45.8H556.017ZM561.617 103C561.617 108.2 560.617 113.133 558.617 117.8C556.617 122.467 553.884 126.533 550.417 130C546.951 133.333 542.884 136 538.217 138C533.684 140 528.751 141 523.417 141H515.017H506.417C500.017 141 494.084 139.6 488.617 136.8C483.284 133.867 478.884 130 475.417 125.2C478.884 128.267 482.751 130.667 487.017 132.4C491.284 134 495.884 134.8 500.817 134.8H509.217H517.817C523.151 134.8 528.084 133.8 532.617 131.8C537.284 129.8 541.351 127.067 544.817 123.6C548.284 120.133 551.017 116.133 553.017 111.6C555.017 106.933 556.017 101.933 556.017 96.6C556.017 92.4667 555.351 88.5333 554.017 84.8C552.817 80.9333 551.084 77.4667 548.817 74.4C552.684 77.8667 555.751 82.0667 558.017 87C560.417 91.9333 561.617 97.2667 561.617 103ZM489.417 93.6C490.217 93.6 490.484 94 490.217 94.8C489.017 96.9333 488.751 98.8667 489.417 100.6C490.217 102.333 491.151 103.667 492.217 104.6C491.951 103.8 491.817 103.267 491.817 103H493.817H497.417C498.351 103 498.617 103.4 498.217 104.2C497.951 104.6 497.751 105 497.617 105.4C497.484 105.667 497.417 106 497.417 106.4H498.417H507.017H515.417C518.884 106.4 521.817 105.133 524.217 102.6C526.751 100.067 528.017 97.0667 528.017 93.6C528.017 92.4 527.951 91.5333 527.817 91C526.617 90.4667 525.151 90.2 523.417 90.2H515.017H506.417C500.017 90.2 494.084 88.8 488.617 86C483.284 83.0667 478.884 79.1333 475.417 74.2C478.884 77.2667 482.751 79.6667 487.017 81.4C491.284 83.1333 495.884 84 500.817 84H509.217H517.817C521.017 84 523.884 85.0667 526.417 87.2C525.351 85.3333 523.817 83.8 521.817 82.6C519.951 81.4 517.817 80.8 515.417 80.8H507.017H498.417C493.084 80.8 488.084 79.8 483.417 77.8C478.884 75.8 474.884 73.1333 471.417 69.8C467.951 66.3333 465.217 62.2667 463.217 57.6C461.217 52.9333 460.217 48 460.217 42.8C460.217 37.4667 461.217 32.5333 463.217 28C465.217 23.3333 467.951 19.2667 471.417 15.8C474.884 12.3333 478.884 9.59999 483.417 7.59999C488.084 5.59999 493.084 4.59999 498.417 4.59999H507.017H515.417C520.617 4.59999 525.551 5.59999 530.217 7.59999C534.884 9.59999 538.951 12.3333 542.417 15.8C545.884 19.2667 548.617 23.3333 550.617 28C552.617 32.5333 553.617 37.4667 553.617 42.8H528.017H524.417C523.484 42.8 523.284 42.3333 523.817 41.4C523.951 41.1333 524.084 40.8 524.217 40.4C524.351 40 524.484 39.6 524.617 39.2H523.417H515.017H506.417C502.951 39.2 499.951 40.4667 497.417 43C495.017 45.5333 493.817 48.5333 493.817 52C493.817 52.4 493.817 52.8667 493.817 53.4C493.817 53.8 493.884 54.2 494.017 54.6C495.217 55.1333 496.684 55.4 498.417 55.4H507.017H515.417C520.617 55.4 525.551 56.4 530.217 58.4C534.884 60.4 538.951 63.1333 542.417 66.6C545.884 70.0667 548.617 74.1333 550.617 78.8C552.617 83.4667 553.617 88.4 553.617 93.6C553.617 98.8 552.617 103.733 550.617 108.4C548.617 113.067 545.884 117.133 542.417 120.6C538.951 124.067 534.884 126.8 530.217 128.8C525.551 130.8 520.617 131.8 515.417 131.8H507.017H498.417C493.084 131.8 488.084 130.8 483.417 128.8C478.884 126.8 474.884 124.067 471.417 120.6C467.951 117.133 465.217 113.067 463.217 108.4C461.217 103.733 460.217 98.8 460.217 93.6H485.617H489.417ZM478.417 107.4C479.884 107.4 480.617 106.667 480.617 105.2C480.617 103.733 479.884 103 478.417 103C476.817 103 476.017 103.733 476.017 105.2C476.017 106.667 476.817 107.4 478.417 107.4ZM539.417 31.6C537.951 31.6 537.217 32.3333 537.217 33.8C537.217 35.4 537.951 36.2 539.417 36.2C540.884 36.2 541.617 35.4 541.617 33.8C541.617 32.3333 540.884 31.6 539.417 31.6ZM527.217 17.4C526.551 17.4 525.951 17.6667 525.417 18.2C525.017 18.6 524.817 19.1333 524.817 19.8C524.817 20.4667 525.017 21 525.417 21.4C525.951 21.8 526.551 22 527.217 22C527.884 22 528.417 21.8 528.817 21.4C529.351 21 529.617 20.4667 529.617 19.8C529.617 19.1333 529.351 18.6 528.817 18.2C528.417 17.6667 527.884 17.4 527.217 17.4ZM510.017 14C508.551 14 507.817 14.8 507.817 16.4C507.817 17.8667 508.551 18.6 510.017 18.6C511.617 18.6 512.417 17.8667 512.417 16.4C512.417 14.8 511.617 14 510.017 14ZM492.217 14C490.751 14 490.017 14.8 490.017 16.4C490.017 17.8667 490.751 18.6 492.217 18.6C493.817 18.6 494.617 17.8667 494.617 16.4C494.617 14.8 493.817 14 492.217 14ZM478.217 24.4C477.551 24.4 477.017 24.6667 476.617 25.2C476.217 25.6 476.017 26.1333 476.017 26.8C476.017 28.2667 476.751 29 478.217 29C478.884 29 479.417 28.8 479.817 28.4C480.351 28 480.617 27.4667 480.617 26.8C480.617 26.1333 480.351 25.6 479.817 25.2C479.417 24.6667 478.884 24.4 478.217 24.4ZM474.817 45.2C476.284 45.2 477.017 44.4 477.017 42.8C477.017 41.3333 476.284 40.6 474.817 40.6C473.217 40.6 472.417 41.3333 472.417 42.8C472.417 44.4 473.217 45.2 474.817 45.2ZM480.617 61C482.084 61 482.817 60.2667 482.817 58.8C482.817 57.2 482.084 56.4 480.617 56.4C479.017 56.4 478.217 57.2 478.217 58.8C478.217 60.2667 479.017 61 480.617 61ZM489.817 52.2C488.751 50.0667 488.217 47.9333 488.217 45.8C488.217 42.3333 489.417 39.3333 491.817 36.8C494.351 34.2667 497.351 33 500.817 33H509.217H517.817C519.284 33 521.017 33.3333 523.017 34C523.417 34.4 523.751 34.6667 524.017 34.8C522.951 33.2 521.751 31.9333 520.417 31C518.684 30.3333 517.017 30 515.417 30H507.017H498.417C494.951 30 491.951 31.2667 489.417 33.8C486.884 36.2 485.617 39.2 485.617 42.8C485.617 46.5333 487.017 49.6667 489.817 52.2ZM494.617 70.4C495.284 70.4 495.817 70.2 496.217 69.8C496.751 69.2667 497.017 68.6667 497.017 68C497.017 67.3333 496.751 66.8 496.217 66.4C495.817 66 495.284 65.8 494.617 65.8C493.951 65.8 493.351 66 492.817 66.4C492.417 66.8 492.217 67.3333 492.217 68C492.217 68.6667 492.417 69.2667 492.817 69.8C493.351 70.2 493.951 70.4 494.617 70.4ZM512.417 70.4C513.884 70.4 514.617 69.6 514.617 68C514.617 66.5333 513.884 65.8 512.417 65.8C510.817 65.8 510.017 66.5333 510.017 68C510.017 69.6 510.817 70.4 512.417 70.4ZM539.417 80.8C538.751 80.8 538.217 81.0667 537.817 81.6C537.417 82 537.217 82.5333 537.217 83.2C537.217 83.8667 537.417 84.4667 537.817 85C538.217 85.4 538.751 85.6 539.417 85.6C540.084 85.6 540.617 85.4 541.017 85C541.417 84.4667 541.617 83.8667 541.617 83.2C541.617 82.5333 541.417 82 541.017 81.6C540.617 81.0667 540.084 80.8 539.417 80.8ZM539.417 98.4C537.951 98.4 537.217 99.1333 537.217 100.6C537.217 102.2 537.951 103 539.417 103C540.884 103 541.617 102.2 541.617 100.6C541.617 99.1333 540.884 98.4 539.417 98.4ZM527.217 70.8C527.217 72.2667 528.017 73 529.617 73C531.084 73 531.817 72.2667 531.817 70.8C531.817 69.3333 531.084 68.6 529.617 68.6C528.017 68.6 527.217 69.3333 527.217 70.8ZM528.417 112.4C527.751 112.4 527.151 112.667 526.617 113.2C526.217 113.6 526.017 114.133 526.017 114.8C526.017 115.467 526.217 116 526.617 116.4C527.151 116.8 527.751 117 528.417 117C529.084 117 529.617 116.8 530.017 116.4C530.551 116 530.817 115.467 530.817 114.8C530.817 114.133 530.551 113.6 530.017 113.2C529.617 112.667 529.084 112.4 528.417 112.4ZM509.617 114.8C508.017 114.8 507.217 115.533 507.217 117C507.217 118.6 508.017 119.4 509.617 119.4C511.084 119.4 511.817 118.6 511.817 117C511.817 115.533 511.084 114.8 509.617 114.8ZM491.817 113.6C490.351 113.6 489.617 114.4 489.617 116C489.617 117.467 490.351 118.2 491.817 118.2C493.284 118.2 494.017 117.467 494.017 116C494.017 114.4 493.284 113.6 491.817 113.6ZM606.555 134.6C607.088 134.6 607.355 134.467 607.355 134.2C607.488 133.8 607.421 133.467 607.155 133.2C604.355 130.8 602.955 125.6 602.955 117.6V109.2V75.4V48.4V33V24.4C602.955 20 603.355 16.4667 604.155 13.8H608.555H612.155C612.688 13.8 613.021 14 613.155 14.4C613.288 14.6667 613.155 14.9333 612.755 15.2C609.955 17.6 608.555 22.7333 608.555 30.6V39.2V54.6V81.6V115.6V124C608.555 131.867 609.955 137 612.755 139.4C613.155 139.667 613.288 140 613.155 140.4C613.021 140.8 612.688 141 612.155 141H579.355C578.821 141 578.488 140.8 578.355 140.4C578.355 140 578.488 139.667 578.755 139.4C579.421 138.867 579.955 138.2 580.355 137.4C580.888 136.6 581.355 135.667 581.755 134.6H606.555ZM570.755 130.2C573.555 127.8 574.955 122.6 574.955 114.6V21.4C574.955 13.4 573.555 8.19999 570.755 5.79999C570.355 5.53333 570.221 5.26666 570.355 5C570.488 4.6 570.821 4.39999 571.355 4.39999H591.955H600.555H604.155C604.688 4.39999 604.955 4.6 604.955 5C605.088 5.26666 605.021 5.53333 604.755 5.79999C601.955 8.06666 600.555 13.2667 600.555 21.4V29.8V45.4V72.4V106.2V114.6C600.555 122.733 601.955 127.933 604.755 130.2C605.021 130.467 605.088 130.8 604.955 131.2C604.955 131.467 604.688 131.6 604.155 131.6H571.355C570.821 131.6 570.488 131.467 570.355 131.2C570.221 130.8 570.355 130.467 570.755 130.2ZM587.955 13C587.288 13 586.688 13.2667 586.155 13.8C585.755 14.2 585.555 14.7333 585.555 15.4C585.555 16.0667 585.755 16.6667 586.155 17.2C586.688 17.6 587.288 17.8 587.955 17.8C588.621 17.8 589.155 17.6 589.555 17.2C589.955 16.6667 590.155 16.0667 590.155 15.4C590.155 14.7333 589.955 14.2 589.555 13.8C589.155 13.2667 588.621 13 587.955 13ZM587.755 30.4C586.155 30.4 585.355 31.2 585.355 32.8C585.355 34.2667 586.155 35 587.755 35C589.221 35 589.955 34.2667 589.955 32.8C589.955 31.2 589.221 30.4 587.755 30.4ZM590.155 49.8C590.155 48.3333 589.421 47.6 587.955 47.6C586.355 47.6 585.555 48.3333 585.555 49.8C585.555 51.4 586.355 52.2 587.955 52.2C589.421 52.2 590.155 51.4 590.155 49.8ZM587.755 65C586.155 65 585.355 65.7333 585.355 67.2C585.355 68.8 586.155 69.6 587.755 69.6C589.221 69.6 589.955 68.8 589.955 67.2C589.955 65.7333 589.221 65 587.755 65ZM587.755 82.2C586.155 82.2 585.355 83 585.355 84.6C585.355 86.0667 586.155 86.8 587.755 86.8C589.221 86.8 589.955 86.0667 589.955 84.6C589.955 83 589.221 82.2 587.755 82.2ZM587.755 99.2C586.155 99.2 585.355 100 585.355 101.6C585.355 103.067 586.155 103.8 587.755 103.8C589.221 103.8 589.955 103.067 589.955 101.6C589.955 100 589.221 99.2 587.755 99.2ZM587.755 117C586.155 117 585.355 117.8 585.355 119.4C585.355 120.867 586.155 121.6 587.755 121.6C589.221 121.6 589.955 120.867 589.955 119.4C589.955 117.8 589.221 117 587.755 117ZM720.541 17.8C717.874 19.9333 716.541 25 716.541 33V124.4C716.541 132.267 717.874 137.333 720.541 139.6C720.941 139.867 721.074 140.2 720.941 140.6C720.807 140.867 720.474 141 719.941 141H687.941C687.407 141 687.074 140.867 686.941 140.6C686.941 140.2 687.074 139.867 687.341 139.6C688.674 138.267 689.607 136.667 690.141 134.8H714.541C714.941 134.8 715.207 134.667 715.341 134.4C715.474 134 715.341 133.667 714.941 133.4C712.274 131 710.941 125.933 710.941 118.2V26.8C710.941 22.5333 711.341 19.0667 712.141 16.4H719.941C720.474 16.4 720.807 16.6 720.941 17C721.074 17.2667 720.941 17.5333 720.541 17.8ZM625.341 107V23.8C625.341 15.9333 624.007 10.8667 621.341 8.59999C620.941 8.33332 620.807 8.06666 620.941 7.8C621.074 7.4 621.341 7.19999 621.741 7.19999H653.941C654.474 7.19999 654.741 7.4 654.741 7.8C654.874 8.06666 654.807 8.33332 654.541 8.59999C652.807 10.3333 651.674 12.7333 651.141 15.8C650.474 18.3333 650.341 20.6 650.741 22.6C651.274 24.4667 652.274 26.4667 653.741 28.6L683.541 70.4V70L656.141 31.6C654.674 29.4667 653.741 27.4 653.341 25.4C652.941 23.4 652.941 21.1333 653.341 18.6C653.607 17.5333 653.807 16.8 653.941 16.4H661.741C662.274 16.4 662.607 16.6 662.741 17C662.874 17.2667 662.741 17.5333 662.341 17.8C660.741 19.2667 659.607 21.6 658.941 24.8C658.007 29.4667 658.941 33.8 661.741 37.8L683.541 68.4V57.2V40.6V23.8C683.541 16.0667 682.141 11 679.341 8.59999C679.074 8.33332 679.007 8.06666 679.141 7.8C679.274 7.4 679.541 7.19999 679.941 7.19999H712.141C712.674 7.19999 712.941 7.4 712.941 7.8C713.074 8.06666 713.007 8.33332 712.741 8.59999C709.941 11 708.541 16.0667 708.541 23.8V115.2C708.541 123.2 709.941 128.267 712.741 130.4C713.007 130.667 713.074 131 712.941 131.4C712.941 131.8 712.674 132 712.141 132H679.941C679.541 132 679.274 131.8 679.141 131.4C679.007 131 679.074 130.667 679.341 130.4C681.607 128.533 682.941 124.933 683.341 119.6C683.741 115.467 682.741 111.8 680.341 108.6L658.341 77.8V91.2V99.4V124.4C658.341 132.267 659.674 137.333 662.341 139.6C662.741 139.867 662.874 140.2 662.741 140.6C662.607 140.867 662.274 141 661.741 141H629.741C629.207 141 628.874 140.867 628.741 140.6C628.741 140.2 628.874 139.867 629.141 139.6C630.341 138.533 631.341 136.933 632.141 134.8H656.341C656.874 134.8 657.141 134.667 657.141 134.4C657.274 134 657.141 133.667 656.741 133.4C654.074 131 652.741 125.933 652.741 118.2V93.2V85V70L650.341 66.8V82V90.4V115.2C650.341 123.2 651.741 128.267 654.541 130.4C654.807 130.667 654.874 131 654.741 131.4C654.741 131.8 654.474 132 653.941 132H621.741C621.341 132 621.074 131.8 620.941 131.4C620.807 131 620.941 130.667 621.341 130.4C624.007 128.267 625.341 123.2 625.341 115.2V107ZM696.541 15.4C695.074 15.4 694.341 16.2 694.341 17.8C694.341 19.2667 695.074 20 696.541 20C698.007 20 698.741 19.2667 698.741 17.8C698.741 16.2 698.007 15.4 696.541 15.4ZM696.341 32.4C694.874 32.4 694.141 33.2 694.141 34.8C694.141 36.2667 694.874 37 696.341 37C697.941 37 698.741 36.2667 698.741 34.8C698.741 33.2 697.941 32.4 696.341 32.4ZM698.741 51.4C698.741 49.9333 698.007 49.2 696.541 49.2C695.074 49.2 694.341 49.9333 694.341 51.4C694.341 52.8667 695.074 53.6 696.541 53.6C698.007 53.6 698.741 52.8667 698.741 51.4ZM696.341 66.2C694.874 66.2 694.141 67 694.141 68.6C694.141 70.0667 694.874 70.8 696.341 70.8C697.941 70.8 698.741 70.0667 698.741 68.6C698.741 67 697.941 66.2 696.341 66.2ZM696.341 83.2C694.874 83.2 694.141 83.9333 694.141 85.4C694.141 86.8667 694.874 87.6 696.341 87.6C697.941 87.6 698.741 86.8667 698.741 85.4C698.741 83.9333 697.941 83.2 696.341 83.2ZM696.341 99.8C694.874 99.8 694.141 100.6 694.141 102.2C694.141 103.667 694.874 104.4 696.341 104.4C697.941 104.4 698.741 103.667 698.741 102.2C698.741 100.6 697.941 99.8 696.341 99.8ZM696.341 117.2C694.874 117.2 694.141 117.933 694.141 119.4C694.141 121 694.874 121.8 696.341 121.8C697.941 121.8 698.741 121 698.741 119.4C698.741 117.933 697.941 117.2 696.341 117.2ZM686.741 97C685.541 98.2 685.541 99.3333 686.741 100.4C686.874 100.8 687.274 101 687.941 101L687.741 96.4C687.207 96.6667 686.874 96.8667 686.741 97ZM677.341 80.8C675.741 80.8 674.941 81.6 674.941 83.2C674.941 84.6667 675.741 85.4 677.341 85.4C678.807 85.4 679.541 84.6667 679.541 83.2C679.541 81.6 678.807 80.8 677.341 80.8ZM667.541 66.2C666.074 66.2 665.341 67 665.341 68.6C665.341 70.0667 666.074 70.8 667.541 70.8C669.141 70.8 669.941 70.0667 669.941 68.6C669.941 67 669.141 66.2 667.541 66.2ZM657.341 53.2C656.674 53.2 656.074 53.4 655.541 53.8C655.141 54.2 654.941 54.7333 654.941 55.4C654.941 56.0667 655.141 56.6 655.541 57C656.074 57.4 656.674 57.6 657.341 57.6C658.807 57.6 659.541 56.8667 659.541 55.4C659.541 53.9333 658.807 53.2 657.341 53.2ZM649.141 40C648.741 39.6 648.274 39.4 647.741 39.4L648.141 44C648.674 43.7333 649.007 43.5333 649.141 43.4C649.541 42.8667 649.741 42.2667 649.741 41.6C649.741 40.9333 649.541 40.4 649.141 40ZM638.141 16.8C636.674 16.8 635.941 17.5333 635.941 19C635.941 20.4667 636.674 21.2 638.141 21.2C639.607 21.2 640.341 20.4667 640.341 19C640.341 17.5333 639.607 16.8 638.141 16.8ZM637.941 33.6C637.274 33.6 636.741 33.8667 636.341 34.4C635.941 34.8 635.741 35.3333 635.741 36C635.741 37.4667 636.474 38.2 637.941 38.2C639.541 38.2 640.341 37.4667 640.341 36C640.341 35.3333 640.074 34.8 639.541 34.4C639.141 33.8667 638.607 33.6 637.941 33.6ZM640.341 52.8C640.341 51.2 639.607 50.4 638.141 50.4C636.674 50.4 635.941 51.2 635.941 52.8C635.941 54.2667 636.674 55 638.141 55C639.607 55 640.341 54.2667 640.341 52.8ZM637.941 67.4C637.274 67.4 636.741 67.6667 636.341 68.2C635.941 68.6 635.741 69.1333 635.741 69.8C635.741 71.2667 636.474 72 637.941 72C639.541 72 640.341 71.2667 640.341 69.8C640.341 69.1333 640.074 68.6 639.541 68.2C639.141 67.6667 638.607 67.4 637.941 67.4ZM637.941 84.4C636.474 84.4 635.741 85.2 635.741 86.8C635.741 88.2667 636.474 89 637.941 89C639.541 89 640.341 88.2667 640.341 86.8C640.341 85.2 639.541 84.4 637.941 84.4ZM637.941 101C637.274 101 636.741 101.267 636.341 101.8C635.941 102.2 635.741 102.733 635.741 103.4C635.741 104.867 636.474 105.6 637.941 105.6C639.541 105.6 640.341 104.867 640.341 103.4C640.341 102.733 640.074 102.2 639.541 101.8C639.141 101.267 638.607 101 637.941 101ZM637.941 118.4C636.474 118.4 635.741 119.2 635.741 120.8C635.741 122.267 636.474 123 637.941 123C639.541 123 640.341 122.267 640.341 120.8C640.341 119.2 639.541 118.4 637.941 118.4ZM825.358 50C825.358 45.3333 824.624 40.8667 823.158 36.6C821.824 32.2 819.891 28.2667 817.358 24.8C821.624 28.6667 824.958 33.3333 827.358 38.8C829.891 44.1333 831.158 49.9333 831.158 56.2V98.6C831.158 104.467 830.024 110 827.758 115.2C825.624 120.267 822.624 124.733 818.758 128.6C814.891 132.467 810.358 135.533 805.158 137.8C799.958 139.933 794.424 141 788.558 141H780.158C773.091 141 766.558 139.467 760.558 136.4C754.691 133.2 749.824 129 745.958 123.8C749.824 127.267 754.158 130 758.958 132C763.758 133.867 768.958 134.8 774.558 134.8H782.958C788.824 134.8 794.358 133.733 799.558 131.6C804.758 129.333 809.224 126.267 812.958 122.4C816.824 118.533 819.824 114.067 821.958 109C824.224 103.8 825.358 98.2667 825.358 92.4V50ZM772.158 131.8C766.291 131.8 760.758 130.733 755.558 128.6C750.358 126.333 745.824 123.267 741.958 119.4C738.091 115.533 735.024 111.067 732.758 106C730.624 100.8 729.558 95.2667 729.558 89.4V46.8C729.558 41.0667 730.624 35.6667 732.758 30.6C735.024 25.4 738.091 20.8667 741.958 17C745.824 13.1333 750.358 10.1333 755.558 8C760.758 5.73333 766.291 4.59999 772.158 4.59999H780.558C786.424 4.59999 791.891 5.73333 796.958 8C802.158 10.1333 806.691 13.1333 810.558 17C814.424 20.8667 817.424 25.4 819.558 30.6C821.824 35.6667 822.958 41.0667 822.958 46.8V89.4C822.958 95.2667 821.824 100.8 819.558 106C817.424 111.067 814.424 115.533 810.558 119.4C806.691 123.267 802.158 126.333 796.958 128.6C791.891 130.733 786.424 131.8 780.558 131.8H772.158ZM764.158 119.4C765.624 119.4 766.358 118.667 766.358 117.2C766.358 115.6 765.624 114.8 764.158 114.8C762.558 114.8 761.758 115.6 761.758 117.2C761.758 118.667 762.558 119.4 764.158 119.4ZM780.558 121.2C782.024 121.2 782.758 120.4 782.758 118.8C782.758 118.133 782.558 117.6 782.158 117.2C781.758 116.667 781.224 116.4 780.558 116.4C779.891 116.4 779.291 116.667 778.758 117.2C778.358 117.6 778.158 118.133 778.158 118.8C778.158 120.4 778.958 121.2 780.558 121.2ZM810.358 88.6C811.958 88.6 812.758 87.8667 812.758 86.4C812.758 84.9333 811.958 84.2 810.358 84.2C808.891 84.2 808.158 84.9333 808.158 86.4C808.158 87.8667 808.891 88.6 810.358 88.6ZM807.558 70.8C807.558 71.4667 807.758 72.0667 808.158 72.6C808.691 73 809.291 73.2 809.958 73.2C810.624 73.2 811.158 73 811.558 72.6C811.958 72.0667 812.158 71.4667 812.158 70.8C812.158 69.2 811.424 68.4 809.958 68.4C808.358 68.4 807.558 69.2 807.558 70.8ZM812.358 55.2C812.358 54.5333 812.091 54 811.558 53.6C811.158 53.0667 810.624 52.8 809.958 52.8C808.358 52.8 807.558 53.6 807.558 55.2C807.558 56.6667 808.358 57.4 809.958 57.4C810.624 57.4 811.158 57.2 811.558 56.8C812.091 56.4 812.358 55.8667 812.358 55.2ZM807.558 35.6C806.891 35.6 806.358 35.8667 805.958 36.4C805.558 36.8 805.358 37.3333 805.358 38C805.358 39.6 806.091 40.4 807.558 40.4C809.158 40.4 809.958 39.6 809.958 38C809.958 37.3333 809.691 36.8 809.158 36.4C808.758 35.8667 808.224 35.6 807.558 35.6ZM806.358 98.6C804.758 98.6 803.958 99.4 803.958 101C803.958 102.467 804.758 103.2 806.358 103.2C807.824 103.2 808.558 102.467 808.558 101C808.558 99.4 807.824 98.6 806.358 98.6ZM800.558 21.2C798.958 21.2 798.158 21.9333 798.158 23.4C798.158 25 798.958 25.8 800.558 25.8C801.224 25.8 801.758 25.6 802.158 25.2C802.691 24.6667 802.958 24.0667 802.958 23.4C802.958 22.7333 802.691 22.2 802.158 21.8C801.758 21.4 801.224 21.2 800.558 21.2ZM795.758 117.2C797.358 117.2 798.158 116.4 798.158 114.8C798.158 113.333 797.358 112.6 795.758 112.6C794.291 112.6 793.558 113.333 793.558 114.8C793.558 116.4 794.291 117.2 795.758 117.2ZM797.558 46.8C797.558 45.0667 797.224 43.2 796.558 41.2C793.891 39.8667 791.224 39.2 788.558 39.2H780.158C775.491 39.2 771.491 40.8667 768.158 44.2C764.824 47.5333 763.158 51.5333 763.158 56.2V73.2V81.6V98.6C763.158 100.467 763.491 102.4 764.158 104.4C766.824 105.733 769.491 106.4 772.158 106.4H780.558C785.224 106.4 789.224 104.733 792.558 101.4C795.891 98.0667 797.558 94.0667 797.558 89.4V72.4V63.8V46.8ZM785.358 15.4C784.691 15.4 784.091 15.6667 783.558 16.2C783.158 16.6 782.958 17.1333 782.958 17.8C782.958 18.4667 783.158 19.0667 783.558 19.6C784.091 20 784.691 20.2 785.358 20.2C786.024 20.2 786.558 20 786.958 19.6C787.491 19.0667 787.758 18.4667 787.758 17.8C787.758 17.1333 787.491 16.6 786.958 16.2C786.558 15.6667 786.024 15.4 785.358 15.4ZM766.358 14.4C764.891 14.4 764.158 15.2 764.158 16.8C764.158 18.2667 764.891 19 766.358 19C767.958 19 768.758 18.2667 768.758 16.8C768.758 15.2 767.958 14.4 766.358 14.4ZM755.158 89.4C755.158 91.6667 755.624 93.8667 756.558 96C757.491 98.1333 758.691 99.9333 760.158 101.4C758.424 98.6 757.558 95.6 757.558 92.4V75.4V67V50C757.558 45.3333 759.224 41.3333 762.558 38C765.891 34.6667 769.891 33 774.558 33H782.958C787.758 33 791.758 34.6 794.958 37.8C793.491 35.5333 791.491 33.6667 788.958 32.2C786.424 30.7333 783.624 30 780.558 30H772.158C769.758 30 767.491 30.4667 765.358 31.4C763.358 32.2 761.558 33.4 759.958 35C758.491 36.4667 757.291 38.2667 756.358 40.4C755.558 42.4 755.158 44.5333 755.158 46.8V63.8V72.4V89.4ZM751.558 22C750.091 22 749.358 22.7333 749.358 24.2C749.358 25.8 750.091 26.6 751.558 26.6C753.158 26.6 753.958 25.8 753.958 24.2C753.958 22.7333 753.158 22 751.558 22ZM749.358 105.4C747.758 105.4 746.958 106.2 746.958 107.8C746.958 109.267 747.758 110 749.358 110C750.824 110 751.558 109.267 751.558 107.8C751.558 106.2 750.824 105.4 749.358 105.4ZM744.558 38.2C743.891 38.2 743.291 38.4667 742.758 39C742.358 39.4 742.158 39.9333 742.158 40.6C742.158 41.2667 742.358 41.8667 742.758 42.4C743.291 42.8 743.891 43 744.558 43C745.224 43 745.758 42.8 746.158 42.4C746.558 41.8667 746.758 41.2667 746.758 40.6C746.758 39.9333 746.558 39.4 746.158 39C745.758 38.4667 745.224 38.2 744.558 38.2ZM743.358 56.4C742.691 56.4 742.091 56.6 741.558 57C741.158 57.4 740.958 57.9333 740.958 58.6C740.958 59.2667 741.158 59.8667 741.558 60.4C742.091 60.8 742.691 61 743.358 61C744.024 61 744.558 60.8 744.958 60.4C745.491 59.8667 745.758 59.2667 745.758 58.6C745.758 57.9333 745.491 57.4 744.958 57C744.558 56.6 744.024 56.4 743.358 56.4ZM742.758 72.6C741.291 72.6 740.558 73.3333 740.558 74.8C740.558 76.4 741.291 77.2 742.758 77.2C744.358 77.2 745.158 76.4 745.158 74.8C745.158 73.3333 744.358 72.6 742.758 72.6ZM740.958 92.2C740.958 92.8667 741.158 93.4667 741.558 94C742.091 94.4 742.691 94.6 743.358 94.6C744.024 94.6 744.558 94.4 744.958 94C745.491 93.4667 745.758 92.8667 745.758 92.2C745.758 91.5333 745.491 91 744.958 90.6C744.558 90.2 744.024 90 743.358 90C742.691 90 742.091 90.2 741.558 90.6C741.158 91 740.958 91.5333 740.958 92.2Z" fill="#CCA354"/>
</g>
<defs>
<filter id="filter0_d_18_6" x="0.799988" y="0.399994" width="844.358" height="144.6" filterUnits="userSpaceOnUse" color-interpolation-filters="sRGB">
<feFlood flood-opacity="0" result="BackgroundImageFix"/>
<feColorMatrix in="SourceAlpha" type="matrix" values="0 0 0 0 0 0 0 0 0 0 0 0 0 0 0 0 0 0 127 0" result="hardAlpha"/>
<feOffset dx="10"/>
<feGaussianBlur stdDeviation="2"/>
<feComposite in2="hardAlpha" operator="out"/>
<feColorMatrix type="matrix" values="0 0 0 0 0.8 0 0 0 0 0.639216 0 0 0 0 0.329412 0 0 0 0.25 0"/>
<feBlend mode="normal" in2="BackgroundImageFix" result="effect1_dropShadow_18_6"/>
<feBlend mode="normal" in="SourceGraphic" in2="effect1_dropShadow_18_6" result="shape"/>
</filter>
</defs>
</svg>
