<svg width="550" height="70" viewBox="0 0 550 70" fill="none" xmlns="http://www.w3.org/2000/svg">
<rect x="1.5" y="1.87988" width="547" height="66.3235" rx="8.5" fill="black" stroke="#CCA354" stroke-width="3"/>
<path d="M81.2511 23.095C82.4644 23.095 83.5728 23.3283 84.5761 23.795C85.5794 24.2617 86.4194 24.88 87.0961 25.65C87.7961 26.3967 88.3328 27.26 88.7061 28.24C89.0794 29.22 89.2544 30.235 89.2311 31.285C89.2311 32.3117 89.0094 33.3267 88.5661 34.33C88.1228 35.3333 87.4461 36.2317 86.5361 37.025C85.7428 37.725 84.9261 38.2383 84.0861 38.565C83.2694 38.8683 82.3244 39.02 81.2511 39.02H78.0661V43.815C78.0661 45.285 78.3344 46.2533 78.8711 46.72C78.9411 46.7667 78.9644 46.825 78.9411 46.895C78.9178 46.965 78.8594 47 78.7661 47H76.4911H72.6061C72.5128 47 72.4544 46.965 72.4311 46.895C72.4078 46.825 72.4311 46.7667 72.5011 46.72C73.0378 46.2533 73.3061 45.285 73.3061 43.815V26.28C73.3061 24.7633 73.0378 23.795 72.5011 23.375C72.4311 23.305 72.4078 23.2467 72.4311 23.2C72.4544 23.13 72.5128 23.095 72.6061 23.095H76.4911H81.2511ZM75.7561 45.18C75.8728 45.18 75.9661 45.1333 76.0361 45.04C76.1294 44.9467 76.1761 44.8417 76.1761 44.725C76.1761 44.6083 76.1294 44.515 76.0361 44.445C75.9661 44.3517 75.8728 44.305 75.7561 44.305C75.6394 44.305 75.5344 44.3517 75.4411 44.445C75.3478 44.515 75.3011 44.6083 75.3011 44.725C75.3011 45.0283 75.4528 45.18 75.7561 45.18ZM75.7561 41.855C75.8728 41.855 75.9661 41.8083 76.0361 41.715C76.1294 41.6217 76.1761 41.5167 76.1761 41.4C76.1761 41.2833 76.1294 41.19 76.0361 41.12C75.9661 41.0267 75.8728 40.98 75.7561 40.98C75.6394 40.98 75.5344 41.0267 75.4411 41.12C75.3478 41.19 75.3011 41.2833 75.3011 41.4C75.3011 41.7033 75.4528 41.855 75.7561 41.855ZM75.7561 38.67C75.8728 38.67 75.9661 38.6233 76.0361 38.53C76.1294 38.4367 76.1761 38.3317 76.1761 38.215C76.1761 38.0983 76.1294 37.9933 76.0361 37.9C75.9661 37.8067 75.8728 37.76 75.7561 37.76C75.4528 37.76 75.3011 37.9117 75.3011 38.215C75.3011 38.5183 75.4528 38.67 75.7561 38.67ZM75.7561 35.415C75.8728 35.415 75.9661 35.3683 76.0361 35.275C76.1294 35.1817 76.1761 35.0767 76.1761 34.96C76.1761 34.8433 76.1294 34.75 76.0361 34.68C75.9661 34.5867 75.8728 34.54 75.7561 34.54C75.4528 34.54 75.3011 34.68 75.3011 34.96C75.3011 35.2633 75.4528 35.415 75.7561 35.415ZM75.7561 32.125C76.0594 32.125 76.2111 31.985 76.2111 31.705C76.2111 31.4017 76.0594 31.25 75.7561 31.25C75.4761 31.25 75.3361 31.4017 75.3361 31.705C75.3361 31.985 75.4761 32.125 75.7561 32.125ZM75.3011 28.485C75.3011 28.765 75.4528 28.905 75.7561 28.905C75.8728 28.905 75.9661 28.87 76.0361 28.8C76.1294 28.7067 76.1761 28.6017 76.1761 28.485C76.1761 28.3683 76.1294 28.2633 76.0361 28.17C75.9661 28.0767 75.8728 28.03 75.7561 28.03C75.4528 28.03 75.3011 28.1817 75.3011 28.485ZM75.7561 25.65C76.0594 25.65 76.2111 25.51 76.2111 25.23C76.2111 24.95 76.0594 24.81 75.7561 24.81C75.4761 24.81 75.3361 24.95 75.3361 25.23C75.3361 25.51 75.4761 25.65 75.7561 25.65ZM82.4061 25.125C82.1028 25.125 81.9511 25.265 81.9511 25.545C81.9511 25.8483 82.1028 26 82.4061 26C82.6861 26 82.8261 25.8483 82.8261 25.545C82.8261 25.265 82.6861 25.125 82.4061 25.125ZM78.9761 24.81C78.8594 24.81 78.7544 24.8567 78.6611 24.95C78.5911 25.02 78.5561 25.1133 78.5561 25.23C78.5561 25.3467 78.5911 25.4517 78.6611 25.545C78.7544 25.615 78.8594 25.65 78.9761 25.65C79.2794 25.65 79.4311 25.51 79.4311 25.23C79.4311 24.95 79.2794 24.81 78.9761 24.81ZM78.9761 36.92C79.1161 36.92 79.2211 36.885 79.2911 36.815C79.3844 36.7217 79.4311 36.6167 79.4311 36.5C79.4311 36.1967 79.2794 36.045 78.9761 36.045C78.8594 36.045 78.7544 36.0917 78.6611 36.185C78.5911 36.2783 78.5561 36.3833 78.5561 36.5C78.5561 36.6167 78.5911 36.7217 78.6611 36.815C78.7544 36.885 78.8594 36.92 78.9761 36.92ZM82.7211 36.92C82.8378 36.92 82.9428 36.885 83.0361 36.815C83.1294 36.7217 83.1761 36.6167 83.1761 36.5C83.1761 36.1967 83.0244 36.045 82.7211 36.045C82.4178 36.045 82.2661 36.1967 82.2661 36.5C82.2661 36.6167 82.3128 36.7217 82.4061 36.815C82.4994 36.885 82.6044 36.92 82.7211 36.92ZM81.2511 34.225C82.1378 34.225 82.8844 33.9217 83.4911 33.315C84.1211 32.685 84.4361 31.9267 84.4361 31.04C84.4361 30.5967 84.3544 30.1883 84.1911 29.815C84.0278 29.4183 83.7944 29.08 83.4911 28.8C83.2111 28.4967 82.8728 28.2633 82.4761 28.1C82.1028 27.9367 81.6944 27.855 81.2511 27.855H78.0661V34.225H81.2511ZM84.8911 27.19C84.8911 27.4933 85.0311 27.645 85.3111 27.645C85.6144 27.645 85.7661 27.4933 85.7661 27.19C85.7661 26.91 85.6144 26.77 85.3111 26.77C85.0311 26.77 84.8911 26.91 84.8911 27.19ZM85.7661 34.365C85.8828 34.365 85.9761 34.33 86.0461 34.26C86.1394 34.1667 86.1861 34.0617 86.1861 33.945C86.1861 33.6417 86.0461 33.49 85.7661 33.49C85.4628 33.49 85.3111 33.6417 85.3111 33.945C85.3111 34.0617 85.3578 34.1667 85.4511 34.26C85.5444 34.33 85.6494 34.365 85.7661 34.365ZM86.4311 30.83C86.7344 30.83 86.8861 30.69 86.8861 30.41C86.8861 30.1067 86.7344 29.955 86.4311 29.955C86.1511 29.955 86.0111 30.1067 86.0111 30.41C86.0111 30.69 86.1511 30.83 86.4311 30.83ZM107.108 43.815C107.108 45.3083 107.365 46.2767 107.878 46.72C107.948 46.7667 107.971 46.825 107.948 46.895C107.948 46.965 107.89 47 107.773 47H101.613C101.52 47 101.461 46.965 101.438 46.895C101.415 46.825 101.45 46.7667 101.543 46.72C102.056 46.2533 102.313 45.285 102.313 43.815V39.02V37.445H95.9429V39.02V43.815C95.9429 45.3083 96.1996 46.2767 96.7129 46.72C96.7829 46.7667 96.8062 46.825 96.7829 46.895C96.7596 46.965 96.7012 47 96.6079 47H90.4829C90.3662 47 90.2962 46.965 90.2729 46.895C90.2496 46.825 90.2846 46.7667 90.3779 46.72C90.8912 46.2767 91.1479 45.3083 91.1479 43.815V42.205V26.28C91.1479 24.7633 90.8912 23.795 90.3779 23.375C90.2846 23.305 90.2496 23.2467 90.2729 23.2C90.2962 23.13 90.3662 23.095 90.4829 23.095H96.6079C96.7012 23.095 96.7596 23.13 96.7829 23.2C96.8062 23.2467 96.7829 23.305 96.7129 23.375C96.1996 23.795 95.9429 24.7633 95.9429 26.28V29.465V32.65H102.313V29.465V26.28C102.313 24.7867 102.056 23.8183 101.543 23.375C101.45 23.305 101.415 23.2467 101.438 23.2C101.461 23.13 101.52 23.095 101.613 23.095H107.773C108.03 23.095 108.065 23.1883 107.878 23.375C107.365 23.795 107.108 24.7633 107.108 26.28V43.815ZM93.4579 45.39C93.7612 45.39 93.9129 45.25 93.9129 44.97C93.9129 44.6667 93.7612 44.515 93.4579 44.515C93.1779 44.515 93.0379 44.6667 93.0379 44.97C93.0379 45.25 93.1779 45.39 93.4579 45.39ZM93.4579 42.065C93.7612 42.065 93.9129 41.9133 93.9129 41.61C93.9129 41.33 93.7612 41.19 93.4579 41.19C93.1779 41.19 93.0379 41.33 93.0379 41.61C93.0379 41.9133 93.1779 42.065 93.4579 42.065ZM93.4579 38.845C93.7612 38.845 93.9129 38.705 93.9129 38.425C93.9129 38.145 93.7612 38.005 93.4579 38.005C93.1779 38.005 93.0379 38.145 93.0379 38.425C93.0379 38.705 93.1779 38.845 93.4579 38.845ZM93.4579 35.625C93.7612 35.625 93.9129 35.4733 93.9129 35.17C93.9129 34.89 93.7612 34.75 93.4579 34.75C93.1779 34.75 93.0379 34.89 93.0379 35.17C93.0379 35.4733 93.1779 35.625 93.4579 35.625ZM93.4929 32.335C93.7962 32.335 93.9479 32.195 93.9479 31.915C93.9479 31.6117 93.7962 31.46 93.4929 31.46C93.2129 31.46 93.0729 31.6117 93.0729 31.915C93.0729 32.195 93.2129 32.335 93.4929 32.335ZM93.0379 28.695C93.0379 28.975 93.1779 29.115 93.4579 29.115C93.7612 29.115 93.9129 28.975 93.9129 28.695C93.9129 28.3917 93.7612 28.24 93.4579 28.24C93.1779 28.24 93.0379 28.3917 93.0379 28.695ZM93.4929 25.86C93.7962 25.86 93.9479 25.72 93.9479 25.44C93.9479 25.16 93.7962 25.02 93.4929 25.02C93.2129 25.02 93.0729 25.16 93.0729 25.44C93.0729 25.72 93.2129 25.86 93.4929 25.86ZM97.1679 35.52C97.2846 35.52 97.3779 35.485 97.4479 35.415C97.5412 35.3217 97.5879 35.2167 97.5879 35.1C97.5879 34.9833 97.5412 34.8783 97.4479 34.785C97.3779 34.6917 97.2846 34.645 97.1679 34.645C96.8646 34.645 96.7129 34.7967 96.7129 35.1C96.7129 35.38 96.8646 35.52 97.1679 35.52ZM100.773 35.52C101.053 35.52 101.193 35.38 101.193 35.1C101.193 34.7967 101.053 34.645 100.773 34.645C100.47 34.645 100.318 34.7967 100.318 35.1C100.318 35.38 100.47 35.52 100.773 35.52ZM104.728 24.565C104.425 24.565 104.273 24.7167 104.273 25.02C104.273 25.1367 104.32 25.2417 104.413 25.335C104.506 25.405 104.611 25.44 104.728 25.44C104.845 25.44 104.938 25.405 105.008 25.335C105.101 25.2417 105.148 25.1367 105.148 25.02C105.148 24.9033 105.101 24.7983 105.008 24.705C104.938 24.6117 104.845 24.565 104.728 24.565ZM104.693 27.82C104.576 27.82 104.471 27.8667 104.378 27.96C104.308 28.03 104.273 28.1233 104.273 28.24C104.273 28.5433 104.413 28.695 104.693 28.695C104.996 28.695 105.148 28.5433 105.148 28.24C105.148 28.1233 105.101 28.03 105.008 27.96C104.915 27.8667 104.81 27.82 104.693 27.82ZM105.148 31.46C105.148 31.3433 105.101 31.25 105.008 31.18C104.938 31.0867 104.845 31.04 104.728 31.04C104.611 31.04 104.506 31.0867 104.413 31.18C104.32 31.25 104.273 31.3433 104.273 31.46C104.273 31.7633 104.425 31.915 104.728 31.915C104.845 31.915 104.938 31.8683 105.008 31.775C105.101 31.6817 105.148 31.5767 105.148 31.46ZM104.693 44.97C104.996 44.97 105.148 44.8183 105.148 44.515C105.148 44.235 104.996 44.095 104.693 44.095C104.413 44.095 104.273 44.235 104.273 44.515C104.273 44.8183 104.413 44.97 104.693 44.97ZM104.693 41.61C104.996 41.61 105.148 41.47 105.148 41.19C105.148 40.8867 104.996 40.735 104.693 40.735C104.413 40.735 104.273 40.8867 104.273 41.19C104.273 41.47 104.413 41.61 104.693 41.61ZM104.693 38.425C104.81 38.425 104.915 38.39 105.008 38.32C105.101 38.2267 105.148 38.1217 105.148 38.005C105.148 37.7017 104.996 37.55 104.693 37.55C104.413 37.55 104.273 37.7017 104.273 38.005C104.273 38.1217 104.308 38.2267 104.378 38.32C104.471 38.39 104.576 38.425 104.693 38.425ZM104.798 35.38C105.078 35.38 105.218 35.24 105.218 34.96C105.218 34.68 105.078 34.54 104.798 34.54C104.518 34.54 104.378 34.68 104.378 34.96C104.378 35.24 104.518 35.38 104.798 35.38ZM126.743 46.72C126.813 46.79 126.837 46.86 126.813 46.93C126.79 46.9767 126.732 47 126.638 47H120.478C120.385 47 120.327 46.9767 120.303 46.93C120.28 46.86 120.303 46.79 120.373 46.72C120.91 46.3 121.178 45.3317 121.178 43.815V40.63H114.773V43.815C114.773 45.3317 115.042 46.3 115.578 46.72C115.765 46.9067 115.73 47 115.473 47H109.313C109.22 47 109.162 46.9767 109.138 46.93C109.115 46.86 109.138 46.79 109.208 46.72C109.745 46.3 110.013 45.3317 110.013 43.815V39.055V36.22C110.013 35.2167 110.107 34.26 110.293 33.35C110.48 32.4167 110.772 31.4833 111.168 30.55L112.988 26.315C113.292 24.8217 113.222 23.8417 112.778 23.375C112.708 23.305 112.685 23.2467 112.708 23.2C112.732 23.13 112.79 23.095 112.883 23.095H123.068C123.302 23.095 123.348 23.1883 123.208 23.375C122.765 23.795 122.683 24.775 122.963 26.315L124.783 30.55C125.18 31.4833 125.472 32.4167 125.658 33.35C125.845 34.26 125.938 35.2167 125.938 36.22V39.055V43.815C125.938 45.3317 126.207 46.3 126.743 46.72ZM123.138 34.155C122.858 34.155 122.718 34.3067 122.718 34.61C122.718 34.7267 122.753 34.8317 122.823 34.925C122.917 34.995 123.022 35.03 123.138 35.03C123.255 35.03 123.36 34.995 123.453 34.925C123.547 34.8317 123.593 34.7267 123.593 34.61C123.593 34.3067 123.442 34.155 123.138 34.155ZM120.198 24.635C119.918 24.635 119.778 24.775 119.778 25.055C119.778 25.3583 119.918 25.51 120.198 25.51C120.478 25.51 120.618 25.3583 120.618 25.055C120.618 24.775 120.478 24.635 120.198 24.635ZM115.753 24.95C115.45 24.95 115.298 25.09 115.298 25.37C115.298 25.6733 115.45 25.825 115.753 25.825C116.057 25.825 116.208 25.6733 116.208 25.37C116.208 25.09 116.057 24.95 115.753 24.95ZM112.393 45.11C112.697 45.11 112.848 44.9583 112.848 44.655C112.848 44.5383 112.802 44.445 112.708 44.375C112.615 44.2817 112.51 44.235 112.393 44.235C112.277 44.235 112.172 44.2817 112.078 44.375C111.985 44.445 111.938 44.5383 111.938 44.655C111.938 44.9583 112.09 45.11 112.393 45.11ZM112.498 41.785C112.802 41.785 112.953 41.6333 112.953 41.33C112.953 41.2133 112.907 41.12 112.813 41.05C112.743 40.9567 112.638 40.91 112.498 40.91C112.382 40.91 112.277 40.9567 112.183 41.05C112.113 41.12 112.078 41.2133 112.078 41.33C112.078 41.6333 112.218 41.785 112.498 41.785ZM112.498 38.46C112.802 38.46 112.953 38.32 112.953 38.04C112.953 37.7367 112.802 37.585 112.498 37.585C112.218 37.585 112.078 37.7367 112.078 38.04C112.078 38.32 112.218 38.46 112.498 38.46ZM112.708 35.24C112.825 35.24 112.93 35.205 113.023 35.135C113.117 35.0417 113.163 34.9367 113.163 34.82C113.163 34.5167 113.012 34.365 112.708 34.365C112.428 34.365 112.288 34.5167 112.288 34.82C112.288 34.9367 112.323 35.0417 112.393 35.135C112.487 35.205 112.592 35.24 112.708 35.24ZM113.163 32.055C113.443 32.055 113.583 31.915 113.583 31.635C113.583 31.355 113.443 31.215 113.163 31.215C112.86 31.215 112.708 31.355 112.708 31.635C112.708 31.915 112.86 32.055 113.163 32.055ZM114.598 28.835C114.878 28.835 115.018 28.695 115.018 28.415C115.018 28.1117 114.878 27.96 114.598 27.96C114.295 27.96 114.143 28.1117 114.143 28.415C114.143 28.695 114.295 28.835 114.598 28.835ZM116.068 38.46C116.372 38.46 116.523 38.32 116.523 38.04C116.523 37.7367 116.372 37.585 116.068 37.585C115.765 37.585 115.613 37.7367 115.613 38.04C115.613 38.32 115.765 38.46 116.068 38.46ZM119.673 38.495C119.79 38.495 119.883 38.46 119.953 38.39C120.047 38.2967 120.093 38.1917 120.093 38.075C120.093 37.7717 119.953 37.62 119.673 37.62C119.37 37.62 119.218 37.7717 119.218 38.075C119.218 38.1917 119.253 38.2967 119.323 38.39C119.417 38.46 119.533 38.495 119.673 38.495ZM121.178 35.87C121.108 34.68 120.852 33.5367 120.408 32.44L117.993 26.805L115.578 32.44C115.088 33.5367 114.832 34.68 114.808 35.87H121.178ZM121.248 28.555C121.528 28.555 121.668 28.4033 121.668 28.1C121.668 27.7967 121.528 27.645 121.248 27.645C120.945 27.645 120.793 27.7967 120.793 28.1C120.793 28.4033 120.945 28.555 121.248 28.555ZM121.983 31.32C121.983 31.6233 122.135 31.775 122.438 31.775C122.718 31.775 122.858 31.6233 122.858 31.32C122.858 31.04 122.718 30.9 122.438 30.9C122.135 30.9 121.983 31.04 121.983 31.32ZM122.718 37.935C122.718 38.2383 122.858 38.39 123.138 38.39C123.442 38.39 123.593 38.2383 123.593 37.935C123.593 37.655 123.442 37.515 123.138 37.515C122.858 37.515 122.718 37.655 122.718 37.935ZM123.383 45.005C123.5 45.005 123.593 44.97 123.663 44.9C123.757 44.8067 123.803 44.7017 123.803 44.585C123.803 44.4683 123.757 44.3633 123.663 44.27C123.593 44.1767 123.5 44.13 123.383 44.13C123.08 44.13 122.928 44.2817 122.928 44.585C122.928 44.865 123.08 45.005 123.383 45.005ZM123.383 41.575C123.5 41.575 123.593 41.5283 123.663 41.435C123.757 41.3417 123.803 41.2367 123.803 41.12C123.803 41.0033 123.757 40.91 123.663 40.84C123.593 40.7467 123.5 40.7 123.383 40.7C123.267 40.7 123.162 40.7467 123.068 40.84C122.975 40.91 122.928 41.0033 122.928 41.12C122.928 41.4233 123.08 41.575 123.383 41.575ZM138.646 32.685C139.649 32.685 140.582 32.8717 141.446 33.245C142.309 33.6183 143.067 34.1317 143.721 34.785C144.374 35.4383 144.887 36.1967 145.261 37.06C145.634 37.9233 145.821 38.8567 145.821 39.86C145.821 40.84 145.634 41.7733 145.261 42.66C144.887 43.5233 144.374 44.2817 143.721 44.935C143.067 45.565 142.309 46.0667 141.446 46.44C140.582 46.8133 139.649 47 138.646 47H137.071H135.461C134.481 47 133.547 46.8133 132.661 46.44C131.797 46.0667 131.039 45.565 130.386 44.935C129.756 44.2817 129.254 43.5233 128.881 42.66C128.507 41.7733 128.321 40.84 128.321 39.86H133.081H133.746C133.932 39.86 133.991 39.93 133.921 40.07C133.664 40.5367 133.641 40.945 133.851 41.295C134.061 41.645 134.282 41.89 134.516 42.03C134.819 42.17 135.134 42.24 135.461 42.24H137.071H138.646C139.322 42.24 139.894 42.0067 140.361 41.54C140.827 41.0733 141.061 40.5133 141.061 39.86C141.061 39.1833 140.827 38.6117 140.361 38.145C139.894 37.6783 139.322 37.445 138.646 37.445H137.071H135.461C134.481 37.445 133.547 37.2583 132.661 36.885C131.797 36.5117 131.039 35.9983 130.386 35.345C129.756 34.6917 129.254 33.9333 128.881 33.07C128.507 32.1833 128.321 31.25 128.321 30.27C128.321 29.29 128.507 28.3683 128.881 27.505C129.254 26.6183 129.756 25.8483 130.386 25.195C131.039 24.5417 131.797 24.0283 132.661 23.655C133.547 23.2817 134.481 23.095 135.461 23.095H137.071H138.646C139.649 23.095 140.582 23.2817 141.446 23.655C142.309 24.0283 143.067 24.5417 143.721 25.195C144.374 25.8483 144.887 26.6183 145.261 27.505C145.634 28.3683 145.821 29.29 145.821 30.27H141.061H140.361C140.174 30.27 140.127 30.2 140.221 30.06C140.454 29.6167 140.466 29.2083 140.256 28.835C140.069 28.4617 139.859 28.2167 139.626 28.1C139.299 27.96 138.972 27.89 138.646 27.89H137.071H135.461C134.807 27.89 134.247 28.1233 133.781 28.59C133.314 29.0567 133.081 29.6167 133.081 30.27C133.081 30.9467 133.314 31.5183 133.781 31.985C134.247 32.4517 134.807 32.685 135.461 32.685H137.071H138.646ZM143.161 28.17C143.044 28.17 142.939 28.2167 142.846 28.31C142.776 28.38 142.741 28.4733 142.741 28.59C142.741 28.8933 142.881 29.045 143.161 29.045C143.464 29.045 143.616 28.8933 143.616 28.59C143.616 28.4733 143.569 28.38 143.476 28.31C143.382 28.2167 143.277 28.17 143.161 28.17ZM140.886 25.51C140.606 25.51 140.466 25.6617 140.466 25.965C140.466 26.245 140.606 26.385 140.886 26.385C141.166 26.385 141.306 26.245 141.306 25.965C141.306 25.6617 141.166 25.51 140.886 25.51ZM137.666 24.915C137.386 24.915 137.246 25.055 137.246 25.335C137.246 25.615 137.386 25.755 137.666 25.755C137.969 25.755 138.121 25.615 138.121 25.335C138.121 25.055 137.969 24.915 137.666 24.915ZM134.341 24.915C134.037 24.915 133.886 25.055 133.886 25.335C133.886 25.615 134.037 25.755 134.341 25.755C134.621 25.755 134.761 25.615 134.761 25.335C134.761 25.055 134.621 24.915 134.341 24.915ZM131.681 26.84C131.401 26.84 131.261 26.9917 131.261 27.295C131.261 27.4117 131.296 27.5167 131.366 27.61C131.459 27.68 131.564 27.715 131.681 27.715C131.797 27.715 131.891 27.68 131.961 27.61C132.054 27.5167 132.101 27.4117 132.101 27.295C132.101 26.9917 131.961 26.84 131.681 26.84ZM131.016 30.725C131.319 30.725 131.471 30.585 131.471 30.305C131.471 30.0017 131.319 29.85 131.016 29.85C130.899 29.85 130.794 29.8967 130.701 29.99C130.631 30.0833 130.596 30.1883 130.596 30.305C130.596 30.4217 130.631 30.5267 130.701 30.62C130.794 30.69 130.899 30.725 131.016 30.725ZM132.101 33.735C132.404 33.735 132.556 33.5833 132.556 33.28C132.556 33 132.404 32.86 132.101 32.86C131.984 32.86 131.879 32.9067 131.786 33C131.716 33.07 131.681 33.1633 131.681 33.28C131.681 33.3967 131.716 33.5017 131.786 33.595C131.879 33.6883 131.984 33.735 132.101 33.735ZM134.761 35.485C135.064 35.485 135.216 35.3333 135.216 35.03C135.216 34.9133 135.169 34.82 135.076 34.75C134.982 34.6567 134.877 34.61 134.761 34.61C134.644 34.61 134.539 34.6567 134.446 34.75C134.376 34.82 134.341 34.9133 134.341 35.03C134.341 35.3333 134.481 35.485 134.761 35.485ZM138.121 35.485C138.237 35.485 138.331 35.45 138.401 35.38C138.494 35.2867 138.541 35.17 138.541 35.03C138.541 34.9133 138.494 34.82 138.401 34.75C138.331 34.6567 138.237 34.61 138.121 34.61C138.004 34.61 137.899 34.6567 137.806 34.75C137.712 34.82 137.666 34.9133 137.666 35.03C137.666 35.3333 137.817 35.485 138.121 35.485ZM131.681 42.45C131.797 42.45 131.902 42.415 131.996 42.345C132.089 42.2517 132.136 42.1467 132.136 42.03C132.136 41.7267 131.984 41.575 131.681 41.575C131.564 41.575 131.459 41.6217 131.366 41.715C131.296 41.8083 131.261 41.9133 131.261 42.03C131.261 42.1467 131.296 42.2517 131.366 42.345C131.459 42.415 131.564 42.45 131.681 42.45ZM134.236 44.48C134.539 44.48 134.691 44.3283 134.691 44.025C134.691 43.745 134.539 43.605 134.236 43.605C133.956 43.605 133.816 43.745 133.816 44.025C133.816 44.3283 133.956 44.48 134.236 44.48ZM137.561 44.69C137.677 44.69 137.782 44.655 137.876 44.585C137.969 44.4917 138.016 44.3867 138.016 44.27C138.016 43.9667 137.864 43.815 137.561 43.815C137.281 43.815 137.141 43.9667 137.141 44.27C137.141 44.3867 137.176 44.4917 137.246 44.585C137.339 44.655 137.444 44.69 137.561 44.69ZM141.096 44.27C141.399 44.27 141.551 44.1183 141.551 43.815C141.551 43.535 141.399 43.395 141.096 43.395C140.816 43.395 140.676 43.535 140.676 43.815C140.676 44.1183 140.816 44.27 141.096 44.27ZM141.306 35.975C141.609 35.975 141.761 35.835 141.761 35.555C141.761 35.275 141.609 35.135 141.306 35.135C141.189 35.135 141.084 35.1817 140.991 35.275C140.921 35.345 140.886 35.4383 140.886 35.555C140.886 35.6717 140.921 35.7767 140.991 35.87C141.084 35.94 141.189 35.975 141.306 35.975ZM143.161 41.61C143.277 41.61 143.382 41.575 143.476 41.505C143.569 41.4117 143.616 41.3067 143.616 41.19C143.616 40.8867 143.464 40.735 143.161 40.735C142.881 40.735 142.741 40.8867 142.741 41.19C142.741 41.3067 142.776 41.4117 142.846 41.505C142.939 41.575 143.044 41.61 143.161 41.61ZM143.161 38.32C143.464 38.32 143.616 38.18 143.616 37.9C143.616 37.5967 143.464 37.445 143.161 37.445C142.881 37.445 142.741 37.5967 142.741 37.9C142.741 38.18 142.881 38.32 143.161 38.32ZM164.054 43.815C164.054 45.3317 164.31 46.3117 164.824 46.755C164.894 46.8017 164.917 46.86 164.894 46.93C164.894 46.9767 164.835 47 164.719 47H147.429C147.312 47 147.242 46.9767 147.219 46.93C147.219 46.86 147.254 46.8017 147.324 46.755C147.837 46.3117 148.094 45.3317 148.094 43.815V42.24V26.28C148.094 24.1567 147.569 23.095 146.519 23.095H164.719C164.835 23.095 164.894 23.13 164.894 23.2C164.917 23.27 164.894 23.3283 164.824 23.375C164.31 23.8183 164.054 24.7867 164.054 26.28V27.89V28.59C164.054 28.6833 164.019 28.7417 163.949 28.765C163.879 28.7883 163.82 28.7533 163.774 28.66C163.33 28.1467 162.362 27.89 160.869 27.89H152.889V29.465V32.65H157.684C159.177 32.65 160.145 32.3933 160.589 31.88C160.635 31.81 160.694 31.7867 160.764 31.81C160.834 31.8333 160.869 31.8917 160.869 31.985V32.65V34.26V37.445V38.145C160.869 38.2383 160.834 38.2967 160.764 38.32C160.694 38.3433 160.635 38.32 160.589 38.25C160.122 37.7133 159.154 37.445 157.684 37.445H152.889V39.02V42.24H160.869C162.339 42.24 163.307 41.9717 163.774 41.435C163.82 41.365 163.879 41.3417 163.949 41.365C164.019 41.3883 164.054 41.4467 164.054 41.54V42.24V43.815ZM159.119 34.715C158.839 34.715 158.699 34.8667 158.699 35.17C158.699 35.45 158.839 35.59 159.119 35.59C159.422 35.59 159.574 35.45 159.574 35.17C159.574 34.8667 159.422 34.715 159.119 34.715ZM162.164 24.985C162.047 24.985 161.942 25.0317 161.849 25.125C161.779 25.195 161.744 25.2883 161.744 25.405C161.744 25.5217 161.779 25.6267 161.849 25.72C161.942 25.8133 162.047 25.86 162.164 25.86C162.467 25.86 162.619 25.7083 162.619 25.405C162.619 25.125 162.467 24.985 162.164 24.985ZM159.329 24.985C159.025 24.985 158.874 25.125 158.874 25.405C158.874 25.7083 159.025 25.86 159.329 25.86C159.445 25.86 159.539 25.8133 159.609 25.72C159.702 25.6267 159.749 25.5217 159.749 25.405C159.749 25.2883 159.702 25.195 159.609 25.125C159.539 25.0317 159.445 24.985 159.329 24.985ZM156.389 24.985C156.085 24.985 155.934 25.125 155.934 25.405C155.934 25.7083 156.085 25.86 156.389 25.86C156.505 25.86 156.599 25.8133 156.669 25.72C156.762 25.6267 156.809 25.5217 156.809 25.405C156.809 25.2883 156.762 25.195 156.669 25.125C156.599 25.0317 156.505 24.985 156.389 24.985ZM153.379 24.985C153.099 24.985 152.959 25.125 152.959 25.405C152.959 25.7083 153.099 25.86 153.379 25.86C153.659 25.86 153.799 25.7083 153.799 25.405C153.799 25.125 153.659 24.985 153.379 24.985ZM156.179 34.715C155.899 34.715 155.759 34.8667 155.759 35.17C155.759 35.45 155.899 35.59 156.179 35.59C156.482 35.59 156.634 35.45 156.634 35.17C156.634 34.8667 156.482 34.715 156.179 34.715ZM153.309 34.715C153.005 34.715 152.854 34.8667 152.854 35.17C152.854 35.45 153.005 35.59 153.309 35.59C153.425 35.59 153.519 35.555 153.589 35.485C153.682 35.3917 153.729 35.2867 153.729 35.17C153.729 35.0533 153.682 34.9483 153.589 34.855C153.519 34.7617 153.425 34.715 153.309 34.715ZM150.334 45.355C150.637 45.355 150.789 45.215 150.789 44.935C150.789 44.6317 150.637 44.48 150.334 44.48C150.054 44.48 149.914 44.6317 149.914 44.935C149.914 45.215 150.054 45.355 150.334 45.355ZM150.334 42.03C150.637 42.03 150.789 41.89 150.789 41.61C150.789 41.3067 150.637 41.155 150.334 41.155C150.054 41.155 149.914 41.3067 149.914 41.61C149.914 41.89 150.054 42.03 150.334 42.03ZM150.334 38.845C150.637 38.845 150.789 38.6933 150.789 38.39C150.789 38.11 150.637 37.97 150.334 37.97C150.054 37.97 149.914 38.11 149.914 38.39C149.914 38.6933 150.054 38.845 150.334 38.845ZM150.334 35.59C150.637 35.59 150.789 35.45 150.789 35.17C150.789 34.8667 150.637 34.715 150.334 34.715C150.054 34.715 149.914 34.8667 149.914 35.17C149.914 35.45 150.054 35.59 150.334 35.59ZM150.369 32.335C150.672 32.335 150.824 32.1833 150.824 31.88C150.824 31.6 150.672 31.46 150.369 31.46C150.065 31.46 149.914 31.6 149.914 31.88C149.914 32.1833 150.065 32.335 150.369 32.335ZM149.914 28.66C149.914 28.94 150.054 29.08 150.334 29.08C150.637 29.08 150.789 28.94 150.789 28.66C150.789 28.3567 150.637 28.205 150.334 28.205C150.054 28.205 149.914 28.3567 149.914 28.66ZM150.369 25.86C150.672 25.86 150.824 25.7083 150.824 25.405C150.824 25.125 150.672 24.985 150.369 24.985C150.065 24.985 149.914 25.125 149.914 25.405C149.914 25.7083 150.065 25.86 150.369 25.86ZM153.274 45.355C153.577 45.355 153.729 45.215 153.729 44.935C153.729 44.6317 153.577 44.48 153.274 44.48C152.994 44.48 152.854 44.6317 152.854 44.935C152.854 45.215 152.994 45.355 153.274 45.355ZM156.179 45.355C156.295 45.355 156.389 45.32 156.459 45.25C156.552 45.1567 156.599 45.0517 156.599 44.935C156.599 44.8183 156.552 44.7133 156.459 44.62C156.389 44.5267 156.295 44.48 156.179 44.48C155.875 44.48 155.724 44.6317 155.724 44.935C155.724 45.215 155.875 45.355 156.179 45.355ZM159.119 45.355C159.399 45.355 159.539 45.215 159.539 44.935C159.539 44.6317 159.399 44.48 159.119 44.48C158.815 44.48 158.664 44.6317 158.664 44.935C158.664 45.215 158.815 45.355 159.119 45.355ZM162.199 45.355C162.315 45.355 162.409 45.32 162.479 45.25C162.572 45.1567 162.619 45.0517 162.619 44.935C162.619 44.8183 162.572 44.7133 162.479 44.62C162.409 44.5267 162.315 44.48 162.199 44.48C161.895 44.48 161.744 44.6317 161.744 44.935C161.744 45.215 161.895 45.355 162.199 45.355ZM186.26 23.095C187.287 23.095 188.232 23.2817 189.095 23.655C189.959 24.0283 190.694 24.53 191.3 25.16C191.93 25.79 192.432 26.525 192.805 27.365C193.179 28.1817 193.389 29.0333 193.435 29.92C193.482 30.8067 193.354 31.6933 193.05 32.58C192.77 33.4667 192.28 34.295 191.58 35.065C192.234 35.7883 192.7 36.5233 192.98 37.27C193.26 38.0167 193.4 38.8683 193.4 39.825C193.4 40.805 193.214 41.7383 192.84 42.625C192.467 43.4883 191.954 44.2467 191.3 44.9C190.647 45.5533 189.877 46.0667 188.99 46.44C188.127 46.8133 187.205 47 186.225 47H184.65H183.075C182.072 47 181.127 46.8133 180.24 46.44C179.377 46.0667 178.619 45.5533 177.965 44.9C177.335 44.2467 176.834 43.4883 176.46 42.625C176.087 41.7383 175.9 40.805 175.9 39.825V39.72H180.66H181.465C181.629 39.72 181.675 39.79 181.605 39.93C181.325 40.5367 181.337 41.0733 181.64 41.54C181.944 42.0067 182.422 42.24 183.075 42.24H184.65H186.225H186.26C186.914 42.2167 187.462 41.9833 187.905 41.54C188.372 41.0733 188.605 40.5017 188.605 39.825C188.605 39.1717 188.372 38.6117 187.905 38.145C187.462 37.6783 186.902 37.445 186.225 37.445H185.665C184.475 37.445 183.542 37.69 182.865 38.18C182.702 38.2967 182.62 38.25 182.62 38.04V37.445V32.65H182.725H184.055H185.665H186.225H186.26H186.295C186.949 32.65 187.497 32.4167 187.94 31.95C188.407 31.4833 188.64 30.9233 188.64 30.27C188.64 29.5933 188.407 29.0333 187.94 28.59C187.497 28.1233 186.937 27.89 186.26 27.89H184.65H183.075C182.422 27.89 181.944 28.1233 181.64 28.59C181.337 29.0333 181.325 29.5583 181.605 30.165C181.675 30.305 181.629 30.375 181.465 30.375H180.66H175.9V30.27C175.9 29.29 176.087 28.3683 176.46 27.505C176.834 26.6183 177.335 25.8483 177.965 25.195C178.619 24.5417 179.377 24.0283 180.24 23.655C181.127 23.2817 182.072 23.095 183.075 23.095H184.65H186.26ZM178.805 28.695C179.085 28.6483 179.202 28.4733 179.155 28.17C179.109 28.0533 179.039 27.96 178.945 27.89C178.852 27.82 178.747 27.8083 178.63 27.855C178.327 27.9483 178.222 28.1233 178.315 28.38C178.339 28.4967 178.397 28.59 178.49 28.66C178.584 28.73 178.689 28.7417 178.805 28.695ZM180.59 26.21C180.707 26.1633 180.8 26.0933 180.87 26C180.94 25.9067 180.952 25.8017 180.905 25.685C180.859 25.5683 180.789 25.4867 180.695 25.44C180.602 25.37 180.497 25.3467 180.38 25.37C180.1 25.4633 179.995 25.6383 180.065 25.895C180.112 26.1983 180.287 26.3033 180.59 26.21ZM183.985 25.79C184.289 25.6967 184.394 25.5217 184.3 25.265C184.254 24.9617 184.079 24.8567 183.775 24.95C183.659 24.9733 183.565 25.0317 183.495 25.125C183.425 25.2183 183.414 25.3233 183.46 25.44C183.507 25.72 183.682 25.8367 183.985 25.79ZM187.135 25.79C187.252 25.7433 187.345 25.6733 187.415 25.58C187.485 25.4867 187.497 25.3817 187.45 25.265C187.357 24.985 187.182 24.88 186.925 24.95C186.809 24.9733 186.715 25.0317 186.645 25.125C186.575 25.2183 186.564 25.3233 186.61 25.44C186.68 25.72 186.855 25.8367 187.135 25.79ZM184.58 35.485C184.86 35.485 185 35.345 185 35.065C185 34.7617 184.86 34.61 184.58 34.61C184.277 34.61 184.125 34.7617 184.125 35.065C184.125 35.345 184.277 35.485 184.58 35.485ZM187.695 35.415C187.999 35.3683 188.104 35.1933 188.01 34.89C187.964 34.5867 187.789 34.4817 187.485 34.575C187.182 34.6217 187.077 34.7967 187.17 35.1C187.217 35.2167 187.287 35.31 187.38 35.38C187.474 35.45 187.579 35.4617 187.695 35.415ZM179.155 41.89C179.435 41.89 179.575 41.75 179.575 41.47C179.575 41.19 179.435 41.05 179.155 41.05C178.852 41.05 178.7 41.19 178.7 41.47C178.7 41.75 178.852 41.89 179.155 41.89ZM180.905 44.235C181.209 44.235 181.36 44.0833 181.36 43.78C181.36 43.5 181.209 43.36 180.905 43.36C180.625 43.36 180.485 43.5 180.485 43.78C180.485 44.0833 180.625 44.235 180.905 44.235ZM184.335 45.25C184.452 45.25 184.545 45.2033 184.615 45.11C184.709 45.0167 184.755 44.9117 184.755 44.795C184.755 44.6783 184.709 44.585 184.615 44.515C184.545 44.4217 184.452 44.375 184.335 44.375C184.195 44.375 184.079 44.4217 183.985 44.515C183.915 44.585 183.88 44.6783 183.88 44.795C183.88 45.0983 184.032 45.25 184.335 45.25ZM187.485 44.795C187.602 44.795 187.695 44.76 187.765 44.69C187.859 44.5967 187.905 44.4917 187.905 44.375C187.905 44.2583 187.859 44.165 187.765 44.095C187.695 44.0017 187.602 43.955 187.485 43.955C187.182 43.955 187.03 44.095 187.03 44.375C187.03 44.655 187.182 44.795 187.485 44.795ZM190.845 29.885C190.729 29.9083 190.635 29.9667 190.565 30.06C190.495 30.1533 190.484 30.2583 190.53 30.375C190.624 30.655 190.799 30.76 191.055 30.69C191.172 30.6667 191.265 30.6083 191.335 30.515C191.405 30.4217 191.417 30.3167 191.37 30.2C191.277 29.92 191.102 29.815 190.845 29.885ZM189.97 27.015C189.854 27.0617 189.76 27.1317 189.69 27.225C189.62 27.3183 189.609 27.4233 189.655 27.54C189.702 27.8433 189.877 27.9483 190.18 27.855C190.46 27.7617 190.565 27.5867 190.495 27.33C190.449 27.0267 190.274 26.9217 189.97 27.015ZM189.97 32.755C189.854 32.8017 189.76 32.8717 189.69 32.965C189.62 33.0583 189.609 33.1633 189.655 33.28C189.702 33.5833 189.877 33.6883 190.18 33.595C190.484 33.5483 190.589 33.3733 190.495 33.07C190.449 32.8133 190.274 32.7083 189.97 32.755ZM189.62 36.92C189.62 37.0367 189.667 37.1417 189.76 37.235C189.854 37.305 189.959 37.34 190.075 37.34C190.192 37.34 190.297 37.305 190.39 37.235C190.484 37.1417 190.53 37.0367 190.53 36.92C190.53 36.6167 190.379 36.465 190.075 36.465C189.772 36.465 189.62 36.6167 189.62 36.92ZM190.39 43.43C190.694 43.43 190.845 43.2783 190.845 42.975C190.845 42.695 190.694 42.555 190.39 42.555C190.274 42.555 190.169 42.6017 190.075 42.695C190.005 42.765 189.97 42.8583 189.97 42.975C189.97 43.0917 190.005 43.1967 190.075 43.29C190.169 43.3833 190.274 43.43 190.39 43.43ZM190.95 40.28C191.254 40.28 191.405 40.14 191.405 39.86C191.405 39.5567 191.254 39.405 190.95 39.405C190.67 39.405 190.53 39.5567 190.53 39.86C190.53 40.14 190.67 40.28 190.95 40.28ZM205.068 38.985V36.255H213.538V38.985H205.068ZM229.947 22.01L229.247 31.04H227.322L226.622 22.01H229.947ZM236.352 22.01L235.652 31.04H233.727L233.027 22.01H236.352ZM256.134 43.815C256.134 45.3317 256.39 46.3117 256.904 46.755C256.974 46.8017 256.997 46.86 256.974 46.93C256.974 46.9767 256.915 47 256.799 47H239.509C239.392 47 239.322 46.9767 239.299 46.93C239.299 46.86 239.334 46.8017 239.404 46.755C239.917 46.3117 240.174 45.3317 240.174 43.815V42.24V26.28C240.174 24.1567 239.649 23.095 238.599 23.095H256.799C256.915 23.095 256.974 23.13 256.974 23.2C256.997 23.27 256.974 23.3283 256.904 23.375C256.39 23.8183 256.134 24.7867 256.134 26.28V27.89V28.59C256.134 28.6833 256.099 28.7417 256.029 28.765C255.959 28.7883 255.9 28.7533 255.854 28.66C255.41 28.1467 254.442 27.89 252.949 27.89H244.969V29.465V32.65H249.764C251.257 32.65 252.225 32.3933 252.669 31.88C252.715 31.81 252.774 31.7867 252.844 31.81C252.914 31.8333 252.949 31.8917 252.949 31.985V32.65V34.26V37.445V38.145C252.949 38.2383 252.914 38.2967 252.844 38.32C252.774 38.3433 252.715 38.32 252.669 38.25C252.202 37.7133 251.234 37.445 249.764 37.445H244.969V39.02V42.24H252.949C254.419 42.24 255.387 41.9717 255.854 41.435C255.9 41.365 255.959 41.3417 256.029 41.365C256.099 41.3883 256.134 41.4467 256.134 41.54V42.24V43.815ZM251.199 34.715C250.919 34.715 250.779 34.8667 250.779 35.17C250.779 35.45 250.919 35.59 251.199 35.59C251.502 35.59 251.654 35.45 251.654 35.17C251.654 34.8667 251.502 34.715 251.199 34.715ZM254.244 24.985C254.127 24.985 254.022 25.0317 253.929 25.125C253.859 25.195 253.824 25.2883 253.824 25.405C253.824 25.5217 253.859 25.6267 253.929 25.72C254.022 25.8133 254.127 25.86 254.244 25.86C254.547 25.86 254.699 25.7083 254.699 25.405C254.699 25.125 254.547 24.985 254.244 24.985ZM251.409 24.985C251.105 24.985 250.954 25.125 250.954 25.405C250.954 25.7083 251.105 25.86 251.409 25.86C251.525 25.86 251.619 25.8133 251.689 25.72C251.782 25.6267 251.829 25.5217 251.829 25.405C251.829 25.2883 251.782 25.195 251.689 25.125C251.619 25.0317 251.525 24.985 251.409 24.985ZM248.469 24.985C248.165 24.985 248.014 25.125 248.014 25.405C248.014 25.7083 248.165 25.86 248.469 25.86C248.585 25.86 248.679 25.8133 248.749 25.72C248.842 25.6267 248.889 25.5217 248.889 25.405C248.889 25.2883 248.842 25.195 248.749 25.125C248.679 25.0317 248.585 24.985 248.469 24.985ZM245.459 24.985C245.179 24.985 245.039 25.125 245.039 25.405C245.039 25.7083 245.179 25.86 245.459 25.86C245.739 25.86 245.879 25.7083 245.879 25.405C245.879 25.125 245.739 24.985 245.459 24.985ZM248.259 34.715C247.979 34.715 247.839 34.8667 247.839 35.17C247.839 35.45 247.979 35.59 248.259 35.59C248.562 35.59 248.714 35.45 248.714 35.17C248.714 34.8667 248.562 34.715 248.259 34.715ZM245.389 34.715C245.085 34.715 244.934 34.8667 244.934 35.17C244.934 35.45 245.085 35.59 245.389 35.59C245.505 35.59 245.599 35.555 245.669 35.485C245.762 35.3917 245.809 35.2867 245.809 35.17C245.809 35.0533 245.762 34.9483 245.669 34.855C245.599 34.7617 245.505 34.715 245.389 34.715ZM242.414 45.355C242.717 45.355 242.869 45.215 242.869 44.935C242.869 44.6317 242.717 44.48 242.414 44.48C242.134 44.48 241.994 44.6317 241.994 44.935C241.994 45.215 242.134 45.355 242.414 45.355ZM242.414 42.03C242.717 42.03 242.869 41.89 242.869 41.61C242.869 41.3067 242.717 41.155 242.414 41.155C242.134 41.155 241.994 41.3067 241.994 41.61C241.994 41.89 242.134 42.03 242.414 42.03ZM242.414 38.845C242.717 38.845 242.869 38.6933 242.869 38.39C242.869 38.11 242.717 37.97 242.414 37.97C242.134 37.97 241.994 38.11 241.994 38.39C241.994 38.6933 242.134 38.845 242.414 38.845ZM242.414 35.59C242.717 35.59 242.869 35.45 242.869 35.17C242.869 34.8667 242.717 34.715 242.414 34.715C242.134 34.715 241.994 34.8667 241.994 35.17C241.994 35.45 242.134 35.59 242.414 35.59ZM242.449 32.335C242.752 32.335 242.904 32.1833 242.904 31.88C242.904 31.6 242.752 31.46 242.449 31.46C242.145 31.46 241.994 31.6 241.994 31.88C241.994 32.1833 242.145 32.335 242.449 32.335ZM241.994 28.66C241.994 28.94 242.134 29.08 242.414 29.08C242.717 29.08 242.869 28.94 242.869 28.66C242.869 28.3567 242.717 28.205 242.414 28.205C242.134 28.205 241.994 28.3567 241.994 28.66ZM242.449 25.86C242.752 25.86 242.904 25.7083 242.904 25.405C242.904 25.125 242.752 24.985 242.449 24.985C242.145 24.985 241.994 25.125 241.994 25.405C241.994 25.7083 242.145 25.86 242.449 25.86ZM245.354 45.355C245.657 45.355 245.809 45.215 245.809 44.935C245.809 44.6317 245.657 44.48 245.354 44.48C245.074 44.48 244.934 44.6317 244.934 44.935C244.934 45.215 245.074 45.355 245.354 45.355ZM248.259 45.355C248.375 45.355 248.469 45.32 248.539 45.25C248.632 45.1567 248.679 45.0517 248.679 44.935C248.679 44.8183 248.632 44.7133 248.539 44.62C248.469 44.5267 248.375 44.48 248.259 44.48C247.955 44.48 247.804 44.6317 247.804 44.935C247.804 45.215 247.955 45.355 248.259 45.355ZM251.199 45.355C251.479 45.355 251.619 45.215 251.619 44.935C251.619 44.6317 251.479 44.48 251.199 44.48C250.895 44.48 250.744 44.6317 250.744 44.935C250.744 45.215 250.895 45.355 251.199 45.355ZM254.279 45.355C254.395 45.355 254.489 45.32 254.559 45.25C254.652 45.1567 254.699 45.0517 254.699 44.935C254.699 44.8183 254.652 44.7133 254.559 44.62C254.489 44.5267 254.395 44.48 254.279 44.48C253.975 44.48 253.824 44.6317 253.824 44.935C253.824 45.215 253.975 45.355 254.279 45.355ZM274.961 43.815C274.961 45.285 275.229 46.2533 275.766 46.72C275.836 46.7667 275.859 46.825 275.836 46.895C275.813 46.965 275.754 47 275.661 47H269.501C269.408 47 269.349 46.965 269.326 46.895C269.303 46.825 269.326 46.7667 269.396 46.72C269.816 46.37 270.061 45.6933 270.131 44.69C270.178 44.27 270.154 43.8967 270.061 43.57C269.991 43.22 269.828 42.8817 269.571 42.555L263.796 34.505V37.445V39.02V43.815C263.796 45.285 264.064 46.2533 264.601 46.72C264.671 46.7667 264.694 46.825 264.671 46.895C264.648 46.965 264.589 47 264.496 47H258.336C258.243 47 258.184 46.965 258.161 46.895C258.138 46.825 258.161 46.7667 258.231 46.72C258.768 46.2533 259.036 45.285 259.036 43.815V42.205V26.28C259.036 24.7633 258.768 23.795 258.231 23.375C258.161 23.305 258.138 23.2467 258.161 23.2C258.184 23.13 258.243 23.095 258.336 23.095H264.496C264.589 23.095 264.648 23.13 264.671 23.2C264.694 23.2467 264.671 23.305 264.601 23.375C264.298 23.6083 264.076 24.0517 263.936 24.705C263.843 25.195 263.831 25.6383 263.901 26.035C263.994 26.4083 264.181 26.7933 264.461 27.19L270.201 35.205V32.65V29.465V26.28C270.201 24.7633 269.933 23.795 269.396 23.375C269.326 23.305 269.303 23.2467 269.326 23.2C269.349 23.13 269.408 23.095 269.501 23.095H275.661C275.754 23.095 275.813 23.13 275.836 23.2C275.859 23.2467 275.836 23.305 275.766 23.375C275.229 23.795 274.961 24.7633 274.961 26.28V43.815ZM261.451 45.32C261.731 45.32 261.871 45.1683 261.871 44.865C261.871 44.5617 261.731 44.41 261.451 44.41C261.171 44.41 261.031 44.5617 261.031 44.865C261.031 45.1683 261.171 45.32 261.451 45.32ZM261.451 41.96C261.731 41.96 261.871 41.82 261.871 41.54C261.871 41.2367 261.731 41.085 261.451 41.085C261.171 41.085 261.031 41.2367 261.031 41.54C261.031 41.82 261.171 41.96 261.451 41.96ZM261.451 38.775C261.731 38.775 261.871 38.6233 261.871 38.32C261.871 38.2033 261.824 38.11 261.731 38.04C261.661 37.9467 261.568 37.9 261.451 37.9C261.334 37.9 261.229 37.9467 261.136 38.04C261.066 38.11 261.031 38.2033 261.031 38.32C261.031 38.6233 261.171 38.775 261.451 38.775ZM261.451 35.52C261.568 35.52 261.661 35.485 261.731 35.415C261.824 35.3217 261.871 35.2167 261.871 35.1C261.871 34.7967 261.731 34.645 261.451 34.645C261.171 34.645 261.031 34.7967 261.031 35.1C261.031 35.2167 261.066 35.3217 261.136 35.415C261.229 35.485 261.334 35.52 261.451 35.52ZM261.486 32.265C261.766 32.265 261.906 32.1133 261.906 31.81C261.906 31.53 261.766 31.39 261.486 31.39C261.183 31.39 261.031 31.53 261.031 31.81C261.031 32.1133 261.183 32.265 261.486 32.265ZM261.031 28.59C261.031 28.8933 261.171 29.045 261.451 29.045C261.731 29.045 261.871 28.8933 261.871 28.59C261.871 28.31 261.731 28.17 261.451 28.17C261.171 28.17 261.031 28.31 261.031 28.59ZM261.486 25.79C261.766 25.79 261.906 25.6383 261.906 25.335C261.906 25.2183 261.859 25.125 261.766 25.055C261.696 24.9617 261.603 24.915 261.486 24.915C261.369 24.915 261.264 24.9617 261.171 25.055C261.078 25.125 261.031 25.2183 261.031 25.335C261.031 25.6383 261.183 25.79 261.486 25.79ZM263.551 30.025C263.784 29.815 263.784 29.5933 263.551 29.36C263.504 29.3367 263.458 29.3133 263.411 29.29C263.388 29.2667 263.353 29.255 263.306 29.255L263.376 30.13C263.423 30.13 263.481 30.095 263.551 30.025ZM265.161 32.755C265.278 32.755 265.371 32.72 265.441 32.65C265.534 32.5567 265.581 32.4517 265.581 32.335C265.581 32.2183 265.534 32.125 265.441 32.055C265.371 31.9617 265.278 31.915 265.161 31.915C264.858 31.915 264.706 32.055 264.706 32.335C264.706 32.615 264.858 32.755 265.161 32.755ZM267.121 35.275C267.401 35.275 267.541 35.1233 267.541 34.82C267.541 34.7033 267.494 34.61 267.401 34.54C267.331 34.4467 267.238 34.4 267.121 34.4C267.004 34.4 266.899 34.4467 266.806 34.54C266.713 34.61 266.666 34.7033 266.666 34.82C266.666 35.1233 266.818 35.275 267.121 35.275ZM268.976 38.11C269.093 38.11 269.186 38.0633 269.256 37.97C269.349 37.8767 269.396 37.7717 269.396 37.655C269.396 37.5383 269.349 37.4333 269.256 37.34C269.186 37.2467 269.093 37.2 268.976 37.2C268.673 37.2 268.521 37.3517 268.521 37.655C268.521 37.9583 268.673 38.11 268.976 38.11ZM270.761 40.945C270.854 41.0383 270.948 41.085 271.041 41.085L270.971 40.21C270.901 40.21 270.831 40.245 270.761 40.315C270.551 40.525 270.551 40.735 270.761 40.945ZM272.651 45.075C272.931 45.075 273.071 44.9233 273.071 44.62C273.071 44.34 272.931 44.2 272.651 44.2C272.348 44.2 272.196 44.34 272.196 44.62C272.196 44.9233 272.348 45.075 272.651 45.075ZM272.651 41.715C272.931 41.715 273.071 41.575 273.071 41.295C273.071 40.9917 272.931 40.84 272.651 40.84C272.348 40.84 272.196 40.9917 272.196 41.295C272.196 41.575 272.348 41.715 272.651 41.715ZM272.651 38.53C272.768 38.53 272.861 38.495 272.931 38.425C273.024 38.3317 273.071 38.2267 273.071 38.11C273.071 37.8067 272.931 37.655 272.651 37.655C272.348 37.655 272.196 37.8067 272.196 38.11C272.196 38.2267 272.243 38.3317 272.336 38.425C272.429 38.495 272.534 38.53 272.651 38.53ZM272.651 35.275C272.931 35.275 273.071 35.135 273.071 34.855C273.071 34.5517 272.931 34.4 272.651 34.4C272.348 34.4 272.196 34.5517 272.196 34.855C272.196 35.135 272.348 35.275 272.651 35.275ZM272.686 32.02C272.803 32.02 272.896 31.9733 272.966 31.88C273.059 31.7867 273.106 31.6817 273.106 31.565C273.106 31.4483 273.059 31.355 272.966 31.285C272.896 31.1917 272.803 31.145 272.686 31.145C272.383 31.145 272.231 31.285 272.231 31.565C272.231 31.8683 272.383 32.02 272.686 32.02ZM272.196 28.345C272.196 28.6483 272.348 28.8 272.651 28.8C272.931 28.8 273.071 28.6483 273.071 28.345C273.071 28.065 272.931 27.925 272.651 27.925C272.348 27.925 272.196 28.065 272.196 28.345ZM272.686 25.545C272.803 25.545 272.896 25.51 272.966 25.44C273.059 25.3467 273.106 25.2417 273.106 25.125C273.106 25.0083 273.059 24.9033 272.966 24.81C272.896 24.7167 272.803 24.67 272.686 24.67C272.383 24.67 272.231 24.8217 272.231 25.125C272.231 25.2417 272.266 25.3467 272.336 25.44C272.429 25.51 272.546 25.545 272.686 25.545ZM294.459 23.095C294.552 23.095 294.611 23.13 294.634 23.2C294.657 23.2467 294.622 23.305 294.529 23.375C294.016 23.8417 293.759 24.81 293.759 26.28V27.855V28.555C293.759 28.6483 293.724 28.7067 293.654 28.73C293.584 28.7533 293.526 28.73 293.479 28.66C293.012 28.1233 292.044 27.855 290.574 27.855H288.159V30.76V35.835V41.995V43.815C288.159 45.3083 288.416 46.2767 288.929 46.72C288.999 46.7667 289.022 46.825 288.999 46.895C288.999 46.965 288.941 47 288.824 47H282.664C282.571 47 282.512 46.965 282.489 46.895C282.466 46.825 282.501 46.7667 282.594 46.72C283.107 46.2533 283.364 45.285 283.364 43.815V27.855H280.949C279.432 27.855 278.464 28.1233 278.044 28.66C277.974 28.73 277.904 28.7533 277.834 28.73C277.787 28.7067 277.764 28.6483 277.764 28.555V27.855V26.28C277.764 24.81 277.496 23.8417 276.959 23.375C276.889 23.305 276.866 23.2467 276.889 23.2C276.912 23.13 276.971 23.095 277.064 23.095H277.764H282.524H286.549H289.734H293.759H294.459ZM279.654 25.65C279.957 25.65 280.109 25.4983 280.109 25.195C280.109 24.915 279.957 24.775 279.654 24.775C279.374 24.775 279.234 24.915 279.234 25.195C279.234 25.4983 279.374 25.65 279.654 25.65ZM282.734 25.65C283.014 25.65 283.154 25.4983 283.154 25.195C283.154 24.915 283.014 24.775 282.734 24.775C282.431 24.775 282.279 24.915 282.279 25.195C282.279 25.4983 282.431 25.65 282.734 25.65ZM285.779 45.145C285.896 45.145 286.001 45.11 286.094 45.04C286.187 44.9467 286.234 44.8417 286.234 44.725C286.234 44.4217 286.082 44.27 285.779 44.27C285.499 44.27 285.359 44.4217 285.359 44.725C285.359 44.8417 285.394 44.9467 285.464 45.04C285.557 45.11 285.662 45.145 285.779 45.145ZM285.779 41.82C285.896 41.82 286.001 41.785 286.094 41.715C286.187 41.6217 286.234 41.5167 286.234 41.4C286.234 41.0967 286.082 40.945 285.779 40.945C285.499 40.945 285.359 41.0967 285.359 41.4C285.359 41.5167 285.394 41.6217 285.464 41.715C285.557 41.785 285.662 41.82 285.779 41.82ZM285.779 38.6C286.082 38.6 286.234 38.46 286.234 38.18C286.234 37.9 286.082 37.76 285.779 37.76C285.499 37.76 285.359 37.9 285.359 38.18C285.359 38.46 285.499 38.6 285.779 38.6ZM285.779 35.38C285.896 35.38 286.001 35.345 286.094 35.275C286.187 35.1817 286.234 35.0767 286.234 34.96C286.234 34.6567 286.082 34.505 285.779 34.505C285.499 34.505 285.359 34.6567 285.359 34.96C285.359 35.0767 285.394 35.1817 285.464 35.275C285.557 35.345 285.662 35.38 285.779 35.38ZM285.814 32.09C286.094 32.09 286.234 31.95 286.234 31.67C286.234 31.3667 286.094 31.215 285.814 31.215C285.511 31.215 285.359 31.3667 285.359 31.67C285.359 31.95 285.511 32.09 285.814 32.09ZM285.359 28.45C285.359 28.73 285.499 28.87 285.779 28.87C286.082 28.87 286.234 28.73 286.234 28.45C286.234 28.1467 286.082 27.995 285.779 27.995C285.499 27.995 285.359 28.1467 285.359 28.45ZM285.814 25.65C286.094 25.65 286.234 25.4983 286.234 25.195C286.234 24.915 286.094 24.775 285.814 24.775C285.511 24.775 285.359 24.915 285.359 25.195C285.359 25.4983 285.511 25.65 285.814 25.65ZM288.859 25.65C289.139 25.65 289.279 25.4983 289.279 25.195C289.279 24.915 289.139 24.775 288.859 24.775C288.556 24.775 288.404 24.915 288.404 25.195C288.404 25.4983 288.556 25.65 288.859 25.65ZM291.939 25.65C292.219 25.65 292.359 25.4983 292.359 25.195C292.359 24.915 292.219 24.775 291.939 24.775C291.636 24.775 291.484 24.915 291.484 25.195C291.484 25.4983 291.636 25.65 291.939 25.65ZM312.599 43.815C312.599 45.3317 312.855 46.3117 313.369 46.755C313.439 46.8017 313.462 46.86 313.439 46.93C313.439 46.9767 313.38 47 313.264 47H295.974C295.857 47 295.787 46.9767 295.764 46.93C295.764 46.86 295.799 46.8017 295.869 46.755C296.382 46.3117 296.639 45.3317 296.639 43.815V42.24V26.28C296.639 24.1567 296.114 23.095 295.064 23.095H313.264C313.38 23.095 313.439 23.13 313.439 23.2C313.462 23.27 313.439 23.3283 313.369 23.375C312.855 23.8183 312.599 24.7867 312.599 26.28V27.89V28.59C312.599 28.6833 312.564 28.7417 312.494 28.765C312.424 28.7883 312.365 28.7533 312.319 28.66C311.875 28.1467 310.907 27.89 309.414 27.89H301.434V29.465V32.65H306.229C307.722 32.65 308.69 32.3933 309.134 31.88C309.18 31.81 309.239 31.7867 309.309 31.81C309.379 31.8333 309.414 31.8917 309.414 31.985V32.65V34.26V37.445V38.145C309.414 38.2383 309.379 38.2967 309.309 38.32C309.239 38.3433 309.18 38.32 309.134 38.25C308.667 37.7133 307.699 37.445 306.229 37.445H301.434V39.02V42.24H309.414C310.884 42.24 311.852 41.9717 312.319 41.435C312.365 41.365 312.424 41.3417 312.494 41.365C312.564 41.3883 312.599 41.4467 312.599 41.54V42.24V43.815ZM307.664 34.715C307.384 34.715 307.244 34.8667 307.244 35.17C307.244 35.45 307.384 35.59 307.664 35.59C307.967 35.59 308.119 35.45 308.119 35.17C308.119 34.8667 307.967 34.715 307.664 34.715ZM310.709 24.985C310.592 24.985 310.487 25.0317 310.394 25.125C310.324 25.195 310.289 25.2883 310.289 25.405C310.289 25.5217 310.324 25.6267 310.394 25.72C310.487 25.8133 310.592 25.86 310.709 25.86C311.012 25.86 311.164 25.7083 311.164 25.405C311.164 25.125 311.012 24.985 310.709 24.985ZM307.874 24.985C307.57 24.985 307.419 25.125 307.419 25.405C307.419 25.7083 307.57 25.86 307.874 25.86C307.99 25.86 308.084 25.8133 308.154 25.72C308.247 25.6267 308.294 25.5217 308.294 25.405C308.294 25.2883 308.247 25.195 308.154 25.125C308.084 25.0317 307.99 24.985 307.874 24.985ZM304.934 24.985C304.63 24.985 304.479 25.125 304.479 25.405C304.479 25.7083 304.63 25.86 304.934 25.86C305.05 25.86 305.144 25.8133 305.214 25.72C305.307 25.6267 305.354 25.5217 305.354 25.405C305.354 25.2883 305.307 25.195 305.214 25.125C305.144 25.0317 305.05 24.985 304.934 24.985ZM301.924 24.985C301.644 24.985 301.504 25.125 301.504 25.405C301.504 25.7083 301.644 25.86 301.924 25.86C302.204 25.86 302.344 25.7083 302.344 25.405C302.344 25.125 302.204 24.985 301.924 24.985ZM304.724 34.715C304.444 34.715 304.304 34.8667 304.304 35.17C304.304 35.45 304.444 35.59 304.724 35.59C305.027 35.59 305.179 35.45 305.179 35.17C305.179 34.8667 305.027 34.715 304.724 34.715ZM301.854 34.715C301.55 34.715 301.399 34.8667 301.399 35.17C301.399 35.45 301.55 35.59 301.854 35.59C301.97 35.59 302.064 35.555 302.134 35.485C302.227 35.3917 302.274 35.2867 302.274 35.17C302.274 35.0533 302.227 34.9483 302.134 34.855C302.064 34.7617 301.97 34.715 301.854 34.715ZM298.879 45.355C299.182 45.355 299.334 45.215 299.334 44.935C299.334 44.6317 299.182 44.48 298.879 44.48C298.599 44.48 298.459 44.6317 298.459 44.935C298.459 45.215 298.599 45.355 298.879 45.355ZM298.879 42.03C299.182 42.03 299.334 41.89 299.334 41.61C299.334 41.3067 299.182 41.155 298.879 41.155C298.599 41.155 298.459 41.3067 298.459 41.61C298.459 41.89 298.599 42.03 298.879 42.03ZM298.879 38.845C299.182 38.845 299.334 38.6933 299.334 38.39C299.334 38.11 299.182 37.97 298.879 37.97C298.599 37.97 298.459 38.11 298.459 38.39C298.459 38.6933 298.599 38.845 298.879 38.845ZM298.879 35.59C299.182 35.59 299.334 35.45 299.334 35.17C299.334 34.8667 299.182 34.715 298.879 34.715C298.599 34.715 298.459 34.8667 298.459 35.17C298.459 35.45 298.599 35.59 298.879 35.59ZM298.914 32.335C299.217 32.335 299.369 32.1833 299.369 31.88C299.369 31.6 299.217 31.46 298.914 31.46C298.61 31.46 298.459 31.6 298.459 31.88C298.459 32.1833 298.61 32.335 298.914 32.335ZM298.459 28.66C298.459 28.94 298.599 29.08 298.879 29.08C299.182 29.08 299.334 28.94 299.334 28.66C299.334 28.3567 299.182 28.205 298.879 28.205C298.599 28.205 298.459 28.3567 298.459 28.66ZM298.914 25.86C299.217 25.86 299.369 25.7083 299.369 25.405C299.369 25.125 299.217 24.985 298.914 24.985C298.61 24.985 298.459 25.125 298.459 25.405C298.459 25.7083 298.61 25.86 298.914 25.86ZM301.819 45.355C302.122 45.355 302.274 45.215 302.274 44.935C302.274 44.6317 302.122 44.48 301.819 44.48C301.539 44.48 301.399 44.6317 301.399 44.935C301.399 45.215 301.539 45.355 301.819 45.355ZM304.724 45.355C304.84 45.355 304.934 45.32 305.004 45.25C305.097 45.1567 305.144 45.0517 305.144 44.935C305.144 44.8183 305.097 44.7133 305.004 44.62C304.934 44.5267 304.84 44.48 304.724 44.48C304.42 44.48 304.269 44.6317 304.269 44.935C304.269 45.215 304.42 45.355 304.724 45.355ZM307.664 45.355C307.944 45.355 308.084 45.215 308.084 44.935C308.084 44.6317 307.944 44.48 307.664 44.48C307.36 44.48 307.209 44.6317 307.209 44.935C307.209 45.215 307.36 45.355 307.664 45.355ZM310.744 45.355C310.86 45.355 310.954 45.32 311.024 45.25C311.117 45.1567 311.164 45.0517 311.164 44.935C311.164 44.8183 311.117 44.7133 311.024 44.62C310.954 44.5267 310.86 44.48 310.744 44.48C310.44 44.48 310.289 44.6317 310.289 44.935C310.289 45.215 310.44 45.355 310.744 45.355ZM331.286 46.72C331.356 46.7667 331.379 46.825 331.356 46.895C331.333 46.965 331.274 47 331.181 47H325.021C324.928 47 324.869 46.965 324.846 46.895C324.823 46.825 324.846 46.7667 324.916 46.72C325.453 46.2767 325.721 45.3083 325.721 43.815V42.205V41.4C325.721 40.7467 325.593 40.1283 325.336 39.545C325.103 38.9617 324.764 38.46 324.321 38.04C323.878 37.5967 323.364 37.2583 322.781 37.025C322.198 36.7683 321.579 36.64 320.926 36.64H320.156V39.02V42.205V43.815C320.156 45.3083 320.413 46.2767 320.926 46.72C320.996 46.7667 321.019 46.825 320.996 46.895C320.996 46.965 320.938 47 320.821 47H320.156H318.546H314.661C314.568 47 314.509 46.965 314.486 46.895C314.463 46.825 314.498 46.7667 314.591 46.72C315.104 46.2533 315.361 45.285 315.361 43.815V26.28C315.361 24.7867 315.104 23.8183 314.591 23.375C314.498 23.305 314.463 23.235 314.486 23.165C314.509 23.095 314.568 23.06 314.661 23.06H318.546H323.691C324.624 23.06 325.499 23.2467 326.316 23.62C327.156 23.97 327.879 24.46 328.486 25.09C329.116 25.6967 329.606 26.42 329.956 27.26C330.329 28.0767 330.516 28.9517 330.516 29.885C330.516 30.8883 330.306 31.845 329.886 32.755C329.466 33.665 328.871 34.435 328.101 35.065C328.941 36.045 329.548 37.0367 329.921 38.04C330.318 39.02 330.516 40.14 330.516 41.4V42.205V43.815C330.516 45.3083 330.773 46.2767 331.286 46.72ZM317.706 45.495C318.009 45.495 318.161 45.355 318.161 45.075C318.161 44.7717 318.009 44.62 317.706 44.62C317.426 44.62 317.286 44.7717 317.286 45.075C317.286 45.355 317.426 45.495 317.706 45.495ZM317.706 42.17C318.009 42.17 318.161 42.0183 318.161 41.715C318.161 41.5983 318.114 41.505 318.021 41.435C317.928 41.3417 317.823 41.295 317.706 41.295C317.589 41.295 317.484 41.3417 317.391 41.435C317.321 41.505 317.286 41.5983 317.286 41.715C317.286 42.0183 317.426 42.17 317.706 42.17ZM317.706 38.985C318.009 38.985 318.161 38.8333 318.161 38.53C318.161 38.4133 318.114 38.32 318.021 38.25C317.928 38.1567 317.823 38.11 317.706 38.11C317.589 38.11 317.484 38.1567 317.391 38.25C317.321 38.32 317.286 38.4133 317.286 38.53C317.286 38.8333 317.426 38.985 317.706 38.985ZM317.706 35.73C318.009 35.73 318.161 35.5783 318.161 35.275C318.161 35.1583 318.114 35.065 318.021 34.995C317.928 34.9017 317.823 34.855 317.706 34.855C317.589 34.855 317.484 34.9017 317.391 34.995C317.321 35.065 317.286 35.1583 317.286 35.275C317.286 35.5783 317.426 35.73 317.706 35.73ZM317.741 32.44C318.021 32.44 318.161 32.3 318.161 32.02C318.161 31.74 318.021 31.6 317.741 31.6C317.461 31.6 317.321 31.74 317.321 32.02C317.321 32.3 317.461 32.44 317.741 32.44ZM317.286 28.8C317.286 29.08 317.426 29.22 317.706 29.22C318.009 29.22 318.161 29.08 318.161 28.8C318.161 28.52 318.009 28.38 317.706 28.38C317.426 28.38 317.286 28.52 317.286 28.8ZM317.741 26C318.021 26 318.161 25.8483 318.161 25.545C318.161 25.265 318.021 25.125 317.741 25.125C317.461 25.125 317.321 25.265 317.321 25.545C317.321 25.8483 317.461 26 317.741 26ZM328.101 29.815C327.984 29.815 327.879 29.8617 327.786 29.955C327.693 30.025 327.646 30.1183 327.646 30.235C327.646 30.5383 327.798 30.69 328.101 30.69C328.381 30.69 328.521 30.5383 328.521 30.235C328.521 30.1183 328.474 30.025 328.381 29.955C328.311 29.8617 328.218 29.815 328.101 29.815ZM327.296 26.91C327.016 26.91 326.876 27.05 326.876 27.33C326.876 27.61 327.016 27.75 327.296 27.75C327.599 27.75 327.751 27.61 327.751 27.33C327.751 27.05 327.599 26.91 327.296 26.91ZM324.321 25.125C324.041 25.125 323.901 25.2767 323.901 25.58C323.901 25.6967 323.936 25.8017 324.006 25.895C324.099 25.965 324.204 26 324.321 26C324.438 26 324.543 25.965 324.636 25.895C324.729 25.8017 324.776 25.6967 324.776 25.58C324.776 25.2767 324.624 25.125 324.321 25.125ZM320.856 25.125C320.739 25.125 320.634 25.1717 320.541 25.265C320.471 25.3583 320.436 25.4633 320.436 25.58C320.436 25.6967 320.471 25.8017 320.541 25.895C320.634 25.965 320.739 26 320.856 26C320.973 26 321.078 25.965 321.171 25.895C321.264 25.8017 321.311 25.6967 321.311 25.58C321.311 25.2767 321.159 25.125 320.856 25.125ZM320.576 34.54C320.693 34.54 320.786 34.4933 320.856 34.4C320.949 34.3067 320.996 34.2017 320.996 34.085C320.996 33.9683 320.949 33.875 320.856 33.805C320.786 33.7117 320.693 33.665 320.576 33.665C320.459 33.665 320.354 33.7117 320.261 33.805C320.168 33.875 320.121 33.9683 320.121 34.085C320.121 34.3883 320.273 34.54 320.576 34.54ZM323.796 34.61C324.099 34.61 324.251 34.47 324.251 34.19C324.251 33.8867 324.099 33.735 323.796 33.735C323.516 33.735 323.376 33.8867 323.376 34.19C323.376 34.47 323.516 34.61 323.796 34.61ZM323.691 31.915C324.251 31.915 324.729 31.7283 325.126 31.355C325.523 30.9583 325.721 30.4683 325.721 29.885C325.721 29.325 325.523 28.8467 325.126 28.45C324.729 28.0533 324.251 27.855 323.691 27.855H320.156V27.89V28.135V31.88V31.915H323.691ZM325.966 36.85C326.269 36.85 326.421 36.71 326.421 36.43C326.421 36.1267 326.269 35.975 325.966 35.975C325.686 35.975 325.546 36.1267 325.546 36.43C325.546 36.71 325.686 36.85 325.966 36.85ZM326.491 33.56C326.491 33.84 326.643 33.98 326.946 33.98C327.063 33.98 327.156 33.945 327.226 33.875C327.319 33.7817 327.366 33.6767 327.366 33.56C327.366 33.4433 327.319 33.3383 327.226 33.245C327.156 33.1517 327.063 33.105 326.946 33.105C326.643 33.105 326.491 33.2567 326.491 33.56ZM327.226 38.95C327.226 39.23 327.378 39.37 327.681 39.37C327.961 39.37 328.101 39.23 328.101 38.95C328.101 38.6467 327.961 38.495 327.681 38.495C327.378 38.495 327.226 38.6467 327.226 38.95ZM328.136 41.54C328.019 41.54 327.914 41.5867 327.821 41.68C327.751 41.75 327.716 41.8433 327.716 41.96C327.716 42.0767 327.751 42.1817 327.821 42.275C327.914 42.345 328.019 42.38 328.136 42.38C328.439 42.38 328.591 42.24 328.591 41.96C328.591 41.68 328.439 41.54 328.136 41.54ZM328.241 45.495C328.544 45.495 328.696 45.355 328.696 45.075C328.696 44.7717 328.544 44.62 328.241 44.62C328.124 44.62 328.019 44.6667 327.926 44.76C327.856 44.8533 327.821 44.9583 327.821 45.075C327.821 45.1917 327.856 45.2967 327.926 45.39C328.019 45.46 328.124 45.495 328.241 45.495ZM359.059 23.095C359.152 23.095 359.21 23.13 359.234 23.2C359.257 23.2467 359.222 23.305 359.129 23.375C358.615 23.8417 358.359 24.81 358.359 26.28V27.855V28.555C358.359 28.6483 358.324 28.7067 358.254 28.73C358.184 28.7533 358.125 28.73 358.079 28.66C357.612 28.1233 356.644 27.855 355.174 27.855H352.759V30.76V35.835V41.995V43.815C352.759 45.3083 353.015 46.2767 353.529 46.72C353.599 46.7667 353.622 46.825 353.599 46.895C353.599 46.965 353.54 47 353.424 47H347.264C347.17 47 347.112 46.965 347.089 46.895C347.065 46.825 347.1 46.7667 347.194 46.72C347.707 46.2533 347.964 45.285 347.964 43.815V27.855H345.549C344.032 27.855 343.064 28.1233 342.644 28.66C342.574 28.73 342.504 28.7533 342.434 28.73C342.387 28.7067 342.364 28.6483 342.364 28.555V27.855V26.28C342.364 24.81 342.095 23.8417 341.559 23.375C341.489 23.305 341.465 23.2467 341.489 23.2C341.512 23.13 341.57 23.095 341.664 23.095H342.364H347.124H351.149H354.334H358.359H359.059ZM344.254 25.65C344.557 25.65 344.709 25.4983 344.709 25.195C344.709 24.915 344.557 24.775 344.254 24.775C343.974 24.775 343.834 24.915 343.834 25.195C343.834 25.4983 343.974 25.65 344.254 25.65ZM347.334 25.65C347.614 25.65 347.754 25.4983 347.754 25.195C347.754 24.915 347.614 24.775 347.334 24.775C347.03 24.775 346.879 24.915 346.879 25.195C346.879 25.4983 347.03 25.65 347.334 25.65ZM350.379 45.145C350.495 45.145 350.6 45.11 350.694 45.04C350.787 44.9467 350.834 44.8417 350.834 44.725C350.834 44.4217 350.682 44.27 350.379 44.27C350.099 44.27 349.959 44.4217 349.959 44.725C349.959 44.8417 349.994 44.9467 350.064 45.04C350.157 45.11 350.262 45.145 350.379 45.145ZM350.379 41.82C350.495 41.82 350.6 41.785 350.694 41.715C350.787 41.6217 350.834 41.5167 350.834 41.4C350.834 41.0967 350.682 40.945 350.379 40.945C350.099 40.945 349.959 41.0967 349.959 41.4C349.959 41.5167 349.994 41.6217 350.064 41.715C350.157 41.785 350.262 41.82 350.379 41.82ZM350.379 38.6C350.682 38.6 350.834 38.46 350.834 38.18C350.834 37.9 350.682 37.76 350.379 37.76C350.099 37.76 349.959 37.9 349.959 38.18C349.959 38.46 350.099 38.6 350.379 38.6ZM350.379 35.38C350.495 35.38 350.6 35.345 350.694 35.275C350.787 35.1817 350.834 35.0767 350.834 34.96C350.834 34.6567 350.682 34.505 350.379 34.505C350.099 34.505 349.959 34.6567 349.959 34.96C349.959 35.0767 349.994 35.1817 350.064 35.275C350.157 35.345 350.262 35.38 350.379 35.38ZM350.414 32.09C350.694 32.09 350.834 31.95 350.834 31.67C350.834 31.3667 350.694 31.215 350.414 31.215C350.11 31.215 349.959 31.3667 349.959 31.67C349.959 31.95 350.11 32.09 350.414 32.09ZM349.959 28.45C349.959 28.73 350.099 28.87 350.379 28.87C350.682 28.87 350.834 28.73 350.834 28.45C350.834 28.1467 350.682 27.995 350.379 27.995C350.099 27.995 349.959 28.1467 349.959 28.45ZM350.414 25.65C350.694 25.65 350.834 25.4983 350.834 25.195C350.834 24.915 350.694 24.775 350.414 24.775C350.11 24.775 349.959 24.915 349.959 25.195C349.959 25.4983 350.11 25.65 350.414 25.65ZM353.459 25.65C353.739 25.65 353.879 25.4983 353.879 25.195C353.879 24.915 353.739 24.775 353.459 24.775C353.155 24.775 353.004 24.915 353.004 25.195C353.004 25.4983 353.155 25.65 353.459 25.65ZM356.539 25.65C356.819 25.65 356.959 25.4983 356.959 25.195C356.959 24.915 356.819 24.775 356.539 24.775C356.235 24.775 356.084 24.915 356.084 25.195C356.084 25.4983 356.235 25.65 356.539 25.65ZM377.093 43.815C377.093 45.3083 377.35 46.2767 377.863 46.72C377.933 46.7667 377.957 46.825 377.933 46.895C377.933 46.965 377.875 47 377.758 47H371.598C371.505 47 371.447 46.965 371.423 46.895C371.4 46.825 371.435 46.7667 371.528 46.72C372.042 46.2533 372.298 45.285 372.298 43.815V39.02V37.445H365.928V39.02V43.815C365.928 45.3083 366.185 46.2767 366.698 46.72C366.768 46.7667 366.792 46.825 366.768 46.895C366.745 46.965 366.687 47 366.593 47H360.468C360.352 47 360.282 46.965 360.258 46.895C360.235 46.825 360.27 46.7667 360.363 46.72C360.877 46.2767 361.133 45.3083 361.133 43.815V42.205V26.28C361.133 24.7633 360.877 23.795 360.363 23.375C360.27 23.305 360.235 23.2467 360.258 23.2C360.282 23.13 360.352 23.095 360.468 23.095H366.593C366.687 23.095 366.745 23.13 366.768 23.2C366.792 23.2467 366.768 23.305 366.698 23.375C366.185 23.795 365.928 24.7633 365.928 26.28V29.465V32.65H372.298V29.465V26.28C372.298 24.7867 372.042 23.8183 371.528 23.375C371.435 23.305 371.4 23.2467 371.423 23.2C371.447 23.13 371.505 23.095 371.598 23.095H377.758C378.015 23.095 378.05 23.1883 377.863 23.375C377.35 23.795 377.093 24.7633 377.093 26.28V43.815ZM363.443 45.39C363.747 45.39 363.898 45.25 363.898 44.97C363.898 44.6667 363.747 44.515 363.443 44.515C363.163 44.515 363.023 44.6667 363.023 44.97C363.023 45.25 363.163 45.39 363.443 45.39ZM363.443 42.065C363.747 42.065 363.898 41.9133 363.898 41.61C363.898 41.33 363.747 41.19 363.443 41.19C363.163 41.19 363.023 41.33 363.023 41.61C363.023 41.9133 363.163 42.065 363.443 42.065ZM363.443 38.845C363.747 38.845 363.898 38.705 363.898 38.425C363.898 38.145 363.747 38.005 363.443 38.005C363.163 38.005 363.023 38.145 363.023 38.425C363.023 38.705 363.163 38.845 363.443 38.845ZM363.443 35.625C363.747 35.625 363.898 35.4733 363.898 35.17C363.898 34.89 363.747 34.75 363.443 34.75C363.163 34.75 363.023 34.89 363.023 35.17C363.023 35.4733 363.163 35.625 363.443 35.625ZM363.478 32.335C363.782 32.335 363.933 32.195 363.933 31.915C363.933 31.6117 363.782 31.46 363.478 31.46C363.198 31.46 363.058 31.6117 363.058 31.915C363.058 32.195 363.198 32.335 363.478 32.335ZM363.023 28.695C363.023 28.975 363.163 29.115 363.443 29.115C363.747 29.115 363.898 28.975 363.898 28.695C363.898 28.3917 363.747 28.24 363.443 28.24C363.163 28.24 363.023 28.3917 363.023 28.695ZM363.478 25.86C363.782 25.86 363.933 25.72 363.933 25.44C363.933 25.16 363.782 25.02 363.478 25.02C363.198 25.02 363.058 25.16 363.058 25.44C363.058 25.72 363.198 25.86 363.478 25.86ZM367.153 35.52C367.27 35.52 367.363 35.485 367.433 35.415C367.527 35.3217 367.573 35.2167 367.573 35.1C367.573 34.9833 367.527 34.8783 367.433 34.785C367.363 34.6917 367.27 34.645 367.153 34.645C366.85 34.645 366.698 34.7967 366.698 35.1C366.698 35.38 366.85 35.52 367.153 35.52ZM370.758 35.52C371.038 35.52 371.178 35.38 371.178 35.1C371.178 34.7967 371.038 34.645 370.758 34.645C370.455 34.645 370.303 34.7967 370.303 35.1C370.303 35.38 370.455 35.52 370.758 35.52ZM374.713 24.565C374.41 24.565 374.258 24.7167 374.258 25.02C374.258 25.1367 374.305 25.2417 374.398 25.335C374.492 25.405 374.597 25.44 374.713 25.44C374.83 25.44 374.923 25.405 374.993 25.335C375.087 25.2417 375.133 25.1367 375.133 25.02C375.133 24.9033 375.087 24.7983 374.993 24.705C374.923 24.6117 374.83 24.565 374.713 24.565ZM374.678 27.82C374.562 27.82 374.457 27.8667 374.363 27.96C374.293 28.03 374.258 28.1233 374.258 28.24C374.258 28.5433 374.398 28.695 374.678 28.695C374.982 28.695 375.133 28.5433 375.133 28.24C375.133 28.1233 375.087 28.03 374.993 27.96C374.9 27.8667 374.795 27.82 374.678 27.82ZM375.133 31.46C375.133 31.3433 375.087 31.25 374.993 31.18C374.923 31.0867 374.83 31.04 374.713 31.04C374.597 31.04 374.492 31.0867 374.398 31.18C374.305 31.25 374.258 31.3433 374.258 31.46C374.258 31.7633 374.41 31.915 374.713 31.915C374.83 31.915 374.923 31.8683 374.993 31.775C375.087 31.6817 375.133 31.5767 375.133 31.46ZM374.678 44.97C374.982 44.97 375.133 44.8183 375.133 44.515C375.133 44.235 374.982 44.095 374.678 44.095C374.398 44.095 374.258 44.235 374.258 44.515C374.258 44.8183 374.398 44.97 374.678 44.97ZM374.678 41.61C374.982 41.61 375.133 41.47 375.133 41.19C375.133 40.8867 374.982 40.735 374.678 40.735C374.398 40.735 374.258 40.8867 374.258 41.19C374.258 41.47 374.398 41.61 374.678 41.61ZM374.678 38.425C374.795 38.425 374.9 38.39 374.993 38.32C375.087 38.2267 375.133 38.1217 375.133 38.005C375.133 37.7017 374.982 37.55 374.678 37.55C374.398 37.55 374.258 37.7017 374.258 38.005C374.258 38.1217 374.293 38.2267 374.363 38.32C374.457 38.39 374.562 38.425 374.678 38.425ZM374.783 35.38C375.063 35.38 375.203 35.24 375.203 34.96C375.203 34.68 375.063 34.54 374.783 34.54C374.503 34.54 374.363 34.68 374.363 34.96C374.363 35.24 374.503 35.38 374.783 35.38ZM396.134 43.815C396.134 45.3317 396.39 46.3117 396.904 46.755C396.974 46.8017 396.997 46.86 396.974 46.93C396.974 46.9767 396.915 47 396.799 47H379.509C379.392 47 379.322 46.9767 379.299 46.93C379.299 46.86 379.334 46.8017 379.404 46.755C379.917 46.3117 380.174 45.3317 380.174 43.815V42.24V26.28C380.174 24.1567 379.649 23.095 378.599 23.095H396.799C396.915 23.095 396.974 23.13 396.974 23.2C396.997 23.27 396.974 23.3283 396.904 23.375C396.39 23.8183 396.134 24.7867 396.134 26.28V27.89V28.59C396.134 28.6833 396.099 28.7417 396.029 28.765C395.959 28.7883 395.9 28.7533 395.854 28.66C395.41 28.1467 394.442 27.89 392.949 27.89H384.969V29.465V32.65H389.764C391.257 32.65 392.225 32.3933 392.669 31.88C392.715 31.81 392.774 31.7867 392.844 31.81C392.914 31.8333 392.949 31.8917 392.949 31.985V32.65V34.26V37.445V38.145C392.949 38.2383 392.914 38.2967 392.844 38.32C392.774 38.3433 392.715 38.32 392.669 38.25C392.202 37.7133 391.234 37.445 389.764 37.445H384.969V39.02V42.24H392.949C394.419 42.24 395.387 41.9717 395.854 41.435C395.9 41.365 395.959 41.3417 396.029 41.365C396.099 41.3883 396.134 41.4467 396.134 41.54V42.24V43.815ZM391.199 34.715C390.919 34.715 390.779 34.8667 390.779 35.17C390.779 35.45 390.919 35.59 391.199 35.59C391.502 35.59 391.654 35.45 391.654 35.17C391.654 34.8667 391.502 34.715 391.199 34.715ZM394.244 24.985C394.127 24.985 394.022 25.0317 393.929 25.125C393.859 25.195 393.824 25.2883 393.824 25.405C393.824 25.5217 393.859 25.6267 393.929 25.72C394.022 25.8133 394.127 25.86 394.244 25.86C394.547 25.86 394.699 25.7083 394.699 25.405C394.699 25.125 394.547 24.985 394.244 24.985ZM391.409 24.985C391.105 24.985 390.954 25.125 390.954 25.405C390.954 25.7083 391.105 25.86 391.409 25.86C391.525 25.86 391.619 25.8133 391.689 25.72C391.782 25.6267 391.829 25.5217 391.829 25.405C391.829 25.2883 391.782 25.195 391.689 25.125C391.619 25.0317 391.525 24.985 391.409 24.985ZM388.469 24.985C388.165 24.985 388.014 25.125 388.014 25.405C388.014 25.7083 388.165 25.86 388.469 25.86C388.585 25.86 388.679 25.8133 388.749 25.72C388.842 25.6267 388.889 25.5217 388.889 25.405C388.889 25.2883 388.842 25.195 388.749 25.125C388.679 25.0317 388.585 24.985 388.469 24.985ZM385.459 24.985C385.179 24.985 385.039 25.125 385.039 25.405C385.039 25.7083 385.179 25.86 385.459 25.86C385.739 25.86 385.879 25.7083 385.879 25.405C385.879 25.125 385.739 24.985 385.459 24.985ZM388.259 34.715C387.979 34.715 387.839 34.8667 387.839 35.17C387.839 35.45 387.979 35.59 388.259 35.59C388.562 35.59 388.714 35.45 388.714 35.17C388.714 34.8667 388.562 34.715 388.259 34.715ZM385.389 34.715C385.085 34.715 384.934 34.8667 384.934 35.17C384.934 35.45 385.085 35.59 385.389 35.59C385.505 35.59 385.599 35.555 385.669 35.485C385.762 35.3917 385.809 35.2867 385.809 35.17C385.809 35.0533 385.762 34.9483 385.669 34.855C385.599 34.7617 385.505 34.715 385.389 34.715ZM382.414 45.355C382.717 45.355 382.869 45.215 382.869 44.935C382.869 44.6317 382.717 44.48 382.414 44.48C382.134 44.48 381.994 44.6317 381.994 44.935C381.994 45.215 382.134 45.355 382.414 45.355ZM382.414 42.03C382.717 42.03 382.869 41.89 382.869 41.61C382.869 41.3067 382.717 41.155 382.414 41.155C382.134 41.155 381.994 41.3067 381.994 41.61C381.994 41.89 382.134 42.03 382.414 42.03ZM382.414 38.845C382.717 38.845 382.869 38.6933 382.869 38.39C382.869 38.11 382.717 37.97 382.414 37.97C382.134 37.97 381.994 38.11 381.994 38.39C381.994 38.6933 382.134 38.845 382.414 38.845ZM382.414 35.59C382.717 35.59 382.869 35.45 382.869 35.17C382.869 34.8667 382.717 34.715 382.414 34.715C382.134 34.715 381.994 34.8667 381.994 35.17C381.994 35.45 382.134 35.59 382.414 35.59ZM382.449 32.335C382.752 32.335 382.904 32.1833 382.904 31.88C382.904 31.6 382.752 31.46 382.449 31.46C382.145 31.46 381.994 31.6 381.994 31.88C381.994 32.1833 382.145 32.335 382.449 32.335ZM381.994 28.66C381.994 28.94 382.134 29.08 382.414 29.08C382.717 29.08 382.869 28.94 382.869 28.66C382.869 28.3567 382.717 28.205 382.414 28.205C382.134 28.205 381.994 28.3567 381.994 28.66ZM382.449 25.86C382.752 25.86 382.904 25.7083 382.904 25.405C382.904 25.125 382.752 24.985 382.449 24.985C382.145 24.985 381.994 25.125 381.994 25.405C381.994 25.7083 382.145 25.86 382.449 25.86ZM385.354 45.355C385.657 45.355 385.809 45.215 385.809 44.935C385.809 44.6317 385.657 44.48 385.354 44.48C385.074 44.48 384.934 44.6317 384.934 44.935C384.934 45.215 385.074 45.355 385.354 45.355ZM388.259 45.355C388.375 45.355 388.469 45.32 388.539 45.25C388.632 45.1567 388.679 45.0517 388.679 44.935C388.679 44.8183 388.632 44.7133 388.539 44.62C388.469 44.5267 388.375 44.48 388.259 44.48C387.955 44.48 387.804 44.6317 387.804 44.935C387.804 45.215 387.955 45.355 388.259 45.355ZM391.199 45.355C391.479 45.355 391.619 45.215 391.619 44.935C391.619 44.6317 391.479 44.48 391.199 44.48C390.895 44.48 390.744 44.6317 390.744 44.935C390.744 45.215 390.895 45.355 391.199 45.355ZM394.279 45.355C394.395 45.355 394.489 45.32 394.559 45.25C394.652 45.1567 394.699 45.0517 394.699 44.935C394.699 44.8183 394.652 44.7133 394.559 44.62C394.489 44.5267 394.395 44.48 394.279 44.48C393.975 44.48 393.824 44.6317 393.824 44.935C393.824 45.215 393.975 45.355 394.279 45.355ZM425.165 23.06C425.259 23.06 425.317 23.095 425.34 23.165C425.364 23.235 425.34 23.2933 425.27 23.34C424.734 23.7833 424.465 24.7517 424.465 26.245V33.875C424.465 35.8117 424.08 37.69 423.31 39.51L421.49 43.78C421.164 45.2967 421.234 46.2767 421.7 46.72C421.77 46.7667 421.794 46.825 421.77 46.895C421.77 46.965 421.712 47 421.595 47H411.375C411.282 47 411.224 46.965 411.2 46.895C411.2 46.825 411.224 46.7667 411.27 46.72C411.714 46.2767 411.795 45.2967 411.515 43.78L409.695 39.51C409.299 38.6 409.007 37.69 408.82 36.78C408.634 35.8467 408.54 34.8783 408.54 33.875V26.245C408.54 24.775 408.272 23.8067 407.735 23.34C407.665 23.2933 407.642 23.235 407.665 23.165C407.689 23.095 407.747 23.06 407.84 23.06H414C414.094 23.06 414.152 23.095 414.175 23.165C414.199 23.235 414.175 23.2933 414.105 23.34C413.569 23.8067 413.3 24.775 413.3 26.245V31.04V33.875C413.3 35.1583 413.557 36.4183 414.07 37.655L416.485 43.255L418.9 37.655C419.414 36.4183 419.67 35.1583 419.67 33.875V31.04V26.245C419.67 24.7517 419.414 23.7833 418.9 23.34C418.83 23.2933 418.795 23.235 418.795 23.165C418.819 23.095 418.889 23.06 419.005 23.06H425.165ZM411.375 32.195C411.375 31.8917 411.235 31.74 410.955 31.74C410.652 31.74 410.5 31.8917 410.5 32.195C410.5 32.3117 410.547 32.4167 410.64 32.51C410.734 32.58 410.839 32.615 410.955 32.615C411.072 32.615 411.165 32.58 411.235 32.51C411.329 32.4167 411.375 32.3117 411.375 32.195ZM410.745 25.125C410.442 25.125 410.29 25.265 410.29 25.545C410.29 25.825 410.442 25.965 410.745 25.965C411.025 25.965 411.165 25.825 411.165 25.545C411.165 25.265 411.025 25.125 410.745 25.125ZM410.29 28.975C410.29 29.2783 410.442 29.43 410.745 29.43C411.025 29.43 411.165 29.2783 411.165 28.975C411.165 28.695 411.025 28.555 410.745 28.555C410.442 28.555 410.29 28.695 410.29 28.975ZM410.5 35.52C410.5 35.8233 410.652 35.975 410.955 35.975C411.235 35.975 411.375 35.8233 411.375 35.52C411.375 35.4033 411.329 35.31 411.235 35.24C411.165 35.1467 411.072 35.1 410.955 35.1C410.839 35.1 410.734 35.1467 410.64 35.24C410.547 35.31 410.5 35.4033 410.5 35.52ZM411.69 39.23C411.807 39.23 411.9 39.195 411.97 39.125C412.064 39.0317 412.11 38.9267 412.11 38.81C412.11 38.6933 412.064 38.5883 411.97 38.495C411.9 38.4017 411.807 38.355 411.69 38.355C411.387 38.355 411.235 38.5067 411.235 38.81C411.235 39.09 411.387 39.23 411.69 39.23ZM412.985 42.24C413.102 42.24 413.195 42.205 413.265 42.135C413.359 42.0417 413.405 41.9367 413.405 41.82C413.405 41.7033 413.359 41.5983 413.265 41.505C413.195 41.4117 413.102 41.365 412.985 41.365C412.682 41.365 412.53 41.5167 412.53 41.82C412.53 42.1 412.682 42.24 412.985 42.24ZM414.21 45.18C414.514 45.18 414.665 45.0283 414.665 44.725C414.665 44.6083 414.619 44.515 414.525 44.445C414.432 44.3517 414.327 44.305 414.21 44.305C414.094 44.305 413.989 44.3517 413.895 44.445C413.825 44.515 413.79 44.6083 413.79 44.725C413.79 45.0283 413.93 45.18 414.21 45.18ZM418.55 45.18C418.667 45.18 418.772 45.145 418.865 45.075C418.959 44.9817 419.005 44.8767 419.005 44.76C419.005 44.4567 418.854 44.305 418.55 44.305C418.27 44.305 418.13 44.4567 418.13 44.76C418.13 44.8767 418.165 44.9817 418.235 45.075C418.329 45.145 418.434 45.18 418.55 45.18ZM419.74 42.135C420.02 42.135 420.16 41.995 420.16 41.715C420.16 41.435 420.02 41.295 419.74 41.295C419.437 41.295 419.285 41.435 419.285 41.715C419.285 41.995 419.437 42.135 419.74 42.135ZM421.175 38.915C421.479 38.915 421.63 38.775 421.63 38.495C421.63 38.215 421.479 38.075 421.175 38.075C420.872 38.075 420.72 38.215 420.72 38.495C420.72 38.775 420.872 38.915 421.175 38.915ZM421.595 35.765C421.899 35.765 422.05 35.6133 422.05 35.31C422.05 35.1933 422.004 35.1 421.91 35.03C421.817 34.9367 421.712 34.89 421.595 34.89C421.479 34.89 421.374 34.9367 421.28 35.03C421.187 35.1 421.14 35.1933 421.14 35.31C421.14 35.6133 421.292 35.765 421.595 35.765ZM421.805 32.51C422.109 32.51 422.26 32.37 422.26 32.09C422.26 31.7867 422.109 31.635 421.805 31.635C421.502 31.635 421.35 31.7867 421.35 32.09C421.35 32.37 421.502 32.51 421.805 32.51ZM421.805 29.22C421.922 29.22 422.027 29.185 422.12 29.115C422.214 29.0217 422.26 28.9167 422.26 28.8C422.26 28.4967 422.109 28.345 421.805 28.345C421.502 28.345 421.35 28.4967 421.35 28.8C421.35 28.9167 421.397 29.0217 421.49 29.115C421.584 29.185 421.689 29.22 421.805 29.22ZM421.91 25.86C422.214 25.86 422.365 25.72 422.365 25.44C422.365 25.16 422.214 25.02 421.91 25.02C421.607 25.02 421.455 25.16 421.455 25.44C421.455 25.72 421.607 25.86 421.91 25.86ZM436.094 23.305C437.191 23.305 438.218 23.515 439.174 23.935C440.154 24.355 441.006 24.9267 441.729 25.65C442.453 26.3733 443.024 27.225 443.444 28.205C443.864 29.1617 444.074 30.1883 444.074 31.285V39.265C444.074 40.3617 443.864 41.4 443.444 42.38C443.024 43.3367 442.453 44.1767 441.729 44.9C441.006 45.6233 440.154 46.195 439.174 46.615C438.218 47.0117 437.191 47.21 436.094 47.21H434.519C433.423 47.21 432.384 47.0117 431.404 46.615C430.448 46.195 429.608 45.6233 428.884 44.9C428.161 44.1767 427.589 43.3367 427.169 42.38C426.749 41.4 426.539 40.3617 426.539 39.265V31.285C426.539 30.1883 426.749 29.1617 427.169 28.205C427.589 27.225 428.161 26.3733 428.884 25.65C429.608 24.9267 430.448 24.355 431.404 23.935C432.384 23.515 433.423 23.305 434.519 23.305H436.094ZM442.044 32.825C442.044 32.7083 441.998 32.615 441.904 32.545C441.811 32.4517 441.706 32.405 441.589 32.405C441.473 32.405 441.368 32.4517 441.274 32.545C441.204 32.615 441.169 32.7083 441.169 32.825C441.169 32.9417 441.204 33.0467 441.274 33.14C441.368 33.2333 441.473 33.28 441.589 33.28C441.893 33.28 442.044 33.1283 442.044 32.825ZM442.044 35.765C442.044 35.485 441.893 35.345 441.589 35.345C441.309 35.345 441.169 35.485 441.169 35.765C441.169 36.0683 441.309 36.22 441.589 36.22C441.893 36.22 442.044 36.0683 442.044 35.765ZM441.169 29.185C441.053 29.185 440.948 29.2317 440.854 29.325C440.784 29.395 440.749 29.4883 440.749 29.605C440.749 29.7217 440.784 29.8267 440.854 29.92C440.948 30.0133 441.053 30.06 441.169 30.06C441.473 30.06 441.624 29.9083 441.624 29.605C441.624 29.325 441.473 29.185 441.169 29.185ZM436.969 25.37C436.853 25.37 436.748 25.4167 436.654 25.51C436.584 25.6033 436.549 25.7083 436.549 25.825C436.549 25.9417 436.584 26.0467 436.654 26.14C436.748 26.21 436.853 26.245 436.969 26.245C437.086 26.245 437.191 26.21 437.284 26.14C437.378 26.0467 437.424 25.9417 437.424 25.825C437.424 25.5217 437.273 25.37 436.969 25.37ZM433.434 25.16C433.154 25.16 433.014 25.3117 433.014 25.615C433.014 25.895 433.154 26.035 433.434 26.035C433.738 26.035 433.889 25.895 433.889 25.615C433.889 25.3117 433.738 25.16 433.434 25.16ZM429.094 40.245C429.398 40.245 429.549 40.105 429.549 39.825C429.549 39.5217 429.398 39.37 429.094 39.37C428.978 39.37 428.873 39.4167 428.779 39.51C428.709 39.6033 428.674 39.7083 428.674 39.825C428.674 39.9417 428.709 40.0467 428.779 40.14C428.873 40.21 428.978 40.245 429.094 40.245ZM428.569 36.535C428.569 36.815 428.709 36.955 428.989 36.955C429.293 36.955 429.444 36.815 429.444 36.535C429.444 36.2317 429.293 36.08 428.989 36.08C428.709 36.08 428.569 36.2317 428.569 36.535ZM429.094 33.945C429.398 33.945 429.549 33.7933 429.549 33.49C429.549 33.21 429.398 33.07 429.094 33.07C428.978 33.07 428.873 33.1167 428.779 33.21C428.709 33.28 428.674 33.3733 428.674 33.49C428.674 33.6067 428.709 33.7117 428.779 33.805C428.873 33.8983 428.978 33.945 429.094 33.945ZM429.339 30.55C429.619 30.55 429.759 30.3983 429.759 30.095C429.759 29.815 429.619 29.675 429.339 29.675C429.036 29.675 428.884 29.815 428.884 30.095C428.884 30.3983 429.036 30.55 429.339 30.55ZM430.214 43.15C430.494 43.15 430.634 43.01 430.634 42.73C430.634 42.4267 430.494 42.275 430.214 42.275C429.934 42.275 429.794 42.4267 429.794 42.73C429.794 43.01 429.934 43.15 430.214 43.15ZM430.634 27.47C430.774 27.47 430.879 27.435 430.949 27.365C431.043 27.2717 431.089 27.1667 431.089 27.05C431.089 26.7467 430.938 26.595 430.634 26.595C430.518 26.595 430.413 26.6417 430.319 26.735C430.249 26.805 430.214 26.91 430.214 27.05C430.214 27.1667 430.249 27.2717 430.319 27.365C430.413 27.435 430.518 27.47 430.634 27.47ZM433.014 44.9C433.294 44.9 433.434 44.76 433.434 44.48C433.434 44.2 433.294 44.06 433.014 44.06C432.711 44.06 432.559 44.2 432.559 44.48C432.559 44.76 432.711 44.9 433.014 44.9ZM436.094 45.215C436.374 45.215 436.514 45.075 436.514 44.795C436.514 44.515 436.374 44.375 436.094 44.375C435.791 44.375 435.639 44.515 435.639 44.795C435.639 45.075 435.791 45.215 436.094 45.215ZM436.094 42.45C436.981 42.45 437.728 42.1467 438.334 41.54C438.964 40.91 439.279 40.1517 439.279 39.265V36.08V34.47V31.285C439.279 30.3983 438.964 29.6517 438.334 29.045C437.728 28.415 436.981 28.1 436.094 28.1H434.519C434.076 28.1 433.656 28.1817 433.259 28.345C432.886 28.5083 432.548 28.7417 432.244 29.045C431.964 29.325 431.743 29.6633 431.579 30.06C431.416 30.4333 431.334 30.8417 431.334 31.285V34.47V36.08V39.265C431.334 39.7083 431.416 40.1283 431.579 40.525C431.743 40.8983 431.964 41.2367 432.244 41.54C432.548 41.82 432.886 42.0417 433.259 42.205C433.656 42.3683 434.076 42.45 434.519 42.45H436.094ZM438.929 44.48C439.046 44.48 439.151 44.445 439.244 44.375C439.338 44.2817 439.384 44.1767 439.384 44.06C439.384 43.7567 439.233 43.605 438.929 43.605C438.813 43.605 438.708 43.6517 438.614 43.745C438.544 43.815 438.509 43.92 438.509 44.06C438.509 44.1767 438.544 44.2817 438.614 44.375C438.708 44.445 438.813 44.48 438.929 44.48ZM439.839 27.33C440.143 27.33 440.294 27.1783 440.294 26.875C440.294 26.595 440.143 26.455 439.839 26.455C439.559 26.455 439.419 26.595 439.419 26.875C439.419 27.1783 439.559 27.33 439.839 27.33ZM440.924 41.89C441.204 41.89 441.344 41.7383 441.344 41.435C441.344 41.155 441.204 41.015 440.924 41.015C440.644 41.015 440.504 41.155 440.504 41.435C440.504 41.7383 440.644 41.89 440.924 41.89ZM441.694 39.125C441.998 39.125 442.149 38.985 442.149 38.705C442.149 38.425 441.998 38.285 441.694 38.285C441.414 38.285 441.274 38.425 441.274 38.705C441.274 38.985 441.414 39.125 441.694 39.125ZM451.555 43.815C451.555 45.3083 451.823 46.2767 452.36 46.72C452.407 46.7667 452.418 46.825 452.395 46.895C452.395 46.965 452.337 47 452.22 47H446.095C445.978 47 445.908 46.965 445.885 46.895C445.885 46.825 445.92 46.7667 445.99 46.72C446.503 46.2767 446.76 45.3083 446.76 43.815V26.28C446.76 24.7633 446.503 23.795 445.99 23.375C445.803 23.1883 445.838 23.095 446.095 23.095H449.945H451.555H452.22C452.453 23.095 452.5 23.1883 452.36 23.375C451.823 23.7717 451.555 24.74 451.555 26.28V27.855V30.76V35.835V42.205V43.815ZM449.175 45.11C449.455 45.11 449.595 44.9583 449.595 44.655C449.595 44.375 449.455 44.235 449.175 44.235C448.872 44.235 448.72 44.375 448.72 44.655C448.72 44.9583 448.872 45.11 449.175 45.11ZM449.175 41.75C449.455 41.75 449.595 41.61 449.595 41.33C449.595 41.05 449.455 40.91 449.175 40.91C448.872 40.91 448.72 41.05 448.72 41.33C448.72 41.61 448.872 41.75 449.175 41.75ZM449.175 38.565C449.455 38.565 449.595 38.425 449.595 38.145C449.595 37.8417 449.455 37.69 449.175 37.69C448.872 37.69 448.72 37.8417 448.72 38.145C448.72 38.425 448.872 38.565 449.175 38.565ZM449.175 35.345C449.455 35.345 449.595 35.1933 449.595 34.89C449.595 34.61 449.455 34.47 449.175 34.47C448.872 34.47 448.72 34.61 448.72 34.89C448.72 35.1933 448.872 35.345 449.175 35.345ZM449.175 32.055C449.478 32.055 449.63 31.915 449.63 31.635C449.63 31.3317 449.478 31.18 449.175 31.18C449.058 31.18 448.953 31.2267 448.86 31.32C448.79 31.39 448.755 31.495 448.755 31.635C448.755 31.7517 448.79 31.8567 448.86 31.95C448.953 32.02 449.058 32.055 449.175 32.055ZM448.72 28.415C448.72 28.695 448.872 28.835 449.175 28.835C449.455 28.835 449.595 28.695 449.595 28.415C449.595 28.1117 449.455 27.96 449.175 27.96C448.872 27.96 448.72 28.1117 448.72 28.415ZM449.175 25.58C449.478 25.58 449.63 25.44 449.63 25.16C449.63 24.8567 449.478 24.705 449.175 24.705C449.058 24.705 448.953 24.7517 448.86 24.845C448.79 24.9383 448.755 25.0433 448.755 25.16C448.755 25.2767 448.79 25.3817 448.86 25.475C448.953 25.545 449.058 25.58 449.175 25.58ZM462.771 23.06C463.867 23.06 464.894 23.27 465.851 23.69C466.831 24.11 467.671 24.6817 468.371 25.405C469.094 26.1283 469.666 26.98 470.086 27.96C470.506 28.9167 470.716 29.9433 470.716 31.04V39.02C470.716 40.1167 470.506 41.155 470.086 42.135C469.666 43.0917 469.094 43.9317 468.371 44.655C467.671 45.3783 466.831 45.95 465.851 46.37C464.894 46.79 463.867 47 462.771 47H461.161H456.401H454.091C453.997 47 453.939 46.965 453.916 46.895C453.892 46.825 453.927 46.755 454.021 46.685C454.534 46.2417 454.791 45.2733 454.791 43.78V26.245C454.791 24.775 454.534 23.8067 454.021 23.34C453.927 23.2933 453.892 23.235 453.916 23.165C453.939 23.095 453.997 23.06 454.091 23.06H454.791H462.771ZM469.001 32.755C469.001 32.4517 468.861 32.3 468.581 32.3C468.277 32.3 468.126 32.4517 468.126 32.755C468.126 32.8717 468.172 32.9767 468.266 33.07C468.359 33.14 468.464 33.175 468.581 33.175C468.697 33.175 468.791 33.14 468.861 33.07C468.954 32.9767 469.001 32.8717 469.001 32.755ZM469.001 35.66C469.001 35.5433 468.954 35.45 468.861 35.38C468.767 35.2867 468.662 35.24 468.546 35.24C468.429 35.24 468.324 35.2867 468.231 35.38C468.161 35.45 468.126 35.5433 468.126 35.66C468.126 35.8 468.161 35.9167 468.231 36.01C468.324 36.08 468.429 36.115 468.546 36.115C468.849 36.115 469.001 35.9633 469.001 35.66ZM468.161 29.08C467.857 29.08 467.706 29.2317 467.706 29.535C467.706 29.6517 467.752 29.7567 467.846 29.85C467.939 29.92 468.044 29.955 468.161 29.955C468.277 29.955 468.371 29.92 468.441 29.85C468.534 29.7567 468.581 29.6517 468.581 29.535C468.581 29.2317 468.441 29.08 468.161 29.08ZM463.961 25.3C463.657 25.3 463.506 25.44 463.506 25.72C463.506 26 463.657 26.14 463.961 26.14C464.241 26.14 464.381 26 464.381 25.72C464.381 25.44 464.241 25.3 463.961 25.3ZM460.461 24.95C460.157 24.95 460.006 25.1017 460.006 25.405C460.006 25.685 460.157 25.825 460.461 25.825C460.741 25.825 460.881 25.685 460.881 25.405C460.881 25.1017 460.741 24.95 460.461 24.95ZM457.171 45.25C457.474 45.25 457.626 45.0983 457.626 44.795C457.626 44.6783 457.579 44.585 457.486 44.515C457.392 44.4217 457.287 44.375 457.171 44.375C457.054 44.375 456.949 44.4217 456.856 44.515C456.786 44.585 456.751 44.6783 456.751 44.795C456.751 44.9117 456.786 45.0167 456.856 45.11C456.949 45.2033 457.054 45.25 457.171 45.25ZM457.171 41.925C457.474 41.925 457.626 41.7733 457.626 41.47C457.626 41.19 457.474 41.05 457.171 41.05C457.054 41.05 456.949 41.0967 456.856 41.19C456.786 41.26 456.751 41.3533 456.751 41.47C456.751 41.5867 456.786 41.6917 456.856 41.785C456.949 41.8783 457.054 41.925 457.171 41.925ZM457.171 38.705C457.474 38.705 457.626 38.565 457.626 38.285C457.626 37.9817 457.474 37.83 457.171 37.83C457.054 37.83 456.949 37.8767 456.856 37.97C456.786 38.0633 456.751 38.1683 456.751 38.285C456.751 38.4017 456.786 38.5067 456.856 38.6C456.949 38.67 457.054 38.705 457.171 38.705ZM457.171 35.485C457.474 35.485 457.626 35.3333 457.626 35.03C457.626 34.75 457.474 34.61 457.171 34.61C457.054 34.61 456.949 34.6567 456.856 34.75C456.786 34.82 456.751 34.9133 456.751 35.03C456.751 35.1467 456.786 35.2517 456.856 35.345C456.949 35.4383 457.054 35.485 457.171 35.485ZM457.206 32.195C457.509 32.195 457.661 32.0433 457.661 31.74C457.661 31.6233 457.614 31.53 457.521 31.46C457.427 31.3667 457.322 31.32 457.206 31.32C457.089 31.32 456.984 31.3667 456.891 31.46C456.821 31.53 456.786 31.6233 456.786 31.74C456.786 31.88 456.821 31.9967 456.891 32.09C456.984 32.16 457.089 32.195 457.206 32.195ZM456.751 28.52C456.751 28.6367 456.786 28.7417 456.856 28.835C456.949 28.9283 457.054 28.975 457.171 28.975C457.474 28.975 457.626 28.8233 457.626 28.52C457.626 28.4033 457.579 28.31 457.486 28.24C457.392 28.1467 457.287 28.1 457.171 28.1C457.054 28.1 456.949 28.1467 456.856 28.24C456.786 28.31 456.751 28.4033 456.751 28.52ZM457.206 25.72C457.509 25.72 457.661 25.58 457.661 25.3C457.661 24.9967 457.509 24.845 457.206 24.845C457.089 24.845 456.984 24.8917 456.891 24.985C456.821 25.0783 456.786 25.1833 456.786 25.3C456.786 25.4167 456.821 25.5217 456.891 25.615C456.984 25.685 457.089 25.72 457.206 25.72ZM460.006 45.355C460.309 45.355 460.461 45.2033 460.461 44.9C460.461 44.62 460.309 44.48 460.006 44.48C459.726 44.48 459.586 44.62 459.586 44.9C459.586 45.2033 459.726 45.355 460.006 45.355ZM463.051 45.145C463.354 45.145 463.506 44.9933 463.506 44.69C463.506 44.5733 463.459 44.48 463.366 44.41C463.272 44.3167 463.167 44.27 463.051 44.27C462.934 44.27 462.829 44.3167 462.736 44.41C462.666 44.48 462.631 44.5733 462.631 44.69C462.631 44.9933 462.771 45.145 463.051 45.145ZM462.771 42.205C463.657 42.205 464.404 41.9017 465.011 41.295C465.641 40.665 465.956 39.9067 465.956 39.02V31.04C465.956 30.1533 465.641 29.4067 465.011 28.8C464.404 28.17 463.657 27.855 462.771 27.855H459.586V34.225V39.02V42.205H462.771ZM465.921 44.375C466.201 44.375 466.341 44.235 466.341 43.955C466.341 43.6517 466.201 43.5 465.921 43.5C465.617 43.5 465.466 43.6517 465.466 43.955C465.466 44.235 465.617 44.375 465.921 44.375ZM466.831 27.225C466.947 27.225 467.041 27.19 467.111 27.12C467.204 27.0267 467.251 26.9217 467.251 26.805C467.251 26.6883 467.204 26.5833 467.111 26.49C467.041 26.3967 466.947 26.35 466.831 26.35C466.527 26.35 466.376 26.5017 466.376 26.805C466.376 26.9217 466.422 27.0267 466.516 27.12C466.609 27.19 466.714 27.225 466.831 27.225ZM467.881 41.785C468.184 41.785 468.336 41.645 468.336 41.365C468.336 41.0617 468.184 40.91 467.881 40.91C467.601 40.91 467.461 41.0617 467.461 41.365C467.461 41.645 467.601 41.785 467.881 41.785ZM468.686 39.055C468.966 39.055 469.106 38.9033 469.106 38.6C469.106 38.32 468.966 38.18 468.686 38.18C468.382 38.18 468.231 38.32 468.231 38.6C468.231 38.9033 468.382 39.055 468.686 39.055ZM477.442 22.01L476.742 31.04H474.817L474.117 22.01H477.442ZM483.847 22.01L483.147 31.04H481.222L480.522 22.01H483.847Z" fill="white"/>
</svg>
