<svg width="545" height="76" viewBox="0 0 545 76" fill="none" xmlns="http://www.w3.org/2000/svg">
<rect x="1.5" y="2.3501" width="541.931" height="71.8223" rx="8.5" fill="black" stroke="#CCA354" stroke-width="3"/>
<path d="M77.7965 42.02C77.7965 43.14 77.5748 44.2133 77.1315 45.24C76.6882 46.2433 76.0582 47.1183 75.2415 47.865C75.8715 48.7517 76.4898 49.3583 77.0965 49.685C77.1665 49.7317 77.1898 49.8017 77.1665 49.895C77.1665 49.965 77.1082 50 76.9915 50H71.4265L71.3215 49.825L71.1465 49.58L68.0315 45.205L65.9315 42.195H70.6915H71.8815C72.0448 42.195 72.0915 42.265 72.0215 42.405C71.9282 42.8483 71.9748 43.2217 72.1615 43.525L72.4065 43.875C72.8032 43.315 73.0015 42.6967 73.0015 42.02V38.835V37.225V34.04C73.0015 33.1533 72.6865 32.4067 72.0565 31.8C71.4498 31.17 70.7032 30.855 69.8165 30.855H68.2415C67.7982 30.855 67.3782 30.9367 66.9815 31.1C66.6082 31.2633 66.2698 31.4967 65.9665 31.8C65.6865 32.08 65.4648 32.4183 65.3015 32.815C65.1382 33.1883 65.0565 33.5967 65.0565 34.04V37.225V38.835V42.02V42.195C65.1032 42.825 65.3015 43.3967 65.6515 43.91C66.0248 44.4233 66.5148 44.785 67.1215 44.995L70.6215 49.93C70.5048 49.9533 70.3765 49.9767 70.2365 50C70.0965 50 69.9565 50 69.8165 50H68.2415C67.1448 50 66.1065 49.79 65.1265 49.37C64.1698 48.95 63.3298 48.3783 62.6065 47.655C61.8832 46.9317 61.3115 46.0917 60.8915 45.135C60.4715 44.155 60.2615 43.1167 60.2615 42.02V34.04C60.2615 32.9433 60.4715 31.9167 60.8915 30.96C61.3115 29.98 61.8832 29.1283 62.6065 28.405C63.3298 27.6817 64.1698 27.11 65.1265 26.69C66.1065 26.27 67.1448 26.06 68.2415 26.06H69.8165C70.9132 26.06 71.9398 26.27 72.8965 26.69C73.8765 27.11 74.7282 27.6817 75.4515 28.405C76.1748 29.1283 76.7465 29.98 77.1665 30.96C77.5865 31.9167 77.7965 32.9433 77.7965 34.04V42.02ZM66.7715 46.885C66.4682 46.885 66.3165 47.0367 66.3165 47.34C66.3165 47.62 66.4682 47.76 66.7715 47.76C67.0748 47.76 67.2265 47.62 67.2265 47.34C67.2265 47.0367 67.0748 46.885 66.7715 46.885ZM62.8865 43.105C63.0032 43.105 63.0965 43.07 63.1665 43C63.2598 42.9067 63.3065 42.8017 63.3065 42.685C63.3065 42.5683 63.2598 42.4633 63.1665 42.37C63.0965 42.2767 63.0032 42.23 62.8865 42.23C62.5832 42.23 62.4315 42.3817 62.4315 42.685C62.4315 42.965 62.5832 43.105 62.8865 43.105ZM62.3265 39.395C62.3265 39.675 62.4782 39.815 62.7815 39.815C63.0615 39.815 63.2015 39.675 63.2015 39.395C63.2015 39.115 63.0615 38.975 62.7815 38.975C62.4782 38.975 62.3265 39.115 62.3265 39.395ZM62.8865 36.805C63.0032 36.805 63.0965 36.7583 63.1665 36.665C63.2598 36.5717 63.3065 36.4667 63.3065 36.35C63.3065 36.2333 63.2598 36.14 63.1665 36.07C63.0965 35.9767 63.0032 35.93 62.8865 35.93C62.5832 35.93 62.4315 36.07 62.4315 36.35C62.4315 36.6533 62.5832 36.805 62.8865 36.805ZM63.0965 33.41C63.3998 33.41 63.5515 33.2583 63.5515 32.955C63.5515 32.675 63.3998 32.535 63.0965 32.535C62.8165 32.535 62.6765 32.675 62.6765 32.955C62.6765 33.2583 62.8165 33.41 63.0965 33.41ZM64.0065 46.01C64.1232 46.01 64.2165 45.975 64.2865 45.905C64.3798 45.8117 64.4265 45.7067 64.4265 45.59C64.4265 45.4733 64.3798 45.3683 64.2865 45.275C64.2165 45.1817 64.1232 45.135 64.0065 45.135C63.7032 45.135 63.5515 45.2867 63.5515 45.59C63.5515 45.7067 63.5865 45.8117 63.6565 45.905C63.7498 45.975 63.8665 46.01 64.0065 46.01ZM64.4265 30.33C64.7065 30.33 64.8465 30.1783 64.8465 29.875C64.8465 29.7583 64.7998 29.665 64.7065 29.595C64.6365 29.5017 64.5432 29.455 64.4265 29.455C64.3098 29.455 64.2048 29.5017 64.1115 29.595C64.0415 29.665 64.0065 29.7583 64.0065 29.875C64.0065 30.1783 64.1465 30.33 64.4265 30.33ZM67.2265 28.895C67.5065 28.895 67.6465 28.755 67.6465 28.475C67.6465 28.1717 67.5065 28.02 67.2265 28.02C66.9232 28.02 66.7715 28.1717 66.7715 28.475C66.7715 28.755 66.9232 28.895 67.2265 28.895ZM70.7615 29.105C71.0648 29.105 71.2165 28.9533 71.2165 28.65C71.2165 28.5333 71.1698 28.44 71.0765 28.37C70.9832 28.2767 70.8782 28.23 70.7615 28.23C70.6448 28.23 70.5398 28.2767 70.4465 28.37C70.3532 28.44 70.3065 28.5333 70.3065 28.65C70.3065 28.9533 70.4582 29.105 70.7615 29.105ZM69.6765 44.26C69.9798 44.26 70.1315 44.12 70.1315 43.84C70.1315 43.56 69.9798 43.42 69.6765 43.42C69.3965 43.42 69.2565 43.56 69.2565 43.84C69.2565 44.12 69.3965 44.26 69.6765 44.26ZM71.2165 46.36C71.4965 46.36 71.6365 46.22 71.6365 45.94C71.6365 45.66 71.4965 45.52 71.2165 45.52C70.9365 45.52 70.7965 45.66 70.7965 45.94C70.7965 46.22 70.9365 46.36 71.2165 46.36ZM75.8365 35.685C75.8365 35.405 75.6848 35.265 75.3815 35.265C75.0782 35.265 74.9265 35.405 74.9265 35.685C74.9265 35.965 75.0782 36.105 75.3815 36.105C75.6848 36.105 75.8365 35.965 75.8365 35.685ZM75.8015 38.625C75.8015 38.345 75.6615 38.205 75.3815 38.205C75.0782 38.205 74.9265 38.345 74.9265 38.625C74.9265 38.9283 75.0782 39.08 75.3815 39.08C75.6615 39.08 75.8015 38.9283 75.8015 38.625ZM74.9615 32.045C74.6582 32.045 74.5065 32.185 74.5065 32.465C74.5065 32.745 74.6582 32.885 74.9615 32.885C75.0782 32.885 75.1715 32.85 75.2415 32.78C75.3348 32.6867 75.3815 32.5817 75.3815 32.465C75.3815 32.3483 75.3348 32.255 75.2415 32.185C75.1715 32.0917 75.0782 32.045 74.9615 32.045ZM72.7565 48.635C72.8732 48.635 72.9665 48.6 73.0365 48.53C73.1298 48.4367 73.1765 48.3317 73.1765 48.215C73.1765 48.0983 73.1298 47.9933 73.0365 47.9C72.9665 47.8067 72.8732 47.76 72.7565 47.76C72.4532 47.76 72.3015 47.9117 72.3015 48.215C72.3015 48.495 72.4532 48.635 72.7565 48.635ZM73.5965 30.19C73.8998 30.19 74.0515 30.0383 74.0515 29.735C74.0515 29.455 73.8998 29.315 73.5965 29.315C73.4798 29.315 73.3748 29.3617 73.2815 29.455C73.2115 29.525 73.1765 29.6183 73.1765 29.735C73.1765 29.8517 73.2115 29.9567 73.2815 30.05C73.3748 30.1433 73.4798 30.19 73.5965 30.19ZM74.6815 44.75C74.9848 44.75 75.1365 44.5983 75.1365 44.295C75.1365 44.015 74.9848 43.875 74.6815 43.875C74.4015 43.875 74.2615 44.015 74.2615 44.295C74.2615 44.5983 74.4015 44.75 74.6815 44.75ZM75.0315 41.565C75.0315 41.845 75.1832 41.985 75.4865 41.985C75.6032 41.985 75.6965 41.95 75.7665 41.88C75.8598 41.7867 75.9065 41.6817 75.9065 41.565C75.9065 41.4483 75.8598 41.3433 75.7665 41.25C75.6965 41.1567 75.6032 41.11 75.4865 41.11C75.1832 41.11 75.0315 41.2617 75.0315 41.565ZM87.3252 46.815C87.3252 48.285 87.5936 49.2533 88.1302 49.72C88.2002 49.7667 88.2236 49.825 88.2002 49.895C88.1769 49.965 88.1186 50 88.0252 50H81.8652C81.7719 50 81.7136 49.965 81.6902 49.895C81.6669 49.825 81.6902 49.7667 81.7602 49.72C82.2969 49.2533 82.5652 48.285 82.5652 46.815V30.855H80.7102C80.5702 29.0817 79.9752 27.5767 78.9252 26.34C78.8786 26.2933 78.8552 26.2467 78.8552 26.2C78.8786 26.13 78.9369 26.095 79.0302 26.095H80.9552H85.7152H88.0252C88.1186 26.095 88.1769 26.13 88.2002 26.2C88.2236 26.2467 88.2002 26.305 88.1302 26.375C87.5936 26.795 87.3252 27.7633 87.3252 29.28V30.855V33.76V38.835V44.995V46.815ZM81.8652 28.86C82.1686 28.86 82.3202 28.72 82.3202 28.44C82.3202 28.1367 82.1686 27.985 81.8652 27.985C81.5852 27.985 81.4452 28.1367 81.4452 28.44C81.4452 28.72 81.5852 28.86 81.8652 28.86ZM84.8402 48.39C85.1436 48.39 85.2952 48.2383 85.2952 47.935C85.2952 47.8183 85.2486 47.725 85.1552 47.655C85.0619 47.5617 84.9569 47.515 84.8402 47.515C84.7236 47.515 84.6186 47.5617 84.5252 47.655C84.4552 47.725 84.4202 47.8183 84.4202 47.935C84.4202 48.2383 84.5602 48.39 84.8402 48.39ZM84.8402 45.065C85.1436 45.065 85.2952 44.9133 85.2952 44.61C85.2952 44.33 85.1436 44.19 84.8402 44.19C84.5602 44.19 84.4202 44.33 84.4202 44.61C84.4202 44.9133 84.5602 45.065 84.8402 45.065ZM84.8402 41.845C85.1436 41.845 85.2952 41.705 85.2952 41.425C85.2952 41.1217 85.1436 40.97 84.8402 40.97C84.5602 40.97 84.4202 41.1217 84.4202 41.425C84.4202 41.705 84.5602 41.845 84.8402 41.845ZM84.8402 38.625C85.1436 38.625 85.2952 38.4733 85.2952 38.17C85.2952 37.89 85.1436 37.75 84.8402 37.75C84.5602 37.75 84.4202 37.89 84.4202 38.17C84.4202 38.4733 84.5602 38.625 84.8402 38.625ZM84.8752 35.335C85.1786 35.335 85.3302 35.195 85.3302 34.915C85.3302 34.6117 85.1786 34.46 84.8752 34.46C84.5952 34.46 84.4552 34.6117 84.4552 34.915C84.4552 35.195 84.5952 35.335 84.8752 35.335ZM84.4202 31.66C84.4202 31.9633 84.5602 32.115 84.8402 32.115C85.1436 32.115 85.2952 31.9633 85.2952 31.66C85.2952 31.5433 85.2486 31.45 85.1552 31.38C85.0619 31.2867 84.9569 31.24 84.8402 31.24C84.7236 31.24 84.6186 31.2867 84.5252 31.38C84.4552 31.45 84.4202 31.5433 84.4202 31.66ZM84.8752 28.86C85.1786 28.86 85.3302 28.72 85.3302 28.44C85.3302 28.1367 85.1786 27.985 84.8752 27.985C84.5952 27.985 84.4552 28.1367 84.4552 28.44C84.4552 28.72 84.5952 28.86 84.8752 28.86ZM116.455 44.435C116.525 44.365 116.595 44.3417 116.665 44.365C116.735 44.3883 116.77 44.4467 116.77 44.54V45.24V50H109.595H107.985H106.375H99.2354V44.26C99.2354 43.07 99.457 41.95 99.9004 40.9C100.367 39.85 100.985 38.94 101.755 38.17C102.525 37.4 103.435 36.7933 104.485 36.35C105.535 35.8833 106.655 35.65 107.845 35.65H107.985H109.595C110.249 35.65 110.809 35.4283 111.275 34.985C111.742 34.5183 111.975 33.9467 111.975 33.27C111.975 32.5933 111.742 32.0333 111.275 31.59C110.809 31.1233 110.249 30.89 109.595 30.89H107.985H106.375C106.049 30.89 105.734 30.96 105.43 31.1C105.197 31.2167 104.975 31.4617 104.765 31.835C104.555 32.185 104.579 32.5817 104.835 33.025C104.905 33.1883 104.859 33.27 104.695 33.27H103.995H99.2354C99.2354 32.29 99.422 31.3683 99.7954 30.505C100.169 29.6183 100.67 28.8483 101.3 28.195C101.954 27.5417 102.712 27.0283 103.575 26.655C104.462 26.2817 105.395 26.095 106.375 26.095H107.985H109.595C110.575 26.095 111.497 26.2817 112.36 26.655C113.247 27.0283 114.017 27.5417 114.67 28.195C115.324 28.8483 115.837 29.6183 116.21 30.505C116.584 31.3683 116.77 32.29 116.77 33.27C116.77 34.25 116.584 35.1833 116.21 36.07C115.837 36.9333 115.324 37.6917 114.67 38.345C114.017 38.9983 113.247 39.5117 112.36 39.885C111.497 40.2583 110.575 40.445 109.595 40.445H107.985H107.845C107.309 40.445 106.807 40.55 106.34 40.76C105.874 40.9467 105.465 41.215 105.115 41.565C104.765 41.915 104.485 42.3233 104.275 42.79C104.089 43.2567 103.995 43.7467 103.995 44.26V45.24H106.375H107.985H109.595H113.55C115.067 45.24 116.035 44.9717 116.455 44.435ZM102.665 31.835C102.782 31.835 102.875 31.8 102.945 31.73C103.039 31.6367 103.085 31.5317 103.085 31.415C103.085 31.1117 102.945 30.96 102.665 30.96C102.362 30.96 102.21 31.1117 102.21 31.415C102.21 31.5317 102.257 31.6367 102.35 31.73C102.444 31.8 102.549 31.835 102.665 31.835ZM104.205 29.49C104.485 29.49 104.625 29.35 104.625 29.07C104.625 28.79 104.485 28.65 104.205 28.65C103.902 28.65 103.75 28.79 103.75 29.07C103.75 29.35 103.902 29.49 104.205 29.49ZM107.18 28.93C107.297 28.93 107.39 28.8833 107.46 28.79C107.554 28.6967 107.6 28.5917 107.6 28.475C107.6 28.3583 107.554 28.265 107.46 28.195C107.39 28.1017 107.297 28.055 107.18 28.055C106.877 28.055 106.725 28.195 106.725 28.475C106.725 28.7783 106.877 28.93 107.18 28.93ZM110.435 28.93C110.552 28.93 110.645 28.8833 110.715 28.79C110.809 28.6967 110.855 28.5917 110.855 28.475C110.855 28.3583 110.809 28.265 110.715 28.195C110.645 28.1017 110.552 28.055 110.435 28.055C110.132 28.055 109.98 28.195 109.98 28.475C109.98 28.7783 110.132 28.93 110.435 28.93ZM113.795 36.42C114.075 36.42 114.215 36.28 114.215 36C114.215 35.6967 114.075 35.545 113.795 35.545C113.515 35.545 113.375 35.6967 113.375 36C113.375 36.28 113.515 36.42 113.795 36.42ZM114.18 32.5C113.877 32.5 113.725 32.64 113.725 32.92C113.725 33.2233 113.877 33.375 114.18 33.375C114.46 33.375 114.6 33.2233 114.6 32.92C114.6 32.64 114.46 32.5 114.18 32.5ZM113.06 29.595C112.78 29.595 112.64 29.7467 112.64 30.05C112.64 30.1667 112.675 30.2717 112.745 30.365C112.839 30.435 112.944 30.47 113.06 30.47C113.177 30.47 113.282 30.435 113.375 30.365C113.469 30.2717 113.515 30.1667 113.515 30.05C113.515 29.7467 113.364 29.595 113.06 29.595ZM110.855 37.47C110.575 37.47 110.435 37.6217 110.435 37.925C110.435 38.205 110.575 38.345 110.855 38.345C111.135 38.345 111.275 38.205 111.275 37.925C111.275 37.6217 111.135 37.47 110.855 37.47ZM107.81 37.925C107.53 37.925 107.39 38.065 107.39 38.345C107.39 38.6483 107.53 38.8 107.81 38.8C108.114 38.8 108.265 38.6483 108.265 38.345C108.265 38.065 108.114 37.925 107.81 37.925ZM104.625 38.555C104.509 38.555 104.404 38.6017 104.31 38.695C104.217 38.765 104.17 38.8583 104.17 38.975C104.17 39.2783 104.322 39.43 104.625 39.43C104.905 39.43 105.045 39.2783 105.045 38.975C105.045 38.8583 104.999 38.765 104.905 38.695C104.835 38.6017 104.742 38.555 104.625 38.555ZM102 47.935C102.117 47.935 102.21 47.9 102.28 47.83C102.374 47.7367 102.42 47.6317 102.42 47.515C102.42 47.2117 102.28 47.06 102 47.06C101.697 47.06 101.545 47.2117 101.545 47.515C101.545 47.6317 101.592 47.7367 101.685 47.83C101.779 47.9 101.884 47.935 102 47.935ZM102 44.855C102.117 44.855 102.21 44.82 102.28 44.75C102.374 44.6567 102.42 44.5517 102.42 44.435C102.42 44.1317 102.28 43.98 102 43.98C101.697 43.98 101.545 44.1317 101.545 44.435C101.545 44.5517 101.592 44.6567 101.685 44.75C101.779 44.82 101.884 44.855 102 44.855ZM102.42 41.53C102.724 41.53 102.875 41.39 102.875 41.11C102.875 40.83 102.724 40.69 102.42 40.69C102.14 40.69 102 40.83 102 41.11C102 41.39 102.14 41.53 102.42 41.53ZM105.535 47.69C105.582 47.5733 105.594 47.4567 105.57 47.34C105.547 47.2233 105.477 47.1417 105.36 47.095C105.127 46.9317 104.929 46.9783 104.765 47.235C104.719 47.3517 104.707 47.4683 104.73 47.585C104.754 47.7017 104.824 47.7833 104.94 47.83C105.174 47.9933 105.372 47.9467 105.535 47.69ZM108.685 47.69C108.732 47.5733 108.744 47.4567 108.72 47.34C108.697 47.2233 108.639 47.1417 108.545 47.095C108.289 46.9317 108.09 46.9783 107.95 47.235C107.88 47.3517 107.857 47.4683 107.88 47.585C107.904 47.7017 107.974 47.7833 108.09 47.83C108.207 47.9 108.324 47.9233 108.44 47.9C108.557 47.8767 108.639 47.8067 108.685 47.69ZM111.59 47.585C111.637 47.4683 111.649 47.3517 111.625 47.235C111.602 47.1183 111.544 47.0367 111.45 46.99C111.194 46.8267 110.984 46.8733 110.82 47.13C110.774 47.2467 110.762 47.3633 110.785 47.48C110.809 47.5967 110.879 47.6783 110.995 47.725C111.112 47.7717 111.229 47.795 111.345 47.795C111.462 47.7717 111.544 47.7017 111.59 47.585ZM114.915 47.69C114.985 47.5733 114.997 47.4567 114.95 47.34C114.927 47.2233 114.857 47.1417 114.74 47.095C114.484 46.9317 114.297 46.9783 114.18 47.235C114.11 47.3517 114.087 47.4683 114.11 47.585C114.134 47.7017 114.204 47.7833 114.32 47.83C114.437 47.9 114.554 47.9233 114.67 47.9C114.787 47.8767 114.869 47.8067 114.915 47.69ZM128.272 26.305C129.369 26.305 130.395 26.515 131.352 26.935C132.332 27.355 133.184 27.9267 133.907 28.65C134.63 29.3733 135.202 30.225 135.622 31.205C136.042 32.1617 136.252 33.1883 136.252 34.285V42.265C136.252 43.3617 136.042 44.4 135.622 45.38C135.202 46.3367 134.63 47.1767 133.907 47.9C133.184 48.6233 132.332 49.195 131.352 49.615C130.395 50.0117 129.369 50.21 128.272 50.21H126.697C125.6 50.21 124.562 50.0117 123.582 49.615C122.625 49.195 121.785 48.6233 121.062 47.9C120.339 47.1767 119.767 46.3367 119.347 45.38C118.927 44.4 118.717 43.3617 118.717 42.265V34.285C118.717 33.1883 118.927 32.1617 119.347 31.205C119.767 30.225 120.339 29.3733 121.062 28.65C121.785 27.9267 122.625 27.355 123.582 26.935C124.562 26.515 125.6 26.305 126.697 26.305H128.272ZM134.222 35.825C134.222 35.7083 134.175 35.615 134.082 35.545C133.989 35.4517 133.884 35.405 133.767 35.405C133.65 35.405 133.545 35.4517 133.452 35.545C133.382 35.615 133.347 35.7083 133.347 35.825C133.347 35.9417 133.382 36.0467 133.452 36.14C133.545 36.2333 133.65 36.28 133.767 36.28C134.07 36.28 134.222 36.1283 134.222 35.825ZM134.222 38.765C134.222 38.485 134.07 38.345 133.767 38.345C133.487 38.345 133.347 38.485 133.347 38.765C133.347 39.0683 133.487 39.22 133.767 39.22C134.07 39.22 134.222 39.0683 134.222 38.765ZM133.347 32.185C133.23 32.185 133.125 32.2317 133.032 32.325C132.962 32.395 132.927 32.4883 132.927 32.605C132.927 32.7217 132.962 32.8267 133.032 32.92C133.125 33.0133 133.23 33.06 133.347 33.06C133.65 33.06 133.802 32.9083 133.802 32.605C133.802 32.325 133.65 32.185 133.347 32.185ZM129.147 28.37C129.03 28.37 128.925 28.4167 128.832 28.51C128.762 28.6033 128.727 28.7083 128.727 28.825C128.727 28.9417 128.762 29.0467 128.832 29.14C128.925 29.21 129.03 29.245 129.147 29.245C129.264 29.245 129.369 29.21 129.462 29.14C129.555 29.0467 129.602 28.9417 129.602 28.825C129.602 28.5217 129.45 28.37 129.147 28.37ZM125.612 28.16C125.332 28.16 125.192 28.3117 125.192 28.615C125.192 28.895 125.332 29.035 125.612 29.035C125.915 29.035 126.067 28.895 126.067 28.615C126.067 28.3117 125.915 28.16 125.612 28.16ZM121.272 43.245C121.575 43.245 121.727 43.105 121.727 42.825C121.727 42.5217 121.575 42.37 121.272 42.37C121.155 42.37 121.05 42.4167 120.957 42.51C120.887 42.6033 120.852 42.7083 120.852 42.825C120.852 42.9417 120.887 43.0467 120.957 43.14C121.05 43.21 121.155 43.245 121.272 43.245ZM120.747 39.535C120.747 39.815 120.887 39.955 121.167 39.955C121.47 39.955 121.622 39.815 121.622 39.535C121.622 39.2317 121.47 39.08 121.167 39.08C120.887 39.08 120.747 39.2317 120.747 39.535ZM121.272 36.945C121.575 36.945 121.727 36.7933 121.727 36.49C121.727 36.21 121.575 36.07 121.272 36.07C121.155 36.07 121.05 36.1167 120.957 36.21C120.887 36.28 120.852 36.3733 120.852 36.49C120.852 36.6067 120.887 36.7117 120.957 36.805C121.05 36.8983 121.155 36.945 121.272 36.945ZM121.517 33.55C121.797 33.55 121.937 33.3983 121.937 33.095C121.937 32.815 121.797 32.675 121.517 32.675C121.214 32.675 121.062 32.815 121.062 33.095C121.062 33.3983 121.214 33.55 121.517 33.55ZM122.392 46.15C122.672 46.15 122.812 46.01 122.812 45.73C122.812 45.4267 122.672 45.275 122.392 45.275C122.112 45.275 121.972 45.4267 121.972 45.73C121.972 46.01 122.112 46.15 122.392 46.15ZM122.812 30.47C122.952 30.47 123.057 30.435 123.127 30.365C123.22 30.2717 123.267 30.1667 123.267 30.05C123.267 29.7467 123.115 29.595 122.812 29.595C122.695 29.595 122.59 29.6417 122.497 29.735C122.427 29.805 122.392 29.91 122.392 30.05C122.392 30.1667 122.427 30.2717 122.497 30.365C122.59 30.435 122.695 30.47 122.812 30.47ZM125.192 47.9C125.472 47.9 125.612 47.76 125.612 47.48C125.612 47.2 125.472 47.06 125.192 47.06C124.889 47.06 124.737 47.2 124.737 47.48C124.737 47.76 124.889 47.9 125.192 47.9ZM128.272 48.215C128.552 48.215 128.692 48.075 128.692 47.795C128.692 47.515 128.552 47.375 128.272 47.375C127.969 47.375 127.817 47.515 127.817 47.795C127.817 48.075 127.969 48.215 128.272 48.215ZM128.272 45.45C129.159 45.45 129.905 45.1467 130.512 44.54C131.142 43.91 131.457 43.1517 131.457 42.265V39.08V37.47V34.285C131.457 33.3983 131.142 32.6517 130.512 32.045C129.905 31.415 129.159 31.1 128.272 31.1H126.697C126.254 31.1 125.834 31.1817 125.437 31.345C125.064 31.5083 124.725 31.7417 124.422 32.045C124.142 32.325 123.92 32.6633 123.757 33.06C123.594 33.4333 123.512 33.8417 123.512 34.285V37.47V39.08V42.265C123.512 42.7083 123.594 43.1283 123.757 43.525C123.92 43.8983 124.142 44.2367 124.422 44.54C124.725 44.82 125.064 45.0417 125.437 45.205C125.834 45.3683 126.254 45.45 126.697 45.45H128.272ZM131.107 47.48C131.224 47.48 131.329 47.445 131.422 47.375C131.515 47.2817 131.562 47.1767 131.562 47.06C131.562 46.7567 131.41 46.605 131.107 46.605C130.99 46.605 130.885 46.6517 130.792 46.745C130.722 46.815 130.687 46.92 130.687 47.06C130.687 47.1767 130.722 47.2817 130.792 47.375C130.885 47.445 130.99 47.48 131.107 47.48ZM132.017 30.33C132.32 30.33 132.472 30.1783 132.472 29.875C132.472 29.595 132.32 29.455 132.017 29.455C131.737 29.455 131.597 29.595 131.597 29.875C131.597 30.1783 131.737 30.33 132.017 30.33ZM133.102 44.89C133.382 44.89 133.522 44.7383 133.522 44.435C133.522 44.155 133.382 44.015 133.102 44.015C132.822 44.015 132.682 44.155 132.682 44.435C132.682 44.7383 132.822 44.89 133.102 44.89ZM133.872 42.125C134.175 42.125 134.327 41.985 134.327 41.705C134.327 41.425 134.175 41.285 133.872 41.285C133.592 41.285 133.452 41.425 133.452 41.705C133.452 41.985 133.592 42.125 133.872 42.125ZM155.318 44.435C155.388 44.365 155.458 44.3417 155.528 44.365C155.598 44.3883 155.633 44.4467 155.633 44.54V45.24V50H148.458H146.848H145.238H138.098V44.26C138.098 43.07 138.319 41.95 138.763 40.9C139.229 39.85 139.848 38.94 140.618 38.17C141.388 37.4 142.298 36.7933 143.348 36.35C144.398 35.8833 145.518 35.65 146.708 35.65H146.848H148.458C149.111 35.65 149.671 35.4283 150.138 34.985C150.604 34.5183 150.838 33.9467 150.838 33.27C150.838 32.5933 150.604 32.0333 150.138 31.59C149.671 31.1233 149.111 30.89 148.458 30.89H146.848H145.238C144.911 30.89 144.596 30.96 144.293 31.1C144.059 31.2167 143.838 31.4617 143.628 31.835C143.418 32.185 143.441 32.5817 143.698 33.025C143.768 33.1883 143.721 33.27 143.558 33.27H142.858H138.098C138.098 32.29 138.284 31.3683 138.658 30.505C139.031 29.6183 139.533 28.8483 140.163 28.195C140.816 27.5417 141.574 27.0283 142.438 26.655C143.324 26.2817 144.258 26.095 145.238 26.095H146.848H148.458C149.438 26.095 150.359 26.2817 151.223 26.655C152.109 27.0283 152.879 27.5417 153.533 28.195C154.186 28.8483 154.699 29.6183 155.073 30.505C155.446 31.3683 155.633 32.29 155.633 33.27C155.633 34.25 155.446 35.1833 155.073 36.07C154.699 36.9333 154.186 37.6917 153.533 38.345C152.879 38.9983 152.109 39.5117 151.223 39.885C150.359 40.2583 149.438 40.445 148.458 40.445H146.848H146.708C146.171 40.445 145.669 40.55 145.203 40.76C144.736 40.9467 144.328 41.215 143.978 41.565C143.628 41.915 143.348 42.3233 143.138 42.79C142.951 43.2567 142.858 43.7467 142.858 44.26V45.24H145.238H146.848H148.458H152.413C153.929 45.24 154.898 44.9717 155.318 44.435ZM141.528 31.835C141.644 31.835 141.738 31.8 141.808 31.73C141.901 31.6367 141.948 31.5317 141.948 31.415C141.948 31.1117 141.808 30.96 141.528 30.96C141.224 30.96 141.073 31.1117 141.073 31.415C141.073 31.5317 141.119 31.6367 141.213 31.73C141.306 31.8 141.411 31.835 141.528 31.835ZM143.068 29.49C143.348 29.49 143.488 29.35 143.488 29.07C143.488 28.79 143.348 28.65 143.068 28.65C142.764 28.65 142.613 28.79 142.613 29.07C142.613 29.35 142.764 29.49 143.068 29.49ZM146.043 28.93C146.159 28.93 146.253 28.8833 146.323 28.79C146.416 28.6967 146.463 28.5917 146.463 28.475C146.463 28.3583 146.416 28.265 146.323 28.195C146.253 28.1017 146.159 28.055 146.043 28.055C145.739 28.055 145.588 28.195 145.588 28.475C145.588 28.7783 145.739 28.93 146.043 28.93ZM149.298 28.93C149.414 28.93 149.508 28.8833 149.578 28.79C149.671 28.6967 149.718 28.5917 149.718 28.475C149.718 28.3583 149.671 28.265 149.578 28.195C149.508 28.1017 149.414 28.055 149.298 28.055C148.994 28.055 148.843 28.195 148.843 28.475C148.843 28.7783 148.994 28.93 149.298 28.93ZM152.658 36.42C152.938 36.42 153.078 36.28 153.078 36C153.078 35.6967 152.938 35.545 152.658 35.545C152.378 35.545 152.238 35.6967 152.238 36C152.238 36.28 152.378 36.42 152.658 36.42ZM153.043 32.5C152.739 32.5 152.588 32.64 152.588 32.92C152.588 33.2233 152.739 33.375 153.043 33.375C153.323 33.375 153.463 33.2233 153.463 32.92C153.463 32.64 153.323 32.5 153.043 32.5ZM151.923 29.595C151.643 29.595 151.503 29.7467 151.503 30.05C151.503 30.1667 151.538 30.2717 151.608 30.365C151.701 30.435 151.806 30.47 151.923 30.47C152.039 30.47 152.144 30.435 152.238 30.365C152.331 30.2717 152.378 30.1667 152.378 30.05C152.378 29.7467 152.226 29.595 151.923 29.595ZM149.718 37.47C149.438 37.47 149.298 37.6217 149.298 37.925C149.298 38.205 149.438 38.345 149.718 38.345C149.998 38.345 150.138 38.205 150.138 37.925C150.138 37.6217 149.998 37.47 149.718 37.47ZM146.673 37.925C146.393 37.925 146.253 38.065 146.253 38.345C146.253 38.6483 146.393 38.8 146.673 38.8C146.976 38.8 147.128 38.6483 147.128 38.345C147.128 38.065 146.976 37.925 146.673 37.925ZM143.488 38.555C143.371 38.555 143.266 38.6017 143.173 38.695C143.079 38.765 143.033 38.8583 143.033 38.975C143.033 39.2783 143.184 39.43 143.488 39.43C143.768 39.43 143.908 39.2783 143.908 38.975C143.908 38.8583 143.861 38.765 143.768 38.695C143.698 38.6017 143.604 38.555 143.488 38.555ZM140.863 47.935C140.979 47.935 141.073 47.9 141.143 47.83C141.236 47.7367 141.283 47.6317 141.283 47.515C141.283 47.2117 141.143 47.06 140.863 47.06C140.559 47.06 140.408 47.2117 140.408 47.515C140.408 47.6317 140.454 47.7367 140.548 47.83C140.641 47.9 140.746 47.935 140.863 47.935ZM140.863 44.855C140.979 44.855 141.073 44.82 141.143 44.75C141.236 44.6567 141.283 44.5517 141.283 44.435C141.283 44.1317 141.143 43.98 140.863 43.98C140.559 43.98 140.408 44.1317 140.408 44.435C140.408 44.5517 140.454 44.6567 140.548 44.75C140.641 44.82 140.746 44.855 140.863 44.855ZM141.283 41.53C141.586 41.53 141.738 41.39 141.738 41.11C141.738 40.83 141.586 40.69 141.283 40.69C141.003 40.69 140.863 40.83 140.863 41.11C140.863 41.39 141.003 41.53 141.283 41.53ZM144.398 47.69C144.444 47.5733 144.456 47.4567 144.433 47.34C144.409 47.2233 144.339 47.1417 144.223 47.095C143.989 46.9317 143.791 46.9783 143.628 47.235C143.581 47.3517 143.569 47.4683 143.593 47.585C143.616 47.7017 143.686 47.7833 143.803 47.83C144.036 47.9933 144.234 47.9467 144.398 47.69ZM147.548 47.69C147.594 47.5733 147.606 47.4567 147.583 47.34C147.559 47.2233 147.501 47.1417 147.408 47.095C147.151 46.9317 146.953 46.9783 146.813 47.235C146.743 47.3517 146.719 47.4683 146.743 47.585C146.766 47.7017 146.836 47.7833 146.953 47.83C147.069 47.9 147.186 47.9233 147.303 47.9C147.419 47.8767 147.501 47.8067 147.548 47.69ZM150.453 47.585C150.499 47.4683 150.511 47.3517 150.488 47.235C150.464 47.1183 150.406 47.0367 150.313 46.99C150.056 46.8267 149.846 46.8733 149.683 47.13C149.636 47.2467 149.624 47.3633 149.648 47.48C149.671 47.5967 149.741 47.6783 149.858 47.725C149.974 47.7717 150.091 47.795 150.208 47.795C150.324 47.7717 150.406 47.7017 150.453 47.585ZM153.778 47.69C153.848 47.5733 153.859 47.4567 153.813 47.34C153.789 47.2233 153.719 47.1417 153.603 47.095C153.346 46.9317 153.159 46.9783 153.043 47.235C152.973 47.3517 152.949 47.4683 152.973 47.585C152.996 47.7017 153.066 47.7833 153.183 47.83C153.299 47.9 153.416 47.9233 153.533 47.9C153.649 47.8767 153.731 47.8067 153.778 47.69ZM174.834 44.435C174.904 44.365 174.974 44.3417 175.044 44.365C175.114 44.3883 175.149 44.4467 175.149 44.54V45.24V50H167.974H166.364H164.754H157.614V44.26C157.614 43.07 157.836 41.95 158.279 40.9C158.746 39.85 159.364 38.94 160.134 38.17C160.904 37.4 161.814 36.7933 162.864 36.35C163.914 35.8833 165.034 35.65 166.224 35.65H166.364H167.974C168.628 35.65 169.188 35.4283 169.654 34.985C170.121 34.5183 170.354 33.9467 170.354 33.27C170.354 32.5933 170.121 32.0333 169.654 31.59C169.188 31.1233 168.628 30.89 167.974 30.89H166.364H164.754C164.428 30.89 164.113 30.96 163.809 31.1C163.576 31.2167 163.354 31.4617 163.144 31.835C162.934 32.185 162.958 32.5817 163.214 33.025C163.284 33.1883 163.238 33.27 163.074 33.27H162.374H157.614C157.614 32.29 157.801 31.3683 158.174 30.505C158.548 29.6183 159.049 28.8483 159.679 28.195C160.333 27.5417 161.091 27.0283 161.954 26.655C162.841 26.2817 163.774 26.095 164.754 26.095H166.364H167.974C168.954 26.095 169.876 26.2817 170.739 26.655C171.626 27.0283 172.396 27.5417 173.049 28.195C173.703 28.8483 174.216 29.6183 174.589 30.505C174.963 31.3683 175.149 32.29 175.149 33.27C175.149 34.25 174.963 35.1833 174.589 36.07C174.216 36.9333 173.703 37.6917 173.049 38.345C172.396 38.9983 171.626 39.5117 170.739 39.885C169.876 40.2583 168.954 40.445 167.974 40.445H166.364H166.224C165.688 40.445 165.186 40.55 164.719 40.76C164.253 40.9467 163.844 41.215 163.494 41.565C163.144 41.915 162.864 42.3233 162.654 42.79C162.468 43.2567 162.374 43.7467 162.374 44.26V45.24H164.754H166.364H167.974H171.929C173.446 45.24 174.414 44.9717 174.834 44.435ZM161.044 31.835C161.161 31.835 161.254 31.8 161.324 31.73C161.418 31.6367 161.464 31.5317 161.464 31.415C161.464 31.1117 161.324 30.96 161.044 30.96C160.741 30.96 160.589 31.1117 160.589 31.415C160.589 31.5317 160.636 31.6367 160.729 31.73C160.823 31.8 160.928 31.835 161.044 31.835ZM162.584 29.49C162.864 29.49 163.004 29.35 163.004 29.07C163.004 28.79 162.864 28.65 162.584 28.65C162.281 28.65 162.129 28.79 162.129 29.07C162.129 29.35 162.281 29.49 162.584 29.49ZM165.559 28.93C165.676 28.93 165.769 28.8833 165.839 28.79C165.933 28.6967 165.979 28.5917 165.979 28.475C165.979 28.3583 165.933 28.265 165.839 28.195C165.769 28.1017 165.676 28.055 165.559 28.055C165.256 28.055 165.104 28.195 165.104 28.475C165.104 28.7783 165.256 28.93 165.559 28.93ZM168.814 28.93C168.931 28.93 169.024 28.8833 169.094 28.79C169.188 28.6967 169.234 28.5917 169.234 28.475C169.234 28.3583 169.188 28.265 169.094 28.195C169.024 28.1017 168.931 28.055 168.814 28.055C168.511 28.055 168.359 28.195 168.359 28.475C168.359 28.7783 168.511 28.93 168.814 28.93ZM172.174 36.42C172.454 36.42 172.594 36.28 172.594 36C172.594 35.6967 172.454 35.545 172.174 35.545C171.894 35.545 171.754 35.6967 171.754 36C171.754 36.28 171.894 36.42 172.174 36.42ZM172.559 32.5C172.256 32.5 172.104 32.64 172.104 32.92C172.104 33.2233 172.256 33.375 172.559 33.375C172.839 33.375 172.979 33.2233 172.979 32.92C172.979 32.64 172.839 32.5 172.559 32.5ZM171.439 29.595C171.159 29.595 171.019 29.7467 171.019 30.05C171.019 30.1667 171.054 30.2717 171.124 30.365C171.218 30.435 171.323 30.47 171.439 30.47C171.556 30.47 171.661 30.435 171.754 30.365C171.848 30.2717 171.894 30.1667 171.894 30.05C171.894 29.7467 171.743 29.595 171.439 29.595ZM169.234 37.47C168.954 37.47 168.814 37.6217 168.814 37.925C168.814 38.205 168.954 38.345 169.234 38.345C169.514 38.345 169.654 38.205 169.654 37.925C169.654 37.6217 169.514 37.47 169.234 37.47ZM166.189 37.925C165.909 37.925 165.769 38.065 165.769 38.345C165.769 38.6483 165.909 38.8 166.189 38.8C166.493 38.8 166.644 38.6483 166.644 38.345C166.644 38.065 166.493 37.925 166.189 37.925ZM163.004 38.555C162.888 38.555 162.783 38.6017 162.689 38.695C162.596 38.765 162.549 38.8583 162.549 38.975C162.549 39.2783 162.701 39.43 163.004 39.43C163.284 39.43 163.424 39.2783 163.424 38.975C163.424 38.8583 163.378 38.765 163.284 38.695C163.214 38.6017 163.121 38.555 163.004 38.555ZM160.379 47.935C160.496 47.935 160.589 47.9 160.659 47.83C160.753 47.7367 160.799 47.6317 160.799 47.515C160.799 47.2117 160.659 47.06 160.379 47.06C160.076 47.06 159.924 47.2117 159.924 47.515C159.924 47.6317 159.971 47.7367 160.064 47.83C160.158 47.9 160.263 47.935 160.379 47.935ZM160.379 44.855C160.496 44.855 160.589 44.82 160.659 44.75C160.753 44.6567 160.799 44.5517 160.799 44.435C160.799 44.1317 160.659 43.98 160.379 43.98C160.076 43.98 159.924 44.1317 159.924 44.435C159.924 44.5517 159.971 44.6567 160.064 44.75C160.158 44.82 160.263 44.855 160.379 44.855ZM160.799 41.53C161.103 41.53 161.254 41.39 161.254 41.11C161.254 40.83 161.103 40.69 160.799 40.69C160.519 40.69 160.379 40.83 160.379 41.11C160.379 41.39 160.519 41.53 160.799 41.53ZM163.914 47.69C163.961 47.5733 163.973 47.4567 163.949 47.34C163.926 47.2233 163.856 47.1417 163.739 47.095C163.506 46.9317 163.308 46.9783 163.144 47.235C163.098 47.3517 163.086 47.4683 163.109 47.585C163.133 47.7017 163.203 47.7833 163.319 47.83C163.553 47.9933 163.751 47.9467 163.914 47.69ZM167.064 47.69C167.111 47.5733 167.123 47.4567 167.099 47.34C167.076 47.2233 167.018 47.1417 166.924 47.095C166.668 46.9317 166.469 46.9783 166.329 47.235C166.259 47.3517 166.236 47.4683 166.259 47.585C166.283 47.7017 166.353 47.7833 166.469 47.83C166.586 47.9 166.703 47.9233 166.819 47.9C166.936 47.8767 167.018 47.8067 167.064 47.69ZM169.969 47.585C170.016 47.4683 170.028 47.3517 170.004 47.235C169.981 47.1183 169.923 47.0367 169.829 46.99C169.573 46.8267 169.363 46.8733 169.199 47.13C169.153 47.2467 169.141 47.3633 169.164 47.48C169.188 47.5967 169.258 47.6783 169.374 47.725C169.491 47.7717 169.608 47.795 169.724 47.795C169.841 47.7717 169.923 47.7017 169.969 47.585ZM173.294 47.69C173.364 47.5733 173.376 47.4567 173.329 47.34C173.306 47.2233 173.236 47.1417 173.119 47.095C172.863 46.9317 172.676 46.9783 172.559 47.235C172.489 47.3517 172.466 47.4683 172.489 47.585C172.513 47.7017 172.583 47.7833 172.699 47.83C172.816 47.9 172.933 47.9233 173.049 47.9C173.166 47.8767 173.248 47.8067 173.294 47.69ZM187.055 41.985V39.255H195.525V41.985H187.055ZM215.714 26.095C216.927 26.095 218.036 26.3283 219.039 26.795C220.042 27.2617 220.882 27.88 221.559 28.65C222.259 29.3967 222.796 30.26 223.169 31.24C223.542 32.22 223.717 33.235 223.694 34.285C223.694 35.3117 223.472 36.3267 223.029 37.33C222.586 38.3333 221.909 39.2317 220.999 40.025C220.206 40.725 219.389 41.2383 218.549 41.565C217.732 41.8683 216.787 42.02 215.714 42.02H212.529V46.815C212.529 48.285 212.797 49.2533 213.334 49.72C213.404 49.7667 213.427 49.825 213.404 49.895C213.381 49.965 213.322 50 213.229 50H210.954H207.069C206.976 50 206.917 49.965 206.894 49.895C206.871 49.825 206.894 49.7667 206.964 49.72C207.501 49.2533 207.769 48.285 207.769 46.815V29.28C207.769 27.7633 207.501 26.795 206.964 26.375C206.894 26.305 206.871 26.2467 206.894 26.2C206.917 26.13 206.976 26.095 207.069 26.095H210.954H215.714ZM210.219 48.18C210.336 48.18 210.429 48.1333 210.499 48.04C210.592 47.9467 210.639 47.8417 210.639 47.725C210.639 47.6083 210.592 47.515 210.499 47.445C210.429 47.3517 210.336 47.305 210.219 47.305C210.102 47.305 209.997 47.3517 209.904 47.445C209.811 47.515 209.764 47.6083 209.764 47.725C209.764 48.0283 209.916 48.18 210.219 48.18ZM210.219 44.855C210.336 44.855 210.429 44.8083 210.499 44.715C210.592 44.6217 210.639 44.5167 210.639 44.4C210.639 44.2833 210.592 44.19 210.499 44.12C210.429 44.0267 210.336 43.98 210.219 43.98C210.102 43.98 209.997 44.0267 209.904 44.12C209.811 44.19 209.764 44.2833 209.764 44.4C209.764 44.7033 209.916 44.855 210.219 44.855ZM210.219 41.67C210.336 41.67 210.429 41.6233 210.499 41.53C210.592 41.4367 210.639 41.3317 210.639 41.215C210.639 41.0983 210.592 40.9933 210.499 40.9C210.429 40.8067 210.336 40.76 210.219 40.76C209.916 40.76 209.764 40.9117 209.764 41.215C209.764 41.5183 209.916 41.67 210.219 41.67ZM210.219 38.415C210.336 38.415 210.429 38.3683 210.499 38.275C210.592 38.1817 210.639 38.0767 210.639 37.96C210.639 37.8433 210.592 37.75 210.499 37.68C210.429 37.5867 210.336 37.54 210.219 37.54C209.916 37.54 209.764 37.68 209.764 37.96C209.764 38.2633 209.916 38.415 210.219 38.415ZM210.219 35.125C210.522 35.125 210.674 34.985 210.674 34.705C210.674 34.4017 210.522 34.25 210.219 34.25C209.939 34.25 209.799 34.4017 209.799 34.705C209.799 34.985 209.939 35.125 210.219 35.125ZM209.764 31.485C209.764 31.765 209.916 31.905 210.219 31.905C210.336 31.905 210.429 31.87 210.499 31.8C210.592 31.7067 210.639 31.6017 210.639 31.485C210.639 31.3683 210.592 31.2633 210.499 31.17C210.429 31.0767 210.336 31.03 210.219 31.03C209.916 31.03 209.764 31.1817 209.764 31.485ZM210.219 28.65C210.522 28.65 210.674 28.51 210.674 28.23C210.674 27.95 210.522 27.81 210.219 27.81C209.939 27.81 209.799 27.95 209.799 28.23C209.799 28.51 209.939 28.65 210.219 28.65ZM216.869 28.125C216.566 28.125 216.414 28.265 216.414 28.545C216.414 28.8483 216.566 29 216.869 29C217.149 29 217.289 28.8483 217.289 28.545C217.289 28.265 217.149 28.125 216.869 28.125ZM213.439 27.81C213.322 27.81 213.217 27.8567 213.124 27.95C213.054 28.02 213.019 28.1133 213.019 28.23C213.019 28.3467 213.054 28.4517 213.124 28.545C213.217 28.615 213.322 28.65 213.439 28.65C213.742 28.65 213.894 28.51 213.894 28.23C213.894 27.95 213.742 27.81 213.439 27.81ZM213.439 39.92C213.579 39.92 213.684 39.885 213.754 39.815C213.847 39.7217 213.894 39.6167 213.894 39.5C213.894 39.1967 213.742 39.045 213.439 39.045C213.322 39.045 213.217 39.0917 213.124 39.185C213.054 39.2783 213.019 39.3833 213.019 39.5C213.019 39.6167 213.054 39.7217 213.124 39.815C213.217 39.885 213.322 39.92 213.439 39.92ZM217.184 39.92C217.301 39.92 217.406 39.885 217.499 39.815C217.592 39.7217 217.639 39.6167 217.639 39.5C217.639 39.1967 217.487 39.045 217.184 39.045C216.881 39.045 216.729 39.1967 216.729 39.5C216.729 39.6167 216.776 39.7217 216.869 39.815C216.962 39.885 217.067 39.92 217.184 39.92ZM215.714 37.225C216.601 37.225 217.347 36.9217 217.954 36.315C218.584 35.685 218.899 34.9267 218.899 34.04C218.899 33.5967 218.817 33.1883 218.654 32.815C218.491 32.4183 218.257 32.08 217.954 31.8C217.674 31.4967 217.336 31.2633 216.939 31.1C216.566 30.9367 216.157 30.855 215.714 30.855H212.529V37.225H215.714ZM219.354 30.19C219.354 30.4933 219.494 30.645 219.774 30.645C220.077 30.645 220.229 30.4933 220.229 30.19C220.229 29.91 220.077 29.77 219.774 29.77C219.494 29.77 219.354 29.91 219.354 30.19ZM220.229 37.365C220.346 37.365 220.439 37.33 220.509 37.26C220.602 37.1667 220.649 37.0617 220.649 36.945C220.649 36.6417 220.509 36.49 220.229 36.49C219.926 36.49 219.774 36.6417 219.774 36.945C219.774 37.0617 219.821 37.1667 219.914 37.26C220.007 37.33 220.112 37.365 220.229 37.365ZM220.894 33.83C221.197 33.83 221.349 33.69 221.349 33.41C221.349 33.1067 221.197 32.955 220.894 32.955C220.614 32.955 220.474 33.1067 220.474 33.41C220.474 33.69 220.614 33.83 220.894 33.83ZM241.571 46.815C241.571 48.3083 241.827 49.2767 242.341 49.72C242.411 49.7667 242.434 49.825 242.411 49.895C242.411 49.965 242.352 50 242.236 50H236.076C235.982 50 235.924 49.965 235.901 49.895C235.877 49.825 235.912 49.7667 236.006 49.72C236.519 49.2533 236.776 48.285 236.776 46.815V42.02V40.445H230.406V42.02V46.815C230.406 48.3083 230.662 49.2767 231.176 49.72C231.246 49.7667 231.269 49.825 231.246 49.895C231.222 49.965 231.164 50 231.071 50H224.946C224.829 50 224.759 49.965 224.736 49.895C224.712 49.825 224.747 49.7667 224.841 49.72C225.354 49.2767 225.611 48.3083 225.611 46.815V45.205V29.28C225.611 27.7633 225.354 26.795 224.841 26.375C224.747 26.305 224.712 26.2467 224.736 26.2C224.759 26.13 224.829 26.095 224.946 26.095H231.071C231.164 26.095 231.222 26.13 231.246 26.2C231.269 26.2467 231.246 26.305 231.176 26.375C230.662 26.795 230.406 27.7633 230.406 29.28V32.465V35.65H236.776V32.465V29.28C236.776 27.7867 236.519 26.8183 236.006 26.375C235.912 26.305 235.877 26.2467 235.901 26.2C235.924 26.13 235.982 26.095 236.076 26.095H242.236C242.492 26.095 242.527 26.1883 242.341 26.375C241.827 26.795 241.571 27.7633 241.571 29.28V46.815ZM227.921 48.39C228.224 48.39 228.376 48.25 228.376 47.97C228.376 47.6667 228.224 47.515 227.921 47.515C227.641 47.515 227.501 47.6667 227.501 47.97C227.501 48.25 227.641 48.39 227.921 48.39ZM227.921 45.065C228.224 45.065 228.376 44.9133 228.376 44.61C228.376 44.33 228.224 44.19 227.921 44.19C227.641 44.19 227.501 44.33 227.501 44.61C227.501 44.9133 227.641 45.065 227.921 45.065ZM227.921 41.845C228.224 41.845 228.376 41.705 228.376 41.425C228.376 41.145 228.224 41.005 227.921 41.005C227.641 41.005 227.501 41.145 227.501 41.425C227.501 41.705 227.641 41.845 227.921 41.845ZM227.921 38.625C228.224 38.625 228.376 38.4733 228.376 38.17C228.376 37.89 228.224 37.75 227.921 37.75C227.641 37.75 227.501 37.89 227.501 38.17C227.501 38.4733 227.641 38.625 227.921 38.625ZM227.956 35.335C228.259 35.335 228.411 35.195 228.411 34.915C228.411 34.6117 228.259 34.46 227.956 34.46C227.676 34.46 227.536 34.6117 227.536 34.915C227.536 35.195 227.676 35.335 227.956 35.335ZM227.501 31.695C227.501 31.975 227.641 32.115 227.921 32.115C228.224 32.115 228.376 31.975 228.376 31.695C228.376 31.3917 228.224 31.24 227.921 31.24C227.641 31.24 227.501 31.3917 227.501 31.695ZM227.956 28.86C228.259 28.86 228.411 28.72 228.411 28.44C228.411 28.16 228.259 28.02 227.956 28.02C227.676 28.02 227.536 28.16 227.536 28.44C227.536 28.72 227.676 28.86 227.956 28.86ZM231.631 38.52C231.747 38.52 231.841 38.485 231.911 38.415C232.004 38.3217 232.051 38.2167 232.051 38.1C232.051 37.9833 232.004 37.8783 231.911 37.785C231.841 37.6917 231.747 37.645 231.631 37.645C231.327 37.645 231.176 37.7967 231.176 38.1C231.176 38.38 231.327 38.52 231.631 38.52ZM235.236 38.52C235.516 38.52 235.656 38.38 235.656 38.1C235.656 37.7967 235.516 37.645 235.236 37.645C234.932 37.645 234.781 37.7967 234.781 38.1C234.781 38.38 234.932 38.52 235.236 38.52ZM239.191 27.565C238.887 27.565 238.736 27.7167 238.736 28.02C238.736 28.1367 238.782 28.2417 238.876 28.335C238.969 28.405 239.074 28.44 239.191 28.44C239.307 28.44 239.401 28.405 239.471 28.335C239.564 28.2417 239.611 28.1367 239.611 28.02C239.611 27.9033 239.564 27.7983 239.471 27.705C239.401 27.6117 239.307 27.565 239.191 27.565ZM239.156 30.82C239.039 30.82 238.934 30.8667 238.841 30.96C238.771 31.03 238.736 31.1233 238.736 31.24C238.736 31.5433 238.876 31.695 239.156 31.695C239.459 31.695 239.611 31.5433 239.611 31.24C239.611 31.1233 239.564 31.03 239.471 30.96C239.377 30.8667 239.272 30.82 239.156 30.82ZM239.611 34.46C239.611 34.3433 239.564 34.25 239.471 34.18C239.401 34.0867 239.307 34.04 239.191 34.04C239.074 34.04 238.969 34.0867 238.876 34.18C238.782 34.25 238.736 34.3433 238.736 34.46C238.736 34.7633 238.887 34.915 239.191 34.915C239.307 34.915 239.401 34.8683 239.471 34.775C239.564 34.6817 239.611 34.5767 239.611 34.46ZM239.156 47.97C239.459 47.97 239.611 47.8183 239.611 47.515C239.611 47.235 239.459 47.095 239.156 47.095C238.876 47.095 238.736 47.235 238.736 47.515C238.736 47.8183 238.876 47.97 239.156 47.97ZM239.156 44.61C239.459 44.61 239.611 44.47 239.611 44.19C239.611 43.8867 239.459 43.735 239.156 43.735C238.876 43.735 238.736 43.8867 238.736 44.19C238.736 44.47 238.876 44.61 239.156 44.61ZM239.156 41.425C239.272 41.425 239.377 41.39 239.471 41.32C239.564 41.2267 239.611 41.1217 239.611 41.005C239.611 40.7017 239.459 40.55 239.156 40.55C238.876 40.55 238.736 40.7017 238.736 41.005C238.736 41.1217 238.771 41.2267 238.841 41.32C238.934 41.39 239.039 41.425 239.156 41.425ZM239.261 38.38C239.541 38.38 239.681 38.24 239.681 37.96C239.681 37.68 239.541 37.54 239.261 37.54C238.981 37.54 238.841 37.68 238.841 37.96C238.841 38.24 238.981 38.38 239.261 38.38ZM261.206 49.72C261.276 49.79 261.3 49.86 261.276 49.93C261.253 49.9767 261.195 50 261.101 50H254.941C254.848 50 254.79 49.9767 254.766 49.93C254.743 49.86 254.766 49.79 254.836 49.72C255.373 49.3 255.641 48.3317 255.641 46.815V43.63H249.236V46.815C249.236 48.3317 249.505 49.3 250.041 49.72C250.228 49.9067 250.193 50 249.936 50H243.776C243.683 50 243.625 49.9767 243.601 49.93C243.578 49.86 243.601 49.79 243.671 49.72C244.208 49.3 244.476 48.3317 244.476 46.815V42.055V39.22C244.476 38.2167 244.57 37.26 244.756 36.35C244.943 35.4167 245.235 34.4833 245.631 33.55L247.451 29.315C247.755 27.8217 247.685 26.8417 247.241 26.375C247.171 26.305 247.148 26.2467 247.171 26.2C247.195 26.13 247.253 26.095 247.346 26.095H257.531C257.765 26.095 257.811 26.1883 257.671 26.375C257.228 26.795 257.146 27.775 257.426 29.315L259.246 33.55C259.643 34.4833 259.935 35.4167 260.121 36.35C260.308 37.26 260.401 38.2167 260.401 39.22V42.055V46.815C260.401 48.3317 260.67 49.3 261.206 49.72ZM257.601 37.155C257.321 37.155 257.181 37.3067 257.181 37.61C257.181 37.7267 257.216 37.8317 257.286 37.925C257.38 37.995 257.485 38.03 257.601 38.03C257.718 38.03 257.823 37.995 257.916 37.925C258.01 37.8317 258.056 37.7267 258.056 37.61C258.056 37.3067 257.905 37.155 257.601 37.155ZM254.661 27.635C254.381 27.635 254.241 27.775 254.241 28.055C254.241 28.3583 254.381 28.51 254.661 28.51C254.941 28.51 255.081 28.3583 255.081 28.055C255.081 27.775 254.941 27.635 254.661 27.635ZM250.216 27.95C249.913 27.95 249.761 28.09 249.761 28.37C249.761 28.6733 249.913 28.825 250.216 28.825C250.52 28.825 250.671 28.6733 250.671 28.37C250.671 28.09 250.52 27.95 250.216 27.95ZM246.856 48.11C247.16 48.11 247.311 47.9583 247.311 47.655C247.311 47.5383 247.265 47.445 247.171 47.375C247.078 47.2817 246.973 47.235 246.856 47.235C246.74 47.235 246.635 47.2817 246.541 47.375C246.448 47.445 246.401 47.5383 246.401 47.655C246.401 47.9583 246.553 48.11 246.856 48.11ZM246.961 44.785C247.265 44.785 247.416 44.6333 247.416 44.33C247.416 44.2133 247.37 44.12 247.276 44.05C247.206 43.9567 247.101 43.91 246.961 43.91C246.845 43.91 246.74 43.9567 246.646 44.05C246.576 44.12 246.541 44.2133 246.541 44.33C246.541 44.6333 246.681 44.785 246.961 44.785ZM246.961 41.46C247.265 41.46 247.416 41.32 247.416 41.04C247.416 40.7367 247.265 40.585 246.961 40.585C246.681 40.585 246.541 40.7367 246.541 41.04C246.541 41.32 246.681 41.46 246.961 41.46ZM247.171 38.24C247.288 38.24 247.393 38.205 247.486 38.135C247.58 38.0417 247.626 37.9367 247.626 37.82C247.626 37.5167 247.475 37.365 247.171 37.365C246.891 37.365 246.751 37.5167 246.751 37.82C246.751 37.9367 246.786 38.0417 246.856 38.135C246.95 38.205 247.055 38.24 247.171 38.24ZM247.626 35.055C247.906 35.055 248.046 34.915 248.046 34.635C248.046 34.355 247.906 34.215 247.626 34.215C247.323 34.215 247.171 34.355 247.171 34.635C247.171 34.915 247.323 35.055 247.626 35.055ZM249.061 31.835C249.341 31.835 249.481 31.695 249.481 31.415C249.481 31.1117 249.341 30.96 249.061 30.96C248.758 30.96 248.606 31.1117 248.606 31.415C248.606 31.695 248.758 31.835 249.061 31.835ZM250.531 41.46C250.835 41.46 250.986 41.32 250.986 41.04C250.986 40.7367 250.835 40.585 250.531 40.585C250.228 40.585 250.076 40.7367 250.076 41.04C250.076 41.32 250.228 41.46 250.531 41.46ZM254.136 41.495C254.253 41.495 254.346 41.46 254.416 41.39C254.51 41.2967 254.556 41.1917 254.556 41.075C254.556 40.7717 254.416 40.62 254.136 40.62C253.833 40.62 253.681 40.7717 253.681 41.075C253.681 41.1917 253.716 41.2967 253.786 41.39C253.88 41.46 253.996 41.495 254.136 41.495ZM255.641 38.87C255.571 37.68 255.315 36.5367 254.871 35.44L252.456 29.805L250.041 35.44C249.551 36.5367 249.295 37.68 249.271 38.87H255.641ZM255.711 31.555C255.991 31.555 256.131 31.4033 256.131 31.1C256.131 30.7967 255.991 30.645 255.711 30.645C255.408 30.645 255.256 30.7967 255.256 31.1C255.256 31.4033 255.408 31.555 255.711 31.555ZM256.446 34.32C256.446 34.6233 256.598 34.775 256.901 34.775C257.181 34.775 257.321 34.6233 257.321 34.32C257.321 34.04 257.181 33.9 256.901 33.9C256.598 33.9 256.446 34.04 256.446 34.32ZM257.181 40.935C257.181 41.2383 257.321 41.39 257.601 41.39C257.905 41.39 258.056 41.2383 258.056 40.935C258.056 40.655 257.905 40.515 257.601 40.515C257.321 40.515 257.181 40.655 257.181 40.935ZM257.846 48.005C257.963 48.005 258.056 47.97 258.126 47.9C258.22 47.8067 258.266 47.7017 258.266 47.585C258.266 47.4683 258.22 47.3633 258.126 47.27C258.056 47.1767 257.963 47.13 257.846 47.13C257.543 47.13 257.391 47.2817 257.391 47.585C257.391 47.865 257.543 48.005 257.846 48.005ZM257.846 44.575C257.963 44.575 258.056 44.5283 258.126 44.435C258.22 44.3417 258.266 44.2367 258.266 44.12C258.266 44.0033 258.22 43.91 258.126 43.84C258.056 43.7467 257.963 43.7 257.846 43.7C257.73 43.7 257.625 43.7467 257.531 43.84C257.438 43.91 257.391 44.0033 257.391 44.12C257.391 44.4233 257.543 44.575 257.846 44.575ZM273.109 35.685C274.112 35.685 275.045 35.8717 275.909 36.245C276.772 36.6183 277.53 37.1317 278.184 37.785C278.837 38.4383 279.35 39.1967 279.724 40.06C280.097 40.9233 280.284 41.8567 280.284 42.86C280.284 43.84 280.097 44.7733 279.724 45.66C279.35 46.5233 278.837 47.2817 278.184 47.935C277.53 48.565 276.772 49.0667 275.909 49.44C275.045 49.8133 274.112 50 273.109 50H271.534H269.924C268.944 50 268.01 49.8133 267.124 49.44C266.26 49.0667 265.502 48.565 264.849 47.935C264.219 47.2817 263.717 46.5233 263.344 45.66C262.97 44.7733 262.784 43.84 262.784 42.86H267.544H268.209C268.395 42.86 268.454 42.93 268.384 43.07C268.127 43.5367 268.104 43.945 268.314 44.295C268.524 44.645 268.745 44.89 268.979 45.03C269.282 45.17 269.597 45.24 269.924 45.24H271.534H273.109C273.785 45.24 274.357 45.0067 274.824 44.54C275.29 44.0733 275.524 43.5133 275.524 42.86C275.524 42.1833 275.29 41.6117 274.824 41.145C274.357 40.6783 273.785 40.445 273.109 40.445H271.534H269.924C268.944 40.445 268.01 40.2583 267.124 39.885C266.26 39.5117 265.502 38.9983 264.849 38.345C264.219 37.6917 263.717 36.9333 263.344 36.07C262.97 35.1833 262.784 34.25 262.784 33.27C262.784 32.29 262.97 31.3683 263.344 30.505C263.717 29.6183 264.219 28.8483 264.849 28.195C265.502 27.5417 266.26 27.0283 267.124 26.655C268.01 26.2817 268.944 26.095 269.924 26.095H271.534H273.109C274.112 26.095 275.045 26.2817 275.909 26.655C276.772 27.0283 277.53 27.5417 278.184 28.195C278.837 28.8483 279.35 29.6183 279.724 30.505C280.097 31.3683 280.284 32.29 280.284 33.27H275.524H274.824C274.637 33.27 274.59 33.2 274.684 33.06C274.917 32.6167 274.929 32.2083 274.719 31.835C274.532 31.4617 274.322 31.2167 274.089 31.1C273.762 30.96 273.435 30.89 273.109 30.89H271.534H269.924C269.27 30.89 268.71 31.1233 268.244 31.59C267.777 32.0567 267.544 32.6167 267.544 33.27C267.544 33.9467 267.777 34.5183 268.244 34.985C268.71 35.4517 269.27 35.685 269.924 35.685H271.534H273.109ZM277.624 31.17C277.507 31.17 277.402 31.2167 277.309 31.31C277.239 31.38 277.204 31.4733 277.204 31.59C277.204 31.8933 277.344 32.045 277.624 32.045C277.927 32.045 278.079 31.8933 278.079 31.59C278.079 31.4733 278.032 31.38 277.939 31.31C277.845 31.2167 277.74 31.17 277.624 31.17ZM275.349 28.51C275.069 28.51 274.929 28.6617 274.929 28.965C274.929 29.245 275.069 29.385 275.349 29.385C275.629 29.385 275.769 29.245 275.769 28.965C275.769 28.6617 275.629 28.51 275.349 28.51ZM272.129 27.915C271.849 27.915 271.709 28.055 271.709 28.335C271.709 28.615 271.849 28.755 272.129 28.755C272.432 28.755 272.584 28.615 272.584 28.335C272.584 28.055 272.432 27.915 272.129 27.915ZM268.804 27.915C268.5 27.915 268.349 28.055 268.349 28.335C268.349 28.615 268.5 28.755 268.804 28.755C269.084 28.755 269.224 28.615 269.224 28.335C269.224 28.055 269.084 27.915 268.804 27.915ZM266.144 29.84C265.864 29.84 265.724 29.9917 265.724 30.295C265.724 30.4117 265.759 30.5167 265.829 30.61C265.922 30.68 266.027 30.715 266.144 30.715C266.26 30.715 266.354 30.68 266.424 30.61C266.517 30.5167 266.564 30.4117 266.564 30.295C266.564 29.9917 266.424 29.84 266.144 29.84ZM265.479 33.725C265.782 33.725 265.934 33.585 265.934 33.305C265.934 33.0017 265.782 32.85 265.479 32.85C265.362 32.85 265.257 32.8967 265.164 32.99C265.094 33.0833 265.059 33.1883 265.059 33.305C265.059 33.4217 265.094 33.5267 265.164 33.62C265.257 33.69 265.362 33.725 265.479 33.725ZM266.564 36.735C266.867 36.735 267.019 36.5833 267.019 36.28C267.019 36 266.867 35.86 266.564 35.86C266.447 35.86 266.342 35.9067 266.249 36C266.179 36.07 266.144 36.1633 266.144 36.28C266.144 36.3967 266.179 36.5017 266.249 36.595C266.342 36.6883 266.447 36.735 266.564 36.735ZM269.224 38.485C269.527 38.485 269.679 38.3333 269.679 38.03C269.679 37.9133 269.632 37.82 269.539 37.75C269.445 37.6567 269.34 37.61 269.224 37.61C269.107 37.61 269.002 37.6567 268.909 37.75C268.839 37.82 268.804 37.9133 268.804 38.03C268.804 38.3333 268.944 38.485 269.224 38.485ZM272.584 38.485C272.7 38.485 272.794 38.45 272.864 38.38C272.957 38.2867 273.004 38.17 273.004 38.03C273.004 37.9133 272.957 37.82 272.864 37.75C272.794 37.6567 272.7 37.61 272.584 37.61C272.467 37.61 272.362 37.6567 272.269 37.75C272.175 37.82 272.129 37.9133 272.129 38.03C272.129 38.3333 272.28 38.485 272.584 38.485ZM266.144 45.45C266.26 45.45 266.365 45.415 266.459 45.345C266.552 45.2517 266.599 45.1467 266.599 45.03C266.599 44.7267 266.447 44.575 266.144 44.575C266.027 44.575 265.922 44.6217 265.829 44.715C265.759 44.8083 265.724 44.9133 265.724 45.03C265.724 45.1467 265.759 45.2517 265.829 45.345C265.922 45.415 266.027 45.45 266.144 45.45ZM268.699 47.48C269.002 47.48 269.154 47.3283 269.154 47.025C269.154 46.745 269.002 46.605 268.699 46.605C268.419 46.605 268.279 46.745 268.279 47.025C268.279 47.3283 268.419 47.48 268.699 47.48ZM272.024 47.69C272.14 47.69 272.245 47.655 272.339 47.585C272.432 47.4917 272.479 47.3867 272.479 47.27C272.479 46.9667 272.327 46.815 272.024 46.815C271.744 46.815 271.604 46.9667 271.604 47.27C271.604 47.3867 271.639 47.4917 271.709 47.585C271.802 47.655 271.907 47.69 272.024 47.69ZM275.559 47.27C275.862 47.27 276.014 47.1183 276.014 46.815C276.014 46.535 275.862 46.395 275.559 46.395C275.279 46.395 275.139 46.535 275.139 46.815C275.139 47.1183 275.279 47.27 275.559 47.27ZM275.769 38.975C276.072 38.975 276.224 38.835 276.224 38.555C276.224 38.275 276.072 38.135 275.769 38.135C275.652 38.135 275.547 38.1817 275.454 38.275C275.384 38.345 275.349 38.4383 275.349 38.555C275.349 38.6717 275.384 38.7767 275.454 38.87C275.547 38.94 275.652 38.975 275.769 38.975ZM277.624 44.61C277.74 44.61 277.845 44.575 277.939 44.505C278.032 44.4117 278.079 44.3067 278.079 44.19C278.079 43.8867 277.927 43.735 277.624 43.735C277.344 43.735 277.204 43.8867 277.204 44.19C277.204 44.3067 277.239 44.4117 277.309 44.505C277.402 44.575 277.507 44.61 277.624 44.61ZM277.624 41.32C277.927 41.32 278.079 41.18 278.079 40.9C278.079 40.5967 277.927 40.445 277.624 40.445C277.344 40.445 277.204 40.5967 277.204 40.9C277.204 41.18 277.344 41.32 277.624 41.32ZM298.517 46.815C298.517 48.3317 298.773 49.3117 299.287 49.755C299.357 49.8017 299.38 49.86 299.357 49.93C299.357 49.9767 299.298 50 299.182 50H281.892C281.775 50 281.705 49.9767 281.682 49.93C281.682 49.86 281.717 49.8017 281.787 49.755C282.3 49.3117 282.557 48.3317 282.557 46.815V45.24V29.28C282.557 27.1567 282.032 26.095 280.982 26.095H299.182C299.298 26.095 299.357 26.13 299.357 26.2C299.38 26.27 299.357 26.3283 299.287 26.375C298.773 26.8183 298.517 27.7867 298.517 29.28V30.89V31.59C298.517 31.6833 298.482 31.7417 298.412 31.765C298.342 31.7883 298.283 31.7533 298.237 31.66C297.793 31.1467 296.825 30.89 295.332 30.89H287.352V32.465V35.65H292.147C293.64 35.65 294.608 35.3933 295.052 34.88C295.098 34.81 295.157 34.7867 295.227 34.81C295.297 34.8333 295.332 34.8917 295.332 34.985V35.65V37.26V40.445V41.145C295.332 41.2383 295.297 41.2967 295.227 41.32C295.157 41.3433 295.098 41.32 295.052 41.25C294.585 40.7133 293.617 40.445 292.147 40.445H287.352V42.02V45.24H295.332C296.802 45.24 297.77 44.9717 298.237 44.435C298.283 44.365 298.342 44.3417 298.412 44.365C298.482 44.3883 298.517 44.4467 298.517 44.54V45.24V46.815ZM293.582 37.715C293.302 37.715 293.162 37.8667 293.162 38.17C293.162 38.45 293.302 38.59 293.582 38.59C293.885 38.59 294.037 38.45 294.037 38.17C294.037 37.8667 293.885 37.715 293.582 37.715ZM296.627 27.985C296.51 27.985 296.405 28.0317 296.312 28.125C296.242 28.195 296.207 28.2883 296.207 28.405C296.207 28.5217 296.242 28.6267 296.312 28.72C296.405 28.8133 296.51 28.86 296.627 28.86C296.93 28.86 297.082 28.7083 297.082 28.405C297.082 28.125 296.93 27.985 296.627 27.985ZM293.792 27.985C293.488 27.985 293.337 28.125 293.337 28.405C293.337 28.7083 293.488 28.86 293.792 28.86C293.908 28.86 294.002 28.8133 294.072 28.72C294.165 28.6267 294.212 28.5217 294.212 28.405C294.212 28.2883 294.165 28.195 294.072 28.125C294.002 28.0317 293.908 27.985 293.792 27.985ZM290.852 27.985C290.548 27.985 290.397 28.125 290.397 28.405C290.397 28.7083 290.548 28.86 290.852 28.86C290.968 28.86 291.062 28.8133 291.132 28.72C291.225 28.6267 291.272 28.5217 291.272 28.405C291.272 28.2883 291.225 28.195 291.132 28.125C291.062 28.0317 290.968 27.985 290.852 27.985ZM287.842 27.985C287.562 27.985 287.422 28.125 287.422 28.405C287.422 28.7083 287.562 28.86 287.842 28.86C288.122 28.86 288.262 28.7083 288.262 28.405C288.262 28.125 288.122 27.985 287.842 27.985ZM290.642 37.715C290.362 37.715 290.222 37.8667 290.222 38.17C290.222 38.45 290.362 38.59 290.642 38.59C290.945 38.59 291.097 38.45 291.097 38.17C291.097 37.8667 290.945 37.715 290.642 37.715ZM287.772 37.715C287.468 37.715 287.317 37.8667 287.317 38.17C287.317 38.45 287.468 38.59 287.772 38.59C287.888 38.59 287.982 38.555 288.052 38.485C288.145 38.3917 288.192 38.2867 288.192 38.17C288.192 38.0533 288.145 37.9483 288.052 37.855C287.982 37.7617 287.888 37.715 287.772 37.715ZM284.797 48.355C285.1 48.355 285.252 48.215 285.252 47.935C285.252 47.6317 285.1 47.48 284.797 47.48C284.517 47.48 284.377 47.6317 284.377 47.935C284.377 48.215 284.517 48.355 284.797 48.355ZM284.797 45.03C285.1 45.03 285.252 44.89 285.252 44.61C285.252 44.3067 285.1 44.155 284.797 44.155C284.517 44.155 284.377 44.3067 284.377 44.61C284.377 44.89 284.517 45.03 284.797 45.03ZM284.797 41.845C285.1 41.845 285.252 41.6933 285.252 41.39C285.252 41.11 285.1 40.97 284.797 40.97C284.517 40.97 284.377 41.11 284.377 41.39C284.377 41.6933 284.517 41.845 284.797 41.845ZM284.797 38.59C285.1 38.59 285.252 38.45 285.252 38.17C285.252 37.8667 285.1 37.715 284.797 37.715C284.517 37.715 284.377 37.8667 284.377 38.17C284.377 38.45 284.517 38.59 284.797 38.59ZM284.832 35.335C285.135 35.335 285.287 35.1833 285.287 34.88C285.287 34.6 285.135 34.46 284.832 34.46C284.528 34.46 284.377 34.6 284.377 34.88C284.377 35.1833 284.528 35.335 284.832 35.335ZM284.377 31.66C284.377 31.94 284.517 32.08 284.797 32.08C285.1 32.08 285.252 31.94 285.252 31.66C285.252 31.3567 285.1 31.205 284.797 31.205C284.517 31.205 284.377 31.3567 284.377 31.66ZM284.832 28.86C285.135 28.86 285.287 28.7083 285.287 28.405C285.287 28.125 285.135 27.985 284.832 27.985C284.528 27.985 284.377 28.125 284.377 28.405C284.377 28.7083 284.528 28.86 284.832 28.86ZM287.737 48.355C288.04 48.355 288.192 48.215 288.192 47.935C288.192 47.6317 288.04 47.48 287.737 47.48C287.457 47.48 287.317 47.6317 287.317 47.935C287.317 48.215 287.457 48.355 287.737 48.355ZM290.642 48.355C290.758 48.355 290.852 48.32 290.922 48.25C291.015 48.1567 291.062 48.0517 291.062 47.935C291.062 47.8183 291.015 47.7133 290.922 47.62C290.852 47.5267 290.758 47.48 290.642 47.48C290.338 47.48 290.187 47.6317 290.187 47.935C290.187 48.215 290.338 48.355 290.642 48.355ZM293.582 48.355C293.862 48.355 294.002 48.215 294.002 47.935C294.002 47.6317 293.862 47.48 293.582 47.48C293.278 47.48 293.127 47.6317 293.127 47.935C293.127 48.215 293.278 48.355 293.582 48.355ZM296.662 48.355C296.778 48.355 296.872 48.32 296.942 48.25C297.035 48.1567 297.082 48.0517 297.082 47.935C297.082 47.8183 297.035 47.7133 296.942 47.62C296.872 47.5267 296.778 47.48 296.662 47.48C296.358 47.48 296.207 47.6317 296.207 47.935C296.207 48.215 296.358 48.355 296.662 48.355ZM327.583 44.435C327.653 44.365 327.723 44.3417 327.793 44.365C327.863 44.3883 327.898 44.4467 327.898 44.54V45.24V50H320.723H319.113H317.503H310.363V44.26C310.363 43.07 310.585 41.95 311.028 40.9C311.495 39.85 312.113 38.94 312.883 38.17C313.653 37.4 314.563 36.7933 315.613 36.35C316.663 35.8833 317.783 35.65 318.973 35.65H319.113H320.723C321.377 35.65 321.937 35.4283 322.403 34.985C322.87 34.5183 323.103 33.9467 323.103 33.27C323.103 32.5933 322.87 32.0333 322.403 31.59C321.937 31.1233 321.377 30.89 320.723 30.89H319.113H317.503C317.177 30.89 316.862 30.96 316.558 31.1C316.325 31.2167 316.103 31.4617 315.893 31.835C315.683 32.185 315.707 32.5817 315.963 33.025C316.033 33.1883 315.987 33.27 315.823 33.27H315.123H310.363C310.363 32.29 310.55 31.3683 310.923 30.505C311.297 29.6183 311.798 28.8483 312.428 28.195C313.082 27.5417 313.84 27.0283 314.703 26.655C315.59 26.2817 316.523 26.095 317.503 26.095H319.113H320.723C321.703 26.095 322.625 26.2817 323.488 26.655C324.375 27.0283 325.145 27.5417 325.798 28.195C326.452 28.8483 326.965 29.6183 327.338 30.505C327.712 31.3683 327.898 32.29 327.898 33.27C327.898 34.25 327.712 35.1833 327.338 36.07C326.965 36.9333 326.452 37.6917 325.798 38.345C325.145 38.9983 324.375 39.5117 323.488 39.885C322.625 40.2583 321.703 40.445 320.723 40.445H319.113H318.973C318.437 40.445 317.935 40.55 317.468 40.76C317.002 40.9467 316.593 41.215 316.243 41.565C315.893 41.915 315.613 42.3233 315.403 42.79C315.217 43.2567 315.123 43.7467 315.123 44.26V45.24H317.503H319.113H320.723H324.678C326.195 45.24 327.163 44.9717 327.583 44.435ZM313.793 31.835C313.91 31.835 314.003 31.8 314.073 31.73C314.167 31.6367 314.213 31.5317 314.213 31.415C314.213 31.1117 314.073 30.96 313.793 30.96C313.49 30.96 313.338 31.1117 313.338 31.415C313.338 31.5317 313.385 31.6367 313.478 31.73C313.572 31.8 313.677 31.835 313.793 31.835ZM315.333 29.49C315.613 29.49 315.753 29.35 315.753 29.07C315.753 28.79 315.613 28.65 315.333 28.65C315.03 28.65 314.878 28.79 314.878 29.07C314.878 29.35 315.03 29.49 315.333 29.49ZM318.308 28.93C318.425 28.93 318.518 28.8833 318.588 28.79C318.682 28.6967 318.728 28.5917 318.728 28.475C318.728 28.3583 318.682 28.265 318.588 28.195C318.518 28.1017 318.425 28.055 318.308 28.055C318.005 28.055 317.853 28.195 317.853 28.475C317.853 28.7783 318.005 28.93 318.308 28.93ZM321.563 28.93C321.68 28.93 321.773 28.8833 321.843 28.79C321.937 28.6967 321.983 28.5917 321.983 28.475C321.983 28.3583 321.937 28.265 321.843 28.195C321.773 28.1017 321.68 28.055 321.563 28.055C321.26 28.055 321.108 28.195 321.108 28.475C321.108 28.7783 321.26 28.93 321.563 28.93ZM324.923 36.42C325.203 36.42 325.343 36.28 325.343 36C325.343 35.6967 325.203 35.545 324.923 35.545C324.643 35.545 324.503 35.6967 324.503 36C324.503 36.28 324.643 36.42 324.923 36.42ZM325.308 32.5C325.005 32.5 324.853 32.64 324.853 32.92C324.853 33.2233 325.005 33.375 325.308 33.375C325.588 33.375 325.728 33.2233 325.728 32.92C325.728 32.64 325.588 32.5 325.308 32.5ZM324.188 29.595C323.908 29.595 323.768 29.7467 323.768 30.05C323.768 30.1667 323.803 30.2717 323.873 30.365C323.967 30.435 324.072 30.47 324.188 30.47C324.305 30.47 324.41 30.435 324.503 30.365C324.597 30.2717 324.643 30.1667 324.643 30.05C324.643 29.7467 324.492 29.595 324.188 29.595ZM321.983 37.47C321.703 37.47 321.563 37.6217 321.563 37.925C321.563 38.205 321.703 38.345 321.983 38.345C322.263 38.345 322.403 38.205 322.403 37.925C322.403 37.6217 322.263 37.47 321.983 37.47ZM318.938 37.925C318.658 37.925 318.518 38.065 318.518 38.345C318.518 38.6483 318.658 38.8 318.938 38.8C319.242 38.8 319.393 38.6483 319.393 38.345C319.393 38.065 319.242 37.925 318.938 37.925ZM315.753 38.555C315.637 38.555 315.532 38.6017 315.438 38.695C315.345 38.765 315.298 38.8583 315.298 38.975C315.298 39.2783 315.45 39.43 315.753 39.43C316.033 39.43 316.173 39.2783 316.173 38.975C316.173 38.8583 316.127 38.765 316.033 38.695C315.963 38.6017 315.87 38.555 315.753 38.555ZM313.128 47.935C313.245 47.935 313.338 47.9 313.408 47.83C313.502 47.7367 313.548 47.6317 313.548 47.515C313.548 47.2117 313.408 47.06 313.128 47.06C312.825 47.06 312.673 47.2117 312.673 47.515C312.673 47.6317 312.72 47.7367 312.813 47.83C312.907 47.9 313.012 47.935 313.128 47.935ZM313.128 44.855C313.245 44.855 313.338 44.82 313.408 44.75C313.502 44.6567 313.548 44.5517 313.548 44.435C313.548 44.1317 313.408 43.98 313.128 43.98C312.825 43.98 312.673 44.1317 312.673 44.435C312.673 44.5517 312.72 44.6567 312.813 44.75C312.907 44.82 313.012 44.855 313.128 44.855ZM313.548 41.53C313.852 41.53 314.003 41.39 314.003 41.11C314.003 40.83 313.852 40.69 313.548 40.69C313.268 40.69 313.128 40.83 313.128 41.11C313.128 41.39 313.268 41.53 313.548 41.53ZM316.663 47.69C316.71 47.5733 316.722 47.4567 316.698 47.34C316.675 47.2233 316.605 47.1417 316.488 47.095C316.255 46.9317 316.057 46.9783 315.893 47.235C315.847 47.3517 315.835 47.4683 315.858 47.585C315.882 47.7017 315.952 47.7833 316.068 47.83C316.302 47.9933 316.5 47.9467 316.663 47.69ZM319.813 47.69C319.86 47.5733 319.872 47.4567 319.848 47.34C319.825 47.2233 319.767 47.1417 319.673 47.095C319.417 46.9317 319.218 46.9783 319.078 47.235C319.008 47.3517 318.985 47.4683 319.008 47.585C319.032 47.7017 319.102 47.7833 319.218 47.83C319.335 47.9 319.452 47.9233 319.568 47.9C319.685 47.8767 319.767 47.8067 319.813 47.69ZM322.718 47.585C322.765 47.4683 322.777 47.3517 322.753 47.235C322.73 47.1183 322.672 47.0367 322.578 46.99C322.322 46.8267 322.112 46.8733 321.948 47.13C321.902 47.2467 321.89 47.3633 321.913 47.48C321.937 47.5967 322.007 47.6783 322.123 47.725C322.24 47.7717 322.357 47.795 322.473 47.795C322.59 47.7717 322.672 47.7017 322.718 47.585ZM326.043 47.69C326.113 47.5733 326.125 47.4567 326.078 47.34C326.055 47.2233 325.985 47.1417 325.868 47.095C325.612 46.9317 325.425 46.9783 325.308 47.235C325.238 47.3517 325.215 47.4683 325.238 47.585C325.262 47.7017 325.332 47.7833 325.448 47.83C325.565 47.9 325.682 47.9233 325.798 47.9C325.915 47.8767 325.997 47.8067 326.043 47.69ZM339.804 40.41C339.804 38.4967 339.979 36.63 340.329 34.81C340.703 32.99 341.274 31.2517 342.044 29.595C342.814 27.9383 343.783 26.41 344.949 25.01H347.854C346.781 26.4567 345.871 28.02 345.124 29.7C344.401 31.38 343.853 33.1183 343.479 34.915C343.106 36.7117 342.919 38.5317 342.919 40.375C342.919 42.1717 343.106 43.9567 343.479 45.73C343.853 47.5033 344.401 49.2067 345.124 50.84C345.848 52.4967 346.746 54.06 347.819 55.53H344.949C343.783 54.1533 342.814 52.6483 342.044 51.015C341.274 49.405 340.703 47.7017 340.329 45.905C339.979 44.1083 339.804 42.2767 339.804 40.41ZM366.817 26.095C366.911 26.095 366.969 26.13 366.992 26.2C367.016 26.2467 366.981 26.305 366.887 26.375C366.374 26.8417 366.117 27.81 366.117 29.28V30.855V31.555C366.117 31.6483 366.082 31.7067 366.012 31.73C365.942 31.7533 365.884 31.73 365.837 31.66C365.371 31.1233 364.402 30.855 362.932 30.855H360.517V33.76V38.835V44.995V46.815C360.517 48.3083 360.774 49.2767 361.287 49.72C361.357 49.7667 361.381 49.825 361.357 49.895C361.357 49.965 361.299 50 361.182 50H355.022C354.929 50 354.871 49.965 354.847 49.895C354.824 49.825 354.859 49.7667 354.952 49.72C355.466 49.2533 355.722 48.285 355.722 46.815V30.855H353.307C351.791 30.855 350.822 31.1233 350.402 31.66C350.332 31.73 350.262 31.7533 350.192 31.73C350.146 31.7067 350.122 31.6483 350.122 31.555V30.855V29.28C350.122 27.81 349.854 26.8417 349.317 26.375C349.247 26.305 349.224 26.2467 349.247 26.2C349.271 26.13 349.329 26.095 349.422 26.095H350.122H354.882H358.907H362.092H366.117H366.817ZM352.012 28.65C352.316 28.65 352.467 28.4983 352.467 28.195C352.467 27.915 352.316 27.775 352.012 27.775C351.732 27.775 351.592 27.915 351.592 28.195C351.592 28.4983 351.732 28.65 352.012 28.65ZM355.092 28.65C355.372 28.65 355.512 28.4983 355.512 28.195C355.512 27.915 355.372 27.775 355.092 27.775C354.789 27.775 354.637 27.915 354.637 28.195C354.637 28.4983 354.789 28.65 355.092 28.65ZM358.137 48.145C358.254 48.145 358.359 48.11 358.452 48.04C358.546 47.9467 358.592 47.8417 358.592 47.725C358.592 47.4217 358.441 47.27 358.137 47.27C357.857 47.27 357.717 47.4217 357.717 47.725C357.717 47.8417 357.752 47.9467 357.822 48.04C357.916 48.11 358.021 48.145 358.137 48.145ZM358.137 44.82C358.254 44.82 358.359 44.785 358.452 44.715C358.546 44.6217 358.592 44.5167 358.592 44.4C358.592 44.0967 358.441 43.945 358.137 43.945C357.857 43.945 357.717 44.0967 357.717 44.4C357.717 44.5167 357.752 44.6217 357.822 44.715C357.916 44.785 358.021 44.82 358.137 44.82ZM358.137 41.6C358.441 41.6 358.592 41.46 358.592 41.18C358.592 40.9 358.441 40.76 358.137 40.76C357.857 40.76 357.717 40.9 357.717 41.18C357.717 41.46 357.857 41.6 358.137 41.6ZM358.137 38.38C358.254 38.38 358.359 38.345 358.452 38.275C358.546 38.1817 358.592 38.0767 358.592 37.96C358.592 37.6567 358.441 37.505 358.137 37.505C357.857 37.505 357.717 37.6567 357.717 37.96C357.717 38.0767 357.752 38.1817 357.822 38.275C357.916 38.345 358.021 38.38 358.137 38.38ZM358.172 35.09C358.452 35.09 358.592 34.95 358.592 34.67C358.592 34.3667 358.452 34.215 358.172 34.215C357.869 34.215 357.717 34.3667 357.717 34.67C357.717 34.95 357.869 35.09 358.172 35.09ZM357.717 31.45C357.717 31.73 357.857 31.87 358.137 31.87C358.441 31.87 358.592 31.73 358.592 31.45C358.592 31.1467 358.441 30.995 358.137 30.995C357.857 30.995 357.717 31.1467 357.717 31.45ZM358.172 28.65C358.452 28.65 358.592 28.4983 358.592 28.195C358.592 27.915 358.452 27.775 358.172 27.775C357.869 27.775 357.717 27.915 357.717 28.195C357.717 28.4983 357.869 28.65 358.172 28.65ZM361.217 28.65C361.497 28.65 361.637 28.4983 361.637 28.195C361.637 27.915 361.497 27.775 361.217 27.775C360.914 27.775 360.762 27.915 360.762 28.195C360.762 28.4983 360.914 28.65 361.217 28.65ZM364.297 28.65C364.577 28.65 364.717 28.4983 364.717 28.195C364.717 27.915 364.577 27.775 364.297 27.775C363.994 27.775 363.842 27.915 363.842 28.195C363.842 28.4983 363.994 28.65 364.297 28.65ZM385.552 49.72C385.622 49.79 385.645 49.86 385.622 49.93C385.599 49.9767 385.54 50 385.447 50H379.287C379.194 50 379.135 49.9767 379.112 49.93C379.089 49.86 379.112 49.79 379.182 49.72C379.719 49.3 379.987 48.3317 379.987 46.815V43.63H373.582V46.815C373.582 48.3317 373.85 49.3 374.387 49.72C374.574 49.9067 374.539 50 374.282 50H368.122C368.029 50 367.97 49.9767 367.947 49.93C367.924 49.86 367.947 49.79 368.017 49.72C368.554 49.3 368.822 48.3317 368.822 46.815V42.055V39.22C368.822 38.2167 368.915 37.26 369.102 36.35C369.289 35.4167 369.58 34.4833 369.977 33.55L371.797 29.315C372.1 27.8217 372.03 26.8417 371.587 26.375C371.517 26.305 371.494 26.2467 371.517 26.2C371.54 26.13 371.599 26.095 371.692 26.095H381.877C382.11 26.095 382.157 26.1883 382.017 26.375C381.574 26.795 381.492 27.775 381.772 29.315L383.592 33.55C383.989 34.4833 384.28 35.4167 384.467 36.35C384.654 37.26 384.747 38.2167 384.747 39.22V42.055V46.815C384.747 48.3317 385.015 49.3 385.552 49.72ZM381.947 37.155C381.667 37.155 381.527 37.3067 381.527 37.61C381.527 37.7267 381.562 37.8317 381.632 37.925C381.725 37.995 381.83 38.03 381.947 38.03C382.064 38.03 382.169 37.995 382.262 37.925C382.355 37.8317 382.402 37.7267 382.402 37.61C382.402 37.3067 382.25 37.155 381.947 37.155ZM379.007 27.635C378.727 27.635 378.587 27.775 378.587 28.055C378.587 28.3583 378.727 28.51 379.007 28.51C379.287 28.51 379.427 28.3583 379.427 28.055C379.427 27.775 379.287 27.635 379.007 27.635ZM374.562 27.95C374.259 27.95 374.107 28.09 374.107 28.37C374.107 28.6733 374.259 28.825 374.562 28.825C374.865 28.825 375.017 28.6733 375.017 28.37C375.017 28.09 374.865 27.95 374.562 27.95ZM371.202 48.11C371.505 48.11 371.657 47.9583 371.657 47.655C371.657 47.5383 371.61 47.445 371.517 47.375C371.424 47.2817 371.319 47.235 371.202 47.235C371.085 47.235 370.98 47.2817 370.887 47.375C370.794 47.445 370.747 47.5383 370.747 47.655C370.747 47.9583 370.899 48.11 371.202 48.11ZM371.307 44.785C371.61 44.785 371.762 44.6333 371.762 44.33C371.762 44.2133 371.715 44.12 371.622 44.05C371.552 43.9567 371.447 43.91 371.307 43.91C371.19 43.91 371.085 43.9567 370.992 44.05C370.922 44.12 370.887 44.2133 370.887 44.33C370.887 44.6333 371.027 44.785 371.307 44.785ZM371.307 41.46C371.61 41.46 371.762 41.32 371.762 41.04C371.762 40.7367 371.61 40.585 371.307 40.585C371.027 40.585 370.887 40.7367 370.887 41.04C370.887 41.32 371.027 41.46 371.307 41.46ZM371.517 38.24C371.634 38.24 371.739 38.205 371.832 38.135C371.925 38.0417 371.972 37.9367 371.972 37.82C371.972 37.5167 371.82 37.365 371.517 37.365C371.237 37.365 371.097 37.5167 371.097 37.82C371.097 37.9367 371.132 38.0417 371.202 38.135C371.295 38.205 371.4 38.24 371.517 38.24ZM371.972 35.055C372.252 35.055 372.392 34.915 372.392 34.635C372.392 34.355 372.252 34.215 371.972 34.215C371.669 34.215 371.517 34.355 371.517 34.635C371.517 34.915 371.669 35.055 371.972 35.055ZM373.407 31.835C373.687 31.835 373.827 31.695 373.827 31.415C373.827 31.1117 373.687 30.96 373.407 30.96C373.104 30.96 372.952 31.1117 372.952 31.415C372.952 31.695 373.104 31.835 373.407 31.835ZM374.877 41.46C375.18 41.46 375.332 41.32 375.332 41.04C375.332 40.7367 375.18 40.585 374.877 40.585C374.574 40.585 374.422 40.7367 374.422 41.04C374.422 41.32 374.574 41.46 374.877 41.46ZM378.482 41.495C378.599 41.495 378.692 41.46 378.762 41.39C378.855 41.2967 378.902 41.1917 378.902 41.075C378.902 40.7717 378.762 40.62 378.482 40.62C378.179 40.62 378.027 40.7717 378.027 41.075C378.027 41.1917 378.062 41.2967 378.132 41.39C378.225 41.46 378.342 41.495 378.482 41.495ZM379.987 38.87C379.917 37.68 379.66 36.5367 379.217 35.44L376.802 29.805L374.387 35.44C373.897 36.5367 373.64 37.68 373.617 38.87H379.987ZM380.057 31.555C380.337 31.555 380.477 31.4033 380.477 31.1C380.477 30.7967 380.337 30.645 380.057 30.645C379.754 30.645 379.602 30.7967 379.602 31.1C379.602 31.4033 379.754 31.555 380.057 31.555ZM380.792 34.32C380.792 34.6233 380.944 34.775 381.247 34.775C381.527 34.775 381.667 34.6233 381.667 34.32C381.667 34.04 381.527 33.9 381.247 33.9C380.944 33.9 380.792 34.04 380.792 34.32ZM381.527 40.935C381.527 41.2383 381.667 41.39 381.947 41.39C382.25 41.39 382.402 41.2383 382.402 40.935C382.402 40.655 382.25 40.515 381.947 40.515C381.667 40.515 381.527 40.655 381.527 40.935ZM382.192 48.005C382.309 48.005 382.402 47.97 382.472 47.9C382.565 47.8067 382.612 47.7017 382.612 47.585C382.612 47.4683 382.565 47.3633 382.472 47.27C382.402 47.1767 382.309 47.13 382.192 47.13C381.889 47.13 381.737 47.2817 381.737 47.585C381.737 47.865 381.889 48.005 382.192 48.005ZM382.192 44.575C382.309 44.575 382.402 44.5283 382.472 44.435C382.565 44.3417 382.612 44.2367 382.612 44.12C382.612 44.0033 382.565 43.91 382.472 43.84C382.402 43.7467 382.309 43.7 382.192 43.7C382.075 43.7 381.97 43.7467 381.877 43.84C381.784 43.91 381.737 44.0033 381.737 44.12C381.737 44.4233 381.889 44.575 382.192 44.575ZM402.599 46.815C402.599 48.285 402.868 49.2533 403.404 49.72C403.474 49.7667 403.498 49.825 403.474 49.895C403.451 49.965 403.393 50 403.299 50H397.139C397.023 50 396.953 49.965 396.929 49.895C396.929 49.825 396.964 49.7667 397.034 49.72C397.571 49.2533 397.839 48.285 397.839 46.815V45.205V44.435C397.839 43.7817 397.711 43.1633 397.454 42.58C397.198 41.9967 396.848 41.4833 396.404 41.04C395.984 40.5967 395.483 40.2583 394.899 40.025C394.316 39.7683 393.698 39.64 393.044 39.64H392.239V42.02V45.205V46.815C392.239 48.285 392.496 49.2533 393.009 49.72C393.103 49.7667 393.138 49.825 393.114 49.895C393.091 49.965 393.033 50 392.939 50H392.239H390.664H386.779C386.663 50 386.593 49.965 386.569 49.895C386.569 49.825 386.604 49.7667 386.674 49.72C387.188 49.2767 387.444 48.3083 387.444 46.815V29.28C387.444 27.7633 387.188 26.795 386.674 26.375C386.488 26.1883 386.523 26.095 386.779 26.095H392.939C393.033 26.095 393.091 26.13 393.114 26.2C393.138 26.2467 393.103 26.305 393.009 26.375C392.496 26.8183 392.239 27.7867 392.239 29.28V31.1V34.845H393.044C393.698 34.845 394.316 34.7283 394.899 34.495C395.483 34.2383 395.984 33.9 396.404 33.48C396.848 33.0367 397.198 32.5233 397.454 31.94C397.711 31.3567 397.839 30.7383 397.839 30.085V29.28C397.839 27.7633 397.571 26.795 397.034 26.375C396.848 26.1883 396.883 26.095 397.139 26.095H403.299C403.393 26.095 403.451 26.13 403.474 26.2C403.498 26.2467 403.474 26.305 403.404 26.375C402.868 26.795 402.599 27.7633 402.599 29.28V30.085C402.599 31.4617 402.319 32.78 401.759 34.04C401.199 35.2767 400.394 36.3383 399.344 37.225C400.394 38.1583 401.199 39.2433 401.759 40.48C402.319 41.7167 402.599 43.035 402.599 44.435V45.205V46.815ZM400.359 27.81C400.079 27.81 399.939 27.95 399.939 28.23C399.939 28.5333 400.079 28.685 400.359 28.685C400.663 28.685 400.814 28.5333 400.814 28.23C400.814 27.95 400.663 27.81 400.359 27.81ZM400.009 30.96C399.706 30.96 399.554 31.1117 399.554 31.415C399.554 31.695 399.706 31.835 400.009 31.835C400.289 31.835 400.429 31.695 400.429 31.415C400.429 31.1117 400.289 30.96 400.009 30.96ZM389.859 48.285C390.139 48.285 390.279 48.145 390.279 47.865C390.279 47.5617 390.139 47.41 389.859 47.41C389.556 47.41 389.404 47.5617 389.404 47.865C389.404 48.145 389.556 48.285 389.859 48.285ZM389.859 44.96C390.139 44.96 390.279 44.82 390.279 44.54C390.279 44.2367 390.139 44.085 389.859 44.085C389.556 44.085 389.404 44.2367 389.404 44.54C389.404 44.82 389.556 44.96 389.859 44.96ZM389.859 41.775C389.976 41.775 390.069 41.74 390.139 41.67C390.233 41.5767 390.279 41.4717 390.279 41.355C390.279 41.0517 390.139 40.9 389.859 40.9C389.556 40.9 389.404 41.0517 389.404 41.355C389.404 41.4717 389.451 41.5767 389.544 41.67C389.638 41.74 389.743 41.775 389.859 41.775ZM389.859 38.52C390.139 38.52 390.279 38.38 390.279 38.1C390.279 37.7967 390.139 37.645 389.859 37.645C389.556 37.645 389.404 37.7967 389.404 38.1C389.404 38.38 389.556 38.52 389.859 38.52ZM389.859 35.265C390.163 35.265 390.314 35.1133 390.314 34.81C390.314 34.53 390.163 34.39 389.859 34.39C389.579 34.39 389.439 34.53 389.439 34.81C389.439 35.1133 389.579 35.265 389.859 35.265ZM389.404 31.59C389.404 31.8933 389.556 32.045 389.859 32.045C390.139 32.045 390.279 31.8933 390.279 31.59C390.279 31.31 390.139 31.17 389.859 31.17C389.556 31.17 389.404 31.31 389.404 31.59ZM389.859 28.79C390.163 28.79 390.314 28.6383 390.314 28.335C390.314 28.2183 390.268 28.125 390.174 28.055C390.081 27.9617 389.976 27.915 389.859 27.915C389.743 27.915 389.638 27.9617 389.544 28.055C389.474 28.125 389.439 28.2183 389.439 28.335C389.439 28.6383 389.579 28.79 389.859 28.79ZM392.694 37.645C392.998 37.645 393.149 37.4933 393.149 37.19C393.149 37.0733 393.103 36.98 393.009 36.91C392.939 36.8167 392.834 36.77 392.694 36.77C392.578 36.77 392.473 36.8167 392.379 36.91C392.309 36.98 392.274 37.0733 392.274 37.19C392.274 37.4933 392.414 37.645 392.694 37.645ZM396.124 37.54C396.428 37.54 396.579 37.3883 396.579 37.085C396.579 36.805 396.428 36.665 396.124 36.665C395.844 36.665 395.704 36.805 395.704 37.085C395.704 37.3883 395.844 37.54 396.124 37.54ZM398.154 39.745C398.271 39.745 398.364 39.71 398.434 39.64C398.528 39.5467 398.574 39.4417 398.574 39.325C398.574 39.0217 398.434 38.87 398.154 38.87C397.851 38.87 397.699 39.0217 397.699 39.325C397.699 39.4417 397.746 39.5467 397.839 39.64C397.933 39.71 398.038 39.745 398.154 39.745ZM398.574 35.02C398.878 35.02 399.029 34.88 399.029 34.6C399.029 34.2967 398.878 34.145 398.574 34.145C398.294 34.145 398.154 34.2967 398.154 34.6C398.154 34.88 398.294 35.02 398.574 35.02ZM399.239 42.02C399.239 42.3 399.391 42.44 399.694 42.44C399.974 42.44 400.114 42.3 400.114 42.02C400.114 41.7167 399.974 41.565 399.694 41.565C399.391 41.565 399.239 41.7167 399.239 42.02ZM400.149 48.74C400.266 48.74 400.359 48.705 400.429 48.635C400.523 48.5417 400.569 48.425 400.569 48.285C400.569 48.1683 400.523 48.075 400.429 48.005C400.359 47.9117 400.266 47.865 400.149 47.865C399.846 47.865 399.694 48.005 399.694 48.285C399.694 48.5883 399.846 48.74 400.149 48.74ZM400.464 45.66C400.744 45.66 400.884 45.5083 400.884 45.205C400.884 44.925 400.744 44.785 400.464 44.785C400.184 44.785 400.044 44.925 400.044 45.205C400.044 45.5083 400.184 45.66 400.464 45.66ZM421.324 46.815C421.324 48.3317 421.581 49.3117 422.094 49.755C422.164 49.8017 422.188 49.86 422.164 49.93C422.164 49.9767 422.106 50 421.989 50H404.699C404.583 50 404.513 49.9767 404.489 49.93C404.489 49.86 404.524 49.8017 404.594 49.755C405.108 49.3117 405.364 48.3317 405.364 46.815V45.24V29.28C405.364 27.1567 404.839 26.095 403.789 26.095H421.989C422.106 26.095 422.164 26.13 422.164 26.2C422.188 26.27 422.164 26.3283 422.094 26.375C421.581 26.8183 421.324 27.7867 421.324 29.28V30.89V31.59C421.324 31.6833 421.289 31.7417 421.219 31.765C421.149 31.7883 421.091 31.7533 421.044 31.66C420.601 31.1467 419.633 30.89 418.139 30.89H410.159V32.465V35.65H414.954C416.448 35.65 417.416 35.3933 417.859 34.88C417.906 34.81 417.964 34.7867 418.034 34.81C418.104 34.8333 418.139 34.8917 418.139 34.985V35.65V37.26V40.445V41.145C418.139 41.2383 418.104 41.2967 418.034 41.32C417.964 41.3433 417.906 41.32 417.859 41.25C417.393 40.7133 416.424 40.445 414.954 40.445H410.159V42.02V45.24H418.139C419.609 45.24 420.578 44.9717 421.044 44.435C421.091 44.365 421.149 44.3417 421.219 44.365C421.289 44.3883 421.324 44.4467 421.324 44.54V45.24V46.815ZM416.389 37.715C416.109 37.715 415.969 37.8667 415.969 38.17C415.969 38.45 416.109 38.59 416.389 38.59C416.693 38.59 416.844 38.45 416.844 38.17C416.844 37.8667 416.693 37.715 416.389 37.715ZM419.434 27.985C419.318 27.985 419.213 28.0317 419.119 28.125C419.049 28.195 419.014 28.2883 419.014 28.405C419.014 28.5217 419.049 28.6267 419.119 28.72C419.213 28.8133 419.318 28.86 419.434 28.86C419.738 28.86 419.889 28.7083 419.889 28.405C419.889 28.125 419.738 27.985 419.434 27.985ZM416.599 27.985C416.296 27.985 416.144 28.125 416.144 28.405C416.144 28.7083 416.296 28.86 416.599 28.86C416.716 28.86 416.809 28.8133 416.879 28.72C416.973 28.6267 417.019 28.5217 417.019 28.405C417.019 28.2883 416.973 28.195 416.879 28.125C416.809 28.0317 416.716 27.985 416.599 27.985ZM413.659 27.985C413.356 27.985 413.204 28.125 413.204 28.405C413.204 28.7083 413.356 28.86 413.659 28.86C413.776 28.86 413.869 28.8133 413.939 28.72C414.033 28.6267 414.079 28.5217 414.079 28.405C414.079 28.2883 414.033 28.195 413.939 28.125C413.869 28.0317 413.776 27.985 413.659 27.985ZM410.649 27.985C410.369 27.985 410.229 28.125 410.229 28.405C410.229 28.7083 410.369 28.86 410.649 28.86C410.929 28.86 411.069 28.7083 411.069 28.405C411.069 28.125 410.929 27.985 410.649 27.985ZM413.449 37.715C413.169 37.715 413.029 37.8667 413.029 38.17C413.029 38.45 413.169 38.59 413.449 38.59C413.753 38.59 413.904 38.45 413.904 38.17C413.904 37.8667 413.753 37.715 413.449 37.715ZM410.579 37.715C410.276 37.715 410.124 37.8667 410.124 38.17C410.124 38.45 410.276 38.59 410.579 38.59C410.696 38.59 410.789 38.555 410.859 38.485C410.953 38.3917 410.999 38.2867 410.999 38.17C410.999 38.0533 410.953 37.9483 410.859 37.855C410.789 37.7617 410.696 37.715 410.579 37.715ZM407.604 48.355C407.908 48.355 408.059 48.215 408.059 47.935C408.059 47.6317 407.908 47.48 407.604 47.48C407.324 47.48 407.184 47.6317 407.184 47.935C407.184 48.215 407.324 48.355 407.604 48.355ZM407.604 45.03C407.908 45.03 408.059 44.89 408.059 44.61C408.059 44.3067 407.908 44.155 407.604 44.155C407.324 44.155 407.184 44.3067 407.184 44.61C407.184 44.89 407.324 45.03 407.604 45.03ZM407.604 41.845C407.908 41.845 408.059 41.6933 408.059 41.39C408.059 41.11 407.908 40.97 407.604 40.97C407.324 40.97 407.184 41.11 407.184 41.39C407.184 41.6933 407.324 41.845 407.604 41.845ZM407.604 38.59C407.908 38.59 408.059 38.45 408.059 38.17C408.059 37.8667 407.908 37.715 407.604 37.715C407.324 37.715 407.184 37.8667 407.184 38.17C407.184 38.45 407.324 38.59 407.604 38.59ZM407.639 35.335C407.943 35.335 408.094 35.1833 408.094 34.88C408.094 34.6 407.943 34.46 407.639 34.46C407.336 34.46 407.184 34.6 407.184 34.88C407.184 35.1833 407.336 35.335 407.639 35.335ZM407.184 31.66C407.184 31.94 407.324 32.08 407.604 32.08C407.908 32.08 408.059 31.94 408.059 31.66C408.059 31.3567 407.908 31.205 407.604 31.205C407.324 31.205 407.184 31.3567 407.184 31.66ZM407.639 28.86C407.943 28.86 408.094 28.7083 408.094 28.405C408.094 28.125 407.943 27.985 407.639 27.985C407.336 27.985 407.184 28.125 407.184 28.405C407.184 28.7083 407.336 28.86 407.639 28.86ZM410.544 48.355C410.848 48.355 410.999 48.215 410.999 47.935C410.999 47.6317 410.848 47.48 410.544 47.48C410.264 47.48 410.124 47.6317 410.124 47.935C410.124 48.215 410.264 48.355 410.544 48.355ZM413.449 48.355C413.566 48.355 413.659 48.32 413.729 48.25C413.823 48.1567 413.869 48.0517 413.869 47.935C413.869 47.8183 413.823 47.7133 413.729 47.62C413.659 47.5267 413.566 47.48 413.449 47.48C413.146 47.48 412.994 47.6317 412.994 47.935C412.994 48.215 413.146 48.355 413.449 48.355ZM416.389 48.355C416.669 48.355 416.809 48.215 416.809 47.935C416.809 47.6317 416.669 47.48 416.389 47.48C416.086 47.48 415.934 47.6317 415.934 47.935C415.934 48.215 416.086 48.355 416.389 48.355ZM419.469 48.355C419.586 48.355 419.679 48.32 419.749 48.25C419.843 48.1567 419.889 48.0517 419.889 47.935C419.889 47.8183 419.843 47.7133 419.749 47.62C419.679 47.5267 419.586 47.48 419.469 47.48C419.166 47.48 419.014 47.6317 419.014 47.935C419.014 48.215 419.166 48.355 419.469 48.355ZM442.691 26.305C443.788 26.305 444.814 26.515 445.771 26.935C446.751 27.355 447.603 27.9267 448.326 28.65C449.049 29.3733 449.621 30.225 450.041 31.205C450.461 32.1617 450.671 33.1883 450.671 34.285V42.265C450.671 43.3617 450.461 44.4 450.041 45.38C449.621 46.3367 449.049 47.1767 448.326 47.9C447.603 48.6233 446.751 49.195 445.771 49.615C444.814 50.0117 443.788 50.21 442.691 50.21H441.116C440.019 50.21 438.981 50.0117 438.001 49.615C437.044 49.195 436.204 48.6233 435.481 47.9C434.758 47.1767 434.186 46.3367 433.766 45.38C433.346 44.4 433.136 43.3617 433.136 42.265V34.285C433.136 33.1883 433.346 32.1617 433.766 31.205C434.186 30.225 434.758 29.3733 435.481 28.65C436.204 27.9267 437.044 27.355 438.001 26.935C438.981 26.515 440.019 26.305 441.116 26.305H442.691ZM448.641 35.825C448.641 35.7083 448.594 35.615 448.501 35.545C448.408 35.4517 448.303 35.405 448.186 35.405C448.069 35.405 447.964 35.4517 447.871 35.545C447.801 35.615 447.766 35.7083 447.766 35.825C447.766 35.9417 447.801 36.0467 447.871 36.14C447.964 36.2333 448.069 36.28 448.186 36.28C448.489 36.28 448.641 36.1283 448.641 35.825ZM448.641 38.765C448.641 38.485 448.489 38.345 448.186 38.345C447.906 38.345 447.766 38.485 447.766 38.765C447.766 39.0683 447.906 39.22 448.186 39.22C448.489 39.22 448.641 39.0683 448.641 38.765ZM447.766 32.185C447.649 32.185 447.544 32.2317 447.451 32.325C447.381 32.395 447.346 32.4883 447.346 32.605C447.346 32.7217 447.381 32.8267 447.451 32.92C447.544 33.0133 447.649 33.06 447.766 33.06C448.069 33.06 448.221 32.9083 448.221 32.605C448.221 32.325 448.069 32.185 447.766 32.185ZM443.566 28.37C443.449 28.37 443.344 28.4167 443.251 28.51C443.181 28.6033 443.146 28.7083 443.146 28.825C443.146 28.9417 443.181 29.0467 443.251 29.14C443.344 29.21 443.449 29.245 443.566 29.245C443.683 29.245 443.788 29.21 443.881 29.14C443.974 29.0467 444.021 28.9417 444.021 28.825C444.021 28.5217 443.869 28.37 443.566 28.37ZM440.031 28.16C439.751 28.16 439.611 28.3117 439.611 28.615C439.611 28.895 439.751 29.035 440.031 29.035C440.334 29.035 440.486 28.895 440.486 28.615C440.486 28.3117 440.334 28.16 440.031 28.16ZM435.691 43.245C435.994 43.245 436.146 43.105 436.146 42.825C436.146 42.5217 435.994 42.37 435.691 42.37C435.574 42.37 435.469 42.4167 435.376 42.51C435.306 42.6033 435.271 42.7083 435.271 42.825C435.271 42.9417 435.306 43.0467 435.376 43.14C435.469 43.21 435.574 43.245 435.691 43.245ZM435.166 39.535C435.166 39.815 435.306 39.955 435.586 39.955C435.889 39.955 436.041 39.815 436.041 39.535C436.041 39.2317 435.889 39.08 435.586 39.08C435.306 39.08 435.166 39.2317 435.166 39.535ZM435.691 36.945C435.994 36.945 436.146 36.7933 436.146 36.49C436.146 36.21 435.994 36.07 435.691 36.07C435.574 36.07 435.469 36.1167 435.376 36.21C435.306 36.28 435.271 36.3733 435.271 36.49C435.271 36.6067 435.306 36.7117 435.376 36.805C435.469 36.8983 435.574 36.945 435.691 36.945ZM435.936 33.55C436.216 33.55 436.356 33.3983 436.356 33.095C436.356 32.815 436.216 32.675 435.936 32.675C435.633 32.675 435.481 32.815 435.481 33.095C435.481 33.3983 435.633 33.55 435.936 33.55ZM436.811 46.15C437.091 46.15 437.231 46.01 437.231 45.73C437.231 45.4267 437.091 45.275 436.811 45.275C436.531 45.275 436.391 45.4267 436.391 45.73C436.391 46.01 436.531 46.15 436.811 46.15ZM437.231 30.47C437.371 30.47 437.476 30.435 437.546 30.365C437.639 30.2717 437.686 30.1667 437.686 30.05C437.686 29.7467 437.534 29.595 437.231 29.595C437.114 29.595 437.009 29.6417 436.916 29.735C436.846 29.805 436.811 29.91 436.811 30.05C436.811 30.1667 436.846 30.2717 436.916 30.365C437.009 30.435 437.114 30.47 437.231 30.47ZM439.611 47.9C439.891 47.9 440.031 47.76 440.031 47.48C440.031 47.2 439.891 47.06 439.611 47.06C439.308 47.06 439.156 47.2 439.156 47.48C439.156 47.76 439.308 47.9 439.611 47.9ZM442.691 48.215C442.971 48.215 443.111 48.075 443.111 47.795C443.111 47.515 442.971 47.375 442.691 47.375C442.388 47.375 442.236 47.515 442.236 47.795C442.236 48.075 442.388 48.215 442.691 48.215ZM442.691 45.45C443.578 45.45 444.324 45.1467 444.931 44.54C445.561 43.91 445.876 43.1517 445.876 42.265V39.08V37.47V34.285C445.876 33.3983 445.561 32.6517 444.931 32.045C444.324 31.415 443.578 31.1 442.691 31.1H441.116C440.673 31.1 440.253 31.1817 439.856 31.345C439.483 31.5083 439.144 31.7417 438.841 32.045C438.561 32.325 438.339 32.6633 438.176 33.06C438.013 33.4333 437.931 33.8417 437.931 34.285V37.47V39.08V42.265C437.931 42.7083 438.013 43.1283 438.176 43.525C438.339 43.8983 438.561 44.2367 438.841 44.54C439.144 44.82 439.483 45.0417 439.856 45.205C440.253 45.3683 440.673 45.45 441.116 45.45H442.691ZM445.526 47.48C445.643 47.48 445.748 47.445 445.841 47.375C445.934 47.2817 445.981 47.1767 445.981 47.06C445.981 46.7567 445.829 46.605 445.526 46.605C445.409 46.605 445.304 46.6517 445.211 46.745C445.141 46.815 445.106 46.92 445.106 47.06C445.106 47.1767 445.141 47.2817 445.211 47.375C445.304 47.445 445.409 47.48 445.526 47.48ZM446.436 30.33C446.739 30.33 446.891 30.1783 446.891 29.875C446.891 29.595 446.739 29.455 446.436 29.455C446.156 29.455 446.016 29.595 446.016 29.875C446.016 30.1783 446.156 30.33 446.436 30.33ZM447.521 44.89C447.801 44.89 447.941 44.7383 447.941 44.435C447.941 44.155 447.801 44.015 447.521 44.015C447.241 44.015 447.101 44.155 447.101 44.435C447.101 44.7383 447.241 44.89 447.521 44.89ZM448.291 42.125C448.594 42.125 448.746 41.985 448.746 41.705C448.746 41.425 448.594 41.285 448.291 41.285C448.011 41.285 447.871 41.425 447.871 41.705C447.871 41.985 448.011 42.125 448.291 42.125ZM469.492 26.095C469.608 26.095 469.667 26.13 469.667 26.2C469.69 26.27 469.667 26.3283 469.597 26.375C469.083 26.8183 468.827 27.7867 468.827 29.28V30.89V31.555C468.827 31.6717 468.792 31.7417 468.722 31.765C468.652 31.765 468.593 31.73 468.547 31.66C468.08 31.1467 467.112 30.89 465.642 30.89H457.662V34.075V35.65H462.422C463.938 35.65 464.907 35.3933 465.327 34.88C465.397 34.81 465.467 34.7867 465.537 34.81C465.607 34.8333 465.642 34.8917 465.642 34.985V35.65V37.26V40.445V41.145C465.642 41.2383 465.607 41.2967 465.537 41.32C465.467 41.3433 465.397 41.32 465.327 41.25C464.907 40.7133 463.938 40.445 462.422 40.445H457.662V42.055V45.24V46.815C457.662 48.3083 457.918 49.2883 458.432 49.755C458.502 49.8017 458.525 49.86 458.502 49.93C458.502 49.9767 458.443 50 458.327 50H452.202C452.085 50 452.015 49.9767 451.992 49.93C451.968 49.86 452.003 49.8017 452.097 49.755C452.61 49.3117 452.867 48.3317 452.867 46.815V45.24V29.28C452.867 27.7867 452.61 26.8183 452.097 26.375C452.003 26.3283 451.968 26.27 451.992 26.2C452.015 26.13 452.085 26.095 452.202 26.095H469.492ZM463.857 37.68C463.577 37.68 463.437 37.8317 463.437 38.135C463.437 38.415 463.577 38.555 463.857 38.555C464.16 38.555 464.312 38.415 464.312 38.135C464.312 37.8317 464.16 37.68 463.857 37.68ZM455.177 48.355C455.457 48.355 455.597 48.2033 455.597 47.9C455.597 47.62 455.457 47.48 455.177 47.48C454.897 47.48 454.757 47.62 454.757 47.9C454.757 48.2033 454.897 48.355 455.177 48.355ZM455.177 44.995C455.457 44.995 455.597 44.855 455.597 44.575C455.597 44.2717 455.457 44.12 455.177 44.12C454.897 44.12 454.757 44.2717 454.757 44.575C454.757 44.855 454.897 44.995 455.177 44.995ZM455.177 41.81C455.457 41.81 455.597 41.6583 455.597 41.355C455.597 41.2383 455.55 41.145 455.457 41.075C455.387 40.9817 455.293 40.935 455.177 40.935C455.06 40.935 454.955 40.9817 454.862 41.075C454.792 41.145 454.757 41.2383 454.757 41.355C454.757 41.6583 454.897 41.81 455.177 41.81ZM455.177 38.555C455.457 38.555 455.597 38.415 455.597 38.135C455.597 37.8317 455.457 37.68 455.177 37.68C454.897 37.68 454.757 37.8317 454.757 38.135C454.757 38.415 454.897 38.555 455.177 38.555ZM455.212 35.3C455.492 35.3 455.632 35.1483 455.632 34.845C455.632 34.565 455.492 34.425 455.212 34.425C454.932 34.425 454.792 34.565 454.792 34.845C454.792 35.1483 454.932 35.3 455.212 35.3ZM454.757 31.625C454.757 31.9283 454.897 32.08 455.177 32.08C455.457 32.08 455.597 31.9283 455.597 31.625C455.597 31.345 455.457 31.205 455.177 31.205C454.897 31.205 454.757 31.345 454.757 31.625ZM455.212 28.825C455.492 28.825 455.632 28.6733 455.632 28.37C455.632 28.09 455.492 27.95 455.212 27.95C454.932 27.95 454.792 28.09 454.792 28.37C454.792 28.6733 454.932 28.825 455.212 28.825ZM460.917 37.68C460.613 37.68 460.462 37.8317 460.462 38.135C460.462 38.415 460.613 38.555 460.917 38.555C461.22 38.555 461.372 38.415 461.372 38.135C461.372 37.8317 461.22 37.68 460.917 37.68ZM458.012 37.575C457.895 37.575 457.79 37.6217 457.697 37.715C457.627 37.8083 457.592 37.9133 457.592 38.03C457.592 38.1467 457.627 38.2517 457.697 38.345C457.79 38.415 457.895 38.45 458.012 38.45C458.128 38.45 458.233 38.415 458.327 38.345C458.42 38.2517 458.467 38.1467 458.467 38.03C458.467 37.7267 458.315 37.575 458.012 37.575ZM458.012 28.825C458.292 28.825 458.432 28.6733 458.432 28.37C458.432 28.09 458.292 27.95 458.012 27.95C457.708 27.95 457.557 28.09 457.557 28.37C457.557 28.6733 457.708 28.825 458.012 28.825ZM460.882 28.825C461.185 28.825 461.337 28.6733 461.337 28.37C461.337 28.09 461.185 27.95 460.882 27.95C460.765 27.95 460.66 27.9967 460.567 28.09C460.497 28.16 460.462 28.2533 460.462 28.37C460.462 28.51 460.497 28.6267 460.567 28.72C460.66 28.79 460.765 28.825 460.882 28.825ZM463.822 28.825C464.125 28.825 464.277 28.6733 464.277 28.37C464.277 28.09 464.125 27.95 463.822 27.95C463.542 27.95 463.402 28.09 463.402 28.37C463.402 28.6733 463.542 28.825 463.822 28.825ZM466.797 28.825C467.1 28.825 467.252 28.6733 467.252 28.37C467.252 28.09 467.1 27.95 466.797 27.95C466.517 27.95 466.377 28.09 466.377 28.37C466.377 28.6733 466.517 28.825 466.797 28.825ZM487.538 26.095C487.655 26.095 487.713 26.13 487.713 26.2C487.737 26.27 487.713 26.3283 487.643 26.375C487.13 26.8183 486.873 27.7867 486.873 29.28V30.89V31.555C486.873 31.6717 486.838 31.7417 486.768 31.765C486.698 31.765 486.64 31.73 486.593 31.66C486.127 31.1467 485.158 30.89 483.688 30.89H475.708V34.075V35.65H480.468C481.985 35.65 482.953 35.3933 483.373 34.88C483.443 34.81 483.513 34.7867 483.583 34.81C483.653 34.8333 483.688 34.8917 483.688 34.985V35.65V37.26V40.445V41.145C483.688 41.2383 483.653 41.2967 483.583 41.32C483.513 41.3433 483.443 41.32 483.373 41.25C482.953 40.7133 481.985 40.445 480.468 40.445H475.708V42.055V45.24V46.815C475.708 48.3083 475.965 49.2883 476.478 49.755C476.548 49.8017 476.572 49.86 476.548 49.93C476.548 49.9767 476.49 50 476.373 50H470.248C470.132 50 470.062 49.9767 470.038 49.93C470.015 49.86 470.05 49.8017 470.143 49.755C470.657 49.3117 470.913 48.3317 470.913 46.815V45.24V29.28C470.913 27.7867 470.657 26.8183 470.143 26.375C470.05 26.3283 470.015 26.27 470.038 26.2C470.062 26.13 470.132 26.095 470.248 26.095H487.538ZM481.903 37.68C481.623 37.68 481.483 37.8317 481.483 38.135C481.483 38.415 481.623 38.555 481.903 38.555C482.207 38.555 482.358 38.415 482.358 38.135C482.358 37.8317 482.207 37.68 481.903 37.68ZM473.223 48.355C473.503 48.355 473.643 48.2033 473.643 47.9C473.643 47.62 473.503 47.48 473.223 47.48C472.943 47.48 472.803 47.62 472.803 47.9C472.803 48.2033 472.943 48.355 473.223 48.355ZM473.223 44.995C473.503 44.995 473.643 44.855 473.643 44.575C473.643 44.2717 473.503 44.12 473.223 44.12C472.943 44.12 472.803 44.2717 472.803 44.575C472.803 44.855 472.943 44.995 473.223 44.995ZM473.223 41.81C473.503 41.81 473.643 41.6583 473.643 41.355C473.643 41.2383 473.597 41.145 473.503 41.075C473.433 40.9817 473.34 40.935 473.223 40.935C473.107 40.935 473.002 40.9817 472.908 41.075C472.838 41.145 472.803 41.2383 472.803 41.355C472.803 41.6583 472.943 41.81 473.223 41.81ZM473.223 38.555C473.503 38.555 473.643 38.415 473.643 38.135C473.643 37.8317 473.503 37.68 473.223 37.68C472.943 37.68 472.803 37.8317 472.803 38.135C472.803 38.415 472.943 38.555 473.223 38.555ZM473.258 35.3C473.538 35.3 473.678 35.1483 473.678 34.845C473.678 34.565 473.538 34.425 473.258 34.425C472.978 34.425 472.838 34.565 472.838 34.845C472.838 35.1483 472.978 35.3 473.258 35.3ZM472.803 31.625C472.803 31.9283 472.943 32.08 473.223 32.08C473.503 32.08 473.643 31.9283 473.643 31.625C473.643 31.345 473.503 31.205 473.223 31.205C472.943 31.205 472.803 31.345 472.803 31.625ZM473.258 28.825C473.538 28.825 473.678 28.6733 473.678 28.37C473.678 28.09 473.538 27.95 473.258 27.95C472.978 27.95 472.838 28.09 472.838 28.37C472.838 28.6733 472.978 28.825 473.258 28.825ZM478.963 37.68C478.66 37.68 478.508 37.8317 478.508 38.135C478.508 38.415 478.66 38.555 478.963 38.555C479.267 38.555 479.418 38.415 479.418 38.135C479.418 37.8317 479.267 37.68 478.963 37.68ZM476.058 37.575C475.942 37.575 475.837 37.6217 475.743 37.715C475.673 37.8083 475.638 37.9133 475.638 38.03C475.638 38.1467 475.673 38.2517 475.743 38.345C475.837 38.415 475.942 38.45 476.058 38.45C476.175 38.45 476.28 38.415 476.373 38.345C476.467 38.2517 476.513 38.1467 476.513 38.03C476.513 37.7267 476.362 37.575 476.058 37.575ZM476.058 28.825C476.338 28.825 476.478 28.6733 476.478 28.37C476.478 28.09 476.338 27.95 476.058 27.95C475.755 27.95 475.603 28.09 475.603 28.37C475.603 28.6733 475.755 28.825 476.058 28.825ZM478.928 28.825C479.232 28.825 479.383 28.6733 479.383 28.37C479.383 28.09 479.232 27.95 478.928 27.95C478.812 27.95 478.707 27.9967 478.613 28.09C478.543 28.16 478.508 28.2533 478.508 28.37C478.508 28.51 478.543 28.6267 478.613 28.72C478.707 28.79 478.812 28.825 478.928 28.825ZM481.868 28.825C482.172 28.825 482.323 28.6733 482.323 28.37C482.323 28.09 482.172 27.95 481.868 27.95C481.588 27.95 481.448 28.09 481.448 28.37C481.448 28.6733 481.588 28.825 481.868 28.825ZM484.843 28.825C485.147 28.825 485.298 28.6733 485.298 28.37C485.298 28.09 485.147 27.95 484.843 27.95C484.563 27.95 484.423 28.09 484.423 28.37C484.423 28.6733 484.563 28.825 484.843 28.825ZM496.835 40.41C496.835 42.2767 496.649 44.1083 496.275 45.905C495.925 47.7017 495.365 49.405 494.595 51.015C493.849 52.6483 492.88 54.1533 491.69 55.53H488.82C489.894 54.06 490.792 52.4967 491.515 50.84C492.239 49.2067 492.787 47.5033 493.16 45.73C493.534 43.9567 493.72 42.1717 493.72 40.375C493.72 38.5317 493.534 36.7117 493.16 34.915C492.787 33.1183 492.239 31.38 491.515 29.7C490.792 28.02 489.882 26.4567 488.785 25.01H491.69C492.88 26.41 493.849 27.9383 494.595 29.595C495.365 31.2517 495.925 32.99 496.275 34.81C496.649 36.63 496.835 38.4967 496.835 40.41Z" fill="white"/>
</svg>
