<svg width="550" height="463" viewBox="0 0 550 463" fill="none" xmlns="http://www.w3.org/2000/svg">
<rect x="1.5" y="1.5" width="547" height="460" rx="8.5" fill="black" stroke="#CCA354" stroke-width="3"/>
<circle cx="43.5" cy="53.5" r="7.5" fill="#CCA354"/>
<circle cx="43.5" cy="113.5" r="7.5" fill="#CCA354"/>
<circle cx="43.5" cy="173.5" r="7.5" fill="#CCA354"/>
<circle cx="43.5" cy="233.5" r="7.5" fill="#CCA354"/>
<circle cx="43.5" cy="293.5" r="7.5" fill="#CCA354"/>
<circle cx="43.5" cy="353.5" r="7.5" fill="#CCA354"/>
<circle cx="43.5" cy="413.5" r="7.5" fill="#CCA354"/>
<path d="M77.7274 61.714C75.9421 62.078 74.3387 62.26 72.9174 62.26C71.4961 62.26 70.3434 62.0693 69.4594 61.688C68.5927 61.2893 67.9167 60.6827 67.4314 59.868C66.9634 59.036 66.6341 58.0913 66.4434 57.034C66.2701 55.9593 66.1834 54.6247 66.1834 53.03C66.1834 51.4353 66.2701 50.1007 66.4434 49.026C66.6341 47.934 66.9634 46.972 67.4314 46.14C67.9167 45.308 68.5927 44.7013 69.4594 44.32C70.3261 43.9387 71.4527 43.748 72.8394 43.748C74.2261 43.748 75.8554 43.9387 77.7274 44.32L77.6494 46.01C75.8987 45.698 74.3387 45.542 72.9694 45.542C71.0627 45.542 69.7974 46.114 69.1734 47.258C68.5667 48.3847 68.2634 50.3173 68.2634 53.056C68.2634 54.4253 68.3154 55.526 68.4194 56.358C68.5407 57.19 68.7661 57.944 69.0954 58.62C69.4247 59.2787 69.9014 59.7553 70.5254 60.05C71.1667 60.3273 72.0941 60.466 73.3074 60.466C74.5381 60.466 75.9854 60.31 77.6494 59.998L77.7274 61.714ZM79.8381 55.474C79.8381 53.0993 80.2628 51.3833 81.1121 50.326C81.9614 49.2687 83.3914 48.74 85.4021 48.74C87.4301 48.74 88.8601 49.2687 89.6921 50.326C90.5414 51.3833 90.9661 53.0993 90.9661 55.474C90.9661 57.8487 90.5674 59.5733 89.7701 60.648C88.9728 61.7227 87.5168 62.26 85.4021 62.26C83.2874 62.26 81.8314 61.7227 81.0341 60.648C80.2368 59.5733 79.8381 57.8487 79.8381 55.474ZM81.8401 55.448C81.8401 57.3373 82.0654 58.6633 82.5161 59.426C82.9841 60.1887 83.9461 60.57 85.4021 60.57C86.8754 60.57 87.8374 60.1973 88.2881 59.452C88.7388 58.6893 88.9641 57.3547 88.9641 55.448C88.9641 53.5413 88.7128 52.2327 88.2101 51.522C87.7074 50.794 86.7714 50.43 85.4021 50.43C84.0501 50.43 83.1141 50.794 82.5941 51.522C82.0914 52.2327 81.8401 53.5413 81.8401 55.448ZM96.0964 62H94.1464V49H96.0704V49.91C97.4744 49.13 98.8177 48.74 100.1 48.74C101.834 48.74 102.995 49.208 103.584 50.144C104.191 51.08 104.494 52.744 104.494 55.136V62H102.57V55.188C102.57 53.3853 102.388 52.1547 102.024 51.496C101.678 50.82 100.924 50.482 99.7624 50.482C99.2077 50.482 98.6184 50.5687 97.9944 50.742C97.3877 50.898 96.9197 51.054 96.5904 51.21L96.0964 51.444V62ZM114.769 50.69H110.635V56.904C110.635 58.3947 110.739 59.374 110.947 59.842C111.172 60.31 111.692 60.544 112.507 60.544L114.821 60.388L114.951 62C113.79 62.1907 112.906 62.286 112.299 62.286C110.947 62.286 110.011 61.9567 109.491 61.298C108.971 60.6393 108.711 59.3827 108.711 57.528V50.69H106.865V49H108.711V45.022H110.635V49H114.769V50.69ZM117.15 62V49H119.074V50.768C120.582 49.728 122.168 49.0433 123.832 48.714V50.69C123.104 50.8287 122.342 51.0453 121.544 51.34C120.764 51.6347 120.166 51.8947 119.75 52.12L119.1 52.458V62H117.15ZM135.317 52.926V59.582C135.369 60.2233 135.871 60.6047 136.825 60.726L136.747 62.26C135.377 62.26 134.346 61.9133 133.653 61.22C132.093 61.9133 130.533 62.26 128.973 62.26C127.777 62.26 126.867 61.922 126.243 61.246C125.619 60.57 125.307 59.5993 125.307 58.334C125.307 57.0687 125.627 56.1413 126.269 55.552C126.91 54.9453 127.915 54.5727 129.285 54.434L133.367 54.044V52.926C133.367 52.042 133.176 51.4093 132.795 51.028C132.413 50.6467 131.893 50.456 131.235 50.456C129.848 50.456 128.409 50.5427 126.919 50.716L126.113 50.794L126.035 49.312C127.941 48.9307 129.631 48.74 131.105 48.74C132.578 48.74 133.644 49.078 134.303 49.754C134.979 50.43 135.317 51.4873 135.317 52.926ZM127.309 58.23C127.309 59.8247 127.967 60.622 129.285 60.622C130.463 60.622 131.625 60.4227 132.769 60.024L133.367 59.816V55.526L129.519 55.89C128.739 55.9593 128.175 56.1847 127.829 56.566C127.482 56.9473 127.309 57.502 127.309 58.23ZM144.026 48.74C144.598 48.74 145.569 48.844 146.938 49.052L147.562 49.13L147.484 50.716C146.097 50.56 145.075 50.482 144.416 50.482C142.943 50.482 141.937 50.8373 141.4 51.548C140.88 52.2413 140.62 53.5413 140.62 55.448C140.62 57.3373 140.863 58.6547 141.348 59.4C141.851 60.1453 142.882 60.518 144.442 60.518L147.51 60.284L147.588 61.896C145.976 62.1387 144.771 62.26 143.974 62.26C141.946 62.26 140.542 61.74 139.762 60.7C138.999 59.66 138.618 57.9093 138.618 55.448C138.618 52.9693 139.034 51.236 139.866 50.248C140.698 49.2427 142.085 48.74 144.026 48.74ZM157.222 50.69H153.088V56.904C153.088 58.3947 153.192 59.374 153.4 59.842C153.626 60.31 154.146 60.544 154.96 60.544L157.274 60.388L157.404 62C156.243 62.1907 155.359 62.286 154.752 62.286C153.4 62.286 152.464 61.9567 151.944 61.298C151.424 60.6393 151.164 59.3827 151.164 57.528V50.69H149.318V49H151.164V45.022H153.088V49H157.222V50.69ZM170.178 48.74C170.75 48.74 171.721 48.844 173.09 49.052L173.714 49.13L173.636 50.716C172.25 50.56 171.227 50.482 170.568 50.482C169.095 50.482 168.09 50.8373 167.552 51.548C167.032 52.2413 166.772 53.5413 166.772 55.448C166.772 57.3373 167.015 58.6547 167.5 59.4C168.003 60.1453 169.034 60.518 170.594 60.518L173.662 60.284L173.74 61.896C172.128 62.1387 170.924 62.26 170.126 62.26C168.098 62.26 166.694 61.74 165.914 60.7C165.152 59.66 164.77 57.9093 164.77 55.448C164.77 52.9693 165.186 51.236 166.018 50.248C166.85 49.2427 168.237 48.74 170.178 48.74ZM176.641 62V49H178.565V50.768C180.073 49.728 181.659 49.0433 183.323 48.714V50.69C182.595 50.8287 181.832 51.0453 181.035 51.34C180.255 51.6347 179.657 51.8947 179.241 52.12L178.591 52.458V62H176.641ZM194.215 60.388L194.969 60.31L195.021 61.844C193.045 62.1213 191.355 62.26 189.951 62.26C188.079 62.26 186.753 61.7227 185.973 60.648C185.193 59.556 184.803 57.866 184.803 55.578C184.803 51.0193 186.614 48.74 190.237 48.74C191.988 48.74 193.296 49.234 194.163 50.222C195.03 51.1927 195.463 52.7267 195.463 54.824L195.359 56.306H186.779C186.779 57.7447 187.039 58.8107 187.559 59.504C188.079 60.1973 188.98 60.544 190.263 60.544C191.563 60.544 192.88 60.492 194.215 60.388ZM193.513 54.746C193.513 53.1513 193.253 52.0247 192.733 51.366C192.23 50.7073 191.398 50.378 190.237 50.378C189.093 50.378 188.226 50.7247 187.637 51.418C187.065 52.1113 186.77 53.2207 186.753 54.746H193.513ZM207.68 52.926V59.582C207.732 60.2233 208.235 60.6047 209.188 60.726L209.11 62.26C207.741 62.26 206.709 61.9133 206.016 61.22C204.456 61.9133 202.896 62.26 201.336 62.26C200.14 62.26 199.23 61.922 198.606 61.246C197.982 60.57 197.67 59.5993 197.67 58.334C197.67 57.0687 197.991 56.1413 198.632 55.552C199.273 54.9453 200.279 54.5727 201.648 54.434L205.73 54.044V52.926C205.73 52.042 205.539 51.4093 205.158 51.028C204.777 50.6467 204.257 50.456 203.598 50.456C202.211 50.456 200.773 50.5427 199.282 50.716L198.476 50.794L198.398 49.312C200.305 48.9307 201.995 48.74 203.468 48.74C204.941 48.74 206.007 49.078 206.666 49.754C207.342 50.43 207.68 51.4873 207.68 52.926ZM199.672 58.23C199.672 59.8247 200.331 60.622 201.648 60.622C202.827 60.622 203.988 60.4227 205.132 60.024L205.73 59.816V55.526L201.882 55.89C201.102 55.9593 200.539 56.1847 200.192 56.566C199.845 56.9473 199.672 57.502 199.672 58.23ZM218.261 50.69H214.127V56.904C214.127 58.3947 214.231 59.374 214.439 59.842C214.665 60.31 215.185 60.544 215.999 60.544L218.313 60.388L218.443 62C217.282 62.1907 216.398 62.286 215.791 62.286C214.439 62.286 213.503 61.9567 212.983 61.298C212.463 60.6393 212.203 59.3827 212.203 57.528V50.69H210.357V49H212.203V45.022H214.127V49H218.261V50.69ZM220.643 62V49H222.593V62H220.643ZM220.643 46.062V43.8H222.593V46.062H220.643ZM225.758 55.474C225.758 53.0993 226.183 51.3833 227.032 50.326C227.881 49.2687 229.311 48.74 231.322 48.74C233.35 48.74 234.78 49.2687 235.612 50.326C236.461 51.3833 236.886 53.0993 236.886 55.474C236.886 57.8487 236.487 59.5733 235.69 60.648C234.893 61.7227 233.437 62.26 231.322 62.26C229.207 62.26 227.751 61.7227 226.954 60.648C226.157 59.5733 225.758 57.8487 225.758 55.474ZM227.76 55.448C227.76 57.3373 227.985 58.6633 228.436 59.426C228.904 60.1887 229.866 60.57 231.322 60.57C232.795 60.57 233.757 60.1973 234.208 59.452C234.659 58.6893 234.884 57.3547 234.884 55.448C234.884 53.5413 234.633 52.2327 234.13 51.522C233.627 50.794 232.691 50.43 231.322 50.43C229.97 50.43 229.034 50.794 228.514 51.522C228.011 52.2327 227.76 53.5413 227.76 55.448ZM242.016 62H240.066V49H241.99V49.91C243.394 49.13 244.738 48.74 246.02 48.74C247.754 48.74 248.915 49.208 249.504 50.144C250.111 51.08 250.414 52.744 250.414 55.136V62H248.49V55.188C248.49 53.3853 248.308 52.1547 247.944 51.496C247.598 50.82 246.844 50.482 245.682 50.482C245.128 50.482 244.538 50.5687 243.914 50.742C243.308 50.898 242.84 51.054 242.51 51.21L242.016 51.444V62ZM261.512 47.596C261.512 46.4347 261.911 45.5073 262.708 44.814C263.505 44.1207 264.632 43.774 266.088 43.774C267.544 43.774 268.645 44.1207 269.39 44.814C270.153 45.5073 270.534 46.4693 270.534 47.7C270.534 48.9133 270.231 49.8753 269.624 50.586C269.017 51.2793 267.986 51.964 266.53 52.64L270.482 56.54C270.863 55.4307 271.106 54.0267 271.21 52.328L273.108 52.354C272.883 54.5207 272.484 56.3233 271.912 57.762L275.266 60.934L274.096 62.234L270.95 59.296C269.754 61.272 267.943 62.26 265.516 62.26C263.089 62.26 261.391 61.792 260.42 60.856C259.449 59.92 258.964 58.6287 258.964 56.982C258.964 55.318 259.276 54.1047 259.9 53.342C260.541 52.562 261.573 51.938 262.994 51.47C262.387 50.7767 261.989 50.1613 261.798 49.624C261.607 49.0867 261.512 48.4107 261.512 47.596ZM265.204 60.492C267.336 60.492 268.801 59.712 269.598 58.152L264.112 52.692C262.968 53.056 262.153 53.524 261.668 54.096C261.183 54.668 260.94 55.552 260.94 56.748C260.94 59.244 262.361 60.492 265.204 60.492ZM263.462 47.908C263.462 48.9653 263.852 49.91 264.632 50.742L265.386 51.47C266.582 50.95 267.414 50.4387 267.882 49.936C268.35 49.4333 268.584 48.74 268.584 47.856C268.584 46.2613 267.726 45.464 266.01 45.464C264.311 45.464 263.462 46.2787 263.462 47.908ZM282.109 62L287.049 44.008H291.417L296.357 62H294.381L293.081 57.372H285.385L284.085 62H282.109ZM288.557 45.724L285.827 55.578H292.639L289.909 45.724H288.557ZM306.958 49H308.908V62H306.958V61.09C305.658 61.87 304.375 62.26 303.11 62.26C301.342 62.26 300.163 61.8007 299.574 60.882C299.002 59.9633 298.716 58.2647 298.716 55.786V49H300.666V55.76C300.666 57.6493 300.83 58.9147 301.16 59.556C301.489 60.1973 302.234 60.518 303.396 60.518C303.968 60.518 304.548 60.44 305.138 60.284C305.727 60.1107 306.178 59.946 306.49 59.79L306.958 59.556V49ZM322.642 43.332V62H320.718V61.116C319.383 61.8787 318.066 62.26 316.766 62.26C316.073 62.26 315.466 62.1733 314.946 62C314.426 61.8267 313.941 61.5147 313.49 61.064C312.554 60.128 312.086 58.4033 312.086 55.89C312.086 53.3593 312.502 51.5393 313.334 50.43C314.183 49.3033 315.579 48.74 317.52 48.74C318.525 48.74 319.591 48.8527 320.718 49.078V43.332H322.642ZM314.998 59.66C315.275 59.9893 315.57 60.2147 315.882 60.336C316.194 60.4573 316.593 60.518 317.078 60.518C317.581 60.518 318.135 60.44 318.742 60.284C319.366 60.1107 319.851 59.946 320.198 59.79L320.718 59.556V50.742C319.609 50.534 318.577 50.43 317.624 50.43C316.307 50.43 315.388 50.8547 314.868 51.704C314.348 52.536 314.088 53.836 314.088 55.604C314.088 57.6147 314.391 58.9667 314.998 59.66ZM326.42 62V49H328.37V62H326.42ZM326.42 46.062V43.8H328.37V46.062H326.42ZM338.841 50.69H334.707V56.904C334.707 58.3947 334.811 59.374 335.019 59.842C335.245 60.31 335.765 60.544 336.579 60.544L338.893 60.388L339.023 62C337.862 62.1907 336.978 62.286 336.371 62.286C335.019 62.286 334.083 61.9567 333.563 61.298C333.043 60.6393 332.783 59.3827 332.783 57.528V50.69H330.937V49H332.783V45.022H334.707V49H338.841V50.69Z" fill="white"/>
<path d="M76.1972 115.942H71.6212V122H69.6192V104.008H76.1972C78.1558 104.008 79.6032 104.485 80.5392 105.438C81.4752 106.391 81.9432 107.847 81.9432 109.806C81.9432 113.897 80.0278 115.942 76.1972 115.942ZM71.6212 114.174H76.1712C78.6498 114.174 79.8892 112.718 79.8892 109.806C79.8892 108.419 79.5945 107.405 79.0052 106.764C78.4158 106.105 77.4712 105.776 76.1712 105.776H71.6212V114.174ZM92.8053 109H94.7553V122H92.8053V121.09C91.5053 121.87 90.2226 122.26 88.9573 122.26C87.1893 122.26 86.0106 121.801 85.4213 120.882C84.8493 119.963 84.5633 118.265 84.5633 115.786V109H86.5133V115.76C86.5133 117.649 86.678 118.915 87.0073 119.556C87.3366 120.197 88.082 120.518 89.2433 120.518C89.8153 120.518 90.396 120.44 90.9853 120.284C91.5746 120.111 92.0253 119.946 92.3373 119.79L92.8053 119.556V109ZM104.252 108.74C106.002 108.74 107.224 109.243 107.918 110.248C108.628 111.236 108.984 112.978 108.984 115.474C108.984 117.97 108.542 119.729 107.658 120.752C106.791 121.757 105.188 122.26 102.848 122.26C102.12 122.26 100.915 122.191 99.2338 122.052L98.5058 121.974V103.332H100.43V109.65C101.747 109.043 103.021 108.74 104.252 108.74ZM102.822 120.518C104.52 120.518 105.638 120.137 106.176 119.374C106.73 118.594 107.008 117.285 107.008 115.448C107.008 113.611 106.791 112.328 106.358 111.6C105.924 110.855 105.153 110.482 104.044 110.482C103.038 110.482 102.007 110.673 100.95 111.054L100.43 111.236V120.388C101.556 120.475 102.354 120.518 102.822 120.518ZM112.347 122V103.332H114.297V122H112.347ZM118.209 122V109H120.159V122H118.209ZM118.209 106.062V103.8H120.159V106.062H118.209ZM128.758 108.74C129.33 108.74 130.301 108.844 131.67 109.052L132.294 109.13L132.216 110.716C130.83 110.56 129.807 110.482 129.148 110.482C127.675 110.482 126.67 110.837 126.132 111.548C125.612 112.241 125.352 113.541 125.352 115.448C125.352 117.337 125.595 118.655 126.08 119.4C126.583 120.145 127.614 120.518 129.174 120.518L132.242 120.284L132.32 121.896C130.708 122.139 129.504 122.26 128.706 122.26C126.678 122.26 125.274 121.74 124.494 120.7C123.732 119.66 123.35 117.909 123.35 115.448C123.35 112.969 123.766 111.236 124.598 110.248C125.43 109.243 126.817 108.74 128.758 108.74ZM147.85 115.942H143.274V122H141.272V104.008H147.85C149.808 104.008 151.256 104.485 152.192 105.438C153.128 106.391 153.596 107.847 153.596 109.806C153.596 113.897 151.68 115.942 147.85 115.942ZM143.274 114.174H147.824C150.302 114.174 151.542 112.718 151.542 109.806C151.542 108.419 151.247 107.405 150.658 106.764C150.068 106.105 149.124 105.776 147.824 105.776H143.274V114.174ZM156.346 122V109H158.27V110.768C159.778 109.728 161.364 109.043 163.028 108.714V110.69C162.3 110.829 161.537 111.045 160.74 111.34C159.96 111.635 159.362 111.895 158.946 112.12L158.296 112.458V122H156.346ZM173.92 120.388L174.674 120.31L174.726 121.844C172.75 122.121 171.06 122.26 169.656 122.26C167.784 122.26 166.458 121.723 165.678 120.648C164.898 119.556 164.508 117.866 164.508 115.578C164.508 111.019 166.319 108.74 169.942 108.74C171.693 108.74 173.001 109.234 173.868 110.222C174.735 111.193 175.168 112.727 175.168 114.824L175.064 116.306H166.484C166.484 117.745 166.744 118.811 167.264 119.504C167.784 120.197 168.685 120.544 169.968 120.544C171.268 120.544 172.585 120.492 173.92 120.388ZM173.218 114.746C173.218 113.151 172.958 112.025 172.438 111.366C171.935 110.707 171.103 110.378 169.942 110.378C168.798 110.378 167.931 110.725 167.342 111.418C166.77 112.111 166.475 113.221 166.458 114.746H173.218ZM182.289 110.482C180.4 110.482 179.455 111.141 179.455 112.458C179.455 113.065 179.672 113.498 180.105 113.758C180.538 114.001 181.526 114.261 183.069 114.538C184.612 114.798 185.704 115.171 186.345 115.656C186.986 116.141 187.307 117.051 187.307 118.386C187.307 119.721 186.874 120.7 186.007 121.324C185.158 121.948 183.91 122.26 182.263 122.26C181.188 122.26 179.923 122.139 178.467 121.896L177.687 121.766L177.791 120.076C179.767 120.371 181.258 120.518 182.263 120.518C183.268 120.518 184.031 120.362 184.551 120.05C185.088 119.721 185.357 119.183 185.357 118.438C185.357 117.675 185.132 117.164 184.681 116.904C184.23 116.627 183.242 116.367 181.717 116.124C180.192 115.881 179.108 115.526 178.467 115.058C177.826 114.59 177.505 113.723 177.505 112.458C177.505 111.193 177.947 110.257 178.831 109.65C179.732 109.043 180.85 108.74 182.185 108.74C183.242 108.74 184.568 108.861 186.163 109.104L186.891 109.234L186.839 110.898C184.915 110.621 183.398 110.482 182.289 110.482ZM199.471 112.926V119.582C199.523 120.223 200.026 120.605 200.979 120.726L200.901 122.26C199.532 122.26 198.5 121.913 197.807 121.22C196.247 121.913 194.687 122.26 193.127 122.26C191.931 122.26 191.021 121.922 190.397 121.246C189.773 120.57 189.461 119.599 189.461 118.334C189.461 117.069 189.782 116.141 190.423 115.552C191.064 114.945 192.07 114.573 193.439 114.434L197.521 114.044V112.926C197.521 112.042 197.33 111.409 196.949 111.028C196.568 110.647 196.048 110.456 195.389 110.456C194.002 110.456 192.564 110.543 191.073 110.716L190.267 110.794L190.189 109.312C192.096 108.931 193.786 108.74 195.259 108.74C196.732 108.74 197.798 109.078 198.457 109.754C199.133 110.43 199.471 111.487 199.471 112.926ZM191.463 118.23C191.463 119.825 192.122 120.622 193.439 120.622C194.618 120.622 195.779 120.423 196.923 120.024L197.521 119.816V115.526L193.673 115.89C192.893 115.959 192.33 116.185 191.983 116.566C191.636 116.947 191.463 117.502 191.463 118.23ZM203.474 122V103.332H205.424V122H203.474ZM218.176 120.388L218.93 120.31L218.982 121.844C217.006 122.121 215.316 122.26 213.912 122.26C212.04 122.26 210.714 121.723 209.934 120.648C209.154 119.556 208.764 117.866 208.764 115.578C208.764 111.019 210.575 108.74 214.198 108.74C215.949 108.74 217.257 109.234 218.124 110.222C218.991 111.193 219.424 112.727 219.424 114.824L219.32 116.306H210.74C210.74 117.745 211 118.811 211.52 119.504C212.04 120.197 212.941 120.544 214.224 120.544C215.524 120.544 216.841 120.492 218.176 120.388ZM217.474 114.746C217.474 113.151 217.214 112.025 216.694 111.366C216.191 110.707 215.359 110.378 214.198 110.378C213.054 110.378 212.187 110.725 211.598 111.418C211.026 112.111 210.731 113.221 210.714 114.746H217.474Z" fill="white"/>
<path d="M75.914 175.942H71.338V182H69.336V164.008H75.914C77.8726 164.008 79.32 164.485 80.256 165.438C81.192 166.391 81.66 167.847 81.66 169.806C81.66 173.897 79.7446 175.942 75.914 175.942ZM71.338 174.174H75.888C78.3666 174.174 79.606 172.718 79.606 169.806C79.606 168.419 79.3113 167.405 78.722 166.764C78.1326 166.105 77.188 165.776 75.888 165.776H71.338V174.174ZM95.3041 182H84.3321V180.31L89.3501 175.032C90.2168 174.131 90.8494 173.446 91.2481 172.978C91.6468 172.51 92.0021 171.955 92.3141 171.314C92.6434 170.673 92.8081 170.031 92.8081 169.39C92.8081 168.281 92.5048 167.501 91.8981 167.05C91.2914 166.599 90.3468 166.374 89.0641 166.374C87.9374 166.374 86.6808 166.521 85.2941 166.816L84.6181 166.946L84.4621 165.282C86.1088 164.814 87.8074 164.58 89.5581 164.58C91.3088 164.58 92.6261 164.953 93.5101 165.698C94.4114 166.426 94.8621 167.587 94.8621 169.182C94.8621 170.395 94.5934 171.453 94.0561 172.354C93.5188 173.255 92.5914 174.339 91.2741 175.604L86.6981 180.258H95.3041V182ZM99.2969 182V164.008H110.243V165.776H101.299V171.99H108.683V173.732H101.299V180.232H110.243V182H99.2969ZM129.027 163.332V182H127.103V181.116C125.768 181.879 124.451 182.26 123.151 182.26C122.458 182.26 121.851 182.173 121.331 182C120.811 181.827 120.326 181.515 119.875 181.064C118.939 180.128 118.471 178.403 118.471 175.89C118.471 173.359 118.887 171.539 119.719 170.43C120.568 169.303 121.964 168.74 123.905 168.74C124.91 168.74 125.976 168.853 127.103 169.078V163.332H129.027ZM121.383 179.66C121.66 179.989 121.955 180.215 122.267 180.336C122.579 180.457 122.978 180.518 123.463 180.518C123.966 180.518 124.52 180.44 125.127 180.284C125.751 180.111 126.236 179.946 126.583 179.79L127.103 179.556V170.742C125.994 170.534 124.962 170.43 124.009 170.43C122.692 170.43 121.773 170.855 121.253 171.704C120.733 172.536 120.473 173.836 120.473 175.604C120.473 177.615 120.776 178.967 121.383 179.66ZM132.805 182V169H134.755V182H132.805ZM132.805 166.062V163.8H134.755V166.062H132.805ZM143.354 168.74C143.926 168.74 144.897 168.844 146.266 169.052L146.89 169.13L146.812 170.716C145.425 170.56 144.403 170.482 143.744 170.482C142.271 170.482 141.265 170.837 140.728 171.548C140.208 172.241 139.948 173.541 139.948 175.448C139.948 177.337 140.191 178.655 140.676 179.4C141.179 180.145 142.21 180.518 143.77 180.518L146.838 180.284L146.916 181.896C145.304 182.139 144.099 182.26 143.302 182.26C141.274 182.26 139.87 181.74 139.09 180.7C138.327 179.66 137.946 177.909 137.946 175.448C137.946 172.969 138.362 171.236 139.194 170.248C140.026 169.243 141.413 168.74 143.354 168.74ZM158.504 180.388L159.258 180.31L159.31 181.844C157.334 182.121 155.644 182.26 154.24 182.26C152.368 182.26 151.042 181.723 150.262 180.648C149.482 179.556 149.092 177.866 149.092 175.578C149.092 171.019 150.903 168.74 154.526 168.74C156.277 168.74 157.585 169.234 158.452 170.222C159.319 171.193 159.752 172.727 159.752 174.824L159.648 176.306H151.068C151.068 177.745 151.328 178.811 151.848 179.504C152.368 180.197 153.269 180.544 154.552 180.544C155.852 180.544 157.169 180.492 158.504 180.388ZM157.802 174.746C157.802 173.151 157.542 172.025 157.022 171.366C156.519 170.707 155.687 170.378 154.526 170.378C153.382 170.378 152.515 170.725 151.926 171.418C151.354 172.111 151.059 173.221 151.042 174.746H157.802ZM173.522 188.11C171.442 188.11 169.986 187.824 169.154 187.252C168.339 186.697 167.932 185.675 167.932 184.184C167.932 183.473 168.088 182.893 168.4 182.442C168.712 182.009 169.241 181.515 169.986 180.96C169.501 180.631 169.258 180.033 169.258 179.166C169.258 178.871 169.475 178.325 169.908 177.528L170.142 177.112C168.773 176.488 168.088 175.179 168.088 173.186C168.088 170.222 169.709 168.74 172.95 168.74C173.782 168.74 174.553 168.827 175.264 169L175.654 169.078L179.502 168.974V170.638L177.032 170.586C177.604 171.158 177.89 172.025 177.89 173.186C177.89 174.815 177.483 175.959 176.668 176.618C175.871 177.259 174.605 177.58 172.872 177.58C172.404 177.58 171.979 177.545 171.598 177.476C171.286 178.239 171.13 178.733 171.13 178.958C171.13 179.495 171.295 179.833 171.624 179.972C171.953 180.093 172.95 180.154 174.614 180.154C176.278 180.154 177.474 180.414 178.202 180.934C178.93 181.454 179.294 182.468 179.294 183.976C179.294 186.732 177.37 188.11 173.522 188.11ZM169.856 184.028C169.856 184.947 170.107 185.579 170.61 185.926C171.13 186.29 172.075 186.472 173.444 186.472C174.831 186.472 175.819 186.281 176.408 185.9C177.015 185.519 177.318 184.877 177.318 183.976C177.318 183.092 177.101 182.52 176.668 182.26C176.235 182 175.385 181.87 174.12 181.87L171.312 181.74C170.74 182.156 170.35 182.52 170.142 182.832C169.951 183.144 169.856 183.543 169.856 184.028ZM170.038 173.186C170.038 174.209 170.263 174.937 170.714 175.37C171.182 175.803 171.945 176.02 173.002 176.02C174.059 176.02 174.813 175.803 175.264 175.37C175.715 174.937 175.94 174.209 175.94 173.186C175.94 172.146 175.715 171.409 175.264 170.976C174.813 170.543 174.059 170.326 173.002 170.326C171.945 170.326 171.182 170.551 170.714 171.002C170.263 171.435 170.038 172.163 170.038 173.186ZM191.037 172.926V179.582C191.089 180.223 191.592 180.605 192.545 180.726L192.467 182.26C191.098 182.26 190.067 181.913 189.373 181.22C187.813 181.913 186.253 182.26 184.693 182.26C183.497 182.26 182.587 181.922 181.963 181.246C181.339 180.57 181.027 179.599 181.027 178.334C181.027 177.069 181.348 176.141 181.989 175.552C182.631 174.945 183.636 174.573 185.005 174.434L189.087 174.044V172.926C189.087 172.042 188.897 171.409 188.515 171.028C188.134 170.647 187.614 170.456 186.955 170.456C185.569 170.456 184.13 170.543 182.639 170.716L181.833 170.794L181.755 169.312C183.662 168.931 185.352 168.74 186.825 168.74C188.299 168.74 189.365 169.078 190.023 169.754C190.699 170.43 191.037 171.487 191.037 172.926ZM183.029 178.23C183.029 179.825 183.688 180.622 185.005 180.622C186.184 180.622 187.345 180.423 188.489 180.024L189.087 179.816V175.526L185.239 175.89C184.459 175.959 183.896 176.185 183.549 176.566C183.203 176.947 183.029 177.502 183.029 178.23ZM196.835 182H194.885V169H196.809V169.91C198.109 169.13 199.374 168.74 200.605 168.74C202.217 168.74 203.343 169.182 203.985 170.066C204.557 169.719 205.293 169.416 206.195 169.156C207.113 168.879 207.919 168.74 208.613 168.74C210.346 168.74 211.507 169.208 212.097 170.144C212.703 171.063 213.007 172.727 213.007 175.136V182H211.057V175.188C211.057 173.385 210.883 172.155 210.537 171.496C210.19 170.82 209.453 170.482 208.327 170.482C207.755 170.482 207.165 170.569 206.559 170.742C205.952 170.898 205.484 171.054 205.155 171.21L204.661 171.444C204.886 172.016 204.999 173.281 204.999 175.24V182H203.049V175.292C203.049 173.42 202.875 172.155 202.529 171.496C202.199 170.82 201.463 170.482 200.319 170.482C199.764 170.482 199.192 170.569 198.603 170.742C198.031 170.898 197.589 171.054 197.277 171.21L196.835 171.444V182ZM225.459 180.388L226.213 180.31L226.265 181.844C224.289 182.121 222.599 182.26 221.195 182.26C219.323 182.26 217.997 181.723 217.217 180.648C216.437 179.556 216.047 177.866 216.047 175.578C216.047 171.019 217.858 168.74 221.481 168.74C223.232 168.74 224.54 169.234 225.407 170.222C226.274 171.193 226.707 172.727 226.707 174.824L226.603 176.306H218.023C218.023 177.745 218.283 178.811 218.803 179.504C219.323 180.197 220.224 180.544 221.507 180.544C222.807 180.544 224.124 180.492 225.459 180.388ZM224.757 174.746C224.757 173.151 224.497 172.025 223.977 171.366C223.474 170.707 222.642 170.378 221.481 170.378C220.337 170.378 219.47 170.725 218.881 171.418C218.309 172.111 218.014 173.221 217.997 174.746H224.757Z" fill="white"/>
<path d="M76.2609 242H69.8389V224.008H76.2609C79.1902 224.008 81.1316 225.169 82.0849 227.492C82.6396 228.827 82.9169 230.577 82.9169 232.744C82.9169 237.268 81.7902 240.119 79.5369 241.298C78.6356 241.766 77.5436 242 76.2609 242ZM80.8629 232.744C80.8629 229.295 80.0916 227.145 78.5489 226.296C77.9249 225.949 77.1622 225.776 76.2609 225.776H71.8409V240.232H76.2609C79.3289 240.232 80.8629 237.736 80.8629 232.744ZM95.0987 240.388L95.8527 240.31L95.9047 241.844C93.9287 242.121 92.2387 242.26 90.8347 242.26C88.9627 242.26 87.6367 241.723 86.8567 240.648C86.0767 239.556 85.6867 237.866 85.6867 235.578C85.6867 231.019 87.4981 228.74 91.1207 228.74C92.8714 228.74 94.1801 229.234 95.0467 230.222C95.9134 231.193 96.3467 232.727 96.3467 234.824L96.2427 236.306H87.6627C87.6627 237.745 87.9227 238.811 88.4427 239.504C88.9627 240.197 89.8641 240.544 91.1467 240.544C92.4467 240.544 93.7641 240.492 95.0987 240.388ZM94.3967 234.746C94.3967 233.151 94.1367 232.025 93.6167 231.366C93.1141 230.707 92.2821 230.378 91.1207 230.378C89.9767 230.378 89.1101 230.725 88.5207 231.418C87.9487 232.111 87.6541 233.221 87.6367 234.746H94.3967ZM99.3857 247.772V229H101.31V229.936C102.627 229.139 103.927 228.74 105.21 228.74C106.856 228.74 108.052 229.269 108.798 230.326C109.543 231.366 109.916 233.091 109.916 235.5C109.916 237.909 109.474 239.643 108.59 240.7C107.723 241.74 106.276 242.26 104.248 242.26C103.19 242.26 102.22 242.165 101.336 241.974V247.772H99.3857ZM104.924 230.482C104.404 230.482 103.84 230.569 103.234 230.742C102.644 230.915 102.176 231.089 101.83 231.262L101.336 231.522V240.284C102.566 240.475 103.502 240.57 104.144 240.57C105.548 240.57 106.527 240.171 107.082 239.374C107.654 238.577 107.94 237.277 107.94 235.474C107.94 233.671 107.68 232.389 107.16 231.626C106.657 230.863 105.912 230.482 104.924 230.482ZM113.253 242V223.332H115.203V242H113.253ZM118.542 235.474C118.542 233.099 118.967 231.383 119.816 230.326C120.666 229.269 122.096 228.74 124.106 228.74C126.134 228.74 127.564 229.269 128.396 230.326C129.246 231.383 129.67 233.099 129.67 235.474C129.67 237.849 129.272 239.573 128.474 240.648C127.677 241.723 126.221 242.26 124.106 242.26C121.992 242.26 120.536 241.723 119.738 240.648C118.941 239.573 118.542 237.849 118.542 235.474ZM120.544 235.448C120.544 237.337 120.77 238.663 121.22 239.426C121.688 240.189 122.65 240.57 124.106 240.57C125.58 240.57 126.542 240.197 126.992 239.452C127.443 238.689 127.668 237.355 127.668 235.448C127.668 233.541 127.417 232.233 126.914 231.522C126.412 230.794 125.476 230.43 124.106 230.43C122.754 230.43 121.818 230.794 121.298 231.522C120.796 232.233 120.544 233.541 120.544 235.448ZM131.375 229H133.325L136.575 240.31H137.433L140.709 229H142.659L137.251 247.772H135.301L136.991 242H135.067L131.375 229ZM155.74 228.74C156.312 228.74 157.283 228.844 158.652 229.052L159.276 229.13L159.198 230.716C157.811 230.56 156.789 230.482 156.13 230.482C154.657 230.482 153.651 230.837 153.114 231.548C152.594 232.241 152.334 233.541 152.334 235.448C152.334 237.337 152.577 238.655 153.062 239.4C153.565 240.145 154.596 240.518 156.156 240.518L159.224 240.284L159.302 241.896C157.69 242.139 156.485 242.26 155.688 242.26C153.66 242.26 152.256 241.74 151.476 240.7C150.713 239.66 150.332 237.909 150.332 235.448C150.332 232.969 150.748 231.236 151.58 230.248C152.412 229.243 153.799 228.74 155.74 228.74ZM161.478 235.474C161.478 233.099 161.902 231.383 162.752 230.326C163.601 229.269 165.031 228.74 167.042 228.74C169.07 228.74 170.5 229.269 171.332 230.326C172.181 231.383 172.606 233.099 172.606 235.474C172.606 237.849 172.207 239.573 171.41 240.648C170.612 241.723 169.156 242.26 167.042 242.26C164.927 242.26 163.471 241.723 162.674 240.648C161.876 239.573 161.478 237.849 161.478 235.474ZM163.48 235.448C163.48 237.337 163.705 238.663 164.156 239.426C164.624 240.189 165.586 240.57 167.042 240.57C168.515 240.57 169.477 240.197 169.928 239.452C170.378 238.689 170.604 237.355 170.604 235.448C170.604 233.541 170.352 232.233 169.85 231.522C169.347 230.794 168.411 230.43 167.042 230.43C165.69 230.43 164.754 230.794 164.234 231.522C163.731 232.233 163.48 233.541 163.48 235.448ZM177.736 242H175.786V229H177.71V229.91C179.114 229.13 180.457 228.74 181.74 228.74C183.473 228.74 184.635 229.208 185.224 230.144C185.831 231.08 186.134 232.744 186.134 235.136V242H184.21V235.188C184.21 233.385 184.028 232.155 183.664 231.496C183.317 230.82 182.563 230.482 181.402 230.482C180.847 230.482 180.258 230.569 179.634 230.742C179.027 230.898 178.559 231.054 178.23 231.21L177.736 231.444V242ZM196.409 230.69H192.275V236.904C192.275 238.395 192.379 239.374 192.587 239.842C192.812 240.31 193.332 240.544 194.147 240.544L196.461 240.388L196.591 242C195.429 242.191 194.545 242.286 193.939 242.286C192.587 242.286 191.651 241.957 191.131 241.298C190.611 240.639 190.351 239.383 190.351 237.528V230.69H188.505V229H190.351V225.022H192.275V229H196.409V230.69ZM198.79 242V229H200.714V230.768C202.222 229.728 203.808 229.043 205.472 228.714V230.69C204.744 230.829 203.981 231.045 203.184 231.34C202.404 231.635 201.806 231.895 201.39 232.12L200.74 232.458V242H198.79ZM216.956 232.926V239.582C217.008 240.223 217.511 240.605 218.464 240.726L218.386 242.26C217.017 242.26 215.986 241.913 215.292 241.22C213.732 241.913 212.172 242.26 210.612 242.26C209.416 242.26 208.506 241.922 207.882 241.246C207.258 240.57 206.946 239.599 206.946 238.334C206.946 237.069 207.267 236.141 207.908 235.552C208.55 234.945 209.555 234.573 210.924 234.434L215.006 234.044V232.926C215.006 232.042 214.816 231.409 214.434 231.028C214.053 230.647 213.533 230.456 212.874 230.456C211.488 230.456 210.049 230.543 208.558 230.716L207.752 230.794L207.674 229.312C209.581 228.931 211.271 228.74 212.744 228.74C214.218 228.74 215.284 229.078 215.942 229.754C216.618 230.43 216.956 231.487 216.956 232.926ZM208.948 238.23C208.948 239.825 209.607 240.622 210.924 240.622C212.103 240.622 213.264 240.423 214.408 240.024L215.006 239.816V235.526L211.158 235.89C210.378 235.959 209.815 236.185 209.468 236.566C209.122 236.947 208.948 237.502 208.948 238.23ZM225.666 228.74C226.238 228.74 227.208 228.844 228.578 229.052L229.202 229.13L229.124 230.716C227.737 230.56 226.714 230.482 226.056 230.482C224.582 230.482 223.577 230.837 223.04 231.548C222.52 232.241 222.26 233.541 222.26 235.448C222.26 237.337 222.502 238.655 222.988 239.4C223.49 240.145 224.522 240.518 226.082 240.518L229.15 240.284L229.228 241.896C227.616 242.139 226.411 242.26 225.614 242.26C223.586 242.26 222.182 241.74 221.402 240.7C220.639 239.66 220.258 237.909 220.258 235.448C220.258 232.969 220.674 231.236 221.506 230.248C222.338 229.243 223.724 228.74 225.666 228.74ZM238.862 230.69H234.728V236.904C234.728 238.395 234.832 239.374 235.04 239.842C235.265 240.31 235.785 240.544 236.6 240.544L238.914 240.388L239.044 242C237.883 242.191 236.999 242.286 236.392 242.286C235.04 242.286 234.104 241.957 233.584 241.298C233.064 240.639 232.804 239.383 232.804 237.528V230.69H230.958V229H232.804V225.022H234.728V229H238.862V230.69Z" fill="white"/>
<path d="M77.1318 295.942H72.5558V302H70.5538V284.008H77.1318C79.0904 284.008 80.5378 284.485 81.4737 285.438C82.4098 286.391 82.8778 287.847 82.8778 289.806C82.8778 293.897 80.9624 295.942 77.1318 295.942ZM72.5558 294.174H77.1058C79.5844 294.174 80.8238 292.718 80.8238 289.806C80.8238 288.419 80.5291 287.405 79.9398 286.764C79.3504 286.105 78.4058 285.776 77.1058 285.776H72.5558V294.174ZM94.6789 292.926V299.582C94.7309 300.223 95.2336 300.605 96.1869 300.726L96.1089 302.26C94.7396 302.26 93.7082 301.913 93.0149 301.22C91.4549 301.913 89.8949 302.26 88.3349 302.26C87.1389 302.26 86.2289 301.922 85.6049 301.246C84.9809 300.57 84.6689 299.599 84.6689 298.334C84.6689 297.069 84.9896 296.141 85.6309 295.552C86.2722 294.945 87.2776 294.573 88.6469 294.434L92.7289 294.044V292.926C92.7289 292.042 92.5382 291.409 92.1569 291.028C91.7756 290.647 91.2556 290.456 90.5969 290.456C89.2102 290.456 87.7716 290.543 86.2809 290.716L85.4749 290.794L85.3969 289.312C87.3036 288.931 88.9936 288.74 90.4669 288.74C91.9402 288.74 93.0062 289.078 93.6649 289.754C94.3409 290.43 94.6789 291.487 94.6789 292.926ZM86.6709 298.23C86.6709 299.825 87.3296 300.622 88.6469 300.622C89.8256 300.622 90.9869 300.423 92.1309 300.024L92.7289 299.816V295.526L88.8809 295.89C88.1009 295.959 87.5376 296.185 87.1909 296.566C86.8442 296.947 86.6709 297.502 86.6709 298.23ZM100.476 302H98.5263V289H100.45V289.91C101.854 289.13 103.198 288.74 104.48 288.74C106.214 288.74 107.375 289.208 107.964 290.144C108.571 291.08 108.874 292.744 108.874 295.136V302H106.95V295.188C106.95 293.385 106.768 292.155 106.404 291.496C106.058 290.82 105.304 290.482 104.142 290.482C103.588 290.482 102.998 290.569 102.374 290.742C101.768 290.898 101.3 291.054 100.97 291.21L100.476 291.444V302ZM117.353 288.74C117.925 288.74 118.896 288.844 120.265 289.052L120.889 289.13L120.811 290.716C119.424 290.56 118.402 290.482 117.743 290.482C116.27 290.482 115.264 290.837 114.727 291.548C114.207 292.241 113.947 293.541 113.947 295.448C113.947 297.337 114.19 298.655 114.675 299.4C115.178 300.145 116.209 300.518 117.769 300.518L120.837 300.284L120.915 301.896C119.303 302.139 118.098 302.26 117.301 302.26C115.273 302.26 113.869 301.74 113.089 300.7C112.326 299.66 111.945 297.909 111.945 295.448C111.945 292.969 112.361 291.236 113.193 290.248C114.025 289.243 115.412 288.74 117.353 288.74ZM132.993 292.926V299.582C133.045 300.223 133.548 300.605 134.501 300.726L134.423 302.26C133.054 302.26 132.023 301.913 131.329 301.22C129.769 301.913 128.209 302.26 126.649 302.26C125.453 302.26 124.543 301.922 123.919 301.246C123.295 300.57 122.983 299.599 122.983 298.334C122.983 297.069 123.304 296.141 123.945 295.552C124.587 294.945 125.592 294.573 126.961 294.434L131.043 294.044V292.926C131.043 292.042 130.853 291.409 130.471 291.028C130.09 290.647 129.57 290.456 128.911 290.456C127.525 290.456 126.086 290.543 124.595 290.716L123.789 290.794L123.711 289.312C125.618 288.931 127.308 288.74 128.781 288.74C130.255 288.74 131.321 289.078 131.979 289.754C132.655 290.43 132.993 291.487 132.993 292.926ZM124.985 298.23C124.985 299.825 125.644 300.622 126.961 300.622C128.14 300.622 129.301 300.423 130.445 300.024L131.043 299.816V295.526L127.195 295.89C126.415 295.959 125.852 296.185 125.505 296.566C125.159 296.947 124.985 297.502 124.985 298.23ZM138.791 302H136.841V283.332H138.791V294.356L140.819 294.252L144.537 289H146.747L142.509 294.98L146.929 302H144.719L140.845 295.968L138.791 296.046V302ZM157.792 300.388L158.546 300.31L158.598 301.844C156.622 302.121 154.932 302.26 153.528 302.26C151.656 302.26 150.33 301.723 149.55 300.648C148.77 299.556 148.38 297.866 148.38 295.578C148.38 291.019 150.191 288.74 153.814 288.74C155.565 288.74 156.873 289.234 157.74 290.222C158.607 291.193 159.04 292.727 159.04 294.824L158.936 296.306H150.356C150.356 297.745 150.616 298.811 151.136 299.504C151.656 300.197 152.557 300.544 153.84 300.544C155.14 300.544 156.457 300.492 157.792 300.388ZM157.09 294.746C157.09 293.151 156.83 292.025 156.31 291.366C155.807 290.707 154.975 290.378 153.814 290.378C152.67 290.378 151.803 290.725 151.214 291.418C150.642 292.111 150.347 293.221 150.33 294.746H157.09ZM166.161 290.482C164.272 290.482 163.327 291.141 163.327 292.458C163.327 293.065 163.544 293.498 163.977 293.758C164.41 294.001 165.398 294.261 166.941 294.538C168.484 294.798 169.576 295.171 170.217 295.656C170.858 296.141 171.179 297.051 171.179 298.386C171.179 299.721 170.746 300.7 169.879 301.324C169.03 301.948 167.782 302.26 166.135 302.26C165.06 302.26 163.795 302.139 162.339 301.896L161.559 301.766L161.663 300.076C163.639 300.371 165.13 300.518 166.135 300.518C167.14 300.518 167.903 300.362 168.423 300.05C168.96 299.721 169.229 299.183 169.229 298.438C169.229 297.675 169.004 297.164 168.553 296.904C168.102 296.627 167.114 296.367 165.589 296.124C164.064 295.881 162.98 295.526 162.339 295.058C161.698 294.59 161.377 293.723 161.377 292.458C161.377 291.193 161.819 290.257 162.703 289.65C163.604 289.043 164.722 288.74 166.057 288.74C167.114 288.74 168.44 288.861 170.035 289.104L170.763 289.234L170.711 290.898C168.787 290.621 167.27 290.482 166.161 290.482ZM172.997 289H174.947L177.573 300.31H177.989L181.083 289.26H183.111L186.205 300.31H186.647L189.247 289H191.197L188.103 302H184.853L182.097 291.834L179.341 302H176.091L172.997 289ZM202.919 292.926V299.582C202.971 300.223 203.474 300.605 204.427 300.726L204.349 302.26C202.98 302.26 201.948 301.913 201.255 301.22C199.695 301.913 198.135 302.26 196.575 302.26C195.379 302.26 194.469 301.922 193.845 301.246C193.221 300.57 192.909 299.599 192.909 298.334C192.909 297.069 193.23 296.141 193.871 295.552C194.512 294.945 195.518 294.573 196.887 294.434L200.969 294.044V292.926C200.969 292.042 200.778 291.409 200.397 291.028C200.016 290.647 199.496 290.456 198.837 290.456C197.45 290.456 196.012 290.543 194.521 290.716L193.715 290.794L193.637 289.312C195.544 288.931 197.234 288.74 198.707 288.74C200.18 288.74 201.246 289.078 201.905 289.754C202.581 290.43 202.919 291.487 202.919 292.926ZM194.911 298.23C194.911 299.825 195.57 300.622 196.887 300.622C198.066 300.622 199.227 300.423 200.371 300.024L200.969 299.816V295.526L197.121 295.89C196.341 295.959 195.778 296.185 195.431 296.566C195.084 296.947 194.911 297.502 194.911 298.23ZM206.767 307.772V289H208.691V289.936C210.008 289.139 211.308 288.74 212.591 288.74C214.237 288.74 215.433 289.269 216.179 290.326C216.924 291.366 217.297 293.091 217.297 295.5C217.297 297.909 216.855 299.643 215.971 300.7C215.104 301.74 213.657 302.26 211.629 302.26C210.571 302.26 209.601 302.165 208.717 301.974V307.772H206.767ZM212.305 290.482C211.785 290.482 211.221 290.569 210.615 290.742C210.025 290.915 209.557 291.089 209.211 291.262L208.717 291.522V300.284C209.947 300.475 210.883 300.57 211.525 300.57C212.929 300.57 213.908 300.171 214.463 299.374C215.035 298.577 215.321 297.277 215.321 295.474C215.321 293.671 215.061 292.389 214.541 291.626C214.038 290.863 213.293 290.482 212.305 290.482ZM236.434 302H226.528V284.008H228.53V300.206H236.434V302ZM238.632 302V289H240.582V302H238.632ZM238.632 286.062V283.8H240.582V286.062H238.632ZM248.401 290.482C246.512 290.482 245.567 291.141 245.567 292.458C245.567 293.065 245.784 293.498 246.217 293.758C246.651 294.001 247.639 294.261 249.181 294.538C250.724 294.798 251.816 295.171 252.457 295.656C253.099 296.141 253.419 297.051 253.419 298.386C253.419 299.721 252.986 300.7 252.119 301.324C251.27 301.948 250.022 302.26 248.375 302.26C247.301 302.26 246.035 302.139 244.579 301.896L243.799 301.766L243.903 300.076C245.879 300.371 247.37 300.518 248.375 300.518C249.381 300.518 250.143 300.362 250.663 300.05C251.201 299.721 251.469 299.183 251.469 298.438C251.469 297.675 251.244 297.164 250.793 296.904C250.343 296.627 249.355 296.367 247.829 296.124C246.304 295.881 245.221 295.526 244.579 295.058C243.938 294.59 243.617 293.723 243.617 292.458C243.617 291.193 244.059 290.257 244.943 289.65C245.845 289.043 246.963 288.74 248.297 288.74C249.355 288.74 250.681 288.861 252.275 289.104L253.003 289.234L252.951 290.898C251.027 290.621 249.511 290.482 248.401 290.482ZM263.139 290.69H259.005V296.904C259.005 298.395 259.109 299.374 259.317 299.842C259.543 300.31 260.063 300.544 260.877 300.544L263.191 300.388L263.321 302C262.16 302.191 261.276 302.286 260.669 302.286C259.317 302.286 258.381 301.957 257.861 301.298C257.341 300.639 257.081 299.383 257.081 297.528V290.69H255.235V289H257.081V285.022H259.005V289H263.139V290.69ZM265.52 302V289H267.47V302H265.52ZM265.52 286.062V283.8H267.47V286.062H265.52ZM273.158 302H271.208V289H273.132V289.91C274.536 289.13 275.879 288.74 277.162 288.74C278.895 288.74 280.057 289.208 280.646 290.144C281.253 291.08 281.556 292.744 281.556 295.136V302H279.632V295.188C279.632 293.385 279.45 292.155 279.086 291.496C278.739 290.82 277.985 290.482 276.824 290.482C276.269 290.482 275.68 290.569 275.056 290.742C274.449 290.898 273.981 291.054 273.652 291.21L273.158 291.444V302ZM290.191 308.11C288.111 308.11 286.655 307.824 285.823 307.252C285.008 306.697 284.601 305.675 284.601 304.184C284.601 303.473 284.757 302.893 285.069 302.442C285.381 302.009 285.909 301.515 286.655 300.96C286.169 300.631 285.927 300.033 285.927 299.166C285.927 298.871 286.143 298.325 286.577 297.528L286.811 297.112C285.441 296.488 284.757 295.179 284.757 293.186C284.757 290.222 286.377 288.74 289.619 288.74C290.451 288.74 291.222 288.827 291.933 289L292.323 289.078L296.171 288.974V290.638L293.701 290.586C294.273 291.158 294.559 292.025 294.559 293.186C294.559 294.815 294.151 295.959 293.337 296.618C292.539 297.259 291.274 297.58 289.541 297.58C289.073 297.58 288.648 297.545 288.267 297.476C287.955 298.239 287.799 298.733 287.799 298.958C287.799 299.495 287.963 299.833 288.293 299.972C288.622 300.093 289.619 300.154 291.283 300.154C292.947 300.154 294.143 300.414 294.871 300.934C295.599 301.454 295.963 302.468 295.963 303.976C295.963 306.732 294.039 308.11 290.191 308.11ZM286.525 304.028C286.525 304.947 286.776 305.579 287.279 305.926C287.799 306.29 288.743 306.472 290.113 306.472C291.499 306.472 292.487 306.281 293.077 305.9C293.683 305.519 293.987 304.877 293.987 303.976C293.987 303.092 293.77 302.52 293.337 302.26C292.903 302 292.054 301.87 290.789 301.87L287.981 301.74C287.409 302.156 287.019 302.52 286.811 302.832C286.62 303.144 286.525 303.543 286.525 304.028ZM286.707 293.186C286.707 294.209 286.932 294.937 287.383 295.37C287.851 295.803 288.613 296.02 289.671 296.02C290.728 296.02 291.482 295.803 291.933 295.37C292.383 294.937 292.609 294.209 292.609 293.186C292.609 292.146 292.383 291.409 291.933 290.976C291.482 290.543 290.728 290.326 289.671 290.326C288.613 290.326 287.851 290.551 287.383 291.002C286.932 291.435 286.707 292.163 286.707 293.186Z" fill="white"/>
<path d="M83.5399 361.714C81.7546 362.078 80.1512 362.26 78.7299 362.26C77.3086 362.26 76.1559 362.069 75.2719 361.688C74.4052 361.289 73.7292 360.683 73.2439 359.868C72.7759 359.036 72.4466 358.091 72.2559 357.034C72.0826 355.959 71.9959 354.625 71.9959 353.03C71.9959 351.435 72.0826 350.101 72.2559 349.026C72.4466 347.934 72.7759 346.972 73.2439 346.14C73.7292 345.308 74.4052 344.701 75.2719 344.32C76.1386 343.939 77.2652 343.748 78.6519 343.748C80.0386 343.748 81.6679 343.939 83.5399 344.32L83.4619 346.01C81.7112 345.698 80.1512 345.542 78.7819 345.542C76.8752 345.542 75.6099 346.114 74.9859 347.258C74.3792 348.385 74.0759 350.317 74.0759 353.056C74.0759 354.425 74.1279 355.526 74.2319 356.358C74.3532 357.19 74.5786 357.944 74.9079 358.62C75.2372 359.279 75.7139 359.755 76.3379 360.05C76.9792 360.327 77.9066 360.466 79.1199 360.466C80.3506 360.466 81.7979 360.31 83.4619 359.998L83.5399 361.714ZM86.8145 362V344.008H90.4285L95.5245 359.218L100.62 344.008H104.234V362H102.232V346.14H101.868L96.6425 361.35H94.4065L89.1805 346.14H88.8165V362H86.8145ZM115.774 354.59V352.796H120.74V361.636C118.556 362.052 116.606 362.26 114.89 362.26C112.273 362.26 110.453 361.506 109.43 359.998C108.425 358.49 107.922 356.167 107.922 353.03C107.922 349.875 108.425 347.544 109.43 346.036C110.453 344.511 112.256 343.748 114.838 343.748C116.45 343.748 118.123 343.921 119.856 344.268L120.74 344.424L120.662 346.088C118.513 345.724 116.65 345.542 115.072 345.542C113.079 345.542 111.736 346.123 111.042 347.284C110.349 348.428 110.002 350.343 110.002 353.03C110.002 355.699 110.349 357.615 111.042 358.776C111.736 359.92 113.07 360.492 115.046 360.492C116.26 360.492 117.499 360.371 118.764 360.128V354.59H115.774ZM129.007 361.74L136.339 343.592L138.081 344.242L130.749 362.364L129.007 361.74ZM157.681 361.714C155.895 362.078 154.292 362.26 152.871 362.26C151.449 362.26 150.297 362.069 149.413 361.688C148.546 361.289 147.87 360.683 147.385 359.868C146.917 359.036 146.587 358.091 146.397 357.034C146.223 355.959 146.137 354.625 146.137 353.03C146.137 351.435 146.223 350.101 146.397 349.026C146.587 347.934 146.917 346.972 147.385 346.14C147.87 345.308 148.546 344.701 149.413 344.32C150.279 343.939 151.406 343.748 152.793 343.748C154.179 343.748 155.809 343.939 157.681 344.32L157.603 346.01C155.852 345.698 154.292 345.542 152.923 345.542C151.016 345.542 149.751 346.114 149.127 347.258C148.52 348.385 148.217 350.317 148.217 353.056C148.217 354.425 148.269 355.526 148.373 356.358C148.494 357.19 148.719 357.944 149.049 358.62C149.378 359.279 149.855 359.755 150.479 360.05C151.12 360.327 152.047 360.466 153.261 360.466C154.491 360.466 155.939 360.31 157.603 359.998L157.681 361.714ZM167.8 354.59V352.796H172.766V361.636C170.582 362.052 168.632 362.26 166.916 362.26C164.298 362.26 162.478 361.506 161.456 359.998C160.45 358.49 159.948 356.167 159.948 353.03C159.948 349.875 160.45 347.544 161.456 346.036C162.478 344.511 164.281 343.748 166.864 343.748C168.476 343.748 170.148 343.921 171.882 344.268L172.766 344.424L172.688 346.088C170.538 345.724 168.675 345.542 167.098 345.542C165.104 345.542 163.761 346.123 163.068 347.284C162.374 348.428 162.028 350.343 162.028 353.03C162.028 355.699 162.374 357.615 163.068 358.776C163.761 359.92 165.096 360.492 167.072 360.492C168.285 360.492 169.524 360.371 170.79 360.128V354.59H167.8ZM192.316 362H182.41V344.008H184.412V360.206H192.316V362ZM194.514 362V349H196.464V362H194.514ZM194.514 346.062V343.8H196.464V346.062H194.514ZM204.283 350.482C202.394 350.482 201.449 351.141 201.449 352.458C201.449 353.065 201.666 353.498 202.099 353.758C202.532 354.001 203.52 354.261 205.063 354.538C206.606 354.798 207.698 355.171 208.339 355.656C208.98 356.141 209.301 357.051 209.301 358.386C209.301 359.721 208.868 360.7 208.001 361.324C207.152 361.948 205.904 362.26 204.257 362.26C203.182 362.26 201.917 362.139 200.461 361.896L199.681 361.766L199.785 360.076C201.761 360.371 203.252 360.518 204.257 360.518C205.262 360.518 206.025 360.362 206.545 360.05C207.082 359.721 207.351 359.183 207.351 358.438C207.351 357.675 207.126 357.164 206.675 356.904C206.224 356.627 205.236 356.367 203.711 356.124C202.186 355.881 201.102 355.526 200.461 355.058C199.82 354.59 199.499 353.723 199.499 352.458C199.499 351.193 199.941 350.257 200.825 349.65C201.726 349.043 202.844 348.74 204.179 348.74C205.236 348.74 206.562 348.861 208.157 349.104L208.885 349.234L208.833 350.898C206.909 350.621 205.392 350.482 204.283 350.482ZM219.021 350.69H214.887V356.904C214.887 358.395 214.991 359.374 215.199 359.842C215.424 360.31 215.944 360.544 216.759 360.544L219.073 360.388L219.203 362C218.042 362.191 217.158 362.286 216.551 362.286C215.199 362.286 214.263 361.957 213.743 361.298C213.223 360.639 212.963 359.383 212.963 357.528V350.69H211.117V349H212.963V345.022H214.887V349H219.021V350.69ZM221.402 362V349H223.352V362H221.402ZM221.402 346.062V343.8H223.352V346.062H221.402ZM229.04 362H227.09V349H229.014V349.91C230.418 349.13 231.761 348.74 233.044 348.74C234.777 348.74 235.938 349.208 236.528 350.144C237.134 351.08 237.438 352.744 237.438 355.136V362H235.514V355.188C235.514 353.385 235.332 352.155 234.968 351.496C234.621 350.82 233.867 350.482 232.706 350.482C232.151 350.482 231.562 350.569 230.938 350.742C230.331 350.898 229.863 351.054 229.534 351.21L229.04 351.444V362ZM246.073 368.11C243.993 368.11 242.537 367.824 241.705 367.252C240.89 366.697 240.483 365.675 240.483 364.184C240.483 363.473 240.639 362.893 240.951 362.442C241.263 362.009 241.791 361.515 242.537 360.96C242.051 360.631 241.809 360.033 241.809 359.166C241.809 358.871 242.025 358.325 242.459 357.528L242.693 357.112C241.323 356.488 240.639 355.179 240.639 353.186C240.639 350.222 242.259 348.74 245.501 348.74C246.333 348.74 247.104 348.827 247.815 349L248.205 349.078L252.053 348.974V350.638L249.583 350.586C250.155 351.158 250.441 352.025 250.441 353.186C250.441 354.815 250.033 355.959 249.219 356.618C248.421 357.259 247.156 357.58 245.423 357.58C244.955 357.58 244.53 357.545 244.149 357.476C243.837 358.239 243.681 358.733 243.681 358.958C243.681 359.495 243.845 359.833 244.175 359.972C244.504 360.093 245.501 360.154 247.165 360.154C248.829 360.154 250.025 360.414 250.753 360.934C251.481 361.454 251.845 362.468 251.845 363.976C251.845 366.732 249.921 368.11 246.073 368.11ZM242.407 364.028C242.407 364.947 242.658 365.579 243.161 365.926C243.681 366.29 244.625 366.472 245.995 366.472C247.381 366.472 248.369 366.281 248.959 365.9C249.565 365.519 249.869 364.877 249.869 363.976C249.869 363.092 249.652 362.52 249.219 362.26C248.785 362 247.936 361.87 246.671 361.87L243.863 361.74C243.291 362.156 242.901 362.52 242.693 362.832C242.502 363.144 242.407 363.543 242.407 364.028ZM242.589 353.186C242.589 354.209 242.814 354.937 243.265 355.37C243.733 355.803 244.495 356.02 245.553 356.02C246.61 356.02 247.364 355.803 247.815 355.37C248.265 354.937 248.491 354.209 248.491 353.186C248.491 352.146 248.265 351.409 247.815 350.976C247.364 350.543 246.61 350.326 245.553 350.326C244.495 350.326 243.733 350.551 243.265 351.002C242.814 351.435 242.589 352.163 242.589 353.186Z" fill="white"/>
<path d="M80.009 405.49C77.409 405.49 76.109 406.469 76.109 408.428C76.109 409.52 76.4037 410.274 76.993 410.69C77.5997 411.089 78.813 411.496 80.633 411.912C82.4703 412.311 83.7703 412.839 84.533 413.498C85.2957 414.139 85.677 415.205 85.677 416.696C85.677 420.388 83.7617 422.234 79.931 422.234C78.6657 422.234 77.0797 422.087 75.173 421.792L74.237 421.662L74.445 419.998C76.8023 420.31 78.5963 420.466 79.827 420.466C82.3923 420.466 83.675 419.261 83.675 416.852C83.675 415.881 83.389 415.188 82.817 414.772C82.2623 414.339 81.2137 413.975 79.671 413.68C77.643 413.247 76.2043 412.692 75.355 412.016C74.5057 411.323 74.081 410.17 74.081 408.558C74.081 405.334 76.0137 403.722 79.879 403.722C81.1443 403.722 82.661 403.852 84.429 404.112L85.313 404.242L85.131 405.932C82.7217 405.637 81.0143 405.49 80.009 405.49ZM95.3023 410.69H91.1683V416.904C91.1683 418.395 91.2723 419.374 91.4803 419.842C91.7056 420.31 92.2256 420.544 93.0403 420.544L95.3543 420.388L95.4843 422C94.323 422.191 93.439 422.286 92.8323 422.286C91.4803 422.286 90.5443 421.957 90.0243 421.298C89.5043 420.639 89.2443 419.383 89.2443 417.528V410.69H87.3983V409H89.2443V405.022H91.1683V409H95.3023V410.69ZM106.862 412.926V419.582C106.914 420.223 107.416 420.605 108.37 420.726L108.292 422.26C106.922 422.26 105.891 421.913 105.198 421.22C103.638 421.913 102.078 422.26 100.518 422.26C99.3215 422.26 98.4115 421.922 97.7875 421.246C97.1635 420.57 96.8515 419.599 96.8515 418.334C96.8515 417.069 97.1722 416.141 97.8135 415.552C98.4549 414.945 99.4602 414.573 100.83 414.434L104.912 414.044V412.926C104.912 412.042 104.721 411.409 104.34 411.028C103.958 410.647 103.438 410.456 102.78 410.456C101.393 410.456 99.9542 410.543 98.4635 410.716L97.6575 410.794L97.5795 409.312C99.4862 408.931 101.176 408.74 102.65 408.74C104.123 408.74 105.189 409.078 105.848 409.754C106.524 410.43 106.862 411.487 106.862 412.926ZM98.8535 418.23C98.8535 419.825 99.5122 420.622 100.83 420.622C102.008 420.622 103.17 420.423 104.314 420.024L104.912 419.816V415.526L101.064 415.89C100.284 415.959 99.7202 416.185 99.3735 416.566C99.0269 416.947 98.8535 417.502 98.8535 418.23ZM110.709 422V409H112.633V410.768C114.141 409.728 115.727 409.043 117.391 408.714V410.69C116.663 410.829 115.9 411.045 115.103 411.34C114.323 411.635 113.725 411.895 113.309 412.12L112.659 412.458V422H110.709ZM126.431 410.69H122.297V416.904C122.297 418.395 122.401 419.374 122.609 419.842C122.835 420.31 123.355 420.544 124.169 420.544L126.483 420.388L126.613 422C125.452 422.191 124.568 422.286 123.961 422.286C122.609 422.286 121.673 421.957 121.153 421.298C120.633 420.639 120.373 419.383 120.373 417.528V410.69H118.527V409H120.373V405.022H122.297V409H126.431V410.69ZM133.459 409H135.409L138.035 420.31H138.451L141.545 409.26H143.573L146.667 420.31H147.109L149.709 409H151.659L148.565 422H145.315L142.559 411.834L139.803 422H136.553L133.459 409ZM163.043 420.388L163.797 420.31L163.849 421.844C161.873 422.121 160.183 422.26 158.779 422.26C156.907 422.26 155.581 421.723 154.801 420.648C154.021 419.556 153.631 417.866 153.631 415.578C153.631 411.019 155.442 408.74 159.065 408.74C160.816 408.74 162.124 409.234 162.991 410.222C163.858 411.193 164.291 412.727 164.291 414.824L164.187 416.306H155.607C155.607 417.745 155.867 418.811 156.387 419.504C156.907 420.197 157.808 420.544 159.091 420.544C160.391 420.544 161.708 420.492 163.043 420.388ZM162.341 414.746C162.341 413.151 162.081 412.025 161.561 411.366C161.058 410.707 160.226 410.378 159.065 410.378C157.921 410.378 157.054 410.725 156.465 411.418C155.893 412.111 155.598 413.221 155.581 414.746H162.341ZM176.17 420.388L176.924 420.31L176.976 421.844C175 422.121 173.31 422.26 171.906 422.26C170.034 422.26 168.708 421.723 167.928 420.648C167.148 419.556 166.758 417.866 166.758 415.578C166.758 411.019 168.569 408.74 172.192 408.74C173.943 408.74 175.251 409.234 176.118 410.222C176.985 411.193 177.418 412.727 177.418 414.824L177.314 416.306H168.734C168.734 417.745 168.994 418.811 169.514 419.504C170.034 420.197 170.935 420.544 172.218 420.544C173.518 420.544 174.835 420.492 176.17 420.388ZM175.468 414.746C175.468 413.151 175.208 412.025 174.688 411.366C174.185 410.707 173.353 410.378 172.192 410.378C171.048 410.378 170.181 410.725 169.592 411.418C169.02 412.111 168.725 413.221 168.708 414.746H175.468ZM182.407 422H180.457V403.332H182.407V414.356L184.435 414.252L188.153 409H190.363L186.125 414.98L190.545 422H188.335L184.461 415.968L182.407 416.046V422ZM193.054 422V403.332H195.004V422H193.054ZM197.694 409H199.644L202.894 420.31H203.752L207.028 409H208.978L203.57 427.772H201.62L203.31 422H201.386L197.694 409ZM225.309 409H227.259V422H225.309V421.09C224.009 421.87 222.727 422.26 221.461 422.26C219.693 422.26 218.515 421.801 217.925 420.882C217.353 419.963 217.067 418.265 217.067 415.786V409H219.017V415.76C219.017 417.649 219.182 418.915 219.511 419.556C219.841 420.197 220.586 420.518 221.747 420.518C222.319 420.518 222.9 420.44 223.489 420.284C224.079 420.111 224.529 419.946 224.841 419.79L225.309 419.556V409ZM231.01 427.772V409H232.934V409.936C234.251 409.139 235.551 408.74 236.834 408.74C238.48 408.74 239.676 409.269 240.422 410.326C241.167 411.366 241.54 413.091 241.54 415.5C241.54 417.909 241.098 419.643 240.214 420.7C239.347 421.74 237.9 422.26 235.872 422.26C234.814 422.26 233.844 422.165 232.96 421.974V427.772H231.01ZM236.548 410.482C236.028 410.482 235.464 410.569 234.858 410.742C234.268 410.915 233.8 411.089 233.454 411.262L232.96 411.522V420.284C234.19 420.475 235.126 420.57 235.768 420.57C237.172 420.57 238.151 420.171 238.706 419.374C239.278 418.577 239.564 417.277 239.564 415.474C239.564 413.671 239.304 412.389 238.784 411.626C238.281 410.863 237.536 410.482 236.548 410.482ZM254.705 403.332V422H252.781V421.116C251.446 421.879 250.129 422.26 248.829 422.26C248.135 422.26 247.529 422.173 247.009 422C246.489 421.827 246.003 421.515 245.553 421.064C244.617 420.128 244.149 418.403 244.149 415.89C244.149 413.359 244.565 411.539 245.397 410.43C246.246 409.303 247.641 408.74 249.583 408.74C250.588 408.74 251.654 408.853 252.781 409.078V403.332H254.705ZM247.061 419.66C247.338 419.989 247.633 420.215 247.945 420.336C248.257 420.457 248.655 420.518 249.141 420.518C249.643 420.518 250.198 420.44 250.805 420.284C251.429 420.111 251.914 419.946 252.261 419.79L252.781 419.556V410.742C251.671 410.534 250.64 410.43 249.687 410.43C248.369 410.43 247.451 410.855 246.931 411.704C246.411 412.536 246.151 413.836 246.151 415.604C246.151 417.615 246.454 418.967 247.061 419.66ZM267.66 412.926V419.582C267.712 420.223 268.215 420.605 269.168 420.726L269.09 422.26C267.721 422.26 266.69 421.913 265.996 421.22C264.436 421.913 262.876 422.26 261.316 422.26C260.12 422.26 259.21 421.922 258.586 421.246C257.962 420.57 257.65 419.599 257.65 418.334C257.65 417.069 257.971 416.141 258.612 415.552C259.254 414.945 260.259 414.573 261.628 414.434L265.71 414.044V412.926C265.71 412.042 265.52 411.409 265.138 411.028C264.757 410.647 264.237 410.456 263.578 410.456C262.192 410.456 260.753 410.543 259.262 410.716L258.456 410.794L258.378 409.312C260.285 408.931 261.975 408.74 263.448 408.74C264.922 408.74 265.988 409.078 266.646 409.754C267.322 410.43 267.66 411.487 267.66 412.926ZM259.652 418.23C259.652 419.825 260.311 420.622 261.628 420.622C262.807 420.622 263.968 420.423 265.112 420.024L265.71 419.816V415.526L261.862 415.89C261.082 415.959 260.519 416.185 260.172 416.566C259.826 416.947 259.652 417.502 259.652 418.23ZM278.242 410.69H274.108V416.904C274.108 418.395 274.212 419.374 274.42 419.842C274.645 420.31 275.165 420.544 275.98 420.544L278.294 420.388L278.424 422C277.262 422.191 276.378 422.286 275.772 422.286C274.42 422.286 273.484 421.957 272.964 421.298C272.444 420.639 272.184 419.383 272.184 417.528V410.69H270.338V409H272.184V405.022H274.108V409H278.242V410.69ZM289.463 420.388L290.217 420.31L290.269 421.844C288.293 422.121 286.603 422.26 285.199 422.26C283.327 422.26 282.001 421.723 281.221 420.648C280.441 419.556 280.051 417.866 280.051 415.578C280.051 411.019 281.862 408.74 285.485 408.74C287.236 408.74 288.544 409.234 289.411 410.222C290.278 411.193 290.711 412.727 290.711 414.824L290.607 416.306H282.027C282.027 417.745 282.287 418.811 282.807 419.504C283.327 420.197 284.228 420.544 285.511 420.544C286.811 420.544 288.128 420.492 289.463 420.388ZM288.761 414.746C288.761 413.151 288.501 412.025 287.981 411.366C287.478 410.707 286.646 410.378 285.485 410.378C284.341 410.378 283.474 410.725 282.885 411.418C282.313 412.111 282.018 413.221 282.001 414.746H288.761ZM297.832 410.482C295.943 410.482 294.998 411.141 294.998 412.458C294.998 413.065 295.215 413.498 295.648 413.758C296.081 414.001 297.069 414.261 298.612 414.538C300.155 414.798 301.247 415.171 301.888 415.656C302.529 416.141 302.85 417.051 302.85 418.386C302.85 419.721 302.417 420.7 301.55 421.324C300.701 421.948 299.453 422.26 297.806 422.26C296.731 422.26 295.466 422.139 294.01 421.896L293.23 421.766L293.334 420.076C295.31 420.371 296.801 420.518 297.806 420.518C298.811 420.518 299.574 420.362 300.094 420.05C300.631 419.721 300.9 419.183 300.9 418.438C300.9 417.675 300.675 417.164 300.224 416.904C299.773 416.627 298.785 416.367 297.26 416.124C295.735 415.881 294.651 415.526 294.01 415.058C293.369 414.59 293.048 413.723 293.048 412.458C293.048 411.193 293.49 410.257 294.374 409.65C295.275 409.043 296.393 408.74 297.728 408.74C298.785 408.74 300.111 408.861 301.706 409.104L302.434 409.234L302.382 410.898C300.458 410.621 298.941 410.482 297.832 410.482ZM310.509 421.74L317.841 403.592L319.583 404.242L312.251 422.364L310.509 421.74ZM326.728 422L331.668 404.008H336.036L340.976 422H339L337.7 417.372H330.004L328.704 422H326.728ZM333.176 405.724L330.446 415.578H337.258L334.528 405.724H333.176ZM343.803 422V404.008H347.417L352.513 419.218L357.609 404.008H361.223V422H359.221V406.14H358.857L353.631 421.35H351.395L346.169 406.14H345.805V422H343.803ZM364.053 422L368.993 404.008H373.361L378.301 422H376.325L375.025 417.372H367.329L366.029 422H364.053ZM370.501 405.724L367.771 415.578H374.583L371.853 405.724H370.501ZM379.62 409.78L379.542 404.008H381.492L381.362 409.78H379.62ZM389.035 410.482C387.146 410.482 386.201 411.141 386.201 412.458C386.201 413.065 386.418 413.498 386.851 413.758C387.284 414.001 388.272 414.261 389.815 414.538C391.358 414.798 392.45 415.171 393.091 415.656C393.732 416.141 394.053 417.051 394.053 418.386C394.053 419.721 393.62 420.7 392.753 421.324C391.904 421.948 390.656 422.26 389.009 422.26C387.934 422.26 386.669 422.139 385.213 421.896L384.433 421.766L384.537 420.076C386.513 420.371 388.004 420.518 389.009 420.518C390.014 420.518 390.777 420.362 391.297 420.05C391.834 419.721 392.103 419.183 392.103 418.438C392.103 417.675 391.878 417.164 391.427 416.904C390.976 416.627 389.988 416.367 388.463 416.124C386.938 415.881 385.854 415.526 385.213 415.058C384.572 414.59 384.251 413.723 384.251 412.458C384.251 411.193 384.693 410.257 385.577 409.65C386.478 409.043 387.596 408.74 388.931 408.74C389.988 408.74 391.314 408.861 392.909 409.104L393.637 409.234L393.585 410.898C391.661 410.621 390.144 410.482 389.035 410.482Z" fill="white"/>
</svg>
