<svg width="550" height="463" viewBox="0 0 550 463" fill="none" xmlns="http://www.w3.org/2000/svg">
<rect x="1.5" y="1.5" width="547" height="460" rx="8.5" fill="black" stroke="#CCA354" stroke-width="3"/>
<circle cx="43.5" cy="53.5" r="7.5" fill="#CCA354"/>
<circle cx="43.5" cy="113.5" r="7.5" fill="#CCA354"/>
<circle cx="43.5" cy="173.5" r="7.5" fill="#CCA354"/>
<circle cx="43.5" cy="233.5" r="7.5" fill="#CCA354"/>
<circle cx="43.5" cy="293.5" r="7.5" fill="#CCA354"/>
<circle cx="43.5" cy="353.5" r="7.5" fill="#CCA354"/>
<circle cx="43.5" cy="413.5" r="7.5" fill="#CCA354"/>
<path d="M79.5086 62H69.6026V44.008H71.6046V60.206H79.5086V62ZM90.884 52.926V59.582C90.936 60.2233 91.4387 60.6047 92.392 60.726L92.314 62.26C90.9447 62.26 89.9133 61.9133 89.22 61.22C87.66 61.9133 86.1 62.26 84.54 62.26C83.344 62.26 82.434 61.922 81.81 61.246C81.186 60.57 80.874 59.5993 80.874 58.334C80.874 57.0687 81.1947 56.1413 81.836 55.552C82.4773 54.9453 83.4827 54.5727 84.852 54.434L88.934 54.044V52.926C88.934 52.042 88.7433 51.4093 88.362 51.028C87.9807 50.6467 87.4607 50.456 86.802 50.456C85.4153 50.456 83.9767 50.5427 82.486 50.716L81.68 50.794L81.602 49.312C83.5087 48.9307 85.1987 48.74 86.672 48.74C88.1453 48.74 89.2113 49.078 89.87 49.754C90.546 50.43 90.884 51.4873 90.884 52.926ZM82.876 58.23C82.876 59.8247 83.5347 60.622 84.852 60.622C86.0307 60.622 87.192 60.4227 88.336 60.024L88.934 59.816V55.526L85.086 55.89C84.306 55.9593 83.7427 56.1847 83.396 56.566C83.0493 56.9473 82.876 57.502 82.876 58.23ZM102.843 49H104.793V62H102.843V61.09C101.543 61.87 100.261 62.26 98.9954 62.26C97.2274 62.26 96.0487 61.8007 95.4594 60.882C94.8874 59.9633 94.6014 58.2647 94.6014 55.786V49H96.5514V55.76C96.5514 57.6493 96.716 58.9147 97.0454 59.556C97.3747 60.1973 98.12 60.518 99.2814 60.518C99.8534 60.518 100.434 60.44 101.023 60.284C101.613 60.1107 102.063 59.946 102.375 59.79L102.843 59.556V49ZM110.494 62H108.544V49H110.468V49.91C111.872 49.13 113.215 48.74 114.498 48.74C116.231 48.74 117.393 49.208 117.982 50.144C118.589 51.08 118.892 52.744 118.892 55.136V62H116.968V55.188C116.968 53.3853 116.786 52.1547 116.422 51.496C116.075 50.82 115.321 50.482 114.16 50.482C113.605 50.482 113.016 50.5687 112.392 50.742C111.785 50.898 111.317 51.054 110.988 51.21L110.494 51.444V62ZM127.371 48.74C127.943 48.74 128.913 48.844 130.283 49.052L130.907 49.13L130.829 50.716C129.442 50.56 128.419 50.482 127.761 50.482C126.287 50.482 125.282 50.8373 124.745 51.548C124.225 52.2413 123.965 53.5413 123.965 55.448C123.965 57.3373 124.207 58.6547 124.693 59.4C125.195 60.1453 126.227 60.518 127.787 60.518L130.855 60.284L130.933 61.896C129.321 62.1387 128.116 62.26 127.319 62.26C125.291 62.26 123.887 61.74 123.107 60.7C122.344 59.66 121.963 57.9093 121.963 55.448C121.963 52.9693 122.379 51.236 123.211 50.248C124.043 49.2427 125.429 48.74 127.371 48.74ZM135.783 62H133.833V43.332H135.783V49.728C137.17 49.0693 138.504 48.74 139.787 48.74C141.52 48.74 142.682 49.208 143.271 50.144C143.878 51.08 144.181 52.744 144.181 55.136V62H142.231V55.188C142.231 53.3853 142.049 52.1547 141.685 51.496C141.338 50.82 140.593 50.482 139.449 50.482C138.357 50.482 137.3 50.6813 136.277 51.08L135.783 51.262V62ZM158.815 45.49C156.215 45.49 154.915 46.4693 154.915 48.428C154.915 49.52 155.209 50.274 155.799 50.69C156.405 51.0887 157.619 51.496 159.439 51.912C161.276 52.3107 162.576 52.8393 163.339 53.498C164.101 54.1393 164.483 55.2053 164.483 56.696C164.483 60.388 162.567 62.234 158.737 62.234C157.471 62.234 155.885 62.0867 153.979 61.792L153.043 61.662L153.251 59.998C155.608 60.31 157.402 60.466 158.633 60.466C161.198 60.466 162.481 59.2613 162.481 56.852C162.481 55.8813 162.195 55.188 161.623 54.772C161.068 54.3387 160.019 53.9747 158.477 53.68C156.449 53.2467 155.01 52.692 154.161 52.016C153.311 51.3227 152.887 50.17 152.887 48.558C152.887 45.334 154.819 43.722 158.685 43.722C159.95 43.722 161.467 43.852 163.235 44.112L164.119 44.242L163.937 45.932C161.527 45.6373 159.82 45.49 158.815 45.49ZM167.03 55.474C167.03 53.0993 167.455 51.3833 168.304 50.326C169.154 49.2687 170.584 48.74 172.594 48.74C174.622 48.74 176.052 49.2687 176.884 50.326C177.734 51.3833 178.158 53.0993 178.158 55.474C178.158 57.8487 177.76 59.5733 176.962 60.648C176.165 61.7227 174.709 62.26 172.594 62.26C170.48 62.26 169.024 61.7227 168.226 60.648C167.429 59.5733 167.03 57.8487 167.03 55.474ZM169.032 55.448C169.032 57.3373 169.258 58.6633 169.708 59.426C170.176 60.1887 171.138 60.57 172.594 60.57C174.068 60.57 175.03 60.1973 175.48 59.452C175.931 58.6893 176.156 57.3547 176.156 55.448C176.156 53.5413 175.905 52.2327 175.402 51.522C174.9 50.794 173.964 50.43 172.594 50.43C171.242 50.43 170.306 50.794 169.786 51.522C169.284 52.2327 169.032 53.5413 169.032 55.448ZM186.201 48.74C186.773 48.74 187.743 48.844 189.113 49.052L189.737 49.13L189.659 50.716C188.272 50.56 187.249 50.482 186.591 50.482C185.117 50.482 184.112 50.8373 183.575 51.548C183.055 52.2413 182.795 53.5413 182.795 55.448C182.795 57.3373 183.037 58.6547 183.523 59.4C184.025 60.1453 185.057 60.518 186.617 60.518L189.685 60.284L189.763 61.896C188.151 62.1387 186.946 62.26 186.149 62.26C184.121 62.26 182.717 61.74 181.937 60.7C181.174 59.66 180.793 57.9093 180.793 55.448C180.793 52.9693 181.209 51.236 182.041 50.248C182.873 49.2427 184.259 48.74 186.201 48.74ZM192.663 62V49H194.613V62H192.663ZM192.663 46.062V43.8H194.613V46.062H192.663ZM207.529 52.926V59.582C207.581 60.2233 208.083 60.6047 209.037 60.726L208.959 62.26C207.589 62.26 206.558 61.9133 205.865 61.22C204.305 61.9133 202.745 62.26 201.185 62.26C199.989 62.26 199.079 61.922 198.455 61.246C197.831 60.57 197.519 59.5993 197.519 58.334C197.519 57.0687 197.839 56.1413 198.481 55.552C199.122 54.9453 200.127 54.5727 201.497 54.434L205.579 54.044V52.926C205.579 52.042 205.388 51.4093 205.007 51.028C204.625 50.6467 204.105 50.456 203.447 50.456C202.06 50.456 200.621 50.5427 199.131 50.716L198.325 50.794L198.247 49.312C200.153 48.9307 201.843 48.74 203.317 48.74C204.79 48.74 205.856 49.078 206.515 49.754C207.191 50.43 207.529 51.4873 207.529 52.926ZM199.521 58.23C199.521 59.8247 200.179 60.622 201.497 60.622C202.675 60.622 203.837 60.4227 204.981 60.024L205.579 59.816V55.526L201.731 55.89C200.951 55.9593 200.387 56.1847 200.041 56.566C199.694 56.9473 199.521 57.502 199.521 58.23ZM211.532 62V43.332H213.482V62H211.532ZM221.475 50.482C219.586 50.482 218.641 51.1407 218.641 52.458C218.641 53.0647 218.858 53.498 219.291 53.758C219.725 54.0007 220.713 54.2607 222.255 54.538C223.798 54.798 224.89 55.1707 225.531 55.656C226.173 56.1413 226.493 57.0513 226.493 58.386C226.493 59.7207 226.06 60.7 225.193 61.324C224.344 61.948 223.096 62.26 221.449 62.26C220.375 62.26 219.109 62.1387 217.653 61.896L216.873 61.766L216.977 60.076C218.953 60.3707 220.444 60.518 221.449 60.518C222.455 60.518 223.217 60.362 223.737 60.05C224.275 59.7207 224.543 59.1833 224.543 58.438C224.543 57.6753 224.318 57.164 223.867 56.904C223.417 56.6267 222.429 56.3667 220.903 56.124C219.378 55.8813 218.295 55.526 217.653 55.058C217.012 54.59 216.691 53.7233 216.691 52.458C216.691 51.1927 217.133 50.2567 218.017 49.65C218.919 49.0433 220.037 48.74 221.371 48.74C222.429 48.74 223.755 48.8613 225.349 49.104L226.077 49.234L226.025 50.898C224.101 50.6207 222.585 50.482 221.475 50.482Z" fill="white"/>
<path d="M80.739 122H70.833V104.008H72.835V120.206H80.739V122ZM92.1145 112.926V119.582C92.1665 120.223 92.6691 120.605 93.6225 120.726L93.5445 122.26C92.1751 122.26 91.1438 121.913 90.4505 121.22C88.8905 121.913 87.3305 122.26 85.7705 122.26C84.5745 122.26 83.6645 121.922 83.0405 121.246C82.4165 120.57 82.1045 119.599 82.1045 118.334C82.1045 117.069 82.4251 116.141 83.0665 115.552C83.7078 114.945 84.7131 114.573 86.0825 114.434L90.1645 114.044V112.926C90.1645 112.042 89.9738 111.409 89.5925 111.028C89.2111 110.647 88.6911 110.456 88.0325 110.456C86.6458 110.456 85.2071 110.543 83.7165 110.716L82.9105 110.794L82.8325 109.312C84.7391 108.931 86.4291 108.74 87.9025 108.74C89.3758 108.74 90.4418 109.078 91.1005 109.754C91.7765 110.43 92.1145 111.487 92.1145 112.926ZM84.1065 118.23C84.1065 119.825 84.7651 120.622 86.0825 120.622C87.2611 120.622 88.4225 120.423 89.5665 120.024L90.1645 119.816V115.526L86.3165 115.89C85.5365 115.959 84.9731 116.185 84.6265 116.566C84.2798 116.947 84.1065 117.502 84.1065 118.23ZM104.074 109H106.024V122H104.074V121.09C102.774 121.87 101.491 122.26 100.226 122.26C98.4578 122.26 97.2792 121.801 96.6898 120.882C96.1178 119.963 95.8318 118.265 95.8318 115.786V109H97.7818V115.76C97.7818 117.649 97.9465 118.915 98.2758 119.556C98.6052 120.197 99.3505 120.518 100.512 120.518C101.084 120.518 101.665 120.44 102.254 120.284C102.843 120.111 103.294 119.946 103.606 119.79L104.074 119.556V109ZM111.724 122H109.774V109H111.698V109.91C113.102 109.13 114.446 108.74 115.728 108.74C117.462 108.74 118.623 109.208 119.212 110.144C119.819 111.08 120.122 112.744 120.122 115.136V122H118.198V115.188C118.198 113.385 118.016 112.155 117.652 111.496C117.306 110.82 116.552 110.482 115.39 110.482C114.836 110.482 114.246 110.569 113.622 110.742C113.016 110.898 112.548 111.054 112.218 111.21L111.724 111.444V122ZM128.601 108.74C129.173 108.74 130.144 108.844 131.513 109.052L132.137 109.13L132.059 110.716C130.673 110.56 129.65 110.482 128.991 110.482C127.518 110.482 126.513 110.837 125.975 111.548C125.455 112.241 125.195 113.541 125.195 115.448C125.195 117.337 125.438 118.655 125.923 119.4C126.426 120.145 127.457 120.518 129.017 120.518L132.085 120.284L132.163 121.896C130.551 122.139 129.347 122.26 128.549 122.26C126.521 122.26 125.117 121.74 124.337 120.7C123.575 119.66 123.193 117.909 123.193 115.448C123.193 112.969 123.609 111.236 124.441 110.248C125.273 109.243 126.66 108.74 128.601 108.74ZM137.013 122H135.063V103.332H137.013V109.728C138.4 109.069 139.735 108.74 141.017 108.74C142.751 108.74 143.912 109.208 144.501 110.144C145.108 111.08 145.411 112.744 145.411 115.136V122H143.461V115.188C143.461 113.385 143.279 112.155 142.915 111.496C142.569 110.82 141.823 110.482 140.679 110.482C139.587 110.482 138.53 110.681 137.507 111.08L137.013 111.262V122ZM163.919 112.926V119.582C163.971 120.223 164.474 120.605 165.427 120.726L165.349 122.26C163.98 122.26 162.948 121.913 162.255 121.22C160.695 121.913 159.135 122.26 157.575 122.26C156.379 122.26 155.469 121.922 154.845 121.246C154.221 120.57 153.909 119.599 153.909 118.334C153.909 117.069 154.23 116.141 154.871 115.552C155.512 114.945 156.518 114.573 157.887 114.434L161.969 114.044V112.926C161.969 112.042 161.778 111.409 161.397 111.028C161.016 110.647 160.496 110.456 159.837 110.456C158.45 110.456 157.012 110.543 155.521 110.716L154.715 110.794L154.637 109.312C156.544 108.931 158.234 108.74 159.707 108.74C161.18 108.74 162.246 109.078 162.905 109.754C163.581 110.43 163.919 111.487 163.919 112.926ZM155.911 118.23C155.911 119.825 156.57 120.622 157.887 120.622C159.066 120.622 160.227 120.423 161.371 120.024L161.969 119.816V115.526L158.121 115.89C157.341 115.959 156.778 116.185 156.431 116.566C156.084 116.947 155.911 117.502 155.911 118.23ZM167.767 122V109H169.717V122H167.767ZM167.767 106.062V103.8H169.717V106.062H167.767ZM173.454 122V109H175.378V110.768C176.886 109.728 178.472 109.043 180.136 108.714V110.69C179.408 110.829 178.645 111.045 177.848 111.34C177.068 111.635 176.47 111.895 176.054 112.12L175.404 112.458V122H173.454ZM192.096 103.332V122H190.172V121.116C188.838 121.879 187.52 122.26 186.22 122.26C185.527 122.26 184.92 122.173 184.4 122C183.88 121.827 183.395 121.515 182.944 121.064C182.008 120.128 181.54 118.403 181.54 115.89C181.54 113.359 181.956 111.539 182.788 110.43C183.638 109.303 185.033 108.74 186.974 108.74C187.98 108.74 189.046 108.853 190.172 109.078V103.332H192.096ZM184.452 119.66C184.73 119.989 185.024 120.215 185.336 120.336C185.648 120.457 186.047 120.518 186.532 120.518C187.035 120.518 187.59 120.44 188.196 120.284C188.82 120.111 189.306 119.946 189.652 119.79L190.172 119.556V110.742C189.063 110.534 188.032 110.43 187.078 110.43C185.761 110.43 184.842 110.855 184.322 111.704C183.802 112.536 183.542 113.836 183.542 115.604C183.542 117.615 183.846 118.967 184.452 119.66ZM195.874 122V109H197.798V110.768C199.306 109.728 200.892 109.043 202.556 108.714V110.69C201.828 110.829 201.065 111.045 200.268 111.34C199.488 111.635 198.89 111.895 198.474 112.12L197.824 112.458V122H195.874ZM204.036 115.474C204.036 113.099 204.461 111.383 205.31 110.326C206.16 109.269 207.59 108.74 209.6 108.74C211.628 108.74 213.058 109.269 213.89 110.326C214.74 111.383 215.164 113.099 215.164 115.474C215.164 117.849 214.766 119.573 213.968 120.648C213.171 121.723 211.715 122.26 209.6 122.26C207.486 122.26 206.03 121.723 205.232 120.648C204.435 119.573 204.036 117.849 204.036 115.474ZM206.038 115.448C206.038 117.337 206.264 118.663 206.714 119.426C207.182 120.189 208.144 120.57 209.6 120.57C211.074 120.57 212.036 120.197 212.486 119.452C212.937 118.689 213.162 117.355 213.162 115.448C213.162 113.541 212.911 112.233 212.408 111.522C211.906 110.794 210.97 110.43 209.6 110.43C208.248 110.43 207.312 110.794 206.792 111.522C206.29 112.233 206.038 113.541 206.038 115.448ZM218.345 127.772V109H220.269V109.936C221.586 109.139 222.886 108.74 224.169 108.74C225.815 108.74 227.011 109.269 227.757 110.326C228.502 111.366 228.875 113.091 228.875 115.5C228.875 117.909 228.433 119.643 227.549 120.7C226.682 121.74 225.235 122.26 223.207 122.26C222.149 122.26 221.179 122.165 220.295 121.974V127.772H218.345ZM223.883 110.482C223.363 110.482 222.799 110.569 222.193 110.742C221.603 110.915 221.135 111.089 220.789 111.262L220.295 111.522V120.284C221.525 120.475 222.461 120.57 223.103 120.57C224.507 120.57 225.486 120.171 226.041 119.374C226.613 118.577 226.899 117.277 226.899 115.474C226.899 113.671 226.639 112.389 226.119 111.626C225.616 110.863 224.871 110.482 223.883 110.482ZM239.536 107.596C239.536 106.435 239.935 105.507 240.732 104.814C241.53 104.121 242.656 103.774 244.112 103.774C245.568 103.774 246.669 104.121 247.414 104.814C248.177 105.507 248.558 106.469 248.558 107.7C248.558 108.913 248.255 109.875 247.648 110.586C247.042 111.279 246.01 111.964 244.554 112.64L248.506 116.54C248.888 115.431 249.13 114.027 249.234 112.328L251.132 112.354C250.907 114.521 250.508 116.323 249.936 117.762L253.29 120.934L252.12 122.234L248.974 119.296C247.778 121.272 245.967 122.26 243.54 122.26C241.114 122.26 239.415 121.792 238.444 120.856C237.474 119.92 236.988 118.629 236.988 116.982C236.988 115.318 237.3 114.105 237.924 113.342C238.566 112.562 239.597 111.938 241.018 111.47C240.412 110.777 240.013 110.161 239.822 109.624C239.632 109.087 239.536 108.411 239.536 107.596ZM243.228 120.492C245.36 120.492 246.825 119.712 247.622 118.152L242.136 112.692C240.992 113.056 240.178 113.524 239.692 114.096C239.207 114.668 238.964 115.552 238.964 116.748C238.964 119.244 240.386 120.492 243.228 120.492ZM241.486 107.908C241.486 108.965 241.876 109.91 242.656 110.742L243.41 111.47C244.606 110.95 245.438 110.439 245.906 109.936C246.374 109.433 246.608 108.74 246.608 107.856C246.608 106.261 245.75 105.464 244.034 105.464C242.336 105.464 241.486 106.279 241.486 107.908ZM266.244 108.74C266.816 108.74 267.786 108.844 269.156 109.052L269.78 109.13L269.702 110.716C268.315 110.56 267.292 110.482 266.634 110.482C265.16 110.482 264.155 110.837 263.618 111.548C263.098 112.241 262.838 113.541 262.838 115.448C262.838 117.337 263.08 118.655 263.566 119.4C264.068 120.145 265.1 120.518 266.66 120.518L269.728 120.284L269.806 121.896C268.194 122.139 266.989 122.26 266.192 122.26C264.164 122.26 262.76 121.74 261.98 120.7C261.217 119.66 260.836 117.909 260.836 115.448C260.836 112.969 261.252 111.236 262.084 110.248C262.916 109.243 264.302 108.74 266.244 108.74ZM271.982 115.474C271.982 113.099 272.406 111.383 273.256 110.326C274.105 109.269 275.535 108.74 277.546 108.74C279.574 108.74 281.004 109.269 281.836 110.326C282.685 111.383 283.11 113.099 283.11 115.474C283.11 117.849 282.711 119.573 281.914 120.648C281.116 121.723 279.66 122.26 277.546 122.26C275.431 122.26 273.975 121.723 273.178 120.648C272.38 119.573 271.982 117.849 271.982 115.474ZM273.984 115.448C273.984 117.337 274.209 118.663 274.66 119.426C275.128 120.189 276.09 120.57 277.546 120.57C279.019 120.57 279.981 120.197 280.432 119.452C280.882 118.689 281.108 117.355 281.108 115.448C281.108 113.541 280.856 112.233 280.354 111.522C279.851 110.794 278.915 110.43 277.546 110.43C276.194 110.43 275.258 110.794 274.738 111.522C274.235 112.233 273.984 113.541 273.984 115.448ZM288.24 122H286.29V109H288.214V109.91C289.514 109.13 290.779 108.74 292.01 108.74C293.622 108.74 294.749 109.182 295.39 110.066C295.962 109.719 296.699 109.416 297.6 109.156C298.519 108.879 299.325 108.74 300.018 108.74C301.751 108.74 302.913 109.208 303.502 110.144C304.109 111.063 304.412 112.727 304.412 115.136V122H302.462V115.188C302.462 113.385 302.289 112.155 301.942 111.496C301.595 110.82 300.859 110.482 299.732 110.482C299.16 110.482 298.571 110.569 297.964 110.742C297.357 110.898 296.889 111.054 296.56 111.21L296.066 111.444C296.291 112.016 296.404 113.281 296.404 115.24V122H294.454V115.292C294.454 113.42 294.281 112.155 293.934 111.496C293.605 110.82 292.868 110.482 291.724 110.482C291.169 110.482 290.597 110.569 290.008 110.742C289.436 110.898 288.994 111.054 288.682 111.21L288.24 111.444V122ZM309.974 122H308.024V109H309.948V109.91C311.248 109.13 312.514 108.74 313.744 108.74C315.356 108.74 316.483 109.182 317.124 110.066C317.696 109.719 318.433 109.416 319.334 109.156C320.253 108.879 321.059 108.74 321.752 108.74C323.486 108.74 324.647 109.208 325.236 110.144C325.843 111.063 326.146 112.727 326.146 115.136V122H324.196V115.188C324.196 113.385 324.023 112.155 323.676 111.496C323.33 110.82 322.593 110.482 321.466 110.482C320.894 110.482 320.305 110.569 319.698 110.742C319.092 110.898 318.624 111.054 318.294 111.21L317.8 111.444C318.026 112.016 318.138 113.281 318.138 115.24V122H316.188V115.292C316.188 113.42 316.015 112.155 315.668 111.496C315.339 110.82 314.602 110.482 313.458 110.482C312.904 110.482 312.332 110.569 311.742 110.742C311.17 110.898 310.728 111.054 310.416 111.21L309.974 111.444V122ZM337.871 109H339.821V122H337.871V121.09C336.571 121.87 335.288 122.26 334.023 122.26C332.255 122.26 331.076 121.801 330.487 120.882C329.915 119.963 329.629 118.265 329.629 115.786V109H331.579V115.76C331.579 117.649 331.743 118.915 332.073 119.556C332.402 120.197 333.147 120.518 334.309 120.518C334.881 120.518 335.461 120.44 336.051 120.284C336.64 120.111 337.091 119.946 337.403 119.79L337.871 119.556V109ZM345.521 122H343.571V109H345.495V109.91C346.899 109.13 348.243 108.74 349.525 108.74C351.259 108.74 352.42 109.208 353.009 110.144C353.616 111.08 353.919 112.744 353.919 115.136V122H351.995V115.188C351.995 113.385 351.813 112.155 351.449 111.496C351.103 110.82 350.349 110.482 349.187 110.482C348.633 110.482 348.043 110.569 347.419 110.742C346.813 110.898 346.345 111.054 346.015 111.21L345.521 111.444V122ZM357.536 122V109H359.486V122H357.536ZM357.536 106.062V103.8H359.486V106.062H357.536ZM369.958 110.69H365.824V116.904C365.824 118.395 365.928 119.374 366.136 119.842C366.361 120.31 366.881 120.544 367.696 120.544L370.01 120.388L370.14 122C368.978 122.191 368.094 122.286 367.488 122.286C366.136 122.286 365.2 121.957 364.68 121.298C364.16 120.639 363.9 119.383 363.9 117.528V110.69H362.054V109H363.9V105.022H365.824V109H369.958V110.69ZM371.117 109H373.067L376.317 120.31H377.175L380.451 109H382.401L376.993 127.772H375.043L376.733 122H374.809L371.117 109ZM395.638 128.11C393.558 128.11 392.102 127.824 391.27 127.252C390.455 126.697 390.048 125.675 390.048 124.184C390.048 123.473 390.204 122.893 390.516 122.442C390.828 122.009 391.357 121.515 392.102 120.96C391.617 120.631 391.374 120.033 391.374 119.166C391.374 118.871 391.591 118.325 392.024 117.528L392.258 117.112C390.889 116.488 390.204 115.179 390.204 113.186C390.204 110.222 391.825 108.74 395.066 108.74C395.898 108.74 396.669 108.827 397.38 109L397.77 109.078L401.618 108.974V110.638L399.148 110.586C399.72 111.158 400.006 112.025 400.006 113.186C400.006 114.815 399.599 115.959 398.784 116.618C397.987 117.259 396.721 117.58 394.988 117.58C394.52 117.58 394.095 117.545 393.714 117.476C393.402 118.239 393.246 118.733 393.246 118.958C393.246 119.495 393.411 119.833 393.74 119.972C394.069 120.093 395.066 120.154 396.73 120.154C398.394 120.154 399.59 120.414 400.318 120.934C401.046 121.454 401.41 122.468 401.41 123.976C401.41 126.732 399.486 128.11 395.638 128.11ZM391.972 124.028C391.972 124.947 392.223 125.579 392.726 125.926C393.246 126.29 394.191 126.472 395.56 126.472C396.947 126.472 397.935 126.281 398.524 125.9C399.131 125.519 399.434 124.877 399.434 123.976C399.434 123.092 399.217 122.52 398.784 122.26C398.351 122 397.501 121.87 396.236 121.87L393.428 121.74C392.856 122.156 392.466 122.52 392.258 122.832C392.067 123.144 391.972 123.543 391.972 124.028ZM392.154 113.186C392.154 114.209 392.379 114.937 392.83 115.37C393.298 115.803 394.061 116.02 395.118 116.02C396.175 116.02 396.929 115.803 397.38 115.37C397.831 114.937 398.056 114.209 398.056 113.186C398.056 112.146 397.831 111.409 397.38 110.976C396.929 110.543 396.175 110.326 395.118 110.326C394.061 110.326 393.298 110.551 392.83 111.002C392.379 111.435 392.154 112.163 392.154 113.186ZM403.976 122V109H405.926V122H403.976ZM403.976 106.062V103.8H405.926V106.062H403.976ZM408.441 109H410.521L413.563 120.31H414.525L417.671 109H419.673L416.007 122H412.107L408.441 109ZM430.792 120.388L431.546 120.31L431.598 121.844C429.622 122.121 427.932 122.26 426.528 122.26C424.656 122.26 423.33 121.723 422.55 120.648C421.77 119.556 421.38 117.866 421.38 115.578C421.38 111.019 423.191 108.74 426.814 108.74C428.565 108.74 429.873 109.234 430.74 110.222C431.607 111.193 432.04 112.727 432.04 114.824L431.936 116.306H423.356C423.356 117.745 423.616 118.811 424.136 119.504C424.656 120.197 425.557 120.544 426.84 120.544C428.14 120.544 429.457 120.492 430.792 120.388ZM430.09 114.746C430.09 113.151 429.83 112.025 429.31 111.366C428.807 110.707 427.975 110.378 426.814 110.378C425.67 110.378 424.803 110.725 424.214 111.418C423.642 112.111 423.347 113.221 423.33 114.746H430.09ZM444.257 112.926V119.582C444.309 120.223 444.812 120.605 445.765 120.726L445.687 122.26C444.318 122.26 443.286 121.913 442.593 121.22C441.033 121.913 439.473 122.26 437.913 122.26C436.717 122.26 435.807 121.922 435.183 121.246C434.559 120.57 434.247 119.599 434.247 118.334C434.247 117.069 434.568 116.141 435.209 115.552C435.85 114.945 436.856 114.573 438.225 114.434L442.307 114.044V112.926C442.307 112.042 442.116 111.409 441.735 111.028C441.354 110.647 440.834 110.456 440.175 110.456C438.788 110.456 437.35 110.543 435.859 110.716L435.053 110.794L434.975 109.312C436.882 108.931 438.572 108.74 440.045 108.74C441.518 108.74 442.584 109.078 443.243 109.754C443.919 110.43 444.257 111.487 444.257 112.926ZM436.249 118.23C436.249 119.825 436.908 120.622 438.225 120.622C439.404 120.622 440.565 120.423 441.709 120.024L442.307 119.816V115.526L438.459 115.89C437.679 115.959 437.116 116.185 436.769 116.566C436.422 116.947 436.249 117.502 436.249 118.23ZM447.038 109H448.988L451.614 120.31H452.03L455.124 109.26H457.152L460.246 120.31H460.688L463.288 109H465.238L462.144 122H458.894L456.138 111.834L453.382 122H450.132L447.038 109ZM476.96 112.926V119.582C477.012 120.223 477.515 120.605 478.468 120.726L478.39 122.26C477.021 122.26 475.989 121.913 475.296 121.22C473.736 121.913 472.176 122.26 470.616 122.26C469.42 122.26 468.51 121.922 467.886 121.246C467.262 120.57 466.95 119.599 466.95 118.334C466.95 117.069 467.271 116.141 467.912 115.552C468.553 114.945 469.559 114.573 470.928 114.434L475.01 114.044V112.926C475.01 112.042 474.819 111.409 474.438 111.028C474.057 110.647 473.537 110.456 472.878 110.456C471.491 110.456 470.053 110.543 468.562 110.716L467.756 110.794L467.678 109.312C469.585 108.931 471.275 108.74 472.748 108.74C474.221 108.74 475.287 109.078 475.946 109.754C476.622 110.43 476.96 111.487 476.96 112.926ZM468.952 118.23C468.952 119.825 469.611 120.622 470.928 120.622C472.107 120.622 473.268 120.423 474.412 120.024L475.01 119.816V115.526L471.162 115.89C470.382 115.959 469.819 116.185 469.472 116.566C469.125 116.947 468.952 117.502 468.952 118.23ZM479.459 109H481.409L484.659 120.31H485.517L488.793 109H490.743L485.335 127.772H483.385L485.075 122H483.151L479.459 109Z" fill="white"/>
<path d="M73.4187 164.84V182H71.4167V167.076L66.9967 169.988L66.0867 168.48L71.5467 164.84H73.4187ZM85.1075 164.554C86.5288 164.554 87.6815 164.823 88.5655 165.36C90.4375 166.469 91.3735 169.243 91.3735 173.68C91.3735 176.817 90.8535 179.036 89.8135 180.336C88.7735 181.619 87.2135 182.26 85.1335 182.26C83.0535 182.26 81.4848 181.627 80.4275 180.362C79.3875 179.079 78.8675 176.809 78.8675 173.55C78.8675 170.274 79.3788 167.96 80.4015 166.608C81.4415 165.239 83.0102 164.554 85.1075 164.554ZM85.1335 166.348C84.1455 166.348 83.3655 166.556 82.7935 166.972C81.5628 167.821 80.9475 170.066 80.9475 173.706C80.9475 176.271 81.2855 178.048 81.9615 179.036C82.6375 180.007 83.6948 180.492 85.1335 180.492C86.5722 180.492 87.6295 179.998 88.3055 179.01C88.9815 178.022 89.3195 176.193 89.3195 173.524C89.3195 170.837 88.9902 168.974 88.3315 167.934C87.6902 166.877 86.6242 166.348 85.1335 166.348ZM99.6563 164.554C101.078 164.554 102.23 164.823 103.114 165.36C104.986 166.469 105.922 169.243 105.922 173.68C105.922 176.817 105.402 179.036 104.362 180.336C103.322 181.619 101.762 182.26 99.6823 182.26C97.6023 182.26 96.0337 181.627 94.9763 180.362C93.9363 179.079 93.4163 176.809 93.4163 173.55C93.4163 170.274 93.9277 167.96 94.9503 166.608C95.9903 165.239 97.559 164.554 99.6563 164.554ZM99.6823 166.348C98.6943 166.348 97.9143 166.556 97.3423 166.972C96.1117 167.821 95.4963 170.066 95.4963 173.706C95.4963 176.271 95.8343 178.048 96.5103 179.036C97.1863 180.007 98.2437 180.492 99.6823 180.492C101.121 180.492 102.178 179.998 102.854 179.01C103.53 178.022 103.868 176.193 103.868 173.524C103.868 170.837 103.539 168.974 102.88 167.934C102.239 166.877 101.173 166.348 99.6823 166.348ZM114.205 164.554C115.627 164.554 116.779 164.823 117.663 165.36C119.535 166.469 120.471 169.243 120.471 173.68C120.471 176.817 119.951 179.036 118.911 180.336C117.871 181.619 116.311 182.26 114.231 182.26C112.151 182.26 110.583 181.627 109.525 180.362C108.485 179.079 107.965 176.809 107.965 173.55C107.965 170.274 108.477 167.96 109.499 166.608C110.539 165.239 112.108 164.554 114.205 164.554ZM114.231 166.348C113.243 166.348 112.463 166.556 111.891 166.972C110.661 167.821 110.045 170.066 110.045 173.706C110.045 176.271 110.383 178.048 111.059 179.036C111.735 180.007 112.793 180.492 114.231 180.492C115.67 180.492 116.727 179.998 117.403 179.01C118.079 178.022 118.417 176.193 118.417 173.524C118.417 170.837 118.088 168.974 117.429 167.934C116.788 166.877 115.722 166.348 114.231 166.348ZM131.035 182H129.085V169H131.009V169.91C132.309 169.13 133.574 168.74 134.805 168.74C136.417 168.74 137.544 169.182 138.185 170.066C138.757 169.719 139.494 169.416 140.395 169.156C141.314 168.879 142.12 168.74 142.813 168.74C144.546 168.74 145.708 169.208 146.297 170.144C146.904 171.063 147.207 172.727 147.207 175.136V182H145.257V175.188C145.257 173.385 145.084 172.155 144.737 171.496C144.39 170.82 143.654 170.482 142.527 170.482C141.955 170.482 141.366 170.569 140.759 170.742C140.152 170.898 139.684 171.054 139.355 171.21L138.861 171.444C139.086 172.016 139.199 173.281 139.199 175.24V182H137.249V175.292C137.249 173.42 137.076 172.155 136.729 171.496C136.4 170.82 135.663 170.482 134.519 170.482C133.964 170.482 133.392 170.569 132.803 170.742C132.231 170.898 131.789 171.054 131.477 171.21L131.035 171.444V182ZM159.659 180.388L160.413 180.31L160.465 181.844C158.489 182.121 156.799 182.26 155.395 182.26C153.523 182.26 152.197 181.723 151.417 180.648C150.637 179.556 150.247 177.866 150.247 175.578C150.247 171.019 152.059 168.74 155.681 168.74C157.432 168.74 158.741 169.234 159.607 170.222C160.474 171.193 160.907 172.727 160.907 174.824L160.803 176.306H152.223C152.223 177.745 152.483 178.811 153.003 179.504C153.523 180.197 154.425 180.544 155.707 180.544C157.007 180.544 158.325 180.492 159.659 180.388ZM158.957 174.746C158.957 173.151 158.697 172.025 158.177 171.366C157.675 170.707 156.843 170.378 155.681 170.378C154.537 170.378 153.671 170.725 153.081 171.418C152.509 172.111 152.215 173.221 152.197 174.746H158.957ZM165.896 182H163.946V169H165.87V169.91C167.17 169.13 168.436 168.74 169.666 168.74C171.278 168.74 172.405 169.182 173.046 170.066C173.618 169.719 174.355 169.416 175.256 169.156C176.175 168.879 176.981 168.74 177.674 168.74C179.408 168.74 180.569 169.208 181.158 170.144C181.765 171.063 182.068 172.727 182.068 175.136V182H180.118V175.188C180.118 173.385 179.945 172.155 179.598 171.496C179.252 170.82 178.515 170.482 177.388 170.482C176.816 170.482 176.227 170.569 175.62 170.742C175.014 170.898 174.546 171.054 174.216 171.21L173.722 171.444C173.948 172.016 174.06 173.281 174.06 175.24V182H172.11V175.292C172.11 173.42 171.937 172.155 171.59 171.496C171.261 170.82 170.524 170.482 169.38 170.482C168.826 170.482 168.254 170.569 167.664 170.742C167.092 170.898 166.65 171.054 166.338 171.21L165.896 171.444V182ZM191.427 168.74C193.177 168.74 194.399 169.243 195.093 170.248C195.803 171.236 196.159 172.978 196.159 175.474C196.159 177.97 195.717 179.729 194.833 180.752C193.966 181.757 192.363 182.26 190.023 182.26C189.295 182.26 188.09 182.191 186.409 182.052L185.681 181.974V163.332H187.605V169.65C188.922 169.043 190.196 168.74 191.427 168.74ZM189.997 180.518C191.695 180.518 192.813 180.137 193.351 179.374C193.905 178.594 194.183 177.285 194.183 175.448C194.183 173.611 193.966 172.328 193.533 171.6C193.099 170.855 192.328 170.482 191.219 170.482C190.213 170.482 189.182 170.673 188.125 171.054L187.605 171.236V180.388C188.731 180.475 189.529 180.518 189.997 180.518ZM208.206 180.388L208.96 180.31L209.012 181.844C207.036 182.121 205.346 182.26 203.942 182.26C202.07 182.26 200.744 181.723 199.964 180.648C199.184 179.556 198.794 177.866 198.794 175.578C198.794 171.019 200.605 168.74 204.228 168.74C205.979 168.74 207.287 169.234 208.154 170.222C209.021 171.193 209.454 172.727 209.454 174.824L209.35 176.306H200.77C200.77 177.745 201.03 178.811 201.55 179.504C202.07 180.197 202.971 180.544 204.254 180.544C205.554 180.544 206.871 180.492 208.206 180.388ZM207.504 174.746C207.504 173.151 207.244 172.025 206.724 171.366C206.221 170.707 205.389 170.378 204.228 170.378C203.084 170.378 202.217 170.725 201.628 171.418C201.056 172.111 200.761 173.221 200.744 174.746H207.504ZM212.493 182V169H214.417V170.768C215.925 169.728 217.511 169.043 219.175 168.714V170.69C218.447 170.829 217.684 171.045 216.887 171.34C216.107 171.635 215.509 171.895 215.093 172.12L214.443 172.458V182H212.493ZM225.563 170.482C223.674 170.482 222.729 171.141 222.729 172.458C222.729 173.065 222.946 173.498 223.379 173.758C223.813 174.001 224.801 174.261 226.343 174.538C227.886 174.798 228.978 175.171 229.619 175.656C230.261 176.141 230.581 177.051 230.581 178.386C230.581 179.721 230.148 180.7 229.281 181.324C228.432 181.948 227.184 182.26 225.537 182.26C224.463 182.26 223.197 182.139 221.741 181.896L220.961 181.766L221.065 180.076C223.041 180.371 224.532 180.518 225.537 180.518C226.543 180.518 227.305 180.362 227.825 180.05C228.363 179.721 228.631 179.183 228.631 178.438C228.631 177.675 228.406 177.164 227.955 176.904C227.505 176.627 226.517 176.367 224.991 176.124C223.466 175.881 222.383 175.526 221.741 175.058C221.1 174.59 220.779 173.723 220.779 172.458C220.779 171.193 221.221 170.257 222.105 169.65C223.007 169.043 224.125 168.74 225.459 168.74C226.517 168.74 227.843 168.861 229.437 169.104L230.165 169.234L230.113 170.898C228.189 170.621 226.673 170.482 225.563 170.482Z" fill="white"/>
<path d="M68.5398 223.008H70.6198L73.6878 239.232H74.4418L78.1078 223.164H80.4478L84.1138 239.232H84.8678L87.9358 223.008H89.9898L86.3498 241H82.6838L79.2778 225.634L75.8718 241H72.2058L68.5398 223.008ZM100.993 239.388L101.747 239.31L101.799 240.844C99.8233 241.121 98.1333 241.26 96.7293 241.26C94.8573 241.26 93.5313 240.723 92.7513 239.648C91.9713 238.556 91.5813 236.866 91.5813 234.578C91.5813 230.019 93.3926 227.74 97.0153 227.74C98.7659 227.74 100.075 228.234 100.941 229.222C101.808 230.193 102.241 231.727 102.241 233.824L102.137 235.306H93.5573C93.5573 236.745 93.8173 237.811 94.3373 238.504C94.8573 239.197 95.7586 239.544 97.0413 239.544C98.3413 239.544 99.6586 239.492 100.993 239.388ZM100.291 233.746C100.291 232.151 100.031 231.025 99.5113 230.366C99.0086 229.707 98.1766 229.378 97.0153 229.378C95.8713 229.378 95.0046 229.725 94.4153 230.418C93.8433 231.111 93.5486 232.221 93.5312 233.746H100.291ZM111.026 227.74C112.777 227.74 113.999 228.243 114.692 229.248C115.403 230.236 115.758 231.978 115.758 234.474C115.758 236.97 115.316 238.729 114.432 239.752C113.566 240.757 111.962 241.26 109.622 241.26C108.894 241.26 107.69 241.191 106.008 241.052L105.28 240.974V222.332H107.204V228.65C108.522 228.043 109.796 227.74 111.026 227.74ZM109.596 239.518C111.295 239.518 112.413 239.137 112.95 238.374C113.505 237.594 113.782 236.285 113.782 234.448C113.782 232.611 113.566 231.328 113.132 230.6C112.699 229.855 111.928 229.482 110.818 229.482C109.813 229.482 108.782 229.673 107.724 230.054L107.204 230.236V239.388C108.331 239.475 109.128 239.518 109.596 239.518ZM123.048 229.482C121.158 229.482 120.214 230.141 120.214 231.458C120.214 232.065 120.43 232.498 120.864 232.758C121.297 233.001 122.285 233.261 123.828 233.538C125.37 233.798 126.462 234.171 127.104 234.656C127.745 235.141 128.066 236.051 128.066 237.386C128.066 238.721 127.632 239.7 126.766 240.324C125.916 240.948 124.668 241.26 123.022 241.26C121.947 241.26 120.682 241.139 119.226 240.896L118.446 240.766L118.55 239.076C120.526 239.371 122.016 239.518 123.022 239.518C124.027 239.518 124.79 239.362 125.31 239.05C125.847 238.721 126.116 238.183 126.116 237.438C126.116 236.675 125.89 236.164 125.44 235.904C124.989 235.627 124.001 235.367 122.476 235.124C120.95 234.881 119.867 234.526 119.226 234.058C118.584 233.59 118.264 232.723 118.264 231.458C118.264 230.193 118.706 229.257 119.59 228.65C120.491 228.043 121.609 227.74 122.944 227.74C124.001 227.74 125.327 227.861 126.922 228.104L127.65 228.234L127.598 229.898C125.674 229.621 124.157 229.482 123.048 229.482ZM131.052 241V228H133.002V241H131.052ZM131.052 225.062V222.8H133.002V225.062H131.052ZM143.473 229.69H139.339V235.904C139.339 237.395 139.443 238.374 139.651 238.842C139.877 239.31 140.397 239.544 141.211 239.544L143.525 239.388L143.655 241C142.494 241.191 141.61 241.286 141.003 241.286C139.651 241.286 138.715 240.957 138.195 240.298C137.675 239.639 137.415 238.383 137.415 236.528V229.69H135.569V228H137.415V224.022H139.339V228H143.473V229.69ZM154.694 239.388L155.448 239.31L155.5 240.844C153.524 241.121 151.834 241.26 150.43 241.26C148.558 241.26 147.232 240.723 146.452 239.648C145.672 238.556 145.282 236.866 145.282 234.578C145.282 230.019 147.094 227.74 150.716 227.74C152.467 227.74 153.776 228.234 154.642 229.222C155.509 230.193 155.942 231.727 155.942 233.824L155.838 235.306H147.258C147.258 236.745 147.518 237.811 148.038 238.504C148.558 239.197 149.46 239.544 150.742 239.544C152.042 239.544 153.36 239.492 154.694 239.388ZM153.992 233.746C153.992 232.151 153.732 231.025 153.212 230.366C152.71 229.707 151.878 229.378 150.716 229.378C149.572 229.378 148.706 229.725 148.116 230.418C147.544 231.111 147.25 232.221 147.232 233.746H153.992ZM174.678 222.332V241H172.754V240.116C171.42 240.879 170.102 241.26 168.802 241.26C168.109 241.26 167.502 241.173 166.982 241C166.462 240.827 165.977 240.515 165.526 240.064C164.59 239.128 164.122 237.403 164.122 234.89C164.122 232.359 164.538 230.539 165.37 229.43C166.22 228.303 167.615 227.74 169.556 227.74C170.562 227.74 171.628 227.853 172.754 228.078V222.332H174.678ZM167.034 238.66C167.312 238.989 167.606 239.215 167.918 239.336C168.23 239.457 168.629 239.518 169.114 239.518C169.617 239.518 170.172 239.44 170.778 239.284C171.402 239.111 171.888 238.946 172.234 238.79L172.754 238.556V229.742C171.645 229.534 170.614 229.43 169.66 229.43C168.343 229.43 167.424 229.855 166.904 230.704C166.384 231.536 166.124 232.836 166.124 234.604C166.124 236.615 166.428 237.967 167.034 238.66ZM187.296 239.388L188.05 239.31L188.102 240.844C186.126 241.121 184.436 241.26 183.032 241.26C181.16 241.26 179.834 240.723 179.054 239.648C178.274 238.556 177.884 236.866 177.884 234.578C177.884 230.019 179.695 227.74 183.318 227.74C185.069 227.74 186.377 228.234 187.244 229.222C188.111 230.193 188.544 231.727 188.544 233.824L188.44 235.306H179.86C179.86 236.745 180.12 237.811 180.64 238.504C181.16 239.197 182.061 239.544 183.344 239.544C184.644 239.544 185.961 239.492 187.296 239.388ZM186.594 233.746C186.594 232.151 186.334 231.025 185.814 230.366C185.311 229.707 184.479 229.378 183.318 229.378C182.174 229.378 181.307 229.725 180.718 230.418C180.146 231.111 179.851 232.221 179.834 233.746H186.594ZM195.665 229.482C193.776 229.482 192.831 230.141 192.831 231.458C192.831 232.065 193.048 232.498 193.481 232.758C193.914 233.001 194.902 233.261 196.445 233.538C197.988 233.798 199.08 234.171 199.721 234.656C200.362 235.141 200.683 236.051 200.683 237.386C200.683 238.721 200.25 239.7 199.383 240.324C198.534 240.948 197.286 241.26 195.639 241.26C194.564 241.26 193.299 241.139 191.843 240.896L191.063 240.766L191.167 239.076C193.143 239.371 194.634 239.518 195.639 239.518C196.644 239.518 197.407 239.362 197.927 239.05C198.464 238.721 198.733 238.183 198.733 237.438C198.733 236.675 198.508 236.164 198.057 235.904C197.606 235.627 196.618 235.367 195.093 235.124C193.568 234.881 192.484 234.526 191.843 234.058C191.202 233.59 190.881 232.723 190.881 231.458C190.881 230.193 191.323 229.257 192.207 228.65C193.108 228.043 194.226 227.74 195.561 227.74C196.618 227.74 197.944 227.861 199.539 228.104L200.267 228.234L200.215 229.898C198.291 229.621 196.774 229.482 195.665 229.482ZM203.669 241V228H205.619V241H203.669ZM203.669 225.062V222.8H205.619V225.062H203.669ZM214.374 247.11C212.294 247.11 210.838 246.824 210.006 246.252C209.192 245.697 208.784 244.675 208.784 243.184C208.784 242.473 208.94 241.893 209.252 241.442C209.564 241.009 210.093 240.515 210.838 239.96C210.353 239.631 210.11 239.033 210.11 238.166C210.11 237.871 210.327 237.325 210.76 236.528L210.994 236.112C209.625 235.488 208.94 234.179 208.94 232.186C208.94 229.222 210.561 227.74 213.802 227.74C214.634 227.74 215.406 227.827 216.116 228L216.506 228.078L220.354 227.974V229.638L217.884 229.586C218.456 230.158 218.742 231.025 218.742 232.186C218.742 233.815 218.335 234.959 217.52 235.618C216.723 236.259 215.458 236.58 213.724 236.58C213.256 236.58 212.832 236.545 212.45 236.476C212.138 237.239 211.982 237.733 211.982 237.958C211.982 238.495 212.147 238.833 212.476 238.972C212.806 239.093 213.802 239.154 215.466 239.154C217.13 239.154 218.326 239.414 219.054 239.934C219.782 240.454 220.146 241.468 220.146 242.976C220.146 245.732 218.222 247.11 214.374 247.11ZM210.708 243.028C210.708 243.947 210.96 244.579 211.462 244.926C211.982 245.29 212.927 245.472 214.296 245.472C215.683 245.472 216.671 245.281 217.26 244.9C217.867 244.519 218.17 243.877 218.17 242.976C218.17 242.092 217.954 241.52 217.52 241.26C217.087 241 216.238 240.87 214.972 240.87L212.164 240.74C211.592 241.156 211.202 241.52 210.994 241.832C210.804 242.144 210.708 242.543 210.708 243.028ZM210.89 232.186C210.89 233.209 211.116 233.937 211.566 234.37C212.034 234.803 212.797 235.02 213.854 235.02C214.912 235.02 215.666 234.803 216.116 234.37C216.567 233.937 216.792 233.209 216.792 232.186C216.792 231.146 216.567 230.409 216.116 229.976C215.666 229.543 214.912 229.326 213.854 229.326C212.797 229.326 212.034 229.551 211.566 230.002C211.116 230.435 210.89 231.163 210.89 232.186ZM224.662 241H222.712V228H224.636V228.91C226.04 228.13 227.383 227.74 228.666 227.74C230.399 227.74 231.561 228.208 232.15 229.144C232.757 230.08 233.06 231.744 233.06 234.136V241H231.136V234.188C231.136 232.385 230.954 231.155 230.59 230.496C230.243 229.82 229.489 229.482 228.328 229.482C227.773 229.482 227.184 229.569 226.56 229.742C225.953 229.898 225.485 230.054 225.156 230.21L224.662 230.444V241ZM244.158 226.596C244.158 225.435 244.556 224.507 245.354 223.814C246.151 223.121 247.278 222.774 248.734 222.774C250.19 222.774 251.29 223.121 252.036 223.814C252.798 224.507 253.18 225.469 253.18 226.7C253.18 227.913 252.876 228.875 252.27 229.586C251.663 230.279 250.632 230.964 249.176 231.64L253.128 235.54C253.509 234.431 253.752 233.027 253.856 231.328L255.754 231.354C255.528 233.521 255.13 235.323 254.558 236.762L257.912 239.934L256.742 241.234L253.596 238.296C252.4 240.272 250.588 241.26 248.162 241.26C245.735 241.26 244.036 240.792 243.066 239.856C242.095 238.92 241.61 237.629 241.61 235.982C241.61 234.318 241.922 233.105 242.546 232.342C243.187 231.562 244.218 230.938 245.64 230.47C245.033 229.777 244.634 229.161 244.444 228.624C244.253 228.087 244.158 227.411 244.158 226.596ZM247.85 239.492C249.982 239.492 251.446 238.712 252.244 237.152L246.758 231.692C245.614 232.056 244.799 232.524 244.314 233.096C243.828 233.668 243.586 234.552 243.586 235.748C243.586 238.244 245.007 239.492 247.85 239.492ZM246.108 226.908C246.108 227.965 246.498 228.91 247.278 229.742L248.032 230.47C249.228 229.95 250.06 229.439 250.528 228.936C250.996 228.433 251.23 227.74 251.23 226.856C251.23 225.261 250.372 224.464 248.656 224.464C246.957 224.464 246.108 225.279 246.108 226.908ZM266.159 241V222.332H268.109V241H266.159ZM281.198 231.926V238.582C281.25 239.223 281.753 239.605 282.706 239.726L282.628 241.26C281.259 241.26 280.228 240.913 279.534 240.22C277.974 240.913 276.414 241.26 274.854 241.26C273.658 241.26 272.748 240.922 272.124 240.246C271.5 239.57 271.188 238.599 271.188 237.334C271.188 236.069 271.509 235.141 272.15 234.552C272.792 233.945 273.797 233.573 275.166 233.434L279.248 233.044V231.926C279.248 231.042 279.058 230.409 278.676 230.028C278.295 229.647 277.775 229.456 277.116 229.456C275.73 229.456 274.291 229.543 272.8 229.716L271.994 229.794L271.916 228.312C273.823 227.931 275.513 227.74 276.986 227.74C278.46 227.74 279.526 228.078 280.184 228.754C280.86 229.43 281.198 230.487 281.198 231.926ZM273.19 237.23C273.19 238.825 273.849 239.622 275.166 239.622C276.345 239.622 277.506 239.423 278.65 239.024L279.248 238.816V234.526L275.4 234.89C274.62 234.959 274.057 235.185 273.71 235.566C273.364 235.947 273.19 236.502 273.19 237.23ZM293.158 228H295.108V241H293.158V240.09C291.858 240.87 290.575 241.26 289.31 241.26C287.542 241.26 286.363 240.801 285.774 239.882C285.202 238.963 284.916 237.265 284.916 234.786V228H286.866V234.76C286.866 236.649 287.03 237.915 287.36 238.556C287.689 239.197 288.434 239.518 289.596 239.518C290.168 239.518 290.748 239.44 291.338 239.284C291.927 239.111 292.378 238.946 292.69 238.79L293.158 238.556V228ZM300.808 241H298.858V228H300.782V228.91C302.186 228.13 303.53 227.74 304.812 227.74C306.546 227.74 307.707 228.208 308.296 229.144C308.903 230.08 309.206 231.744 309.206 234.136V241H307.282V234.188C307.282 232.385 307.1 231.155 306.736 230.496C306.39 229.82 305.636 229.482 304.474 229.482C303.92 229.482 303.33 229.569 302.706 229.742C302.1 229.898 301.632 230.054 301.302 230.21L300.808 230.444V241ZM317.685 227.74C318.257 227.74 319.228 227.844 320.597 228.052L321.221 228.13L321.143 229.716C319.757 229.56 318.734 229.482 318.075 229.482C316.602 229.482 315.597 229.837 315.059 230.548C314.539 231.241 314.279 232.541 314.279 234.448C314.279 236.337 314.522 237.655 315.007 238.4C315.51 239.145 316.541 239.518 318.101 239.518L321.169 239.284L321.247 240.896C319.635 241.139 318.431 241.26 317.633 241.26C315.605 241.26 314.201 240.74 313.421 239.7C312.659 238.66 312.277 236.909 312.277 234.448C312.277 231.969 312.693 230.236 313.525 229.248C314.357 228.243 315.744 227.74 317.685 227.74ZM326.097 241H324.147V222.332H326.097V228.728C327.484 228.069 328.819 227.74 330.101 227.74C331.835 227.74 332.996 228.208 333.585 229.144C334.192 230.08 334.495 231.744 334.495 234.136V241H332.545V234.188C332.545 232.385 332.363 231.155 331.999 230.496C331.653 229.82 330.907 229.482 329.763 229.482C328.671 229.482 327.614 229.681 326.591 230.08L326.097 230.262V241Z" fill="white"/>
<path d="M75.4316 295.942H70.8556V302H68.8536V284.008H75.4316C77.3902 284.008 78.8376 284.485 79.7736 285.438C80.7096 286.391 81.1776 287.847 81.1776 289.806C81.1776 293.897 79.2622 295.942 75.4316 295.942ZM70.8556 294.174H75.4056C77.8842 294.174 79.1236 292.718 79.1236 289.806C79.1236 288.419 78.8289 287.405 78.2396 286.764C77.6502 286.105 76.7056 285.776 75.4056 285.776H70.8556V294.174ZM83.9277 302V289H85.8517V290.768C87.3597 289.728 88.9457 289.043 90.6097 288.714V290.69C89.8817 290.829 89.119 291.045 88.3217 291.34C87.5417 291.635 86.9437 291.895 86.5277 292.12L85.8777 292.458V302H83.9277ZM92.09 295.474C92.09 293.099 92.5147 291.383 93.364 290.326C94.2134 289.269 95.6434 288.74 97.654 288.74C99.682 288.74 101.112 289.269 101.944 290.326C102.793 291.383 103.218 293.099 103.218 295.474C103.218 297.849 102.819 299.573 102.022 300.648C101.225 301.723 99.7687 302.26 97.654 302.26C95.5394 302.26 94.0834 301.723 93.286 300.648C92.4887 299.573 92.09 297.849 92.09 295.474ZM94.092 295.448C94.092 297.337 94.3174 298.663 94.768 299.426C95.236 300.189 96.198 300.57 97.654 300.57C99.1274 300.57 100.089 300.197 100.54 299.452C100.991 298.689 101.216 297.355 101.216 295.448C101.216 293.541 100.965 292.233 100.462 291.522C99.9594 290.794 99.0234 290.43 97.654 290.43C96.302 290.43 95.366 290.794 94.846 291.522C94.3434 292.233 94.092 293.541 94.092 295.448ZM108.348 302H106.398V289H108.322V289.91C109.622 289.13 110.888 288.74 112.118 288.74C113.73 288.74 114.857 289.182 115.498 290.066C116.07 289.719 116.807 289.416 117.708 289.156C118.627 288.879 119.433 288.74 120.126 288.74C121.86 288.74 123.021 289.208 123.61 290.144C124.217 291.063 124.52 292.727 124.52 295.136V302H122.57V295.188C122.57 293.385 122.397 292.155 122.05 291.496C121.704 290.82 120.967 290.482 119.84 290.482C119.268 290.482 118.679 290.569 118.072 290.742C117.466 290.898 116.998 291.054 116.668 291.21L116.174 291.444C116.4 292.016 116.512 293.281 116.512 295.24V302H114.562V295.292C114.562 293.42 114.389 292.155 114.042 291.496C113.713 290.82 112.976 290.482 111.832 290.482C111.278 290.482 110.706 290.569 110.116 290.742C109.544 290.898 109.102 291.054 108.79 291.21L108.348 291.444V302ZM127.561 295.474C127.561 293.099 127.985 291.383 128.835 290.326C129.684 289.269 131.114 288.74 133.125 288.74C135.153 288.74 136.583 289.269 137.415 290.326C138.264 291.383 138.689 293.099 138.689 295.474C138.689 297.849 138.29 299.573 137.493 300.648C136.695 301.723 135.239 302.26 133.125 302.26C131.01 302.26 129.554 301.723 128.757 300.648C127.959 299.573 127.561 297.849 127.561 295.474ZM129.563 295.448C129.563 297.337 129.788 298.663 130.239 299.426C130.707 300.189 131.669 300.57 133.125 300.57C134.598 300.57 135.56 300.197 136.011 299.452C136.461 298.689 136.687 297.355 136.687 295.448C136.687 293.541 136.435 292.233 135.933 291.522C135.43 290.794 134.494 290.43 133.125 290.43C131.773 290.43 130.837 290.794 130.317 291.522C129.814 292.233 129.563 293.541 129.563 295.448ZM149.35 287.596C149.35 286.435 149.749 285.507 150.546 284.814C151.343 284.121 152.47 283.774 153.926 283.774C155.382 283.774 156.483 284.121 157.228 284.814C157.991 285.507 158.372 286.469 158.372 287.7C158.372 288.913 158.069 289.875 157.462 290.586C156.855 291.279 155.824 291.964 154.368 292.64L158.32 296.54C158.701 295.431 158.944 294.027 159.048 292.328L160.946 292.354C160.721 294.521 160.322 296.323 159.75 297.762L163.104 300.934L161.934 302.234L158.788 299.296C157.592 301.272 155.781 302.26 153.354 302.26C150.927 302.26 149.229 301.792 148.258 300.856C147.287 299.92 146.802 298.629 146.802 296.982C146.802 295.318 147.114 294.105 147.738 293.342C148.379 292.562 149.411 291.938 150.832 291.47C150.225 290.777 149.827 290.161 149.636 289.624C149.445 289.087 149.35 288.411 149.35 287.596ZM153.042 300.492C155.174 300.492 156.639 299.712 157.436 298.152L151.95 292.692C150.806 293.056 149.991 293.524 149.506 294.096C149.021 294.668 148.778 295.552 148.778 296.748C148.778 299.244 150.199 300.492 153.042 300.492ZM151.3 287.908C151.3 288.965 151.69 289.91 152.47 290.742L153.224 291.47C154.42 290.95 155.252 290.439 155.72 289.936C156.188 289.433 156.422 288.74 156.422 287.856C156.422 286.261 155.564 285.464 153.848 285.464C152.149 285.464 151.3 286.279 151.3 287.908ZM173.145 302H171.195V289H173.119V289.91C174.419 289.13 175.685 288.74 176.915 288.74C178.527 288.74 179.654 289.182 180.295 290.066C180.867 289.719 181.604 289.416 182.505 289.156C183.424 288.879 184.23 288.74 184.923 288.74C186.657 288.74 187.818 289.208 188.407 290.144C189.014 291.063 189.317 292.727 189.317 295.136V302H187.367V295.188C187.367 293.385 187.194 292.155 186.847 291.496C186.501 290.82 185.764 290.482 184.637 290.482C184.065 290.482 183.476 290.569 182.869 290.742C182.263 290.898 181.795 291.054 181.465 291.21L180.971 291.444C181.197 292.016 181.309 293.281 181.309 295.24V302H179.359V295.292C179.359 293.42 179.186 292.155 178.839 291.496C178.51 290.82 177.773 290.482 176.629 290.482C176.075 290.482 175.503 290.569 174.913 290.742C174.341 290.898 173.899 291.054 173.587 291.21L173.145 291.444V302ZM202.108 292.926V299.582C202.16 300.223 202.662 300.605 203.616 300.726L203.538 302.26C202.168 302.26 201.137 301.913 200.444 301.22C198.884 301.913 197.324 302.26 195.764 302.26C194.568 302.26 193.658 301.922 193.034 301.246C192.41 300.57 192.098 299.599 192.098 298.334C192.098 297.069 192.418 296.141 193.06 295.552C193.701 294.945 194.706 294.573 196.076 294.434L200.158 294.044V292.926C200.158 292.042 199.967 291.409 199.586 291.028C199.204 290.647 198.684 290.456 198.026 290.456C196.639 290.456 195.2 290.543 193.71 290.716L192.904 290.794L192.826 289.312C194.732 288.931 196.422 288.74 197.896 288.74C199.369 288.74 200.435 289.078 201.094 289.754C201.77 290.43 202.108 291.487 202.108 292.926ZM194.1 298.23C194.1 299.825 194.758 300.622 196.076 300.622C197.254 300.622 198.416 300.423 199.56 300.024L200.158 299.816V295.526L196.31 295.89C195.53 295.959 194.966 296.185 194.62 296.566C194.273 296.947 194.1 297.502 194.1 298.23ZM205.955 302V289H207.879V290.768C209.387 289.728 210.973 289.043 212.637 288.714V290.69C211.909 290.829 211.146 291.045 210.349 291.34C209.569 291.635 208.971 291.895 208.555 292.12L207.905 292.458V302H205.955ZM216.893 302H214.943V283.332H216.893V294.356L218.921 294.252L222.639 289H224.849L220.611 294.98L225.031 302H222.821L218.947 295.968L216.893 296.046V302ZM235.895 300.388L236.649 300.31L236.701 301.844C234.725 302.121 233.035 302.26 231.631 302.26C229.759 302.26 228.433 301.723 227.653 300.648C226.873 299.556 226.483 297.866 226.483 295.578C226.483 291.019 228.294 288.74 231.917 288.74C233.667 288.74 234.976 289.234 235.843 290.222C236.709 291.193 237.143 292.727 237.143 294.824L237.039 296.306H228.459C228.459 297.745 228.719 298.811 229.239 299.504C229.759 300.197 230.66 300.544 231.943 300.544C233.243 300.544 234.56 300.492 235.895 300.388ZM235.193 294.746C235.193 293.151 234.933 292.025 234.413 291.366C233.91 290.707 233.078 290.378 231.917 290.378C230.773 290.378 229.906 290.725 229.317 291.418C228.745 292.111 228.45 293.221 228.433 294.746H235.193ZM246.839 290.69H242.705V296.904C242.705 298.395 242.809 299.374 243.017 299.842C243.243 300.31 243.763 300.544 244.577 300.544L246.891 300.388L247.021 302C245.86 302.191 244.976 302.286 244.369 302.286C243.017 302.286 242.081 301.957 241.561 301.298C241.041 300.639 240.781 299.383 240.781 297.528V290.69H238.935V289H240.781V285.022H242.705V289H246.839V290.69ZM249.221 302V289H251.171V302H249.221ZM249.221 286.062V283.8H251.171V286.062H249.221ZM256.858 302H254.908V289H256.832V289.91C258.236 289.13 259.579 288.74 260.862 288.74C262.595 288.74 263.757 289.208 264.346 290.144C264.953 291.08 265.256 292.744 265.256 295.136V302H263.332V295.188C263.332 293.385 263.15 292.155 262.786 291.496C262.439 290.82 261.685 290.482 260.524 290.482C259.969 290.482 259.38 290.569 258.756 290.742C258.149 290.898 257.681 291.054 257.352 291.21L256.858 291.444V302ZM273.891 308.11C271.811 308.11 270.355 307.824 269.523 307.252C268.708 306.697 268.301 305.675 268.301 304.184C268.301 303.473 268.457 302.893 268.769 302.442C269.081 302.009 269.61 301.515 270.355 300.96C269.87 300.631 269.627 300.033 269.627 299.166C269.627 298.871 269.844 298.325 270.277 297.528L270.511 297.112C269.142 296.488 268.457 295.179 268.457 293.186C268.457 290.222 270.078 288.74 273.319 288.74C274.151 288.74 274.922 288.827 275.633 289L276.023 289.078L279.871 288.974V290.638L277.401 290.586C277.973 291.158 278.259 292.025 278.259 293.186C278.259 294.815 277.852 295.959 277.037 296.618C276.24 297.259 274.974 297.58 273.241 297.58C272.773 297.58 272.348 297.545 271.967 297.476C271.655 298.239 271.499 298.733 271.499 298.958C271.499 299.495 271.664 299.833 271.993 299.972C272.322 300.093 273.319 300.154 274.983 300.154C276.647 300.154 277.843 300.414 278.571 300.934C279.299 301.454 279.663 302.468 279.663 303.976C279.663 306.732 277.739 308.11 273.891 308.11ZM270.225 304.028C270.225 304.947 270.476 305.579 270.979 305.926C271.499 306.29 272.444 306.472 273.813 306.472C275.2 306.472 276.188 306.281 276.777 305.9C277.384 305.519 277.687 304.877 277.687 303.976C277.687 303.092 277.47 302.52 277.037 302.26C276.604 302 275.754 301.87 274.489 301.87L271.681 301.74C271.109 302.156 270.719 302.52 270.511 302.832C270.32 303.144 270.225 303.543 270.225 304.028ZM270.407 293.186C270.407 294.209 270.632 294.937 271.083 295.37C271.551 295.803 272.314 296.02 273.371 296.02C274.428 296.02 275.182 295.803 275.633 295.37C276.084 294.937 276.309 294.209 276.309 293.186C276.309 292.146 276.084 291.409 275.633 290.976C275.182 290.543 274.428 290.326 273.371 290.326C272.314 290.326 271.551 290.551 271.083 291.002C270.632 291.435 270.407 292.163 270.407 293.186Z" fill="white"/>
<path d="M76.4687 355.942H71.8927V362H69.8907V344.008H76.4687C78.4273 344.008 79.8747 344.485 80.8107 345.438C81.7467 346.391 82.2147 347.847 82.2147 349.806C82.2147 353.897 80.2993 355.942 76.4687 355.942ZM71.8927 354.174H76.4427C78.9213 354.174 80.1607 352.718 80.1607 349.806C80.1607 348.419 79.866 347.405 79.2767 346.764C78.6873 346.105 77.7427 345.776 76.4427 345.776H71.8927V354.174ZM84.9648 362V349H86.8888V350.768C88.3968 349.728 89.9828 349.043 91.6468 348.714V350.69C90.9188 350.829 90.1561 351.045 89.3588 351.34C88.5788 351.635 87.9808 351.895 87.5648 352.12L86.9148 352.458V362H84.9648ZM93.9531 362V349H95.9031V362H93.9531ZM93.9531 346.062V343.8H95.9031V346.062H93.9531ZM98.4186 349H100.499L103.541 360.31H104.503L107.649 349H109.651L105.985 362H102.085L98.4186 349ZM121.133 352.926V359.582C121.185 360.223 121.688 360.605 122.641 360.726L122.563 362.26C121.194 362.26 120.162 361.913 119.469 361.22C117.909 361.913 116.349 362.26 114.789 362.26C113.593 362.26 112.683 361.922 112.059 361.246C111.435 360.57 111.123 359.599 111.123 358.334C111.123 357.069 111.444 356.141 112.085 355.552C112.726 354.945 113.732 354.573 115.101 354.434L119.183 354.044V352.926C119.183 352.042 118.992 351.409 118.611 351.028C118.23 350.647 117.71 350.456 117.051 350.456C115.664 350.456 114.226 350.543 112.735 350.716L111.929 350.794L111.851 349.312C113.758 348.931 115.448 348.74 116.921 348.74C118.394 348.74 119.46 349.078 120.119 349.754C120.795 350.43 121.133 351.487 121.133 352.926ZM113.125 358.23C113.125 359.825 113.784 360.622 115.101 360.622C116.28 360.622 117.441 360.423 118.585 360.024L119.183 359.816V355.526L115.335 355.89C114.555 355.959 113.992 356.185 113.645 356.566C113.298 356.947 113.125 357.502 113.125 358.23ZM131.714 350.69H127.58V356.904C127.58 358.395 127.684 359.374 127.892 359.842C128.118 360.31 128.638 360.544 129.452 360.544L131.766 360.388L131.896 362C130.735 362.191 129.851 362.286 129.244 362.286C127.892 362.286 126.956 361.957 126.436 361.298C125.916 360.639 125.656 359.383 125.656 357.528V350.69H123.81V349H125.656V345.022H127.58V349H131.714V350.69ZM142.936 360.388L143.69 360.31L143.742 361.844C141.766 362.121 140.076 362.26 138.672 362.26C136.8 362.26 135.474 361.723 134.694 360.648C133.914 359.556 133.524 357.866 133.524 355.578C133.524 351.019 135.335 348.74 138.958 348.74C140.708 348.74 142.017 349.234 142.884 350.222C143.75 351.193 144.184 352.727 144.184 354.824L144.08 356.306H135.5C135.5 357.745 135.76 358.811 136.28 359.504C136.8 360.197 137.701 360.544 138.984 360.544C140.284 360.544 141.601 360.492 142.936 360.388ZM142.234 354.746C142.234 353.151 141.974 352.025 141.454 351.366C140.951 350.707 140.119 350.378 138.958 350.378C137.814 350.378 136.947 350.725 136.358 351.418C135.786 352.111 135.491 353.221 135.474 354.746H142.234ZM157.017 350.482C155.128 350.482 154.183 351.141 154.183 352.458C154.183 353.065 154.4 353.498 154.833 353.758C155.267 354.001 156.255 354.261 157.797 354.538C159.34 354.798 160.432 355.171 161.073 355.656C161.715 356.141 162.035 357.051 162.035 358.386C162.035 359.721 161.602 360.7 160.735 361.324C159.886 361.948 158.638 362.26 156.991 362.26C155.917 362.26 154.651 362.139 153.195 361.896L152.415 361.766L152.519 360.076C154.495 360.371 155.986 360.518 156.991 360.518C157.997 360.518 158.759 360.362 159.279 360.05C159.817 359.721 160.085 359.183 160.085 358.438C160.085 357.675 159.86 357.164 159.409 356.904C158.959 356.627 157.971 356.367 156.445 356.124C154.92 355.881 153.837 355.526 153.195 355.058C152.554 354.59 152.233 353.723 152.233 352.458C152.233 351.193 152.675 350.257 153.559 349.65C154.461 349.043 155.579 348.74 156.913 348.74C157.971 348.74 159.297 348.861 160.891 349.104L161.619 349.234L161.567 350.898C159.643 350.621 158.127 350.482 157.017 350.482ZM174.199 352.926V359.582C174.251 360.223 174.754 360.605 175.707 360.726L175.629 362.26C174.26 362.26 173.229 361.913 172.535 361.22C170.975 361.913 169.415 362.26 167.855 362.26C166.659 362.26 165.749 361.922 165.125 361.246C164.501 360.57 164.189 359.599 164.189 358.334C164.189 357.069 164.51 356.141 165.151 355.552C165.793 354.945 166.798 354.573 168.167 354.434L172.249 354.044V352.926C172.249 352.042 172.059 351.409 171.677 351.028C171.296 350.647 170.776 350.456 170.117 350.456C168.731 350.456 167.292 350.543 165.801 350.716L164.995 350.794L164.917 349.312C166.824 348.931 168.514 348.74 169.987 348.74C171.461 348.74 172.527 349.078 173.185 349.754C173.861 350.43 174.199 351.487 174.199 352.926ZM166.191 358.23C166.191 359.825 166.85 360.622 168.167 360.622C169.346 360.622 170.507 360.423 171.651 360.024L172.249 359.816V355.526L168.401 355.89C167.621 355.959 167.058 356.185 166.711 356.566C166.365 356.947 166.191 357.502 166.191 358.23ZM178.203 362V343.332H180.153V362H178.203ZM192.904 360.388L193.658 360.31L193.71 361.844C191.734 362.121 190.044 362.26 188.64 362.26C186.768 362.26 185.442 361.723 184.662 360.648C183.882 359.556 183.492 357.866 183.492 355.578C183.492 351.019 185.304 348.74 188.926 348.74C190.677 348.74 191.986 349.234 192.852 350.222C193.719 351.193 194.152 352.727 194.152 354.824L194.048 356.306H185.468C185.468 357.745 185.728 358.811 186.248 359.504C186.768 360.197 187.67 360.544 188.952 360.544C190.252 360.544 191.57 360.492 192.904 360.388ZM192.202 354.746C192.202 353.151 191.942 352.025 191.422 351.366C190.92 350.707 190.088 350.378 188.926 350.378C187.782 350.378 186.916 350.725 186.326 351.418C185.754 352.111 185.46 353.221 185.442 354.746H192.202Z" fill="white"/>
<path d="M75.8653 414.59V412.796H80.8313V421.636C78.6473 422.052 76.6973 422.26 74.9813 422.26C72.3639 422.26 70.5439 421.506 69.5213 419.998C68.5159 418.49 68.0133 416.167 68.0133 413.03C68.0133 409.875 68.5159 407.544 69.5213 406.036C70.5439 404.511 72.3466 403.748 74.9293 403.748C76.5413 403.748 78.2139 403.921 79.9473 404.268L80.8313 404.424L80.7533 406.088C78.6039 405.724 76.7406 405.542 75.1633 405.542C73.1699 405.542 71.8266 406.123 71.1333 407.284C70.4399 408.428 70.0933 410.343 70.0933 413.03C70.0933 415.699 70.4399 417.615 71.1333 418.776C71.8266 419.92 73.1613 420.492 75.1373 420.492C76.3506 420.492 77.5899 420.371 78.8553 420.128V414.59H75.8653ZM93.2647 420.388L94.0187 420.31L94.0707 421.844C92.0947 422.121 90.4047 422.26 89.0007 422.26C87.1287 422.26 85.8027 421.723 85.0227 420.648C84.2427 419.556 83.8527 417.866 83.8527 415.578C83.8527 411.019 85.6641 408.74 89.2867 408.74C91.0374 408.74 92.3461 409.234 93.2127 410.222C94.0794 411.193 94.5127 412.727 94.5127 414.824L94.4087 416.306H85.8287C85.8287 417.745 86.0887 418.811 86.6087 419.504C87.1287 420.197 88.0301 420.544 89.3127 420.544C90.6127 420.544 91.9301 420.492 93.2647 420.388ZM92.5627 414.746C92.5627 413.151 92.3027 412.025 91.7827 411.366C91.2801 410.707 90.4481 410.378 89.2867 410.378C88.1427 410.378 87.2761 410.725 86.6867 411.418C86.1147 412.111 85.8201 413.221 85.8027 414.746H92.5627ZM99.5017 422H97.5517V409H99.4757V409.91C100.88 409.13 102.223 408.74 103.506 408.74C105.239 408.74 106.4 409.208 106.99 410.144C107.596 411.08 107.9 412.744 107.9 415.136V422H105.976V415.188C105.976 413.385 105.794 412.155 105.43 411.496C105.083 410.82 104.329 410.482 103.168 410.482C102.613 410.482 102.024 410.569 101.4 410.742C100.793 410.898 100.325 411.054 99.9957 411.21L99.5017 411.444V422ZM120.357 420.388L121.111 420.31L121.163 421.844C119.187 422.121 117.497 422.26 116.093 422.26C114.221 422.26 112.895 421.723 112.115 420.648C111.335 419.556 110.945 417.866 110.945 415.578C110.945 411.019 112.756 408.74 116.379 408.74C118.129 408.74 119.438 409.234 120.305 410.222C121.171 411.193 121.605 412.727 121.605 414.824L121.501 416.306H112.921C112.921 417.745 113.181 418.811 113.701 419.504C114.221 420.197 115.122 420.544 116.405 420.544C117.705 420.544 119.022 420.492 120.357 420.388ZM119.655 414.746C119.655 413.151 119.395 412.025 118.875 411.366C118.372 410.707 117.54 410.378 116.379 410.378C115.235 410.378 114.368 410.725 113.779 411.418C113.207 412.111 112.912 413.221 112.895 414.746H119.655ZM128.725 410.482C126.836 410.482 125.891 411.141 125.891 412.458C125.891 413.065 126.108 413.498 126.541 413.758C126.975 414.001 127.963 414.261 129.505 414.538C131.048 414.798 132.14 415.171 132.781 415.656C133.423 416.141 133.743 417.051 133.743 418.386C133.743 419.721 133.31 420.7 132.443 421.324C131.594 421.948 130.346 422.26 128.699 422.26C127.625 422.26 126.359 422.139 124.903 421.896L124.123 421.766L124.227 420.076C126.203 420.371 127.694 420.518 128.699 420.518C129.705 420.518 130.467 420.362 130.987 420.05C131.525 419.721 131.793 419.183 131.793 418.438C131.793 417.675 131.568 417.164 131.117 416.904C130.667 416.627 129.679 416.367 128.153 416.124C126.628 415.881 125.545 415.526 124.903 415.058C124.262 414.59 123.941 413.723 123.941 412.458C123.941 411.193 124.383 410.257 125.267 409.65C126.169 409.043 127.287 408.74 128.621 408.74C129.679 408.74 131.005 408.861 132.599 409.104L133.327 409.234L133.275 410.898C131.351 410.621 129.835 410.482 128.725 410.482ZM136.729 422V409H138.679V422H136.729ZM136.729 406.062V403.8H138.679V406.062H136.729ZM146.499 410.482C144.61 410.482 143.665 411.141 143.665 412.458C143.665 413.065 143.882 413.498 144.315 413.758C144.748 414.001 145.736 414.261 147.279 414.538C148.822 414.798 149.914 415.171 150.555 415.656C151.196 416.141 151.517 417.051 151.517 418.386C151.517 419.721 151.084 420.7 150.217 421.324C149.368 421.948 148.12 422.26 146.473 422.26C145.398 422.26 144.133 422.139 142.677 421.896L141.897 421.766L142.001 420.076C143.977 420.371 145.468 420.518 146.473 420.518C147.478 420.518 148.241 420.362 148.761 420.05C149.298 419.721 149.567 419.183 149.567 418.438C149.567 417.675 149.342 417.164 148.891 416.904C148.44 416.627 147.452 416.367 145.927 416.124C144.402 415.881 143.318 415.526 142.677 415.058C142.036 414.59 141.715 413.723 141.715 412.458C141.715 411.193 142.157 410.257 143.041 409.65C143.942 409.043 145.06 408.74 146.395 408.74C147.452 408.74 148.778 408.861 150.373 409.104L151.101 409.234L151.049 410.898C149.125 410.621 147.608 410.482 146.499 410.482ZM160.554 422V404.008H164.298L171.188 420.232H171.734V404.008H173.71V422H170.044L163.05 405.776H162.556V422H160.554ZM178.124 422V404.008H188.888V405.776H180.126V412.796H187.536V414.564H180.126V422H178.124ZM189.938 405.802V404.008H202.938V405.802H197.452V422H195.476V405.802H189.938ZM221.426 404.008H223.506L218.8 422H214.328L209.622 404.008H211.702L215.836 420.232H217.292L221.426 404.008ZM226.341 422V404.008H228.343V422H226.341ZM239.317 415.942H234.741V422H232.739V404.008H239.317C241.276 404.008 242.723 404.485 243.659 405.438C244.595 406.391 245.063 407.847 245.063 409.806C245.063 413.897 243.148 415.942 239.317 415.942ZM234.741 414.174H239.291C241.77 414.174 243.009 412.718 243.009 409.806C243.009 408.419 242.715 407.405 242.125 406.764C241.536 406.105 240.591 405.776 239.291 405.776H234.741V414.174ZM255.476 422H253.526V409H255.45V409.91C256.75 409.13 258.016 408.74 259.246 408.74C260.858 408.74 261.985 409.182 262.626 410.066C263.198 409.719 263.935 409.416 264.836 409.156C265.755 408.879 266.561 408.74 267.254 408.74C268.988 408.74 270.149 409.208 270.738 410.144C271.345 411.063 271.648 412.727 271.648 415.136V422H269.698V415.188C269.698 413.385 269.525 412.155 269.178 411.496C268.832 410.82 268.095 410.482 266.968 410.482C266.396 410.482 265.807 410.569 265.2 410.742C264.594 410.898 264.126 411.054 263.796 411.21L263.302 411.444C263.528 412.016 263.64 413.281 263.64 415.24V422H261.69V415.292C261.69 413.42 261.517 412.155 261.17 411.496C260.841 410.82 260.104 410.482 258.96 410.482C258.406 410.482 257.834 410.569 257.244 410.742C256.672 410.898 256.23 411.054 255.918 411.21L255.476 411.444V422ZM275.261 422V409H277.211V422H275.261ZM275.261 406.062V403.8H277.211V406.062H275.261ZM282.898 422H280.948V409H282.872V409.91C284.276 409.13 285.62 408.74 286.902 408.74C288.636 408.74 289.797 409.208 290.386 410.144C290.993 411.08 291.296 412.744 291.296 415.136V422H289.372V415.188C289.372 413.385 289.19 412.155 288.826 411.496C288.48 410.82 287.726 410.482 286.564 410.482C286.01 410.482 285.42 410.569 284.796 410.742C284.19 410.898 283.722 411.054 283.392 411.21L282.898 411.444V422ZM301.571 410.69H297.437V416.904C297.437 418.395 297.541 419.374 297.749 419.842C297.974 420.31 298.494 420.544 299.309 420.544L301.623 420.388L301.753 422C300.592 422.191 299.708 422.286 299.101 422.286C297.749 422.286 296.813 421.957 296.293 421.298C295.773 420.639 295.513 419.383 295.513 417.528V410.69H293.667V409H295.513V405.022H297.437V409H301.571V410.69ZM303.952 422V409H305.902V422H303.952ZM303.952 406.062V403.8H305.902V406.062H303.952ZM311.59 422H309.64V409H311.564V409.91C312.968 409.13 314.311 408.74 315.594 408.74C317.327 408.74 318.488 409.208 319.078 410.144C319.684 411.08 319.988 412.744 319.988 415.136V422H318.064V415.188C318.064 413.385 317.882 412.155 317.518 411.496C317.171 410.82 316.417 410.482 315.256 410.482C314.701 410.482 314.112 410.569 313.488 410.742C312.881 410.898 312.413 411.054 312.084 411.21L311.59 411.444V422ZM328.622 428.11C326.542 428.11 325.086 427.824 324.254 427.252C323.44 426.697 323.032 425.675 323.032 424.184C323.032 423.473 323.188 422.893 323.5 422.442C323.812 422.009 324.341 421.515 325.086 420.96C324.601 420.631 324.358 420.033 324.358 419.166C324.358 418.871 324.575 418.325 325.008 417.528L325.242 417.112C323.873 416.488 323.188 415.179 323.188 413.186C323.188 410.222 324.809 408.74 328.05 408.74C328.882 408.74 329.654 408.827 330.364 409L330.754 409.078L334.602 408.974V410.638L332.132 410.586C332.704 411.158 332.99 412.025 332.99 413.186C332.99 414.815 332.583 415.959 331.768 416.618C330.971 417.259 329.706 417.58 327.972 417.58C327.504 417.58 327.08 417.545 326.698 417.476C326.386 418.239 326.23 418.733 326.23 418.958C326.23 419.495 326.395 419.833 326.724 419.972C327.054 420.093 328.05 420.154 329.714 420.154C331.378 420.154 332.574 420.414 333.302 420.934C334.03 421.454 334.394 422.468 334.394 423.976C334.394 426.732 332.47 428.11 328.622 428.11ZM324.956 424.028C324.956 424.947 325.208 425.579 325.71 425.926C326.23 426.29 327.175 426.472 328.544 426.472C329.931 426.472 330.919 426.281 331.508 425.9C332.115 425.519 332.418 424.877 332.418 423.976C332.418 423.092 332.202 422.52 331.768 422.26C331.335 422 330.486 421.87 329.22 421.87L326.412 421.74C325.84 422.156 325.45 422.52 325.242 422.832C325.052 423.144 324.956 423.543 324.956 424.028ZM325.138 413.186C325.138 414.209 325.364 414.937 325.814 415.37C326.282 415.803 327.045 416.02 328.102 416.02C329.16 416.02 329.914 415.803 330.364 415.37C330.815 414.937 331.04 414.209 331.04 413.186C331.04 412.146 330.815 411.409 330.364 410.976C329.914 410.543 329.16 410.326 328.102 410.326C327.045 410.326 326.282 410.551 325.814 411.002C325.364 411.435 325.138 412.163 325.138 413.186ZM345.169 410.69V422H343.219V410.69H341.581V409H343.219V407.83C343.219 405.993 343.479 404.745 343.999 404.086C344.519 403.41 345.429 403.072 346.729 403.072L349.355 403.254L349.329 404.866C348.358 404.831 347.552 404.814 346.911 404.814C346.287 404.814 345.836 405.022 345.559 405.438C345.299 405.854 345.169 406.66 345.169 407.856V409H348.939V410.69H345.169ZM350.48 415.474C350.48 413.099 350.904 411.383 351.754 410.326C352.603 409.269 354.033 408.74 356.044 408.74C358.072 408.74 359.502 409.269 360.334 410.326C361.183 411.383 361.608 413.099 361.608 415.474C361.608 417.849 361.209 419.573 360.412 420.648C359.614 421.723 358.158 422.26 356.044 422.26C353.929 422.26 352.473 421.723 351.676 420.648C350.878 419.573 350.48 417.849 350.48 415.474ZM352.482 415.448C352.482 417.337 352.707 418.663 353.158 419.426C353.626 420.189 354.588 420.57 356.044 420.57C357.517 420.57 358.479 420.197 358.93 419.452C359.38 418.689 359.606 417.355 359.606 415.448C359.606 413.541 359.354 412.233 358.852 411.522C358.349 410.794 357.413 410.43 356.044 410.43C354.692 410.43 353.756 410.794 353.236 411.522C352.733 412.233 352.482 413.541 352.482 415.448ZM364.788 422V409H366.712V410.768C368.22 409.728 369.806 409.043 371.47 408.714V410.69C370.742 410.829 369.979 411.045 369.182 411.34C368.402 411.635 367.804 411.895 367.388 412.12L366.738 412.458V422H364.788ZM381.153 413.082C381.153 415.717 381.5 417.615 382.193 418.776C382.887 419.92 384.221 420.492 386.197 420.492C388.191 420.492 389.525 419.929 390.201 418.802C390.895 417.675 391.241 415.786 391.241 413.134C391.241 410.482 390.886 408.549 390.175 407.336C389.465 406.123 388.13 405.516 386.171 405.516C384.23 405.516 382.904 406.123 382.193 407.336C381.5 408.532 381.153 410.447 381.153 413.082ZM393.321 413.134C393.321 416.341 392.81 418.663 391.787 420.102C390.765 421.541 388.901 422.26 386.197 422.26C383.511 422.26 381.656 421.523 380.633 420.05C379.611 418.577 379.099 416.263 379.099 413.108C379.099 409.936 379.619 407.587 380.659 406.062C381.699 404.519 383.545 403.748 386.197 403.748C388.849 403.748 390.695 404.511 391.735 406.036C392.793 407.561 393.321 409.927 393.321 413.134ZM404.115 414.59V412.796H409.081V421.636C406.897 422.052 404.947 422.26 403.231 422.26C400.614 422.26 398.794 421.506 397.771 419.998C396.766 418.49 396.263 416.167 396.263 413.03C396.263 409.875 396.766 407.544 397.771 406.036C398.794 404.511 400.597 403.748 403.179 403.748C404.791 403.748 406.464 403.921 408.197 404.268L409.081 404.424L409.003 406.088C406.854 405.724 404.991 405.542 403.413 405.542C401.42 405.542 400.077 406.123 399.383 407.284C398.69 408.428 398.343 410.343 398.343 413.03C398.343 415.699 398.69 417.615 399.383 418.776C400.077 419.92 401.411 420.492 403.387 420.492C404.601 420.492 405.84 420.371 407.105 420.128V414.59H404.115ZM418.388 422V409H420.338V422H418.388ZM418.388 406.062V403.8H420.338V406.062H418.388ZM426.025 422H424.075V409H425.999V409.91C427.403 409.13 428.746 408.74 430.029 408.74C431.762 408.74 432.924 409.208 433.513 410.144C434.12 411.08 434.423 412.744 434.423 415.136V422H432.499V415.188C432.499 413.385 432.317 412.155 431.953 411.496C431.606 410.82 430.852 410.482 429.691 410.482C429.136 410.482 428.547 410.569 427.923 410.742C427.316 410.898 426.848 411.054 426.519 411.21L426.025 411.444V422ZM436.691 409H438.771L441.813 420.31H442.775L445.921 409H447.923L444.257 422H440.357L436.691 409ZM459.042 420.388L459.796 420.31L459.848 421.844C457.872 422.121 456.182 422.26 454.778 422.26C452.906 422.26 451.58 421.723 450.8 420.648C450.02 419.556 449.63 417.866 449.63 415.578C449.63 411.019 451.441 408.74 455.064 408.74C456.815 408.74 458.123 409.234 458.99 410.222C459.857 411.193 460.29 412.727 460.29 414.824L460.186 416.306H451.606C451.606 417.745 451.866 418.811 452.386 419.504C452.906 420.197 453.807 420.544 455.09 420.544C456.39 420.544 457.707 420.492 459.042 420.388ZM458.34 414.746C458.34 413.151 458.08 412.025 457.56 411.366C457.057 410.707 456.225 410.378 455.064 410.378C453.92 410.378 453.053 410.725 452.464 411.418C451.892 412.111 451.597 413.221 451.58 414.746H458.34ZM467.411 410.482C465.522 410.482 464.577 411.141 464.577 412.458C464.577 413.065 464.794 413.498 465.227 413.758C465.66 414.001 466.648 414.261 468.191 414.538C469.734 414.798 470.826 415.171 471.467 415.656C472.108 416.141 472.429 417.051 472.429 418.386C472.429 419.721 471.996 420.7 471.129 421.324C470.28 421.948 469.032 422.26 467.385 422.26C466.31 422.26 465.045 422.139 463.589 421.896L462.809 421.766L462.913 420.076C464.889 420.371 466.38 420.518 467.385 420.518C468.39 420.518 469.153 420.362 469.673 420.05C470.21 419.721 470.479 419.183 470.479 418.438C470.479 417.675 470.254 417.164 469.803 416.904C469.352 416.627 468.364 416.367 466.839 416.124C465.314 415.881 464.23 415.526 463.589 415.058C462.948 414.59 462.627 413.723 462.627 412.458C462.627 411.193 463.069 410.257 463.953 409.65C464.854 409.043 465.972 408.74 467.307 408.74C468.364 408.74 469.69 408.861 471.285 409.104L472.013 409.234L471.961 410.898C470.037 410.621 468.52 410.482 467.411 410.482ZM482.149 410.69H478.015V416.904C478.015 418.395 478.119 419.374 478.327 419.842C478.552 420.31 479.072 420.544 479.887 420.544L482.201 420.388L482.331 422C481.17 422.191 480.286 422.286 479.679 422.286C478.327 422.286 477.391 421.957 476.871 421.298C476.351 420.639 476.091 419.383 476.091 417.528V410.69H474.245V409H476.091V405.022H478.015V409H482.149V410.69ZM483.958 415.474C483.958 413.099 484.383 411.383 485.232 410.326C486.082 409.269 487.512 408.74 489.522 408.74C491.55 408.74 492.98 409.269 493.812 410.326C494.662 411.383 495.086 413.099 495.086 415.474C495.086 417.849 494.688 419.573 493.89 420.648C493.093 421.723 491.637 422.26 489.522 422.26C487.408 422.26 485.952 421.723 485.154 420.648C484.357 419.573 483.958 417.849 483.958 415.474ZM485.96 415.448C485.96 417.337 486.186 418.663 486.636 419.426C487.104 420.189 488.066 420.57 489.522 420.57C490.996 420.57 491.958 420.197 492.408 419.452C492.859 418.689 493.084 417.355 493.084 415.448C493.084 413.541 492.833 412.233 492.33 411.522C491.828 410.794 490.892 410.43 489.522 410.43C488.17 410.43 487.234 410.794 486.714 411.522C486.212 412.233 485.96 413.541 485.96 415.448ZM498.267 422V409H500.191V410.768C501.699 409.728 503.285 409.043 504.949 408.714V410.69C504.221 410.829 503.458 411.045 502.661 411.34C501.881 411.635 501.283 411.895 500.867 412.12L500.217 412.458V422H498.267ZM511.337 410.482C509.447 410.482 508.503 411.141 508.503 412.458C508.503 413.065 508.719 413.498 509.153 413.758C509.586 414.001 510.574 414.261 512.117 414.538C513.659 414.798 514.751 415.171 515.393 415.656C516.034 416.141 516.355 417.051 516.355 418.386C516.355 419.721 515.921 420.7 515.055 421.324C514.205 421.948 512.957 422.26 511.311 422.26C510.236 422.26 508.971 422.139 507.515 421.896L506.735 421.766L506.839 420.076C508.815 420.371 510.305 420.518 511.311 420.518C512.316 420.518 513.079 420.362 513.599 420.05C514.136 419.721 514.405 419.183 514.405 418.438C514.405 417.675 514.179 417.164 513.729 416.904C513.278 416.627 512.29 416.367 510.765 416.124C509.239 415.881 508.156 415.526 507.515 415.058C506.873 414.59 506.553 413.723 506.553 412.458C506.553 411.193 506.995 410.257 507.879 409.65C508.78 409.043 509.898 408.74 511.233 408.74C512.29 408.74 513.616 408.861 515.211 409.104L515.939 409.234L515.887 410.898C513.963 410.621 512.446 410.482 511.337 410.482Z" fill="white"/>
</svg>
