<svg width="543" height="463" viewBox="0 0 543 463" fill="none" xmlns="http://www.w3.org/2000/svg">
<rect x="1.5" y="1.5" width="540" height="460" rx="8.5" fill="#580385" stroke="#580385" stroke-width="3"/>
<ellipse cx="42.9464" cy="53.5" rx="7.40455" ry="7.5" fill="white"/>
<ellipse cx="42.9464" cy="113.5" rx="7.40455" ry="7.5" fill="white"/>
<ellipse cx="42.9464" cy="173.5" rx="7.40455" ry="7.5" fill="white"/>
<ellipse cx="42.9464" cy="233.5" rx="7.40455" ry="7.5" fill="white"/>
<ellipse cx="42.9464" cy="293.5" rx="7.40455" ry="7.5" fill="white"/>
<ellipse cx="42.9464" cy="353.5" rx="7.40455" ry="7.5" fill="white"/>
<ellipse cx="42.9464" cy="413.5" rx="7.40455" ry="7.5" fill="white"/>
<path d="M77.6313 62H67.7253V44.008H69.7273V60.206H77.6313V62ZM89.0067 52.926V59.582C89.0587 60.2233 89.5614 60.6047 90.5147 60.726L90.4367 62.26C89.0674 62.26 88.0361 61.9133 87.3427 61.22C85.7827 61.9133 84.2227 62.26 82.6627 62.26C81.4667 62.26 80.5567 61.922 79.9327 61.246C79.3087 60.57 78.9967 59.5993 78.9967 58.334C78.9967 57.0687 79.3174 56.1413 79.9587 55.552C80.6001 54.9453 81.6054 54.5727 82.9747 54.434L87.0567 54.044V52.926C87.0567 52.042 86.8661 51.4093 86.4847 51.028C86.1034 50.6467 85.5834 50.456 84.9247 50.456C83.5381 50.456 82.0994 50.5427 80.6087 50.716L79.8027 50.794L79.7247 49.312C81.6314 48.9307 83.3214 48.74 84.7947 48.74C86.2681 48.74 87.3341 49.078 87.9927 49.754C88.6687 50.43 89.0067 51.4873 89.0067 52.926ZM80.9987 58.23C80.9987 59.8247 81.6574 60.622 82.9747 60.622C84.1534 60.622 85.3147 60.4227 86.4587 60.024L87.0567 59.816V55.526L83.2087 55.89C82.4287 55.9593 81.8654 56.1847 81.5187 56.566C81.1721 56.9473 80.9987 57.502 80.9987 58.23ZM100.966 49H102.916V62H100.966V61.09C99.6661 61.87 98.3835 62.26 97.1181 62.26C95.3501 62.26 94.1715 61.8007 93.5821 60.882C93.0101 59.9633 92.7241 58.2647 92.7241 55.786V49H94.6741V55.76C94.6741 57.6493 94.8388 58.9147 95.1681 59.556C95.4975 60.1973 96.2428 60.518 97.4041 60.518C97.9761 60.518 98.5568 60.44 99.1461 60.284C99.7355 60.1107 100.186 59.946 100.498 59.79L100.966 59.556V49ZM108.617 62H106.667V49H108.591V49.91C109.995 49.13 111.338 48.74 112.621 48.74C114.354 48.74 115.515 49.208 116.105 50.144C116.711 51.08 117.015 52.744 117.015 55.136V62H115.091V55.188C115.091 53.3853 114.909 52.1547 114.545 51.496C114.198 50.82 113.444 50.482 112.283 50.482C111.728 50.482 111.139 50.5687 110.515 50.742C109.908 50.898 109.44 51.054 109.111 51.21L108.617 51.444V62ZM125.493 48.74C126.065 48.74 127.036 48.844 128.405 49.052L129.029 49.13L128.951 50.716C127.565 50.56 126.542 50.482 125.883 50.482C124.41 50.482 123.405 50.8373 122.867 51.548C122.347 52.2413 122.087 53.5413 122.087 55.448C122.087 57.3373 122.33 58.6547 122.815 59.4C123.318 60.1453 124.349 60.518 125.909 60.518L128.977 60.284L129.055 61.896C127.443 62.1387 126.239 62.26 125.441 62.26C123.413 62.26 122.009 61.74 121.229 60.7C120.467 59.66 120.085 57.9093 120.085 55.448C120.085 52.9693 120.501 51.236 121.333 50.248C122.165 49.2427 123.552 48.74 125.493 48.74ZM133.906 62H131.956V43.332H133.906V49.728C135.292 49.0693 136.627 48.74 137.91 48.74C139.643 48.74 140.804 49.208 141.394 50.144C142 51.08 142.304 52.744 142.304 55.136V62H140.354V55.188C140.354 53.3853 140.172 52.1547 139.808 51.496C139.461 50.82 138.716 50.482 137.572 50.482C136.48 50.482 135.422 50.6813 134.4 51.08L133.906 51.262V62ZM156.937 45.49C154.337 45.49 153.037 46.4693 153.037 48.428C153.037 49.52 153.332 50.274 153.921 50.69C154.528 51.0887 155.741 51.496 157.561 51.912C159.399 52.3107 160.699 52.8393 161.461 53.498C162.224 54.1393 162.605 55.2053 162.605 56.696C162.605 60.388 160.69 62.234 156.859 62.234C155.594 62.234 154.008 62.0867 152.101 61.792L151.165 61.662L151.373 59.998C153.731 60.31 155.525 60.466 156.755 60.466C159.321 60.466 160.603 59.2613 160.603 56.852C160.603 55.8813 160.317 55.188 159.745 54.772C159.191 54.3387 158.142 53.9747 156.599 53.68C154.571 53.2467 153.133 52.692 152.283 52.016C151.434 51.3227 151.009 50.17 151.009 48.558C151.009 45.334 152.942 43.722 156.807 43.722C158.073 43.722 159.589 43.852 161.357 44.112L162.241 44.242L162.059 45.932C159.65 45.6373 157.943 45.49 156.937 45.49ZM165.153 55.474C165.153 53.0993 165.578 51.3833 166.427 50.326C167.277 49.2687 168.707 48.74 170.717 48.74C172.745 48.74 174.175 49.2687 175.007 50.326C175.857 51.3833 176.281 53.0993 176.281 55.474C176.281 57.8487 175.883 59.5733 175.085 60.648C174.288 61.7227 172.832 62.26 170.717 62.26C168.603 62.26 167.147 61.7227 166.349 60.648C165.552 59.5733 165.153 57.8487 165.153 55.474ZM167.155 55.448C167.155 57.3373 167.381 58.6633 167.831 59.426C168.299 60.1887 169.261 60.57 170.717 60.57C172.191 60.57 173.153 60.1973 173.603 59.452C174.054 58.6893 174.279 57.3547 174.279 55.448C174.279 53.5413 174.028 52.2327 173.525 51.522C173.023 50.794 172.087 50.43 170.717 50.43C169.365 50.43 168.429 50.794 167.909 51.522C167.407 52.2327 167.155 53.5413 167.155 55.448ZM184.324 48.74C184.896 48.74 185.866 48.844 187.236 49.052L187.86 49.13L187.782 50.716C186.395 50.56 185.372 50.482 184.714 50.482C183.24 50.482 182.235 50.8373 181.698 51.548C181.178 52.2413 180.918 53.5413 180.918 55.448C180.918 57.3373 181.16 58.6547 181.646 59.4C182.148 60.1453 183.18 60.518 184.74 60.518L187.808 60.284L187.886 61.896C186.274 62.1387 185.069 62.26 184.272 62.26C182.244 62.26 180.84 61.74 180.06 60.7C179.297 59.66 178.916 57.9093 178.916 55.448C178.916 52.9693 179.332 51.236 180.164 50.248C180.996 49.2427 182.382 48.74 184.324 48.74ZM190.786 62V49H192.736V62H190.786ZM190.786 46.062V43.8H192.736V46.062H190.786ZM205.651 52.926V59.582C205.703 60.2233 206.206 60.6047 207.159 60.726L207.081 62.26C205.712 62.26 204.681 61.9133 203.987 61.22C202.427 61.9133 200.867 62.26 199.307 62.26C198.111 62.26 197.201 61.922 196.577 61.246C195.953 60.57 195.641 59.5993 195.641 58.334C195.641 57.0687 195.962 56.1413 196.603 55.552C197.245 54.9453 198.25 54.5727 199.619 54.434L203.701 54.044V52.926C203.701 52.042 203.511 51.4093 203.129 51.028C202.748 50.6467 202.228 50.456 201.569 50.456C200.183 50.456 198.744 50.5427 197.253 50.716L196.447 50.794L196.369 49.312C198.276 48.9307 199.966 48.74 201.439 48.74C202.913 48.74 203.979 49.078 204.637 49.754C205.313 50.43 205.651 51.4873 205.651 52.926ZM197.643 58.23C197.643 59.8247 198.302 60.622 199.619 60.622C200.798 60.622 201.959 60.4227 203.103 60.024L203.701 59.816V55.526L199.853 55.89C199.073 55.9593 198.51 56.1847 198.163 56.566C197.817 56.9473 197.643 57.502 197.643 58.23ZM209.655 62V43.332H211.605V62H209.655ZM219.598 50.482C217.709 50.482 216.764 51.1407 216.764 52.458C216.764 53.0647 216.981 53.498 217.414 53.758C217.848 54.0007 218.836 54.2607 220.378 54.538C221.921 54.798 223.013 55.1707 223.654 55.656C224.296 56.1413 224.616 57.0513 224.616 58.386C224.616 59.7207 224.183 60.7 223.316 61.324C222.467 61.948 221.219 62.26 219.572 62.26C218.498 62.26 217.232 62.1387 215.776 61.896L214.996 61.766L215.1 60.076C217.076 60.3707 218.567 60.518 219.572 60.518C220.578 60.518 221.34 60.362 221.86 60.05C222.398 59.7207 222.666 59.1833 222.666 58.438C222.666 57.6753 222.441 57.164 221.99 56.904C221.54 56.6267 220.552 56.3667 219.026 56.124C217.501 55.8813 216.418 55.526 215.776 55.058C215.135 54.59 214.814 53.7233 214.814 52.458C214.814 51.1927 215.256 50.2567 216.14 49.65C217.042 49.0433 218.16 48.74 219.494 48.74C220.552 48.74 221.878 48.8613 223.472 49.104L224.2 49.234L224.148 50.898C222.224 50.6207 220.708 50.482 219.598 50.482Z" fill="white"/>
<path d="M77.1754 122H67.2694V104.008H69.2714V120.206H77.1754V122ZM88.5508 112.926V119.582C88.6028 120.223 89.1055 120.605 90.0588 120.726L89.9808 122.26C88.6115 122.26 87.5802 121.913 86.8868 121.22C85.3268 121.913 83.7668 122.26 82.2068 122.26C81.0108 122.26 80.1008 121.922 79.4768 121.246C78.8528 120.57 78.5408 119.599 78.5408 118.334C78.5408 117.069 78.8615 116.141 79.5028 115.552C80.1442 114.945 81.1495 114.573 82.5188 114.434L86.6008 114.044V112.926C86.6008 112.042 86.4102 111.409 86.0288 111.028C85.6475 110.647 85.1275 110.456 84.4688 110.456C83.0822 110.456 81.6435 110.543 80.1528 110.716L79.3468 110.794L79.2688 109.312C81.1755 108.931 82.8655 108.74 84.3388 108.74C85.8122 108.74 86.8782 109.078 87.5368 109.754C88.2128 110.43 88.5508 111.487 88.5508 112.926ZM80.5428 118.23C80.5428 119.825 81.2015 120.622 82.5188 120.622C83.6975 120.622 84.8588 120.423 86.0028 120.024L86.6008 119.816V115.526L82.7528 115.89C81.9728 115.959 81.4095 116.185 81.0628 116.566C80.7162 116.947 80.5428 117.502 80.5428 118.23ZM100.51 109H102.46V122H100.51V121.09C99.2102 121.87 97.9276 122.26 96.6622 122.26C94.8942 122.26 93.7156 121.801 93.1262 120.882C92.5542 119.963 92.2682 118.265 92.2682 115.786V109H94.2182V115.76C94.2182 117.649 94.3829 118.915 94.7122 119.556C95.0416 120.197 95.7869 120.518 96.9482 120.518C97.5202 120.518 98.1009 120.44 98.6902 120.284C99.2796 120.111 99.7302 119.946 100.042 119.79L100.51 119.556V109ZM108.161 122H106.211V109H108.135V109.91C109.539 109.13 110.882 108.74 112.165 108.74C113.898 108.74 115.059 109.208 115.649 110.144C116.255 111.08 116.559 112.744 116.559 115.136V122H114.635V115.188C114.635 113.385 114.453 112.155 114.089 111.496C113.742 110.82 112.988 110.482 111.827 110.482C111.272 110.482 110.683 110.569 110.059 110.742C109.452 110.898 108.984 111.054 108.655 111.21L108.161 111.444V122ZM125.038 108.74C125.61 108.74 126.58 108.844 127.95 109.052L128.574 109.13L128.496 110.716C127.109 110.56 126.086 110.482 125.428 110.482C123.954 110.482 122.949 110.837 122.412 111.548C121.892 112.241 121.632 113.541 121.632 115.448C121.632 117.337 121.874 118.655 122.36 119.4C122.862 120.145 123.894 120.518 125.454 120.518L128.522 120.284L128.6 121.896C126.988 122.139 125.783 122.26 124.986 122.26C122.958 122.26 121.554 121.74 120.774 120.7C120.011 119.66 119.63 117.909 119.63 115.448C119.63 112.969 120.046 111.236 120.878 110.248C121.71 109.243 123.096 108.74 125.038 108.74ZM133.45 122H131.5V103.332H133.45V109.728C134.836 109.069 136.171 108.74 137.454 108.74C139.187 108.74 140.348 109.208 140.938 110.144C141.544 111.08 141.848 112.744 141.848 115.136V122H139.898V115.188C139.898 113.385 139.716 112.155 139.352 111.496C139.005 110.82 138.26 110.482 137.116 110.482C136.024 110.482 134.966 110.681 133.944 111.08L133.45 111.262V122ZM160.356 112.926V119.582C160.408 120.223 160.91 120.605 161.864 120.726L161.786 122.26C160.416 122.26 159.385 121.913 158.692 121.22C157.132 121.913 155.572 122.26 154.012 122.26C152.816 122.26 151.906 121.922 151.282 121.246C150.658 120.57 150.346 119.599 150.346 118.334C150.346 117.069 150.666 116.141 151.308 115.552C151.949 114.945 152.954 114.573 154.324 114.434L158.406 114.044V112.926C158.406 112.042 158.215 111.409 157.834 111.028C157.452 110.647 156.932 110.456 156.274 110.456C154.887 110.456 153.448 110.543 151.958 110.716L151.152 110.794L151.074 109.312C152.98 108.931 154.67 108.74 156.144 108.74C157.617 108.74 158.683 109.078 159.342 109.754C160.018 110.43 160.356 111.487 160.356 112.926ZM152.348 118.23C152.348 119.825 153.006 120.622 154.324 120.622C155.502 120.622 156.664 120.423 157.808 120.024L158.406 119.816V115.526L154.558 115.89C153.778 115.959 153.214 116.185 152.868 116.566C152.521 116.947 152.348 117.502 152.348 118.23ZM164.203 122V109H166.153V122H164.203ZM164.203 106.062V103.8H166.153V106.062H164.203ZM169.89 122V109H171.814V110.768C173.322 109.728 174.908 109.043 176.572 108.714V110.69C175.844 110.829 175.082 111.045 174.284 111.34C173.504 111.635 172.906 111.895 172.49 112.12L171.84 112.458V122H169.89ZM188.533 103.332V122H186.609V121.116C185.274 121.879 183.957 122.26 182.657 122.26C181.963 122.26 181.357 122.173 180.837 122C180.317 121.827 179.831 121.515 179.381 121.064C178.445 120.128 177.977 118.403 177.977 115.89C177.977 113.359 178.393 111.539 179.225 110.43C180.074 109.303 181.469 108.74 183.411 108.74C184.416 108.74 185.482 108.853 186.609 109.078V103.332H188.533ZM180.889 119.66C181.166 119.989 181.461 120.215 181.773 120.336C182.085 120.457 182.483 120.518 182.969 120.518C183.471 120.518 184.026 120.44 184.633 120.284C185.257 120.111 185.742 119.946 186.089 119.79L186.609 119.556V110.742C185.499 110.534 184.468 110.43 183.515 110.43C182.197 110.43 181.279 110.855 180.759 111.704C180.239 112.536 179.979 113.836 179.979 115.604C179.979 117.615 180.282 118.967 180.889 119.66ZM192.31 122V109H194.234V110.768C195.742 109.728 197.328 109.043 198.992 108.714V110.69C198.264 110.829 197.502 111.045 196.704 111.34C195.924 111.635 195.326 111.895 194.91 112.12L194.26 112.458V122H192.31ZM200.473 115.474C200.473 113.099 200.897 111.383 201.747 110.326C202.596 109.269 204.026 108.74 206.037 108.74C208.065 108.74 209.495 109.269 210.327 110.326C211.176 111.383 211.601 113.099 211.601 115.474C211.601 117.849 211.202 119.573 210.405 120.648C209.607 121.723 208.151 122.26 206.037 122.26C203.922 122.26 202.466 121.723 201.669 120.648C200.871 119.573 200.473 117.849 200.473 115.474ZM202.475 115.448C202.475 117.337 202.7 118.663 203.151 119.426C203.619 120.189 204.581 120.57 206.037 120.57C207.51 120.57 208.472 120.197 208.923 119.452C209.373 118.689 209.599 117.355 209.599 115.448C209.599 113.541 209.347 112.233 208.845 111.522C208.342 110.794 207.406 110.43 206.037 110.43C204.685 110.43 203.749 110.794 203.229 111.522C202.726 112.233 202.475 113.541 202.475 115.448ZM214.781 127.772V109H216.705V109.936C218.022 109.139 219.322 108.74 220.605 108.74C222.252 108.74 223.448 109.269 224.193 110.326C224.938 111.366 225.311 113.091 225.311 115.5C225.311 117.909 224.869 119.643 223.985 120.7C223.118 121.74 221.671 122.26 219.643 122.26C218.586 122.26 217.615 122.165 216.731 121.974V127.772H214.781ZM220.319 110.482C219.799 110.482 219.236 110.569 218.629 110.742C218.04 110.915 217.572 111.089 217.225 111.262L216.731 111.522V120.284C217.962 120.475 218.898 120.57 219.539 120.57C220.943 120.57 221.922 120.171 222.477 119.374C223.049 118.577 223.335 117.277 223.335 115.474C223.335 113.671 223.075 112.389 222.555 111.626C222.052 110.863 221.307 110.482 220.319 110.482ZM235.973 107.596C235.973 106.435 236.372 105.507 237.169 104.814C237.966 104.121 239.093 103.774 240.549 103.774C242.005 103.774 243.106 104.121 243.851 104.814C244.614 105.507 244.995 106.469 244.995 107.7C244.995 108.913 244.692 109.875 244.085 110.586C243.478 111.279 242.447 111.964 240.991 112.64L244.943 116.54C245.324 115.431 245.567 114.027 245.671 112.328L247.569 112.354C247.344 114.521 246.945 116.323 246.373 117.762L249.727 120.934L248.557 122.234L245.411 119.296C244.215 121.272 242.404 122.26 239.977 122.26C237.55 122.26 235.852 121.792 234.881 120.856C233.91 119.92 233.425 118.629 233.425 116.982C233.425 115.318 233.737 114.105 234.361 113.342C235.002 112.562 236.034 111.938 237.455 111.47C236.848 110.777 236.45 110.161 236.259 109.624C236.068 109.087 235.973 108.411 235.973 107.596ZM239.665 120.492C241.797 120.492 243.262 119.712 244.059 118.152L238.573 112.692C237.429 113.056 236.614 113.524 236.129 114.096C235.644 114.668 235.401 115.552 235.401 116.748C235.401 119.244 236.822 120.492 239.665 120.492ZM237.923 107.908C237.923 108.965 238.313 109.91 239.093 110.742L239.847 111.47C241.043 110.95 241.875 110.439 242.343 109.936C242.811 109.433 243.045 108.74 243.045 107.856C243.045 106.261 242.187 105.464 240.471 105.464C238.772 105.464 237.923 106.279 237.923 107.908ZM262.68 108.74C263.252 108.74 264.223 108.844 265.592 109.052L266.216 109.13L266.138 110.716C264.751 110.56 263.729 110.482 263.07 110.482C261.597 110.482 260.591 110.837 260.054 111.548C259.534 112.241 259.274 113.541 259.274 115.448C259.274 117.337 259.517 118.655 260.002 119.4C260.505 120.145 261.536 120.518 263.096 120.518L266.164 120.284L266.242 121.896C264.63 122.139 263.425 122.26 262.628 122.26C260.6 122.26 259.196 121.74 258.416 120.7C257.653 119.66 257.272 117.909 257.272 115.448C257.272 112.969 257.688 111.236 258.52 110.248C259.352 109.243 260.739 108.74 262.68 108.74ZM268.418 115.474C268.418 113.099 268.843 111.383 269.692 110.326C270.541 109.269 271.971 108.74 273.982 108.74C276.01 108.74 277.44 109.269 278.272 110.326C279.121 111.383 279.546 113.099 279.546 115.474C279.546 117.849 279.147 119.573 278.35 120.648C277.553 121.723 276.097 122.26 273.982 122.26C271.867 122.26 270.411 121.723 269.614 120.648C268.817 119.573 268.418 117.849 268.418 115.474ZM270.42 115.448C270.42 117.337 270.645 118.663 271.096 119.426C271.564 120.189 272.526 120.57 273.982 120.57C275.455 120.57 276.417 120.197 276.868 119.452C277.319 118.689 277.544 117.355 277.544 115.448C277.544 113.541 277.293 112.233 276.79 111.522C276.287 110.794 275.351 110.43 273.982 110.43C272.63 110.43 271.694 110.794 271.174 111.522C270.671 112.233 270.42 113.541 270.42 115.448ZM284.676 122H282.726V109H284.65V109.91C285.95 109.13 287.216 108.74 288.446 108.74C290.058 108.74 291.185 109.182 291.826 110.066C292.398 109.719 293.135 109.416 294.036 109.156C294.955 108.879 295.761 108.74 296.454 108.74C298.188 108.74 299.349 109.208 299.938 110.144C300.545 111.063 300.848 112.727 300.848 115.136V122H298.898V115.188C298.898 113.385 298.725 112.155 298.378 111.496C298.032 110.82 297.295 110.482 296.168 110.482C295.596 110.482 295.007 110.569 294.4 110.742C293.794 110.898 293.326 111.054 292.996 111.21L292.502 111.444C292.728 112.016 292.84 113.281 292.84 115.24V122H290.89V115.292C290.89 113.42 290.717 112.155 290.37 111.496C290.041 110.82 289.304 110.482 288.16 110.482C287.606 110.482 287.034 110.569 286.444 110.742C285.872 110.898 285.43 111.054 285.118 111.21L284.676 111.444V122ZM306.411 122H304.461V109H306.385V109.91C307.685 109.13 308.95 108.74 310.181 108.74C311.793 108.74 312.919 109.182 313.561 110.066C314.133 109.719 314.869 109.416 315.771 109.156C316.689 108.879 317.495 108.74 318.189 108.74C319.922 108.74 321.083 109.208 321.673 110.144C322.279 111.063 322.583 112.727 322.583 115.136V122H320.633V115.188C320.633 113.385 320.459 112.155 320.113 111.496C319.766 110.82 319.029 110.482 317.903 110.482C317.331 110.482 316.741 110.569 316.135 110.742C315.528 110.898 315.06 111.054 314.731 111.21L314.237 111.444C314.462 112.016 314.575 113.281 314.575 115.24V122H312.625V115.292C312.625 113.42 312.451 112.155 312.105 111.496C311.775 110.82 311.039 110.482 309.895 110.482C309.34 110.482 308.768 110.569 308.179 110.742C307.607 110.898 307.165 111.054 306.853 111.21L306.411 111.444V122ZM334.307 109H336.257V122H334.307V121.09C333.007 121.87 331.724 122.26 330.459 122.26C328.691 122.26 327.512 121.801 326.923 120.882C326.351 119.963 326.065 118.265 326.065 115.786V109H328.015V115.76C328.015 117.649 328.18 118.915 328.509 119.556C328.838 120.197 329.584 120.518 330.745 120.518C331.317 120.518 331.898 120.44 332.487 120.284C333.076 120.111 333.527 119.946 333.839 119.79L334.307 119.556V109ZM341.958 122H340.008V109H341.932V109.91C343.336 109.13 344.679 108.74 345.962 108.74C347.695 108.74 348.856 109.208 349.446 110.144C350.052 111.08 350.356 112.744 350.356 115.136V122H348.432V115.188C348.432 113.385 348.25 112.155 347.886 111.496C347.539 110.82 346.785 110.482 345.624 110.482C345.069 110.482 344.48 110.569 343.856 110.742C343.249 110.898 342.781 111.054 342.452 111.21L341.958 111.444V122ZM353.972 122V109H355.922V122H353.972ZM353.972 106.062V103.8H355.922V106.062H353.972ZM366.394 110.69H362.26V116.904C362.26 118.395 362.364 119.374 362.572 119.842C362.797 120.31 363.317 120.544 364.132 120.544L366.446 120.388L366.576 122C365.415 122.191 364.531 122.286 363.924 122.286C362.572 122.286 361.636 121.957 361.116 121.298C360.596 120.639 360.336 119.383 360.336 117.528V110.69H358.49V109H360.336V105.022H362.26V109H366.394V110.69ZM367.553 109H369.503L372.753 120.31H373.611L376.887 109H378.837L373.429 127.772H371.479L373.169 122H371.245L367.553 109ZM392.074 128.11C389.994 128.11 388.538 127.824 387.706 127.252C386.892 126.697 386.484 125.675 386.484 124.184C386.484 123.473 386.64 122.893 386.952 122.442C387.264 122.009 387.793 121.515 388.538 120.96C388.053 120.631 387.81 120.033 387.81 119.166C387.81 118.871 388.027 118.325 388.46 117.528L388.694 117.112C387.325 116.488 386.64 115.179 386.64 113.186C386.64 110.222 388.261 108.74 391.502 108.74C392.334 108.74 393.106 108.827 393.816 109L394.206 109.078L398.054 108.974V110.638L395.584 110.586C396.156 111.158 396.442 112.025 396.442 113.186C396.442 114.815 396.035 115.959 395.22 116.618C394.423 117.259 393.158 117.58 391.424 117.58C390.956 117.58 390.532 117.545 390.15 117.476C389.838 118.239 389.682 118.733 389.682 118.958C389.682 119.495 389.847 119.833 390.176 119.972C390.506 120.093 391.502 120.154 393.166 120.154C394.83 120.154 396.026 120.414 396.754 120.934C397.482 121.454 397.846 122.468 397.846 123.976C397.846 126.732 395.922 128.11 392.074 128.11ZM388.408 124.028C388.408 124.947 388.66 125.579 389.162 125.926C389.682 126.29 390.627 126.472 391.996 126.472C393.383 126.472 394.371 126.281 394.96 125.9C395.567 125.519 395.87 124.877 395.87 123.976C395.87 123.092 395.654 122.52 395.22 122.26C394.787 122 393.938 121.87 392.672 121.87L389.864 121.74C389.292 122.156 388.902 122.52 388.694 122.832C388.504 123.144 388.408 123.543 388.408 124.028ZM388.59 113.186C388.59 114.209 388.816 114.937 389.266 115.37C389.734 115.803 390.497 116.02 391.554 116.02C392.612 116.02 393.366 115.803 393.816 115.37C394.267 114.937 394.492 114.209 394.492 113.186C394.492 112.146 394.267 111.409 393.816 110.976C393.366 110.543 392.612 110.326 391.554 110.326C390.497 110.326 389.734 110.551 389.266 111.002C388.816 111.435 388.59 112.163 388.59 113.186ZM400.412 122V109H402.362V122H400.412ZM400.412 106.062V103.8H402.362V106.062H400.412ZM404.877 109H406.957L409.999 120.31H410.961L414.107 109H416.109L412.443 122H408.543L404.877 109ZM427.228 120.388L427.982 120.31L428.034 121.844C426.058 122.121 424.368 122.26 422.964 122.26C421.092 122.26 419.766 121.723 418.986 120.648C418.206 119.556 417.816 117.866 417.816 115.578C417.816 111.019 419.628 108.74 423.25 108.74C425.001 108.74 426.31 109.234 427.176 110.222C428.043 111.193 428.476 112.727 428.476 114.824L428.372 116.306H419.792C419.792 117.745 420.052 118.811 420.572 119.504C421.092 120.197 421.994 120.544 423.276 120.544C424.576 120.544 425.894 120.492 427.228 120.388ZM426.526 114.746C426.526 113.151 426.266 112.025 425.746 111.366C425.244 110.707 424.412 110.378 423.25 110.378C422.106 110.378 421.24 110.725 420.65 111.418C420.078 112.111 419.784 113.221 419.766 114.746H426.526ZM440.693 112.926V119.582C440.745 120.223 441.248 120.605 442.201 120.726L442.123 122.26C440.754 122.26 439.723 121.913 439.029 121.22C437.469 121.913 435.909 122.26 434.349 122.26C433.153 122.26 432.243 121.922 431.619 121.246C430.995 120.57 430.683 119.599 430.683 118.334C430.683 117.069 431.004 116.141 431.645 115.552C432.287 114.945 433.292 114.573 434.661 114.434L438.743 114.044V112.926C438.743 112.042 438.553 111.409 438.171 111.028C437.79 110.647 437.27 110.456 436.611 110.456C435.225 110.456 433.786 110.543 432.295 110.716L431.489 110.794L431.411 109.312C433.318 108.931 435.008 108.74 436.481 108.74C437.955 108.74 439.021 109.078 439.679 109.754C440.355 110.43 440.693 111.487 440.693 112.926ZM432.685 118.23C432.685 119.825 433.344 120.622 434.661 120.622C435.84 120.622 437.001 120.423 438.145 120.024L438.743 119.816V115.526L434.895 115.89C434.115 115.959 433.552 116.185 433.205 116.566C432.859 116.947 432.685 117.502 432.685 118.23ZM443.475 109H445.425L448.051 120.31H448.467L451.561 109.26H453.589L456.683 120.31H457.125L459.725 109H461.675L458.581 122H455.331L452.575 111.834L449.819 122H446.569L443.475 109ZM473.397 112.926V119.582C473.449 120.223 473.951 120.605 474.905 120.726L474.827 122.26C473.457 122.26 472.426 121.913 471.733 121.22C470.173 121.913 468.613 122.26 467.053 122.26C465.857 122.26 464.947 121.922 464.323 121.246C463.699 120.57 463.387 119.599 463.387 118.334C463.387 117.069 463.707 116.141 464.349 115.552C464.99 114.945 465.995 114.573 467.365 114.434L471.447 114.044V112.926C471.447 112.042 471.256 111.409 470.875 111.028C470.493 110.647 469.973 110.456 469.315 110.456C467.928 110.456 466.489 110.543 464.999 110.716L464.193 110.794L464.115 109.312C466.021 108.931 467.711 108.74 469.185 108.74C470.658 108.74 471.724 109.078 472.383 109.754C473.059 110.43 473.397 111.487 473.397 112.926ZM465.389 118.23C465.389 119.825 466.047 120.622 467.365 120.622C468.543 120.622 469.705 120.423 470.849 120.024L471.447 119.816V115.526L467.599 115.89C466.819 115.959 466.255 116.185 465.909 116.566C465.562 116.947 465.389 117.502 465.389 118.23ZM475.895 109H477.845L481.095 120.31H481.953L485.229 109H487.179L481.771 127.772H479.821L481.511 122H479.587L475.895 109Z" fill="white"/>
<path d="M71.5414 164.84V182H69.5394V167.076L65.1194 169.988L64.2094 168.48L69.6694 164.84H71.5414ZM83.2303 164.554C84.6516 164.554 85.8043 164.823 86.6883 165.36C88.5603 166.469 89.4963 169.243 89.4963 173.68C89.4963 176.817 88.9763 179.036 87.9363 180.336C86.8963 181.619 85.3363 182.26 83.2563 182.26C81.1763 182.26 79.6076 181.627 78.5503 180.362C77.5103 179.079 76.9903 176.809 76.9903 173.55C76.9903 170.274 77.5016 167.96 78.5243 166.608C79.5643 165.239 81.1329 164.554 83.2303 164.554ZM83.2563 166.348C82.2683 166.348 81.4883 166.556 80.9163 166.972C79.6856 167.821 79.0703 170.066 79.0703 173.706C79.0703 176.271 79.4083 178.048 80.0843 179.036C80.7603 180.007 81.8176 180.492 83.2563 180.492C84.6949 180.492 85.7523 179.998 86.4283 179.01C87.1043 178.022 87.4423 176.193 87.4423 173.524C87.4423 170.837 87.1129 168.974 86.4543 167.934C85.8129 166.877 84.7469 166.348 83.2563 166.348ZM97.7791 164.554C99.2004 164.554 100.353 164.823 101.237 165.36C103.109 166.469 104.045 169.243 104.045 173.68C104.045 176.817 103.525 179.036 102.485 180.336C101.445 181.619 99.8851 182.26 97.8051 182.26C95.7251 182.26 94.1564 181.627 93.0991 180.362C92.0591 179.079 91.5391 176.809 91.5391 173.55C91.5391 170.274 92.0504 167.96 93.0731 166.608C94.1131 165.239 95.6818 164.554 97.7791 164.554ZM97.8051 166.348C96.8171 166.348 96.0371 166.556 95.4651 166.972C94.2344 167.821 93.6191 170.066 93.6191 173.706C93.6191 176.271 93.9571 178.048 94.6331 179.036C95.3091 180.007 96.3664 180.492 97.8051 180.492C99.2438 180.492 100.301 179.998 100.977 179.01C101.653 178.022 101.991 176.193 101.991 173.524C101.991 170.837 101.662 168.974 101.003 167.934C100.362 166.877 99.2958 166.348 97.8051 166.348ZM112.328 164.554C113.749 164.554 114.902 164.823 115.786 165.36C117.658 166.469 118.594 169.243 118.594 173.68C118.594 176.817 118.074 179.036 117.034 180.336C115.994 181.619 114.434 182.26 112.354 182.26C110.274 182.26 108.705 181.627 107.648 180.362C106.608 179.079 106.088 176.809 106.088 173.55C106.088 170.274 106.599 167.96 107.622 166.608C108.662 165.239 110.231 164.554 112.328 164.554ZM112.354 166.348C111.366 166.348 110.586 166.556 110.014 166.972C108.783 167.821 108.168 170.066 108.168 173.706C108.168 176.271 108.506 178.048 109.182 179.036C109.858 180.007 110.915 180.492 112.354 180.492C113.793 180.492 114.85 179.998 115.526 179.01C116.202 178.022 116.54 176.193 116.54 173.524C116.54 170.837 116.211 168.974 115.552 167.934C114.911 166.877 113.845 166.348 112.354 166.348ZM129.158 182H127.208V169H129.132V169.91C130.432 169.13 131.697 168.74 132.928 168.74C134.54 168.74 135.666 169.182 136.308 170.066C136.88 169.719 137.616 169.416 138.518 169.156C139.436 168.879 140.242 168.74 140.936 168.74C142.669 168.74 143.83 169.208 144.42 170.144C145.026 171.063 145.33 172.727 145.33 175.136V182H143.38V175.188C143.38 173.385 143.206 172.155 142.86 171.496C142.513 170.82 141.776 170.482 140.65 170.482C140.078 170.482 139.488 170.569 138.882 170.742C138.275 170.898 137.807 171.054 137.478 171.21L136.984 171.444C137.209 172.016 137.322 173.281 137.322 175.24V182H135.372V175.292C135.372 173.42 135.198 172.155 134.852 171.496C134.522 170.82 133.786 170.482 132.642 170.482C132.087 170.482 131.515 170.569 130.926 170.742C130.354 170.898 129.912 171.054 129.6 171.21L129.158 171.444V182ZM157.782 180.388L158.536 180.31L158.588 181.844C156.612 182.121 154.922 182.26 153.518 182.26C151.646 182.26 150.32 181.723 149.54 180.648C148.76 179.556 148.37 177.866 148.37 175.578C148.37 171.019 150.181 168.74 153.804 168.74C155.555 168.74 156.863 169.234 157.73 170.222C158.597 171.193 159.03 172.727 159.03 174.824L158.926 176.306H150.346C150.346 177.745 150.606 178.811 151.126 179.504C151.646 180.197 152.547 180.544 153.83 180.544C155.13 180.544 156.447 180.492 157.782 180.388ZM157.08 174.746C157.08 173.151 156.82 172.025 156.3 171.366C155.797 170.707 154.965 170.378 153.804 170.378C152.66 170.378 151.793 170.725 151.204 171.418C150.632 172.111 150.337 173.221 150.32 174.746H157.08ZM164.019 182H162.069V169H163.993V169.91C165.293 169.13 166.558 168.74 167.789 168.74C169.401 168.74 170.528 169.182 171.169 170.066C171.741 169.719 172.478 169.416 173.379 169.156C174.298 168.879 175.104 168.74 175.797 168.74C177.53 168.74 178.692 169.208 179.281 170.144C179.888 171.063 180.191 172.727 180.191 175.136V182H178.241V175.188C178.241 173.385 178.068 172.155 177.721 171.496C177.374 170.82 176.638 170.482 175.511 170.482C174.939 170.482 174.35 170.569 173.743 170.742C173.136 170.898 172.668 171.054 172.339 171.21L171.845 171.444C172.07 172.016 172.183 173.281 172.183 175.24V182H170.233V175.292C170.233 173.42 170.06 172.155 169.713 171.496C169.384 170.82 168.647 170.482 167.503 170.482C166.948 170.482 166.376 170.569 165.787 170.742C165.215 170.898 164.773 171.054 164.461 171.21L164.019 171.444V182ZM189.549 168.74C191.3 168.74 192.522 169.243 193.215 170.248C193.926 171.236 194.281 172.978 194.281 175.474C194.281 177.97 193.839 179.729 192.955 180.752C192.089 181.757 190.485 182.26 188.145 182.26C187.417 182.26 186.213 182.191 184.531 182.052L183.803 181.974V163.332H185.727V169.65C187.045 169.043 188.319 168.74 189.549 168.74ZM188.119 180.518C189.818 180.518 190.936 180.137 191.473 179.374C192.028 178.594 192.305 177.285 192.305 175.448C192.305 173.611 192.089 172.328 191.655 171.6C191.222 170.855 190.451 170.482 189.341 170.482C188.336 170.482 187.305 170.673 186.247 171.054L185.727 171.236V180.388C186.854 180.475 187.651 180.518 188.119 180.518ZM206.329 180.388L207.083 180.31L207.135 181.844C205.159 182.121 203.469 182.26 202.065 182.26C200.193 182.26 198.867 181.723 198.087 180.648C197.307 179.556 196.917 177.866 196.917 175.578C196.917 171.019 198.728 168.74 202.351 168.74C204.102 168.74 205.41 169.234 206.277 170.222C207.144 171.193 207.577 172.727 207.577 174.824L207.473 176.306H198.893C198.893 177.745 199.153 178.811 199.673 179.504C200.193 180.197 201.094 180.544 202.377 180.544C203.677 180.544 204.994 180.492 206.329 180.388ZM205.627 174.746C205.627 173.151 205.367 172.025 204.847 171.366C204.344 170.707 203.512 170.378 202.351 170.378C201.207 170.378 200.34 170.725 199.751 171.418C199.179 172.111 198.884 173.221 198.867 174.746H205.627ZM210.616 182V169H212.54V170.768C214.048 169.728 215.634 169.043 217.298 168.714V170.69C216.57 170.829 215.807 171.045 215.01 171.34C214.23 171.635 213.632 171.895 213.216 172.12L212.566 172.458V182H210.616ZM223.686 170.482C221.797 170.482 220.852 171.141 220.852 172.458C220.852 173.065 221.069 173.498 221.502 173.758C221.935 174.001 222.923 174.261 224.466 174.538C226.009 174.798 227.101 175.171 227.742 175.656C228.383 176.141 228.704 177.051 228.704 178.386C228.704 179.721 228.271 180.7 227.404 181.324C226.555 181.948 225.307 182.26 223.66 182.26C222.585 182.26 221.32 182.139 219.864 181.896L219.084 181.766L219.188 180.076C221.164 180.371 222.655 180.518 223.66 180.518C224.665 180.518 225.428 180.362 225.948 180.05C226.485 179.721 226.754 179.183 226.754 178.438C226.754 177.675 226.529 177.164 226.078 176.904C225.627 176.627 224.639 176.367 223.114 176.124C221.589 175.881 220.505 175.526 219.864 175.058C219.223 174.59 218.902 173.723 218.902 172.458C218.902 171.193 219.344 170.257 220.228 169.65C221.129 169.043 222.247 168.74 223.582 168.74C224.639 168.74 225.965 168.861 227.56 169.104L228.288 169.234L228.236 170.898C226.312 170.621 224.795 170.482 223.686 170.482Z" fill="white"/>
<path d="M65.9689 223.008H68.0489L71.1169 239.232H71.8709L75.5369 223.164H77.8769L81.5429 239.232H82.2969L85.3649 223.008H87.4189L83.7789 241H80.1129L76.7069 225.634L73.3009 241H69.6349L65.9689 223.008ZM98.4224 239.388L99.1764 239.31L99.2284 240.844C97.2524 241.121 95.5624 241.26 94.1584 241.26C92.2864 241.26 90.9604 240.723 90.1804 239.648C89.4004 238.556 89.0104 236.866 89.0104 234.578C89.0104 230.019 90.8217 227.74 94.4444 227.74C96.195 227.74 97.5037 228.234 98.3704 229.222C99.237 230.193 99.6704 231.727 99.6704 233.824L99.5664 235.306H90.9864C90.9864 236.745 91.2464 237.811 91.7664 238.504C92.2864 239.197 93.1877 239.544 94.4704 239.544C95.7704 239.544 97.0877 239.492 98.4224 239.388ZM97.7204 233.746C97.7204 232.151 97.4604 231.025 96.9404 230.366C96.4377 229.707 95.6057 229.378 94.4444 229.378C93.3004 229.378 92.4337 229.725 91.8444 230.418C91.2724 231.111 90.9777 232.221 90.9604 233.746H97.7204ZM108.455 227.74C110.206 227.74 111.428 228.243 112.121 229.248C112.832 230.236 113.187 231.978 113.187 234.474C113.187 236.97 112.745 238.729 111.861 239.752C110.995 240.757 109.391 241.26 107.051 241.26C106.323 241.26 105.119 241.191 103.437 241.052L102.709 240.974V222.332H104.633V228.65C105.951 228.043 107.225 227.74 108.455 227.74ZM107.025 239.518C108.724 239.518 109.842 239.137 110.379 238.374C110.934 237.594 111.211 236.285 111.211 234.448C111.211 232.611 110.995 231.328 110.561 230.6C110.128 229.855 109.357 229.482 108.247 229.482C107.242 229.482 106.211 229.673 105.153 230.054L104.633 230.236V239.388C105.76 239.475 106.557 239.518 107.025 239.518ZM120.477 229.482C118.588 229.482 117.643 230.141 117.643 231.458C117.643 232.065 117.86 232.498 118.293 232.758C118.726 233.001 119.714 233.261 121.257 233.538C122.8 233.798 123.892 234.171 124.533 234.656C125.174 235.141 125.495 236.051 125.495 237.386C125.495 238.721 125.062 239.7 124.195 240.324C123.346 240.948 122.098 241.26 120.451 241.26C119.376 241.26 118.111 241.139 116.655 240.896L115.875 240.766L115.979 239.076C117.955 239.371 119.446 239.518 120.451 239.518C121.456 239.518 122.219 239.362 122.739 239.05C123.276 238.721 123.545 238.183 123.545 237.438C123.545 236.675 123.32 236.164 122.869 235.904C122.418 235.627 121.43 235.367 119.905 235.124C118.38 234.881 117.296 234.526 116.655 234.058C116.014 233.59 115.693 232.723 115.693 231.458C115.693 230.193 116.135 229.257 117.019 228.65C117.92 228.043 119.038 227.74 120.373 227.74C121.43 227.74 122.756 227.861 124.351 228.104L125.079 228.234L125.027 229.898C123.103 229.621 121.586 229.482 120.477 229.482ZM128.481 241V228H130.431V241H128.481ZM128.481 225.062V222.8H130.431V225.062H128.481ZM140.902 229.69H136.768V235.904C136.768 237.395 136.872 238.374 137.08 238.842C137.306 239.31 137.826 239.544 138.64 239.544L140.954 239.388L141.084 241C139.923 241.191 139.039 241.286 138.432 241.286C137.08 241.286 136.144 240.957 135.624 240.298C135.104 239.639 134.844 238.383 134.844 236.528V229.69H132.998V228H134.844V224.022H136.768V228H140.902V229.69ZM152.124 239.388L152.878 239.31L152.93 240.844C150.954 241.121 149.264 241.26 147.86 241.26C145.988 241.26 144.662 240.723 143.882 239.648C143.102 238.556 142.712 236.866 142.712 234.578C142.712 230.019 144.523 227.74 148.146 227.74C149.896 227.74 151.205 228.234 152.072 229.222C152.938 230.193 153.372 231.727 153.372 233.824L153.268 235.306H144.688C144.688 236.745 144.948 237.811 145.468 238.504C145.988 239.197 146.889 239.544 148.172 239.544C149.472 239.544 150.789 239.492 152.124 239.388ZM151.422 233.746C151.422 232.151 151.162 231.025 150.642 230.366C150.139 229.707 149.307 229.378 148.146 229.378C147.002 229.378 146.135 229.725 145.546 230.418C144.974 231.111 144.679 232.221 144.662 233.746H151.422ZM172.107 222.332V241H170.183V240.116C168.849 240.879 167.531 241.26 166.231 241.26C165.538 241.26 164.931 241.173 164.411 241C163.891 240.827 163.406 240.515 162.955 240.064C162.019 239.128 161.551 237.403 161.551 234.89C161.551 232.359 161.967 230.539 162.799 229.43C163.649 228.303 165.044 227.74 166.985 227.74C167.991 227.74 169.057 227.853 170.183 228.078V222.332H172.107ZM164.463 238.66C164.741 238.989 165.035 239.215 165.347 239.336C165.659 239.457 166.058 239.518 166.543 239.518C167.046 239.518 167.601 239.44 168.207 239.284C168.831 239.111 169.317 238.946 169.663 238.79L170.183 238.556V229.742C169.074 229.534 168.043 229.43 167.089 229.43C165.772 229.43 164.853 229.855 164.333 230.704C163.813 231.536 163.553 232.836 163.553 234.604C163.553 236.615 163.857 237.967 164.463 238.66ZM184.725 239.388L185.479 239.31L185.531 240.844C183.555 241.121 181.865 241.26 180.461 241.26C178.589 241.26 177.263 240.723 176.483 239.648C175.703 238.556 175.313 236.866 175.313 234.578C175.313 230.019 177.124 227.74 180.747 227.74C182.498 227.74 183.806 228.234 184.673 229.222C185.54 230.193 185.973 231.727 185.973 233.824L185.869 235.306H177.289C177.289 236.745 177.549 237.811 178.069 238.504C178.589 239.197 179.49 239.544 180.773 239.544C182.073 239.544 183.39 239.492 184.725 239.388ZM184.023 233.746C184.023 232.151 183.763 231.025 183.243 230.366C182.74 229.707 181.908 229.378 180.747 229.378C179.603 229.378 178.736 229.725 178.147 230.418C177.575 231.111 177.28 232.221 177.263 233.746H184.023ZM193.094 229.482C191.205 229.482 190.26 230.141 190.26 231.458C190.26 232.065 190.477 232.498 190.91 232.758C191.343 233.001 192.331 233.261 193.874 233.538C195.417 233.798 196.509 234.171 197.15 234.656C197.791 235.141 198.112 236.051 198.112 237.386C198.112 238.721 197.679 239.7 196.812 240.324C195.963 240.948 194.715 241.26 193.068 241.26C191.993 241.26 190.728 241.139 189.272 240.896L188.492 240.766L188.596 239.076C190.572 239.371 192.063 239.518 193.068 239.518C194.073 239.518 194.836 239.362 195.356 239.05C195.893 238.721 196.162 238.183 196.162 237.438C196.162 236.675 195.937 236.164 195.486 235.904C195.035 235.627 194.047 235.367 192.522 235.124C190.997 234.881 189.913 234.526 189.272 234.058C188.631 233.59 188.31 232.723 188.31 231.458C188.31 230.193 188.752 229.257 189.636 228.65C190.537 228.043 191.655 227.74 192.99 227.74C194.047 227.74 195.373 227.861 196.968 228.104L197.696 228.234L197.644 229.898C195.72 229.621 194.203 229.482 193.094 229.482ZM201.098 241V228H203.048V241H201.098ZM201.098 225.062V222.8H203.048V225.062H201.098ZM211.803 247.11C209.723 247.11 208.267 246.824 207.435 246.252C206.621 245.697 206.213 244.675 206.213 243.184C206.213 242.473 206.369 241.893 206.681 241.442C206.993 241.009 207.522 240.515 208.267 239.96C207.782 239.631 207.539 239.033 207.539 238.166C207.539 237.871 207.756 237.325 208.189 236.528L208.423 236.112C207.054 235.488 206.369 234.179 206.369 232.186C206.369 229.222 207.99 227.74 211.231 227.74C212.063 227.74 212.835 227.827 213.545 228L213.935 228.078L217.783 227.974V229.638L215.313 229.586C215.885 230.158 216.171 231.025 216.171 232.186C216.171 233.815 215.764 234.959 214.949 235.618C214.152 236.259 212.887 236.58 211.153 236.58C210.685 236.58 210.261 236.545 209.879 236.476C209.567 237.239 209.411 237.733 209.411 237.958C209.411 238.495 209.576 238.833 209.905 238.972C210.235 239.093 211.231 239.154 212.895 239.154C214.559 239.154 215.755 239.414 216.483 239.934C217.211 240.454 217.575 241.468 217.575 242.976C217.575 245.732 215.651 247.11 211.803 247.11ZM208.137 243.028C208.137 243.947 208.389 244.579 208.891 244.926C209.411 245.29 210.356 245.472 211.725 245.472C213.112 245.472 214.1 245.281 214.689 244.9C215.296 244.519 215.599 243.877 215.599 242.976C215.599 242.092 215.383 241.52 214.949 241.26C214.516 241 213.667 240.87 212.401 240.87L209.593 240.74C209.021 241.156 208.631 241.52 208.423 241.832C208.233 242.144 208.137 242.543 208.137 243.028ZM208.319 232.186C208.319 233.209 208.545 233.937 208.995 234.37C209.463 234.803 210.226 235.02 211.283 235.02C212.341 235.02 213.095 234.803 213.545 234.37C213.996 233.937 214.221 233.209 214.221 232.186C214.221 231.146 213.996 230.409 213.545 229.976C213.095 229.543 212.341 229.326 211.283 229.326C210.226 229.326 209.463 229.551 208.995 230.002C208.545 230.435 208.319 231.163 208.319 232.186ZM222.091 241H220.141V228H222.065V228.91C223.469 228.13 224.812 227.74 226.095 227.74C227.828 227.74 228.99 228.208 229.579 229.144C230.186 230.08 230.489 231.744 230.489 234.136V241H228.565V234.188C228.565 232.385 228.383 231.155 228.019 230.496C227.672 229.82 226.918 229.482 225.757 229.482C225.202 229.482 224.613 229.569 223.989 229.742C223.382 229.898 222.914 230.054 222.585 230.21L222.091 230.444V241ZM241.587 226.596C241.587 225.435 241.985 224.507 242.783 223.814C243.58 223.121 244.707 222.774 246.163 222.774C247.619 222.774 248.719 223.121 249.465 223.814C250.227 224.507 250.609 225.469 250.609 226.7C250.609 227.913 250.305 228.875 249.699 229.586C249.092 230.279 248.061 230.964 246.605 231.64L250.557 235.54C250.938 234.431 251.181 233.027 251.285 231.328L253.183 231.354C252.957 233.521 252.559 235.323 251.987 236.762L255.341 239.934L254.171 241.234L251.025 238.296C249.829 240.272 248.017 241.26 245.591 241.26C243.164 241.26 241.465 240.792 240.495 239.856C239.524 238.92 239.039 237.629 239.039 235.982C239.039 234.318 239.351 233.105 239.975 232.342C240.616 231.562 241.647 230.938 243.069 230.47C242.462 229.777 242.063 229.161 241.873 228.624C241.682 228.087 241.587 227.411 241.587 226.596ZM245.279 239.492C247.411 239.492 248.875 238.712 249.673 237.152L244.187 231.692C243.043 232.056 242.228 232.524 241.743 233.096C241.257 233.668 241.015 234.552 241.015 235.748C241.015 238.244 242.436 239.492 245.279 239.492ZM243.537 226.908C243.537 227.965 243.927 228.91 244.707 229.742L245.461 230.47C246.657 229.95 247.489 229.439 247.957 228.936C248.425 228.433 248.659 227.74 248.659 226.856C248.659 225.261 247.801 224.464 246.085 224.464C244.386 224.464 243.537 225.279 243.537 226.908ZM263.588 241V222.332H265.538V241H263.588ZM278.628 231.926V238.582C278.68 239.223 279.182 239.605 280.136 239.726L280.058 241.26C278.688 241.26 277.657 240.913 276.964 240.22C275.404 240.913 273.844 241.26 272.284 241.26C271.088 241.26 270.178 240.922 269.554 240.246C268.93 239.57 268.618 238.599 268.618 237.334C268.618 236.069 268.938 235.141 269.58 234.552C270.221 233.945 271.226 233.573 272.596 233.434L276.678 233.044V231.926C276.678 231.042 276.487 230.409 276.106 230.028C275.724 229.647 275.204 229.456 274.546 229.456C273.159 229.456 271.72 229.543 270.23 229.716L269.424 229.794L269.346 228.312C271.252 227.931 272.942 227.74 274.416 227.74C275.889 227.74 276.955 228.078 277.614 228.754C278.29 229.43 278.628 230.487 278.628 231.926ZM270.62 237.23C270.62 238.825 271.278 239.622 272.596 239.622C273.774 239.622 274.936 239.423 276.08 239.024L276.678 238.816V234.526L272.83 234.89C272.05 234.959 271.486 235.185 271.14 235.566C270.793 235.947 270.62 236.502 270.62 237.23ZM290.587 228H292.537V241H290.587V240.09C289.287 240.87 288.004 241.26 286.739 241.26C284.971 241.26 283.792 240.801 283.203 239.882C282.631 238.963 282.345 237.265 282.345 234.786V228H284.295V234.76C284.295 236.649 284.46 237.915 284.789 238.556C285.118 239.197 285.864 239.518 287.025 239.518C287.597 239.518 288.178 239.44 288.767 239.284C289.356 239.111 289.807 238.946 290.119 238.79L290.587 238.556V228ZM298.237 241H296.287V228H298.211V228.91C299.615 228.13 300.959 227.74 302.241 227.74C303.975 227.74 305.136 228.208 305.725 229.144C306.332 230.08 306.635 231.744 306.635 234.136V241H304.711V234.188C304.711 232.385 304.529 231.155 304.165 230.496C303.819 229.82 303.065 229.482 301.903 229.482C301.349 229.482 300.759 229.569 300.135 229.742C299.529 229.898 299.061 230.054 298.731 230.21L298.237 230.444V241ZM315.114 227.74C315.686 227.74 316.657 227.844 318.026 228.052L318.65 228.13L318.572 229.716C317.186 229.56 316.163 229.482 315.504 229.482C314.031 229.482 313.026 229.837 312.488 230.548C311.968 231.241 311.708 232.541 311.708 234.448C311.708 236.337 311.951 237.655 312.436 238.4C312.939 239.145 313.97 239.518 315.53 239.518L318.598 239.284L318.676 240.896C317.064 241.139 315.86 241.26 315.062 241.26C313.034 241.26 311.63 240.74 310.85 239.7C310.088 238.66 309.706 236.909 309.706 234.448C309.706 231.969 310.122 230.236 310.954 229.248C311.786 228.243 313.173 227.74 315.114 227.74ZM323.526 241H321.576V222.332H323.526V228.728C324.913 228.069 326.248 227.74 327.53 227.74C329.264 227.74 330.425 228.208 331.014 229.144C331.621 230.08 331.924 231.744 331.924 234.136V241H329.974V234.188C329.974 232.385 329.792 231.155 329.428 230.496C329.082 229.82 328.336 229.482 327.192 229.482C326.1 229.482 325.043 229.681 324.02 230.08L323.526 230.262V241Z" fill="white"/>
<path d="M73.2234 295.942H68.6474V302H66.6454V284.008H73.2234C75.182 284.008 76.6294 284.485 77.5654 285.438C78.5014 286.391 78.9694 287.847 78.9694 289.806C78.9694 293.897 77.054 295.942 73.2234 295.942ZM68.6474 294.174H73.1974C75.676 294.174 76.9154 292.718 76.9154 289.806C76.9154 288.419 76.6207 287.405 76.0314 286.764C75.442 286.105 74.4974 285.776 73.1974 285.776H68.6474V294.174ZM81.7195 302V289H83.6435V290.768C85.1515 289.728 86.7375 289.043 88.4015 288.714V290.69C87.6735 290.829 86.9108 291.045 86.1135 291.34C85.3335 291.635 84.7355 291.895 84.3195 292.12L83.6695 292.458V302H81.7195ZM89.8819 295.474C89.8819 293.099 90.3065 291.383 91.1559 290.326C92.0052 289.269 93.4352 288.74 95.4459 288.74C97.4739 288.74 98.9039 289.269 99.7359 290.326C100.585 291.383 101.01 293.099 101.01 295.474C101.01 297.849 100.611 299.573 99.8139 300.648C99.0165 301.723 97.5605 302.26 95.4459 302.26C93.3312 302.26 91.8752 301.723 91.0779 300.648C90.2805 299.573 89.8819 297.849 89.8819 295.474ZM91.8839 295.448C91.8839 297.337 92.1092 298.663 92.5599 299.426C93.0279 300.189 93.9899 300.57 95.4459 300.57C96.9192 300.57 97.8812 300.197 98.3319 299.452C98.7825 298.689 99.0079 297.355 99.0079 295.448C99.0079 293.541 98.7565 292.233 98.2539 291.522C97.7512 290.794 96.8152 290.43 95.4459 290.43C94.0939 290.43 93.1579 290.794 92.6379 291.522C92.1352 292.233 91.8839 293.541 91.8839 295.448ZM106.14 302H104.19V289H106.114V289.91C107.414 289.13 108.68 288.74 109.91 288.74C111.522 288.74 112.649 289.182 113.29 290.066C113.862 289.719 114.599 289.416 115.5 289.156C116.419 288.879 117.225 288.74 117.918 288.74C119.652 288.74 120.813 289.208 121.402 290.144C122.009 291.063 122.312 292.727 122.312 295.136V302H120.362V295.188C120.362 293.385 120.189 292.155 119.842 291.496C119.496 290.82 118.759 290.482 117.632 290.482C117.06 290.482 116.471 290.569 115.864 290.742C115.258 290.898 114.79 291.054 114.46 291.21L113.966 291.444C114.192 292.016 114.304 293.281 114.304 295.24V302H112.354V295.292C112.354 293.42 112.181 292.155 111.834 291.496C111.505 290.82 110.768 290.482 109.624 290.482C109.07 290.482 108.498 290.569 107.908 290.742C107.336 290.898 106.894 291.054 106.582 291.21L106.14 291.444V302ZM125.353 295.474C125.353 293.099 125.777 291.383 126.627 290.326C127.476 289.269 128.906 288.74 130.917 288.74C132.945 288.74 134.375 289.269 135.207 290.326C136.056 291.383 136.481 293.099 136.481 295.474C136.481 297.849 136.082 299.573 135.285 300.648C134.487 301.723 133.031 302.26 130.917 302.26C128.802 302.26 127.346 301.723 126.549 300.648C125.751 299.573 125.353 297.849 125.353 295.474ZM127.355 295.448C127.355 297.337 127.58 298.663 128.031 299.426C128.499 300.189 129.461 300.57 130.917 300.57C132.39 300.57 133.352 300.197 133.803 299.452C134.253 298.689 134.479 297.355 134.479 295.448C134.479 293.541 134.227 292.233 133.725 291.522C133.222 290.794 132.286 290.43 130.917 290.43C129.565 290.43 128.629 290.794 128.109 291.522C127.606 292.233 127.355 293.541 127.355 295.448ZM147.142 287.596C147.142 286.435 147.54 285.507 148.338 284.814C149.135 284.121 150.262 283.774 151.718 283.774C153.174 283.774 154.274 284.121 155.02 284.814C155.782 285.507 156.164 286.469 156.164 287.7C156.164 288.913 155.86 289.875 155.254 290.586C154.647 291.279 153.616 291.964 152.16 292.64L156.112 296.54C156.493 295.431 156.736 294.027 156.84 292.328L158.738 292.354C158.512 294.521 158.114 296.323 157.542 297.762L160.896 300.934L159.726 302.234L156.58 299.296C155.384 301.272 153.572 302.26 151.146 302.26C148.719 302.26 147.02 301.792 146.05 300.856C145.079 299.92 144.594 298.629 144.594 296.982C144.594 295.318 144.906 294.105 145.53 293.342C146.171 292.562 147.202 291.938 148.624 291.47C148.017 290.777 147.618 290.161 147.428 289.624C147.237 289.087 147.142 288.411 147.142 287.596ZM150.834 300.492C152.966 300.492 154.43 299.712 155.228 298.152L149.742 292.692C148.598 293.056 147.783 293.524 147.298 294.096C146.812 294.668 146.57 295.552 146.57 296.748C146.57 299.244 147.991 300.492 150.834 300.492ZM149.092 287.908C149.092 288.965 149.482 289.91 150.262 290.742L151.016 291.47C152.212 290.95 153.044 290.439 153.512 289.936C153.98 289.433 154.214 288.74 154.214 287.856C154.214 286.261 153.356 285.464 151.64 285.464C149.941 285.464 149.092 286.279 149.092 287.908ZM170.937 302H168.987V289H170.911V289.91C172.211 289.13 173.476 288.74 174.707 288.74C176.319 288.74 177.446 289.182 178.087 290.066C178.659 289.719 179.396 289.416 180.297 289.156C181.216 288.879 182.022 288.74 182.715 288.74C184.448 288.74 185.61 289.208 186.199 290.144C186.806 291.063 187.109 292.727 187.109 295.136V302H185.159V295.188C185.159 293.385 184.986 292.155 184.639 291.496C184.292 290.82 183.556 290.482 182.429 290.482C181.857 290.482 181.268 290.569 180.661 290.742C180.054 290.898 179.586 291.054 179.257 291.21L178.763 291.444C178.988 292.016 179.101 293.281 179.101 295.24V302H177.151V295.292C177.151 293.42 176.978 292.155 176.631 291.496C176.302 290.82 175.565 290.482 174.421 290.482C173.866 290.482 173.294 290.569 172.705 290.742C172.133 290.898 171.691 291.054 171.379 291.21L170.937 291.444V302ZM199.899 292.926V299.582C199.951 300.223 200.454 300.605 201.407 300.726L201.329 302.26C199.96 302.26 198.929 301.913 198.235 301.22C196.675 301.913 195.115 302.26 193.555 302.26C192.359 302.26 191.449 301.922 190.825 301.246C190.201 300.57 189.889 299.599 189.889 298.334C189.889 297.069 190.21 296.141 190.851 295.552C191.493 294.945 192.498 294.573 193.867 294.434L197.949 294.044V292.926C197.949 292.042 197.759 291.409 197.377 291.028C196.996 290.647 196.476 290.456 195.817 290.456C194.431 290.456 192.992 290.543 191.501 290.716L190.695 290.794L190.617 289.312C192.524 288.931 194.214 288.74 195.687 288.74C197.161 288.74 198.227 289.078 198.885 289.754C199.561 290.43 199.899 291.487 199.899 292.926ZM191.891 298.23C191.891 299.825 192.55 300.622 193.867 300.622C195.046 300.622 196.207 300.423 197.351 300.024L197.949 299.816V295.526L194.101 295.89C193.321 295.959 192.758 296.185 192.411 296.566C192.065 296.947 191.891 297.502 191.891 298.23ZM203.747 302V289H205.671V290.768C207.179 289.728 208.765 289.043 210.429 288.714V290.69C209.701 290.829 208.938 291.045 208.141 291.34C207.361 291.635 206.763 291.895 206.347 292.12L205.697 292.458V302H203.747ZM214.685 302H212.735V283.332H214.685V294.356L216.713 294.252L220.431 289H222.641L218.403 294.98L222.823 302H220.613L216.739 295.968L214.685 296.046V302ZM233.686 300.388L234.44 300.31L234.492 301.844C232.516 302.121 230.826 302.26 229.422 302.26C227.55 302.26 226.224 301.723 225.444 300.648C224.664 299.556 224.274 297.866 224.274 295.578C224.274 291.019 226.086 288.74 229.708 288.74C231.459 288.74 232.768 289.234 233.634 290.222C234.501 291.193 234.934 292.727 234.934 294.824L234.83 296.306H226.25C226.25 297.745 226.51 298.811 227.03 299.504C227.55 300.197 228.452 300.544 229.734 300.544C231.034 300.544 232.352 300.492 233.686 300.388ZM232.984 294.746C232.984 293.151 232.724 292.025 232.204 291.366C231.702 290.707 230.87 290.378 229.708 290.378C228.564 290.378 227.698 290.725 227.108 291.418C226.536 292.111 226.242 293.221 226.224 294.746H232.984ZM244.631 290.69H240.497V296.904C240.497 298.395 240.601 299.374 240.809 299.842C241.035 300.31 241.555 300.544 242.369 300.544L244.683 300.388L244.813 302C243.652 302.191 242.768 302.286 242.161 302.286C240.809 302.286 239.873 301.957 239.353 301.298C238.833 300.639 238.573 299.383 238.573 297.528V290.69H236.727V289H238.573V285.022H240.497V289H244.631V290.69ZM247.012 302V289H248.962V302H247.012ZM247.012 286.062V283.8H248.962V286.062H247.012ZM254.65 302H252.7V289H254.624V289.91C256.028 289.13 257.371 288.74 258.654 288.74C260.387 288.74 261.549 289.208 262.138 290.144C262.745 291.08 263.048 292.744 263.048 295.136V302H261.124V295.188C261.124 293.385 260.942 292.155 260.578 291.496C260.231 290.82 259.477 290.482 258.316 290.482C257.761 290.482 257.172 290.569 256.548 290.742C255.941 290.898 255.473 291.054 255.144 291.21L254.65 291.444V302ZM271.683 308.11C269.603 308.11 268.147 307.824 267.315 307.252C266.5 306.697 266.093 305.675 266.093 304.184C266.093 303.473 266.249 302.893 266.561 302.442C266.873 302.009 267.401 301.515 268.147 300.96C267.661 300.631 267.419 300.033 267.419 299.166C267.419 298.871 267.635 298.325 268.069 297.528L268.303 297.112C266.933 296.488 266.249 295.179 266.249 293.186C266.249 290.222 267.869 288.74 271.111 288.74C271.943 288.74 272.714 288.827 273.425 289L273.815 289.078L277.663 288.974V290.638L275.193 290.586C275.765 291.158 276.051 292.025 276.051 293.186C276.051 294.815 275.643 295.959 274.829 296.618C274.031 297.259 272.766 297.58 271.033 297.58C270.565 297.58 270.14 297.545 269.759 297.476C269.447 298.239 269.291 298.733 269.291 298.958C269.291 299.495 269.455 299.833 269.785 299.972C270.114 300.093 271.111 300.154 272.775 300.154C274.439 300.154 275.635 300.414 276.363 300.934C277.091 301.454 277.455 302.468 277.455 303.976C277.455 306.732 275.531 308.11 271.683 308.11ZM268.017 304.028C268.017 304.947 268.268 305.579 268.771 305.926C269.291 306.29 270.235 306.472 271.605 306.472C272.991 306.472 273.979 306.281 274.569 305.9C275.175 305.519 275.479 304.877 275.479 303.976C275.479 303.092 275.262 302.52 274.829 302.26C274.395 302 273.546 301.87 272.281 301.87L269.473 301.74C268.901 302.156 268.511 302.52 268.303 302.832C268.112 303.144 268.017 303.543 268.017 304.028ZM268.199 293.186C268.199 294.209 268.424 294.937 268.875 295.37C269.343 295.803 270.105 296.02 271.163 296.02C272.22 296.02 272.974 295.803 273.425 295.37C273.875 294.937 274.101 294.209 274.101 293.186C274.101 292.146 273.875 291.409 273.425 290.976C272.974 290.543 272.22 290.326 271.163 290.326C270.105 290.326 269.343 290.551 268.875 291.002C268.424 291.435 268.199 292.163 268.199 293.186Z" fill="white"/>
<path d="M74.795 355.942H70.219V362H68.217V344.008H74.795C76.7537 344.008 78.201 344.485 79.137 345.438C80.073 346.391 80.541 347.847 80.541 349.806C80.541 353.897 78.6257 355.942 74.795 355.942ZM70.219 354.174H74.769C77.2477 354.174 78.487 352.718 78.487 349.806C78.487 348.419 78.1924 347.405 77.603 346.764C77.0137 346.105 76.069 345.776 74.769 345.776H70.219V354.174ZM83.2911 362V349H85.2151V350.768C86.7231 349.728 88.3091 349.043 89.9731 348.714V350.69C89.2451 350.829 88.4825 351.045 87.6851 351.34C86.9051 351.635 86.3071 351.895 85.8911 352.12L85.2411 352.458V362H83.2911ZM92.2794 362V349H94.2294V362H92.2794ZM92.2794 346.062V343.8H94.2294V346.062H92.2794ZM96.7449 349H98.8249L101.867 360.31H102.829L105.975 349H107.977L104.311 362H100.411L96.7449 349ZM119.459 352.926V359.582C119.511 360.223 120.014 360.605 120.967 360.726L120.889 362.26C119.52 362.26 118.489 361.913 117.795 361.22C116.235 361.913 114.675 362.26 113.115 362.26C111.919 362.26 111.009 361.922 110.385 361.246C109.761 360.57 109.449 359.599 109.449 358.334C109.449 357.069 109.77 356.141 110.411 355.552C111.053 354.945 112.058 354.573 113.427 354.434L117.509 354.044V352.926C117.509 352.042 117.319 351.409 116.937 351.028C116.556 350.647 116.036 350.456 115.377 350.456C113.991 350.456 112.552 350.543 111.061 350.716L110.255 350.794L110.177 349.312C112.084 348.931 113.774 348.74 115.247 348.74C116.721 348.74 117.787 349.078 118.445 349.754C119.121 350.43 119.459 351.487 119.459 352.926ZM111.451 358.23C111.451 359.825 112.11 360.622 113.427 360.622C114.606 360.622 115.767 360.423 116.911 360.024L117.509 359.816V355.526L113.661 355.89C112.881 355.959 112.318 356.185 111.971 356.566C111.625 356.947 111.451 357.502 111.451 358.23ZM130.041 350.69H125.907V356.904C125.907 358.395 126.011 359.374 126.219 359.842C126.444 360.31 126.964 360.544 127.779 360.544L130.093 360.388L130.223 362C129.061 362.191 128.177 362.286 127.571 362.286C126.219 362.286 125.283 361.957 124.763 361.298C124.243 360.639 123.983 359.383 123.983 357.528V350.69H122.137V349H123.983V345.022H125.907V349H130.041V350.69ZM141.262 360.388L142.016 360.31L142.068 361.844C140.092 362.121 138.402 362.26 136.998 362.26C135.126 362.26 133.8 361.723 133.02 360.648C132.24 359.556 131.85 357.866 131.85 355.578C131.85 351.019 133.661 348.74 137.284 348.74C139.035 348.74 140.343 349.234 141.21 350.222C142.077 351.193 142.51 352.727 142.51 354.824L142.406 356.306H133.826C133.826 357.745 134.086 358.811 134.606 359.504C135.126 360.197 136.027 360.544 137.31 360.544C138.61 360.544 139.927 360.492 141.262 360.388ZM140.56 354.746C140.56 353.151 140.3 352.025 139.78 351.366C139.277 350.707 138.445 350.378 137.284 350.378C136.14 350.378 135.273 350.725 134.684 351.418C134.112 352.111 133.817 353.221 133.8 354.746H140.56ZM155.344 350.482C153.454 350.482 152.51 351.141 152.51 352.458C152.51 353.065 152.726 353.498 153.16 353.758C153.593 354.001 154.581 354.261 156.124 354.538C157.666 354.798 158.758 355.171 159.4 355.656C160.041 356.141 160.362 357.051 160.362 358.386C160.362 359.721 159.928 360.7 159.062 361.324C158.212 361.948 156.964 362.26 155.318 362.26C154.243 362.26 152.978 362.139 151.522 361.896L150.742 361.766L150.846 360.076C152.822 360.371 154.312 360.518 155.318 360.518C156.323 360.518 157.086 360.362 157.606 360.05C158.143 359.721 158.412 359.183 158.412 358.438C158.412 357.675 158.186 357.164 157.736 356.904C157.285 356.627 156.297 356.367 154.772 356.124C153.246 355.881 152.163 355.526 151.522 355.058C150.88 354.59 150.56 353.723 150.56 352.458C150.56 351.193 151.002 350.257 151.886 349.65C152.787 349.043 153.905 348.74 155.24 348.74C156.297 348.74 157.623 348.861 159.218 349.104L159.946 349.234L159.894 350.898C157.97 350.621 156.453 350.482 155.344 350.482ZM172.526 352.926V359.582C172.578 360.223 173.08 360.605 174.034 360.726L173.956 362.26C172.586 362.26 171.555 361.913 170.862 361.22C169.302 361.913 167.742 362.26 166.182 362.26C164.986 362.26 164.076 361.922 163.452 361.246C162.828 360.57 162.516 359.599 162.516 358.334C162.516 357.069 162.836 356.141 163.478 355.552C164.119 354.945 165.124 354.573 166.494 354.434L170.576 354.044V352.926C170.576 352.042 170.385 351.409 170.004 351.028C169.622 350.647 169.102 350.456 168.444 350.456C167.057 350.456 165.618 350.543 164.128 350.716L163.322 350.794L163.244 349.312C165.15 348.931 166.84 348.74 168.314 348.74C169.787 348.74 170.853 349.078 171.512 349.754C172.188 350.43 172.526 351.487 172.526 352.926ZM164.518 358.23C164.518 359.825 165.176 360.622 166.494 360.622C167.672 360.622 168.834 360.423 169.978 360.024L170.576 359.816V355.526L166.728 355.89C165.948 355.959 165.384 356.185 165.038 356.566C164.691 356.947 164.518 357.502 164.518 358.23ZM176.529 362V343.332H178.479V362H176.529ZM191.231 360.388L191.985 360.31L192.037 361.844C190.061 362.121 188.371 362.26 186.967 362.26C185.095 362.26 183.769 361.723 182.989 360.648C182.209 359.556 181.819 357.866 181.819 355.578C181.819 351.019 183.63 348.74 187.253 348.74C189.003 348.74 190.312 349.234 191.179 350.222C192.045 351.193 192.479 352.727 192.479 354.824L192.375 356.306H183.795C183.795 357.745 184.055 358.811 184.575 359.504C185.095 360.197 185.996 360.544 187.279 360.544C188.579 360.544 189.896 360.492 191.231 360.388ZM190.529 354.746C190.529 353.151 190.269 352.025 189.749 351.366C189.246 350.707 188.414 350.378 187.253 350.378C186.109 350.378 185.242 350.725 184.653 351.418C184.081 352.111 183.786 353.221 183.769 354.746H190.529Z" fill="white"/>
<path d="M78.1919 414.59V412.796H83.1579V421.636C80.9739 422.052 79.0239 422.26 77.3079 422.26C74.6905 422.26 72.8705 421.506 71.8479 419.998C70.8425 418.49 70.3399 416.167 70.3399 413.03C70.3399 409.875 70.8425 407.544 71.8479 406.036C72.8705 404.511 74.6732 403.748 77.2559 403.748C78.8679 403.748 80.5405 403.921 82.2739 404.268L83.1579 404.424L83.0799 406.088C80.9305 405.724 79.0672 405.542 77.4899 405.542C75.4965 405.542 74.1532 406.123 73.4599 407.284C72.7665 408.428 72.4199 410.343 72.4199 413.03C72.4199 415.699 72.7665 417.615 73.4599 418.776C74.1532 419.92 75.4879 420.492 77.4639 420.492C78.6772 420.492 79.9165 420.371 81.1819 420.128V414.59H78.1919ZM95.5914 420.388L96.3454 420.31L96.3974 421.844C94.4214 422.121 92.7314 422.26 91.3274 422.26C89.4554 422.26 88.1294 421.723 87.3494 420.648C86.5694 419.556 86.1794 417.866 86.1794 415.578C86.1794 411.019 87.9907 408.74 91.6134 408.74C93.364 408.74 94.6727 409.234 95.5394 410.222C96.406 411.193 96.8394 412.727 96.8394 414.824L96.7354 416.306H88.1554C88.1554 417.745 88.4154 418.811 88.9354 419.504C89.4554 420.197 90.3567 420.544 91.6394 420.544C92.9394 420.544 94.2567 420.492 95.5914 420.388ZM94.8894 414.746C94.8894 413.151 94.6294 412.025 94.1094 411.366C93.6067 410.707 92.7747 410.378 91.6134 410.378C90.4694 410.378 89.6027 410.725 89.0134 411.418C88.4414 412.111 88.1467 413.221 88.1294 414.746H94.8894ZM101.828 422H99.8783V409H101.802V409.91C103.206 409.13 104.55 408.74 105.832 408.74C107.566 408.74 108.727 409.208 109.316 410.144C109.923 411.08 110.226 412.744 110.226 415.136V422H108.302V415.188C108.302 413.385 108.12 412.155 107.756 411.496C107.41 410.82 106.656 410.482 105.494 410.482C104.94 410.482 104.35 410.569 103.726 410.742C103.12 410.898 102.652 411.054 102.322 411.21L101.828 411.444V422ZM122.683 420.388L123.437 420.31L123.489 421.844C121.513 422.121 119.823 422.26 118.419 422.26C116.547 422.26 115.221 421.723 114.441 420.648C113.661 419.556 113.271 417.866 113.271 415.578C113.271 411.019 115.082 408.74 118.705 408.74C120.456 408.74 121.764 409.234 122.631 410.222C123.498 411.193 123.931 412.727 123.931 414.824L123.827 416.306H115.247C115.247 417.745 115.507 418.811 116.027 419.504C116.547 420.197 117.448 420.544 118.731 420.544C120.031 420.544 121.348 420.492 122.683 420.388ZM121.981 414.746C121.981 413.151 121.721 412.025 121.201 411.366C120.698 410.707 119.866 410.378 118.705 410.378C117.561 410.378 116.694 410.725 116.105 411.418C115.533 412.111 115.238 413.221 115.221 414.746H121.981ZM131.052 410.482C129.163 410.482 128.218 411.141 128.218 412.458C128.218 413.065 128.435 413.498 128.868 413.758C129.301 414.001 130.289 414.261 131.832 414.538C133.375 414.798 134.467 415.171 135.108 415.656C135.749 416.141 136.07 417.051 136.07 418.386C136.07 419.721 135.637 420.7 134.77 421.324C133.921 421.948 132.673 422.26 131.026 422.26C129.951 422.26 128.686 422.139 127.23 421.896L126.45 421.766L126.554 420.076C128.53 420.371 130.021 420.518 131.026 420.518C132.031 420.518 132.794 420.362 133.314 420.05C133.851 419.721 134.12 419.183 134.12 418.438C134.12 417.675 133.895 417.164 133.444 416.904C132.993 416.627 132.005 416.367 130.48 416.124C128.955 415.881 127.871 415.526 127.23 415.058C126.589 414.59 126.268 413.723 126.268 412.458C126.268 411.193 126.71 410.257 127.594 409.65C128.495 409.043 129.613 408.74 130.948 408.74C132.005 408.74 133.331 408.861 134.926 409.104L135.654 409.234L135.602 410.898C133.678 410.621 132.161 410.482 131.052 410.482ZM139.056 422V409H141.006V422H139.056ZM139.056 406.062V403.8H141.006V406.062H139.056ZM148.826 410.482C146.936 410.482 145.992 411.141 145.992 412.458C145.992 413.065 146.208 413.498 146.642 413.758C147.075 414.001 148.063 414.261 149.606 414.538C151.148 414.798 152.24 415.171 152.882 415.656C153.523 416.141 153.844 417.051 153.844 418.386C153.844 419.721 153.41 420.7 152.544 421.324C151.694 421.948 150.446 422.26 148.8 422.26C147.725 422.26 146.46 422.139 145.004 421.896L144.224 421.766L144.328 420.076C146.304 420.371 147.794 420.518 148.8 420.518C149.805 420.518 150.568 420.362 151.088 420.05C151.625 419.721 151.894 419.183 151.894 418.438C151.894 417.675 151.668 417.164 151.218 416.904C150.767 416.627 149.779 416.367 148.254 416.124C146.728 415.881 145.645 415.526 145.004 415.058C144.362 414.59 144.042 413.723 144.042 412.458C144.042 411.193 144.484 410.257 145.368 409.65C146.269 409.043 147.387 408.74 148.722 408.74C149.779 408.74 151.105 408.861 152.7 409.104L153.428 409.234L153.376 410.898C151.452 410.621 149.935 410.482 148.826 410.482ZM162.88 422V404.008H166.624L173.514 420.232H174.06V404.008H176.036V422H172.37L165.376 405.776H164.882V422H162.88ZM180.451 422V404.008H191.215V405.776H182.453V412.796H189.863V414.564H182.453V422H180.451ZM192.264 405.802V404.008H205.264V405.802H199.778V422H197.802V405.802H192.264ZM223.753 404.008H225.833L221.127 422H216.655L211.949 404.008H214.029L218.163 420.232H219.619L223.753 404.008ZM228.667 422V404.008H230.669V422H228.667ZM241.644 415.942H237.068V422H235.066V404.008H241.644C243.603 404.008 245.05 404.485 245.986 405.438C246.922 406.391 247.39 407.847 247.39 409.806C247.39 413.897 245.475 415.942 241.644 415.942ZM237.068 414.174H241.618C244.097 414.174 245.336 412.718 245.336 409.806C245.336 408.419 245.041 407.405 244.452 406.764C243.863 406.105 242.918 405.776 241.618 405.776H237.068V414.174ZM257.803 422H255.853V409H257.777V409.91C259.077 409.13 260.342 408.74 261.573 408.74C263.185 408.74 264.312 409.182 264.953 410.066C265.525 409.719 266.262 409.416 267.163 409.156C268.082 408.879 268.888 408.74 269.581 408.74C271.314 408.74 272.476 409.208 273.065 410.144C273.672 411.063 273.975 412.727 273.975 415.136V422H272.025V415.188C272.025 413.385 271.852 412.155 271.505 411.496C271.158 410.82 270.422 410.482 269.295 410.482C268.723 410.482 268.134 410.569 267.527 410.742C266.92 410.898 266.452 411.054 266.123 411.21L265.629 411.444C265.854 412.016 265.967 413.281 265.967 415.24V422H264.017V415.292C264.017 413.42 263.844 412.155 263.497 411.496C263.168 410.82 262.431 410.482 261.287 410.482C260.732 410.482 260.16 410.569 259.571 410.742C258.999 410.898 258.557 411.054 258.245 411.21L257.803 411.444V422ZM277.587 422V409H279.537V422H277.587ZM277.587 406.062V403.8H279.537V406.062H277.587ZM285.225 422H283.275V409H285.199V409.91C286.603 409.13 287.946 408.74 289.229 408.74C290.962 408.74 292.123 409.208 292.713 410.144C293.319 411.08 293.623 412.744 293.623 415.136V422H291.699V415.188C291.699 413.385 291.517 412.155 291.153 411.496C290.806 410.82 290.052 410.482 288.891 410.482C288.336 410.482 287.747 410.569 287.123 410.742C286.516 410.898 286.048 411.054 285.719 411.21L285.225 411.444V422ZM303.897 410.69H299.763V416.904C299.763 418.395 299.867 419.374 300.075 419.842C300.301 420.31 300.821 420.544 301.635 420.544L303.949 420.388L304.079 422C302.918 422.191 302.034 422.286 301.427 422.286C300.075 422.286 299.139 421.957 298.619 421.298C298.099 420.639 297.839 419.383 297.839 417.528V410.69H295.993V409H297.839V405.022H299.763V409H303.897V410.69ZM306.279 422V409H308.229V422H306.279ZM306.279 406.062V403.8H308.229V406.062H306.279ZM313.916 422H311.966V409H313.89V409.91C315.294 409.13 316.638 408.74 317.92 408.74C319.654 408.74 320.815 409.208 321.404 410.144C322.011 411.08 322.314 412.744 322.314 415.136V422H320.39V415.188C320.39 413.385 320.208 412.155 319.844 411.496C319.498 410.82 318.744 410.482 317.582 410.482C317.028 410.482 316.438 410.569 315.814 410.742C315.208 410.898 314.74 411.054 314.41 411.21L313.916 411.444V422ZM330.949 428.11C328.869 428.11 327.413 427.824 326.581 427.252C325.766 426.697 325.359 425.675 325.359 424.184C325.359 423.473 325.515 422.893 325.827 422.442C326.139 422.009 326.668 421.515 327.413 420.96C326.928 420.631 326.685 420.033 326.685 419.166C326.685 418.871 326.902 418.325 327.335 417.528L327.569 417.112C326.2 416.488 325.515 415.179 325.515 413.186C325.515 410.222 327.136 408.74 330.377 408.74C331.209 408.74 331.98 408.827 332.691 409L333.081 409.078L336.929 408.974V410.638L334.459 410.586C335.031 411.158 335.317 412.025 335.317 413.186C335.317 414.815 334.91 415.959 334.095 416.618C333.298 417.259 332.032 417.58 330.299 417.58C329.831 417.58 329.406 417.545 329.025 417.476C328.713 418.239 328.557 418.733 328.557 418.958C328.557 419.495 328.722 419.833 329.051 419.972C329.38 420.093 330.377 420.154 332.041 420.154C333.705 420.154 334.901 420.414 335.629 420.934C336.357 421.454 336.721 422.468 336.721 423.976C336.721 426.732 334.797 428.11 330.949 428.11ZM327.283 424.028C327.283 424.947 327.534 425.579 328.037 425.926C328.557 426.29 329.502 426.472 330.871 426.472C332.258 426.472 333.246 426.281 333.835 425.9C334.442 425.519 334.745 424.877 334.745 423.976C334.745 423.092 334.528 422.52 334.095 422.26C333.662 422 332.812 421.87 331.547 421.87L328.739 421.74C328.167 422.156 327.777 422.52 327.569 422.832C327.378 423.144 327.283 423.543 327.283 424.028ZM327.465 413.186C327.465 414.209 327.69 414.937 328.141 415.37C328.609 415.803 329.372 416.02 330.429 416.02C331.486 416.02 332.24 415.803 332.691 415.37C333.142 414.937 333.367 414.209 333.367 413.186C333.367 412.146 333.142 411.409 332.691 410.976C332.24 410.543 331.486 410.326 330.429 410.326C329.372 410.326 328.609 410.551 328.141 411.002C327.69 411.435 327.465 412.163 327.465 413.186ZM347.495 410.69V422H345.545V410.69H343.907V409H345.545V407.83C345.545 405.993 345.805 404.745 346.325 404.086C346.845 403.41 347.755 403.072 349.055 403.072L351.681 403.254L351.655 404.866C350.685 404.831 349.879 404.814 349.237 404.814C348.613 404.814 348.163 405.022 347.885 405.438C347.625 405.854 347.495 406.66 347.495 407.856V409H351.265V410.69H347.495ZM352.806 415.474C352.806 413.099 353.231 411.383 354.08 410.326C354.93 409.269 356.36 408.74 358.37 408.74C360.398 408.74 361.828 409.269 362.66 410.326C363.51 411.383 363.934 413.099 363.934 415.474C363.934 417.849 363.536 419.573 362.738 420.648C361.941 421.723 360.485 422.26 358.37 422.26C356.256 422.26 354.8 421.723 354.002 420.648C353.205 419.573 352.806 417.849 352.806 415.474ZM354.808 415.448C354.808 417.337 355.034 418.663 355.484 419.426C355.952 420.189 356.914 420.57 358.37 420.57C359.844 420.57 360.806 420.197 361.256 419.452C361.707 418.689 361.932 417.355 361.932 415.448C361.932 413.541 361.681 412.233 361.178 411.522C360.676 410.794 359.74 410.43 358.37 410.43C357.018 410.43 356.082 410.794 355.562 411.522C355.06 412.233 354.808 413.541 354.808 415.448ZM367.115 422V409H369.039V410.768C370.547 409.728 372.133 409.043 373.797 408.714V410.69C373.069 410.829 372.306 411.045 371.509 411.34C370.729 411.635 370.131 411.895 369.715 412.12L369.065 412.458V422H367.115ZM383.48 413.082C383.48 415.717 383.826 417.615 384.52 418.776C385.213 419.92 386.548 420.492 388.524 420.492C390.517 420.492 391.852 419.929 392.528 418.802C393.221 417.675 393.568 415.786 393.568 413.134C393.568 410.482 393.212 408.549 392.502 407.336C391.791 406.123 390.456 405.516 388.498 405.516C386.556 405.516 385.23 406.123 384.52 407.336C383.826 408.532 383.48 410.447 383.48 413.082ZM395.648 413.134C395.648 416.341 395.136 418.663 394.114 420.102C393.091 421.541 391.228 422.26 388.524 422.26C385.837 422.26 383.982 421.523 382.96 420.05C381.937 418.577 381.426 416.263 381.426 413.108C381.426 409.936 381.946 407.587 382.986 406.062C384.026 404.519 385.872 403.748 388.524 403.748C391.176 403.748 393.022 404.511 394.062 406.036C395.119 407.561 395.648 409.927 395.648 413.134ZM406.442 414.59V412.796H411.408V421.636C409.224 422.052 407.274 422.26 405.558 422.26C402.941 422.26 401.121 421.506 400.098 419.998C399.093 418.49 398.59 416.167 398.59 413.03C398.59 409.875 399.093 407.544 400.098 406.036C401.121 404.511 402.923 403.748 405.506 403.748C407.118 403.748 408.791 403.921 410.524 404.268L411.408 404.424L411.33 406.088C409.181 405.724 407.317 405.542 405.74 405.542C403.747 405.542 402.403 406.123 401.71 407.284C401.017 408.428 400.67 410.343 400.67 413.03C400.67 415.699 401.017 417.615 401.71 418.776C402.403 419.92 403.738 420.492 405.714 420.492C406.927 420.492 408.167 420.371 409.432 420.128V414.59H406.442ZM420.714 422V409H422.664V422H420.714ZM420.714 406.062V403.8H422.664V406.062H420.714ZM428.352 422H426.402V409H428.326V409.91C429.73 409.13 431.073 408.74 432.356 408.74C434.089 408.74 435.25 409.208 435.84 410.144C436.446 411.08 436.75 412.744 436.75 415.136V422H434.826V415.188C434.826 413.385 434.644 412.155 434.28 411.496C433.933 410.82 433.179 410.482 432.018 410.482C431.463 410.482 430.874 410.569 430.25 410.742C429.643 410.898 429.175 411.054 428.846 411.21L428.352 411.444V422ZM439.018 409H441.098L444.14 420.31H445.102L448.248 409H450.25L446.584 422H442.684L439.018 409ZM461.369 420.388L462.123 420.31L462.175 421.844C460.199 422.121 458.509 422.26 457.105 422.26C455.233 422.26 453.907 421.723 453.127 420.648C452.347 419.556 451.957 417.866 451.957 415.578C451.957 411.019 453.768 408.74 457.391 408.74C459.141 408.74 460.45 409.234 461.317 410.222C462.183 411.193 462.617 412.727 462.617 414.824L462.513 416.306H453.933C453.933 417.745 454.193 418.811 454.713 419.504C455.233 420.197 456.134 420.544 457.417 420.544C458.717 420.544 460.034 420.492 461.369 420.388ZM460.667 414.746C460.667 413.151 460.407 412.025 459.887 411.366C459.384 410.707 458.552 410.378 457.391 410.378C456.247 410.378 455.38 410.725 454.791 411.418C454.219 412.111 453.924 413.221 453.907 414.746H460.667ZM469.738 410.482C467.848 410.482 466.904 411.141 466.904 412.458C466.904 413.065 467.12 413.498 467.554 413.758C467.987 414.001 468.975 414.261 470.518 414.538C472.06 414.798 473.152 415.171 473.794 415.656C474.435 416.141 474.756 417.051 474.756 418.386C474.756 419.721 474.322 420.7 473.456 421.324C472.606 421.948 471.358 422.26 469.712 422.26C468.637 422.26 467.372 422.139 465.916 421.896L465.136 421.766L465.24 420.076C467.216 420.371 468.706 420.518 469.712 420.518C470.717 420.518 471.48 420.362 472 420.05C472.537 419.721 472.806 419.183 472.806 418.438C472.806 417.675 472.58 417.164 472.13 416.904C471.679 416.627 470.691 416.367 469.166 416.124C467.64 415.881 466.557 415.526 465.916 415.058C465.274 414.59 464.954 413.723 464.954 412.458C464.954 411.193 465.396 410.257 466.28 409.65C467.181 409.043 468.299 408.74 469.634 408.74C470.691 408.74 472.017 408.861 473.612 409.104L474.34 409.234L474.288 410.898C472.364 410.621 470.847 410.482 469.738 410.482ZM484.476 410.69H480.342V416.904C480.342 418.395 480.446 419.374 480.654 419.842C480.879 420.31 481.399 420.544 482.214 420.544L484.528 420.388L484.658 422C483.496 422.191 482.612 422.286 482.006 422.286C480.654 422.286 479.718 421.957 479.198 421.298C478.678 420.639 478.418 419.383 478.418 417.528V410.69H476.572V409H478.418V405.022H480.342V409H484.476V410.69ZM486.285 415.474C486.285 413.099 486.709 411.383 487.559 410.326C488.408 409.269 489.838 408.74 491.849 408.74C493.877 408.74 495.307 409.269 496.139 410.326C496.988 411.383 497.413 413.099 497.413 415.474C497.413 417.849 497.014 419.573 496.217 420.648C495.419 421.723 493.963 422.26 491.849 422.26C489.734 422.26 488.278 421.723 487.481 420.648C486.683 419.573 486.285 417.849 486.285 415.474ZM488.287 415.448C488.287 417.337 488.512 418.663 488.963 419.426C489.431 420.189 490.393 420.57 491.849 420.57C493.322 420.57 494.284 420.197 494.735 419.452C495.186 418.689 495.411 417.355 495.411 415.448C495.411 413.541 495.159 412.233 494.657 411.522C494.154 410.794 493.218 410.43 491.849 410.43C490.497 410.43 489.561 410.794 489.041 411.522C488.538 412.233 488.287 413.541 488.287 415.448ZM500.593 422V409H502.517V410.768C504.025 409.728 505.611 409.043 507.275 408.714V410.69C506.547 410.829 505.784 411.045 504.987 411.34C504.207 411.635 503.609 411.895 503.193 412.12L502.543 412.458V422H500.593Z" fill="white"/>
</svg>
