<svg width="550" height="463" viewBox="0 0 550 463" fill="none" xmlns="http://www.w3.org/2000/svg">
<rect x="1.5" y="1.5" width="547" height="460" rx="8.5" fill="black" stroke="#CCA354" stroke-width="3"/>
<circle cx="43.5" cy="53.5" r="7.5" fill="#CCA354"/>
<circle cx="43.5" cy="113.5" r="7.5" fill="#CCA354"/>
<circle cx="43.5" cy="173.5" r="7.5" fill="#CCA354"/>
<circle cx="43.5" cy="233.5" r="7.5" fill="#CCA354"/>
<circle cx="43.5" cy="293.5" r="7.5" fill="#CCA354"/>
<circle cx="43.5" cy="353.5" r="7.5" fill="#CCA354"/>
<circle cx="43.5" cy="413.5" r="7.5" fill="#CCA354"/>
<path d="M68.6241 62V44.008H72.2381L77.3341 59.218L82.4301 44.008H86.0441V62H84.0421V46.14H83.6781L78.4521 61.35H76.2161L70.9901 46.14H70.6261V62H68.6241ZM89.423 55.474C89.423 53.0993 89.8477 51.3833 90.697 50.326C91.5464 49.2687 92.9764 48.74 94.987 48.74C97.015 48.74 98.445 49.2687 99.277 50.326C100.126 51.3833 100.551 53.0993 100.551 55.474C100.551 57.8487 100.152 59.5733 99.355 60.648C98.5577 61.7227 97.1017 62.26 94.987 62.26C92.8724 62.26 91.4164 61.7227 90.619 60.648C89.8217 59.5733 89.423 57.8487 89.423 55.474ZM91.425 55.448C91.425 57.3373 91.6504 58.6633 92.101 59.426C92.569 60.1887 93.531 60.57 94.987 60.57C96.4604 60.57 97.4224 60.1973 97.873 59.452C98.3237 58.6893 98.549 57.3547 98.549 55.448C98.549 53.5413 98.2977 52.2327 97.795 51.522C97.2924 50.794 96.3564 50.43 94.987 50.43C93.635 50.43 92.699 50.794 92.179 51.522C91.6764 52.2327 91.425 53.5413 91.425 55.448ZM102.281 49H104.361L107.403 60.31H108.365L111.511 49H113.513L109.847 62H105.947L102.281 49ZM124.632 60.388L125.386 60.31L125.438 61.844C123.462 62.1213 121.772 62.26 120.368 62.26C118.496 62.26 117.17 61.7227 116.39 60.648C115.61 59.556 115.22 57.866 115.22 55.578C115.22 51.0193 117.031 48.74 120.654 48.74C122.405 48.74 123.713 49.234 124.58 50.222C125.447 51.1927 125.88 52.7267 125.88 54.824L125.776 56.306H117.196C117.196 57.7447 117.456 58.8107 117.976 59.504C118.496 60.1973 119.397 60.544 120.68 60.544C121.98 60.544 123.297 60.492 124.632 60.388ZM123.93 54.746C123.93 53.1513 123.67 52.0247 123.15 51.366C122.647 50.7073 121.815 50.378 120.654 50.378C119.51 50.378 118.643 50.7247 118.054 51.418C117.482 52.1113 117.187 53.2207 117.17 54.746H123.93ZM141.366 50.69H137.232V56.904C137.232 58.3947 137.336 59.374 137.544 59.842C137.769 60.31 138.289 60.544 139.104 60.544L141.418 60.388L141.548 62C140.386 62.1907 139.502 62.286 138.896 62.286C137.544 62.286 136.608 61.9567 136.088 61.298C135.568 60.6393 135.308 59.3827 135.308 57.528V50.69H133.462V49H135.308V45.022H137.232V49H141.366V50.69ZM143.175 55.474C143.175 53.0993 143.6 51.3833 144.449 50.326C145.298 49.2687 146.728 48.74 148.739 48.74C150.767 48.74 152.197 49.2687 153.029 50.326C153.878 51.3833 154.303 53.0993 154.303 55.474C154.303 57.8487 153.904 59.5733 153.107 60.648C152.31 61.7227 150.854 62.26 148.739 62.26C146.624 62.26 145.168 61.7227 144.371 60.648C143.574 59.5733 143.175 57.8487 143.175 55.474ZM145.177 55.448C145.177 57.3373 145.402 58.6633 145.853 59.426C146.321 60.1887 147.283 60.57 148.739 60.57C150.212 60.57 151.174 60.1973 151.625 59.452C152.076 58.6893 152.301 57.3547 152.301 55.448C152.301 53.5413 152.05 52.2327 151.547 51.522C151.044 50.794 150.108 50.43 148.739 50.43C147.387 50.43 146.451 50.794 145.931 51.522C145.428 52.2327 145.177 53.5413 145.177 55.448ZM169.956 62H163.534V44.008H169.956C172.886 44.008 174.827 45.1693 175.78 47.492C176.335 48.8267 176.612 50.5773 176.612 52.744C176.612 57.268 175.486 60.1193 173.232 61.298C172.331 61.766 171.239 62 169.956 62ZM174.558 52.744C174.558 49.2947 173.787 47.1453 172.244 46.296C171.62 45.9493 170.858 45.776 169.956 45.776H165.536V60.232H169.956C173.024 60.232 174.558 57.736 174.558 52.744ZM179.954 62V49H181.904V62H179.954ZM179.954 46.062V43.8H181.904V46.062H179.954ZM189.724 50.482C187.834 50.482 186.89 51.1407 186.89 52.458C186.89 53.0647 187.106 53.498 187.54 53.758C187.973 54.0007 188.961 54.2607 190.504 54.538C192.046 54.798 193.138 55.1707 193.78 55.656C194.421 56.1413 194.742 57.0513 194.742 58.386C194.742 59.7207 194.308 60.7 193.442 61.324C192.592 61.948 191.344 62.26 189.698 62.26C188.623 62.26 187.358 62.1387 185.902 61.896L185.122 61.766L185.226 60.076C187.202 60.3707 188.692 60.518 189.698 60.518C190.703 60.518 191.466 60.362 191.986 60.05C192.523 59.7207 192.792 59.1833 192.792 58.438C192.792 57.6753 192.566 57.164 192.116 56.904C191.665 56.6267 190.677 56.3667 189.152 56.124C187.626 55.8813 186.543 55.526 185.902 55.058C185.26 54.59 184.94 53.7233 184.94 52.458C184.94 51.1927 185.382 50.2567 186.266 49.65C187.167 49.0433 188.285 48.74 189.62 48.74C190.677 48.74 192.003 48.8613 193.598 49.104L194.326 49.234L194.274 50.898C192.35 50.6207 190.833 50.482 189.724 50.482ZM202.589 48.74C203.161 48.74 204.132 48.844 205.501 49.052L206.125 49.13L206.047 50.716C204.661 50.56 203.638 50.482 202.979 50.482C201.506 50.482 200.501 50.8373 199.963 51.548C199.443 52.2413 199.183 53.5413 199.183 55.448C199.183 57.3373 199.426 58.6547 199.911 59.4C200.414 60.1453 201.445 60.518 203.005 60.518L206.073 60.284L206.151 61.896C204.539 62.1387 203.335 62.26 202.537 62.26C200.509 62.26 199.105 61.74 198.325 60.7C197.563 59.66 197.181 57.9093 197.181 55.448C197.181 52.9693 197.597 51.236 198.429 50.248C199.261 49.2427 200.648 48.74 202.589 48.74ZM208.327 55.474C208.327 53.0993 208.752 51.3833 209.601 50.326C210.451 49.2687 211.881 48.74 213.891 48.74C215.919 48.74 217.349 49.2687 218.181 50.326C219.031 51.3833 219.455 53.0993 219.455 55.474C219.455 57.8487 219.057 59.5733 218.259 60.648C217.462 61.7227 216.006 62.26 213.891 62.26C211.777 62.26 210.321 61.7227 209.523 60.648C208.726 59.5733 208.327 57.8487 208.327 55.474ZM210.329 55.448C210.329 57.3373 210.555 58.6633 211.005 59.426C211.473 60.1887 212.435 60.57 213.891 60.57C215.365 60.57 216.327 60.1973 216.777 59.452C217.228 58.6893 217.453 57.3547 217.453 55.448C217.453 53.5413 217.202 52.2327 216.699 51.522C216.197 50.794 215.261 50.43 213.891 50.43C212.539 50.43 211.603 50.794 211.083 51.522C210.581 52.2327 210.329 53.5413 210.329 55.448ZM222.636 62V49H224.56V50.768C226.068 49.728 227.654 49.0433 229.318 48.714V50.69C228.59 50.8287 227.827 51.0453 227.03 51.34C226.25 51.6347 225.652 51.8947 225.236 52.12L224.586 52.458V62H222.636ZM241.278 43.332V62H239.354V61.116C238.019 61.8787 236.702 62.26 235.402 62.26C234.709 62.26 234.102 62.1733 233.582 62C233.062 61.8267 232.577 61.5147 232.126 61.064C231.19 60.128 230.722 58.4033 230.722 55.89C230.722 53.3593 231.138 51.5393 231.97 50.43C232.819 49.3033 234.215 48.74 236.156 48.74C237.161 48.74 238.227 48.8527 239.354 49.078V43.332H241.278ZM233.634 59.66C233.911 59.9893 234.206 60.2147 234.518 60.336C234.83 60.4573 235.229 60.518 235.714 60.518C236.217 60.518 236.771 60.44 237.378 60.284C238.002 60.1107 238.487 59.946 238.834 59.79L239.354 59.556V50.742C238.245 50.534 237.213 50.43 236.26 50.43C234.943 50.43 234.024 50.8547 233.504 51.704C232.984 52.536 232.724 53.836 232.724 55.604C232.724 57.6147 233.027 58.9667 233.634 59.66ZM254.85 50.482C252.961 50.482 252.016 51.1407 252.016 52.458C252.016 53.0647 252.233 53.498 252.666 53.758C253.1 54.0007 254.088 54.2607 255.63 54.538C257.173 54.798 258.265 55.1707 258.906 55.656C259.548 56.1413 259.868 57.0513 259.868 58.386C259.868 59.7207 259.435 60.7 258.568 61.324C257.719 61.948 256.471 62.26 254.824 62.26C253.75 62.26 252.484 62.1387 251.028 61.896L250.248 61.766L250.352 60.076C252.328 60.3707 253.819 60.518 254.824 60.518C255.83 60.518 256.592 60.362 257.112 60.05C257.65 59.7207 257.918 59.1833 257.918 58.438C257.918 57.6753 257.693 57.164 257.242 56.904C256.792 56.6267 255.804 56.3667 254.278 56.124C252.753 55.8813 251.67 55.526 251.028 55.058C250.387 54.59 250.066 53.7233 250.066 52.458C250.066 51.1927 250.508 50.2567 251.392 49.65C252.294 49.0433 253.412 48.74 254.746 48.74C255.804 48.74 257.13 48.8613 258.724 49.104L259.452 49.234L259.4 50.898C257.476 50.6207 255.96 50.482 254.85 50.482ZM271.694 60.388L272.448 60.31L272.5 61.844C270.524 62.1213 268.834 62.26 267.43 62.26C265.558 62.26 264.232 61.7227 263.452 60.648C262.672 59.556 262.282 57.866 262.282 55.578C262.282 51.0193 264.094 48.74 267.716 48.74C269.467 48.74 270.776 49.234 271.642 50.222C272.509 51.1927 272.942 52.7267 272.942 54.824L272.838 56.306H264.258C264.258 57.7447 264.518 58.8107 265.038 59.504C265.558 60.1973 266.46 60.544 267.742 60.544C269.042 60.544 270.36 60.492 271.694 60.388ZM270.992 54.746C270.992 53.1513 270.732 52.0247 270.212 51.366C269.71 50.7073 268.878 50.378 267.716 50.378C266.572 50.378 265.706 50.7247 265.116 51.418C264.544 52.1113 264.25 53.2207 264.232 54.746H270.992ZM275.981 62V49H277.905V50.768C279.413 49.728 280.999 49.0433 282.663 48.714V50.69C281.935 50.8287 281.173 51.0453 280.375 51.34C279.595 51.6347 278.997 51.8947 278.581 52.12L277.931 52.458V62H275.981ZM283.748 49H285.828L288.87 60.31H289.832L292.978 49H294.98L291.314 62H287.414L283.748 49ZM306.099 60.388L306.853 60.31L306.905 61.844C304.929 62.1213 303.239 62.26 301.835 62.26C299.963 62.26 298.637 61.7227 297.857 60.648C297.077 59.556 296.687 57.866 296.687 55.578C296.687 51.0193 298.498 48.74 302.121 48.74C303.871 48.74 305.18 49.234 306.047 50.222C306.913 51.1927 307.347 52.7267 307.347 54.824L307.243 56.306H298.663C298.663 57.7447 298.923 58.8107 299.443 59.504C299.963 60.1973 300.864 60.544 302.147 60.544C303.447 60.544 304.764 60.492 306.099 60.388ZM305.397 54.746C305.397 53.1513 305.137 52.0247 304.617 51.366C304.114 50.7073 303.282 50.378 302.121 50.378C300.977 50.378 300.11 50.7247 299.521 51.418C298.949 52.1113 298.654 53.2207 298.637 54.746H305.397ZM310.386 62V49H312.31V50.768C313.818 49.728 315.404 49.0433 317.068 48.714V50.69C316.34 50.8287 315.577 51.0453 314.78 51.34C314 51.6347 313.402 51.8947 312.986 52.12L312.336 52.458V62H310.386ZM327.583 50.69V62H325.633V50.69H323.995V49H325.633V47.83C325.633 45.9927 325.893 44.7447 326.413 44.086C326.933 43.41 327.843 43.072 329.143 43.072L331.769 43.254L331.743 44.866C330.772 44.8313 329.966 44.814 329.325 44.814C328.701 44.814 328.25 45.022 327.973 45.438C327.713 45.854 327.583 46.66 327.583 47.856V49H331.353V50.69H327.583ZM332.894 55.474C332.894 53.0993 333.318 51.3833 334.168 50.326C335.017 49.2687 336.447 48.74 338.458 48.74C340.486 48.74 341.916 49.2687 342.748 50.326C343.597 51.3833 344.022 53.0993 344.022 55.474C344.022 57.8487 343.623 59.5733 342.826 60.648C342.028 61.7227 340.572 62.26 338.458 62.26C336.343 62.26 334.887 61.7227 334.09 60.648C333.292 59.5733 332.894 57.8487 332.894 55.474ZM334.896 55.448C334.896 57.3373 335.121 58.6633 335.572 59.426C336.04 60.1887 337.002 60.57 338.458 60.57C339.931 60.57 340.893 60.1973 341.344 59.452C341.794 58.6893 342.02 57.3547 342.02 55.448C342.02 53.5413 341.768 52.2327 341.266 51.522C340.763 50.794 339.827 50.43 338.458 50.43C337.106 50.43 336.17 50.794 335.65 51.522C335.147 52.2327 334.896 53.5413 334.896 55.448ZM347.202 62V49H349.126V50.768C350.634 49.728 352.22 49.0433 353.884 48.714V50.69C353.156 50.8287 352.393 51.0453 351.596 51.34C350.816 51.6347 350.218 51.8947 349.802 52.12L349.152 52.458V62H347.202ZM363.853 62H361.903V49H363.827V49.91C365.127 49.13 366.393 48.74 367.623 48.74C369.235 48.74 370.362 49.182 371.003 50.066C371.575 49.7193 372.312 49.416 373.213 49.156C374.132 48.8787 374.938 48.74 375.631 48.74C377.365 48.74 378.526 49.208 379.115 50.144C379.722 51.0627 380.025 52.7267 380.025 55.136V62H378.075V55.188C378.075 53.3853 377.902 52.1547 377.555 51.496C377.209 50.82 376.472 50.482 375.345 50.482C374.773 50.482 374.184 50.5687 373.577 50.742C372.971 50.898 372.503 51.054 372.173 51.21L371.679 51.444C371.905 52.016 372.017 53.2813 372.017 55.24V62H370.067V55.292C370.067 53.42 369.894 52.1547 369.547 51.496C369.218 50.82 368.481 50.482 367.337 50.482C366.783 50.482 366.211 50.5687 365.621 50.742C365.049 50.898 364.607 51.054 364.295 51.21L363.853 51.444V62ZM392.816 52.926V59.582C392.868 60.2233 393.37 60.6047 394.324 60.726L394.246 62.26C392.876 62.26 391.845 61.9133 391.152 61.22C389.592 61.9133 388.032 62.26 386.472 62.26C385.276 62.26 384.366 61.922 383.742 61.246C383.118 60.57 382.806 59.5993 382.806 58.334C382.806 57.0687 383.126 56.1413 383.768 55.552C384.409 54.9453 385.414 54.5727 386.784 54.434L390.866 54.044V52.926C390.866 52.042 390.675 51.4093 390.294 51.028C389.912 50.6467 389.392 50.456 388.734 50.456C387.347 50.456 385.908 50.5427 384.418 50.716L383.612 50.794L383.534 49.312C385.44 48.9307 387.13 48.74 388.604 48.74C390.077 48.74 391.143 49.078 391.802 49.754C392.478 50.43 392.816 51.4873 392.816 52.926ZM384.808 58.23C384.808 59.8247 385.466 60.622 386.784 60.622C387.962 60.622 389.124 60.4227 390.268 60.024L390.866 59.816V55.526L387.018 55.89C386.238 55.9593 385.674 56.1847 385.328 56.566C384.981 56.9473 384.808 57.502 384.808 58.23ZM396.663 62V49H398.613V62H396.663ZM396.663 46.062V43.8H398.613V46.062H396.663ZM404.301 62H402.351V49H404.275V49.91C405.679 49.13 407.022 48.74 408.305 48.74C410.038 48.74 411.199 49.208 411.789 50.144C412.395 51.08 412.699 52.744 412.699 55.136V62H410.775V55.188C410.775 53.3853 410.593 52.1547 410.229 51.496C409.882 50.82 409.128 50.482 407.967 50.482C407.412 50.482 406.823 50.5687 406.199 50.742C405.592 50.898 405.124 51.054 404.795 51.21L404.301 51.444V62ZM426.89 48.74C427.462 48.74 428.433 48.844 429.802 49.052L430.426 49.13L430.348 50.716C428.962 50.56 427.939 50.482 427.28 50.482C425.807 50.482 424.802 50.8373 424.264 51.548C423.744 52.2413 423.484 53.5413 423.484 55.448C423.484 57.3373 423.727 58.6547 424.212 59.4C424.715 60.1453 425.746 60.518 427.306 60.518L430.374 60.284L430.452 61.896C428.84 62.1387 427.636 62.26 426.838 62.26C424.81 62.26 423.406 61.74 422.626 60.7C421.864 59.66 421.482 57.9093 421.482 55.448C421.482 52.9693 421.898 51.236 422.73 50.248C423.562 49.2427 424.949 48.74 426.89 48.74ZM435.302 62H433.352V43.332H435.302V49.728C436.689 49.0693 438.024 48.74 439.306 48.74C441.04 48.74 442.201 49.208 442.79 50.144C443.397 51.08 443.7 52.744 443.7 55.136V62H441.75V55.188C441.75 53.3853 441.568 52.1547 441.204 51.496C440.858 50.82 440.112 50.482 438.968 50.482C437.876 50.482 436.819 50.6813 435.796 51.08L435.302 51.262V62ZM456.495 52.926V59.582C456.547 60.2233 457.05 60.6047 458.003 60.726L457.925 62.26C456.556 62.26 455.525 61.9133 454.831 61.22C453.271 61.9133 451.711 62.26 450.151 62.26C448.955 62.26 448.045 61.922 447.421 61.246C446.797 60.57 446.485 59.5993 446.485 58.334C446.485 57.0687 446.806 56.1413 447.447 55.552C448.089 54.9453 449.094 54.5727 450.463 54.434L454.545 54.044V52.926C454.545 52.042 454.355 51.4093 453.973 51.028C453.592 50.6467 453.072 50.456 452.413 50.456C451.027 50.456 449.588 50.5427 448.097 50.716L447.291 50.794L447.213 49.312C449.12 48.9307 450.81 48.74 452.283 48.74C453.757 48.74 454.823 49.078 455.481 49.754C456.157 50.43 456.495 51.4873 456.495 52.926ZM448.487 58.23C448.487 59.8247 449.146 60.622 450.463 60.622C451.642 60.622 452.803 60.4227 453.947 60.024L454.545 59.816V55.526L450.697 55.89C449.917 55.9593 449.354 56.1847 449.007 56.566C448.661 56.9473 448.487 57.502 448.487 58.23ZM467.077 50.69H462.943V56.904C462.943 58.3947 463.047 59.374 463.255 59.842C463.48 60.31 464 60.544 464.815 60.544L467.129 60.388L467.259 62C466.097 62.1907 465.213 62.286 464.607 62.286C463.255 62.286 462.319 61.9567 461.799 61.298C461.279 60.6393 461.019 59.3827 461.019 57.528V50.69H459.173V49H461.019V45.022H462.943V49H467.077V50.69Z" fill="white"/>
<path d="M75.0712 115.942H70.4952V122H68.4932V104.008H75.0712C77.0299 104.008 78.4772 104.485 79.4132 105.438C80.3492 106.391 80.8172 107.847 80.8172 109.806C80.8172 113.897 78.9019 115.942 75.0712 115.942ZM70.4952 114.174H75.0452C77.5239 114.174 78.7632 112.718 78.7632 109.806C78.7632 108.419 78.4685 107.405 77.8792 106.764C77.2899 106.105 76.3452 105.776 75.0452 105.776H70.4952V114.174ZM92.6184 112.926V119.582C92.6704 120.223 93.173 120.605 94.1264 120.726L94.0484 122.26C92.679 122.26 91.6477 121.913 90.9544 121.22C89.3944 121.913 87.8344 122.26 86.2744 122.26C85.0784 122.26 84.1684 121.922 83.5444 121.246C82.9204 120.57 82.6084 119.599 82.6084 118.334C82.6084 117.069 82.929 116.141 83.5704 115.552C84.2117 114.945 85.217 114.573 86.5864 114.434L90.6684 114.044V112.926C90.6684 112.042 90.4777 111.409 90.0964 111.028C89.715 110.647 89.195 110.456 88.5364 110.456C87.1497 110.456 85.711 110.543 84.2204 110.716L83.4144 110.794L83.3364 109.312C85.243 108.931 86.933 108.74 88.4064 108.74C89.8797 108.74 90.9457 109.078 91.6044 109.754C92.2804 110.43 92.6184 111.487 92.6184 112.926ZM84.6104 118.23C84.6104 119.825 85.269 120.622 86.5864 120.622C87.765 120.622 88.9264 120.423 90.0704 120.024L90.6684 119.816V115.526L86.8204 115.89C86.0404 115.959 85.477 116.185 85.1304 116.566C84.7837 116.947 84.6104 117.502 84.6104 118.23ZM96.4658 122V109H98.3898V110.768C99.8978 109.728 101.484 109.043 103.148 108.714V110.69C102.42 110.829 101.657 111.045 100.86 111.34C100.08 111.635 99.4818 111.895 99.0658 112.12L98.4157 112.458V122H96.4658ZM112.188 110.69H108.054V116.904C108.054 118.395 108.158 119.374 108.366 119.842C108.591 120.31 109.111 120.544 109.926 120.544L112.24 120.388L112.37 122C111.209 122.191 110.325 122.286 109.718 122.286C108.366 122.286 107.43 121.957 106.91 121.298C106.39 120.639 106.13 119.383 106.13 117.528V110.69H104.284V109H106.13V105.022H108.054V109H112.188V110.69ZM116.519 122H114.569V109H116.493V109.91C117.897 109.13 119.241 108.74 120.523 108.74C122.257 108.74 123.418 109.208 124.007 110.144C124.614 111.08 124.917 112.744 124.917 115.136V122H122.993V115.188C122.993 113.385 122.811 112.155 122.447 111.496C122.101 110.82 121.347 110.482 120.185 110.482C119.631 110.482 119.041 110.569 118.417 110.742C117.811 110.898 117.343 111.054 117.013 111.21L116.519 111.444V122ZM137.374 120.388L138.128 120.31L138.18 121.844C136.204 122.121 134.514 122.26 133.11 122.26C131.238 122.26 129.912 121.723 129.132 120.648C128.352 119.556 127.962 117.866 127.962 115.578C127.962 111.019 129.773 108.74 133.396 108.74C135.147 108.74 136.455 109.234 137.322 110.222C138.189 111.193 138.622 112.727 138.622 114.824L138.518 116.306H129.938C129.938 117.745 130.198 118.811 130.718 119.504C131.238 120.197 132.139 120.544 133.422 120.544C134.722 120.544 136.039 120.492 137.374 120.388ZM136.672 114.746C136.672 113.151 136.412 112.025 135.892 111.366C135.389 110.707 134.557 110.378 133.396 110.378C132.252 110.378 131.385 110.725 130.796 111.418C130.224 112.111 129.929 113.221 129.912 114.746H136.672ZM141.661 122V109H143.585V110.768C145.093 109.728 146.679 109.043 148.343 108.714V110.69C147.615 110.829 146.852 111.045 146.055 111.34C145.275 111.635 144.677 111.895 144.261 112.12L143.611 112.458V122H141.661ZM154.731 110.482C152.842 110.482 151.897 111.141 151.897 112.458C151.897 113.065 152.114 113.498 152.547 113.758C152.981 114.001 153.969 114.261 155.511 114.538C157.054 114.798 158.146 115.171 158.787 115.656C159.429 116.141 159.749 117.051 159.749 118.386C159.749 119.721 159.316 120.7 158.449 121.324C157.6 121.948 156.352 122.26 154.705 122.26C153.631 122.26 152.365 122.139 150.909 121.896L150.129 121.766L150.233 120.076C152.209 120.371 153.7 120.518 154.705 120.518C155.711 120.518 156.473 120.362 156.993 120.05C157.531 119.721 157.799 119.183 157.799 118.438C157.799 117.675 157.574 117.164 157.123 116.904C156.673 116.627 155.685 116.367 154.159 116.124C152.634 115.881 151.551 115.526 150.909 115.058C150.268 114.59 149.947 113.723 149.947 112.458C149.947 111.193 150.389 110.257 151.273 109.65C152.175 109.043 153.293 108.74 154.627 108.74C155.685 108.74 157.011 108.861 158.605 109.104L159.333 109.234L159.281 110.898C157.357 110.621 155.841 110.482 154.731 110.482ZM164.685 122H162.735V103.332H164.685V109.728C166.072 109.069 167.407 108.74 168.689 108.74C170.423 108.74 171.584 109.208 172.173 110.144C172.78 111.08 173.083 112.744 173.083 115.136V122H171.133V115.188C171.133 113.385 170.951 112.155 170.587 111.496C170.241 110.82 169.495 110.482 168.351 110.482C167.259 110.482 166.202 110.681 165.179 111.08L164.685 111.262V122ZM176.7 122V109H178.65V122H176.7ZM176.7 106.062V103.8H178.65V106.062H176.7ZM182.388 127.772V109H184.312V109.936C185.629 109.139 186.929 108.74 188.212 108.74C189.858 108.74 191.054 109.269 191.8 110.326C192.545 111.366 192.918 113.091 192.918 115.5C192.918 117.909 192.476 119.643 191.592 120.7C190.725 121.74 189.278 122.26 187.25 122.26C186.192 122.26 185.222 122.165 184.338 121.974V127.772H182.388ZM187.926 110.482C187.406 110.482 186.842 110.569 186.236 110.742C185.646 110.915 185.178 111.089 184.832 111.262L184.338 111.522V120.284C185.568 120.475 186.504 120.57 187.146 120.57C188.55 120.57 189.529 120.171 190.084 119.374C190.656 118.577 190.942 117.277 190.942 115.474C190.942 113.671 190.682 112.389 190.162 111.626C189.659 110.863 188.914 110.482 187.926 110.482ZM200.181 110.482C198.291 110.482 197.347 111.141 197.347 112.458C197.347 113.065 197.563 113.498 197.997 113.758C198.43 114.001 199.418 114.261 200.961 114.538C202.503 114.798 203.595 115.171 204.237 115.656C204.878 116.141 205.199 117.051 205.199 118.386C205.199 119.721 204.765 120.7 203.899 121.324C203.049 121.948 201.801 122.26 200.155 122.26C199.08 122.26 197.815 122.139 196.359 121.896L195.579 121.766L195.683 120.076C197.659 120.371 199.149 120.518 200.155 120.518C201.16 120.518 201.923 120.362 202.443 120.05C202.98 119.721 203.249 119.183 203.249 118.438C203.249 117.675 203.023 117.164 202.573 116.904C202.122 116.627 201.134 116.367 199.609 116.124C198.083 115.881 197 115.526 196.359 115.058C195.717 114.59 195.397 113.723 195.397 112.458C195.397 111.193 195.839 110.257 196.723 109.65C197.624 109.043 198.742 108.74 200.077 108.74C201.134 108.74 202.46 108.861 204.055 109.104L204.783 109.234L204.731 110.898C202.807 110.621 201.29 110.482 200.181 110.482ZM216.107 116.592C216.107 119.192 217.511 120.492 220.319 120.492C221.775 120.492 222.867 120.189 223.595 119.582C224.341 118.958 224.713 117.961 224.713 116.592V104.008H226.689V116.54C226.689 118.551 226.152 120.007 225.077 120.908C224.02 121.809 222.451 122.26 220.371 122.26C218.291 122.26 216.723 121.809 215.665 120.908C214.625 120.007 214.105 118.551 214.105 116.54V104.008H216.107V116.592ZM232.58 122H230.63V109H232.554V109.91C233.958 109.13 235.301 108.74 236.584 108.74C238.317 108.74 239.478 109.208 240.068 110.144C240.674 111.08 240.978 112.744 240.978 115.136V122H239.054V115.188C239.054 113.385 238.872 112.155 238.508 111.496C238.161 110.82 237.407 110.482 236.246 110.482C235.691 110.482 235.102 110.569 234.478 110.742C233.871 110.898 233.403 111.054 233.074 111.21L232.58 111.444V122ZM243.246 109H245.326L248.368 120.31H249.33L252.476 109H254.478L250.812 122H246.912L243.246 109ZM265.597 120.388L266.351 120.31L266.403 121.844C264.427 122.121 262.737 122.26 261.333 122.26C259.461 122.26 258.135 121.723 257.355 120.648C256.575 119.556 256.185 117.866 256.185 115.578C256.185 111.019 257.996 108.74 261.619 108.74C263.369 108.74 264.678 109.234 265.545 110.222C266.411 111.193 266.845 112.727 266.845 114.824L266.741 116.306H258.161C258.161 117.745 258.421 118.811 258.941 119.504C259.461 120.197 260.362 120.544 261.645 120.544C262.945 120.544 264.262 120.492 265.597 120.388ZM264.895 114.746C264.895 113.151 264.635 112.025 264.115 111.366C263.612 110.707 262.78 110.378 261.619 110.378C260.475 110.378 259.608 110.725 259.019 111.418C258.447 112.111 258.152 113.221 258.135 114.746H264.895ZM269.884 122V109H271.834V122H269.884ZM269.884 106.062V103.8H271.834V106.062H269.884ZM275.727 122V103.332H277.677V122H275.727Z" fill="white"/>
<path d="M72.0243 174.082C72.0243 176.717 72.3709 178.615 73.0643 179.776C73.7576 180.92 75.0923 181.492 77.0683 181.492C79.0616 181.492 80.3963 180.929 81.0723 179.802C81.7656 178.675 82.1123 176.786 82.1123 174.134C82.1123 171.482 81.7569 169.549 81.0463 168.336C80.3356 167.123 79.0009 166.516 77.0423 166.516C75.1009 166.516 73.7749 167.123 73.0643 168.336C72.3709 169.532 72.0243 171.447 72.0243 174.082ZM84.1923 174.134C84.1923 177.341 83.6809 179.663 82.6583 181.102C81.6356 182.541 79.7723 183.26 77.0683 183.26C74.3816 183.26 72.5269 182.523 71.5043 181.05C70.4816 179.577 69.9703 177.263 69.9703 174.108C69.9703 170.936 70.4903 168.587 71.5303 167.062C72.5703 165.519 74.4163 164.748 77.0683 164.748C79.7203 164.748 81.5663 165.511 82.6063 167.036C83.6636 168.561 84.1923 170.927 84.1923 174.134ZM87.5243 188.772V170H89.4483V170.936C90.7657 170.139 92.0657 169.74 93.3483 169.74C94.995 169.74 96.191 170.269 96.9363 171.326C97.6817 172.366 98.0543 174.091 98.0543 176.5C98.0543 178.909 97.6123 180.643 96.7283 181.7C95.8617 182.74 94.4143 183.26 92.3863 183.26C91.329 183.26 90.3583 183.165 89.4743 182.974V188.772H87.5243ZM93.0623 171.482C92.5423 171.482 91.979 171.569 91.3723 171.742C90.783 171.915 90.315 172.089 89.9683 172.262L89.4743 172.522V181.284C90.705 181.475 91.641 181.57 92.2823 181.57C93.6863 181.57 94.6657 181.171 95.2203 180.374C95.7923 179.577 96.0783 178.277 96.0783 176.474C96.0783 174.671 95.8183 173.389 95.2983 172.626C94.7957 171.863 94.0503 171.482 93.0623 171.482ZM110.075 181.388L110.829 181.31L110.881 182.844C108.905 183.121 107.215 183.26 105.811 183.26C103.939 183.26 102.613 182.723 101.833 181.648C101.053 180.556 100.663 178.866 100.663 176.578C100.663 172.019 102.475 169.74 106.097 169.74C107.848 169.74 109.157 170.234 110.023 171.222C110.89 172.193 111.323 173.727 111.323 175.824L111.219 177.306H102.639C102.639 178.745 102.899 179.811 103.419 180.504C103.939 181.197 104.841 181.544 106.123 181.544C107.423 181.544 108.741 181.492 110.075 181.388ZM109.373 175.746C109.373 174.151 109.113 173.025 108.593 172.366C108.091 171.707 107.259 171.378 106.097 171.378C104.953 171.378 104.087 171.725 103.497 172.418C102.925 173.111 102.631 174.221 102.613 175.746H109.373ZM116.312 183H114.362V170H116.286V170.91C117.69 170.13 119.034 169.74 120.316 169.74C122.05 169.74 123.211 170.208 123.8 171.144C124.407 172.08 124.71 173.744 124.71 176.136V183H122.786V176.188C122.786 174.385 122.604 173.155 122.24 172.496C121.894 171.82 121.14 171.482 119.978 171.482C119.424 171.482 118.834 171.569 118.21 171.742C117.604 171.898 117.136 172.054 116.806 172.21L116.312 172.444V183ZM132.506 166.802V165.008H145.506V166.802H140.02V183H138.044V166.802H132.506ZM154.204 181.388L154.958 181.31L155.01 182.844C153.034 183.121 151.344 183.26 149.94 183.26C148.068 183.26 146.742 182.723 145.962 181.648C145.182 180.556 144.792 178.866 144.792 176.578C144.792 172.019 146.604 169.74 150.226 169.74C151.977 169.74 153.286 170.234 154.152 171.222C155.019 172.193 155.452 173.727 155.452 175.824L155.348 177.306H146.768C146.768 178.745 147.028 179.811 147.548 180.504C148.068 181.197 148.97 181.544 150.252 181.544C151.552 181.544 152.87 181.492 154.204 181.388ZM153.502 175.746C153.502 174.151 153.242 173.025 152.722 172.366C152.22 171.707 151.388 171.378 150.226 171.378C149.082 171.378 148.216 171.725 147.626 172.418C147.054 173.111 146.76 174.221 146.742 175.746H153.502ZM162.573 171.482C160.684 171.482 159.739 172.141 159.739 173.458C159.739 174.065 159.956 174.498 160.389 174.758C160.822 175.001 161.81 175.261 163.353 175.538C164.896 175.798 165.988 176.171 166.629 176.656C167.27 177.141 167.591 178.051 167.591 179.386C167.591 180.721 167.158 181.7 166.291 182.324C165.442 182.948 164.194 183.26 162.547 183.26C161.472 183.26 160.207 183.139 158.751 182.896L157.971 182.766L158.075 181.076C160.051 181.371 161.542 181.518 162.547 181.518C163.552 181.518 164.315 181.362 164.835 181.05C165.372 180.721 165.641 180.183 165.641 179.438C165.641 178.675 165.416 178.164 164.965 177.904C164.514 177.627 163.526 177.367 162.001 177.124C160.476 176.881 159.392 176.526 158.751 176.058C158.11 175.59 157.789 174.723 157.789 173.458C157.789 172.193 158.231 171.257 159.115 170.65C160.016 170.043 161.134 169.74 162.469 169.74C163.526 169.74 164.852 169.861 166.447 170.104L167.175 170.234L167.123 171.898C165.199 171.621 163.682 171.482 162.573 171.482ZM177.311 171.69H173.177V177.904C173.177 179.395 173.281 180.374 173.489 180.842C173.714 181.31 174.234 181.544 175.049 181.544L177.363 181.388L177.493 183C176.332 183.191 175.448 183.286 174.841 183.286C173.489 183.286 172.553 182.957 172.033 182.298C171.513 181.639 171.253 180.383 171.253 178.528V171.69H169.407V170H171.253V166.022H173.177V170H177.311V171.69ZM196.611 182.714C194.826 183.078 193.223 183.26 191.801 183.26C190.38 183.26 189.227 183.069 188.343 182.688C187.477 182.289 186.801 181.683 186.315 180.868C185.847 180.036 185.518 179.091 185.327 178.034C185.154 176.959 185.067 175.625 185.067 174.03C185.067 172.435 185.154 171.101 185.327 170.026C185.518 168.934 185.847 167.972 186.315 167.14C186.801 166.308 187.477 165.701 188.343 165.32C189.21 164.939 190.337 164.748 191.723 164.748C193.11 164.748 194.739 164.939 196.611 165.32L196.533 167.01C194.783 166.698 193.223 166.542 191.853 166.542C189.947 166.542 188.681 167.114 188.057 168.258C187.451 169.385 187.147 171.317 187.147 174.056C187.147 175.425 187.199 176.526 187.303 177.358C187.425 178.19 187.65 178.944 187.979 179.62C188.309 180.279 188.785 180.755 189.409 181.05C190.051 181.327 190.978 181.466 192.191 181.466C193.422 181.466 194.869 181.31 196.533 180.998L196.611 182.714ZM208.726 173.926V180.582C208.778 181.223 209.28 181.605 210.234 181.726L210.156 183.26C208.786 183.26 207.755 182.913 207.062 182.22C205.502 182.913 203.942 183.26 202.382 183.26C201.186 183.26 200.276 182.922 199.652 182.246C199.028 181.57 198.716 180.599 198.716 179.334C198.716 178.069 199.036 177.141 199.678 176.552C200.319 175.945 201.324 175.573 202.694 175.434L206.776 175.044V173.926C206.776 173.042 206.585 172.409 206.204 172.028C205.822 171.647 205.302 171.456 204.644 171.456C203.257 171.456 201.818 171.543 200.328 171.716L199.522 171.794L199.444 170.312C201.35 169.931 203.04 169.74 204.514 169.74C205.987 169.74 207.053 170.078 207.712 170.754C208.388 171.43 208.726 172.487 208.726 173.926ZM200.718 179.23C200.718 180.825 201.376 181.622 202.694 181.622C203.872 181.622 205.034 181.423 206.178 181.024L206.776 180.816V176.526L202.928 176.89C202.148 176.959 201.584 177.185 201.238 177.566C200.891 177.947 200.718 178.502 200.718 179.23ZM216.655 171.482C214.766 171.482 213.821 172.141 213.821 173.458C213.821 174.065 214.038 174.498 214.471 174.758C214.905 175.001 215.893 175.261 217.435 175.538C218.978 175.798 220.07 176.171 220.711 176.656C221.353 177.141 221.673 178.051 221.673 179.386C221.673 180.721 221.24 181.7 220.373 182.324C219.524 182.948 218.276 183.26 216.629 183.26C215.555 183.26 214.289 183.139 212.833 182.896L212.053 182.766L212.157 181.076C214.133 181.371 215.624 181.518 216.629 181.518C217.635 181.518 218.397 181.362 218.917 181.05C219.455 180.721 219.723 180.183 219.723 179.438C219.723 178.675 219.498 178.164 219.047 177.904C218.597 177.627 217.609 177.367 216.083 177.124C214.558 176.881 213.475 176.526 212.833 176.058C212.192 175.59 211.871 174.723 211.871 173.458C211.871 172.193 212.313 171.257 213.197 170.65C214.099 170.043 215.217 169.74 216.551 169.74C217.609 169.74 218.935 169.861 220.529 170.104L221.257 170.234L221.205 171.898C219.281 171.621 217.765 171.482 216.655 171.482ZM224.659 183V170H226.609V183H224.659ZM224.659 167.062V164.8H226.609V167.062H224.659ZM232.297 183H230.347V170H232.271V170.91C233.675 170.13 235.018 169.74 236.301 169.74C238.034 169.74 239.195 170.208 239.785 171.144C240.391 172.08 240.695 173.744 240.695 176.136V183H238.771V176.188C238.771 174.385 238.589 173.155 238.225 172.496C237.878 171.82 237.124 171.482 235.963 171.482C235.408 171.482 234.819 171.569 234.195 171.742C233.588 171.898 233.12 172.054 232.791 172.21L232.297 172.444V183ZM243.739 176.474C243.739 174.099 244.164 172.383 245.013 171.326C245.863 170.269 247.293 169.74 249.303 169.74C251.331 169.74 252.761 170.269 253.593 171.326C254.443 172.383 254.867 174.099 254.867 176.474C254.867 178.849 254.469 180.573 253.671 181.648C252.874 182.723 251.418 183.26 249.303 183.26C247.189 183.26 245.733 182.723 244.935 181.648C244.138 180.573 243.739 178.849 243.739 176.474ZM245.741 176.448C245.741 178.337 245.967 179.663 246.417 180.426C246.885 181.189 247.847 181.57 249.303 181.57C250.777 181.57 251.739 181.197 252.189 180.452C252.64 179.689 252.865 178.355 252.865 176.448C252.865 174.541 252.614 173.233 252.111 172.522C251.609 171.794 250.673 171.43 249.303 171.43C247.951 171.43 247.015 171.794 246.495 172.522C245.993 173.233 245.741 174.541 245.741 176.448ZM263.761 183V170H265.711V183H263.761ZM263.761 167.062V164.8H265.711V167.062H263.761ZM271.398 183H269.448V170H271.372V170.91C272.776 170.13 274.12 169.74 275.402 169.74C277.136 169.74 278.297 170.208 278.886 171.144C279.493 172.08 279.796 173.744 279.796 176.136V183H277.872V176.188C277.872 174.385 277.69 173.155 277.326 172.496C276.98 171.82 276.226 171.482 275.064 171.482C274.51 171.482 273.92 171.569 273.296 171.742C272.69 171.898 272.222 172.054 271.892 172.21L271.398 172.444V183ZM300.332 182.714C298.547 183.078 296.943 183.26 295.522 183.26C294.101 183.26 292.948 183.069 292.064 182.688C291.197 182.289 290.521 181.683 290.036 180.868C289.568 180.036 289.239 179.091 289.048 178.034C288.875 176.959 288.788 175.625 288.788 174.03C288.788 172.435 288.875 171.101 289.048 170.026C289.239 168.934 289.568 167.972 290.036 167.14C290.521 166.308 291.197 165.701 292.064 165.32C292.931 164.939 294.057 164.748 295.444 164.748C296.831 164.748 298.46 164.939 300.332 165.32L300.254 167.01C298.503 166.698 296.943 166.542 295.574 166.542C293.667 166.542 292.402 167.114 291.778 168.258C291.171 169.385 290.868 171.317 290.868 174.056C290.868 175.425 290.92 176.526 291.024 177.358C291.145 178.19 291.371 178.944 291.7 179.62C292.029 180.279 292.506 180.755 293.13 181.05C293.771 181.327 294.699 181.466 295.912 181.466C297.143 181.466 298.59 181.31 300.254 180.998L300.332 182.714ZM303.167 183V170H305.091V171.768C306.599 170.728 308.185 170.043 309.849 169.714V171.69C309.121 171.829 308.358 172.045 307.561 172.34C306.781 172.635 306.183 172.895 305.767 173.12L305.117 173.458V183H303.167ZM310.933 170H312.883L316.133 181.31H316.991L320.267 170H322.217L316.809 188.772H314.859L316.549 183H314.625L310.933 170ZM324.724 188.772V170H326.648V170.936C327.965 170.139 329.265 169.74 330.548 169.74C332.194 169.74 333.39 170.269 334.136 171.326C334.881 172.366 335.254 174.091 335.254 176.5C335.254 178.909 334.812 180.643 333.928 181.7C333.061 182.74 331.614 183.26 329.586 183.26C328.528 183.26 327.558 183.165 326.674 182.974V188.772H324.724ZM330.262 171.482C329.742 171.482 329.178 171.569 328.572 171.742C327.982 171.915 327.514 172.089 327.168 172.262L326.674 172.522V181.284C327.904 181.475 328.84 181.57 329.482 181.57C330.886 181.57 331.865 181.171 332.42 180.374C332.992 179.577 333.278 178.277 333.278 176.474C333.278 174.671 333.018 173.389 332.498 172.626C331.995 171.863 331.25 171.482 330.262 171.482ZM345.092 171.69H340.958V177.904C340.958 179.395 341.062 180.374 341.27 180.842C341.496 181.31 342.016 181.544 342.83 181.544L345.144 181.388L345.274 183C344.113 183.191 343.229 183.286 342.622 183.286C341.27 183.286 340.334 182.957 339.814 182.298C339.294 181.639 339.034 180.383 339.034 178.528V171.69H337.188V170H339.034V166.022H340.958V170H345.092V171.69ZM346.902 176.474C346.902 174.099 347.326 172.383 348.176 171.326C349.025 170.269 350.455 169.74 352.466 169.74C354.494 169.74 355.924 170.269 356.756 171.326C357.605 172.383 358.03 174.099 358.03 176.474C358.03 178.849 357.631 180.573 356.834 181.648C356.036 182.723 354.58 183.26 352.466 183.26C350.351 183.26 348.895 182.723 348.098 181.648C347.3 180.573 346.902 178.849 346.902 176.474ZM348.904 176.448C348.904 178.337 349.129 179.663 349.58 180.426C350.048 181.189 351.01 181.57 352.466 181.57C353.939 181.57 354.901 181.197 355.352 180.452C355.802 179.689 356.028 178.355 356.028 176.448C356.028 174.541 355.776 173.233 355.274 172.522C354.771 171.794 353.835 171.43 352.466 171.43C351.114 171.43 350.178 171.794 349.658 172.522C349.155 173.233 348.904 174.541 348.904 176.448ZM359.759 170H361.839L364.881 181.31H365.843L368.989 170H370.991L367.325 183H363.425L359.759 170ZM372.698 176.474C372.698 174.099 373.123 172.383 373.972 171.326C374.822 170.269 376.252 169.74 378.262 169.74C380.29 169.74 381.72 170.269 382.552 171.326C383.402 172.383 383.826 174.099 383.826 176.474C383.826 178.849 383.428 180.573 382.63 181.648C381.833 182.723 380.377 183.26 378.262 183.26C376.148 183.26 374.692 182.723 373.894 181.648C373.097 180.573 372.698 178.849 372.698 176.474ZM374.7 176.448C374.7 178.337 374.926 179.663 375.376 180.426C375.844 181.189 376.806 181.57 378.262 181.57C379.736 181.57 380.698 181.197 381.148 180.452C381.599 179.689 381.824 178.355 381.824 176.448C381.824 174.541 381.573 173.233 381.07 172.522C380.568 171.794 379.632 171.43 378.262 171.43C376.91 171.43 375.974 171.794 375.454 172.522C374.952 173.233 374.7 174.541 374.7 176.448ZM385.402 170H387.534L390.706 175.096L393.878 170H396.01L391.876 176.448L395.984 183H393.852L390.706 177.93L387.534 183H385.402L389.484 176.5L385.402 170ZM406.993 181.388L407.747 181.31L407.799 182.844C405.823 183.121 404.133 183.26 402.729 183.26C400.857 183.26 399.531 182.723 398.751 181.648C397.971 180.556 397.581 178.866 397.581 176.578C397.581 172.019 399.393 169.74 403.015 169.74C404.766 169.74 406.075 170.234 406.941 171.222C407.808 172.193 408.241 173.727 408.241 175.824L408.137 177.306H399.557C399.557 178.745 399.817 179.811 400.337 180.504C400.857 181.197 401.759 181.544 403.041 181.544C404.341 181.544 405.659 181.492 406.993 181.388ZM406.291 175.746C406.291 174.151 406.031 173.025 405.511 172.366C405.009 171.707 404.177 171.378 403.015 171.378C401.871 171.378 401.005 171.725 400.415 172.418C399.843 173.111 399.549 174.221 399.531 175.746H406.291ZM411.436 183V164.332H413.386V183H411.436ZM421.38 171.482C419.49 171.482 418.546 172.141 418.546 173.458C418.546 174.065 418.762 174.498 419.196 174.758C419.629 175.001 420.617 175.261 422.16 175.538C423.702 175.798 424.794 176.171 425.436 176.656C426.077 177.141 426.398 178.051 426.398 179.386C426.398 180.721 425.964 181.7 425.098 182.324C424.248 182.948 423 183.26 421.354 183.26C420.279 183.26 419.014 183.139 417.558 182.896L416.778 182.766L416.882 181.076C418.858 181.371 420.348 181.518 421.354 181.518C422.359 181.518 423.122 181.362 423.642 181.05C424.179 180.721 424.448 180.183 424.448 179.438C424.448 178.675 424.222 178.164 423.772 177.904C423.321 177.627 422.333 177.367 420.808 177.124C419.282 176.881 418.199 176.526 417.558 176.058C416.916 175.59 416.596 174.723 416.596 173.458C416.596 172.193 417.038 171.257 417.922 170.65C418.823 170.043 419.941 169.74 421.276 169.74C422.333 169.74 423.659 169.861 425.254 170.104L425.982 170.234L425.93 171.898C424.006 171.621 422.489 171.482 421.38 171.482Z" fill="white"/>
<path d="M81.1268 241.714C79.3415 242.078 77.7382 242.26 76.3168 242.26C74.8955 242.26 73.7428 242.069 72.8588 241.688C71.9922 241.289 71.3162 240.683 70.8308 239.868C70.3628 239.036 70.0335 238.091 69.8428 237.034C69.6695 235.959 69.5828 234.625 69.5828 233.03C69.5828 231.435 69.6695 230.101 69.8428 229.026C70.0335 227.934 70.3628 226.972 70.8308 226.14C71.3162 225.308 71.9922 224.701 72.8588 224.32C73.7255 223.939 74.8522 223.748 76.2388 223.748C77.6255 223.748 79.2548 223.939 81.1268 224.32L81.0488 226.01C79.2982 225.698 77.7382 225.542 76.3688 225.542C74.4622 225.542 73.1968 226.114 72.5728 227.258C71.9662 228.385 71.6628 230.317 71.6628 233.056C71.6628 234.425 71.7148 235.526 71.8188 236.358C71.9402 237.19 72.1655 237.944 72.4948 238.62C72.8242 239.279 73.3008 239.755 73.9248 240.05C74.5662 240.327 75.4935 240.466 76.7068 240.466C77.9375 240.466 79.3848 240.31 81.0488 239.998L81.1268 241.714ZM93.2414 232.926V239.582C93.2934 240.223 93.7961 240.605 94.7494 240.726L94.6714 242.26C93.3021 242.26 92.2707 241.913 91.5774 241.22C90.0174 241.913 88.4574 242.26 86.8974 242.26C85.7014 242.26 84.7914 241.922 84.1674 241.246C83.5434 240.57 83.2314 239.599 83.2314 238.334C83.2314 237.069 83.5521 236.141 84.1934 235.552C84.8347 234.945 85.8401 234.573 87.2094 234.434L91.2914 234.044V232.926C91.2914 232.042 91.1007 231.409 90.7194 231.028C90.3381 230.647 89.8181 230.456 89.1594 230.456C87.7727 230.456 86.3341 230.543 84.8434 230.716L84.0374 230.794L83.9594 229.312C85.8661 228.931 87.5561 228.74 89.0294 228.74C90.5027 228.74 91.5687 229.078 92.2274 229.754C92.9034 230.43 93.2414 231.487 93.2414 232.926ZM85.2334 238.23C85.2334 239.825 85.8921 240.622 87.2094 240.622C88.3881 240.622 89.5494 240.423 90.6934 240.024L91.2914 239.816V235.526L87.4434 235.89C86.6634 235.959 86.1001 236.185 85.7534 236.566C85.4067 236.947 85.2334 237.502 85.2334 238.23ZM101.171 230.482C99.2815 230.482 98.3368 231.141 98.3368 232.458C98.3368 233.065 98.5535 233.498 98.9868 233.758C99.4201 234.001 100.408 234.261 101.951 234.538C103.493 234.798 104.585 235.171 105.227 235.656C105.868 236.141 106.189 237.051 106.189 238.386C106.189 239.721 105.755 240.7 104.889 241.324C104.039 241.948 102.791 242.26 101.145 242.26C100.07 242.26 98.8048 242.139 97.3488 241.896L96.5688 241.766L96.6728 240.076C98.6488 240.371 100.139 240.518 101.145 240.518C102.15 240.518 102.913 240.362 103.433 240.05C103.97 239.721 104.239 239.183 104.239 238.438C104.239 237.675 104.013 237.164 103.563 236.904C103.112 236.627 102.124 236.367 100.599 236.124C99.0735 235.881 97.9901 235.526 97.3488 235.058C96.7075 234.59 96.3868 233.723 96.3868 232.458C96.3868 231.193 96.8288 230.257 97.7128 229.65C98.6141 229.043 99.7321 228.74 101.067 228.74C102.124 228.74 103.45 228.861 105.045 229.104L105.773 229.234L105.721 230.898C103.797 230.621 102.28 230.482 101.171 230.482ZM109.175 242V229H111.125V242H109.175ZM109.175 226.062V223.8H111.125V226.062H109.175ZM116.812 242H114.862V229H116.786V229.91C118.19 229.13 119.534 228.74 120.816 228.74C122.55 228.74 123.711 229.208 124.3 230.144C124.907 231.08 125.21 232.744 125.21 235.136V242H123.286V235.188C123.286 233.385 123.104 232.155 122.74 231.496C122.394 230.82 121.64 230.482 120.478 230.482C119.924 230.482 119.334 230.569 118.71 230.742C118.104 230.898 117.636 231.054 117.306 231.21L116.812 231.444V242ZM128.255 235.474C128.255 233.099 128.68 231.383 129.529 230.326C130.378 229.269 131.808 228.74 133.819 228.74C135.847 228.74 137.277 229.269 138.109 230.326C138.958 231.383 139.383 233.099 139.383 235.474C139.383 237.849 138.984 239.573 138.187 240.648C137.39 241.723 135.934 242.26 133.819 242.26C131.704 242.26 130.248 241.723 129.451 240.648C128.654 239.573 128.255 237.849 128.255 235.474ZM130.257 235.448C130.257 237.337 130.482 238.663 130.933 239.426C131.401 240.189 132.363 240.57 133.819 240.57C135.292 240.57 136.254 240.197 136.705 239.452C137.156 238.689 137.381 237.355 137.381 235.448C137.381 233.541 137.13 232.233 136.627 231.522C136.124 230.794 135.188 230.43 133.819 230.43C132.467 230.43 131.531 230.794 131.011 231.522C130.508 232.233 130.257 233.541 130.257 235.448ZM153.294 248.11C151.214 248.11 149.758 247.824 148.926 247.252C148.112 246.697 147.704 245.675 147.704 244.184C147.704 243.473 147.86 242.893 148.172 242.442C148.484 242.009 149.013 241.515 149.758 240.96C149.273 240.631 149.03 240.033 149.03 239.166C149.03 238.871 149.247 238.325 149.68 237.528L149.914 237.112C148.545 236.488 147.86 235.179 147.86 233.186C147.86 230.222 149.481 228.74 152.722 228.74C153.554 228.74 154.326 228.827 155.036 229L155.426 229.078L159.274 228.974V230.638L156.804 230.586C157.376 231.158 157.662 232.025 157.662 233.186C157.662 234.815 157.255 235.959 156.44 236.618C155.643 237.259 154.378 237.58 152.644 237.58C152.176 237.58 151.752 237.545 151.37 237.476C151.058 238.239 150.902 238.733 150.902 238.958C150.902 239.495 151.067 239.833 151.396 239.972C151.726 240.093 152.722 240.154 154.386 240.154C156.05 240.154 157.246 240.414 157.974 240.934C158.702 241.454 159.066 242.468 159.066 243.976C159.066 246.732 157.142 248.11 153.294 248.11ZM149.628 244.028C149.628 244.947 149.88 245.579 150.382 245.926C150.902 246.29 151.847 246.472 153.216 246.472C154.603 246.472 155.591 246.281 156.18 245.9C156.787 245.519 157.09 244.877 157.09 243.976C157.09 243.092 156.874 242.52 156.44 242.26C156.007 242 155.158 241.87 153.892 241.87L151.084 241.74C150.512 242.156 150.122 242.52 149.914 242.832C149.724 243.144 149.628 243.543 149.628 244.028ZM149.81 233.186C149.81 234.209 150.036 234.937 150.486 235.37C150.954 235.803 151.717 236.02 152.774 236.02C153.832 236.02 154.586 235.803 155.036 235.37C155.487 234.937 155.712 234.209 155.712 233.186C155.712 232.146 155.487 231.409 155.036 230.976C154.586 230.543 153.832 230.326 152.774 230.326C151.717 230.326 150.954 230.551 150.486 231.002C150.036 231.435 149.81 232.163 149.81 233.186ZM170.81 232.926V239.582C170.862 240.223 171.364 240.605 172.318 240.726L172.24 242.26C170.87 242.26 169.839 241.913 169.146 241.22C167.586 241.913 166.026 242.26 164.466 242.26C163.27 242.26 162.36 241.922 161.736 241.246C161.112 240.57 160.8 239.599 160.8 238.334C160.8 237.069 161.12 236.141 161.762 235.552C162.403 234.945 163.408 234.573 164.778 234.434L168.86 234.044V232.926C168.86 232.042 168.669 231.409 168.288 231.028C167.906 230.647 167.386 230.456 166.728 230.456C165.341 230.456 163.902 230.543 162.412 230.716L161.606 230.794L161.528 229.312C163.434 228.931 165.124 228.74 166.598 228.74C168.071 228.74 169.137 229.078 169.796 229.754C170.472 230.43 170.81 231.487 170.81 232.926ZM162.802 238.23C162.802 239.825 163.46 240.622 164.778 240.622C165.956 240.622 167.118 240.423 168.262 240.024L168.86 239.816V235.526L165.012 235.89C164.232 235.959 163.668 236.185 163.322 236.566C162.975 236.947 162.802 237.502 162.802 238.23ZM176.607 242H174.657V229H176.581V229.91C177.881 229.13 179.146 228.74 180.377 228.74C181.989 228.74 183.116 229.182 183.757 230.066C184.329 229.719 185.066 229.416 185.967 229.156C186.886 228.879 187.692 228.74 188.385 228.74C190.118 228.74 191.28 229.208 191.869 230.144C192.476 231.063 192.779 232.727 192.779 235.136V242H190.829V235.188C190.829 233.385 190.656 232.155 190.309 231.496C189.962 230.82 189.226 230.482 188.099 230.482C187.527 230.482 186.938 230.569 186.331 230.742C185.724 230.898 185.256 231.054 184.927 231.21L184.433 231.444C184.658 232.016 184.771 233.281 184.771 235.24V242H182.821V235.292C182.821 233.42 182.648 232.155 182.301 231.496C181.972 230.82 181.235 230.482 180.091 230.482C179.536 230.482 178.964 230.569 178.375 230.742C177.803 230.898 177.361 231.054 177.049 231.21L176.607 231.444V242ZM205.232 240.388L205.986 240.31L206.038 241.844C204.062 242.121 202.372 242.26 200.968 242.26C199.096 242.26 197.77 241.723 196.99 240.648C196.21 239.556 195.82 237.866 195.82 235.578C195.82 231.019 197.631 228.74 201.254 228.74C203.004 228.74 204.313 229.234 205.18 230.222C206.046 231.193 206.48 232.727 206.48 234.824L206.376 236.306H197.796C197.796 237.745 198.056 238.811 198.576 239.504C199.096 240.197 199.997 240.544 201.28 240.544C202.58 240.544 203.897 240.492 205.232 240.388ZM204.53 234.746C204.53 233.151 204.27 232.025 203.75 231.366C203.247 230.707 202.415 230.378 201.254 230.378C200.11 230.378 199.243 230.725 198.654 231.418C198.082 232.111 197.787 233.221 197.77 234.746H204.53ZM213.6 230.482C211.711 230.482 210.766 231.141 210.766 232.458C210.766 233.065 210.983 233.498 211.416 233.758C211.85 234.001 212.838 234.261 214.38 234.538C215.923 234.798 217.015 235.171 217.656 235.656C218.298 236.141 218.618 237.051 218.618 238.386C218.618 239.721 218.185 240.7 217.318 241.324C216.469 241.948 215.221 242.26 213.574 242.26C212.5 242.26 211.234 242.139 209.778 241.896L208.998 241.766L209.102 240.076C211.078 240.371 212.569 240.518 213.574 240.518C214.58 240.518 215.342 240.362 215.862 240.05C216.4 239.721 216.668 239.183 216.668 238.438C216.668 237.675 216.443 237.164 215.992 236.904C215.542 236.627 214.554 236.367 213.028 236.124C211.503 235.881 210.42 235.526 209.778 235.058C209.137 234.59 208.816 233.723 208.816 232.458C208.816 231.193 209.258 230.257 210.142 229.65C211.044 229.043 212.162 228.74 213.496 228.74C214.554 228.74 215.88 228.861 217.474 229.104L218.202 229.234L218.15 230.898C216.226 230.621 214.71 230.482 213.6 230.482ZM226.069 242L231.009 224.008H235.377L240.317 242H238.341L237.041 237.372H229.345L228.045 242H226.069ZM232.517 225.724L229.787 235.578H236.599L233.869 225.724H232.517ZM242.806 242V229H244.73V230.768C246.238 229.728 247.824 229.043 249.488 228.714V230.69C248.76 230.829 247.997 231.045 247.2 231.34C246.42 231.635 245.822 231.895 245.406 232.12L244.756 232.458V242H242.806ZM256.402 228.74C256.974 228.74 257.945 228.844 259.314 229.052L259.938 229.13L259.86 230.716C258.473 230.56 257.451 230.482 256.792 230.482C255.319 230.482 254.313 230.837 253.776 231.548C253.256 232.241 252.996 233.541 252.996 235.448C252.996 237.337 253.239 238.655 253.724 239.4C254.227 240.145 255.258 240.518 256.818 240.518L259.886 240.284L259.964 241.896C258.352 242.139 257.147 242.26 256.35 242.26C254.322 242.26 252.918 241.74 252.138 240.7C251.375 239.66 250.994 237.909 250.994 235.448C250.994 232.969 251.41 231.236 252.242 230.248C253.074 229.243 254.461 228.74 256.402 228.74ZM272.042 232.926V239.582C272.094 240.223 272.597 240.605 273.55 240.726L273.472 242.26C272.103 242.26 271.072 241.913 270.378 241.22C268.818 241.913 267.258 242.26 265.698 242.26C264.502 242.26 263.592 241.922 262.968 241.246C262.344 240.57 262.032 239.599 262.032 238.334C262.032 237.069 262.353 236.141 262.994 235.552C263.636 234.945 264.641 234.573 266.01 234.434L270.092 234.044V232.926C270.092 232.042 269.902 231.409 269.52 231.028C269.139 230.647 268.619 230.456 267.96 230.456C266.574 230.456 265.135 230.543 263.644 230.716L262.838 230.794L262.76 229.312C264.667 228.931 266.357 228.74 267.83 228.74C269.304 228.74 270.37 229.078 271.028 229.754C271.704 230.43 272.042 231.487 272.042 232.926ZM264.034 238.23C264.034 239.825 264.693 240.622 266.01 240.622C267.189 240.622 268.35 240.423 269.494 240.024L270.092 239.816V235.526L266.244 235.89C265.464 235.959 264.901 236.185 264.554 236.566C264.208 236.947 264.034 237.502 264.034 238.23ZM285.874 223.332V242H283.95V241.116C282.615 241.879 281.298 242.26 279.998 242.26C279.304 242.26 278.698 242.173 278.178 242C277.658 241.827 277.172 241.515 276.722 241.064C275.786 240.128 275.318 238.403 275.318 235.89C275.318 233.359 275.734 231.539 276.566 230.43C277.415 229.303 278.81 228.74 280.752 228.74C281.757 228.74 282.823 228.853 283.95 229.078V223.332H285.874ZM278.23 239.66C278.507 239.989 278.802 240.215 279.114 240.336C279.426 240.457 279.824 240.518 280.31 240.518C280.812 240.518 281.367 240.44 281.974 240.284C282.598 240.111 283.083 239.946 283.43 239.79L283.95 239.556V230.742C282.84 230.534 281.809 230.43 280.856 230.43C279.538 230.43 278.62 230.855 278.1 231.704C277.58 232.536 277.32 233.836 277.32 235.604C277.32 237.615 277.623 238.967 278.23 239.66ZM298.491 240.388L299.245 240.31L299.297 241.844C297.321 242.121 295.631 242.26 294.227 242.26C292.355 242.26 291.029 241.723 290.249 240.648C289.469 239.556 289.079 237.866 289.079 235.578C289.079 231.019 290.891 228.74 294.513 228.74C296.264 228.74 297.573 229.234 298.439 230.222C299.306 231.193 299.739 232.727 299.739 234.824L299.635 236.306H291.055C291.055 237.745 291.315 238.811 291.835 239.504C292.355 240.197 293.257 240.544 294.539 240.544C295.839 240.544 297.157 240.492 298.491 240.388ZM297.789 234.746C297.789 233.151 297.529 232.025 297.009 231.366C296.507 230.707 295.675 230.378 294.513 230.378C293.369 230.378 292.503 230.725 291.913 231.418C291.341 232.111 291.047 233.221 291.029 234.746H297.789ZM315.407 235.942H310.831V242H308.829V224.008H315.407C317.366 224.008 318.813 224.485 319.749 225.438C320.685 226.391 321.153 227.847 321.153 229.806C321.153 233.897 319.238 235.942 315.407 235.942ZM310.831 234.174H315.381C317.86 234.174 319.099 232.718 319.099 229.806C319.099 228.419 318.804 227.405 318.215 226.764C317.626 226.105 316.681 225.776 315.381 225.776H310.831V234.174ZM334.797 242H323.825V240.31L328.843 235.032C329.71 234.131 330.343 233.446 330.741 232.978C331.14 232.51 331.495 231.955 331.807 231.314C332.137 230.673 332.301 230.031 332.301 229.39C332.301 228.281 331.998 227.501 331.391 227.05C330.785 226.599 329.84 226.374 328.557 226.374C327.431 226.374 326.174 226.521 324.787 226.816L324.111 226.946L323.955 225.282C325.602 224.814 327.301 224.58 329.051 224.58C330.802 224.58 332.119 224.953 333.003 225.698C333.905 226.426 334.355 227.587 334.355 229.182C334.355 230.395 334.087 231.453 333.549 232.354C333.012 233.255 332.085 234.339 330.767 235.604L326.191 240.258H334.797V242ZM338.79 242V224.008H349.736V225.776H340.792V231.99H348.176V233.732H340.792V240.232H349.736V242H338.79Z" fill="white"/>
<path d="M78.4924 302H72.0704V284.008H78.4924C81.4217 284.008 83.363 285.169 84.3164 287.492C84.871 288.827 85.1484 290.577 85.1484 292.744C85.1484 297.268 84.0217 300.119 81.7684 301.298C80.867 301.766 79.775 302 78.4924 302ZM83.0944 292.744C83.0944 289.295 82.323 287.145 80.7804 286.296C80.1564 285.949 79.3937 285.776 78.4924 285.776H74.0724V300.232H78.4924C81.5604 300.232 83.0944 297.736 83.0944 292.744ZM97.3302 300.388L98.0842 300.31L98.1362 301.844C96.1602 302.121 94.4702 302.26 93.0662 302.26C91.1942 302.26 89.8682 301.723 89.0882 300.648C88.3082 299.556 87.9182 297.866 87.9182 295.578C87.9182 291.019 89.7295 288.74 93.3522 288.74C95.1028 288.74 96.4115 289.234 97.2782 290.222C98.1448 291.193 98.5782 292.727 98.5782 294.824L98.4742 296.306H89.8942C89.8942 297.745 90.1542 298.811 90.6742 299.504C91.1942 300.197 92.0955 300.544 93.3782 300.544C94.6782 300.544 95.9955 300.492 97.3302 300.388ZM96.6282 294.746C96.6282 293.151 96.3682 292.025 95.8482 291.366C95.3455 290.707 94.5135 290.378 93.3522 290.378C92.2082 290.378 91.3415 290.725 90.7522 291.418C90.1802 292.111 89.8855 293.221 89.8682 294.746H96.6282ZM100.192 289H102.272L105.314 300.31H106.276L109.422 289H111.424L107.758 302H103.858L100.192 289ZM122.543 300.388L123.297 300.31L123.349 301.844C121.373 302.121 119.683 302.26 118.279 302.26C116.407 302.26 115.081 301.723 114.301 300.648C113.521 299.556 113.131 297.866 113.131 295.578C113.131 291.019 114.942 288.74 118.565 288.74C120.316 288.74 121.624 289.234 122.491 290.222C123.358 291.193 123.791 292.727 123.791 294.824L123.687 296.306H115.107C115.107 297.745 115.367 298.811 115.887 299.504C116.407 300.197 117.308 300.544 118.591 300.544C119.891 300.544 121.208 300.492 122.543 300.388ZM121.841 294.746C121.841 293.151 121.581 292.025 121.061 291.366C120.558 290.707 119.726 290.378 118.565 290.378C117.421 290.378 116.554 290.725 115.965 291.418C115.393 292.111 115.098 293.221 115.081 294.746H121.841ZM126.986 302V283.332H128.936V302H126.986ZM132.276 295.474C132.276 293.099 132.7 291.383 133.55 290.326C134.399 289.269 135.829 288.74 137.84 288.74C139.868 288.74 141.298 289.269 142.13 290.326C142.979 291.383 143.404 293.099 143.404 295.474C143.404 297.849 143.005 299.573 142.208 300.648C141.41 301.723 139.954 302.26 137.84 302.26C135.725 302.26 134.269 301.723 133.472 300.648C132.674 299.573 132.276 297.849 132.276 295.474ZM134.278 295.448C134.278 297.337 134.503 298.663 134.954 299.426C135.422 300.189 136.384 300.57 137.84 300.57C139.313 300.57 140.275 300.197 140.726 299.452C141.176 298.689 141.402 297.355 141.402 295.448C141.402 293.541 141.15 292.233 140.648 291.522C140.145 290.794 139.209 290.43 137.84 290.43C136.488 290.43 135.552 290.794 135.032 291.522C134.529 292.233 134.278 293.541 134.278 295.448ZM146.584 307.772V289H148.508V289.936C149.825 289.139 151.125 288.74 152.408 288.74C154.055 288.74 155.251 289.269 155.996 290.326C156.741 291.366 157.114 293.091 157.114 295.5C157.114 297.909 156.672 299.643 155.788 300.7C154.921 301.74 153.474 302.26 151.446 302.26C150.389 302.26 149.418 302.165 148.534 301.974V307.772H146.584ZM152.122 290.482C151.602 290.482 151.039 290.569 150.432 290.742C149.843 290.915 149.375 291.089 149.028 291.262L148.534 291.522V300.284C149.765 300.475 150.701 300.57 151.342 300.57C152.746 300.57 153.725 300.171 154.28 299.374C154.852 298.577 155.138 297.277 155.138 295.474C155.138 293.671 154.878 292.389 154.358 291.626C153.855 290.863 153.11 290.482 152.122 290.482ZM162.245 302H160.295V289H162.219V289.91C163.519 289.13 164.784 288.74 166.015 288.74C167.627 288.74 168.754 289.182 169.395 290.066C169.967 289.719 170.704 289.416 171.605 289.156C172.524 288.879 173.33 288.74 174.023 288.74C175.756 288.74 176.918 289.208 177.507 290.144C178.114 291.063 178.417 292.727 178.417 295.136V302H176.467V295.188C176.467 293.385 176.294 292.155 175.947 291.496C175.6 290.82 174.864 290.482 173.737 290.482C173.165 290.482 172.576 290.569 171.969 290.742C171.362 290.898 170.894 291.054 170.565 291.21L170.071 291.444C170.296 292.016 170.409 293.281 170.409 295.24V302H168.459V295.292C168.459 293.42 168.286 292.155 167.939 291.496C167.61 290.82 166.873 290.482 165.729 290.482C165.174 290.482 164.602 290.569 164.013 290.742C163.441 290.898 162.999 291.054 162.687 291.21L162.245 291.444V302ZM190.869 300.388L191.623 300.31L191.675 301.844C189.699 302.121 188.009 302.26 186.605 302.26C184.733 302.26 183.407 301.723 182.627 300.648C181.847 299.556 181.457 297.866 181.457 295.578C181.457 291.019 183.269 288.74 186.891 288.74C188.642 288.74 189.951 289.234 190.817 290.222C191.684 291.193 192.117 292.727 192.117 294.824L192.013 296.306H183.433C183.433 297.745 183.693 298.811 184.213 299.504C184.733 300.197 185.635 300.544 186.917 300.544C188.217 300.544 189.535 300.492 190.869 300.388ZM190.167 294.746C190.167 293.151 189.907 292.025 189.387 291.366C188.885 290.707 188.053 290.378 186.891 290.378C185.747 290.378 184.881 290.725 184.291 291.418C183.719 292.111 183.425 293.221 183.407 294.746H190.167ZM197.106 302H195.156V289H197.08V289.91C198.484 289.13 199.828 288.74 201.11 288.74C202.844 288.74 204.005 289.208 204.594 290.144C205.201 291.08 205.504 292.744 205.504 295.136V302H203.58V295.188C203.58 293.385 203.398 292.155 203.034 291.496C202.688 290.82 201.934 290.482 200.772 290.482C200.218 290.482 199.628 290.569 199.004 290.742C198.398 290.898 197.93 291.054 197.6 291.21L197.106 291.444V302ZM215.779 290.69H211.645V296.904C211.645 298.395 211.749 299.374 211.957 299.842C212.182 300.31 212.702 300.544 213.517 300.544L215.831 300.388L215.961 302C214.8 302.191 213.916 302.286 213.309 302.286C211.957 302.286 211.021 301.957 210.501 301.298C209.981 300.639 209.721 299.383 209.721 297.528V290.69H207.875V289H209.721V285.022H211.645V289H215.779V290.69ZM223.301 295.474C223.301 293.099 223.726 291.383 224.575 290.326C225.424 289.269 226.854 288.74 228.865 288.74C230.893 288.74 232.323 289.269 233.155 290.326C234.004 291.383 234.429 293.099 234.429 295.474C234.429 297.849 234.03 299.573 233.233 300.648C232.436 301.723 230.98 302.26 228.865 302.26C226.75 302.26 225.294 301.723 224.497 300.648C223.7 299.573 223.301 297.849 223.301 295.474ZM225.303 295.448C225.303 297.337 225.528 298.663 225.979 299.426C226.447 300.189 227.409 300.57 228.865 300.57C230.338 300.57 231.3 300.197 231.751 299.452C232.202 298.689 232.427 297.355 232.427 295.448C232.427 293.541 232.176 292.233 231.673 291.522C231.17 290.794 230.234 290.43 228.865 290.43C227.513 290.43 226.577 290.794 226.057 291.522C225.554 292.233 225.303 293.541 225.303 295.448ZM240.105 290.69V302H238.155V290.69H236.517V289H238.155V287.83C238.155 285.993 238.415 284.745 238.935 284.086C239.455 283.41 240.365 283.072 241.665 283.072L244.291 283.254L244.265 284.866C243.295 284.831 242.489 284.814 241.847 284.814C241.223 284.814 240.773 285.022 240.495 285.438C240.235 285.854 240.105 286.66 240.105 287.856V289H243.875V290.69H240.105ZM252.268 302V284.008H255.882L260.978 299.218L266.074 284.008H269.688V302H267.686V286.14H267.322L262.096 301.35H259.86L254.634 286.14H254.27V302H252.268ZM282.479 300.388L283.233 300.31L283.285 301.844C281.309 302.121 279.619 302.26 278.215 302.26C276.343 302.26 275.017 301.723 274.237 300.648C273.457 299.556 273.067 297.866 273.067 295.578C273.067 291.019 274.878 288.74 278.501 288.74C280.251 288.74 281.56 289.234 282.427 290.222C283.293 291.193 283.727 292.727 283.727 294.824L283.623 296.306H275.043C275.043 297.745 275.303 298.811 275.823 299.504C276.343 300.197 277.244 300.544 278.527 300.544C279.827 300.544 281.144 300.492 282.479 300.388ZM281.777 294.746C281.777 293.151 281.517 292.025 280.997 291.366C280.494 290.707 279.662 290.378 278.501 290.378C277.357 290.378 276.49 290.725 275.901 291.418C275.329 292.111 275.034 293.221 275.017 294.746H281.777ZM293.423 290.69H289.289V296.904C289.289 298.395 289.393 299.374 289.601 299.842C289.827 300.31 290.347 300.544 291.161 300.544L293.475 300.388L293.605 302C292.444 302.191 291.56 302.286 290.953 302.286C289.601 302.286 288.665 301.957 288.145 301.298C287.625 300.639 287.365 299.383 287.365 297.528V290.69H285.519V289H287.365V285.022H289.289V289H293.423V290.69ZM304.983 292.926V299.582C305.035 300.223 305.537 300.605 306.491 300.726L306.413 302.26C305.043 302.26 304.012 301.913 303.319 301.22C301.759 301.913 300.199 302.26 298.639 302.26C297.443 302.26 296.533 301.922 295.909 301.246C295.285 300.57 294.973 299.599 294.973 298.334C294.973 297.069 295.293 296.141 295.935 295.552C296.576 294.945 297.581 294.573 298.951 294.434L303.033 294.044V292.926C303.033 292.042 302.842 291.409 302.461 291.028C302.079 290.647 301.559 290.456 300.901 290.456C299.514 290.456 298.075 290.543 296.585 290.716L295.779 290.794L295.701 289.312C297.607 288.931 299.297 288.74 300.771 288.74C302.244 288.74 303.31 289.078 303.969 289.754C304.645 290.43 304.983 291.487 304.983 292.926ZM296.975 298.23C296.975 299.825 297.633 300.622 298.951 300.622C300.129 300.622 301.291 300.423 302.435 300.024L303.033 299.816V295.526L299.185 295.89C298.405 295.959 297.841 296.185 297.495 296.566C297.148 296.947 296.975 297.502 296.975 298.23ZM307.764 289H309.714L312.34 300.31H312.756L315.85 289.26H317.878L320.972 300.31H321.414L324.014 289H325.964L322.87 302H319.62L316.864 291.834L314.108 302H310.858L307.764 289ZM327.936 295.474C327.936 293.099 328.36 291.383 329.21 290.326C330.059 289.269 331.489 288.74 333.5 288.74C335.528 288.74 336.958 289.269 337.79 290.326C338.639 291.383 339.064 293.099 339.064 295.474C339.064 297.849 338.665 299.573 337.868 300.648C337.07 301.723 335.614 302.26 333.5 302.26C331.385 302.26 329.929 301.723 329.132 300.648C328.334 299.573 327.936 297.849 327.936 295.474ZM329.938 295.448C329.938 297.337 330.163 298.663 330.614 299.426C331.082 300.189 332.044 300.57 333.5 300.57C334.973 300.57 335.935 300.197 336.386 299.452C336.836 298.689 337.062 297.355 337.062 295.448C337.062 293.541 336.81 292.233 336.308 291.522C335.805 290.794 334.869 290.43 333.5 290.43C332.148 290.43 331.212 290.794 330.692 291.522C330.189 292.233 329.938 293.541 329.938 295.448ZM342.244 302V289H344.168V290.768C345.676 289.728 347.262 289.043 348.926 288.714V290.69C348.198 290.829 347.435 291.045 346.638 291.34C345.858 291.635 345.26 291.895 344.844 292.12L344.194 292.458V302H342.244ZM351.388 302V283.332H353.338V302H351.388ZM367.234 283.332V302H365.31V301.116C363.975 301.879 362.658 302.26 361.358 302.26C360.665 302.26 360.058 302.173 359.538 302C359.018 301.827 358.533 301.515 358.082 301.064C357.146 300.128 356.678 298.403 356.678 295.89C356.678 293.359 357.094 291.539 357.926 290.43C358.775 289.303 360.171 288.74 362.112 288.74C363.117 288.74 364.183 288.853 365.31 289.078V283.332H367.234ZM359.59 299.66C359.867 299.989 360.162 300.215 360.474 300.336C360.786 300.457 361.185 300.518 361.67 300.518C362.173 300.518 362.727 300.44 363.334 300.284C363.958 300.111 364.443 299.946 364.79 299.79L365.31 299.556V290.742C364.201 290.534 363.169 290.43 362.216 290.43C360.899 290.43 359.98 290.855 359.46 291.704C358.94 292.536 358.68 293.836 358.68 295.604C358.68 297.615 358.983 298.967 359.59 299.66Z" fill="white"/>
<path d="M72.7344 344.008H79.2604C81.0457 344.008 82.3804 344.381 83.2644 345.126C84.1657 345.854 84.6164 347.007 84.6164 348.584C84.6164 349.711 84.4171 350.595 84.0184 351.236C83.6371 351.86 83.0651 352.354 82.3024 352.718C84.2091 353.377 85.1624 354.789 85.1624 356.956C85.1624 358.759 84.6857 360.05 83.7324 360.83C82.7791 361.61 81.4011 362 79.5984 362H72.7344V344.008ZM79.3904 353.732H74.7364V360.232H79.5204C80.6991 360.232 81.5917 359.989 82.1984 359.504C82.8224 359.001 83.1344 358.126 83.1344 356.878C83.1344 356.219 83.0044 355.665 82.7444 355.214C82.5017 354.763 82.1724 354.443 81.7564 354.252C80.9937 353.905 80.2051 353.732 79.3904 353.732ZM79.1824 345.776H74.7364V351.99H79.3644C80.4737 351.99 81.2797 351.73 81.7824 351.21C82.3024 350.673 82.5624 349.875 82.5624 348.818C82.5624 347.743 82.2851 346.972 81.7304 346.504C81.1931 346.019 80.3437 345.776 79.1824 345.776ZM97.2579 360.388L98.0119 360.31L98.0639 361.844C96.0879 362.121 94.3979 362.26 92.9939 362.26C91.1219 362.26 89.7959 361.723 89.0159 360.648C88.2359 359.556 87.8459 357.866 87.8459 355.578C87.8459 351.019 89.6572 348.74 93.2799 348.74C95.0306 348.74 96.3392 349.234 97.2059 350.222C98.0726 351.193 98.5059 352.727 98.5059 354.824L98.4019 356.306H89.8219C89.8219 357.745 90.0819 358.811 90.6019 359.504C91.1219 360.197 92.0232 360.544 93.3059 360.544C94.6059 360.544 95.9232 360.492 97.2579 360.388ZM96.5559 354.746C96.5559 353.151 96.2959 352.025 95.7759 351.366C95.2732 350.707 94.4412 350.378 93.2799 350.378C92.1359 350.378 91.2692 350.725 90.6799 351.418C90.1079 352.111 89.8132 353.221 89.7959 354.746H96.5559ZM108.203 350.69H104.069V356.904C104.069 358.395 104.173 359.374 104.381 359.842C104.606 360.31 105.126 360.544 105.941 360.544L108.255 360.388L108.385 362C107.223 362.191 106.339 362.286 105.733 362.286C104.381 362.286 103.445 361.957 102.925 361.298C102.405 360.639 102.145 359.383 102.145 357.528V350.69H100.299V349H102.145V345.022H104.069V349H108.203V350.69ZM119.762 352.926V359.582C119.814 360.223 120.317 360.605 121.27 360.726L121.192 362.26C119.823 362.26 118.791 361.913 118.098 361.22C116.538 361.913 114.978 362.26 113.418 362.26C112.222 362.26 111.312 361.922 110.688 361.246C110.064 360.57 109.752 359.599 109.752 358.334C109.752 357.069 110.073 356.141 110.714 355.552C111.355 354.945 112.361 354.573 113.73 354.434L117.812 354.044V352.926C117.812 352.042 117.621 351.409 117.24 351.028C116.859 350.647 116.339 350.456 115.68 350.456C114.293 350.456 112.855 350.543 111.364 350.716L110.558 350.794L110.48 349.312C112.387 348.931 114.077 348.74 115.55 348.74C117.023 348.74 118.089 349.078 118.748 349.754C119.424 350.43 119.762 351.487 119.762 352.926ZM111.754 358.23C111.754 359.825 112.413 360.622 113.73 360.622C114.909 360.622 116.07 360.423 117.214 360.024L117.812 359.816V355.526L113.964 355.89C113.184 355.959 112.621 356.185 112.274 356.566C111.927 356.947 111.754 357.502 111.754 358.23ZM134.626 345.49C132.026 345.49 130.726 346.469 130.726 348.428C130.726 349.52 131.021 350.274 131.61 350.69C132.217 351.089 133.43 351.496 135.25 351.912C137.088 352.311 138.388 352.839 139.15 353.498C139.913 354.139 140.294 355.205 140.294 356.696C140.294 360.388 138.379 362.234 134.548 362.234C133.283 362.234 131.697 362.087 129.79 361.792L128.854 361.662L129.062 359.998C131.42 360.31 133.214 360.466 134.444 360.466C137.01 360.466 138.292 359.261 138.292 356.852C138.292 355.881 138.006 355.188 137.434 354.772C136.88 354.339 135.831 353.975 134.288 353.68C132.26 353.247 130.822 352.692 129.972 352.016C129.123 351.323 128.698 350.17 128.698 348.558C128.698 345.334 130.631 343.722 134.496 343.722C135.762 343.722 137.278 343.852 139.046 344.112L139.93 344.242L139.748 345.932C137.339 345.637 135.632 345.49 134.626 345.49ZM145.364 362H143.414V343.332H145.364V349.728C146.751 349.069 148.085 348.74 149.368 348.74C151.101 348.74 152.263 349.208 152.852 350.144C153.459 351.08 153.762 352.744 153.762 355.136V362H151.812V355.188C151.812 353.385 151.63 352.155 151.266 351.496C150.919 350.82 150.174 350.482 149.03 350.482C147.938 350.482 146.881 350.681 145.858 351.08L145.364 351.262V362ZM156.807 355.474C156.807 353.099 157.232 351.383 158.081 350.326C158.93 349.269 160.36 348.74 162.371 348.74C164.399 348.74 165.829 349.269 166.661 350.326C167.51 351.383 167.935 353.099 167.935 355.474C167.935 357.849 167.536 359.573 166.739 360.648C165.942 361.723 164.486 362.26 162.371 362.26C160.256 362.26 158.8 361.723 158.003 360.648C157.206 359.573 156.807 357.849 156.807 355.474ZM158.809 355.448C158.809 357.337 159.034 358.663 159.485 359.426C159.953 360.189 160.915 360.57 162.371 360.57C163.844 360.57 164.806 360.197 165.257 359.452C165.708 358.689 165.933 357.355 165.933 355.448C165.933 353.541 165.682 352.233 165.179 351.522C164.676 350.794 163.74 350.43 162.371 350.43C161.019 350.43 160.083 350.794 159.563 351.522C159.06 352.233 158.809 353.541 158.809 355.448ZM169.922 349H171.872L174.498 360.31H174.914L178.008 349.26H180.036L183.13 360.31H183.572L186.172 349H188.122L185.028 362H181.778L179.022 351.834L176.266 362H173.016L169.922 349ZM195.528 348.74C196.1 348.74 197.071 348.844 198.44 349.052L199.064 349.13L198.986 350.716C197.599 350.56 196.577 350.482 195.918 350.482C194.445 350.482 193.439 350.837 192.902 351.548C192.382 352.241 192.122 353.541 192.122 355.448C192.122 357.337 192.365 358.655 192.85 359.4C193.353 360.145 194.384 360.518 195.944 360.518L199.012 360.284L199.09 361.896C197.478 362.139 196.273 362.26 195.476 362.26C193.448 362.26 192.044 361.74 191.264 360.7C190.501 359.66 190.12 357.909 190.12 355.448C190.12 352.969 190.536 351.236 191.368 350.248C192.2 349.243 193.587 348.74 195.528 348.74ZM211.168 352.926V359.582C211.22 360.223 211.723 360.605 212.676 360.726L212.598 362.26C211.229 362.26 210.197 361.913 209.504 361.22C207.944 361.913 206.384 362.26 204.824 362.26C203.628 362.26 202.718 361.922 202.094 361.246C201.47 360.57 201.158 359.599 201.158 358.334C201.158 357.069 201.479 356.141 202.12 355.552C202.761 354.945 203.767 354.573 205.136 354.434L209.218 354.044V352.926C209.218 352.042 209.027 351.409 208.646 351.028C208.265 350.647 207.745 350.456 207.086 350.456C205.699 350.456 204.261 350.543 202.77 350.716L201.964 350.794L201.886 349.312C203.793 348.931 205.483 348.74 206.956 348.74C208.429 348.74 209.495 349.078 210.154 349.754C210.83 350.43 211.168 351.487 211.168 352.926ZM203.16 358.23C203.16 359.825 203.819 360.622 205.136 360.622C206.315 360.622 207.476 360.423 208.62 360.024L209.218 359.816V355.526L205.37 355.89C204.59 355.959 204.027 356.185 203.68 356.566C203.333 356.947 203.16 357.502 203.16 358.23ZM219.098 350.482C217.208 350.482 216.264 351.141 216.264 352.458C216.264 353.065 216.48 353.498 216.914 353.758C217.347 354.001 218.335 354.261 219.878 354.538C221.42 354.798 222.512 355.171 223.154 355.656C223.795 356.141 224.116 357.051 224.116 358.386C224.116 359.721 223.682 360.7 222.816 361.324C221.966 361.948 220.718 362.26 219.072 362.26C217.997 362.26 216.732 362.139 215.276 361.896L214.496 361.766L214.6 360.076C216.576 360.371 218.066 360.518 219.072 360.518C220.077 360.518 220.84 360.362 221.36 360.05C221.897 359.721 222.166 359.183 222.166 358.438C222.166 357.675 221.94 357.164 221.49 356.904C221.039 356.627 220.051 356.367 218.526 356.124C217 355.881 215.917 355.526 215.276 355.058C214.634 354.59 214.314 353.723 214.314 352.458C214.314 351.193 214.756 350.257 215.64 349.65C216.541 349.043 217.659 348.74 218.994 348.74C220.051 348.74 221.377 348.861 222.972 349.104L223.7 349.234L223.648 350.898C221.724 350.621 220.207 350.482 219.098 350.482ZM235.941 360.388L236.695 360.31L236.747 361.844C234.771 362.121 233.081 362.26 231.677 362.26C229.805 362.26 228.479 361.723 227.699 360.648C226.919 359.556 226.529 357.866 226.529 355.578C226.529 351.019 228.341 348.74 231.963 348.74C233.714 348.74 235.023 349.234 235.889 350.222C236.756 351.193 237.189 352.727 237.189 354.824L237.085 356.306H228.505C228.505 357.745 228.765 358.811 229.285 359.504C229.805 360.197 230.707 360.544 231.989 360.544C233.289 360.544 234.607 360.492 235.941 360.388ZM235.239 354.746C235.239 353.151 234.979 352.025 234.459 351.366C233.957 350.707 233.125 350.378 231.963 350.378C230.819 350.378 229.953 350.725 229.363 351.418C228.791 352.111 228.497 353.221 228.479 354.746H235.239Z" fill="white"/>
<path d="M72.4678 423V405.008H76.0818L81.1778 420.218L86.2738 405.008H89.8878V423H87.8858V407.14H87.5218L82.2958 422.35H80.0598L74.8338 407.14H74.4698V423H72.4678ZM102.679 421.388L103.433 421.31L103.485 422.844C101.509 423.121 99.8188 423.26 98.4148 423.26C96.5428 423.26 95.2168 422.723 94.4368 421.648C93.6568 420.556 93.2668 418.866 93.2668 416.578C93.2668 412.019 95.0781 409.74 98.7008 409.74C100.451 409.74 101.76 410.234 102.627 411.222C103.493 412.193 103.927 413.727 103.927 415.824L103.823 417.306H95.2428C95.2428 418.745 95.5028 419.811 96.0228 420.504C96.5428 421.197 97.4441 421.544 98.7268 421.544C100.027 421.544 101.344 421.492 102.679 421.388ZM101.977 415.746C101.977 414.151 101.717 413.025 101.197 412.366C100.694 411.707 99.8621 411.378 98.7008 411.378C97.5568 411.378 96.6901 411.725 96.1008 412.418C95.5288 413.111 95.2341 414.221 95.2168 415.746H101.977ZM113.624 411.69H109.49V417.904C109.49 419.395 109.594 420.374 109.802 420.842C110.027 421.31 110.547 421.544 111.362 421.544L113.676 421.388L113.806 423C112.644 423.191 111.76 423.286 111.154 423.286C109.802 423.286 108.866 422.957 108.346 422.298C107.826 421.639 107.566 420.383 107.566 418.528V411.69H105.72V410H107.566V406.022H109.49V410H113.624V411.69ZM125.183 413.926V420.582C125.235 421.223 125.737 421.605 126.691 421.726L126.613 423.26C125.243 423.26 124.212 422.913 123.519 422.22C121.959 422.913 120.399 423.26 118.839 423.26C117.643 423.26 116.733 422.922 116.109 422.246C115.485 421.57 115.173 420.599 115.173 419.334C115.173 418.069 115.493 417.141 116.135 416.552C116.776 415.945 117.781 415.573 119.151 415.434L123.233 415.044V413.926C123.233 413.042 123.042 412.409 122.661 412.028C122.279 411.647 121.759 411.456 121.101 411.456C119.714 411.456 118.275 411.543 116.785 411.716L115.979 411.794L115.901 410.312C117.807 409.931 119.497 409.74 120.971 409.74C122.444 409.74 123.51 410.078 124.169 410.754C124.845 411.43 125.183 412.487 125.183 413.926ZM117.175 419.23C117.175 420.825 117.833 421.622 119.151 421.622C120.329 421.622 121.491 421.423 122.635 421.024L123.233 420.816V416.526L119.385 416.89C118.605 416.959 118.041 417.185 117.695 417.566C117.348 417.947 117.175 418.502 117.175 419.23ZM133.112 411.482C131.223 411.482 130.278 412.141 130.278 413.458C130.278 414.065 130.495 414.498 130.928 414.758C131.362 415.001 132.35 415.261 133.892 415.538C135.435 415.798 136.527 416.171 137.168 416.656C137.81 417.141 138.13 418.051 138.13 419.386C138.13 420.721 137.697 421.7 136.83 422.324C135.981 422.948 134.733 423.26 133.086 423.26C132.012 423.26 130.746 423.139 129.29 422.896L128.51 422.766L128.614 421.076C130.59 421.371 132.081 421.518 133.086 421.518C134.092 421.518 134.854 421.362 135.374 421.05C135.912 420.721 136.18 420.183 136.18 419.438C136.18 418.675 135.955 418.164 135.504 417.904C135.054 417.627 134.066 417.367 132.54 417.124C131.015 416.881 129.932 416.526 129.29 416.058C128.649 415.59 128.328 414.723 128.328 413.458C128.328 412.193 128.77 411.257 129.654 410.65C130.556 410.043 131.674 409.74 133.008 409.74C134.066 409.74 135.392 409.861 136.986 410.104L137.714 410.234L137.662 411.898C135.738 411.621 134.222 411.482 133.112 411.482ZM141.116 423V410H143.066V423H141.116ZM141.116 407.062V404.8H143.066V407.062H141.116ZM148.754 423H146.804V410H148.728V410.91C150.132 410.13 151.475 409.74 152.758 409.74C154.491 409.74 155.652 410.208 156.242 411.144C156.848 412.08 157.152 413.744 157.152 416.136V423H155.228V416.188C155.228 414.385 155.046 413.155 154.682 412.496C154.335 411.82 153.581 411.482 152.42 411.482C151.865 411.482 151.276 411.569 150.652 411.742C150.045 411.898 149.577 412.054 149.248 412.21L148.754 412.444V423ZM160.196 416.474C160.196 414.099 160.621 412.383 161.47 411.326C162.32 410.269 163.75 409.74 165.76 409.74C167.788 409.74 169.218 410.269 170.05 411.326C170.9 412.383 171.324 414.099 171.324 416.474C171.324 418.849 170.926 420.573 170.128 421.648C169.331 422.723 167.875 423.26 165.76 423.26C163.646 423.26 162.19 422.723 161.392 421.648C160.595 420.573 160.196 418.849 160.196 416.474ZM162.198 416.448C162.198 418.337 162.424 419.663 162.874 420.426C163.342 421.189 164.304 421.57 165.76 421.57C167.234 421.57 168.196 421.197 168.646 420.452C169.097 419.689 169.322 418.355 169.322 416.448C169.322 414.541 169.071 413.233 168.568 412.522C168.066 411.794 167.13 411.43 165.76 411.43C164.408 411.43 163.472 411.794 162.952 412.522C162.45 413.233 162.198 414.541 162.198 416.448ZM174.072 410.78L173.994 405.008H175.944L175.814 410.78H174.072ZM183.487 411.482C181.598 411.482 180.653 412.141 180.653 413.458C180.653 414.065 180.87 414.498 181.303 414.758C181.737 415.001 182.725 415.261 184.267 415.538C185.81 415.798 186.902 416.171 187.543 416.656C188.185 417.141 188.505 418.051 188.505 419.386C188.505 420.721 188.072 421.7 187.205 422.324C186.356 422.948 185.108 423.26 183.461 423.26C182.387 423.26 181.121 423.139 179.665 422.896L178.885 422.766L178.989 421.076C180.965 421.371 182.456 421.518 183.461 421.518C184.467 421.518 185.229 421.362 185.749 421.05C186.287 420.721 186.555 420.183 186.555 419.438C186.555 418.675 186.33 418.164 185.879 417.904C185.429 417.627 184.441 417.367 182.915 417.124C181.39 416.881 180.307 416.526 179.665 416.058C179.024 415.59 178.703 414.723 178.703 413.458C178.703 412.193 179.145 411.257 180.029 410.65C180.931 410.043 182.049 409.74 183.383 409.74C184.441 409.74 185.767 409.861 187.361 410.104L188.089 410.234L188.037 411.898C186.113 411.621 184.597 411.482 183.487 411.482ZM197.204 423V410H199.154V423H197.204ZM197.204 407.062V404.8H199.154V407.062H197.204ZM204.842 423H202.892V410H204.816V410.91C206.22 410.13 207.563 409.74 208.846 409.74C210.579 409.74 211.74 410.208 212.33 411.144C212.936 412.08 213.24 413.744 213.24 416.136V423H211.316V416.188C211.316 414.385 211.134 413.155 210.77 412.496C210.423 411.82 209.669 411.482 208.508 411.482C207.953 411.482 207.364 411.569 206.74 411.742C206.133 411.898 205.665 412.054 205.336 412.21L204.842 412.444V423ZM221.997 416.474C221.997 414.099 222.422 412.383 223.271 411.326C224.121 410.269 225.551 409.74 227.561 409.74C229.589 409.74 231.019 410.269 231.851 411.326C232.701 412.383 233.125 414.099 233.125 416.474C233.125 418.849 232.727 420.573 231.929 421.648C231.132 422.723 229.676 423.26 227.561 423.26C225.447 423.26 223.991 422.723 223.193 421.648C222.396 420.573 221.997 418.849 221.997 416.474ZM223.999 416.448C223.999 418.337 224.225 419.663 224.675 420.426C225.143 421.189 226.105 421.57 227.561 421.57C229.035 421.57 229.997 421.197 230.447 420.452C230.898 419.689 231.123 418.355 231.123 416.448C231.123 414.541 230.872 413.233 230.369 412.522C229.867 411.794 228.931 411.43 227.561 411.43C226.209 411.43 225.273 411.794 224.753 412.522C224.251 413.233 223.999 414.541 223.999 416.448ZM242.938 411.69H238.804V417.904C238.804 419.395 238.908 420.374 239.116 420.842C239.341 421.31 239.861 421.544 240.676 421.544L242.99 421.388L243.12 423C241.959 423.191 241.075 423.286 240.468 423.286C239.116 423.286 238.18 422.957 237.66 422.298C237.14 421.639 236.88 420.383 236.88 418.528V411.69H235.034V410H236.88V406.022H238.804V410H242.938V411.69ZM247.269 423H245.319V404.332H247.269V410.728C248.656 410.069 249.991 409.74 251.273 409.74C253.007 409.74 254.168 410.208 254.757 411.144C255.364 412.08 255.667 413.744 255.667 416.136V423H253.717V416.188C253.717 414.385 253.535 413.155 253.171 412.496C252.825 411.82 252.079 411.482 250.935 411.482C249.843 411.482 248.786 411.681 247.763 412.08L247.269 412.262V423ZM268.124 421.388L268.878 421.31L268.93 422.844C266.954 423.121 265.264 423.26 263.86 423.26C261.988 423.26 260.662 422.723 259.882 421.648C259.102 420.556 258.712 418.866 258.712 416.578C258.712 412.019 260.523 409.74 264.146 409.74C265.897 409.74 267.205 410.234 268.072 411.222C268.939 412.193 269.372 413.727 269.372 415.824L269.268 417.306H260.688C260.688 418.745 260.948 419.811 261.468 420.504C261.988 421.197 262.889 421.544 264.172 421.544C265.472 421.544 266.789 421.492 268.124 421.388ZM267.422 415.746C267.422 414.151 267.162 413.025 266.642 412.366C266.139 411.707 265.307 411.378 264.146 411.378C263.002 411.378 262.135 411.725 261.546 412.418C260.974 413.111 260.679 414.221 260.662 415.746H267.422ZM272.411 423V410H274.335V411.768C275.843 410.728 277.429 410.043 279.093 409.714V411.69C278.365 411.829 277.602 412.045 276.805 412.34C276.025 412.635 275.427 412.895 275.011 413.12L274.361 413.458V423H272.411ZM289.062 423H287.112V410H289.036V410.91C290.336 410.13 291.602 409.74 292.832 409.74C294.444 409.74 295.571 410.182 296.212 411.066C296.784 410.719 297.521 410.416 298.422 410.156C299.341 409.879 300.147 409.74 300.84 409.74C302.574 409.74 303.735 410.208 304.324 411.144C304.931 412.063 305.234 413.727 305.234 416.136V423H303.284V416.188C303.284 414.385 303.111 413.155 302.764 412.496C302.418 411.82 301.681 411.482 300.554 411.482C299.982 411.482 299.393 411.569 298.786 411.742C298.18 411.898 297.712 412.054 297.382 412.21L296.888 412.444C297.114 413.016 297.226 414.281 297.226 416.24V423H295.276V416.292C295.276 414.42 295.103 413.155 294.756 412.496C294.427 411.82 293.69 411.482 292.546 411.482C291.992 411.482 291.42 411.569 290.83 411.742C290.258 411.898 289.816 412.054 289.504 412.21L289.062 412.444V423ZM317.687 421.388L318.441 421.31L318.493 422.844C316.517 423.121 314.827 423.26 313.423 423.26C311.551 423.26 310.225 422.723 309.445 421.648C308.665 420.556 308.275 418.866 308.275 416.578C308.275 412.019 310.086 409.74 313.709 409.74C315.459 409.74 316.768 410.234 317.635 411.222C318.501 412.193 318.935 413.727 318.935 415.824L318.831 417.306H310.251C310.251 418.745 310.511 419.811 311.031 420.504C311.551 421.197 312.452 421.544 313.735 421.544C315.035 421.544 316.352 421.492 317.687 421.388ZM316.985 415.746C316.985 414.151 316.725 413.025 316.205 412.366C315.702 411.707 314.87 411.378 313.709 411.378C312.565 411.378 311.698 411.725 311.109 412.418C310.537 413.111 310.242 414.221 310.225 415.746H316.985ZM328.631 411.69H324.497V417.904C324.497 419.395 324.601 420.374 324.809 420.842C325.035 421.31 325.555 421.544 326.369 421.544L328.683 421.388L328.813 423C327.652 423.191 326.768 423.286 326.161 423.286C324.809 423.286 323.873 422.957 323.353 422.298C322.833 421.639 322.573 420.383 322.573 418.528V411.69H320.727V410H322.573V406.022H324.497V410H328.631V411.69ZM340.191 413.926V420.582C340.243 421.223 340.745 421.605 341.699 421.726L341.621 423.26C340.251 423.26 339.22 422.913 338.527 422.22C336.967 422.913 335.407 423.26 333.847 423.26C332.651 423.26 331.741 422.922 331.117 422.246C330.493 421.57 330.181 420.599 330.181 419.334C330.181 418.069 330.501 417.141 331.143 416.552C331.784 415.945 332.789 415.573 334.159 415.434L338.241 415.044V413.926C338.241 413.042 338.05 412.409 337.669 412.028C337.287 411.647 336.767 411.456 336.109 411.456C334.722 411.456 333.283 411.543 331.793 411.716L330.987 411.794L330.909 410.312C332.815 409.931 334.505 409.74 335.979 409.74C337.452 409.74 338.518 410.078 339.177 410.754C339.853 411.43 340.191 412.487 340.191 413.926ZM332.183 419.23C332.183 420.825 332.841 421.622 334.159 421.622C335.337 421.622 336.499 421.423 337.643 421.024L338.241 420.816V416.526L334.393 416.89C333.613 416.959 333.049 417.185 332.703 417.566C332.356 417.947 332.183 418.502 332.183 419.23ZM342.689 410H344.769L347.811 421.31H348.773L351.919 410H353.921L350.255 423H346.355L342.689 410ZM365.04 421.388L365.794 421.31L365.846 422.844C363.87 423.121 362.18 423.26 360.776 423.26C358.904 423.26 357.578 422.723 356.798 421.648C356.018 420.556 355.628 418.866 355.628 416.578C355.628 412.019 357.439 409.74 361.062 409.74C362.813 409.74 364.121 410.234 364.988 411.222C365.855 412.193 366.288 413.727 366.288 415.824L366.184 417.306H357.604C357.604 418.745 357.864 419.811 358.384 420.504C358.904 421.197 359.805 421.544 361.088 421.544C362.388 421.544 363.705 421.492 365.04 421.388ZM364.338 415.746C364.338 414.151 364.078 413.025 363.558 412.366C363.055 411.707 362.223 411.378 361.062 411.378C359.918 411.378 359.051 411.725 358.462 412.418C357.89 413.111 357.595 414.221 357.578 415.746H364.338ZM369.327 423V410H371.251V411.768C372.759 410.728 374.345 410.043 376.009 409.714V411.69C375.281 411.829 374.518 412.045 373.721 412.34C372.941 412.635 372.343 412.895 371.927 413.12L371.277 413.458V423H369.327ZM382.397 411.482C380.508 411.482 379.563 412.141 379.563 413.458C379.563 414.065 379.78 414.498 380.213 414.758C380.647 415.001 381.635 415.261 383.177 415.538C384.72 415.798 385.812 416.171 386.453 416.656C387.095 417.141 387.415 418.051 387.415 419.386C387.415 420.721 386.982 421.7 386.115 422.324C385.266 422.948 384.018 423.26 382.371 423.26C381.297 423.26 380.031 423.139 378.575 422.896L377.795 422.766L377.899 421.076C379.875 421.371 381.366 421.518 382.371 421.518C383.377 421.518 384.139 421.362 384.659 421.05C385.197 420.721 385.465 420.183 385.465 419.438C385.465 418.675 385.24 418.164 384.789 417.904C384.339 417.627 383.351 417.367 381.825 417.124C380.3 416.881 379.217 416.526 378.575 416.058C377.934 415.59 377.613 414.723 377.613 413.458C377.613 412.193 378.055 411.257 378.939 410.65C379.841 410.043 380.959 409.74 382.293 409.74C383.351 409.74 384.677 409.861 386.271 410.104L386.999 410.234L386.947 411.898C385.023 411.621 383.507 411.482 382.397 411.482ZM399.241 421.388L399.995 421.31L400.047 422.844C398.071 423.121 396.381 423.26 394.977 423.26C393.105 423.26 391.779 422.723 390.999 421.648C390.219 420.556 389.829 418.866 389.829 416.578C389.829 412.019 391.641 409.74 395.263 409.74C397.014 409.74 398.323 410.234 399.189 411.222C400.056 412.193 400.489 413.727 400.489 415.824L400.385 417.306H391.805C391.805 418.745 392.065 419.811 392.585 420.504C393.105 421.197 394.007 421.544 395.289 421.544C396.589 421.544 397.907 421.492 399.241 421.388ZM398.539 415.746C398.539 414.151 398.279 413.025 397.759 412.366C397.257 411.707 396.425 411.378 395.263 411.378C394.119 411.378 393.253 411.725 392.663 412.418C392.091 413.111 391.797 414.221 391.779 415.746H398.539ZM407.61 411.482C405.721 411.482 404.776 412.141 404.776 413.458C404.776 414.065 404.993 414.498 405.426 414.758C405.86 415.001 406.848 415.261 408.39 415.538C409.933 415.798 411.025 416.171 411.666 416.656C412.308 417.141 412.628 418.051 412.628 419.386C412.628 420.721 412.195 421.7 411.328 422.324C410.479 422.948 409.231 423.26 407.584 423.26C406.51 423.26 405.244 423.139 403.788 422.896L403.008 422.766L403.112 421.076C405.088 421.371 406.579 421.518 407.584 421.518C408.59 421.518 409.352 421.362 409.872 421.05C410.41 420.721 410.678 420.183 410.678 419.438C410.678 418.675 410.453 418.164 410.002 417.904C409.552 417.627 408.564 417.367 407.038 417.124C405.513 416.881 404.43 416.526 403.788 416.058C403.147 415.59 402.826 414.723 402.826 413.458C402.826 412.193 403.268 411.257 404.152 410.65C405.054 410.043 406.172 409.74 407.506 409.74C408.564 409.74 409.89 409.861 411.484 410.104L412.212 410.234L412.16 411.898C410.236 411.621 408.72 411.482 407.61 411.482Z" fill="white"/>
</svg>
