<svg width="545" height="76" viewBox="0 0 545 76" fill="none" xmlns="http://www.w3.org/2000/svg">
<rect x="1.5" y="2.3501" width="541.931" height="71.8223" rx="8.5" fill="black" stroke="#CCA354" stroke-width="3"/>
<path d="M121.668 25.8738C122.881 25.8738 123.99 26.1071 124.993 26.5738C125.996 27.0405 126.836 27.6588 127.513 28.4288C128.213 29.1755 128.75 30.0388 129.123 31.0188C129.496 31.9988 129.671 33.0138 129.648 34.0638C129.648 35.0905 129.426 36.1055 128.983 37.1088C128.54 38.1121 127.863 39.0105 126.953 39.8038C126.16 40.5038 125.343 41.0171 124.503 41.3438C123.686 41.6471 122.741 41.7988 121.668 41.7988H118.483V46.5938C118.483 48.0638 118.751 49.0321 119.288 49.4988C119.358 49.5455 119.381 49.6038 119.358 49.6738C119.335 49.7438 119.276 49.7788 119.183 49.7788H116.908H113.023C112.93 49.7788 112.871 49.7438 112.848 49.6738C112.825 49.6038 112.848 49.5455 112.918 49.4988C113.455 49.0321 113.723 48.0638 113.723 46.5938V29.0588C113.723 27.5421 113.455 26.5738 112.918 26.1538C112.848 26.0838 112.825 26.0255 112.848 25.9788C112.871 25.9088 112.93 25.8738 113.023 25.8738H116.908H121.668ZM116.173 47.9588C116.29 47.9588 116.383 47.9121 116.453 47.8188C116.546 47.7255 116.593 47.6205 116.593 47.5038C116.593 47.3871 116.546 47.2938 116.453 47.2238C116.383 47.1305 116.29 47.0838 116.173 47.0838C116.056 47.0838 115.951 47.1305 115.858 47.2238C115.765 47.2938 115.718 47.3871 115.718 47.5038C115.718 47.8071 115.87 47.9588 116.173 47.9588ZM116.173 44.6338C116.29 44.6338 116.383 44.5871 116.453 44.4938C116.546 44.4005 116.593 44.2955 116.593 44.1788C116.593 44.0621 116.546 43.9688 116.453 43.8988C116.383 43.8055 116.29 43.7588 116.173 43.7588C116.056 43.7588 115.951 43.8055 115.858 43.8988C115.765 43.9688 115.718 44.0621 115.718 44.1788C115.718 44.4821 115.87 44.6338 116.173 44.6338ZM116.173 41.4488C116.29 41.4488 116.383 41.4021 116.453 41.3088C116.546 41.2155 116.593 41.1105 116.593 40.9938C116.593 40.8771 116.546 40.7721 116.453 40.6788C116.383 40.5855 116.29 40.5388 116.173 40.5388C115.87 40.5388 115.718 40.6905 115.718 40.9938C115.718 41.2971 115.87 41.4488 116.173 41.4488ZM116.173 38.1938C116.29 38.1938 116.383 38.1471 116.453 38.0538C116.546 37.9605 116.593 37.8555 116.593 37.7388C116.593 37.6221 116.546 37.5288 116.453 37.4588C116.383 37.3655 116.29 37.3188 116.173 37.3188C115.87 37.3188 115.718 37.4588 115.718 37.7388C115.718 38.0421 115.87 38.1938 116.173 38.1938ZM116.173 34.9038C116.476 34.9038 116.628 34.7638 116.628 34.4838C116.628 34.1805 116.476 34.0288 116.173 34.0288C115.893 34.0288 115.753 34.1805 115.753 34.4838C115.753 34.7638 115.893 34.9038 116.173 34.9038ZM115.718 31.2638C115.718 31.5438 115.87 31.6838 116.173 31.6838C116.29 31.6838 116.383 31.6488 116.453 31.5788C116.546 31.4855 116.593 31.3805 116.593 31.2638C116.593 31.1471 116.546 31.0421 116.453 30.9488C116.383 30.8555 116.29 30.8088 116.173 30.8088C115.87 30.8088 115.718 30.9605 115.718 31.2638ZM116.173 28.4288C116.476 28.4288 116.628 28.2888 116.628 28.0088C116.628 27.7288 116.476 27.5888 116.173 27.5888C115.893 27.5888 115.753 27.7288 115.753 28.0088C115.753 28.2888 115.893 28.4288 116.173 28.4288ZM122.823 27.9038C122.52 27.9038 122.368 28.0438 122.368 28.3238C122.368 28.6271 122.52 28.7788 122.823 28.7788C123.103 28.7788 123.243 28.6271 123.243 28.3238C123.243 28.0438 123.103 27.9038 122.823 27.9038ZM119.393 27.5888C119.276 27.5888 119.171 27.6355 119.078 27.7288C119.008 27.7988 118.973 27.8921 118.973 28.0088C118.973 28.1255 119.008 28.2305 119.078 28.3238C119.171 28.3938 119.276 28.4288 119.393 28.4288C119.696 28.4288 119.848 28.2888 119.848 28.0088C119.848 27.7288 119.696 27.5888 119.393 27.5888ZM119.393 39.6988C119.533 39.6988 119.638 39.6638 119.708 39.5938C119.801 39.5005 119.848 39.3955 119.848 39.2788C119.848 38.9755 119.696 38.8238 119.393 38.8238C119.276 38.8238 119.171 38.8705 119.078 38.9638C119.008 39.0571 118.973 39.1621 118.973 39.2788C118.973 39.3955 119.008 39.5005 119.078 39.5938C119.171 39.6638 119.276 39.6988 119.393 39.6988ZM123.138 39.6988C123.255 39.6988 123.36 39.6638 123.453 39.5938C123.546 39.5005 123.593 39.3955 123.593 39.2788C123.593 38.9755 123.441 38.8238 123.138 38.8238C122.835 38.8238 122.683 38.9755 122.683 39.2788C122.683 39.3955 122.73 39.5005 122.823 39.5938C122.916 39.6638 123.021 39.6988 123.138 39.6988ZM121.668 37.0038C122.555 37.0038 123.301 36.7005 123.908 36.0938C124.538 35.4638 124.853 34.7055 124.853 33.8188C124.853 33.3755 124.771 32.9671 124.608 32.5938C124.445 32.1971 124.211 31.8588 123.908 31.5788C123.628 31.2755 123.29 31.0421 122.893 30.8788C122.52 30.7155 122.111 30.6338 121.668 30.6338H118.483V37.0038H121.668ZM125.308 29.9688C125.308 30.2721 125.448 30.4238 125.728 30.4238C126.031 30.4238 126.183 30.2721 126.183 29.9688C126.183 29.6888 126.031 29.5488 125.728 29.5488C125.448 29.5488 125.308 29.6888 125.308 29.9688ZM126.183 37.1438C126.3 37.1438 126.393 37.1088 126.463 37.0388C126.556 36.9455 126.603 36.8405 126.603 36.7238C126.603 36.4205 126.463 36.2688 126.183 36.2688C125.88 36.2688 125.728 36.4205 125.728 36.7238C125.728 36.8405 125.775 36.9455 125.868 37.0388C125.961 37.1088 126.066 37.1438 126.183 37.1438ZM126.848 33.6088C127.151 33.6088 127.303 33.4688 127.303 33.1888C127.303 32.8855 127.151 32.7338 126.848 32.7338C126.568 32.7338 126.428 32.8855 126.428 33.1888C126.428 33.4688 126.568 33.6088 126.848 33.6088ZM147.525 46.5938C147.525 48.0871 147.782 49.0555 148.295 49.4988C148.365 49.5455 148.388 49.6038 148.365 49.6738C148.365 49.7438 148.307 49.7788 148.19 49.7788H142.03C141.937 49.7788 141.878 49.7438 141.855 49.6738C141.832 49.6038 141.867 49.5455 141.96 49.4988C142.473 49.0321 142.73 48.0638 142.73 46.5938V41.7988V40.2238H136.36V41.7988V46.5938C136.36 48.0871 136.617 49.0555 137.13 49.4988C137.2 49.5455 137.223 49.6038 137.2 49.6738C137.177 49.7438 137.118 49.7788 137.025 49.7788H130.9C130.783 49.7788 130.713 49.7438 130.69 49.6738C130.667 49.6038 130.702 49.5455 130.795 49.4988C131.308 49.0555 131.565 48.0871 131.565 46.5938V44.9838V29.0588C131.565 27.5421 131.308 26.5738 130.795 26.1538C130.702 26.0838 130.667 26.0255 130.69 25.9788C130.713 25.9088 130.783 25.8738 130.9 25.8738H137.025C137.118 25.8738 137.177 25.9088 137.2 25.9788C137.223 26.0255 137.2 26.0838 137.13 26.1538C136.617 26.5738 136.36 27.5421 136.36 29.0588V32.2438V35.4288H142.73V32.2438V29.0588C142.73 27.5655 142.473 26.5971 141.96 26.1538C141.867 26.0838 141.832 26.0255 141.855 25.9788C141.878 25.9088 141.937 25.8738 142.03 25.8738H148.19C148.447 25.8738 148.482 25.9671 148.295 26.1538C147.782 26.5738 147.525 27.5421 147.525 29.0588V46.5938ZM133.875 48.1688C134.178 48.1688 134.33 48.0288 134.33 47.7488C134.33 47.4455 134.178 47.2938 133.875 47.2938C133.595 47.2938 133.455 47.4455 133.455 47.7488C133.455 48.0288 133.595 48.1688 133.875 48.1688ZM133.875 44.8438C134.178 44.8438 134.33 44.6921 134.33 44.3888C134.33 44.1088 134.178 43.9688 133.875 43.9688C133.595 43.9688 133.455 44.1088 133.455 44.3888C133.455 44.6921 133.595 44.8438 133.875 44.8438ZM133.875 41.6238C134.178 41.6238 134.33 41.4838 134.33 41.2038C134.33 40.9238 134.178 40.7838 133.875 40.7838C133.595 40.7838 133.455 40.9238 133.455 41.2038C133.455 41.4838 133.595 41.6238 133.875 41.6238ZM133.875 38.4038C134.178 38.4038 134.33 38.2521 134.33 37.9488C134.33 37.6688 134.178 37.5288 133.875 37.5288C133.595 37.5288 133.455 37.6688 133.455 37.9488C133.455 38.2521 133.595 38.4038 133.875 38.4038ZM133.91 35.1138C134.213 35.1138 134.365 34.9738 134.365 34.6938C134.365 34.3905 134.213 34.2388 133.91 34.2388C133.63 34.2388 133.49 34.3905 133.49 34.6938C133.49 34.9738 133.63 35.1138 133.91 35.1138ZM133.455 31.4738C133.455 31.7538 133.595 31.8938 133.875 31.8938C134.178 31.8938 134.33 31.7538 134.33 31.4738C134.33 31.1705 134.178 31.0188 133.875 31.0188C133.595 31.0188 133.455 31.1705 133.455 31.4738ZM133.91 28.6388C134.213 28.6388 134.365 28.4988 134.365 28.2188C134.365 27.9388 134.213 27.7988 133.91 27.7988C133.63 27.7988 133.49 27.9388 133.49 28.2188C133.49 28.4988 133.63 28.6388 133.91 28.6388ZM137.585 38.2988C137.702 38.2988 137.795 38.2638 137.865 38.1938C137.958 38.1005 138.005 37.9955 138.005 37.8788C138.005 37.7621 137.958 37.6571 137.865 37.5638C137.795 37.4705 137.702 37.4238 137.585 37.4238C137.282 37.4238 137.13 37.5755 137.13 37.8788C137.13 38.1588 137.282 38.2988 137.585 38.2988ZM141.19 38.2988C141.47 38.2988 141.61 38.1588 141.61 37.8788C141.61 37.5755 141.47 37.4238 141.19 37.4238C140.887 37.4238 140.735 37.5755 140.735 37.8788C140.735 38.1588 140.887 38.2988 141.19 38.2988ZM145.145 27.3438C144.842 27.3438 144.69 27.4955 144.69 27.7988C144.69 27.9155 144.737 28.0205 144.83 28.1138C144.923 28.1838 145.028 28.2188 145.145 28.2188C145.262 28.2188 145.355 28.1838 145.425 28.1138C145.518 28.0205 145.565 27.9155 145.565 27.7988C145.565 27.6821 145.518 27.5771 145.425 27.4838C145.355 27.3905 145.262 27.3438 145.145 27.3438ZM145.11 30.5988C144.993 30.5988 144.888 30.6455 144.795 30.7388C144.725 30.8088 144.69 30.9021 144.69 31.0188C144.69 31.3221 144.83 31.4738 145.11 31.4738C145.413 31.4738 145.565 31.3221 145.565 31.0188C145.565 30.9021 145.518 30.8088 145.425 30.7388C145.332 30.6455 145.227 30.5988 145.11 30.5988ZM145.565 34.2388C145.565 34.1221 145.518 34.0288 145.425 33.9588C145.355 33.8655 145.262 33.8188 145.145 33.8188C145.028 33.8188 144.923 33.8655 144.83 33.9588C144.737 34.0288 144.69 34.1221 144.69 34.2388C144.69 34.5421 144.842 34.6938 145.145 34.6938C145.262 34.6938 145.355 34.6471 145.425 34.5538C145.518 34.4605 145.565 34.3555 145.565 34.2388ZM145.11 47.7488C145.413 47.7488 145.565 47.5971 145.565 47.2938C145.565 47.0138 145.413 46.8738 145.11 46.8738C144.83 46.8738 144.69 47.0138 144.69 47.2938C144.69 47.5971 144.83 47.7488 145.11 47.7488ZM145.11 44.3888C145.413 44.3888 145.565 44.2488 145.565 43.9688C145.565 43.6655 145.413 43.5138 145.11 43.5138C144.83 43.5138 144.69 43.6655 144.69 43.9688C144.69 44.2488 144.83 44.3888 145.11 44.3888ZM145.11 41.2038C145.227 41.2038 145.332 41.1688 145.425 41.0988C145.518 41.0055 145.565 40.9005 145.565 40.7838C145.565 40.4805 145.413 40.3288 145.11 40.3288C144.83 40.3288 144.69 40.4805 144.69 40.7838C144.69 40.9005 144.725 41.0055 144.795 41.0988C144.888 41.1688 144.993 41.2038 145.11 41.2038ZM145.215 38.1588C145.495 38.1588 145.635 38.0188 145.635 37.7388C145.635 37.4588 145.495 37.3188 145.215 37.3188C144.935 37.3188 144.795 37.4588 144.795 37.7388C144.795 38.0188 144.935 38.1588 145.215 38.1588ZM167.16 49.4988C167.23 49.5688 167.254 49.6388 167.23 49.7088C167.207 49.7555 167.149 49.7788 167.055 49.7788H160.895C160.802 49.7788 160.744 49.7555 160.72 49.7088C160.697 49.6388 160.72 49.5688 160.79 49.4988C161.327 49.0788 161.595 48.1105 161.595 46.5938V43.4088H155.19V46.5938C155.19 48.1105 155.459 49.0788 155.995 49.4988C156.182 49.6855 156.147 49.7788 155.89 49.7788H149.73C149.637 49.7788 149.579 49.7555 149.555 49.7088C149.532 49.6388 149.555 49.5688 149.625 49.4988C150.162 49.0788 150.43 48.1105 150.43 46.5938V41.8338V38.9988C150.43 37.9955 150.524 37.0388 150.71 36.1288C150.897 35.1955 151.189 34.2621 151.585 33.3288L153.405 29.0938C153.709 27.6005 153.639 26.6205 153.195 26.1538C153.125 26.0838 153.102 26.0255 153.125 25.9788C153.149 25.9088 153.207 25.8738 153.3 25.8738H163.485C163.719 25.8738 163.765 25.9671 163.625 26.1538C163.182 26.5738 163.1 27.5538 163.38 29.0938L165.2 33.3288C165.597 34.2621 165.889 35.1955 166.075 36.1288C166.262 37.0388 166.355 37.9955 166.355 38.9988V41.8338V46.5938C166.355 48.1105 166.624 49.0788 167.16 49.4988ZM163.555 36.9338C163.275 36.9338 163.135 37.0855 163.135 37.3888C163.135 37.5055 163.17 37.6105 163.24 37.7038C163.334 37.7738 163.439 37.8088 163.555 37.8088C163.672 37.8088 163.777 37.7738 163.87 37.7038C163.964 37.6105 164.01 37.5055 164.01 37.3888C164.01 37.0855 163.859 36.9338 163.555 36.9338ZM160.615 27.4138C160.335 27.4138 160.195 27.5538 160.195 27.8338C160.195 28.1371 160.335 28.2888 160.615 28.2888C160.895 28.2888 161.035 28.1371 161.035 27.8338C161.035 27.5538 160.895 27.4138 160.615 27.4138ZM156.17 27.7288C155.867 27.7288 155.715 27.8688 155.715 28.1488C155.715 28.4521 155.867 28.6038 156.17 28.6038C156.474 28.6038 156.625 28.4521 156.625 28.1488C156.625 27.8688 156.474 27.7288 156.17 27.7288ZM152.81 47.8888C153.114 47.8888 153.265 47.7371 153.265 47.4338C153.265 47.3171 153.219 47.2238 153.125 47.1538C153.032 47.0605 152.927 47.0138 152.81 47.0138C152.694 47.0138 152.589 47.0605 152.495 47.1538C152.402 47.2238 152.355 47.3171 152.355 47.4338C152.355 47.7371 152.507 47.8888 152.81 47.8888ZM152.915 44.5638C153.219 44.5638 153.37 44.4121 153.37 44.1088C153.37 43.9921 153.324 43.8988 153.23 43.8288C153.16 43.7355 153.055 43.6888 152.915 43.6888C152.799 43.6888 152.694 43.7355 152.6 43.8288C152.53 43.8988 152.495 43.9921 152.495 44.1088C152.495 44.4121 152.635 44.5638 152.915 44.5638ZM152.915 41.2388C153.219 41.2388 153.37 41.0988 153.37 40.8188C153.37 40.5155 153.219 40.3638 152.915 40.3638C152.635 40.3638 152.495 40.5155 152.495 40.8188C152.495 41.0988 152.635 41.2388 152.915 41.2388ZM153.125 38.0188C153.242 38.0188 153.347 37.9838 153.44 37.9138C153.534 37.8205 153.58 37.7155 153.58 37.5988C153.58 37.2955 153.429 37.1438 153.125 37.1438C152.845 37.1438 152.705 37.2955 152.705 37.5988C152.705 37.7155 152.74 37.8205 152.81 37.9138C152.904 37.9838 153.009 38.0188 153.125 38.0188ZM153.58 34.8338C153.86 34.8338 154 34.6938 154 34.4138C154 34.1338 153.86 33.9938 153.58 33.9938C153.277 33.9938 153.125 34.1338 153.125 34.4138C153.125 34.6938 153.277 34.8338 153.58 34.8338ZM155.015 31.6138C155.295 31.6138 155.435 31.4738 155.435 31.1938C155.435 30.8905 155.295 30.7388 155.015 30.7388C154.712 30.7388 154.56 30.8905 154.56 31.1938C154.56 31.4738 154.712 31.6138 155.015 31.6138ZM156.485 41.2388C156.789 41.2388 156.94 41.0988 156.94 40.8188C156.94 40.5155 156.789 40.3638 156.485 40.3638C156.182 40.3638 156.03 40.5155 156.03 40.8188C156.03 41.0988 156.182 41.2388 156.485 41.2388ZM160.09 41.2738C160.207 41.2738 160.3 41.2388 160.37 41.1688C160.464 41.0755 160.51 40.9705 160.51 40.8538C160.51 40.5505 160.37 40.3988 160.09 40.3988C159.787 40.3988 159.635 40.5505 159.635 40.8538C159.635 40.9705 159.67 41.0755 159.74 41.1688C159.834 41.2388 159.95 41.2738 160.09 41.2738ZM161.595 38.6488C161.525 37.4588 161.269 36.3155 160.825 35.2188L158.41 29.5838L155.995 35.2188C155.505 36.3155 155.249 37.4588 155.225 38.6488H161.595ZM161.665 31.3338C161.945 31.3338 162.085 31.1821 162.085 30.8788C162.085 30.5755 161.945 30.4238 161.665 30.4238C161.362 30.4238 161.21 30.5755 161.21 30.8788C161.21 31.1821 161.362 31.3338 161.665 31.3338ZM162.4 34.0988C162.4 34.4021 162.552 34.5538 162.855 34.5538C163.135 34.5538 163.275 34.4021 163.275 34.0988C163.275 33.8188 163.135 33.6788 162.855 33.6788C162.552 33.6788 162.4 33.8188 162.4 34.0988ZM163.135 40.7138C163.135 41.0171 163.275 41.1688 163.555 41.1688C163.859 41.1688 164.01 41.0171 164.01 40.7138C164.01 40.4338 163.859 40.2938 163.555 40.2938C163.275 40.2938 163.135 40.4338 163.135 40.7138ZM163.8 47.7838C163.917 47.7838 164.01 47.7488 164.08 47.6788C164.174 47.5855 164.22 47.4805 164.22 47.3638C164.22 47.2471 164.174 47.1421 164.08 47.0488C164.01 46.9555 163.917 46.9088 163.8 46.9088C163.497 46.9088 163.345 47.0605 163.345 47.3638C163.345 47.6438 163.497 47.7838 163.8 47.7838ZM163.8 44.3538C163.917 44.3538 164.01 44.3071 164.08 44.2138C164.174 44.1205 164.22 44.0155 164.22 43.8988C164.22 43.7821 164.174 43.6888 164.08 43.6188C164.01 43.5255 163.917 43.4788 163.8 43.4788C163.684 43.4788 163.579 43.5255 163.485 43.6188C163.392 43.6888 163.345 43.7821 163.345 43.8988C163.345 44.2021 163.497 44.3538 163.8 44.3538ZM179.063 35.4638C180.066 35.4638 180.999 35.6505 181.863 36.0238C182.726 36.3971 183.484 36.9105 184.138 37.5638C184.791 38.2171 185.304 38.9755 185.678 39.8388C186.051 40.7021 186.238 41.6355 186.238 42.6388C186.238 43.6188 186.051 44.5521 185.678 45.4388C185.304 46.3021 184.791 47.0605 184.138 47.7138C183.484 48.3438 182.726 48.8455 181.863 49.2188C180.999 49.5921 180.066 49.7788 179.063 49.7788H177.488H175.878C174.898 49.7788 173.964 49.5921 173.078 49.2188C172.214 48.8455 171.456 48.3438 170.803 47.7138C170.173 47.0605 169.671 46.3021 169.298 45.4388C168.924 44.5521 168.738 43.6188 168.738 42.6388H173.498H174.163C174.349 42.6388 174.408 42.7088 174.338 42.8488C174.081 43.3155 174.058 43.7238 174.268 44.0738C174.478 44.4238 174.699 44.6688 174.933 44.8088C175.236 44.9488 175.551 45.0188 175.878 45.0188H177.488H179.063C179.739 45.0188 180.311 44.7855 180.778 44.3188C181.244 43.8521 181.478 43.2921 181.478 42.6388C181.478 41.9621 181.244 41.3905 180.778 40.9238C180.311 40.4571 179.739 40.2238 179.063 40.2238H177.488H175.878C174.898 40.2238 173.964 40.0371 173.078 39.6638C172.214 39.2905 171.456 38.7771 170.803 38.1238C170.173 37.4705 169.671 36.7121 169.298 35.8488C168.924 34.9621 168.738 34.0288 168.738 33.0488C168.738 32.0688 168.924 31.1471 169.298 30.2838C169.671 29.3971 170.173 28.6271 170.803 27.9738C171.456 27.3205 172.214 26.8071 173.078 26.4338C173.964 26.0605 174.898 25.8738 175.878 25.8738H177.488H179.063C180.066 25.8738 180.999 26.0605 181.863 26.4338C182.726 26.8071 183.484 27.3205 184.138 27.9738C184.791 28.6271 185.304 29.3971 185.678 30.2838C186.051 31.1471 186.238 32.0688 186.238 33.0488H181.478H180.778C180.591 33.0488 180.544 32.9788 180.638 32.8388C180.871 32.3955 180.883 31.9871 180.673 31.6138C180.486 31.2405 180.276 30.9955 180.043 30.8788C179.716 30.7388 179.389 30.6688 179.063 30.6688H177.488H175.878C175.224 30.6688 174.664 30.9021 174.198 31.3688C173.731 31.8355 173.498 32.3955 173.498 33.0488C173.498 33.7255 173.731 34.2971 174.198 34.7638C174.664 35.2305 175.224 35.4638 175.878 35.4638H177.488H179.063ZM183.578 30.9488C183.461 30.9488 183.356 30.9955 183.263 31.0888C183.193 31.1588 183.158 31.2521 183.158 31.3688C183.158 31.6721 183.298 31.8238 183.578 31.8238C183.881 31.8238 184.033 31.6721 184.033 31.3688C184.033 31.2521 183.986 31.1588 183.893 31.0888C183.799 30.9955 183.694 30.9488 183.578 30.9488ZM181.303 28.2888C181.023 28.2888 180.883 28.4405 180.883 28.7438C180.883 29.0238 181.023 29.1638 181.303 29.1638C181.583 29.1638 181.723 29.0238 181.723 28.7438C181.723 28.4405 181.583 28.2888 181.303 28.2888ZM178.083 27.6938C177.803 27.6938 177.663 27.8338 177.663 28.1138C177.663 28.3938 177.803 28.5338 178.083 28.5338C178.386 28.5338 178.538 28.3938 178.538 28.1138C178.538 27.8338 178.386 27.6938 178.083 27.6938ZM174.758 27.6938C174.454 27.6938 174.303 27.8338 174.303 28.1138C174.303 28.3938 174.454 28.5338 174.758 28.5338C175.038 28.5338 175.178 28.3938 175.178 28.1138C175.178 27.8338 175.038 27.6938 174.758 27.6938ZM172.098 29.6188C171.818 29.6188 171.678 29.7705 171.678 30.0738C171.678 30.1905 171.713 30.2955 171.783 30.3888C171.876 30.4588 171.981 30.4938 172.098 30.4938C172.214 30.4938 172.308 30.4588 172.378 30.3888C172.471 30.2955 172.518 30.1905 172.518 30.0738C172.518 29.7705 172.378 29.6188 172.098 29.6188ZM171.433 33.5038C171.736 33.5038 171.888 33.3638 171.888 33.0838C171.888 32.7805 171.736 32.6288 171.433 32.6288C171.316 32.6288 171.211 32.6755 171.118 32.7688C171.048 32.8621 171.013 32.9671 171.013 33.0838C171.013 33.2005 171.048 33.3055 171.118 33.3988C171.211 33.4688 171.316 33.5038 171.433 33.5038ZM172.518 36.5138C172.821 36.5138 172.973 36.3621 172.973 36.0588C172.973 35.7788 172.821 35.6388 172.518 35.6388C172.401 35.6388 172.296 35.6855 172.203 35.7788C172.133 35.8488 172.098 35.9421 172.098 36.0588C172.098 36.1755 172.133 36.2805 172.203 36.3738C172.296 36.4671 172.401 36.5138 172.518 36.5138ZM175.178 38.2638C175.481 38.2638 175.633 38.1121 175.633 37.8088C175.633 37.6921 175.586 37.5988 175.493 37.5288C175.399 37.4355 175.294 37.3888 175.178 37.3888C175.061 37.3888 174.956 37.4355 174.863 37.5288C174.793 37.5988 174.758 37.6921 174.758 37.8088C174.758 38.1121 174.898 38.2638 175.178 38.2638ZM178.538 38.2638C178.654 38.2638 178.748 38.2288 178.818 38.1588C178.911 38.0655 178.958 37.9488 178.958 37.8088C178.958 37.6921 178.911 37.5988 178.818 37.5288C178.748 37.4355 178.654 37.3888 178.538 37.3888C178.421 37.3888 178.316 37.4355 178.223 37.5288C178.129 37.5988 178.083 37.6921 178.083 37.8088C178.083 38.1121 178.234 38.2638 178.538 38.2638ZM172.098 45.2288C172.214 45.2288 172.319 45.1938 172.413 45.1238C172.506 45.0305 172.553 44.9255 172.553 44.8088C172.553 44.5055 172.401 44.3538 172.098 44.3538C171.981 44.3538 171.876 44.4005 171.783 44.4938C171.713 44.5871 171.678 44.6921 171.678 44.8088C171.678 44.9255 171.713 45.0305 171.783 45.1238C171.876 45.1938 171.981 45.2288 172.098 45.2288ZM174.653 47.2588C174.956 47.2588 175.108 47.1071 175.108 46.8038C175.108 46.5238 174.956 46.3838 174.653 46.3838C174.373 46.3838 174.233 46.5238 174.233 46.8038C174.233 47.1071 174.373 47.2588 174.653 47.2588ZM177.978 47.4688C178.094 47.4688 178.199 47.4338 178.293 47.3638C178.386 47.2705 178.433 47.1655 178.433 47.0488C178.433 46.7455 178.281 46.5938 177.978 46.5938C177.698 46.5938 177.558 46.7455 177.558 47.0488C177.558 47.1655 177.593 47.2705 177.663 47.3638C177.756 47.4338 177.861 47.4688 177.978 47.4688ZM181.513 47.0488C181.816 47.0488 181.968 46.8971 181.968 46.5938C181.968 46.3138 181.816 46.1738 181.513 46.1738C181.233 46.1738 181.093 46.3138 181.093 46.5938C181.093 46.8971 181.233 47.0488 181.513 47.0488ZM181.723 38.7538C182.026 38.7538 182.178 38.6138 182.178 38.3338C182.178 38.0538 182.026 37.9138 181.723 37.9138C181.606 37.9138 181.501 37.9605 181.408 38.0538C181.338 38.1238 181.303 38.2171 181.303 38.3338C181.303 38.4505 181.338 38.5555 181.408 38.6488C181.501 38.7188 181.606 38.7538 181.723 38.7538ZM183.578 44.3888C183.694 44.3888 183.799 44.3538 183.893 44.2838C183.986 44.1905 184.033 44.0855 184.033 43.9688C184.033 43.6655 183.881 43.5138 183.578 43.5138C183.298 43.5138 183.158 43.6655 183.158 43.9688C183.158 44.0855 183.193 44.1905 183.263 44.2838C183.356 44.3538 183.461 44.3888 183.578 44.3888ZM183.578 41.0988C183.881 41.0988 184.033 40.9588 184.033 40.6788C184.033 40.3755 183.881 40.2238 183.578 40.2238C183.298 40.2238 183.158 40.3755 183.158 40.6788C183.158 40.9588 183.298 41.0988 183.578 41.0988ZM204.471 46.5938C204.471 48.1105 204.727 49.0905 205.241 49.5338C205.311 49.5805 205.334 49.6388 205.311 49.7088C205.311 49.7555 205.252 49.7788 205.136 49.7788H187.846C187.729 49.7788 187.659 49.7555 187.636 49.7088C187.636 49.6388 187.671 49.5805 187.741 49.5338C188.254 49.0905 188.511 48.1105 188.511 46.5938V45.0188V29.0588C188.511 26.9355 187.986 25.8738 186.936 25.8738H205.136C205.252 25.8738 205.311 25.9088 205.311 25.9788C205.334 26.0488 205.311 26.1071 205.241 26.1538C204.727 26.5971 204.471 27.5655 204.471 29.0588V30.6688V31.3688C204.471 31.4621 204.436 31.5205 204.366 31.5438C204.296 31.5671 204.237 31.5321 204.191 31.4388C203.747 30.9255 202.779 30.6688 201.286 30.6688H193.306V32.2438V35.4288H198.101C199.594 35.4288 200.562 35.1721 201.006 34.6588C201.052 34.5888 201.111 34.5655 201.181 34.5888C201.251 34.6121 201.286 34.6705 201.286 34.7638V35.4288V37.0388V40.2238V40.9238C201.286 41.0171 201.251 41.0755 201.181 41.0988C201.111 41.1221 201.052 41.0988 201.006 41.0288C200.539 40.4921 199.571 40.2238 198.101 40.2238H193.306V41.7988V45.0188H201.286C202.756 45.0188 203.724 44.7505 204.191 44.2138C204.237 44.1438 204.296 44.1205 204.366 44.1438C204.436 44.1671 204.471 44.2255 204.471 44.3188V45.0188V46.5938ZM199.536 37.4938C199.256 37.4938 199.116 37.6455 199.116 37.9488C199.116 38.2288 199.256 38.3688 199.536 38.3688C199.839 38.3688 199.991 38.2288 199.991 37.9488C199.991 37.6455 199.839 37.4938 199.536 37.4938ZM202.581 27.7638C202.464 27.7638 202.359 27.8105 202.266 27.9038C202.196 27.9738 202.161 28.0671 202.161 28.1838C202.161 28.3005 202.196 28.4055 202.266 28.4988C202.359 28.5921 202.464 28.6388 202.581 28.6388C202.884 28.6388 203.036 28.4871 203.036 28.1838C203.036 27.9038 202.884 27.7638 202.581 27.7638ZM199.746 27.7638C199.442 27.7638 199.291 27.9038 199.291 28.1838C199.291 28.4871 199.442 28.6388 199.746 28.6388C199.862 28.6388 199.956 28.5921 200.026 28.4988C200.119 28.4055 200.166 28.3005 200.166 28.1838C200.166 28.0671 200.119 27.9738 200.026 27.9038C199.956 27.8105 199.862 27.7638 199.746 27.7638ZM196.806 27.7638C196.502 27.7638 196.351 27.9038 196.351 28.1838C196.351 28.4871 196.502 28.6388 196.806 28.6388C196.922 28.6388 197.016 28.5921 197.086 28.4988C197.179 28.4055 197.226 28.3005 197.226 28.1838C197.226 28.0671 197.179 27.9738 197.086 27.9038C197.016 27.8105 196.922 27.7638 196.806 27.7638ZM193.796 27.7638C193.516 27.7638 193.376 27.9038 193.376 28.1838C193.376 28.4871 193.516 28.6388 193.796 28.6388C194.076 28.6388 194.216 28.4871 194.216 28.1838C194.216 27.9038 194.076 27.7638 193.796 27.7638ZM196.596 37.4938C196.316 37.4938 196.176 37.6455 196.176 37.9488C196.176 38.2288 196.316 38.3688 196.596 38.3688C196.899 38.3688 197.051 38.2288 197.051 37.9488C197.051 37.6455 196.899 37.4938 196.596 37.4938ZM193.726 37.4938C193.422 37.4938 193.271 37.6455 193.271 37.9488C193.271 38.2288 193.422 38.3688 193.726 38.3688C193.842 38.3688 193.936 38.3338 194.006 38.2638C194.099 38.1705 194.146 38.0655 194.146 37.9488C194.146 37.8321 194.099 37.7271 194.006 37.6338C193.936 37.5405 193.842 37.4938 193.726 37.4938ZM190.751 48.1338C191.054 48.1338 191.206 47.9938 191.206 47.7138C191.206 47.4105 191.054 47.2588 190.751 47.2588C190.471 47.2588 190.331 47.4105 190.331 47.7138C190.331 47.9938 190.471 48.1338 190.751 48.1338ZM190.751 44.8088C191.054 44.8088 191.206 44.6688 191.206 44.3888C191.206 44.0855 191.054 43.9338 190.751 43.9338C190.471 43.9338 190.331 44.0855 190.331 44.3888C190.331 44.6688 190.471 44.8088 190.751 44.8088ZM190.751 41.6238C191.054 41.6238 191.206 41.4721 191.206 41.1688C191.206 40.8888 191.054 40.7488 190.751 40.7488C190.471 40.7488 190.331 40.8888 190.331 41.1688C190.331 41.4721 190.471 41.6238 190.751 41.6238ZM190.751 38.3688C191.054 38.3688 191.206 38.2288 191.206 37.9488C191.206 37.6455 191.054 37.4938 190.751 37.4938C190.471 37.4938 190.331 37.6455 190.331 37.9488C190.331 38.2288 190.471 38.3688 190.751 38.3688ZM190.786 35.1138C191.089 35.1138 191.241 34.9621 191.241 34.6588C191.241 34.3788 191.089 34.2388 190.786 34.2388C190.482 34.2388 190.331 34.3788 190.331 34.6588C190.331 34.9621 190.482 35.1138 190.786 35.1138ZM190.331 31.4388C190.331 31.7188 190.471 31.8588 190.751 31.8588C191.054 31.8588 191.206 31.7188 191.206 31.4388C191.206 31.1355 191.054 30.9838 190.751 30.9838C190.471 30.9838 190.331 31.1355 190.331 31.4388ZM190.786 28.6388C191.089 28.6388 191.241 28.4871 191.241 28.1838C191.241 27.9038 191.089 27.7638 190.786 27.7638C190.482 27.7638 190.331 27.9038 190.331 28.1838C190.331 28.4871 190.482 28.6388 190.786 28.6388ZM193.691 48.1338C193.994 48.1338 194.146 47.9938 194.146 47.7138C194.146 47.4105 193.994 47.2588 193.691 47.2588C193.411 47.2588 193.271 47.4105 193.271 47.7138C193.271 47.9938 193.411 48.1338 193.691 48.1338ZM196.596 48.1338C196.712 48.1338 196.806 48.0988 196.876 48.0288C196.969 47.9355 197.016 47.8305 197.016 47.7138C197.016 47.5971 196.969 47.4921 196.876 47.3988C196.806 47.3055 196.712 47.2588 196.596 47.2588C196.292 47.2588 196.141 47.4105 196.141 47.7138C196.141 47.9938 196.292 48.1338 196.596 48.1338ZM199.536 48.1338C199.816 48.1338 199.956 47.9938 199.956 47.7138C199.956 47.4105 199.816 47.2588 199.536 47.2588C199.232 47.2588 199.081 47.4105 199.081 47.7138C199.081 47.9938 199.232 48.1338 199.536 48.1338ZM202.616 48.1338C202.732 48.1338 202.826 48.0988 202.896 48.0288C202.989 47.9355 203.036 47.8305 203.036 47.7138C203.036 47.5971 202.989 47.4921 202.896 47.3988C202.826 47.3055 202.732 47.2588 202.616 47.2588C202.312 47.2588 202.161 47.4105 202.161 47.7138C202.161 47.9938 202.312 48.1338 202.616 48.1338ZM233.537 44.2138C233.607 44.1438 233.677 44.1205 233.747 44.1438C233.817 44.1671 233.852 44.2255 233.852 44.3188V45.0188V49.7788H226.677H225.067H223.457H216.317V44.0388C216.317 42.8488 216.539 41.7288 216.982 40.6788C217.449 39.6288 218.067 38.7188 218.837 37.9488C219.607 37.1788 220.517 36.5721 221.567 36.1288C222.617 35.6621 223.737 35.4288 224.927 35.4288H225.067H226.677C227.331 35.4288 227.891 35.2071 228.357 34.7638C228.824 34.2971 229.057 33.7255 229.057 33.0488C229.057 32.3721 228.824 31.8121 228.357 31.3688C227.891 30.9021 227.331 30.6688 226.677 30.6688H225.067H223.457C223.131 30.6688 222.816 30.7388 222.512 30.8788C222.279 30.9955 222.057 31.2405 221.847 31.6138C221.637 31.9638 221.661 32.3605 221.917 32.8038C221.987 32.9671 221.941 33.0488 221.777 33.0488H221.077H216.317C216.317 32.0688 216.504 31.1471 216.877 30.2838C217.251 29.3971 217.752 28.6271 218.382 27.9738C219.036 27.3205 219.794 26.8071 220.657 26.4338C221.544 26.0605 222.477 25.8738 223.457 25.8738H225.067H226.677C227.657 25.8738 228.579 26.0605 229.442 26.4338C230.329 26.8071 231.099 27.3205 231.752 27.9738C232.406 28.6271 232.919 29.3971 233.292 30.2838C233.666 31.1471 233.852 32.0688 233.852 33.0488C233.852 34.0288 233.666 34.9621 233.292 35.8488C232.919 36.7121 232.406 37.4705 231.752 38.1238C231.099 38.7771 230.329 39.2905 229.442 39.6638C228.579 40.0371 227.657 40.2238 226.677 40.2238H225.067H224.927C224.391 40.2238 223.889 40.3288 223.422 40.5388C222.956 40.7255 222.547 40.9938 222.197 41.3438C221.847 41.6938 221.567 42.1021 221.357 42.5688C221.171 43.0355 221.077 43.5255 221.077 44.0388V45.0188H223.457H225.067H226.677H230.632C232.149 45.0188 233.117 44.7505 233.537 44.2138ZM219.747 31.6138C219.864 31.6138 219.957 31.5788 220.027 31.5088C220.121 31.4155 220.167 31.3105 220.167 31.1938C220.167 30.8905 220.027 30.7388 219.747 30.7388C219.444 30.7388 219.292 30.8905 219.292 31.1938C219.292 31.3105 219.339 31.4155 219.432 31.5088C219.526 31.5788 219.631 31.6138 219.747 31.6138ZM221.287 29.2688C221.567 29.2688 221.707 29.1288 221.707 28.8488C221.707 28.5688 221.567 28.4288 221.287 28.4288C220.984 28.4288 220.832 28.5688 220.832 28.8488C220.832 29.1288 220.984 29.2688 221.287 29.2688ZM224.262 28.7088C224.379 28.7088 224.472 28.6621 224.542 28.5688C224.636 28.4755 224.682 28.3705 224.682 28.2538C224.682 28.1371 224.636 28.0438 224.542 27.9738C224.472 27.8805 224.379 27.8338 224.262 27.8338C223.959 27.8338 223.807 27.9738 223.807 28.2538C223.807 28.5571 223.959 28.7088 224.262 28.7088ZM227.517 28.7088C227.634 28.7088 227.727 28.6621 227.797 28.5688C227.891 28.4755 227.937 28.3705 227.937 28.2538C227.937 28.1371 227.891 28.0438 227.797 27.9738C227.727 27.8805 227.634 27.8338 227.517 27.8338C227.214 27.8338 227.062 27.9738 227.062 28.2538C227.062 28.5571 227.214 28.7088 227.517 28.7088ZM230.877 36.1988C231.157 36.1988 231.297 36.0588 231.297 35.7788C231.297 35.4755 231.157 35.3238 230.877 35.3238C230.597 35.3238 230.457 35.4755 230.457 35.7788C230.457 36.0588 230.597 36.1988 230.877 36.1988ZM231.262 32.2788C230.959 32.2788 230.807 32.4188 230.807 32.6988C230.807 33.0021 230.959 33.1538 231.262 33.1538C231.542 33.1538 231.682 33.0021 231.682 32.6988C231.682 32.4188 231.542 32.2788 231.262 32.2788ZM230.142 29.3738C229.862 29.3738 229.722 29.5255 229.722 29.8288C229.722 29.9455 229.757 30.0505 229.827 30.1438C229.921 30.2138 230.026 30.2488 230.142 30.2488C230.259 30.2488 230.364 30.2138 230.457 30.1438C230.551 30.0505 230.597 29.9455 230.597 29.8288C230.597 29.5255 230.446 29.3738 230.142 29.3738ZM227.937 37.2488C227.657 37.2488 227.517 37.4005 227.517 37.7038C227.517 37.9838 227.657 38.1238 227.937 38.1238C228.217 38.1238 228.357 37.9838 228.357 37.7038C228.357 37.4005 228.217 37.2488 227.937 37.2488ZM224.892 37.7038C224.612 37.7038 224.472 37.8438 224.472 38.1238C224.472 38.4271 224.612 38.5788 224.892 38.5788C225.196 38.5788 225.347 38.4271 225.347 38.1238C225.347 37.8438 225.196 37.7038 224.892 37.7038ZM221.707 38.3338C221.591 38.3338 221.486 38.3805 221.392 38.4738C221.299 38.5438 221.252 38.6371 221.252 38.7538C221.252 39.0571 221.404 39.2088 221.707 39.2088C221.987 39.2088 222.127 39.0571 222.127 38.7538C222.127 38.6371 222.081 38.5438 221.987 38.4738C221.917 38.3805 221.824 38.3338 221.707 38.3338ZM219.082 47.7138C219.199 47.7138 219.292 47.6788 219.362 47.6088C219.456 47.5155 219.502 47.4105 219.502 47.2938C219.502 46.9905 219.362 46.8388 219.082 46.8388C218.779 46.8388 218.627 46.9905 218.627 47.2938C218.627 47.4105 218.674 47.5155 218.767 47.6088C218.861 47.6788 218.966 47.7138 219.082 47.7138ZM219.082 44.6338C219.199 44.6338 219.292 44.5988 219.362 44.5288C219.456 44.4355 219.502 44.3305 219.502 44.2138C219.502 43.9105 219.362 43.7588 219.082 43.7588C218.779 43.7588 218.627 43.9105 218.627 44.2138C218.627 44.3305 218.674 44.4355 218.767 44.5288C218.861 44.5988 218.966 44.6338 219.082 44.6338ZM219.502 41.3088C219.806 41.3088 219.957 41.1688 219.957 40.8888C219.957 40.6088 219.806 40.4688 219.502 40.4688C219.222 40.4688 219.082 40.6088 219.082 40.8888C219.082 41.1688 219.222 41.3088 219.502 41.3088ZM222.617 47.4688C222.664 47.3521 222.676 47.2355 222.652 47.1188C222.629 47.0021 222.559 46.9205 222.442 46.8738C222.209 46.7105 222.011 46.7571 221.847 47.0138C221.801 47.1305 221.789 47.2471 221.812 47.3638C221.836 47.4805 221.906 47.5621 222.022 47.6088C222.256 47.7721 222.454 47.7255 222.617 47.4688ZM225.767 47.4688C225.814 47.3521 225.826 47.2355 225.802 47.1188C225.779 47.0021 225.721 46.9205 225.627 46.8738C225.371 46.7105 225.172 46.7571 225.032 47.0138C224.962 47.1305 224.939 47.2471 224.962 47.3638C224.986 47.4805 225.056 47.5621 225.172 47.6088C225.289 47.6788 225.406 47.7021 225.522 47.6788C225.639 47.6555 225.721 47.5855 225.767 47.4688ZM228.672 47.3638C228.719 47.2471 228.731 47.1305 228.707 47.0138C228.684 46.8971 228.626 46.8155 228.532 46.7688C228.276 46.6055 228.066 46.6521 227.902 46.9088C227.856 47.0255 227.844 47.1421 227.867 47.2588C227.891 47.3755 227.961 47.4571 228.077 47.5038C228.194 47.5505 228.311 47.5738 228.427 47.5738C228.544 47.5505 228.626 47.4805 228.672 47.3638ZM231.997 47.4688C232.067 47.3521 232.079 47.2355 232.032 47.1188C232.009 47.0021 231.939 46.9205 231.822 46.8738C231.566 46.7105 231.379 46.7571 231.262 47.0138C231.192 47.1305 231.169 47.2471 231.192 47.3638C231.216 47.4805 231.286 47.5621 231.402 47.6088C231.519 47.6788 231.636 47.7021 231.752 47.6788C231.869 47.6555 231.951 47.5855 231.997 47.4688ZM245.758 41.7638V39.0338H254.228V41.7638H245.758ZM270.637 24.7888L269.937 33.8188H268.012L267.312 24.7888H270.637ZM277.042 24.7888L276.342 33.8188H274.417L273.717 24.7888H277.042ZM297.244 25.8738C297.338 25.8738 297.396 25.9088 297.419 25.9788C297.443 26.0255 297.408 26.0838 297.314 26.1538C296.801 26.6205 296.544 27.5888 296.544 29.0588V30.6338V31.3338C296.544 31.4271 296.509 31.4855 296.439 31.5088C296.369 31.5321 296.311 31.5088 296.264 31.4388C295.798 30.9021 294.829 30.6338 293.359 30.6338H290.944V33.5388V38.6138V44.7738V46.5938C290.944 48.0871 291.201 49.0555 291.714 49.4988C291.784 49.5455 291.808 49.6038 291.784 49.6738C291.784 49.7438 291.726 49.7788 291.609 49.7788H285.449C285.356 49.7788 285.298 49.7438 285.274 49.6738C285.251 49.6038 285.286 49.5455 285.379 49.4988C285.893 49.0321 286.149 48.0638 286.149 46.5938V30.6338H283.734C282.218 30.6338 281.249 30.9021 280.829 31.4388C280.759 31.5088 280.689 31.5321 280.619 31.5088C280.573 31.4855 280.549 31.4271 280.549 31.3338V30.6338V29.0588C280.549 27.5888 280.281 26.6205 279.744 26.1538C279.674 26.0838 279.651 26.0255 279.674 25.9788C279.698 25.9088 279.756 25.8738 279.849 25.8738H280.549H285.309H289.334H292.519H296.544H297.244ZM282.439 28.4288C282.743 28.4288 282.894 28.2771 282.894 27.9738C282.894 27.6938 282.743 27.5538 282.439 27.5538C282.159 27.5538 282.019 27.6938 282.019 27.9738C282.019 28.2771 282.159 28.4288 282.439 28.4288ZM285.519 28.4288C285.799 28.4288 285.939 28.2771 285.939 27.9738C285.939 27.6938 285.799 27.5538 285.519 27.5538C285.216 27.5538 285.064 27.6938 285.064 27.9738C285.064 28.2771 285.216 28.4288 285.519 28.4288ZM288.564 47.9238C288.681 47.9238 288.786 47.8888 288.879 47.8188C288.973 47.7255 289.019 47.6205 289.019 47.5038C289.019 47.2005 288.868 47.0488 288.564 47.0488C288.284 47.0488 288.144 47.2005 288.144 47.5038C288.144 47.6205 288.179 47.7255 288.249 47.8188C288.343 47.8888 288.448 47.9238 288.564 47.9238ZM288.564 44.5988C288.681 44.5988 288.786 44.5638 288.879 44.4938C288.973 44.4005 289.019 44.2955 289.019 44.1788C289.019 43.8755 288.868 43.7238 288.564 43.7238C288.284 43.7238 288.144 43.8755 288.144 44.1788C288.144 44.2955 288.179 44.4005 288.249 44.4938C288.343 44.5638 288.448 44.5988 288.564 44.5988ZM288.564 41.3788C288.868 41.3788 289.019 41.2388 289.019 40.9588C289.019 40.6788 288.868 40.5388 288.564 40.5388C288.284 40.5388 288.144 40.6788 288.144 40.9588C288.144 41.2388 288.284 41.3788 288.564 41.3788ZM288.564 38.1588C288.681 38.1588 288.786 38.1238 288.879 38.0538C288.973 37.9605 289.019 37.8555 289.019 37.7388C289.019 37.4355 288.868 37.2838 288.564 37.2838C288.284 37.2838 288.144 37.4355 288.144 37.7388C288.144 37.8555 288.179 37.9605 288.249 38.0538C288.343 38.1238 288.448 38.1588 288.564 38.1588ZM288.599 34.8688C288.879 34.8688 289.019 34.7288 289.019 34.4488C289.019 34.1455 288.879 33.9938 288.599 33.9938C288.296 33.9938 288.144 34.1455 288.144 34.4488C288.144 34.7288 288.296 34.8688 288.599 34.8688ZM288.144 31.2288C288.144 31.5088 288.284 31.6488 288.564 31.6488C288.868 31.6488 289.019 31.5088 289.019 31.2288C289.019 30.9255 288.868 30.7738 288.564 30.7738C288.284 30.7738 288.144 30.9255 288.144 31.2288ZM288.599 28.4288C288.879 28.4288 289.019 28.2771 289.019 27.9738C289.019 27.6938 288.879 27.5538 288.599 27.5538C288.296 27.5538 288.144 27.6938 288.144 27.9738C288.144 28.2771 288.296 28.4288 288.599 28.4288ZM291.644 28.4288C291.924 28.4288 292.064 28.2771 292.064 27.9738C292.064 27.6938 291.924 27.5538 291.644 27.5538C291.341 27.5538 291.189 27.6938 291.189 27.9738C291.189 28.2771 291.341 28.4288 291.644 28.4288ZM294.724 28.4288C295.004 28.4288 295.144 28.2771 295.144 27.9738C295.144 27.6938 295.004 27.5538 294.724 27.5538C294.421 27.5538 294.269 27.6938 294.269 27.9738C294.269 28.2771 294.421 28.4288 294.724 28.4288ZM315.979 49.4988C316.049 49.5688 316.072 49.6388 316.049 49.7088C316.025 49.7555 315.967 49.7788 315.874 49.7788H309.714C309.62 49.7788 309.562 49.7555 309.539 49.7088C309.515 49.6388 309.539 49.5688 309.609 49.4988C310.145 49.0788 310.414 48.1105 310.414 46.5938V43.4088H304.009V46.5938C304.009 48.1105 304.277 49.0788 304.814 49.4988C305 49.6855 304.965 49.7788 304.709 49.7788H298.549C298.455 49.7788 298.397 49.7555 298.374 49.7088C298.35 49.6388 298.374 49.5688 298.444 49.4988C298.98 49.0788 299.249 48.1105 299.249 46.5938V41.8338V38.9988C299.249 37.9955 299.342 37.0388 299.529 36.1288C299.715 35.1955 300.007 34.2621 300.404 33.3288L302.224 29.0938C302.527 27.6005 302.457 26.6205 302.014 26.1538C301.944 26.0838 301.92 26.0255 301.944 25.9788C301.967 25.9088 302.025 25.8738 302.119 25.8738H312.304C312.537 25.8738 312.584 25.9671 312.444 26.1538C312 26.5738 311.919 27.5538 312.199 29.0938L314.019 33.3288C314.415 34.2621 314.707 35.1955 314.894 36.1288C315.08 37.0388 315.174 37.9955 315.174 38.9988V41.8338V46.5938C315.174 48.1105 315.442 49.0788 315.979 49.4988ZM312.374 36.9338C312.094 36.9338 311.954 37.0855 311.954 37.3888C311.954 37.5055 311.989 37.6105 312.059 37.7038C312.152 37.7738 312.257 37.8088 312.374 37.8088C312.49 37.8088 312.595 37.7738 312.689 37.7038C312.782 37.6105 312.829 37.5055 312.829 37.3888C312.829 37.0855 312.677 36.9338 312.374 36.9338ZM309.434 27.4138C309.154 27.4138 309.014 27.5538 309.014 27.8338C309.014 28.1371 309.154 28.2888 309.434 28.2888C309.714 28.2888 309.854 28.1371 309.854 27.8338C309.854 27.5538 309.714 27.4138 309.434 27.4138ZM304.989 27.7288C304.685 27.7288 304.534 27.8688 304.534 28.1488C304.534 28.4521 304.685 28.6038 304.989 28.6038C305.292 28.6038 305.444 28.4521 305.444 28.1488C305.444 27.8688 305.292 27.7288 304.989 27.7288ZM301.629 47.8888C301.932 47.8888 302.084 47.7371 302.084 47.4338C302.084 47.3171 302.037 47.2238 301.944 47.1538C301.85 47.0605 301.745 47.0138 301.629 47.0138C301.512 47.0138 301.407 47.0605 301.314 47.1538C301.22 47.2238 301.174 47.3171 301.174 47.4338C301.174 47.7371 301.325 47.8888 301.629 47.8888ZM301.734 44.5638C302.037 44.5638 302.189 44.4121 302.189 44.1088C302.189 43.9921 302.142 43.8988 302.049 43.8288C301.979 43.7355 301.874 43.6888 301.734 43.6888C301.617 43.6888 301.512 43.7355 301.419 43.8288C301.349 43.8988 301.314 43.9921 301.314 44.1088C301.314 44.4121 301.454 44.5638 301.734 44.5638ZM301.734 41.2388C302.037 41.2388 302.189 41.0988 302.189 40.8188C302.189 40.5155 302.037 40.3638 301.734 40.3638C301.454 40.3638 301.314 40.5155 301.314 40.8188C301.314 41.0988 301.454 41.2388 301.734 41.2388ZM301.944 38.0188C302.06 38.0188 302.165 37.9838 302.259 37.9138C302.352 37.8205 302.399 37.7155 302.399 37.5988C302.399 37.2955 302.247 37.1438 301.944 37.1438C301.664 37.1438 301.524 37.2955 301.524 37.5988C301.524 37.7155 301.559 37.8205 301.629 37.9138C301.722 37.9838 301.827 38.0188 301.944 38.0188ZM302.399 34.8338C302.679 34.8338 302.819 34.6938 302.819 34.4138C302.819 34.1338 302.679 33.9938 302.399 33.9938C302.095 33.9938 301.944 34.1338 301.944 34.4138C301.944 34.6938 302.095 34.8338 302.399 34.8338ZM303.834 31.6138C304.114 31.6138 304.254 31.4738 304.254 31.1938C304.254 30.8905 304.114 30.7388 303.834 30.7388C303.53 30.7388 303.379 30.8905 303.379 31.1938C303.379 31.4738 303.53 31.6138 303.834 31.6138ZM305.304 41.2388C305.607 41.2388 305.759 41.0988 305.759 40.8188C305.759 40.5155 305.607 40.3638 305.304 40.3638C305 40.3638 304.849 40.5155 304.849 40.8188C304.849 41.0988 305 41.2388 305.304 41.2388ZM308.909 41.2738C309.025 41.2738 309.119 41.2388 309.189 41.1688C309.282 41.0755 309.329 40.9705 309.329 40.8538C309.329 40.5505 309.189 40.3988 308.909 40.3988C308.605 40.3988 308.454 40.5505 308.454 40.8538C308.454 40.9705 308.489 41.0755 308.559 41.1688C308.652 41.2388 308.769 41.2738 308.909 41.2738ZM310.414 38.6488C310.344 37.4588 310.087 36.3155 309.644 35.2188L307.229 29.5838L304.814 35.2188C304.324 36.3155 304.067 37.4588 304.044 38.6488H310.414ZM310.484 31.3338C310.764 31.3338 310.904 31.1821 310.904 30.8788C310.904 30.5755 310.764 30.4238 310.484 30.4238C310.18 30.4238 310.029 30.5755 310.029 30.8788C310.029 31.1821 310.18 31.3338 310.484 31.3338ZM311.219 34.0988C311.219 34.4021 311.37 34.5538 311.674 34.5538C311.954 34.5538 312.094 34.4021 312.094 34.0988C312.094 33.8188 311.954 33.6788 311.674 33.6788C311.37 33.6788 311.219 33.8188 311.219 34.0988ZM311.954 40.7138C311.954 41.0171 312.094 41.1688 312.374 41.1688C312.677 41.1688 312.829 41.0171 312.829 40.7138C312.829 40.4338 312.677 40.2938 312.374 40.2938C312.094 40.2938 311.954 40.4338 311.954 40.7138ZM312.619 47.7838C312.735 47.7838 312.829 47.7488 312.899 47.6788C312.992 47.5855 313.039 47.4805 313.039 47.3638C313.039 47.2471 312.992 47.1421 312.899 47.0488C312.829 46.9555 312.735 46.9088 312.619 46.9088C312.315 46.9088 312.164 47.0605 312.164 47.3638C312.164 47.6438 312.315 47.7838 312.619 47.7838ZM312.619 44.3538C312.735 44.3538 312.829 44.3071 312.899 44.2138C312.992 44.1205 313.039 44.0155 313.039 43.8988C313.039 43.7821 312.992 43.6888 312.899 43.6188C312.829 43.5255 312.735 43.4788 312.619 43.4788C312.502 43.4788 312.397 43.5255 312.304 43.6188C312.21 43.6888 312.164 43.7821 312.164 43.8988C312.164 44.2021 312.315 44.3538 312.619 44.3538ZM333.026 46.5938C333.026 48.0638 333.294 49.0321 333.831 49.4988C333.901 49.5455 333.924 49.6038 333.901 49.6738C333.878 49.7438 333.819 49.7788 333.726 49.7788H327.566C327.449 49.7788 327.379 49.7438 327.356 49.6738C327.356 49.6038 327.391 49.5455 327.461 49.4988C327.998 49.0321 328.266 48.0638 328.266 46.5938V44.9838V44.2138C328.266 43.5605 328.138 42.9421 327.881 42.3588C327.624 41.7755 327.274 41.2621 326.831 40.8188C326.411 40.3755 325.909 40.0371 325.326 39.8038C324.743 39.5471 324.124 39.4188 323.471 39.4188H322.666V41.7988V44.9838V46.5938C322.666 48.0638 322.923 49.0321 323.436 49.4988C323.529 49.5455 323.564 49.6038 323.541 49.6738C323.518 49.7438 323.459 49.7788 323.366 49.7788H322.666H321.091H317.206C317.089 49.7788 317.019 49.7438 316.996 49.6738C316.996 49.6038 317.031 49.5455 317.101 49.4988C317.614 49.0555 317.871 48.0871 317.871 46.5938V29.0588C317.871 27.5421 317.614 26.5738 317.101 26.1538C316.914 25.9671 316.949 25.8738 317.206 25.8738H323.366C323.459 25.8738 323.518 25.9088 323.541 25.9788C323.564 26.0255 323.529 26.0838 323.436 26.1538C322.923 26.5971 322.666 27.5655 322.666 29.0588V30.8788V34.6238H323.471C324.124 34.6238 324.743 34.5071 325.326 34.2738C325.909 34.0171 326.411 33.6788 326.831 33.2588C327.274 32.8155 327.624 32.3021 327.881 31.7188C328.138 31.1355 328.266 30.5171 328.266 29.8638V29.0588C328.266 27.5421 327.998 26.5738 327.461 26.1538C327.274 25.9671 327.309 25.8738 327.566 25.8738H333.726C333.819 25.8738 333.878 25.9088 333.901 25.9788C333.924 26.0255 333.901 26.0838 333.831 26.1538C333.294 26.5738 333.026 27.5421 333.026 29.0588V29.8638C333.026 31.2405 332.746 32.5588 332.186 33.8188C331.626 35.0555 330.821 36.1171 329.771 37.0038C330.821 37.9371 331.626 39.0221 332.186 40.2588C332.746 41.4955 333.026 42.8138 333.026 44.2138V44.9838V46.5938ZM330.786 27.5888C330.506 27.5888 330.366 27.7288 330.366 28.0088C330.366 28.3121 330.506 28.4638 330.786 28.4638C331.089 28.4638 331.241 28.3121 331.241 28.0088C331.241 27.7288 331.089 27.5888 330.786 27.5888ZM330.436 30.7388C330.133 30.7388 329.981 30.8905 329.981 31.1938C329.981 31.4738 330.133 31.6138 330.436 31.6138C330.716 31.6138 330.856 31.4738 330.856 31.1938C330.856 30.8905 330.716 30.7388 330.436 30.7388ZM320.286 48.0638C320.566 48.0638 320.706 47.9238 320.706 47.6438C320.706 47.3405 320.566 47.1888 320.286 47.1888C319.983 47.1888 319.831 47.3405 319.831 47.6438C319.831 47.9238 319.983 48.0638 320.286 48.0638ZM320.286 44.7388C320.566 44.7388 320.706 44.5988 320.706 44.3188C320.706 44.0155 320.566 43.8638 320.286 43.8638C319.983 43.8638 319.831 44.0155 319.831 44.3188C319.831 44.5988 319.983 44.7388 320.286 44.7388ZM320.286 41.5538C320.403 41.5538 320.496 41.5188 320.566 41.4488C320.659 41.3555 320.706 41.2505 320.706 41.1338C320.706 40.8305 320.566 40.6788 320.286 40.6788C319.983 40.6788 319.831 40.8305 319.831 41.1338C319.831 41.2505 319.878 41.3555 319.971 41.4488C320.064 41.5188 320.169 41.5538 320.286 41.5538ZM320.286 38.2988C320.566 38.2988 320.706 38.1588 320.706 37.8788C320.706 37.5755 320.566 37.4238 320.286 37.4238C319.983 37.4238 319.831 37.5755 319.831 37.8788C319.831 38.1588 319.983 38.2988 320.286 38.2988ZM320.286 35.0438C320.589 35.0438 320.741 34.8921 320.741 34.5888C320.741 34.3088 320.589 34.1688 320.286 34.1688C320.006 34.1688 319.866 34.3088 319.866 34.5888C319.866 34.8921 320.006 35.0438 320.286 35.0438ZM319.831 31.3688C319.831 31.6721 319.983 31.8238 320.286 31.8238C320.566 31.8238 320.706 31.6721 320.706 31.3688C320.706 31.0888 320.566 30.9488 320.286 30.9488C319.983 30.9488 319.831 31.0888 319.831 31.3688ZM320.286 28.5688C320.589 28.5688 320.741 28.4171 320.741 28.1138C320.741 27.9971 320.694 27.9038 320.601 27.8338C320.508 27.7405 320.403 27.6938 320.286 27.6938C320.169 27.6938 320.064 27.7405 319.971 27.8338C319.901 27.9038 319.866 27.9971 319.866 28.1138C319.866 28.4171 320.006 28.5688 320.286 28.5688ZM323.121 37.4238C323.424 37.4238 323.576 37.2721 323.576 36.9688C323.576 36.8521 323.529 36.7588 323.436 36.6888C323.366 36.5955 323.261 36.5488 323.121 36.5488C323.004 36.5488 322.899 36.5955 322.806 36.6888C322.736 36.7588 322.701 36.8521 322.701 36.9688C322.701 37.2721 322.841 37.4238 323.121 37.4238ZM326.551 37.3188C326.854 37.3188 327.006 37.1671 327.006 36.8638C327.006 36.5838 326.854 36.4438 326.551 36.4438C326.271 36.4438 326.131 36.5838 326.131 36.8638C326.131 37.1671 326.271 37.3188 326.551 37.3188ZM328.581 39.5238C328.698 39.5238 328.791 39.4888 328.861 39.4188C328.954 39.3255 329.001 39.2205 329.001 39.1038C329.001 38.8005 328.861 38.6488 328.581 38.6488C328.278 38.6488 328.126 38.8005 328.126 39.1038C328.126 39.2205 328.173 39.3255 328.266 39.4188C328.359 39.4888 328.464 39.5238 328.581 39.5238ZM329.001 34.7988C329.304 34.7988 329.456 34.6588 329.456 34.3788C329.456 34.0755 329.304 33.9238 329.001 33.9238C328.721 33.9238 328.581 34.0755 328.581 34.3788C328.581 34.6588 328.721 34.7988 329.001 34.7988ZM329.666 41.7988C329.666 42.0788 329.818 42.2188 330.121 42.2188C330.401 42.2188 330.541 42.0788 330.541 41.7988C330.541 41.4955 330.401 41.3438 330.121 41.3438C329.818 41.3438 329.666 41.4955 329.666 41.7988ZM330.576 48.5188C330.693 48.5188 330.786 48.4838 330.856 48.4138C330.949 48.3205 330.996 48.2038 330.996 48.0638C330.996 47.9471 330.949 47.8538 330.856 47.7838C330.786 47.6905 330.693 47.6438 330.576 47.6438C330.273 47.6438 330.121 47.7838 330.121 48.0638C330.121 48.3671 330.273 48.5188 330.576 48.5188ZM330.891 45.4388C331.171 45.4388 331.311 45.2871 331.311 44.9838C331.311 44.7038 331.171 44.5638 330.891 44.5638C330.611 44.5638 330.471 44.7038 330.471 44.9838C330.471 45.2871 330.611 45.4388 330.891 45.4388ZM351.751 46.5938C351.751 48.1105 352.008 49.0905 352.521 49.5338C352.591 49.5805 352.614 49.6388 352.591 49.7088C352.591 49.7555 352.533 49.7788 352.416 49.7788H335.126C335.009 49.7788 334.939 49.7555 334.916 49.7088C334.916 49.6388 334.951 49.5805 335.021 49.5338C335.534 49.0905 335.791 48.1105 335.791 46.5938V45.0188V29.0588C335.791 26.9355 335.266 25.8738 334.216 25.8738H352.416C352.533 25.8738 352.591 25.9088 352.591 25.9788C352.614 26.0488 352.591 26.1071 352.521 26.1538C352.008 26.5971 351.751 27.5655 351.751 29.0588V30.6688V31.3688C351.751 31.4621 351.716 31.5205 351.646 31.5438C351.576 31.5671 351.518 31.5321 351.471 31.4388C351.028 30.9255 350.059 30.6688 348.566 30.6688H340.586V32.2438V35.4288H345.381C346.874 35.4288 347.843 35.1721 348.286 34.6588C348.333 34.5888 348.391 34.5655 348.461 34.5888C348.531 34.6121 348.566 34.6705 348.566 34.7638V35.4288V37.0388V40.2238V40.9238C348.566 41.0171 348.531 41.0755 348.461 41.0988C348.391 41.1221 348.333 41.0988 348.286 41.0288C347.819 40.4921 346.851 40.2238 345.381 40.2238H340.586V41.7988V45.0188H348.566C350.036 45.0188 351.004 44.7505 351.471 44.2138C351.518 44.1438 351.576 44.1205 351.646 44.1438C351.716 44.1671 351.751 44.2255 351.751 44.3188V45.0188V46.5938ZM346.816 37.4938C346.536 37.4938 346.396 37.6455 346.396 37.9488C346.396 38.2288 346.536 38.3688 346.816 38.3688C347.119 38.3688 347.271 38.2288 347.271 37.9488C347.271 37.6455 347.119 37.4938 346.816 37.4938ZM349.861 27.7638C349.744 27.7638 349.639 27.8105 349.546 27.9038C349.476 27.9738 349.441 28.0671 349.441 28.1838C349.441 28.3005 349.476 28.4055 349.546 28.4988C349.639 28.5921 349.744 28.6388 349.861 28.6388C350.164 28.6388 350.316 28.4871 350.316 28.1838C350.316 27.9038 350.164 27.7638 349.861 27.7638ZM347.026 27.7638C346.723 27.7638 346.571 27.9038 346.571 28.1838C346.571 28.4871 346.723 28.6388 347.026 28.6388C347.143 28.6388 347.236 28.5921 347.306 28.4988C347.399 28.4055 347.446 28.3005 347.446 28.1838C347.446 28.0671 347.399 27.9738 347.306 27.9038C347.236 27.8105 347.143 27.7638 347.026 27.7638ZM344.086 27.7638C343.783 27.7638 343.631 27.9038 343.631 28.1838C343.631 28.4871 343.783 28.6388 344.086 28.6388C344.203 28.6388 344.296 28.5921 344.366 28.4988C344.459 28.4055 344.506 28.3005 344.506 28.1838C344.506 28.0671 344.459 27.9738 344.366 27.9038C344.296 27.8105 344.203 27.7638 344.086 27.7638ZM341.076 27.7638C340.796 27.7638 340.656 27.9038 340.656 28.1838C340.656 28.4871 340.796 28.6388 341.076 28.6388C341.356 28.6388 341.496 28.4871 341.496 28.1838C341.496 27.9038 341.356 27.7638 341.076 27.7638ZM343.876 37.4938C343.596 37.4938 343.456 37.6455 343.456 37.9488C343.456 38.2288 343.596 38.3688 343.876 38.3688C344.179 38.3688 344.331 38.2288 344.331 37.9488C344.331 37.6455 344.179 37.4938 343.876 37.4938ZM341.006 37.4938C340.703 37.4938 340.551 37.6455 340.551 37.9488C340.551 38.2288 340.703 38.3688 341.006 38.3688C341.123 38.3688 341.216 38.3338 341.286 38.2638C341.379 38.1705 341.426 38.0655 341.426 37.9488C341.426 37.8321 341.379 37.7271 341.286 37.6338C341.216 37.5405 341.123 37.4938 341.006 37.4938ZM338.031 48.1338C338.334 48.1338 338.486 47.9938 338.486 47.7138C338.486 47.4105 338.334 47.2588 338.031 47.2588C337.751 47.2588 337.611 47.4105 337.611 47.7138C337.611 47.9938 337.751 48.1338 338.031 48.1338ZM338.031 44.8088C338.334 44.8088 338.486 44.6688 338.486 44.3888C338.486 44.0855 338.334 43.9338 338.031 43.9338C337.751 43.9338 337.611 44.0855 337.611 44.3888C337.611 44.6688 337.751 44.8088 338.031 44.8088ZM338.031 41.6238C338.334 41.6238 338.486 41.4721 338.486 41.1688C338.486 40.8888 338.334 40.7488 338.031 40.7488C337.751 40.7488 337.611 40.8888 337.611 41.1688C337.611 41.4721 337.751 41.6238 338.031 41.6238ZM338.031 38.3688C338.334 38.3688 338.486 38.2288 338.486 37.9488C338.486 37.6455 338.334 37.4938 338.031 37.4938C337.751 37.4938 337.611 37.6455 337.611 37.9488C337.611 38.2288 337.751 38.3688 338.031 38.3688ZM338.066 35.1138C338.369 35.1138 338.521 34.9621 338.521 34.6588C338.521 34.3788 338.369 34.2388 338.066 34.2388C337.763 34.2388 337.611 34.3788 337.611 34.6588C337.611 34.9621 337.763 35.1138 338.066 35.1138ZM337.611 31.4388C337.611 31.7188 337.751 31.8588 338.031 31.8588C338.334 31.8588 338.486 31.7188 338.486 31.4388C338.486 31.1355 338.334 30.9838 338.031 30.9838C337.751 30.9838 337.611 31.1355 337.611 31.4388ZM338.066 28.6388C338.369 28.6388 338.521 28.4871 338.521 28.1838C338.521 27.9038 338.369 27.7638 338.066 27.7638C337.763 27.7638 337.611 27.9038 337.611 28.1838C337.611 28.4871 337.763 28.6388 338.066 28.6388ZM340.971 48.1338C341.274 48.1338 341.426 47.9938 341.426 47.7138C341.426 47.4105 341.274 47.2588 340.971 47.2588C340.691 47.2588 340.551 47.4105 340.551 47.7138C340.551 47.9938 340.691 48.1338 340.971 48.1338ZM343.876 48.1338C343.993 48.1338 344.086 48.0988 344.156 48.0288C344.249 47.9355 344.296 47.8305 344.296 47.7138C344.296 47.5971 344.249 47.4921 344.156 47.3988C344.086 47.3055 343.993 47.2588 343.876 47.2588C343.573 47.2588 343.421 47.4105 343.421 47.7138C343.421 47.9938 343.573 48.1338 343.876 48.1338ZM346.816 48.1338C347.096 48.1338 347.236 47.9938 347.236 47.7138C347.236 47.4105 347.096 47.2588 346.816 47.2588C346.513 47.2588 346.361 47.4105 346.361 47.7138C346.361 47.9938 346.513 48.1338 346.816 48.1338ZM349.896 48.1338C350.013 48.1338 350.106 48.0988 350.176 48.0288C350.269 47.9355 350.316 47.8305 350.316 47.7138C350.316 47.5971 350.269 47.4921 350.176 47.3988C350.106 47.3055 350.013 47.2588 349.896 47.2588C349.593 47.2588 349.441 47.4105 349.441 47.7138C349.441 47.9938 349.593 48.1338 349.896 48.1338ZM373.118 26.0838C374.214 26.0838 375.241 26.2938 376.198 26.7138C377.178 27.1338 378.029 27.7055 378.753 28.4288C379.476 29.1521 380.048 30.0038 380.468 30.9838C380.888 31.9405 381.098 32.9671 381.098 34.0638V42.0438C381.098 43.1405 380.888 44.1788 380.468 45.1588C380.048 46.1155 379.476 46.9555 378.753 47.6788C378.029 48.4021 377.178 48.9738 376.198 49.3938C375.241 49.7905 374.214 49.9888 373.118 49.9888H371.543C370.446 49.9888 369.408 49.7905 368.428 49.3938C367.471 48.9738 366.631 48.4021 365.908 47.6788C365.184 46.9555 364.613 46.1155 364.193 45.1588C363.773 44.1788 363.563 43.1405 363.563 42.0438V34.0638C363.563 32.9671 363.773 31.9405 364.193 30.9838C364.613 30.0038 365.184 29.1521 365.908 28.4288C366.631 27.7055 367.471 27.1338 368.428 26.7138C369.408 26.2938 370.446 26.0838 371.543 26.0838H373.118ZM379.068 35.6038C379.068 35.4871 379.021 35.3938 378.928 35.3238C378.834 35.2305 378.729 35.1838 378.613 35.1838C378.496 35.1838 378.391 35.2305 378.298 35.3238C378.228 35.3938 378.193 35.4871 378.193 35.6038C378.193 35.7205 378.228 35.8255 378.298 35.9188C378.391 36.0121 378.496 36.0588 378.613 36.0588C378.916 36.0588 379.068 35.9071 379.068 35.6038ZM379.068 38.5438C379.068 38.2638 378.916 38.1238 378.613 38.1238C378.333 38.1238 378.193 38.2638 378.193 38.5438C378.193 38.8471 378.333 38.9988 378.613 38.9988C378.916 38.9988 379.068 38.8471 379.068 38.5438ZM378.193 31.9638C378.076 31.9638 377.971 32.0105 377.878 32.1038C377.808 32.1738 377.773 32.2671 377.773 32.3838C377.773 32.5005 377.808 32.6055 377.878 32.6988C377.971 32.7921 378.076 32.8388 378.193 32.8388C378.496 32.8388 378.648 32.6871 378.648 32.3838C378.648 32.1038 378.496 31.9638 378.193 31.9638ZM373.993 28.1488C373.876 28.1488 373.771 28.1955 373.678 28.2888C373.608 28.3821 373.573 28.4871 373.573 28.6038C373.573 28.7205 373.608 28.8255 373.678 28.9188C373.771 28.9888 373.876 29.0238 373.993 29.0238C374.109 29.0238 374.214 28.9888 374.308 28.9188C374.401 28.8255 374.448 28.7205 374.448 28.6038C374.448 28.3005 374.296 28.1488 373.993 28.1488ZM370.458 27.9388C370.178 27.9388 370.038 28.0905 370.038 28.3938C370.038 28.6738 370.178 28.8138 370.458 28.8138C370.761 28.8138 370.913 28.6738 370.913 28.3938C370.913 28.0905 370.761 27.9388 370.458 27.9388ZM366.118 43.0238C366.421 43.0238 366.573 42.8838 366.573 42.6038C366.573 42.3005 366.421 42.1488 366.118 42.1488C366.001 42.1488 365.896 42.1955 365.803 42.2888C365.733 42.3821 365.698 42.4871 365.698 42.6038C365.698 42.7205 365.733 42.8255 365.803 42.9188C365.896 42.9888 366.001 43.0238 366.118 43.0238ZM365.593 39.3138C365.593 39.5938 365.733 39.7338 366.013 39.7338C366.316 39.7338 366.468 39.5938 366.468 39.3138C366.468 39.0105 366.316 38.8588 366.013 38.8588C365.733 38.8588 365.593 39.0105 365.593 39.3138ZM366.118 36.7238C366.421 36.7238 366.573 36.5721 366.573 36.2688C366.573 35.9888 366.421 35.8488 366.118 35.8488C366.001 35.8488 365.896 35.8955 365.803 35.9888C365.733 36.0588 365.698 36.1521 365.698 36.2688C365.698 36.3855 365.733 36.4905 365.803 36.5838C365.896 36.6771 366.001 36.7238 366.118 36.7238ZM366.363 33.3288C366.643 33.3288 366.783 33.1771 366.783 32.8738C366.783 32.5938 366.643 32.4538 366.363 32.4538C366.059 32.4538 365.908 32.5938 365.908 32.8738C365.908 33.1771 366.059 33.3288 366.363 33.3288ZM367.238 45.9288C367.518 45.9288 367.658 45.7888 367.658 45.5088C367.658 45.2055 367.518 45.0538 367.238 45.0538C366.958 45.0538 366.818 45.2055 366.818 45.5088C366.818 45.7888 366.958 45.9288 367.238 45.9288ZM367.658 30.2488C367.798 30.2488 367.903 30.2138 367.973 30.1438C368.066 30.0505 368.113 29.9455 368.113 29.8288C368.113 29.5255 367.961 29.3738 367.658 29.3738C367.541 29.3738 367.436 29.4205 367.343 29.5138C367.273 29.5838 367.238 29.6888 367.238 29.8288C367.238 29.9455 367.273 30.0505 367.343 30.1438C367.436 30.2138 367.541 30.2488 367.658 30.2488ZM370.038 47.6788C370.318 47.6788 370.458 47.5388 370.458 47.2588C370.458 46.9788 370.318 46.8388 370.038 46.8388C369.734 46.8388 369.583 46.9788 369.583 47.2588C369.583 47.5388 369.734 47.6788 370.038 47.6788ZM373.118 47.9938C373.398 47.9938 373.538 47.8538 373.538 47.5738C373.538 47.2938 373.398 47.1538 373.118 47.1538C372.814 47.1538 372.663 47.2938 372.663 47.5738C372.663 47.8538 372.814 47.9938 373.118 47.9938ZM373.118 45.2288C374.004 45.2288 374.751 44.9255 375.358 44.3188C375.988 43.6888 376.303 42.9305 376.303 42.0438V38.8588V37.2488V34.0638C376.303 33.1771 375.988 32.4305 375.358 31.8238C374.751 31.1938 374.004 30.8788 373.118 30.8788H371.543C371.099 30.8788 370.679 30.9605 370.283 31.1238C369.909 31.2871 369.571 31.5205 369.268 31.8238C368.988 32.1038 368.766 32.4421 368.603 32.8388C368.439 33.2121 368.358 33.6205 368.358 34.0638V37.2488V38.8588V42.0438C368.358 42.4871 368.439 42.9071 368.603 43.3038C368.766 43.6771 368.988 44.0155 369.268 44.3188C369.571 44.5988 369.909 44.8205 370.283 44.9838C370.679 45.1471 371.099 45.2288 371.543 45.2288H373.118ZM375.953 47.2588C376.069 47.2588 376.174 47.2238 376.268 47.1538C376.361 47.0605 376.408 46.9555 376.408 46.8388C376.408 46.5355 376.256 46.3838 375.953 46.3838C375.836 46.3838 375.731 46.4305 375.638 46.5238C375.568 46.5938 375.533 46.6988 375.533 46.8388C375.533 46.9555 375.568 47.0605 375.638 47.1538C375.731 47.2238 375.836 47.2588 375.953 47.2588ZM376.863 30.1088C377.166 30.1088 377.318 29.9571 377.318 29.6538C377.318 29.3738 377.166 29.2338 376.863 29.2338C376.583 29.2338 376.443 29.3738 376.443 29.6538C376.443 29.9571 376.583 30.1088 376.863 30.1088ZM377.948 44.6688C378.228 44.6688 378.368 44.5171 378.368 44.2138C378.368 43.9338 378.228 43.7938 377.948 43.7938C377.668 43.7938 377.528 43.9338 377.528 44.2138C377.528 44.5171 377.668 44.6688 377.948 44.6688ZM378.718 41.9038C379.021 41.9038 379.173 41.7638 379.173 41.4838C379.173 41.2038 379.021 41.0638 378.718 41.0638C378.438 41.0638 378.298 41.2038 378.298 41.4838C378.298 41.7638 378.438 41.9038 378.718 41.9038ZM399.918 25.8738C400.035 25.8738 400.093 25.9088 400.093 25.9788C400.117 26.0488 400.093 26.1071 400.023 26.1538C399.51 26.5971 399.253 27.5655 399.253 29.0588V30.6688V31.3338C399.253 31.4505 399.218 31.5205 399.148 31.5438C399.078 31.5438 399.02 31.5088 398.973 31.4388C398.507 30.9255 397.538 30.6688 396.068 30.6688H388.088V33.8538V35.4288H392.848C394.365 35.4288 395.333 35.1721 395.753 34.6588C395.823 34.5888 395.893 34.5655 395.963 34.5888C396.033 34.6121 396.068 34.6705 396.068 34.7638V35.4288V37.0388V40.2238V40.9238C396.068 41.0171 396.033 41.0755 395.963 41.0988C395.893 41.1221 395.823 41.0988 395.753 41.0288C395.333 40.4921 394.365 40.2238 392.848 40.2238H388.088V41.8338V45.0188V46.5938C388.088 48.0871 388.345 49.0671 388.858 49.5338C388.928 49.5805 388.952 49.6388 388.928 49.7088C388.928 49.7555 388.87 49.7788 388.753 49.7788H382.628C382.512 49.7788 382.442 49.7555 382.418 49.7088C382.395 49.6388 382.43 49.5805 382.523 49.5338C383.037 49.0905 383.293 48.1105 383.293 46.5938V45.0188V29.0588C383.293 27.5655 383.037 26.5971 382.523 26.1538C382.43 26.1071 382.395 26.0488 382.418 25.9788C382.442 25.9088 382.512 25.8738 382.628 25.8738H399.918ZM394.283 37.4588C394.003 37.4588 393.863 37.6105 393.863 37.9138C393.863 38.1938 394.003 38.3338 394.283 38.3338C394.587 38.3338 394.738 38.1938 394.738 37.9138C394.738 37.6105 394.587 37.4588 394.283 37.4588ZM385.603 48.1338C385.883 48.1338 386.023 47.9821 386.023 47.6788C386.023 47.3988 385.883 47.2588 385.603 47.2588C385.323 47.2588 385.183 47.3988 385.183 47.6788C385.183 47.9821 385.323 48.1338 385.603 48.1338ZM385.603 44.7738C385.883 44.7738 386.023 44.6338 386.023 44.3538C386.023 44.0505 385.883 43.8988 385.603 43.8988C385.323 43.8988 385.183 44.0505 385.183 44.3538C385.183 44.6338 385.323 44.7738 385.603 44.7738ZM385.603 41.5888C385.883 41.5888 386.023 41.4371 386.023 41.1338C386.023 41.0171 385.977 40.9238 385.883 40.8538C385.813 40.7605 385.72 40.7138 385.603 40.7138C385.487 40.7138 385.382 40.7605 385.288 40.8538C385.218 40.9238 385.183 41.0171 385.183 41.1338C385.183 41.4371 385.323 41.5888 385.603 41.5888ZM385.603 38.3338C385.883 38.3338 386.023 38.1938 386.023 37.9138C386.023 37.6105 385.883 37.4588 385.603 37.4588C385.323 37.4588 385.183 37.6105 385.183 37.9138C385.183 38.1938 385.323 38.3338 385.603 38.3338ZM385.638 35.0788C385.918 35.0788 386.058 34.9271 386.058 34.6238C386.058 34.3438 385.918 34.2038 385.638 34.2038C385.358 34.2038 385.218 34.3438 385.218 34.6238C385.218 34.9271 385.358 35.0788 385.638 35.0788ZM385.183 31.4038C385.183 31.7071 385.323 31.8588 385.603 31.8588C385.883 31.8588 386.023 31.7071 386.023 31.4038C386.023 31.1238 385.883 30.9838 385.603 30.9838C385.323 30.9838 385.183 31.1238 385.183 31.4038ZM385.638 28.6038C385.918 28.6038 386.058 28.4521 386.058 28.1488C386.058 27.8688 385.918 27.7288 385.638 27.7288C385.358 27.7288 385.218 27.8688 385.218 28.1488C385.218 28.4521 385.358 28.6038 385.638 28.6038ZM391.343 37.4588C391.04 37.4588 390.888 37.6105 390.888 37.9138C390.888 38.1938 391.04 38.3338 391.343 38.3338C391.647 38.3338 391.798 38.1938 391.798 37.9138C391.798 37.6105 391.647 37.4588 391.343 37.4588ZM388.438 37.3538C388.322 37.3538 388.217 37.4005 388.123 37.4938C388.053 37.5871 388.018 37.6921 388.018 37.8088C388.018 37.9255 388.053 38.0305 388.123 38.1238C388.217 38.1938 388.322 38.2288 388.438 38.2288C388.555 38.2288 388.66 38.1938 388.753 38.1238C388.847 38.0305 388.893 37.9255 388.893 37.8088C388.893 37.5055 388.742 37.3538 388.438 37.3538ZM388.438 28.6038C388.718 28.6038 388.858 28.4521 388.858 28.1488C388.858 27.8688 388.718 27.7288 388.438 27.7288C388.135 27.7288 387.983 27.8688 387.983 28.1488C387.983 28.4521 388.135 28.6038 388.438 28.6038ZM391.308 28.6038C391.612 28.6038 391.763 28.4521 391.763 28.1488C391.763 27.8688 391.612 27.7288 391.308 27.7288C391.192 27.7288 391.087 27.7755 390.993 27.8688C390.923 27.9388 390.888 28.0321 390.888 28.1488C390.888 28.2888 390.923 28.4055 390.993 28.4988C391.087 28.5688 391.192 28.6038 391.308 28.6038ZM394.248 28.6038C394.552 28.6038 394.703 28.4521 394.703 28.1488C394.703 27.8688 394.552 27.7288 394.248 27.7288C393.968 27.7288 393.828 27.8688 393.828 28.1488C393.828 28.4521 393.968 28.6038 394.248 28.6038ZM397.223 28.6038C397.527 28.6038 397.678 28.4521 397.678 28.1488C397.678 27.8688 397.527 27.7288 397.223 27.7288C396.943 27.7288 396.803 27.8688 396.803 28.1488C396.803 28.4521 396.943 28.6038 397.223 28.6038ZM417.965 25.8738C418.082 25.8738 418.14 25.9088 418.14 25.9788C418.164 26.0488 418.14 26.1071 418.07 26.1538C417.557 26.5971 417.3 27.5655 417.3 29.0588V30.6688V31.3338C417.3 31.4505 417.265 31.5205 417.195 31.5438C417.125 31.5438 417.067 31.5088 417.02 31.4388C416.554 30.9255 415.585 30.6688 414.115 30.6688H406.135V33.8538V35.4288H410.895C412.412 35.4288 413.38 35.1721 413.8 34.6588C413.87 34.5888 413.94 34.5655 414.01 34.5888C414.08 34.6121 414.115 34.6705 414.115 34.7638V35.4288V37.0388V40.2238V40.9238C414.115 41.0171 414.08 41.0755 414.01 41.0988C413.94 41.1221 413.87 41.0988 413.8 41.0288C413.38 40.4921 412.412 40.2238 410.895 40.2238H406.135V41.8338V45.0188V46.5938C406.135 48.0871 406.392 49.0671 406.905 49.5338C406.975 49.5805 406.999 49.6388 406.975 49.7088C406.975 49.7555 406.917 49.7788 406.8 49.7788H400.675C400.559 49.7788 400.489 49.7555 400.465 49.7088C400.442 49.6388 400.477 49.5805 400.57 49.5338C401.084 49.0905 401.34 48.1105 401.34 46.5938V45.0188V29.0588C401.34 27.5655 401.084 26.5971 400.57 26.1538C400.477 26.1071 400.442 26.0488 400.465 25.9788C400.489 25.9088 400.559 25.8738 400.675 25.8738H417.965ZM412.33 37.4588C412.05 37.4588 411.91 37.6105 411.91 37.9138C411.91 38.1938 412.05 38.3338 412.33 38.3338C412.634 38.3338 412.785 38.1938 412.785 37.9138C412.785 37.6105 412.634 37.4588 412.33 37.4588ZM403.65 48.1338C403.93 48.1338 404.07 47.9821 404.07 47.6788C404.07 47.3988 403.93 47.2588 403.65 47.2588C403.37 47.2588 403.23 47.3988 403.23 47.6788C403.23 47.9821 403.37 48.1338 403.65 48.1338ZM403.65 44.7738C403.93 44.7738 404.07 44.6338 404.07 44.3538C404.07 44.0505 403.93 43.8988 403.65 43.8988C403.37 43.8988 403.23 44.0505 403.23 44.3538C403.23 44.6338 403.37 44.7738 403.65 44.7738ZM403.65 41.5888C403.93 41.5888 404.07 41.4371 404.07 41.1338C404.07 41.0171 404.024 40.9238 403.93 40.8538C403.86 40.7605 403.767 40.7138 403.65 40.7138C403.534 40.7138 403.429 40.7605 403.335 40.8538C403.265 40.9238 403.23 41.0171 403.23 41.1338C403.23 41.4371 403.37 41.5888 403.65 41.5888ZM403.65 38.3338C403.93 38.3338 404.07 38.1938 404.07 37.9138C404.07 37.6105 403.93 37.4588 403.65 37.4588C403.37 37.4588 403.23 37.6105 403.23 37.9138C403.23 38.1938 403.37 38.3338 403.65 38.3338ZM403.685 35.0788C403.965 35.0788 404.105 34.9271 404.105 34.6238C404.105 34.3438 403.965 34.2038 403.685 34.2038C403.405 34.2038 403.265 34.3438 403.265 34.6238C403.265 34.9271 403.405 35.0788 403.685 35.0788ZM403.23 31.4038C403.23 31.7071 403.37 31.8588 403.65 31.8588C403.93 31.8588 404.07 31.7071 404.07 31.4038C404.07 31.1238 403.93 30.9838 403.65 30.9838C403.37 30.9838 403.23 31.1238 403.23 31.4038ZM403.685 28.6038C403.965 28.6038 404.105 28.4521 404.105 28.1488C404.105 27.8688 403.965 27.7288 403.685 27.7288C403.405 27.7288 403.265 27.8688 403.265 28.1488C403.265 28.4521 403.405 28.6038 403.685 28.6038ZM409.39 37.4588C409.087 37.4588 408.935 37.6105 408.935 37.9138C408.935 38.1938 409.087 38.3338 409.39 38.3338C409.694 38.3338 409.845 38.1938 409.845 37.9138C409.845 37.6105 409.694 37.4588 409.39 37.4588ZM406.485 37.3538C406.369 37.3538 406.264 37.4005 406.17 37.4938C406.1 37.5871 406.065 37.6921 406.065 37.8088C406.065 37.9255 406.1 38.0305 406.17 38.1238C406.264 38.1938 406.369 38.2288 406.485 38.2288C406.602 38.2288 406.707 38.1938 406.8 38.1238C406.894 38.0305 406.94 37.9255 406.94 37.8088C406.94 37.5055 406.789 37.3538 406.485 37.3538ZM406.485 28.6038C406.765 28.6038 406.905 28.4521 406.905 28.1488C406.905 27.8688 406.765 27.7288 406.485 27.7288C406.182 27.7288 406.03 27.8688 406.03 28.1488C406.03 28.4521 406.182 28.6038 406.485 28.6038ZM409.355 28.6038C409.659 28.6038 409.81 28.4521 409.81 28.1488C409.81 27.8688 409.659 27.7288 409.355 27.7288C409.239 27.7288 409.134 27.7755 409.04 27.8688C408.97 27.9388 408.935 28.0321 408.935 28.1488C408.935 28.2888 408.97 28.4055 409.04 28.4988C409.134 28.5688 409.239 28.6038 409.355 28.6038ZM412.295 28.6038C412.599 28.6038 412.75 28.4521 412.75 28.1488C412.75 27.8688 412.599 27.7288 412.295 27.7288C412.015 27.7288 411.875 27.8688 411.875 28.1488C411.875 28.4521 412.015 28.6038 412.295 28.6038ZM415.27 28.6038C415.574 28.6038 415.725 28.4521 415.725 28.1488C415.725 27.8688 415.574 27.7288 415.27 27.7288C414.99 27.7288 414.85 27.8688 414.85 28.1488C414.85 28.4521 414.99 28.6038 415.27 28.6038ZM423.762 24.7888L423.062 33.8188H421.137L420.437 24.7888H423.762ZM430.167 24.7888L429.467 33.8188H427.542L426.842 24.7888H430.167Z" fill="white"/>
</svg>
