<svg width="181" height="35" viewBox="0 0 181 35" fill="none" xmlns="http://www.w3.org/2000/svg">
<path d="M13.4 0.849999C15.1333 0.849999 16.7167 1.18333 18.15 1.85C19.5833 2.51667 20.7833 3.4 21.75 4.5C22.75 5.56667 23.5167 6.8 24.05 8.2C24.5833 9.6 24.8333 11.05 24.8 12.55C24.8 14.0167 24.4833 15.4667 23.85 16.9C23.2167 18.3333 22.25 19.6167 20.95 20.75C19.8167 21.75 18.65 22.4833 17.45 22.95C16.2833 23.3833 14.9333 23.6 13.4 23.6H8.85V30.45C8.85 32.55 9.23333 33.9333 10 34.6C10.1 34.6667 10.1333 34.75 10.1 34.85C10.0667 34.95 9.98333 35 9.85 35H6.6H1.05C0.916667 35 0.833333 34.95 0.8 34.85C0.766667 34.75 0.8 34.6667 0.9 34.6C1.66667 33.9333 2.05 32.55 2.05 30.45V5.4C2.05 3.23333 1.66667 1.85 0.9 1.25C0.8 1.15 0.766667 1.06667 0.8 1C0.833333 0.899999 0.916667 0.849999 1.05 0.849999H6.6H13.4ZM5.55 32.4C5.71667 32.4 5.85 32.3333 5.95 32.2C6.08333 32.0667 6.15 31.9167 6.15 31.75C6.15 31.5833 6.08333 31.45 5.95 31.35C5.85 31.2167 5.71667 31.15 5.55 31.15C5.38333 31.15 5.23333 31.2167 5.1 31.35C4.96667 31.45 4.9 31.5833 4.9 31.75C4.9 32.1833 5.11667 32.4 5.55 32.4ZM5.55 27.65C5.71667 27.65 5.85 27.5833 5.95 27.45C6.08333 27.3167 6.15 27.1667 6.15 27C6.15 26.8333 6.08333 26.7 5.95 26.6C5.85 26.4667 5.71667 26.4 5.55 26.4C5.38333 26.4 5.23333 26.4667 5.1 26.6C4.96667 26.7 4.9 26.8333 4.9 27C4.9 27.4333 5.11667 27.65 5.55 27.65ZM5.55 23.1C5.71667 23.1 5.85 23.0333 5.95 22.9C6.08333 22.7667 6.15 22.6167 6.15 22.45C6.15 22.2833 6.08333 22.1333 5.95 22C5.85 21.8667 5.71667 21.8 5.55 21.8C5.11667 21.8 4.9 22.0167 4.9 22.45C4.9 22.8833 5.11667 23.1 5.55 23.1ZM5.55 18.45C5.71667 18.45 5.85 18.3833 5.95 18.25C6.08333 18.1167 6.15 17.9667 6.15 17.8C6.15 17.6333 6.08333 17.5 5.95 17.4C5.85 17.2667 5.71667 17.2 5.55 17.2C5.11667 17.2 4.9 17.4 4.9 17.8C4.9 18.2333 5.11667 18.45 5.55 18.45ZM5.55 13.75C5.98333 13.75 6.2 13.55 6.2 13.15C6.2 12.7167 5.98333 12.5 5.55 12.5C5.15 12.5 4.95 12.7167 4.95 13.15C4.95 13.55 5.15 13.75 5.55 13.75ZM4.9 8.55C4.9 8.95 5.11667 9.15 5.55 9.15C5.71667 9.15 5.85 9.1 5.95 9C6.08333 8.86666 6.15 8.71666 6.15 8.55C6.15 8.38333 6.08333 8.23333 5.95 8.1C5.85 7.96666 5.71667 7.9 5.55 7.9C5.11667 7.9 4.9 8.11666 4.9 8.55ZM5.55 4.5C5.98333 4.5 6.2 4.3 6.2 3.9C6.2 3.5 5.98333 3.3 5.55 3.3C5.15 3.3 4.95 3.5 4.95 3.9C4.95 4.3 5.15 4.5 5.55 4.5ZM15.05 3.75C14.6167 3.75 14.4 3.95 14.4 4.35C14.4 4.78333 14.6167 5 15.05 5C15.45 5 15.65 4.78333 15.65 4.35C15.65 3.95 15.45 3.75 15.05 3.75ZM10.15 3.3C9.98333 3.3 9.83333 3.36667 9.7 3.5C9.6 3.6 9.55 3.73333 9.55 3.9C9.55 4.06666 9.6 4.21666 9.7 4.35C9.83333 4.45 9.98333 4.5 10.15 4.5C10.5833 4.5 10.8 4.3 10.8 3.9C10.8 3.5 10.5833 3.3 10.15 3.3ZM10.15 20.6C10.35 20.6 10.5 20.55 10.6 20.45C10.7333 20.3167 10.8 20.1667 10.8 20C10.8 19.5667 10.5833 19.35 10.15 19.35C9.98333 19.35 9.83333 19.4167 9.7 19.55C9.6 19.6833 9.55 19.8333 9.55 20C9.55 20.1667 9.6 20.3167 9.7 20.45C9.83333 20.55 9.98333 20.6 10.15 20.6ZM15.5 20.6C15.6667 20.6 15.8167 20.55 15.95 20.45C16.0833 20.3167 16.15 20.1667 16.15 20C16.15 19.5667 15.9333 19.35 15.5 19.35C15.0667 19.35 14.85 19.5667 14.85 20C14.85 20.1667 14.9167 20.3167 15.05 20.45C15.1833 20.55 15.3333 20.6 15.5 20.6ZM13.4 16.75C14.6667 16.75 15.7333 16.3167 16.6 15.45C17.5 14.55 17.95 13.4667 17.95 12.2C17.95 11.5667 17.8333 10.9833 17.6 10.45C17.3667 9.88333 17.0333 9.4 16.6 9C16.2 8.56666 15.7167 8.23333 15.15 8C14.6167 7.76666 14.0333 7.65 13.4 7.65H8.85V16.75H13.4ZM18.6 6.7C18.6 7.13333 18.8 7.35 19.2 7.35C19.6333 7.35 19.85 7.13333 19.85 6.7C19.85 6.3 19.6333 6.1 19.2 6.1C18.8 6.1 18.6 6.3 18.6 6.7ZM19.85 16.95C20.0167 16.95 20.15 16.9 20.25 16.8C20.3833 16.6667 20.45 16.5167 20.45 16.35C20.45 15.9167 20.25 15.7 19.85 15.7C19.4167 15.7 19.2 15.9167 19.2 16.35C19.2 16.5167 19.2667 16.6667 19.4 16.8C19.5333 16.9 19.6833 16.95 19.85 16.95ZM20.8 11.9C21.2333 11.9 21.45 11.7 21.45 11.3C21.45 10.8667 21.2333 10.65 20.8 10.65C20.4 10.65 20.2 10.8667 20.2 11.3C20.2 11.7 20.4 11.9 20.8 11.9ZM49.9383 34.6C50.0383 34.6667 50.0716 34.75 50.0383 34.85C50.0049 34.95 49.9216 35 49.7883 35H40.9883C40.8549 35 40.7716 34.95 40.7383 34.85C40.7049 34.75 40.7383 34.6667 40.8383 34.6C41.6049 33.9667 41.9883 32.5833 41.9883 30.45V28.15V27C41.9883 26.0667 41.8049 25.1833 41.4383 24.35C41.1049 23.5167 40.6216 22.8 39.9883 22.2C39.3549 21.5667 38.6216 21.0833 37.7883 20.75C36.9549 20.3833 36.0716 20.2 35.1383 20.2H34.0383V23.6V28.15V30.45C34.0383 32.5833 34.4049 33.9667 35.1383 34.6C35.2383 34.6667 35.2716 34.75 35.2383 34.85C35.2383 34.95 35.1549 35 34.9883 35H34.0383H31.7383H26.1883C26.0549 35 25.9716 34.95 25.9383 34.85C25.9049 34.75 25.9549 34.6667 26.0883 34.6C26.8216 33.9333 27.1883 32.55 27.1883 30.45V5.4C27.1883 3.26667 26.8216 1.88333 26.0883 1.25C25.9549 1.15 25.9049 1.05 25.9383 0.949997C25.9716 0.849999 26.0549 0.799999 26.1883 0.799999H31.7383H39.0883C40.4216 0.799999 41.6716 1.06667 42.8383 1.6C44.0383 2.1 45.0716 2.8 45.9383 3.7C46.8383 4.56667 47.5383 5.6 48.0383 6.8C48.5716 7.96667 48.8383 9.21666 48.8383 10.55C48.8383 11.9833 48.5383 13.35 47.9383 14.65C47.3383 15.95 46.4883 17.05 45.3883 17.95C46.5883 19.35 47.4549 20.7667 47.9883 22.2C48.5549 23.6 48.8383 25.2 48.8383 27V28.15V30.45C48.8383 32.5833 49.2049 33.9667 49.9383 34.6ZM30.5383 32.85C30.9716 32.85 31.1883 32.65 31.1883 32.25C31.1883 31.8167 30.9716 31.6 30.5383 31.6C30.1383 31.6 29.9383 31.8167 29.9383 32.25C29.9383 32.65 30.1383 32.85 30.5383 32.85ZM30.5383 28.1C30.9716 28.1 31.1883 27.8833 31.1883 27.45C31.1883 27.2833 31.1216 27.15 30.9883 27.05C30.8549 26.9167 30.7049 26.85 30.5383 26.85C30.3716 26.85 30.2216 26.9167 30.0883 27.05C29.9883 27.15 29.9383 27.2833 29.9383 27.45C29.9383 27.8833 30.1383 28.1 30.5383 28.1ZM30.5383 23.55C30.9716 23.55 31.1883 23.3333 31.1883 22.9C31.1883 22.7333 31.1216 22.6 30.9883 22.5C30.8549 22.3667 30.7049 22.3 30.5383 22.3C30.3716 22.3 30.2216 22.3667 30.0883 22.5C29.9883 22.6 29.9383 22.7333 29.9383 22.9C29.9383 23.3333 30.1383 23.55 30.5383 23.55ZM30.5383 18.9C30.9716 18.9 31.1883 18.6833 31.1883 18.25C31.1883 18.0833 31.1216 17.95 30.9883 17.85C30.8549 17.7167 30.7049 17.65 30.5383 17.65C30.3716 17.65 30.2216 17.7167 30.0883 17.85C29.9883 17.95 29.9383 18.0833 29.9383 18.25C29.9383 18.6833 30.1383 18.9 30.5383 18.9ZM30.5883 14.2C30.9883 14.2 31.1883 14 31.1883 13.6C31.1883 13.2 30.9883 13 30.5883 13C30.1883 13 29.9883 13.2 29.9883 13.6C29.9883 14 30.1883 14.2 30.5883 14.2ZM29.9383 9C29.9383 9.4 30.1383 9.6 30.5383 9.6C30.9716 9.6 31.1883 9.4 31.1883 9C31.1883 8.6 30.9716 8.4 30.5383 8.4C30.1383 8.4 29.9383 8.6 29.9383 9ZM30.5883 5C30.9883 5 31.1883 4.78333 31.1883 4.35C31.1883 3.95 30.9883 3.75 30.5883 3.75C30.1883 3.75 29.9883 3.95 29.9883 4.35C29.9883 4.78333 30.1883 5 30.5883 5ZM45.3883 10.45C45.2216 10.45 45.0716 10.5167 44.9383 10.65C44.8049 10.75 44.7383 10.8833 44.7383 11.05C44.7383 11.4833 44.9549 11.7 45.3883 11.7C45.7883 11.7 45.9883 11.4833 45.9883 11.05C45.9883 10.8833 45.9216 10.75 45.7883 10.65C45.6883 10.5167 45.5549 10.45 45.3883 10.45ZM44.2383 6.3C43.8383 6.3 43.6383 6.5 43.6383 6.9C43.6383 7.3 43.8383 7.5 44.2383 7.5C44.6716 7.5 44.8883 7.3 44.8883 6.9C44.8883 6.5 44.6716 6.3 44.2383 6.3ZM39.9883 3.75C39.5883 3.75 39.3883 3.96667 39.3883 4.4C39.3883 4.56666 39.4383 4.71666 39.5383 4.85C39.6716 4.95 39.8216 5 39.9883 5C40.1549 5 40.3049 4.95 40.4383 4.85C40.5716 4.71666 40.6383 4.56666 40.6383 4.4C40.6383 3.96667 40.4216 3.75 39.9883 3.75ZM35.0383 3.75C34.8716 3.75 34.7216 3.81667 34.5883 3.95C34.4883 4.08333 34.4383 4.23333 34.4383 4.4C34.4383 4.56666 34.4883 4.71666 34.5883 4.85C34.7216 4.95 34.8716 5 35.0383 5C35.2049 5 35.3549 4.95 35.4883 4.85C35.6216 4.71666 35.6883 4.56666 35.6883 4.4C35.6883 3.96667 35.4716 3.75 35.0383 3.75ZM34.6383 17.2C34.8049 17.2 34.9383 17.1333 35.0383 17C35.1716 16.8667 35.2383 16.7167 35.2383 16.55C35.2383 16.3833 35.1716 16.25 35.0383 16.15C34.9383 16.0167 34.8049 15.95 34.6383 15.95C34.4716 15.95 34.3216 16.0167 34.1883 16.15C34.0549 16.25 33.9883 16.3833 33.9883 16.55C33.9883 16.9833 34.2049 17.2 34.6383 17.2ZM39.2383 17.3C39.6716 17.3 39.8883 17.1 39.8883 16.7C39.8883 16.2667 39.6716 16.05 39.2383 16.05C38.8383 16.05 38.6383 16.2667 38.6383 16.7C38.6383 17.1 38.8383 17.3 39.2383 17.3ZM39.0883 13.45C39.8883 13.45 40.5716 13.1833 41.1383 12.65C41.7049 12.0833 41.9883 11.3833 41.9883 10.55C41.9883 9.75 41.7049 9.06667 41.1383 8.5C40.5716 7.93333 39.8883 7.65 39.0883 7.65H34.0383V7.7V8.05V13.4V13.45H39.0883ZM42.3383 20.5C42.7716 20.5 42.9883 20.3 42.9883 19.9C42.9883 19.4667 42.7716 19.25 42.3383 19.25C41.9383 19.25 41.7383 19.4667 41.7383 19.9C41.7383 20.3 41.9383 20.5 42.3383 20.5ZM43.0883 15.8C43.0883 16.2 43.3049 16.4 43.7383 16.4C43.9049 16.4 44.0383 16.35 44.1383 16.25C44.2716 16.1167 44.3383 15.9667 44.3383 15.8C44.3383 15.6333 44.2716 15.4833 44.1383 15.35C44.0383 15.2167 43.9049 15.15 43.7383 15.15C43.3049 15.15 43.0883 15.3667 43.0883 15.8ZM44.1383 23.5C44.1383 23.9 44.3549 24.1 44.7883 24.1C45.1883 24.1 45.3883 23.9 45.3883 23.5C45.3883 23.0667 45.1883 22.85 44.7883 22.85C44.3549 22.85 44.1383 23.0667 44.1383 23.5ZM45.4383 27.2C45.2716 27.2 45.1216 27.2667 44.9883 27.4C44.8883 27.5 44.8383 27.6333 44.8383 27.8C44.8383 27.9667 44.8883 28.1167 44.9883 28.25C45.1216 28.35 45.2716 28.4 45.4383 28.4C45.8716 28.4 46.0883 28.2 46.0883 27.8C46.0883 27.4 45.8716 27.2 45.4383 27.2ZM45.5883 32.85C46.0216 32.85 46.2383 32.65 46.2383 32.25C46.2383 31.8167 46.0216 31.6 45.5883 31.6C45.4216 31.6 45.2716 31.6667 45.1383 31.8C45.0383 31.9333 44.9883 32.0833 44.9883 32.25C44.9883 32.4167 45.0383 32.5667 45.1383 32.7C45.2716 32.8 45.4216 32.85 45.5883 32.85ZM75.5859 30.45C75.5859 32.6167 75.9526 34.0167 76.6859 34.65C76.7859 34.7167 76.8193 34.8 76.7859 34.9C76.7859 34.9667 76.7026 35 76.5359 35H51.8359C51.6693 35 51.5693 34.9667 51.5359 34.9C51.5359 34.8 51.5859 34.7167 51.6859 34.65C52.4193 34.0167 52.7859 32.6167 52.7859 30.45V28.2V5.4C52.7859 2.36667 52.0359 0.849999 50.5359 0.849999H76.5359C76.7026 0.849999 76.7859 0.899999 76.7859 1C76.8193 1.1 76.7859 1.18333 76.6859 1.25C75.9526 1.88333 75.5859 3.26667 75.5859 5.4V7.7V8.7C75.5859 8.83333 75.5359 8.91667 75.4359 8.95C75.3359 8.98333 75.2526 8.93333 75.1859 8.8C74.5526 8.06667 73.1693 7.7 71.0359 7.7H59.6359V9.95V14.5H66.4859C68.6193 14.5 70.0026 14.1333 70.6359 13.4C70.7026 13.3 70.7859 13.2667 70.8859 13.3C70.9859 13.3333 71.0359 13.4167 71.0359 13.55V14.5V16.8V21.35V22.35C71.0359 22.4833 70.9859 22.5667 70.8859 22.6C70.7859 22.6333 70.7026 22.6 70.6359 22.5C69.9693 21.7333 68.5859 21.35 66.4859 21.35H59.6359V23.6V28.2H71.0359C73.1359 28.2 74.5193 27.8167 75.1859 27.05C75.2526 26.95 75.3359 26.9167 75.4359 26.95C75.5359 26.9833 75.5859 27.0667 75.5859 27.2V28.2V30.45ZM68.5359 17.45C68.1359 17.45 67.9359 17.6667 67.9359 18.1C67.9359 18.5 68.1359 18.7 68.5359 18.7C68.9693 18.7 69.1859 18.5 69.1859 18.1C69.1859 17.6667 68.9693 17.45 68.5359 17.45ZM72.8859 3.55C72.7193 3.55 72.5693 3.61667 72.4359 3.75C72.3359 3.85 72.2859 3.98333 72.2859 4.15C72.2859 4.31666 72.3359 4.46666 72.4359 4.6C72.5693 4.73333 72.7193 4.8 72.8859 4.8C73.3193 4.8 73.5359 4.58333 73.5359 4.15C73.5359 3.75 73.3193 3.55 72.8859 3.55ZM68.8359 3.55C68.4026 3.55 68.1859 3.75 68.1859 4.15C68.1859 4.58333 68.4026 4.8 68.8359 4.8C69.0026 4.8 69.1359 4.73333 69.2359 4.6C69.3693 4.46666 69.4359 4.31666 69.4359 4.15C69.4359 3.98333 69.3693 3.85 69.2359 3.75C69.1359 3.61667 69.0026 3.55 68.8359 3.55ZM64.6359 3.55C64.2026 3.55 63.9859 3.75 63.9859 4.15C63.9859 4.58333 64.2026 4.8 64.6359 4.8C64.8026 4.8 64.9359 4.73333 65.0359 4.6C65.1693 4.46666 65.2359 4.31666 65.2359 4.15C65.2359 3.98333 65.1693 3.85 65.0359 3.75C64.9359 3.61667 64.8026 3.55 64.6359 3.55ZM60.3359 3.55C59.9359 3.55 59.7359 3.75 59.7359 4.15C59.7359 4.58333 59.9359 4.8 60.3359 4.8C60.7359 4.8 60.9359 4.58333 60.9359 4.15C60.9359 3.75 60.7359 3.55 60.3359 3.55ZM64.3359 17.45C63.9359 17.45 63.7359 17.6667 63.7359 18.1C63.7359 18.5 63.9359 18.7 64.3359 18.7C64.7693 18.7 64.9859 18.5 64.9859 18.1C64.9859 17.6667 64.7693 17.45 64.3359 17.45ZM60.2359 17.45C59.8026 17.45 59.5859 17.6667 59.5859 18.1C59.5859 18.5 59.8026 18.7 60.2359 18.7C60.4026 18.7 60.5359 18.65 60.6359 18.55C60.7693 18.4167 60.8359 18.2667 60.8359 18.1C60.8359 17.9333 60.7693 17.7833 60.6359 17.65C60.5359 17.5167 60.4026 17.45 60.2359 17.45ZM55.9859 32.65C56.4193 32.65 56.6359 32.45 56.6359 32.05C56.6359 31.6167 56.4193 31.4 55.9859 31.4C55.5859 31.4 55.3859 31.6167 55.3859 32.05C55.3859 32.45 55.5859 32.65 55.9859 32.65ZM55.9859 27.9C56.4193 27.9 56.6359 27.7 56.6359 27.3C56.6359 26.8667 56.4193 26.65 55.9859 26.65C55.5859 26.65 55.3859 26.8667 55.3859 27.3C55.3859 27.7 55.5859 27.9 55.9859 27.9ZM55.9859 23.35C56.4193 23.35 56.6359 23.1333 56.6359 22.7C56.6359 22.3 56.4193 22.1 55.9859 22.1C55.5859 22.1 55.3859 22.3 55.3859 22.7C55.3859 23.1333 55.5859 23.35 55.9859 23.35ZM55.9859 18.7C56.4193 18.7 56.6359 18.5 56.6359 18.1C56.6359 17.6667 56.4193 17.45 55.9859 17.45C55.5859 17.45 55.3859 17.6667 55.3859 18.1C55.3859 18.5 55.5859 18.7 55.9859 18.7ZM56.0359 14.05C56.4693 14.05 56.6859 13.8333 56.6859 13.4C56.6859 13 56.4693 12.8 56.0359 12.8C55.6026 12.8 55.3859 13 55.3859 13.4C55.3859 13.8333 55.6026 14.05 56.0359 14.05ZM55.3859 8.8C55.3859 9.2 55.5859 9.4 55.9859 9.4C56.4193 9.4 56.6359 9.2 56.6359 8.8C56.6359 8.36667 56.4193 8.15 55.9859 8.15C55.5859 8.15 55.3859 8.36667 55.3859 8.8ZM56.0359 4.8C56.4693 4.8 56.6859 4.58333 56.6859 4.15C56.6859 3.75 56.4693 3.55 56.0359 3.55C55.6026 3.55 55.3859 3.75 55.3859 4.15C55.3859 4.58333 55.6026 4.8 56.0359 4.8ZM60.1859 32.65C60.6193 32.65 60.8359 32.45 60.8359 32.05C60.8359 31.6167 60.6193 31.4 60.1859 31.4C59.7859 31.4 59.5859 31.6167 59.5859 32.05C59.5859 32.45 59.7859 32.65 60.1859 32.65ZM64.3359 32.65C64.5026 32.65 64.6359 32.6 64.7359 32.5C64.8693 32.3667 64.9359 32.2167 64.9359 32.05C64.9359 31.8833 64.8693 31.7333 64.7359 31.6C64.6359 31.4667 64.5026 31.4 64.3359 31.4C63.9026 31.4 63.6859 31.6167 63.6859 32.05C63.6859 32.45 63.9026 32.65 64.3359 32.65ZM68.5359 32.65C68.9359 32.65 69.1359 32.45 69.1359 32.05C69.1359 31.6167 68.9359 31.4 68.5359 31.4C68.1026 31.4 67.8859 31.6167 67.8859 32.05C67.8859 32.45 68.1026 32.65 68.5359 32.65ZM72.9359 32.65C73.1026 32.65 73.2359 32.6 73.3359 32.5C73.4693 32.3667 73.5359 32.2167 73.5359 32.05C73.5359 31.8833 73.4693 31.7333 73.3359 31.6C73.2359 31.4667 73.1026 31.4 72.9359 31.4C72.5026 31.4 72.2859 31.6167 72.2859 32.05C72.2859 32.45 72.5026 32.65 72.9359 32.65ZM93.732 14.55C95.1654 14.55 96.4987 14.8167 97.732 15.35C98.9654 15.8833 100.049 16.6167 100.982 17.55C101.915 18.4833 102.649 19.5667 103.182 20.8C103.715 22.0333 103.982 23.3667 103.982 24.8C103.982 26.2 103.715 27.5333 103.182 28.8C102.649 30.0333 101.915 31.1167 100.982 32.05C100.049 32.95 98.9654 33.6667 97.732 34.2C96.4987 34.7333 95.1654 35 93.732 35H91.482H89.182C87.782 35 86.4487 34.7333 85.182 34.2C83.9487 33.6667 82.8654 32.95 81.932 32.05C81.032 31.1167 80.3154 30.0333 79.782 28.8C79.2487 27.5333 78.982 26.2 78.982 24.8H85.782H86.732C86.9987 24.8 87.082 24.9 86.982 25.1C86.6154 25.7667 86.582 26.35 86.882 26.85C87.182 27.35 87.4987 27.7 87.832 27.9C88.2654 28.1 88.7154 28.2 89.182 28.2H91.482H93.732C94.6987 28.2 95.5154 27.8667 96.182 27.2C96.8487 26.5333 97.182 25.7333 97.182 24.8C97.182 23.8333 96.8487 23.0167 96.182 22.35C95.5154 21.6833 94.6987 21.35 93.732 21.35H91.482H89.182C87.782 21.35 86.4487 21.0833 85.182 20.55C83.9487 20.0167 82.8654 19.2833 81.932 18.35C81.032 17.4167 80.3154 16.3333 79.782 15.1C79.2487 13.8333 78.982 12.5 78.982 11.1C78.982 9.7 79.2487 8.38333 79.782 7.15C80.3154 5.88333 81.032 4.78333 81.932 3.85C82.8654 2.91667 83.9487 2.18333 85.182 1.65C86.4487 1.11666 87.782 0.849999 89.182 0.849999H91.482H93.732C95.1654 0.849999 96.4987 1.11666 97.732 1.65C98.9654 2.18333 100.049 2.91667 100.982 3.85C101.915 4.78333 102.649 5.88333 103.182 7.15C103.715 8.38333 103.982 9.7 103.982 11.1H97.182H96.182C95.9154 11.1 95.8487 11 95.982 10.8C96.3154 10.1667 96.332 9.58333 96.032 9.05C95.7654 8.51666 95.4654 8.16667 95.132 8C94.6654 7.8 94.1987 7.7 93.732 7.7H91.482H89.182C88.2487 7.7 87.4487 8.03333 86.782 8.7C86.1154 9.36666 85.782 10.1667 85.782 11.1C85.782 12.0667 86.1154 12.8833 86.782 13.55C87.4487 14.2167 88.2487 14.55 89.182 14.55H91.482H93.732ZM100.182 8.1C100.015 8.1 99.8654 8.16666 99.732 8.3C99.632 8.4 99.582 8.53333 99.582 8.7C99.582 9.13333 99.782 9.35 100.182 9.35C100.615 9.35 100.832 9.13333 100.832 8.7C100.832 8.53333 100.765 8.4 100.632 8.3C100.499 8.16666 100.349 8.1 100.182 8.1ZM96.932 4.3C96.532 4.3 96.332 4.51667 96.332 4.95C96.332 5.35 96.532 5.55 96.932 5.55C97.332 5.55 97.532 5.35 97.532 4.95C97.532 4.51667 97.332 4.3 96.932 4.3ZM92.332 3.45C91.932 3.45 91.732 3.65 91.732 4.05C91.732 4.45 91.932 4.65 92.332 4.65C92.7654 4.65 92.982 4.45 92.982 4.05C92.982 3.65 92.7654 3.45 92.332 3.45ZM87.582 3.45C87.1487 3.45 86.932 3.65 86.932 4.05C86.932 4.45 87.1487 4.65 87.582 4.65C87.982 4.65 88.182 4.45 88.182 4.05C88.182 3.65 87.982 3.45 87.582 3.45ZM83.782 6.2C83.382 6.2 83.182 6.41667 83.182 6.85C83.182 7.01667 83.232 7.16667 83.332 7.3C83.4654 7.4 83.6154 7.45 83.782 7.45C83.9487 7.45 84.082 7.4 84.182 7.3C84.3154 7.16667 84.382 7.01667 84.382 6.85C84.382 6.41667 84.182 6.2 83.782 6.2ZM82.832 11.75C83.2654 11.75 83.482 11.55 83.482 11.15C83.482 10.7167 83.2654 10.5 82.832 10.5C82.6654 10.5 82.5154 10.5667 82.382 10.7C82.282 10.8333 82.232 10.9833 82.232 11.15C82.232 11.3167 82.282 11.4667 82.382 11.6C82.5154 11.7 82.6654 11.75 82.832 11.75ZM84.382 16.05C84.8154 16.05 85.032 15.8333 85.032 15.4C85.032 15 84.8154 14.8 84.382 14.8C84.2154 14.8 84.0654 14.8667 83.932 15C83.832 15.1 83.782 15.2333 83.782 15.4C83.782 15.5667 83.832 15.7167 83.932 15.85C84.0654 15.9833 84.2154 16.05 84.382 16.05ZM88.182 18.55C88.6154 18.55 88.832 18.3333 88.832 17.9C88.832 17.7333 88.7654 17.6 88.632 17.5C88.4987 17.3667 88.3487 17.3 88.182 17.3C88.0154 17.3 87.8654 17.3667 87.732 17.5C87.632 17.6 87.582 17.7333 87.582 17.9C87.582 18.3333 87.782 18.55 88.182 18.55ZM92.982 18.55C93.1487 18.55 93.282 18.5 93.382 18.4C93.5154 18.2667 93.582 18.1 93.582 17.9C93.582 17.7333 93.5154 17.6 93.382 17.5C93.282 17.3667 93.1487 17.3 92.982 17.3C92.8154 17.3 92.6654 17.3667 92.532 17.5C92.3987 17.6 92.332 17.7333 92.332 17.9C92.332 18.3333 92.5487 18.55 92.982 18.55ZM83.782 28.5C83.9487 28.5 84.0987 28.45 84.232 28.35C84.3654 28.2167 84.432 28.0667 84.432 27.9C84.432 27.4667 84.2154 27.25 83.782 27.25C83.6154 27.25 83.4654 27.3167 83.332 27.45C83.232 27.5833 83.182 27.7333 83.182 27.9C83.182 28.0667 83.232 28.2167 83.332 28.35C83.4654 28.45 83.6154 28.5 83.782 28.5ZM87.432 31.4C87.8654 31.4 88.082 31.1833 88.082 30.75C88.082 30.35 87.8654 30.15 87.432 30.15C87.032 30.15 86.832 30.35 86.832 30.75C86.832 31.1833 87.032 31.4 87.432 31.4ZM92.182 31.7C92.3487 31.7 92.4987 31.65 92.632 31.55C92.7654 31.4167 92.832 31.2667 92.832 31.1C92.832 30.6667 92.6154 30.45 92.182 30.45C91.782 30.45 91.582 30.6667 91.582 31.1C91.582 31.2667 91.632 31.4167 91.732 31.55C91.8654 31.65 92.0154 31.7 92.182 31.7ZM97.232 31.1C97.6654 31.1 97.882 30.8833 97.882 30.45C97.882 30.05 97.6654 29.85 97.232 29.85C96.832 29.85 96.632 30.05 96.632 30.45C96.632 30.8833 96.832 31.1 97.232 31.1ZM97.532 19.25C97.9654 19.25 98.182 19.05 98.182 18.65C98.182 18.25 97.9654 18.05 97.532 18.05C97.3654 18.05 97.2154 18.1167 97.082 18.25C96.982 18.35 96.932 18.4833 96.932 18.65C96.932 18.8167 96.982 18.9667 97.082 19.1C97.2154 19.2 97.3654 19.25 97.532 19.25ZM100.182 27.3C100.349 27.3 100.499 27.25 100.632 27.15C100.765 27.0167 100.832 26.8667 100.832 26.7C100.832 26.2667 100.615 26.05 100.182 26.05C99.782 26.05 99.582 26.2667 99.582 26.7C99.582 26.8667 99.632 27.0167 99.732 27.15C99.8654 27.25 100.015 27.3 100.182 27.3ZM100.182 22.6C100.615 22.6 100.832 22.4 100.832 22C100.832 21.5667 100.615 21.35 100.182 21.35C99.782 21.35 99.582 21.5667 99.582 22C99.582 22.4 99.782 22.6 100.182 22.6ZM130.879 34.6C130.979 34.7 131.013 34.8 130.979 34.9C130.946 34.9667 130.863 35 130.729 35H121.929C121.796 35 121.713 34.9667 121.679 34.9C121.646 34.8 121.679 34.7 121.779 34.6C122.546 34 122.929 32.6167 122.929 30.45V25.9H113.779V30.45C113.779 32.6167 114.163 34 114.929 34.6C115.196 34.8667 115.146 35 114.779 35H105.979C105.846 35 105.763 34.9667 105.729 34.9C105.696 34.8 105.729 34.7 105.829 34.6C106.596 34 106.979 32.6167 106.979 30.45V23.65V19.6C106.979 18.1667 107.113 16.8 107.379 15.5C107.646 14.1667 108.063 12.8333 108.629 11.5L111.229 5.45C111.663 3.31667 111.563 1.91667 110.929 1.25C110.829 1.15 110.796 1.06667 110.829 1C110.863 0.899999 110.946 0.849999 111.079 0.849999H125.629C125.963 0.849999 126.029 0.983332 125.829 1.25C125.196 1.85 125.079 3.25 125.479 5.45L128.079 11.5C128.646 12.8333 129.063 14.1667 129.329 15.5C129.596 16.8 129.729 18.1667 129.729 19.6V23.65V30.45C129.729 32.6167 130.113 34 130.879 34.6ZM125.729 16.65C125.329 16.65 125.129 16.8667 125.129 17.3C125.129 17.4667 125.179 17.6167 125.279 17.75C125.413 17.85 125.563 17.9 125.729 17.9C125.896 17.9 126.046 17.85 126.179 17.75C126.313 17.6167 126.379 17.4667 126.379 17.3C126.379 16.8667 126.163 16.65 125.729 16.65ZM121.529 3.05C121.129 3.05 120.929 3.25 120.929 3.65C120.929 4.08333 121.129 4.3 121.529 4.3C121.929 4.3 122.129 4.08333 122.129 3.65C122.129 3.25 121.929 3.05 121.529 3.05ZM115.179 3.5C114.746 3.5 114.529 3.7 114.529 4.1C114.529 4.53333 114.746 4.75 115.179 4.75C115.613 4.75 115.829 4.53333 115.829 4.1C115.829 3.7 115.613 3.5 115.179 3.5ZM110.379 32.3C110.813 32.3 111.029 32.0833 111.029 31.65C111.029 31.4833 110.963 31.35 110.829 31.25C110.696 31.1167 110.546 31.05 110.379 31.05C110.213 31.05 110.063 31.1167 109.929 31.25C109.796 31.35 109.729 31.4833 109.729 31.65C109.729 32.0833 109.946 32.3 110.379 32.3ZM110.529 27.55C110.963 27.55 111.179 27.3333 111.179 26.9C111.179 26.7333 111.113 26.6 110.979 26.5C110.879 26.3667 110.729 26.3 110.529 26.3C110.363 26.3 110.213 26.3667 110.079 26.5C109.979 26.6 109.929 26.7333 109.929 26.9C109.929 27.3333 110.129 27.55 110.529 27.55ZM110.529 22.8C110.963 22.8 111.179 22.6 111.179 22.2C111.179 21.7667 110.963 21.55 110.529 21.55C110.129 21.55 109.929 21.7667 109.929 22.2C109.929 22.6 110.129 22.8 110.529 22.8ZM110.829 18.2C110.996 18.2 111.146 18.15 111.279 18.05C111.413 17.9167 111.479 17.7667 111.479 17.6C111.479 17.1667 111.263 16.95 110.829 16.95C110.429 16.95 110.229 17.1667 110.229 17.6C110.229 17.7667 110.279 17.9167 110.379 18.05C110.513 18.15 110.663 18.2 110.829 18.2ZM111.479 13.65C111.879 13.65 112.079 13.45 112.079 13.05C112.079 12.65 111.879 12.45 111.479 12.45C111.046 12.45 110.829 12.65 110.829 13.05C110.829 13.45 111.046 13.65 111.479 13.65ZM113.529 9.05C113.929 9.05 114.129 8.85 114.129 8.45C114.129 8.01667 113.929 7.8 113.529 7.8C113.096 7.8 112.879 8.01667 112.879 8.45C112.879 8.85 113.096 9.05 113.529 9.05ZM115.629 22.8C116.063 22.8 116.279 22.6 116.279 22.2C116.279 21.7667 116.063 21.55 115.629 21.55C115.196 21.55 114.979 21.7667 114.979 22.2C114.979 22.6 115.196 22.8 115.629 22.8ZM120.779 22.85C120.946 22.85 121.079 22.8 121.179 22.7C121.313 22.5667 121.379 22.4167 121.379 22.25C121.379 21.8167 121.179 21.6 120.779 21.6C120.346 21.6 120.129 21.8167 120.129 22.25C120.129 22.4167 120.179 22.5667 120.279 22.7C120.413 22.8 120.579 22.85 120.779 22.85ZM122.929 19.1C122.829 17.4 122.463 15.7667 121.829 14.2L118.379 6.15L114.929 14.2C114.229 15.7667 113.863 17.4 113.829 19.1H122.929ZM123.029 8.65C123.429 8.65 123.629 8.43333 123.629 8C123.629 7.56667 123.429 7.35 123.029 7.35C122.596 7.35 122.379 7.56667 122.379 8C122.379 8.43333 122.596 8.65 123.029 8.65ZM124.079 12.6C124.079 13.0333 124.296 13.25 124.729 13.25C125.129 13.25 125.329 13.0333 125.329 12.6C125.329 12.2 125.129 12 124.729 12C124.296 12 124.079 12.2 124.079 12.6ZM125.129 22.05C125.129 22.4833 125.329 22.7 125.729 22.7C126.163 22.7 126.379 22.4833 126.379 22.05C126.379 21.65 126.163 21.45 125.729 21.45C125.329 21.45 125.129 21.65 125.129 22.05ZM126.079 32.15C126.246 32.15 126.379 32.1 126.479 32C126.613 31.8667 126.679 31.7167 126.679 31.55C126.679 31.3833 126.613 31.2333 126.479 31.1C126.379 30.9667 126.246 30.9 126.079 30.9C125.646 30.9 125.429 31.1167 125.429 31.55C125.429 31.95 125.646 32.15 126.079 32.15ZM126.079 27.25C126.246 27.25 126.379 27.1833 126.479 27.05C126.613 26.9167 126.679 26.7667 126.679 26.6C126.679 26.4333 126.613 26.3 126.479 26.2C126.379 26.0667 126.246 26 126.079 26C125.913 26 125.763 26.0667 125.629 26.2C125.496 26.3 125.429 26.4333 125.429 26.6C125.429 27.0333 125.646 27.25 126.079 27.25ZM153.282 34.6C153.382 34.6667 153.416 34.75 153.382 34.85C153.382 34.95 153.299 35 153.132 35H152.182H132.982H132.932C132.599 34.9333 132.566 34.8 132.832 34.6C133.566 33.9667 133.932 32.5833 133.932 30.45V28.15V5.4C133.932 3.26667 133.566 1.88333 132.832 1.25C132.566 0.983332 132.616 0.849999 132.982 0.849999H141.732C141.899 0.849999 141.999 0.899999 142.032 1C142.066 1.06667 142.016 1.15 141.882 1.25C141.149 1.88333 140.782 3.26667 140.782 5.4V9.95V14.5V21.35V23.6V28.15H147.582C149.749 28.15 151.132 27.7833 151.732 27.05C151.832 26.95 151.932 26.9167 152.032 26.95C152.132 26.95 152.182 27.0333 152.182 27.2V28.15V30.45C152.182 32.5833 152.549 33.9667 153.282 34.6ZM137.432 32.7C137.866 32.7 138.082 32.4833 138.082 32.05C138.082 31.65 137.866 31.45 137.432 31.45C137.032 31.45 136.832 31.65 136.832 32.05C136.832 32.4833 137.032 32.7 137.432 32.7ZM137.432 27.9C137.866 27.9 138.082 27.7 138.082 27.3C138.082 26.8667 137.866 26.65 137.432 26.65C137.032 26.65 136.832 26.8667 136.832 27.3C136.832 27.7 137.032 27.9 137.432 27.9ZM137.432 23.35C137.599 23.35 137.749 23.3 137.882 23.2C138.016 23.0667 138.082 22.9167 138.082 22.75C138.082 22.3167 137.866 22.1 137.432 22.1C137.032 22.1 136.832 22.3167 136.832 22.75C136.832 22.9167 136.882 23.0667 136.982 23.2C137.116 23.3 137.266 23.35 137.432 23.35ZM137.432 18.7C137.599 18.7 137.749 18.65 137.882 18.55C138.016 18.4167 138.082 18.2667 138.082 18.1C138.082 17.6667 137.866 17.45 137.432 17.45C137.032 17.45 136.832 17.6667 136.832 18.1C136.832 18.2667 136.882 18.4167 136.982 18.55C137.116 18.65 137.266 18.7 137.432 18.7ZM137.482 14.05C137.882 14.05 138.082 13.8333 138.082 13.4C138.082 13.2333 138.016 13.1 137.882 13C137.782 12.8667 137.649 12.8 137.482 12.8C137.316 12.8 137.166 12.8667 137.032 13C136.899 13.1 136.832 13.2333 136.832 13.4C136.832 13.8333 137.049 14.05 137.482 14.05ZM136.832 8.8C136.832 9.23333 137.032 9.45 137.432 9.45C137.866 9.45 138.082 9.23333 138.082 8.8C138.082 8.63333 138.016 8.5 137.882 8.4C137.749 8.26667 137.599 8.2 137.432 8.2C137.266 8.2 137.116 8.26667 136.982 8.4C136.882 8.5 136.832 8.63333 136.832 8.8ZM137.482 4.8C137.882 4.8 138.082 4.58333 138.082 4.15C138.082 3.98333 138.016 3.85 137.882 3.75C137.782 3.61667 137.649 3.55 137.482 3.55C137.316 3.55 137.166 3.61667 137.032 3.75C136.899 3.85 136.832 3.98333 136.832 4.15C136.832 4.58333 137.049 4.8 137.482 4.8ZM143.032 32.7C143.466 32.7 143.682 32.4833 143.682 32.05C143.682 31.65 143.466 31.45 143.032 31.45C142.632 31.45 142.432 31.65 142.432 32.05C142.432 32.4833 142.632 32.7 143.032 32.7ZM148.532 32.7C148.932 32.7 149.132 32.4833 149.132 32.05C149.132 31.65 148.932 31.45 148.532 31.45C148.099 31.45 147.882 31.65 147.882 32.05C147.882 32.4833 148.099 32.7 148.532 32.7ZM179.248 30.45C179.248 32.6167 179.615 34.0167 180.348 34.65C180.448 34.7167 180.481 34.8 180.448 34.9C180.448 34.9667 180.365 35 180.198 35H155.498C155.331 35 155.231 34.9667 155.198 34.9C155.198 34.8 155.248 34.7167 155.348 34.65C156.081 34.0167 156.448 32.6167 156.448 30.45V28.2V5.4C156.448 2.36667 155.698 0.849999 154.198 0.849999H180.198C180.365 0.849999 180.448 0.899999 180.448 1C180.481 1.1 180.448 1.18333 180.348 1.25C179.615 1.88333 179.248 3.26667 179.248 5.4V7.7V8.7C179.248 8.83333 179.198 8.91667 179.098 8.95C178.998 8.98333 178.915 8.93333 178.848 8.8C178.215 8.06667 176.831 7.7 174.698 7.7H163.298V9.95V14.5H170.148C172.281 14.5 173.665 14.1333 174.298 13.4C174.365 13.3 174.448 13.2667 174.548 13.3C174.648 13.3333 174.698 13.4167 174.698 13.55V14.5V16.8V21.35V22.35C174.698 22.4833 174.648 22.5667 174.548 22.6C174.448 22.6333 174.365 22.6 174.298 22.5C173.631 21.7333 172.248 21.35 170.148 21.35H163.298V23.6V28.2H174.698C176.798 28.2 178.181 27.8167 178.848 27.05C178.915 26.95 178.998 26.9167 179.098 26.95C179.198 26.9833 179.248 27.0667 179.248 27.2V28.2V30.45ZM172.198 17.45C171.798 17.45 171.598 17.6667 171.598 18.1C171.598 18.5 171.798 18.7 172.198 18.7C172.631 18.7 172.848 18.5 172.848 18.1C172.848 17.6667 172.631 17.45 172.198 17.45ZM176.548 3.55C176.381 3.55 176.231 3.61667 176.098 3.75C175.998 3.85 175.948 3.98333 175.948 4.15C175.948 4.31666 175.998 4.46666 176.098 4.6C176.231 4.73333 176.381 4.8 176.548 4.8C176.981 4.8 177.198 4.58333 177.198 4.15C177.198 3.75 176.981 3.55 176.548 3.55ZM172.498 3.55C172.065 3.55 171.848 3.75 171.848 4.15C171.848 4.58333 172.065 4.8 172.498 4.8C172.665 4.8 172.798 4.73333 172.898 4.6C173.031 4.46666 173.098 4.31666 173.098 4.15C173.098 3.98333 173.031 3.85 172.898 3.75C172.798 3.61667 172.665 3.55 172.498 3.55ZM168.298 3.55C167.865 3.55 167.648 3.75 167.648 4.15C167.648 4.58333 167.865 4.8 168.298 4.8C168.465 4.8 168.598 4.73333 168.698 4.6C168.831 4.46666 168.898 4.31666 168.898 4.15C168.898 3.98333 168.831 3.85 168.698 3.75C168.598 3.61667 168.465 3.55 168.298 3.55ZM163.998 3.55C163.598 3.55 163.398 3.75 163.398 4.15C163.398 4.58333 163.598 4.8 163.998 4.8C164.398 4.8 164.598 4.58333 164.598 4.15C164.598 3.75 164.398 3.55 163.998 3.55ZM167.998 17.45C167.598 17.45 167.398 17.6667 167.398 18.1C167.398 18.5 167.598 18.7 167.998 18.7C168.431 18.7 168.648 18.5 168.648 18.1C168.648 17.6667 168.431 17.45 167.998 17.45ZM163.898 17.45C163.465 17.45 163.248 17.6667 163.248 18.1C163.248 18.5 163.465 18.7 163.898 18.7C164.065 18.7 164.198 18.65 164.298 18.55C164.431 18.4167 164.498 18.2667 164.498 18.1C164.498 17.9333 164.431 17.7833 164.298 17.65C164.198 17.5167 164.065 17.45 163.898 17.45ZM159.648 32.65C160.081 32.65 160.298 32.45 160.298 32.05C160.298 31.6167 160.081 31.4 159.648 31.4C159.248 31.4 159.048 31.6167 159.048 32.05C159.048 32.45 159.248 32.65 159.648 32.65ZM159.648 27.9C160.081 27.9 160.298 27.7 160.298 27.3C160.298 26.8667 160.081 26.65 159.648 26.65C159.248 26.65 159.048 26.8667 159.048 27.3C159.048 27.7 159.248 27.9 159.648 27.9ZM159.648 23.35C160.081 23.35 160.298 23.1333 160.298 22.7C160.298 22.3 160.081 22.1 159.648 22.1C159.248 22.1 159.048 22.3 159.048 22.7C159.048 23.1333 159.248 23.35 159.648 23.35ZM159.648 18.7C160.081 18.7 160.298 18.5 160.298 18.1C160.298 17.6667 160.081 17.45 159.648 17.45C159.248 17.45 159.048 17.6667 159.048 18.1C159.048 18.5 159.248 18.7 159.648 18.7ZM159.698 14.05C160.131 14.05 160.348 13.8333 160.348 13.4C160.348 13 160.131 12.8 159.698 12.8C159.265 12.8 159.048 13 159.048 13.4C159.048 13.8333 159.265 14.05 159.698 14.05ZM159.048 8.8C159.048 9.2 159.248 9.4 159.648 9.4C160.081 9.4 160.298 9.2 160.298 8.8C160.298 8.36667 160.081 8.15 159.648 8.15C159.248 8.15 159.048 8.36667 159.048 8.8ZM159.698 4.8C160.131 4.8 160.348 4.58333 160.348 4.15C160.348 3.75 160.131 3.55 159.698 3.55C159.265 3.55 159.048 3.75 159.048 4.15C159.048 4.58333 159.265 4.8 159.698 4.8ZM163.848 32.65C164.281 32.65 164.498 32.45 164.498 32.05C164.498 31.6167 164.281 31.4 163.848 31.4C163.448 31.4 163.248 31.6167 163.248 32.05C163.248 32.45 163.448 32.65 163.848 32.65ZM167.998 32.65C168.165 32.65 168.298 32.6 168.398 32.5C168.531 32.3667 168.598 32.2167 168.598 32.05C168.598 31.8833 168.531 31.7333 168.398 31.6C168.298 31.4667 168.165 31.4 167.998 31.4C167.565 31.4 167.348 31.6167 167.348 32.05C167.348 32.45 167.565 32.65 167.998 32.65ZM172.198 32.65C172.598 32.65 172.798 32.45 172.798 32.05C172.798 31.6167 172.598 31.4 172.198 31.4C171.765 31.4 171.548 31.6167 171.548 32.05C171.548 32.45 171.765 32.65 172.198 32.65ZM176.598 32.65C176.765 32.65 176.898 32.6 176.998 32.5C177.131 32.3667 177.198 32.2167 177.198 32.05C177.198 31.8833 177.131 31.7333 176.998 31.6C176.898 31.4667 176.765 31.4 176.598 31.4C176.165 31.4 175.948 31.6167 175.948 32.05C175.948 32.45 176.165 32.65 176.598 32.65Z" fill="#CCA354"/>
</svg>
