<svg width="413" height="35" viewBox="0 0 413 35" fill="none" xmlns="http://www.w3.org/2000/svg">
<path d="M31.5035 29.9942C31.5035 32.0942 31.8869 33.4775 32.6535 34.1442C32.9202 34.4109 32.8702 34.5442 32.5035 34.5442H23.7035C23.5702 34.5442 23.4868 34.5109 23.4535 34.4442C23.4202 34.3442 23.4535 34.2442 23.5535 34.1442C24.3202 33.4775 24.7035 32.0942 24.7035 29.9942V21.1442L20.7535 30.7442C20.1202 32.2442 19.9869 33.3942 20.3535 34.1942C20.4535 34.4275 20.3869 34.5442 20.1535 34.5442H13.3535C13.0868 34.5442 13.0202 34.4275 13.1535 34.1942C13.5535 33.4609 13.4202 32.3109 12.7535 30.7442L8.75352 21.0442V28.6442V28.6942V29.9942C8.75352 32.1275 9.13685 33.5109 9.90352 34.1442C10.0035 34.2442 10.0368 34.3442 10.0035 34.4442C9.97018 34.5109 9.88685 34.5442 9.75352 34.5442H0.953516C0.820182 34.5442 0.736849 34.5109 0.703516 34.4442C0.670182 34.3442 0.703516 34.2442 0.803516 34.1442C1.53685 33.5109 1.90352 32.1275 1.90352 29.9942V4.94419C1.90352 2.81086 1.53685 1.42752 0.803516 0.794189C0.703516 0.727521 0.670182 0.644188 0.703516 0.544189C0.736849 0.444188 0.820182 0.394188 0.953516 0.394188H6.50352H9.75352C9.88685 0.394188 9.97018 0.444188 10.0035 0.544189C10.0368 0.644188 10.0035 0.727521 9.90352 0.794189C9.47018 1.12752 9.15352 1.71085 8.95352 2.54419C8.85352 3.01085 8.90352 3.46085 9.10352 3.89419L16.7035 22.4442L24.3535 3.89419C24.5535 3.42752 24.5869 2.97752 24.4535 2.54419C24.3202 1.74419 24.0202 1.16085 23.5535 0.794189C23.4535 0.727521 23.4202 0.644188 23.4535 0.544189C23.4868 0.444188 23.5702 0.394188 23.7035 0.394188H29.2535H32.5035C32.6702 0.394188 32.7535 0.444188 32.7535 0.544189C32.7869 0.644188 32.7535 0.727521 32.6535 0.794189C31.8869 1.46085 31.5035 2.84419 31.5035 4.94419V7.24419V9.49419V11.3942V18.5942V27.7442V29.9942ZM5.15352 31.8442C5.55352 31.8442 5.75352 31.6275 5.75352 31.1942C5.75352 31.0275 5.68685 30.8942 5.55352 30.7942C5.45352 30.6609 5.32018 30.5942 5.15352 30.5942C4.98685 30.5942 4.83685 30.6609 4.70352 30.7942C4.57018 30.8942 4.50352 31.0275 4.50352 31.1942C4.50352 31.6275 4.72018 31.8442 5.15352 31.8442ZM5.15352 27.0942C5.55352 27.0942 5.75352 26.8775 5.75352 26.4442C5.75352 26.0442 5.55352 25.8442 5.15352 25.8442C4.72018 25.8442 4.50352 26.0442 4.50352 26.4442C4.50352 26.8775 4.72018 27.0942 5.15352 27.0942ZM5.15352 22.4942C5.55352 22.4942 5.75352 22.2942 5.75352 21.8942C5.75352 21.4609 5.55352 21.2442 5.15352 21.2442C4.72018 21.2442 4.50352 21.4609 4.50352 21.8942C4.50352 22.2942 4.72018 22.4942 5.15352 22.4942ZM5.15352 17.8942C5.55352 17.8942 5.75352 17.6775 5.75352 17.2442C5.75352 16.8109 5.55352 16.5942 5.15352 16.5942C4.72018 16.5942 4.50352 16.8109 4.50352 17.2442C4.50352 17.6775 4.72018 17.8942 5.15352 17.8942ZM5.20352 13.1942C5.37018 13.1942 5.50352 13.1275 5.60352 12.9942C5.73685 12.8609 5.80352 12.7109 5.80352 12.5442C5.80352 12.3775 5.73685 12.2442 5.60352 12.1442C5.50352 12.0109 5.37018 11.9442 5.20352 11.9442C5.03685 11.9442 4.88685 12.0109 4.75352 12.1442C4.62018 12.2442 4.55352 12.3775 4.55352 12.5442C4.55352 12.9775 4.77018 13.1942 5.20352 13.1942ZM4.50352 7.94419C4.50352 8.37752 4.72018 8.59419 5.15352 8.59419C5.55352 8.59419 5.75352 8.37752 5.75352 7.94419C5.75352 7.77752 5.68685 7.64419 5.55352 7.54419C5.45352 7.41085 5.32018 7.34419 5.15352 7.34419C4.98685 7.34419 4.83685 7.41085 4.70352 7.54419C4.57018 7.64419 4.50352 7.77752 4.50352 7.94419ZM5.20352 3.94419C5.37018 3.94419 5.50352 3.89419 5.60352 3.79419C5.73685 3.66086 5.80352 3.51086 5.80352 3.34419C5.80352 3.17752 5.73685 3.02752 5.60352 2.89419C5.50352 2.76086 5.37018 2.69419 5.20352 2.69419C4.77018 2.69419 4.55352 2.91086 4.55352 3.34419C4.55352 3.74419 4.77018 3.94419 5.20352 3.94419ZM7.85352 9.94419C8.25352 9.94419 8.45352 9.72752 8.45352 9.29419C8.45352 8.89419 8.25352 8.69419 7.85352 8.69419C7.42018 8.69419 7.20352 8.89419 7.20352 9.29419C7.20352 9.72752 7.42018 9.94419 7.85352 9.94419ZM9.25352 14.2442C9.42018 14.2442 9.57018 14.1942 9.70352 14.0942C9.83685 13.9609 9.90352 13.8109 9.90352 13.6442C9.90352 13.2109 9.68685 12.9942 9.25352 12.9942C9.08685 12.9942 8.93685 13.0609 8.80352 13.1942C8.70352 13.3275 8.65352 13.4775 8.65352 13.6442C8.65352 13.8109 8.70352 13.9609 8.80352 14.0942C8.93685 14.1942 9.08685 14.2442 9.25352 14.2442ZM10.8535 18.4442C11.2535 18.4442 11.4535 18.2442 11.4535 17.8442C11.4535 17.4442 11.2535 17.2442 10.8535 17.2442C10.4535 17.2442 10.2535 17.4442 10.2535 17.8442C10.2535 18.2442 10.4535 18.4442 10.8535 18.4442ZM12.7535 22.6942C13.1535 22.6942 13.3535 22.4942 13.3535 22.0942C13.3535 21.6942 13.1535 21.4942 12.7535 21.4942C12.3202 21.4942 12.1035 21.6942 12.1035 22.0942C12.1035 22.4942 12.3202 22.6942 12.7535 22.6942ZM14.6535 26.8942C15.0535 26.8942 15.2535 26.6942 15.2535 26.2942C15.2535 25.8609 15.0535 25.6442 14.6535 25.6442C14.2202 25.6442 14.0035 25.8609 14.0035 26.2942C14.0035 26.6942 14.2202 26.8942 14.6535 26.8942ZM16.5035 31.1942C16.9368 31.1942 17.1535 30.9942 17.1535 30.5942C17.1535 30.1942 16.9368 29.9942 16.5035 29.9942C16.3368 29.9942 16.1868 30.0609 16.0535 30.1942C15.9535 30.2942 15.9035 30.4275 15.9035 30.5942C15.9035 30.7609 15.9535 30.9109 16.0535 31.0442C16.1868 31.1442 16.3368 31.1942 16.5035 31.1942ZM18.6035 26.8442C19.0368 26.8442 19.2535 26.6442 19.2535 26.2442C19.2535 25.8442 19.0368 25.6442 18.6035 25.6442C18.4368 25.6442 18.2868 25.7109 18.1535 25.8442C18.0535 25.9442 18.0035 26.0775 18.0035 26.2442C18.0035 26.4109 18.0535 26.5609 18.1535 26.6942C18.2868 26.7942 18.4368 26.8442 18.6035 26.8442ZM20.4535 22.6942C20.8535 22.6942 21.0535 22.4775 21.0535 22.0442C21.0535 21.8775 20.9869 21.7442 20.8535 21.6442C20.7535 21.5109 20.6202 21.4442 20.4535 21.4442C20.2868 21.4442 20.1368 21.5109 20.0035 21.6442C19.9035 21.7442 19.8535 21.8775 19.8535 22.0442C19.8535 22.2109 19.9035 22.3609 20.0035 22.4942C20.1368 22.6275 20.2868 22.6942 20.4535 22.6942ZM22.3035 18.4442C22.4702 18.4442 22.6035 18.3775 22.7035 18.2442C22.8369 18.1109 22.9035 17.9609 22.9035 17.7942C22.9035 17.6275 22.8369 17.4942 22.7035 17.3942C22.6035 17.2609 22.4702 17.1942 22.3035 17.1942C21.9035 17.1942 21.7035 17.3942 21.7035 17.7942C21.7035 18.2275 21.9035 18.4442 22.3035 18.4442ZM24.1535 13.8942C24.3202 13.8942 24.4535 13.8442 24.5535 13.7442C24.6869 13.6109 24.7535 13.4609 24.7535 13.2942C24.7535 13.1275 24.6869 12.9775 24.5535 12.8442C24.4535 12.7109 24.3202 12.6442 24.1535 12.6442C23.7535 12.6442 23.5535 12.8609 23.5535 13.2942C23.5535 13.6942 23.7535 13.8942 24.1535 13.8942ZM25.9535 9.84419C26.3535 9.84419 26.5535 9.62752 26.5535 9.19419C26.5535 8.79419 26.3535 8.59419 25.9535 8.59419C25.5535 8.59419 25.3535 8.79419 25.3535 9.19419C25.3535 9.62752 25.5535 9.84419 25.9535 9.84419ZM28.3535 31.8442C28.7868 31.8442 29.0035 31.6442 29.0035 31.2442C29.0035 30.8442 28.7868 30.6442 28.3535 30.6442C27.9535 30.6442 27.7535 30.8442 27.7535 31.2442C27.7535 31.6442 27.9535 31.8442 28.3535 31.8442ZM28.3535 27.0942C28.7868 27.0942 29.0035 26.8775 29.0035 26.4442C29.0035 26.2775 28.9368 26.1442 28.8035 26.0442C28.6702 25.9109 28.5202 25.8442 28.3535 25.8442C28.1868 25.8442 28.0368 25.9109 27.9035 26.0442C27.8035 26.1442 27.7535 26.2775 27.7535 26.4442C27.7535 26.8775 27.9535 27.0942 28.3535 27.0942ZM28.3535 22.5442C28.7868 22.5442 29.0035 22.3275 29.0035 21.8942C29.0035 21.4942 28.7868 21.2942 28.3535 21.2942C27.9535 21.2942 27.7535 21.4942 27.7535 21.8942C27.7535 22.3275 27.9535 22.5442 28.3535 22.5442ZM28.3535 17.8942C28.7868 17.8942 29.0035 17.6775 29.0035 17.2442C29.0035 17.0775 28.9368 16.9442 28.8035 16.8442C28.6702 16.7109 28.5202 16.6442 28.3535 16.6442C28.1868 16.6442 28.0368 16.7109 27.9035 16.8442C27.8035 16.9442 27.7535 17.0775 27.7535 17.2442C27.7535 17.6775 27.9535 17.8942 28.3535 17.8942ZM28.4035 13.1942C28.5702 13.1942 28.7035 13.1442 28.8035 13.0442C28.9368 12.9109 29.0035 12.7609 29.0035 12.5942C29.0035 12.4275 28.9368 12.2942 28.8035 12.1942C28.7035 12.0609 28.5702 11.9942 28.4035 11.9942C27.9702 11.9942 27.7535 12.1942 27.7535 12.5942C27.7535 12.9942 27.9702 13.1942 28.4035 13.1942ZM27.7535 7.99419C27.7535 8.39419 27.9535 8.59419 28.3535 8.59419C28.7868 8.59419 29.0035 8.39419 29.0035 7.99419C29.0035 7.59419 28.7868 7.39419 28.3535 7.39419C27.9535 7.39419 27.7535 7.59419 27.7535 7.99419ZM28.4035 3.99419C28.5702 3.99419 28.7035 3.92752 28.8035 3.79419C28.9368 3.66086 29.0035 3.51086 29.0035 3.34419C29.0035 3.17752 28.9368 3.04419 28.8035 2.94419C28.7035 2.81085 28.5702 2.74419 28.4035 2.74419C27.9702 2.74419 27.7535 2.94419 27.7535 3.34419C27.7535 3.77752 27.9702 3.99419 28.4035 3.99419ZM58.3555 29.9942C58.3555 32.1609 58.7221 33.5609 59.4555 34.1942C59.5555 34.2609 59.5888 34.3442 59.5555 34.4442C59.5555 34.5109 59.4721 34.5442 59.3055 34.5442H34.6055C34.4388 34.5442 34.3388 34.5109 34.3055 34.4442C34.3055 34.3442 34.3555 34.2609 34.4555 34.1942C35.1888 33.5609 35.5555 32.1609 35.5555 29.9942V27.7442V4.94419C35.5555 1.91086 34.8055 0.394188 33.3055 0.394188H59.3055C59.4721 0.394188 59.5555 0.444188 59.5555 0.544189C59.5888 0.644188 59.5555 0.727521 59.4555 0.794189C58.7221 1.42752 58.3555 2.81086 58.3555 4.94419V7.24419V8.24419C58.3555 8.37752 58.3055 8.46086 58.2055 8.49419C58.1055 8.52752 58.0221 8.47752 57.9555 8.34419C57.3221 7.61086 55.9388 7.24419 53.8055 7.24419H42.4055V9.49419V14.0442H49.2555C51.3888 14.0442 52.7721 13.6775 53.4055 12.9442C53.4721 12.8442 53.5555 12.8109 53.6555 12.8442C53.7555 12.8775 53.8055 12.9609 53.8055 13.0942V14.0442V16.3442V20.8942V21.8942C53.8055 22.0275 53.7555 22.1109 53.6555 22.1442C53.5555 22.1775 53.4721 22.1442 53.4055 22.0442C52.7388 21.2775 51.3555 20.8942 49.2555 20.8942H42.4055V23.1442V27.7442H53.8055C55.9055 27.7442 57.2888 27.3609 57.9555 26.5942C58.0221 26.4942 58.1055 26.4609 58.2055 26.4942C58.3055 26.5275 58.3555 26.6109 58.3555 26.7442V27.7442V29.9942ZM51.3055 16.9942C50.9055 16.9942 50.7055 17.2109 50.7055 17.6442C50.7055 18.0442 50.9055 18.2442 51.3055 18.2442C51.7388 18.2442 51.9555 18.0442 51.9555 17.6442C51.9555 17.2109 51.7388 16.9942 51.3055 16.9942ZM55.6555 3.09419C55.4888 3.09419 55.3388 3.16086 55.2055 3.29419C55.1055 3.39419 55.0555 3.52752 55.0555 3.69419C55.0555 3.86085 55.1055 4.01085 55.2055 4.14419C55.3388 4.27752 55.4888 4.34419 55.6555 4.34419C56.0888 4.34419 56.3055 4.12752 56.3055 3.69419C56.3055 3.29419 56.0888 3.09419 55.6555 3.09419ZM51.6055 3.09419C51.1721 3.09419 50.9555 3.29419 50.9555 3.69419C50.9555 4.12752 51.1721 4.34419 51.6055 4.34419C51.7721 4.34419 51.9055 4.27752 52.0055 4.14419C52.1388 4.01085 52.2055 3.86085 52.2055 3.69419C52.2055 3.52752 52.1388 3.39419 52.0055 3.29419C51.9055 3.16086 51.7721 3.09419 51.6055 3.09419ZM47.4055 3.09419C46.9721 3.09419 46.7555 3.29419 46.7555 3.69419C46.7555 4.12752 46.9721 4.34419 47.4055 4.34419C47.5721 4.34419 47.7055 4.27752 47.8055 4.14419C47.9388 4.01085 48.0055 3.86085 48.0055 3.69419C48.0055 3.52752 47.9388 3.39419 47.8055 3.29419C47.7055 3.16086 47.5721 3.09419 47.4055 3.09419ZM43.1055 3.09419C42.7055 3.09419 42.5055 3.29419 42.5055 3.69419C42.5055 4.12752 42.7055 4.34419 43.1055 4.34419C43.5055 4.34419 43.7055 4.12752 43.7055 3.69419C43.7055 3.29419 43.5055 3.09419 43.1055 3.09419ZM47.1055 16.9942C46.7055 16.9942 46.5055 17.2109 46.5055 17.6442C46.5055 18.0442 46.7055 18.2442 47.1055 18.2442C47.5388 18.2442 47.7555 18.0442 47.7555 17.6442C47.7555 17.2109 47.5388 16.9942 47.1055 16.9942ZM43.0055 16.9942C42.5721 16.9942 42.3555 17.2109 42.3555 17.6442C42.3555 18.0442 42.5721 18.2442 43.0055 18.2442C43.1721 18.2442 43.3055 18.1942 43.4055 18.0942C43.5388 17.9609 43.6055 17.8109 43.6055 17.6442C43.6055 17.4775 43.5388 17.3275 43.4055 17.1942C43.3055 17.0609 43.1721 16.9942 43.0055 16.9942ZM38.7555 32.1942C39.1888 32.1942 39.4055 31.9942 39.4055 31.5942C39.4055 31.1609 39.1888 30.9442 38.7555 30.9442C38.3555 30.9442 38.1555 31.1609 38.1555 31.5942C38.1555 31.9942 38.3555 32.1942 38.7555 32.1942ZM38.7555 27.4442C39.1888 27.4442 39.4055 27.2442 39.4055 26.8442C39.4055 26.4109 39.1888 26.1942 38.7555 26.1942C38.3555 26.1942 38.1555 26.4109 38.1555 26.8442C38.1555 27.2442 38.3555 27.4442 38.7555 27.4442ZM38.7555 22.8942C39.1888 22.8942 39.4055 22.6775 39.4055 22.2442C39.4055 21.8442 39.1888 21.6442 38.7555 21.6442C38.3555 21.6442 38.1555 21.8442 38.1555 22.2442C38.1555 22.6775 38.3555 22.8942 38.7555 22.8942ZM38.7555 18.2442C39.1888 18.2442 39.4055 18.0442 39.4055 17.6442C39.4055 17.2109 39.1888 16.9942 38.7555 16.9942C38.3555 16.9942 38.1555 17.2109 38.1555 17.6442C38.1555 18.0442 38.3555 18.2442 38.7555 18.2442ZM38.8055 13.5942C39.2388 13.5942 39.4555 13.3775 39.4555 12.9442C39.4555 12.5442 39.2388 12.3442 38.8055 12.3442C38.3721 12.3442 38.1555 12.5442 38.1555 12.9442C38.1555 13.3775 38.3721 13.5942 38.8055 13.5942ZM38.1555 8.34419C38.1555 8.74419 38.3555 8.94419 38.7555 8.94419C39.1888 8.94419 39.4055 8.74419 39.4055 8.34419C39.4055 7.91086 39.1888 7.69419 38.7555 7.69419C38.3555 7.69419 38.1555 7.91086 38.1555 8.34419ZM38.8055 4.34419C39.2388 4.34419 39.4555 4.12752 39.4555 3.69419C39.4555 3.29419 39.2388 3.09419 38.8055 3.09419C38.3721 3.09419 38.1555 3.29419 38.1555 3.69419C38.1555 4.12752 38.3721 4.34419 38.8055 4.34419ZM42.9555 32.1942C43.3888 32.1942 43.6055 31.9942 43.6055 31.5942C43.6055 31.1609 43.3888 30.9442 42.9555 30.9442C42.5555 30.9442 42.3555 31.1609 42.3555 31.5942C42.3555 31.9942 42.5555 32.1942 42.9555 32.1942ZM47.1055 32.1942C47.2721 32.1942 47.4055 32.1442 47.5055 32.0442C47.6388 31.9109 47.7055 31.7609 47.7055 31.5942C47.7055 31.4275 47.6388 31.2775 47.5055 31.1442C47.4055 31.0109 47.2721 30.9442 47.1055 30.9442C46.6721 30.9442 46.4555 31.1609 46.4555 31.5942C46.4555 31.9942 46.6721 32.1942 47.1055 32.1942ZM51.3055 32.1942C51.7055 32.1942 51.9055 31.9942 51.9055 31.5942C51.9055 31.1609 51.7055 30.9442 51.3055 30.9442C50.8721 30.9442 50.6555 31.1609 50.6555 31.5942C50.6555 31.9942 50.8721 32.1942 51.3055 32.1942ZM55.7055 32.1942C55.8721 32.1942 56.0055 32.1442 56.1055 32.0442C56.2388 31.9109 56.3055 31.7609 56.3055 31.5942C56.3055 31.4275 56.2388 31.2775 56.1055 31.1442C56.0055 31.0109 55.8721 30.9442 55.7055 30.9442C55.2721 30.9442 55.0555 31.1609 55.0555 31.5942C55.0555 31.9942 55.2721 32.1942 55.7055 32.1942ZM86.2016 0.394188C86.3349 0.394188 86.4182 0.444188 86.4516 0.544189C86.4849 0.610855 86.4349 0.694188 86.3016 0.794189C85.5682 1.46085 85.2016 2.84419 85.2016 4.94419V7.19419V8.19419C85.2016 8.32752 85.1516 8.41086 85.0516 8.44419C84.9516 8.47752 84.8682 8.44419 84.8016 8.34419C84.1349 7.57752 82.7516 7.19419 80.6516 7.19419H77.2016V11.3442V18.5942V27.3942V29.9942C77.2016 32.1275 77.5682 33.5109 78.3016 34.1442C78.4016 34.2109 78.4349 34.2942 78.4016 34.3942C78.4016 34.4942 78.3182 34.5442 78.1516 34.5442H69.3516C69.2182 34.5442 69.1349 34.4942 69.1016 34.3942C69.0682 34.2942 69.1182 34.2109 69.2516 34.1442C69.9849 33.4775 70.3516 32.0942 70.3516 29.9942V7.19419H66.9016C64.7349 7.19419 63.3516 7.57752 62.7516 8.34419C62.6516 8.44419 62.5516 8.47752 62.4516 8.44419C62.3849 8.41086 62.3516 8.32752 62.3516 8.19419V7.19419V4.94419C62.3516 2.84419 61.9682 1.46085 61.2016 0.794189C61.1016 0.694188 61.0682 0.610855 61.1016 0.544189C61.1349 0.444188 61.2182 0.394188 61.3516 0.394188H62.3516H69.1516H74.9016H79.4516H85.2016H86.2016ZM65.0516 4.04419C65.4849 4.04419 65.7016 3.82752 65.7016 3.39419C65.7016 2.99419 65.4849 2.79419 65.0516 2.79419C64.6516 2.79419 64.4516 2.99419 64.4516 3.39419C64.4516 3.82752 64.6516 4.04419 65.0516 4.04419ZM69.4516 4.04419C69.8516 4.04419 70.0516 3.82752 70.0516 3.39419C70.0516 2.99419 69.8516 2.79419 69.4516 2.79419C69.0182 2.79419 68.8016 2.99419 68.8016 3.39419C68.8016 3.82752 69.0182 4.04419 69.4516 4.04419ZM73.8016 31.8942C73.9682 31.8942 74.1182 31.8442 74.2516 31.7442C74.3849 31.6109 74.4516 31.4609 74.4516 31.2942C74.4516 30.8609 74.2349 30.6442 73.8016 30.6442C73.4016 30.6442 73.2016 30.8609 73.2016 31.2942C73.2016 31.4609 73.2516 31.6109 73.3516 31.7442C73.4849 31.8442 73.6349 31.8942 73.8016 31.8942ZM73.8016 27.1442C73.9682 27.1442 74.1182 27.0942 74.2516 26.9942C74.3849 26.8609 74.4516 26.7109 74.4516 26.5442C74.4516 26.1109 74.2349 25.8942 73.8016 25.8942C73.4016 25.8942 73.2016 26.1109 73.2016 26.5442C73.2016 26.7109 73.2516 26.8609 73.3516 26.9942C73.4849 27.0942 73.6349 27.1442 73.8016 27.1442ZM73.8016 22.5442C74.2349 22.5442 74.4516 22.3442 74.4516 21.9442C74.4516 21.5442 74.2349 21.3442 73.8016 21.3442C73.4016 21.3442 73.2016 21.5442 73.2016 21.9442C73.2016 22.3442 73.4016 22.5442 73.8016 22.5442ZM73.8016 17.9442C73.9682 17.9442 74.1182 17.8942 74.2516 17.7942C74.3849 17.6609 74.4516 17.5109 74.4516 17.3442C74.4516 16.9109 74.2349 16.6942 73.8016 16.6942C73.4016 16.6942 73.2016 16.9109 73.2016 17.3442C73.2016 17.5109 73.2516 17.6609 73.3516 17.7942C73.4849 17.8942 73.6349 17.9442 73.8016 17.9442ZM73.8516 13.2442C74.2516 13.2442 74.4516 13.0442 74.4516 12.6442C74.4516 12.2109 74.2516 11.9942 73.8516 11.9942C73.4182 11.9942 73.2016 12.2109 73.2016 12.6442C73.2016 13.0442 73.4182 13.2442 73.8516 13.2442ZM73.2016 8.04419C73.2016 8.44419 73.4016 8.64419 73.8016 8.64419C74.2349 8.64419 74.4516 8.44419 74.4516 8.04419C74.4516 7.61085 74.2349 7.39419 73.8016 7.39419C73.4016 7.39419 73.2016 7.61085 73.2016 8.04419ZM73.8516 4.04419C74.2516 4.04419 74.4516 3.82752 74.4516 3.39419C74.4516 2.99419 74.2516 2.79419 73.8516 2.79419C73.4182 2.79419 73.2016 2.99419 73.2016 3.39419C73.2016 3.82752 73.4182 4.04419 73.8516 4.04419ZM78.2016 4.04419C78.6016 4.04419 78.8016 3.82752 78.8016 3.39419C78.8016 2.99419 78.6016 2.79419 78.2016 2.79419C77.7682 2.79419 77.5516 2.99419 77.5516 3.39419C77.5516 3.82752 77.7682 4.04419 78.2016 4.04419ZM82.6016 4.04419C83.0016 4.04419 83.2016 3.82752 83.2016 3.39419C83.2016 2.99419 83.0016 2.79419 82.6016 2.79419C82.1682 2.79419 81.9516 2.99419 81.9516 3.39419C81.9516 3.82752 82.1682 4.04419 82.6016 4.04419ZM112.965 34.1442C113.065 34.2442 113.099 34.3442 113.065 34.4442C113.032 34.5109 112.949 34.5442 112.815 34.5442H104.015C103.882 34.5442 103.799 34.5109 103.765 34.4442C103.732 34.3442 103.765 34.2442 103.865 34.1442C104.632 33.5442 105.015 32.1609 105.015 29.9942V25.4442H95.8652V29.9942C95.8652 32.1609 96.2486 33.5442 97.0152 34.1442C97.2819 34.4109 97.2319 34.5442 96.8652 34.5442H88.0652C87.9319 34.5442 87.8486 34.5109 87.8152 34.4442C87.7819 34.3442 87.8152 34.2442 87.9152 34.1442C88.6819 33.5442 89.0652 32.1609 89.0652 29.9942V23.1942V19.1442C89.0652 17.7109 89.1986 16.3442 89.4652 15.0442C89.7319 13.7109 90.1486 12.3775 90.7152 11.0442L93.3152 4.99419C93.7486 2.86085 93.6486 1.46085 93.0152 0.794189C92.9152 0.694188 92.8819 0.610855 92.9152 0.544189C92.9486 0.444188 93.0319 0.394188 93.1652 0.394188H107.715C108.049 0.394188 108.115 0.527522 107.915 0.794189C107.282 1.39419 107.165 2.79419 107.565 4.99419L110.165 11.0442C110.732 12.3775 111.149 13.7109 111.415 15.0442C111.682 16.3442 111.815 17.7109 111.815 19.1442V23.1942V29.9942C111.815 32.1609 112.199 33.5442 112.965 34.1442ZM107.815 16.1942C107.415 16.1942 107.215 16.4109 107.215 16.8442C107.215 17.0109 107.265 17.1609 107.365 17.2942C107.499 17.3942 107.649 17.4442 107.815 17.4442C107.982 17.4442 108.132 17.3942 108.265 17.2942C108.399 17.1609 108.465 17.0109 108.465 16.8442C108.465 16.4109 108.249 16.1942 107.815 16.1942ZM103.615 2.59419C103.215 2.59419 103.015 2.79419 103.015 3.19419C103.015 3.62752 103.215 3.84419 103.615 3.84419C104.015 3.84419 104.215 3.62752 104.215 3.19419C104.215 2.79419 104.015 2.59419 103.615 2.59419ZM97.2652 3.04419C96.8319 3.04419 96.6152 3.24419 96.6152 3.64419C96.6152 4.07752 96.8319 4.29419 97.2652 4.29419C97.6986 4.29419 97.9152 4.07752 97.9152 3.64419C97.9152 3.24419 97.6986 3.04419 97.2652 3.04419ZM92.4652 31.8442C92.8986 31.8442 93.1152 31.6275 93.1152 31.1942C93.1152 31.0275 93.0486 30.8942 92.9152 30.7942C92.7819 30.6609 92.6319 30.5942 92.4652 30.5942C92.2986 30.5942 92.1486 30.6609 92.0152 30.7942C91.8819 30.8942 91.8152 31.0275 91.8152 31.1942C91.8152 31.6275 92.0319 31.8442 92.4652 31.8442ZM92.6152 27.0942C93.0486 27.0942 93.2652 26.8775 93.2652 26.4442C93.2652 26.2775 93.1986 26.1442 93.0652 26.0442C92.9652 25.9109 92.8152 25.8442 92.6152 25.8442C92.4486 25.8442 92.2986 25.9109 92.1652 26.0442C92.0652 26.1442 92.0152 26.2775 92.0152 26.4442C92.0152 26.8775 92.2152 27.0942 92.6152 27.0942ZM92.6152 22.3442C93.0486 22.3442 93.2652 22.1442 93.2652 21.7442C93.2652 21.3109 93.0486 21.0942 92.6152 21.0942C92.2152 21.0942 92.0152 21.3109 92.0152 21.7442C92.0152 22.1442 92.2152 22.3442 92.6152 22.3442ZM92.9152 17.7442C93.0819 17.7442 93.2319 17.6942 93.3652 17.5942C93.4986 17.4609 93.5652 17.3109 93.5652 17.1442C93.5652 16.7109 93.3486 16.4942 92.9152 16.4942C92.5152 16.4942 92.3152 16.7109 92.3152 17.1442C92.3152 17.3109 92.3652 17.4609 92.4652 17.5942C92.5986 17.6942 92.7486 17.7442 92.9152 17.7442ZM93.5652 13.1942C93.9652 13.1942 94.1652 12.9942 94.1652 12.5942C94.1652 12.1942 93.9652 11.9942 93.5652 11.9942C93.1319 11.9942 92.9152 12.1942 92.9152 12.5942C92.9152 12.9942 93.1319 13.1942 93.5652 13.1942ZM95.6152 8.59419C96.0152 8.59419 96.2152 8.39419 96.2152 7.99419C96.2152 7.56085 96.0152 7.34419 95.6152 7.34419C95.1819 7.34419 94.9652 7.56085 94.9652 7.99419C94.9652 8.39419 95.1819 8.59419 95.6152 8.59419ZM97.7152 22.3442C98.1486 22.3442 98.3652 22.1442 98.3652 21.7442C98.3652 21.3109 98.1486 21.0942 97.7152 21.0942C97.2819 21.0942 97.0652 21.3109 97.0652 21.7442C97.0652 22.1442 97.2819 22.3442 97.7152 22.3442ZM102.865 22.3942C103.032 22.3942 103.165 22.3442 103.265 22.2442C103.399 22.1109 103.465 21.9609 103.465 21.7942C103.465 21.3609 103.265 21.1442 102.865 21.1442C102.432 21.1442 102.215 21.3609 102.215 21.7942C102.215 21.9609 102.265 22.1109 102.365 22.2442C102.499 22.3442 102.665 22.3942 102.865 22.3942ZM105.015 18.6442C104.915 16.9442 104.549 15.3109 103.915 13.7442L100.465 5.69419L97.0152 13.7442C96.3152 15.3109 95.9486 16.9442 95.9152 18.6442H105.015ZM105.115 8.19419C105.515 8.19419 105.715 7.97752 105.715 7.54419C105.715 7.11085 105.515 6.89419 105.115 6.89419C104.682 6.89419 104.465 7.11085 104.465 7.54419C104.465 7.97752 104.682 8.19419 105.115 8.19419ZM106.165 12.1442C106.165 12.5775 106.382 12.7942 106.815 12.7942C107.215 12.7942 107.415 12.5775 107.415 12.1442C107.415 11.7442 107.215 11.5442 106.815 11.5442C106.382 11.5442 106.165 11.7442 106.165 12.1442ZM107.215 21.5942C107.215 22.0275 107.415 22.2442 107.815 22.2442C108.249 22.2442 108.465 22.0275 108.465 21.5942C108.465 21.1942 108.249 20.9942 107.815 20.9942C107.415 20.9942 107.215 21.1942 107.215 21.5942ZM108.165 31.6942C108.332 31.6942 108.465 31.6442 108.565 31.5442C108.699 31.4109 108.765 31.2609 108.765 31.0942C108.765 30.9275 108.699 30.7775 108.565 30.6442C108.465 30.5109 108.332 30.4442 108.165 30.4442C107.732 30.4442 107.515 30.6609 107.515 31.0942C107.515 31.4942 107.732 31.6942 108.165 31.6942ZM108.165 26.7942C108.332 26.7942 108.465 26.7275 108.565 26.5942C108.699 26.4609 108.765 26.3109 108.765 26.1442C108.765 25.9775 108.699 25.8442 108.565 25.7442C108.465 25.6109 108.332 25.5442 108.165 25.5442C107.999 25.5442 107.849 25.6109 107.715 25.7442C107.582 25.8442 107.515 25.9775 107.515 26.1442C107.515 26.5775 107.732 26.7942 108.165 26.7942ZM129.968 14.0942C131.402 14.0942 132.735 14.3609 133.968 14.8942C135.202 15.4275 136.285 16.1609 137.218 17.0942C138.152 18.0275 138.885 19.1109 139.418 20.3442C139.952 21.5775 140.218 22.9109 140.218 24.3442C140.218 25.7442 139.952 27.0775 139.418 28.3442C138.885 29.5775 138.152 30.6609 137.218 31.5942C136.285 32.4942 135.202 33.2109 133.968 33.7442C132.735 34.2775 131.402 34.5442 129.968 34.5442H127.718H125.418C124.018 34.5442 122.685 34.2775 121.418 33.7442C120.185 33.2109 119.102 32.4942 118.168 31.5942C117.268 30.6609 116.552 29.5775 116.018 28.3442C115.485 27.0775 115.218 25.7442 115.218 24.3442H122.018H122.968C123.235 24.3442 123.318 24.4442 123.218 24.6442C122.852 25.3109 122.818 25.8942 123.118 26.3942C123.418 26.8942 123.735 27.2442 124.068 27.4442C124.502 27.6442 124.952 27.7442 125.418 27.7442H127.718H129.968C130.935 27.7442 131.752 27.4109 132.418 26.7442C133.085 26.0775 133.418 25.2775 133.418 24.3442C133.418 23.3775 133.085 22.5609 132.418 21.8942C131.752 21.2275 130.935 20.8942 129.968 20.8942H127.718H125.418C124.018 20.8942 122.685 20.6275 121.418 20.0942C120.185 19.5609 119.102 18.8275 118.168 17.8942C117.268 16.9609 116.552 15.8775 116.018 14.6442C115.485 13.3775 115.218 12.0442 115.218 10.6442C115.218 9.24419 115.485 7.92752 116.018 6.69419C116.552 5.42752 117.268 4.32752 118.168 3.39419C119.102 2.46085 120.185 1.72752 121.418 1.19419C122.685 0.660854 124.018 0.394188 125.418 0.394188H127.718H129.968C131.402 0.394188 132.735 0.660854 133.968 1.19419C135.202 1.72752 136.285 2.46085 137.218 3.39419C138.152 4.32752 138.885 5.42752 139.418 6.69419C139.952 7.92752 140.218 9.24419 140.218 10.6442H133.418H132.418C132.152 10.6442 132.085 10.5442 132.218 10.3442C132.552 9.71085 132.568 9.12752 132.268 8.59419C132.002 8.06085 131.702 7.71085 131.368 7.54419C130.902 7.34419 130.435 7.24419 129.968 7.24419H127.718H125.418C124.485 7.24419 123.685 7.57752 123.018 8.24419C122.352 8.91085 122.018 9.71085 122.018 10.6442C122.018 11.6109 122.352 12.4275 123.018 13.0942C123.685 13.7609 124.485 14.0942 125.418 14.0942H127.718H129.968ZM136.418 7.64419C136.252 7.64419 136.102 7.71085 135.968 7.84419C135.868 7.94419 135.818 8.07752 135.818 8.24419C135.818 8.67752 136.018 8.89419 136.418 8.89419C136.852 8.89419 137.068 8.67752 137.068 8.24419C137.068 8.07752 137.002 7.94419 136.868 7.84419C136.735 7.71085 136.585 7.64419 136.418 7.64419ZM133.168 3.84419C132.768 3.84419 132.568 4.06086 132.568 4.49419C132.568 4.89419 132.768 5.09419 133.168 5.09419C133.568 5.09419 133.768 4.89419 133.768 4.49419C133.768 4.06086 133.568 3.84419 133.168 3.84419ZM128.568 2.99419C128.168 2.99419 127.968 3.19419 127.968 3.59419C127.968 3.99419 128.168 4.19419 128.568 4.19419C129.002 4.19419 129.218 3.99419 129.218 3.59419C129.218 3.19419 129.002 2.99419 128.568 2.99419ZM123.818 2.99419C123.385 2.99419 123.168 3.19419 123.168 3.59419C123.168 3.99419 123.385 4.19419 123.818 4.19419C124.218 4.19419 124.418 3.99419 124.418 3.59419C124.418 3.19419 124.218 2.99419 123.818 2.99419ZM120.018 5.74419C119.618 5.74419 119.418 5.96085 119.418 6.39419C119.418 6.56085 119.468 6.71085 119.568 6.84419C119.702 6.94419 119.852 6.99419 120.018 6.99419C120.185 6.99419 120.318 6.94419 120.418 6.84419C120.552 6.71085 120.618 6.56085 120.618 6.39419C120.618 5.96085 120.418 5.74419 120.018 5.74419ZM119.068 11.2942C119.502 11.2942 119.718 11.0942 119.718 10.6942C119.718 10.2609 119.502 10.0442 119.068 10.0442C118.902 10.0442 118.752 10.1109 118.618 10.2442C118.518 10.3775 118.468 10.5275 118.468 10.6942C118.468 10.8609 118.518 11.0109 118.618 11.1442C118.752 11.2442 118.902 11.2942 119.068 11.2942ZM120.618 15.5942C121.052 15.5942 121.268 15.3775 121.268 14.9442C121.268 14.5442 121.052 14.3442 120.618 14.3442C120.452 14.3442 120.302 14.4109 120.168 14.5442C120.068 14.6442 120.018 14.7775 120.018 14.9442C120.018 15.1109 120.068 15.2609 120.168 15.3942C120.302 15.5275 120.452 15.5942 120.618 15.5942ZM124.418 18.0942C124.852 18.0942 125.068 17.8775 125.068 17.4442C125.068 17.2775 125.002 17.1442 124.868 17.0442C124.735 16.9109 124.585 16.8442 124.418 16.8442C124.252 16.8442 124.102 16.9109 123.968 17.0442C123.868 17.1442 123.818 17.2775 123.818 17.4442C123.818 17.8775 124.018 18.0942 124.418 18.0942ZM129.218 18.0942C129.385 18.0942 129.518 18.0442 129.618 17.9442C129.752 17.8109 129.818 17.6442 129.818 17.4442C129.818 17.2775 129.752 17.1442 129.618 17.0442C129.518 16.9109 129.385 16.8442 129.218 16.8442C129.052 16.8442 128.902 16.9109 128.768 17.0442C128.635 17.1442 128.568 17.2775 128.568 17.4442C128.568 17.8775 128.785 18.0942 129.218 18.0942ZM120.018 28.0442C120.185 28.0442 120.335 27.9942 120.468 27.8942C120.602 27.7609 120.668 27.6109 120.668 27.4442C120.668 27.0109 120.452 26.7942 120.018 26.7942C119.852 26.7942 119.702 26.8609 119.568 26.9942C119.468 27.1275 119.418 27.2775 119.418 27.4442C119.418 27.6109 119.468 27.7609 119.568 27.8942C119.702 27.9942 119.852 28.0442 120.018 28.0442ZM123.668 30.9442C124.102 30.9442 124.318 30.7275 124.318 30.2942C124.318 29.8942 124.102 29.6942 123.668 29.6942C123.268 29.6942 123.068 29.8942 123.068 30.2942C123.068 30.7275 123.268 30.9442 123.668 30.9442ZM128.418 31.2442C128.585 31.2442 128.735 31.1942 128.868 31.0942C129.002 30.9609 129.068 30.8109 129.068 30.6442C129.068 30.2109 128.852 29.9942 128.418 29.9942C128.018 29.9942 127.818 30.2109 127.818 30.6442C127.818 30.8109 127.868 30.9609 127.968 31.0942C128.102 31.1942 128.252 31.2442 128.418 31.2442ZM133.468 30.6442C133.902 30.6442 134.118 30.4275 134.118 29.9942C134.118 29.5942 133.902 29.3942 133.468 29.3942C133.068 29.3942 132.868 29.5942 132.868 29.9942C132.868 30.4275 133.068 30.6442 133.468 30.6442ZM133.768 18.7942C134.202 18.7942 134.418 18.5942 134.418 18.1942C134.418 17.7942 134.202 17.5942 133.768 17.5942C133.602 17.5942 133.452 17.6609 133.318 17.7942C133.218 17.8942 133.168 18.0275 133.168 18.1942C133.168 18.3609 133.218 18.5109 133.318 18.6442C133.452 18.7442 133.602 18.7942 133.768 18.7942ZM136.418 26.8442C136.585 26.8442 136.735 26.7942 136.868 26.6942C137.002 26.5609 137.068 26.4109 137.068 26.2442C137.068 25.8109 136.852 25.5942 136.418 25.5942C136.018 25.5942 135.818 25.8109 135.818 26.2442C135.818 26.4109 135.868 26.5609 135.968 26.6942C136.102 26.7942 136.252 26.8442 136.418 26.8442ZM136.418 22.1442C136.852 22.1442 137.068 21.9442 137.068 21.5442C137.068 21.1109 136.852 20.8942 136.418 20.8942C136.018 20.8942 135.818 21.1109 135.818 21.5442C135.818 21.9442 136.018 22.1442 136.418 22.1442ZM150.566 29.9942C150.566 32.1275 150.949 33.5109 151.716 34.1442C151.782 34.2109 151.799 34.2942 151.766 34.3942C151.766 34.4942 151.682 34.5442 151.516 34.5442H142.766C142.599 34.5442 142.499 34.4942 142.466 34.3942C142.466 34.2942 142.516 34.2109 142.616 34.1442C143.349 33.5109 143.716 32.1275 143.716 29.9942V4.94419C143.716 2.77752 143.349 1.39419 142.616 0.794189C142.349 0.527522 142.399 0.394188 142.766 0.394188H148.266H150.566H151.516C151.849 0.394188 151.916 0.527522 151.716 0.794189C150.949 1.36085 150.566 2.74419 150.566 4.94419V7.19419V11.3442V18.5942V27.6942V29.9942ZM147.166 31.8442C147.566 31.8442 147.766 31.6275 147.766 31.1942C147.766 30.7942 147.566 30.5942 147.166 30.5942C146.732 30.5942 146.516 30.7942 146.516 31.1942C146.516 31.6275 146.732 31.8442 147.166 31.8442ZM147.166 27.0442C147.566 27.0442 147.766 26.8442 147.766 26.4442C147.766 26.0442 147.566 25.8442 147.166 25.8442C146.732 25.8442 146.516 26.0442 146.516 26.4442C146.516 26.8442 146.732 27.0442 147.166 27.0442ZM147.166 22.4942C147.566 22.4942 147.766 22.2942 147.766 21.8942C147.766 21.4609 147.566 21.2442 147.166 21.2442C146.732 21.2442 146.516 21.4609 146.516 21.8942C146.516 22.2942 146.732 22.4942 147.166 22.4942ZM147.166 17.8942C147.566 17.8942 147.766 17.6775 147.766 17.2442C147.766 16.8442 147.566 16.6442 147.166 16.6442C146.732 16.6442 146.516 16.8442 146.516 17.2442C146.516 17.6775 146.732 17.8942 147.166 17.8942ZM147.166 13.1942C147.599 13.1942 147.816 12.9942 147.816 12.5942C147.816 12.1609 147.599 11.9442 147.166 11.9442C146.999 11.9442 146.849 12.0109 146.716 12.1442C146.616 12.2442 146.566 12.3942 146.566 12.5942C146.566 12.7609 146.616 12.9109 146.716 13.0442C146.849 13.1442 146.999 13.1942 147.166 13.1942ZM146.516 7.99419C146.516 8.39419 146.732 8.59419 147.166 8.59419C147.566 8.59419 147.766 8.39419 147.766 7.99419C147.766 7.56085 147.566 7.34419 147.166 7.34419C146.732 7.34419 146.516 7.56085 146.516 7.99419ZM147.166 3.94419C147.599 3.94419 147.816 3.74419 147.816 3.34419C147.816 2.91086 147.599 2.69419 147.166 2.69419C146.999 2.69419 146.849 2.76086 146.716 2.89419C146.616 3.02752 146.566 3.17752 146.566 3.34419C146.566 3.51086 146.616 3.66086 146.716 3.79419C146.849 3.89419 146.999 3.94419 147.166 3.94419ZM177.488 29.9942C177.488 32.0942 177.871 33.4775 178.638 34.1442C178.738 34.2109 178.771 34.2942 178.738 34.3942C178.705 34.4942 178.621 34.5442 178.488 34.5442H169.688C169.555 34.5442 169.471 34.4942 169.438 34.3942C169.405 34.2942 169.438 34.2109 169.538 34.1442C170.138 33.6442 170.488 32.6775 170.588 31.2442C170.655 30.6442 170.621 30.1109 170.488 29.6442C170.388 29.1442 170.155 28.6609 169.788 28.1942L161.538 16.6942V20.8942V23.1442V29.9942C161.538 32.0942 161.921 33.4775 162.688 34.1442C162.788 34.2109 162.821 34.2942 162.788 34.3942C162.755 34.4942 162.671 34.5442 162.538 34.5442H153.738C153.605 34.5442 153.521 34.4942 153.488 34.3942C153.455 34.2942 153.488 34.2109 153.588 34.1442C154.355 33.4775 154.738 32.0942 154.738 29.9942V27.6942V4.94419C154.738 2.77752 154.355 1.39419 153.588 0.794189C153.488 0.694188 153.455 0.610855 153.488 0.544189C153.521 0.444188 153.605 0.394188 153.738 0.394188H162.538C162.671 0.394188 162.755 0.444188 162.788 0.544189C162.821 0.610855 162.788 0.694188 162.688 0.794189C162.255 1.12752 161.938 1.76085 161.738 2.69419C161.605 3.39419 161.588 4.02752 161.688 4.59419C161.821 5.12752 162.088 5.67752 162.488 6.24419L170.688 17.6942V14.0442V9.49419V4.94419C170.688 2.77752 170.305 1.39419 169.538 0.794189C169.438 0.694188 169.405 0.610855 169.438 0.544189C169.471 0.444188 169.555 0.394188 169.688 0.394188H178.488C178.621 0.394188 178.705 0.444188 178.738 0.544189C178.771 0.610855 178.738 0.694188 178.638 0.794189C177.871 1.39419 177.488 2.77752 177.488 4.94419V29.9942ZM158.188 32.1442C158.588 32.1442 158.788 31.9275 158.788 31.4942C158.788 31.0609 158.588 30.8442 158.188 30.8442C157.788 30.8442 157.588 31.0609 157.588 31.4942C157.588 31.9275 157.788 32.1442 158.188 32.1442ZM158.188 27.3442C158.588 27.3442 158.788 27.1442 158.788 26.7442C158.788 26.3109 158.588 26.0942 158.188 26.0942C157.788 26.0942 157.588 26.3109 157.588 26.7442C157.588 27.1442 157.788 27.3442 158.188 27.3442ZM158.188 22.7942C158.588 22.7942 158.788 22.5775 158.788 22.1442C158.788 21.9775 158.721 21.8442 158.588 21.7442C158.488 21.6109 158.355 21.5442 158.188 21.5442C158.021 21.5442 157.871 21.6109 157.738 21.7442C157.638 21.8442 157.588 21.9775 157.588 22.1442C157.588 22.5775 157.788 22.7942 158.188 22.7942ZM158.188 18.1442C158.355 18.1442 158.488 18.0942 158.588 17.9942C158.721 17.8609 158.788 17.7109 158.788 17.5442C158.788 17.1109 158.588 16.8942 158.188 16.8942C157.788 16.8942 157.588 17.1109 157.588 17.5442C157.588 17.7109 157.638 17.8609 157.738 17.9942C157.871 18.0942 158.021 18.1442 158.188 18.1442ZM158.238 13.4942C158.638 13.4942 158.838 13.2775 158.838 12.8442C158.838 12.4442 158.638 12.2442 158.238 12.2442C157.805 12.2442 157.588 12.4442 157.588 12.8442C157.588 13.2775 157.805 13.4942 158.238 13.4942ZM157.588 8.24419C157.588 8.67752 157.788 8.89419 158.188 8.89419C158.588 8.89419 158.788 8.67752 158.788 8.24419C158.788 7.84419 158.588 7.64419 158.188 7.64419C157.788 7.64419 157.588 7.84419 157.588 8.24419ZM158.238 4.24419C158.638 4.24419 158.838 4.02752 158.838 3.59419C158.838 3.42752 158.771 3.29419 158.638 3.19419C158.538 3.06085 158.405 2.99419 158.238 2.99419C158.071 2.99419 157.921 3.06085 157.788 3.19419C157.655 3.29419 157.588 3.42752 157.588 3.59419C157.588 4.02752 157.805 4.24419 158.238 4.24419ZM161.188 10.2942C161.521 9.99419 161.521 9.67752 161.188 9.34419C161.121 9.31086 161.055 9.27752 160.988 9.24419C160.955 9.21085 160.905 9.19419 160.838 9.19419L160.938 10.4442C161.005 10.4442 161.088 10.3942 161.188 10.2942ZM163.488 14.1942C163.655 14.1942 163.788 14.1442 163.888 14.0442C164.021 13.9109 164.088 13.7609 164.088 13.5942C164.088 13.4275 164.021 13.2942 163.888 13.1942C163.788 13.0609 163.655 12.9942 163.488 12.9942C163.055 12.9942 162.838 13.1942 162.838 13.5942C162.838 13.9942 163.055 14.1942 163.488 14.1942ZM166.288 17.7942C166.688 17.7942 166.888 17.5775 166.888 17.1442C166.888 16.9775 166.821 16.8442 166.688 16.7442C166.588 16.6109 166.455 16.5442 166.288 16.5442C166.121 16.5442 165.971 16.6109 165.838 16.7442C165.705 16.8442 165.638 16.9775 165.638 17.1442C165.638 17.5775 165.855 17.7942 166.288 17.7942ZM168.938 21.8442C169.105 21.8442 169.238 21.7775 169.338 21.6442C169.471 21.5109 169.538 21.3609 169.538 21.1942C169.538 21.0275 169.471 20.8775 169.338 20.7442C169.238 20.6109 169.105 20.5442 168.938 20.5442C168.505 20.5442 168.288 20.7609 168.288 21.1942C168.288 21.6275 168.505 21.8442 168.938 21.8442ZM171.488 25.8942C171.621 26.0275 171.755 26.0942 171.888 26.0942L171.788 24.8442C171.688 24.8442 171.588 24.8942 171.488 24.9942C171.188 25.2942 171.188 25.5942 171.488 25.8942ZM174.188 31.7942C174.588 31.7942 174.788 31.5775 174.788 31.1442C174.788 30.7442 174.588 30.5442 174.188 30.5442C173.755 30.5442 173.538 30.7442 173.538 31.1442C173.538 31.5775 173.755 31.7942 174.188 31.7942ZM174.188 26.9942C174.588 26.9942 174.788 26.7942 174.788 26.3942C174.788 25.9609 174.588 25.7442 174.188 25.7442C173.755 25.7442 173.538 25.9609 173.538 26.3942C173.538 26.7942 173.755 26.9942 174.188 26.9942ZM174.188 22.4442C174.355 22.4442 174.488 22.3942 174.588 22.2942C174.721 22.1609 174.788 22.0109 174.788 21.8442C174.788 21.4109 174.588 21.1942 174.188 21.1942C173.755 21.1942 173.538 21.4109 173.538 21.8442C173.538 22.0109 173.605 22.1609 173.738 22.2942C173.871 22.3942 174.021 22.4442 174.188 22.4442ZM174.188 17.7942C174.588 17.7942 174.788 17.5942 174.788 17.1942C174.788 16.7609 174.588 16.5442 174.188 16.5442C173.755 16.5442 173.538 16.7609 173.538 17.1942C173.538 17.5942 173.755 17.7942 174.188 17.7942ZM174.238 13.1442C174.405 13.1442 174.538 13.0775 174.638 12.9442C174.771 12.8109 174.838 12.6609 174.838 12.4942C174.838 12.3275 174.771 12.1942 174.638 12.0942C174.538 11.9609 174.405 11.8942 174.238 11.8942C173.805 11.8942 173.588 12.0942 173.588 12.4942C173.588 12.9275 173.805 13.1442 174.238 13.1442ZM173.538 7.89419C173.538 8.32752 173.755 8.54419 174.188 8.54419C174.588 8.54419 174.788 8.32752 174.788 7.89419C174.788 7.49419 174.588 7.29419 174.188 7.29419C173.755 7.29419 173.538 7.49419 173.538 7.89419ZM174.238 3.89419C174.405 3.89419 174.538 3.84419 174.638 3.74419C174.771 3.61086 174.838 3.46086 174.838 3.29419C174.838 3.12752 174.771 2.97752 174.638 2.84419C174.538 2.71086 174.405 2.64419 174.238 2.64419C173.805 2.64419 173.588 2.86086 173.588 3.29419C173.588 3.46086 173.638 3.61086 173.738 3.74419C173.871 3.84419 174.038 3.89419 174.238 3.89419ZM194.592 0.694187C196.159 0.694187 197.626 0.994187 198.992 1.59419C200.392 2.19419 201.609 3.01085 202.642 4.04419C203.676 5.07752 204.492 6.29419 205.092 7.69419C205.692 9.06086 205.992 10.5275 205.992 12.0942V23.4942C205.992 25.0609 205.692 26.5442 205.092 27.9442C204.492 29.3109 203.676 30.5109 202.642 31.5442C201.609 32.5775 200.392 33.3942 198.992 33.9942C197.626 34.5609 196.159 34.8442 194.592 34.8442H192.342C190.776 34.8442 189.292 34.5609 187.892 33.9942C186.526 33.3942 185.326 32.5775 184.292 31.5442C183.259 30.5109 182.442 29.3109 181.842 27.9442C181.242 26.5442 180.942 25.0609 180.942 23.4942V12.0942C180.942 10.5275 181.242 9.06086 181.842 7.69419C182.442 6.29419 183.259 5.07752 184.292 4.04419C185.326 3.01085 186.526 2.19419 187.892 1.59419C189.292 0.994187 190.776 0.694187 192.342 0.694187H194.592ZM203.092 14.2942C203.092 14.1275 203.026 13.9942 202.892 13.8942C202.759 13.7609 202.609 13.6942 202.442 13.6942C202.276 13.6942 202.126 13.7609 201.992 13.8942C201.892 13.9942 201.842 14.1275 201.842 14.2942C201.842 14.4609 201.892 14.6109 201.992 14.7442C202.126 14.8775 202.276 14.9442 202.442 14.9442C202.876 14.9442 203.092 14.7275 203.092 14.2942ZM203.092 18.4942C203.092 18.0942 202.876 17.8942 202.442 17.8942C202.042 17.8942 201.842 18.0942 201.842 18.4942C201.842 18.9275 202.042 19.1442 202.442 19.1442C202.876 19.1442 203.092 18.9275 203.092 18.4942ZM201.842 9.09419C201.676 9.09419 201.526 9.16086 201.392 9.29419C201.292 9.39419 201.242 9.52752 201.242 9.69419C201.242 9.86086 201.292 10.0109 201.392 10.1442C201.526 10.2775 201.676 10.3442 201.842 10.3442C202.276 10.3442 202.492 10.1275 202.492 9.69419C202.492 9.29419 202.276 9.09419 201.842 9.09419ZM195.842 3.64419C195.676 3.64419 195.526 3.71085 195.392 3.84419C195.292 3.97752 195.242 4.12752 195.242 4.29419C195.242 4.46086 195.292 4.61086 195.392 4.74419C195.526 4.84419 195.676 4.89419 195.842 4.89419C196.009 4.89419 196.159 4.84419 196.292 4.74419C196.426 4.61086 196.492 4.46086 196.492 4.29419C196.492 3.86085 196.276 3.64419 195.842 3.64419ZM190.792 3.34419C190.392 3.34419 190.192 3.56086 190.192 3.99419C190.192 4.39419 190.392 4.59419 190.792 4.59419C191.226 4.59419 191.442 4.39419 191.442 3.99419C191.442 3.56086 191.226 3.34419 190.792 3.34419ZM184.592 24.8942C185.026 24.8942 185.242 24.6942 185.242 24.2942C185.242 23.8609 185.026 23.6442 184.592 23.6442C184.426 23.6442 184.276 23.7109 184.142 23.8442C184.042 23.9775 183.992 24.1275 183.992 24.2942C183.992 24.4609 184.042 24.6109 184.142 24.7442C184.276 24.8442 184.426 24.8942 184.592 24.8942ZM183.842 19.5942C183.842 19.9942 184.042 20.1942 184.442 20.1942C184.876 20.1942 185.092 19.9942 185.092 19.5942C185.092 19.1609 184.876 18.9442 184.442 18.9442C184.042 18.9442 183.842 19.1609 183.842 19.5942ZM184.592 15.8942C185.026 15.8942 185.242 15.6775 185.242 15.2442C185.242 14.8442 185.026 14.6442 184.592 14.6442C184.426 14.6442 184.276 14.7109 184.142 14.8442C184.042 14.9442 183.992 15.0775 183.992 15.2442C183.992 15.4109 184.042 15.5609 184.142 15.6942C184.276 15.8275 184.426 15.8942 184.592 15.8942ZM184.942 11.0442C185.342 11.0442 185.542 10.8275 185.542 10.3942C185.542 9.99419 185.342 9.79419 184.942 9.79419C184.509 9.79419 184.292 9.99419 184.292 10.3942C184.292 10.8275 184.509 11.0442 184.942 11.0442ZM186.192 29.0442C186.592 29.0442 186.792 28.8442 186.792 28.4442C186.792 28.0109 186.592 27.7942 186.192 27.7942C185.792 27.7942 185.592 28.0109 185.592 28.4442C185.592 28.8442 185.792 29.0442 186.192 29.0442ZM186.792 6.64419C186.992 6.64419 187.142 6.59419 187.242 6.49419C187.376 6.36086 187.442 6.21086 187.442 6.04419C187.442 5.61086 187.226 5.39419 186.792 5.39419C186.626 5.39419 186.476 5.46086 186.342 5.59419C186.242 5.69419 186.192 5.84419 186.192 6.04419C186.192 6.21086 186.242 6.36086 186.342 6.49419C186.476 6.59419 186.626 6.64419 186.792 6.64419ZM190.192 31.5442C190.592 31.5442 190.792 31.3442 190.792 30.9442C190.792 30.5442 190.592 30.3442 190.192 30.3442C189.759 30.3442 189.542 30.5442 189.542 30.9442C189.542 31.3442 189.759 31.5442 190.192 31.5442ZM194.592 31.9942C194.992 31.9942 195.192 31.7942 195.192 31.3942C195.192 30.9942 194.992 30.7942 194.592 30.7942C194.159 30.7942 193.942 30.9942 193.942 31.3942C193.942 31.7942 194.159 31.9942 194.592 31.9942ZM194.592 28.0442C195.859 28.0442 196.926 27.6109 197.792 26.7442C198.692 25.8442 199.142 24.7609 199.142 23.4942V18.9442V16.6442V12.0942C199.142 10.8275 198.692 9.76086 197.792 8.89419C196.926 7.99419 195.859 7.54419 194.592 7.54419H192.342C191.709 7.54419 191.109 7.66085 190.542 7.89419C190.009 8.12752 189.526 8.46086 189.092 8.89419C188.692 9.29419 188.376 9.77752 188.142 10.3442C187.909 10.8775 187.792 11.4609 187.792 12.0942V16.6442V18.9442V23.4942C187.792 24.1275 187.909 24.7275 188.142 25.2942C188.376 25.8275 188.692 26.3109 189.092 26.7442C189.526 27.1442 190.009 27.4609 190.542 27.6942C191.109 27.9275 191.709 28.0442 192.342 28.0442H194.592ZM198.642 30.9442C198.809 30.9442 198.959 30.8942 199.092 30.7942C199.226 30.6609 199.292 30.5109 199.292 30.3442C199.292 29.9109 199.076 29.6942 198.642 29.6942C198.476 29.6942 198.326 29.7609 198.192 29.8942C198.092 29.9942 198.042 30.1442 198.042 30.3442C198.042 30.5109 198.092 30.6609 198.192 30.7942C198.326 30.8942 198.476 30.9442 198.642 30.9442ZM199.942 6.44419C200.376 6.44419 200.592 6.22752 200.592 5.79419C200.592 5.39419 200.376 5.19419 199.942 5.19419C199.542 5.19419 199.342 5.39419 199.342 5.79419C199.342 6.22752 199.542 6.44419 199.942 6.44419ZM201.492 27.2442C201.892 27.2442 202.092 27.0275 202.092 26.5942C202.092 26.1942 201.892 25.9942 201.492 25.9942C201.092 25.9942 200.892 26.1942 200.892 26.5942C200.892 27.0275 201.092 27.2442 201.492 27.2442ZM202.592 23.2942C203.026 23.2942 203.242 23.0942 203.242 22.6942C203.242 22.2942 203.026 22.0942 202.592 22.0942C202.192 22.0942 201.992 22.2942 201.992 22.6942C201.992 23.0942 202.192 23.2942 202.592 23.2942ZM245.257 34.1442C245.357 34.2109 245.39 34.2942 245.357 34.3942C245.323 34.4942 245.24 34.5442 245.107 34.5442H236.307C236.173 34.5442 236.09 34.4942 236.057 34.3942C236.023 34.2942 236.057 34.2109 236.157 34.1442C236.923 33.5109 237.307 32.1275 237.307 29.9942V27.6942V26.5442C237.307 25.6109 237.123 24.7275 236.757 23.8942C236.423 23.0609 235.94 22.3442 235.307 21.7442C234.673 21.1109 233.94 20.6275 233.107 20.2942C232.273 19.9275 231.39 19.7442 230.457 19.7442H229.357V23.1442V27.6942V29.9942C229.357 32.1275 229.723 33.5109 230.457 34.1442C230.557 34.2109 230.59 34.2942 230.557 34.3942C230.557 34.4942 230.473 34.5442 230.307 34.5442H229.357H227.057H221.507C221.373 34.5442 221.29 34.4942 221.257 34.3942C221.223 34.2942 221.273 34.2109 221.407 34.1442C222.14 33.4775 222.507 32.0942 222.507 29.9942V4.94419C222.507 2.81086 222.14 1.42752 221.407 0.794189C221.273 0.694188 221.223 0.594187 221.257 0.494187C221.29 0.394188 221.373 0.344189 221.507 0.344189H227.057H234.407C235.74 0.344189 236.99 0.610855 238.157 1.14419C239.357 1.64419 240.39 2.34419 241.257 3.24419C242.157 4.11085 242.857 5.14419 243.357 6.34419C243.89 7.51085 244.157 8.76085 244.157 10.0942C244.157 11.5275 243.857 12.8942 243.257 14.1942C242.657 15.4942 241.807 16.5942 240.707 17.4942C241.907 18.8942 242.773 20.3109 243.307 21.7442C243.873 23.1442 244.157 24.7442 244.157 26.5442V27.6942V29.9942C244.157 32.1275 244.523 33.5109 245.257 34.1442ZM225.857 32.3942C226.29 32.3942 226.507 32.1942 226.507 31.7942C226.507 31.3609 226.29 31.1442 225.857 31.1442C225.457 31.1442 225.257 31.3609 225.257 31.7942C225.257 32.1942 225.457 32.3942 225.857 32.3942ZM225.857 27.6442C226.29 27.6442 226.507 27.4275 226.507 26.9942C226.507 26.8275 226.44 26.6942 226.307 26.5942C226.173 26.4609 226.023 26.3942 225.857 26.3942C225.69 26.3942 225.54 26.4609 225.407 26.5942C225.307 26.6942 225.257 26.8275 225.257 26.9942C225.257 27.4275 225.457 27.6442 225.857 27.6442ZM225.857 23.0942C226.29 23.0942 226.507 22.8775 226.507 22.4442C226.507 22.2775 226.44 22.1442 226.307 22.0442C226.173 21.9109 226.023 21.8442 225.857 21.8442C225.69 21.8442 225.54 21.9109 225.407 22.0442C225.307 22.1442 225.257 22.2775 225.257 22.4442C225.257 22.8775 225.457 23.0942 225.857 23.0942ZM225.857 18.4442C226.29 18.4442 226.507 18.2275 226.507 17.7942C226.507 17.6275 226.44 17.4942 226.307 17.3942C226.173 17.2609 226.023 17.1942 225.857 17.1942C225.69 17.1942 225.54 17.2609 225.407 17.3942C225.307 17.4942 225.257 17.6275 225.257 17.7942C225.257 18.2275 225.457 18.4442 225.857 18.4442ZM225.907 13.7442C226.307 13.7442 226.507 13.5442 226.507 13.1442C226.507 12.7442 226.307 12.5442 225.907 12.5442C225.507 12.5442 225.307 12.7442 225.307 13.1442C225.307 13.5442 225.507 13.7442 225.907 13.7442ZM225.257 8.54419C225.257 8.94419 225.457 9.14419 225.857 9.14419C226.29 9.14419 226.507 8.94419 226.507 8.54419C226.507 8.14419 226.29 7.94419 225.857 7.94419C225.457 7.94419 225.257 8.14419 225.257 8.54419ZM225.907 4.54419C226.307 4.54419 226.507 4.32752 226.507 3.89419C226.507 3.49419 226.307 3.29419 225.907 3.29419C225.507 3.29419 225.307 3.49419 225.307 3.89419C225.307 4.32752 225.507 4.54419 225.907 4.54419ZM240.707 9.99419C240.54 9.99419 240.39 10.0609 240.257 10.1942C240.123 10.2942 240.057 10.4275 240.057 10.5942C240.057 11.0275 240.273 11.2442 240.707 11.2442C241.107 11.2442 241.307 11.0275 241.307 10.5942C241.307 10.4275 241.24 10.2942 241.107 10.1942C241.007 10.0609 240.873 9.99419 240.707 9.99419ZM239.557 5.84419C239.157 5.84419 238.957 6.04419 238.957 6.44419C238.957 6.84419 239.157 7.04419 239.557 7.04419C239.99 7.04419 240.207 6.84419 240.207 6.44419C240.207 6.04419 239.99 5.84419 239.557 5.84419ZM235.307 3.29419C234.907 3.29419 234.707 3.51086 234.707 3.94419C234.707 4.11085 234.757 4.26085 234.857 4.39419C234.99 4.49419 235.14 4.54419 235.307 4.54419C235.473 4.54419 235.623 4.49419 235.757 4.39419C235.89 4.26085 235.957 4.11085 235.957 3.94419C235.957 3.51086 235.74 3.29419 235.307 3.29419ZM230.357 3.29419C230.19 3.29419 230.04 3.36086 229.907 3.49419C229.807 3.62752 229.757 3.77752 229.757 3.94419C229.757 4.11085 229.807 4.26085 229.907 4.39419C230.04 4.49419 230.19 4.54419 230.357 4.54419C230.523 4.54419 230.673 4.49419 230.807 4.39419C230.94 4.26085 231.007 4.11085 231.007 3.94419C231.007 3.51086 230.79 3.29419 230.357 3.29419ZM229.957 16.7442C230.123 16.7442 230.257 16.6775 230.357 16.5442C230.49 16.4109 230.557 16.2609 230.557 16.0942C230.557 15.9275 230.49 15.7942 230.357 15.6942C230.257 15.5609 230.123 15.4942 229.957 15.4942C229.79 15.4942 229.64 15.5609 229.507 15.6942C229.373 15.7942 229.307 15.9275 229.307 16.0942C229.307 16.5275 229.523 16.7442 229.957 16.7442ZM234.557 16.8442C234.99 16.8442 235.207 16.6442 235.207 16.2442C235.207 15.8109 234.99 15.5942 234.557 15.5942C234.157 15.5942 233.957 15.8109 233.957 16.2442C233.957 16.6442 234.157 16.8442 234.557 16.8442ZM234.407 12.9942C235.207 12.9942 235.89 12.7275 236.457 12.1942C237.023 11.6275 237.307 10.9275 237.307 10.0942C237.307 9.29419 237.023 8.61086 236.457 8.04419C235.89 7.47752 235.207 7.19419 234.407 7.19419H229.357V7.24419V7.59419V12.9442V12.9942H234.407ZM237.657 20.0442C238.09 20.0442 238.307 19.8442 238.307 19.4442C238.307 19.0109 238.09 18.7942 237.657 18.7942C237.257 18.7942 237.057 19.0109 237.057 19.4442C237.057 19.8442 237.257 20.0442 237.657 20.0442ZM238.407 15.3442C238.407 15.7442 238.623 15.9442 239.057 15.9442C239.223 15.9442 239.357 15.8942 239.457 15.7942C239.59 15.6609 239.657 15.5109 239.657 15.3442C239.657 15.1775 239.59 15.0275 239.457 14.8942C239.357 14.7609 239.223 14.6942 239.057 14.6942C238.623 14.6942 238.407 14.9109 238.407 15.3442ZM239.457 23.0442C239.457 23.4442 239.673 23.6442 240.107 23.6442C240.507 23.6442 240.707 23.4442 240.707 23.0442C240.707 22.6109 240.507 22.3942 240.107 22.3942C239.673 22.3942 239.457 22.6109 239.457 23.0442ZM240.757 26.7442C240.59 26.7442 240.44 26.8109 240.307 26.9442C240.207 27.0442 240.157 27.1775 240.157 27.3442C240.157 27.5109 240.207 27.6609 240.307 27.7942C240.44 27.8942 240.59 27.9442 240.757 27.9442C241.19 27.9442 241.407 27.7442 241.407 27.3442C241.407 26.9442 241.19 26.7442 240.757 26.7442ZM240.907 32.3942C241.34 32.3942 241.557 32.1942 241.557 31.7942C241.557 31.3609 241.34 31.1442 240.907 31.1442C240.74 31.1442 240.59 31.2109 240.457 31.3442C240.357 31.4775 240.307 31.6275 240.307 31.7942C240.307 31.9609 240.357 32.1109 240.457 32.2442C240.59 32.3442 240.74 32.3942 240.907 32.3942ZM260.754 0.694187C262.321 0.694187 263.788 0.994187 265.154 1.59419C266.554 2.19419 267.771 3.01085 268.804 4.04419C269.838 5.07752 270.654 6.29419 271.254 7.69419C271.854 9.06086 272.154 10.5275 272.154 12.0942V23.4942C272.154 25.0609 271.854 26.5442 271.254 27.9442C270.654 29.3109 269.838 30.5109 268.804 31.5442C267.771 32.5775 266.554 33.3942 265.154 33.9942C263.788 34.5609 262.321 34.8442 260.754 34.8442H258.504C256.938 34.8442 255.454 34.5609 254.054 33.9942C252.688 33.3942 251.488 32.5775 250.454 31.5442C249.421 30.5109 248.604 29.3109 248.004 27.9442C247.404 26.5442 247.104 25.0609 247.104 23.4942V12.0942C247.104 10.5275 247.404 9.06086 248.004 7.69419C248.604 6.29419 249.421 5.07752 250.454 4.04419C251.488 3.01085 252.688 2.19419 254.054 1.59419C255.454 0.994187 256.938 0.694187 258.504 0.694187H260.754ZM269.254 14.2942C269.254 14.1275 269.188 13.9942 269.054 13.8942C268.921 13.7609 268.771 13.6942 268.604 13.6942C268.438 13.6942 268.288 13.7609 268.154 13.8942C268.054 13.9942 268.004 14.1275 268.004 14.2942C268.004 14.4609 268.054 14.6109 268.154 14.7442C268.288 14.8775 268.438 14.9442 268.604 14.9442C269.038 14.9442 269.254 14.7275 269.254 14.2942ZM269.254 18.4942C269.254 18.0942 269.038 17.8942 268.604 17.8942C268.204 17.8942 268.004 18.0942 268.004 18.4942C268.004 18.9275 268.204 19.1442 268.604 19.1442C269.038 19.1442 269.254 18.9275 269.254 18.4942ZM268.004 9.09419C267.838 9.09419 267.688 9.16086 267.554 9.29419C267.454 9.39419 267.404 9.52752 267.404 9.69419C267.404 9.86086 267.454 10.0109 267.554 10.1442C267.688 10.2775 267.838 10.3442 268.004 10.3442C268.438 10.3442 268.654 10.1275 268.654 9.69419C268.654 9.29419 268.438 9.09419 268.004 9.09419ZM262.004 3.64419C261.838 3.64419 261.688 3.71085 261.554 3.84419C261.454 3.97752 261.404 4.12752 261.404 4.29419C261.404 4.46086 261.454 4.61086 261.554 4.74419C261.688 4.84419 261.838 4.89419 262.004 4.89419C262.171 4.89419 262.321 4.84419 262.454 4.74419C262.588 4.61086 262.654 4.46086 262.654 4.29419C262.654 3.86085 262.438 3.64419 262.004 3.64419ZM256.954 3.34419C256.554 3.34419 256.354 3.56086 256.354 3.99419C256.354 4.39419 256.554 4.59419 256.954 4.59419C257.388 4.59419 257.604 4.39419 257.604 3.99419C257.604 3.56086 257.388 3.34419 256.954 3.34419ZM250.754 24.8942C251.188 24.8942 251.404 24.6942 251.404 24.2942C251.404 23.8609 251.188 23.6442 250.754 23.6442C250.588 23.6442 250.438 23.7109 250.304 23.8442C250.204 23.9775 250.154 24.1275 250.154 24.2942C250.154 24.4609 250.204 24.6109 250.304 24.7442C250.438 24.8442 250.588 24.8942 250.754 24.8942ZM250.004 19.5942C250.004 19.9942 250.204 20.1942 250.604 20.1942C251.038 20.1942 251.254 19.9942 251.254 19.5942C251.254 19.1609 251.038 18.9442 250.604 18.9442C250.204 18.9442 250.004 19.1609 250.004 19.5942ZM250.754 15.8942C251.188 15.8942 251.404 15.6775 251.404 15.2442C251.404 14.8442 251.188 14.6442 250.754 14.6442C250.588 14.6442 250.438 14.7109 250.304 14.8442C250.204 14.9442 250.154 15.0775 250.154 15.2442C250.154 15.4109 250.204 15.5609 250.304 15.6942C250.438 15.8275 250.588 15.8942 250.754 15.8942ZM251.104 11.0442C251.504 11.0442 251.704 10.8275 251.704 10.3942C251.704 9.99419 251.504 9.79419 251.104 9.79419C250.671 9.79419 250.454 9.99419 250.454 10.3942C250.454 10.8275 250.671 11.0442 251.104 11.0442ZM252.354 29.0442C252.754 29.0442 252.954 28.8442 252.954 28.4442C252.954 28.0109 252.754 27.7942 252.354 27.7942C251.954 27.7942 251.754 28.0109 251.754 28.4442C251.754 28.8442 251.954 29.0442 252.354 29.0442ZM252.954 6.64419C253.154 6.64419 253.304 6.59419 253.404 6.49419C253.538 6.36086 253.604 6.21086 253.604 6.04419C253.604 5.61086 253.388 5.39419 252.954 5.39419C252.788 5.39419 252.638 5.46086 252.504 5.59419C252.404 5.69419 252.354 5.84419 252.354 6.04419C252.354 6.21086 252.404 6.36086 252.504 6.49419C252.638 6.59419 252.788 6.64419 252.954 6.64419ZM256.354 31.5442C256.754 31.5442 256.954 31.3442 256.954 30.9442C256.954 30.5442 256.754 30.3442 256.354 30.3442C255.921 30.3442 255.704 30.5442 255.704 30.9442C255.704 31.3442 255.921 31.5442 256.354 31.5442ZM260.754 31.9942C261.154 31.9942 261.354 31.7942 261.354 31.3942C261.354 30.9942 261.154 30.7942 260.754 30.7942C260.321 30.7942 260.104 30.9942 260.104 31.3942C260.104 31.7942 260.321 31.9942 260.754 31.9942ZM260.754 28.0442C262.021 28.0442 263.088 27.6109 263.954 26.7442C264.854 25.8442 265.304 24.7609 265.304 23.4942V18.9442V16.6442V12.0942C265.304 10.8275 264.854 9.76086 263.954 8.89419C263.088 7.99419 262.021 7.54419 260.754 7.54419H258.504C257.871 7.54419 257.271 7.66085 256.704 7.89419C256.171 8.12752 255.688 8.46086 255.254 8.89419C254.854 9.29419 254.538 9.77752 254.304 10.3442C254.071 10.8775 253.954 11.4609 253.954 12.0942V16.6442V18.9442V23.4942C253.954 24.1275 254.071 24.7275 254.304 25.2942C254.538 25.8275 254.854 26.3109 255.254 26.7442C255.688 27.1442 256.171 27.4609 256.704 27.6942C257.271 27.9275 257.871 28.0442 258.504 28.0442H260.754ZM264.804 30.9442C264.971 30.9442 265.121 30.8942 265.254 30.7942C265.388 30.6609 265.454 30.5109 265.454 30.3442C265.454 29.9109 265.238 29.6942 264.804 29.6942C264.638 29.6942 264.488 29.7609 264.354 29.8942C264.254 29.9942 264.204 30.1442 264.204 30.3442C264.204 30.5109 264.254 30.6609 264.354 30.7942C264.488 30.8942 264.638 30.9442 264.804 30.9442ZM266.104 6.44419C266.538 6.44419 266.754 6.22752 266.754 5.79419C266.754 5.39419 266.538 5.19419 266.104 5.19419C265.704 5.19419 265.504 5.39419 265.504 5.79419C265.504 6.22752 265.704 6.44419 266.104 6.44419ZM267.654 27.2442C268.054 27.2442 268.254 27.0275 268.254 26.5942C268.254 26.1942 268.054 25.9942 267.654 25.9942C267.254 25.9942 267.054 26.1942 267.054 26.5942C267.054 27.0275 267.254 27.2442 267.654 27.2442ZM268.754 23.2942C269.188 23.2942 269.404 23.0942 269.404 22.6942C269.404 22.2942 269.188 22.0942 268.754 22.0942C268.354 22.0942 268.154 22.2942 268.154 22.6942C268.154 23.0942 268.354 23.2942 268.754 23.2942ZM299.391 34.1442C299.491 34.2442 299.524 34.3442 299.491 34.4442C299.458 34.5109 299.374 34.5442 299.241 34.5442H290.441C290.308 34.5442 290.224 34.5109 290.191 34.4442C290.158 34.3442 290.191 34.2442 290.291 34.1442C291.058 33.5442 291.441 32.1609 291.441 29.9942V25.4442H282.291V29.9942C282.291 32.1609 282.674 33.5442 283.441 34.1442C283.708 34.4109 283.658 34.5442 283.291 34.5442H274.491C274.358 34.5442 274.274 34.5109 274.241 34.4442C274.208 34.3442 274.241 34.2442 274.341 34.1442C275.108 33.5442 275.491 32.1609 275.491 29.9942V23.1942V19.1442C275.491 17.7109 275.624 16.3442 275.891 15.0442C276.158 13.7109 276.574 12.3775 277.141 11.0442L279.741 4.99419C280.174 2.86085 280.074 1.46085 279.441 0.794189C279.341 0.694188 279.308 0.610855 279.341 0.544189C279.374 0.444188 279.458 0.394188 279.591 0.394188H294.141C294.474 0.394188 294.541 0.527522 294.341 0.794189C293.708 1.39419 293.591 2.79419 293.991 4.99419L296.591 11.0442C297.158 12.3775 297.574 13.7109 297.841 15.0442C298.108 16.3442 298.241 17.7109 298.241 19.1442V23.1942V29.9942C298.241 32.1609 298.624 33.5442 299.391 34.1442ZM294.241 16.1942C293.841 16.1942 293.641 16.4109 293.641 16.8442C293.641 17.0109 293.691 17.1609 293.791 17.2942C293.924 17.3942 294.074 17.4442 294.241 17.4442C294.408 17.4442 294.558 17.3942 294.691 17.2942C294.824 17.1609 294.891 17.0109 294.891 16.8442C294.891 16.4109 294.674 16.1942 294.241 16.1942ZM290.041 2.59419C289.641 2.59419 289.441 2.79419 289.441 3.19419C289.441 3.62752 289.641 3.84419 290.041 3.84419C290.441 3.84419 290.641 3.62752 290.641 3.19419C290.641 2.79419 290.441 2.59419 290.041 2.59419ZM283.691 3.04419C283.258 3.04419 283.041 3.24419 283.041 3.64419C283.041 4.07752 283.258 4.29419 283.691 4.29419C284.124 4.29419 284.341 4.07752 284.341 3.64419C284.341 3.24419 284.124 3.04419 283.691 3.04419ZM278.891 31.8442C279.324 31.8442 279.541 31.6275 279.541 31.1942C279.541 31.0275 279.474 30.8942 279.341 30.7942C279.208 30.6609 279.058 30.5942 278.891 30.5942C278.724 30.5942 278.574 30.6609 278.441 30.7942C278.308 30.8942 278.241 31.0275 278.241 31.1942C278.241 31.6275 278.458 31.8442 278.891 31.8442ZM279.041 27.0942C279.474 27.0942 279.691 26.8775 279.691 26.4442C279.691 26.2775 279.624 26.1442 279.491 26.0442C279.391 25.9109 279.241 25.8442 279.041 25.8442C278.874 25.8442 278.724 25.9109 278.591 26.0442C278.491 26.1442 278.441 26.2775 278.441 26.4442C278.441 26.8775 278.641 27.0942 279.041 27.0942ZM279.041 22.3442C279.474 22.3442 279.691 22.1442 279.691 21.7442C279.691 21.3109 279.474 21.0942 279.041 21.0942C278.641 21.0942 278.441 21.3109 278.441 21.7442C278.441 22.1442 278.641 22.3442 279.041 22.3442ZM279.341 17.7442C279.508 17.7442 279.658 17.6942 279.791 17.5942C279.924 17.4609 279.991 17.3109 279.991 17.1442C279.991 16.7109 279.774 16.4942 279.341 16.4942C278.941 16.4942 278.741 16.7109 278.741 17.1442C278.741 17.3109 278.791 17.4609 278.891 17.5942C279.024 17.6942 279.174 17.7442 279.341 17.7442ZM279.991 13.1942C280.391 13.1942 280.591 12.9942 280.591 12.5942C280.591 12.1942 280.391 11.9942 279.991 11.9942C279.558 11.9942 279.341 12.1942 279.341 12.5942C279.341 12.9942 279.558 13.1942 279.991 13.1942ZM282.041 8.59419C282.441 8.59419 282.641 8.39419 282.641 7.99419C282.641 7.56085 282.441 7.34419 282.041 7.34419C281.608 7.34419 281.391 7.56085 281.391 7.99419C281.391 8.39419 281.608 8.59419 282.041 8.59419ZM284.141 22.3442C284.574 22.3442 284.791 22.1442 284.791 21.7442C284.791 21.3109 284.574 21.0942 284.141 21.0942C283.708 21.0942 283.491 21.3109 283.491 21.7442C283.491 22.1442 283.708 22.3442 284.141 22.3442ZM289.291 22.3942C289.458 22.3942 289.591 22.3442 289.691 22.2442C289.824 22.1109 289.891 21.9609 289.891 21.7942C289.891 21.3609 289.691 21.1442 289.291 21.1442C288.858 21.1442 288.641 21.3609 288.641 21.7942C288.641 21.9609 288.691 22.1109 288.791 22.2442C288.924 22.3442 289.091 22.3942 289.291 22.3942ZM291.441 18.6442C291.341 16.9442 290.974 15.3109 290.341 13.7442L286.891 5.69419L283.441 13.7442C282.741 15.3109 282.374 16.9442 282.341 18.6442H291.441ZM291.541 8.19419C291.941 8.19419 292.141 7.97752 292.141 7.54419C292.141 7.11085 291.941 6.89419 291.541 6.89419C291.108 6.89419 290.891 7.11085 290.891 7.54419C290.891 7.97752 291.108 8.19419 291.541 8.19419ZM292.591 12.1442C292.591 12.5775 292.808 12.7942 293.241 12.7942C293.641 12.7942 293.841 12.5775 293.841 12.1442C293.841 11.7442 293.641 11.5442 293.241 11.5442C292.808 11.5442 292.591 11.7442 292.591 12.1442ZM293.641 21.5942C293.641 22.0275 293.841 22.2442 294.241 22.2442C294.674 22.2442 294.891 22.0275 294.891 21.5942C294.891 21.1942 294.674 20.9942 294.241 20.9942C293.841 20.9942 293.641 21.1942 293.641 21.5942ZM294.591 31.6942C294.758 31.6942 294.891 31.6442 294.991 31.5442C295.124 31.4109 295.191 31.2609 295.191 31.0942C295.191 30.9275 295.124 30.7775 294.991 30.6442C294.891 30.5109 294.758 30.4442 294.591 30.4442C294.158 30.4442 293.941 30.6609 293.941 31.0942C293.941 31.4942 294.158 31.6942 294.591 31.6942ZM294.591 26.7942C294.758 26.7942 294.891 26.7275 294.991 26.5942C295.124 26.4609 295.191 26.3109 295.191 26.1442C295.191 25.9775 295.124 25.8442 294.991 25.7442C294.891 25.6109 294.758 25.5442 294.591 25.5442C294.424 25.5442 294.274 25.6109 294.141 25.7442C294.008 25.8442 293.941 25.9775 293.941 26.1442C293.941 26.5775 294.158 26.7942 294.591 26.7942ZM314.244 0.344189C315.811 0.344189 317.277 0.644189 318.644 1.24419C320.044 1.84419 321.244 2.66086 322.244 3.69419C323.277 4.72752 324.094 5.94419 324.694 7.34419C325.294 8.71085 325.594 10.1775 325.594 11.7442V23.1442C325.594 24.7109 325.294 26.1942 324.694 27.5942C324.094 28.9609 323.277 30.1609 322.244 31.1942C321.244 32.2275 320.044 33.0442 318.644 33.6442C317.277 34.2442 315.811 34.5442 314.244 34.5442H311.944H305.144H301.844C301.711 34.5442 301.627 34.4942 301.594 34.3942C301.561 34.2942 301.611 34.1942 301.744 34.0942C302.477 33.4609 302.844 32.0775 302.844 29.9442V4.89419C302.844 2.79419 302.477 1.41085 301.744 0.744187C301.611 0.677521 301.561 0.594187 301.594 0.494187C301.627 0.394188 301.711 0.344189 301.844 0.344189H302.844H314.244ZM323.144 14.1942C323.144 13.7609 322.944 13.5442 322.544 13.5442C322.111 13.5442 321.894 13.7609 321.894 14.1942C321.894 14.3609 321.961 14.5109 322.094 14.6442C322.227 14.7442 322.377 14.7942 322.544 14.7942C322.711 14.7942 322.844 14.7442 322.944 14.6442C323.077 14.5109 323.144 14.3609 323.144 14.1942ZM323.144 18.3442C323.144 18.1775 323.077 18.0442 322.944 17.9442C322.811 17.8109 322.661 17.7442 322.494 17.7442C322.327 17.7442 322.177 17.8109 322.044 17.9442C321.944 18.0442 321.894 18.1775 321.894 18.3442C321.894 18.5442 321.944 18.7109 322.044 18.8442C322.177 18.9442 322.327 18.9942 322.494 18.9942C322.927 18.9942 323.144 18.7775 323.144 18.3442ZM321.944 8.94419C321.511 8.94419 321.294 9.16086 321.294 9.59419C321.294 9.76086 321.361 9.91086 321.494 10.0442C321.627 10.1442 321.777 10.1942 321.944 10.1942C322.111 10.1942 322.244 10.1442 322.344 10.0442C322.477 9.91086 322.544 9.76086 322.544 9.59419C322.544 9.16086 322.344 8.94419 321.944 8.94419ZM315.944 3.54419C315.511 3.54419 315.294 3.74419 315.294 4.14419C315.294 4.54419 315.511 4.74419 315.944 4.74419C316.344 4.74419 316.544 4.54419 316.544 4.14419C316.544 3.74419 316.344 3.54419 315.944 3.54419ZM310.944 3.04419C310.511 3.04419 310.294 3.26085 310.294 3.69419C310.294 4.09419 310.511 4.29419 310.944 4.29419C311.344 4.29419 311.544 4.09419 311.544 3.69419C311.544 3.26085 311.344 3.04419 310.944 3.04419ZM306.244 32.0442C306.677 32.0442 306.894 31.8275 306.894 31.3942C306.894 31.2275 306.827 31.0942 306.694 30.9942C306.561 30.8609 306.411 30.7942 306.244 30.7942C306.077 30.7942 305.927 30.8609 305.794 30.9942C305.694 31.0942 305.644 31.2275 305.644 31.3942C305.644 31.5609 305.694 31.7109 305.794 31.8442C305.927 31.9775 306.077 32.0442 306.244 32.0442ZM306.244 27.2942C306.677 27.2942 306.894 27.0775 306.894 26.6442C306.894 26.2442 306.677 26.0442 306.244 26.0442C306.077 26.0442 305.927 26.1109 305.794 26.2442C305.694 26.3442 305.644 26.4775 305.644 26.6442C305.644 26.8109 305.694 26.9609 305.794 27.0942C305.927 27.2275 306.077 27.2942 306.244 27.2942ZM306.244 22.6942C306.677 22.6942 306.894 22.4942 306.894 22.0942C306.894 21.6609 306.677 21.4442 306.244 21.4442C306.077 21.4442 305.927 21.5109 305.794 21.6442C305.694 21.7775 305.644 21.9275 305.644 22.0942C305.644 22.2609 305.694 22.4109 305.794 22.5442C305.927 22.6442 306.077 22.6942 306.244 22.6942ZM306.244 18.0942C306.677 18.0942 306.894 17.8775 306.894 17.4442C306.894 17.0442 306.677 16.8442 306.244 16.8442C306.077 16.8442 305.927 16.9109 305.794 17.0442C305.694 17.1442 305.644 17.2775 305.644 17.4442C305.644 17.6109 305.694 17.7609 305.794 17.8942C305.927 18.0275 306.077 18.0942 306.244 18.0942ZM306.294 13.3942C306.727 13.3942 306.944 13.1775 306.944 12.7442C306.944 12.5775 306.877 12.4442 306.744 12.3442C306.611 12.2109 306.461 12.1442 306.294 12.1442C306.127 12.1442 305.977 12.2109 305.844 12.3442C305.744 12.4442 305.694 12.5775 305.694 12.7442C305.694 12.9442 305.744 13.1109 305.844 13.2442C305.977 13.3442 306.127 13.3942 306.294 13.3942ZM305.644 8.14419C305.644 8.31086 305.694 8.46086 305.794 8.59419C305.927 8.72752 306.077 8.79419 306.244 8.79419C306.677 8.79419 306.894 8.57752 306.894 8.14419C306.894 7.97752 306.827 7.84419 306.694 7.74419C306.561 7.61086 306.411 7.54419 306.244 7.54419C306.077 7.54419 305.927 7.61086 305.794 7.74419C305.694 7.84419 305.644 7.97752 305.644 8.14419ZM306.294 4.14419C306.727 4.14419 306.944 3.94419 306.944 3.54419C306.944 3.11086 306.727 2.89419 306.294 2.89419C306.127 2.89419 305.977 2.96086 305.844 3.09419C305.744 3.22752 305.694 3.37752 305.694 3.54419C305.694 3.71086 305.744 3.86086 305.844 3.99419C305.977 4.09419 306.127 4.14419 306.294 4.14419ZM310.294 32.1942C310.727 32.1942 310.944 31.9775 310.944 31.5442C310.944 31.1442 310.727 30.9442 310.294 30.9442C309.894 30.9442 309.694 31.1442 309.694 31.5442C309.694 31.9775 309.894 32.1942 310.294 32.1942ZM314.644 31.8942C315.077 31.8942 315.294 31.6775 315.294 31.2442C315.294 31.0775 315.227 30.9442 315.094 30.8442C314.961 30.7109 314.811 30.6442 314.644 30.6442C314.477 30.6442 314.327 30.7109 314.194 30.8442C314.094 30.9442 314.044 31.0775 314.044 31.2442C314.044 31.6775 314.244 31.8942 314.644 31.8942ZM314.244 27.6942C315.511 27.6942 316.577 27.2609 317.444 26.3942C318.344 25.4942 318.794 24.4109 318.794 23.1442V11.7442C318.794 10.4775 318.344 9.41085 317.444 8.54419C316.577 7.64419 315.511 7.19419 314.244 7.19419H309.694V16.2942V23.1442V27.6942H314.244ZM318.744 30.7942C319.144 30.7942 319.344 30.5942 319.344 30.1942C319.344 29.7609 319.144 29.5442 318.744 29.5442C318.311 29.5442 318.094 29.7609 318.094 30.1942C318.094 30.5942 318.311 30.7942 318.744 30.7942ZM320.044 6.29419C320.211 6.29419 320.344 6.24419 320.444 6.14419C320.577 6.01085 320.644 5.86085 320.644 5.69419C320.644 5.52752 320.577 5.37752 320.444 5.24419C320.344 5.11085 320.211 5.04419 320.044 5.04419C319.611 5.04419 319.394 5.26085 319.394 5.69419C319.394 5.86085 319.461 6.01085 319.594 6.14419C319.727 6.24419 319.877 6.29419 320.044 6.29419ZM321.544 27.0942C321.977 27.0942 322.194 26.8942 322.194 26.4942C322.194 26.0609 321.977 25.8442 321.544 25.8442C321.144 25.8442 320.944 26.0609 320.944 26.4942C320.944 26.8942 321.144 27.0942 321.544 27.0942ZM322.694 23.1942C323.094 23.1942 323.294 22.9775 323.294 22.5442C323.294 22.1442 323.094 21.9442 322.694 21.9442C322.261 21.9442 322.044 22.1442 322.044 22.5442C322.044 22.9775 322.261 23.1942 322.694 23.1942ZM358.603 29.9942C358.603 32.0942 358.986 33.4775 359.753 34.1442C360.02 34.4109 359.97 34.5442 359.603 34.5442H350.803C350.67 34.5442 350.586 34.5109 350.553 34.4442C350.52 34.3442 350.553 34.2442 350.653 34.1442C351.42 33.4775 351.803 32.0942 351.803 29.9942V21.1442L347.853 30.7442C347.22 32.2442 347.086 33.3942 347.453 34.1942C347.553 34.4275 347.486 34.5442 347.253 34.5442H340.453C340.186 34.5442 340.12 34.4275 340.253 34.1942C340.653 33.4609 340.52 32.3109 339.853 30.7442L335.853 21.0442V28.6442V28.6942V29.9942C335.853 32.1275 336.236 33.5109 337.003 34.1442C337.103 34.2442 337.136 34.3442 337.103 34.4442C337.07 34.5109 336.986 34.5442 336.853 34.5442H328.053C327.92 34.5442 327.836 34.5109 327.803 34.4442C327.77 34.3442 327.803 34.2442 327.903 34.1442C328.636 33.5109 329.003 32.1275 329.003 29.9942V4.94419C329.003 2.81086 328.636 1.42752 327.903 0.794189C327.803 0.727521 327.77 0.644188 327.803 0.544189C327.836 0.444188 327.92 0.394188 328.053 0.394188H333.603H336.853C336.986 0.394188 337.07 0.444188 337.103 0.544189C337.136 0.644188 337.103 0.727521 337.003 0.794189C336.57 1.12752 336.253 1.71085 336.053 2.54419C335.953 3.01085 336.003 3.46085 336.203 3.89419L343.803 22.4442L351.453 3.89419C351.653 3.42752 351.686 2.97752 351.553 2.54419C351.42 1.74419 351.12 1.16085 350.653 0.794189C350.553 0.727521 350.52 0.644188 350.553 0.544189C350.586 0.444188 350.67 0.394188 350.803 0.394188H356.353H359.603C359.77 0.394188 359.853 0.444188 359.853 0.544189C359.886 0.644188 359.853 0.727521 359.753 0.794189C358.986 1.46085 358.603 2.84419 358.603 4.94419V7.24419V9.49419V11.3942V18.5942V27.7442V29.9942ZM332.253 31.8442C332.653 31.8442 332.853 31.6275 332.853 31.1942C332.853 31.0275 332.786 30.8942 332.653 30.7942C332.553 30.6609 332.42 30.5942 332.253 30.5942C332.086 30.5942 331.936 30.6609 331.803 30.7942C331.67 30.8942 331.603 31.0275 331.603 31.1942C331.603 31.6275 331.82 31.8442 332.253 31.8442ZM332.253 27.0942C332.653 27.0942 332.853 26.8775 332.853 26.4442C332.853 26.0442 332.653 25.8442 332.253 25.8442C331.82 25.8442 331.603 26.0442 331.603 26.4442C331.603 26.8775 331.82 27.0942 332.253 27.0942ZM332.253 22.4942C332.653 22.4942 332.853 22.2942 332.853 21.8942C332.853 21.4609 332.653 21.2442 332.253 21.2442C331.82 21.2442 331.603 21.4609 331.603 21.8942C331.603 22.2942 331.82 22.4942 332.253 22.4942ZM332.253 17.8942C332.653 17.8942 332.853 17.6775 332.853 17.2442C332.853 16.8109 332.653 16.5942 332.253 16.5942C331.82 16.5942 331.603 16.8109 331.603 17.2442C331.603 17.6775 331.82 17.8942 332.253 17.8942ZM332.303 13.1942C332.47 13.1942 332.603 13.1275 332.703 12.9942C332.836 12.8609 332.903 12.7109 332.903 12.5442C332.903 12.3775 332.836 12.2442 332.703 12.1442C332.603 12.0109 332.47 11.9442 332.303 11.9442C332.136 11.9442 331.986 12.0109 331.853 12.1442C331.72 12.2442 331.653 12.3775 331.653 12.5442C331.653 12.9775 331.87 13.1942 332.303 13.1942ZM331.603 7.94419C331.603 8.37752 331.82 8.59419 332.253 8.59419C332.653 8.59419 332.853 8.37752 332.853 7.94419C332.853 7.77752 332.786 7.64419 332.653 7.54419C332.553 7.41085 332.42 7.34419 332.253 7.34419C332.086 7.34419 331.936 7.41085 331.803 7.54419C331.67 7.64419 331.603 7.77752 331.603 7.94419ZM332.303 3.94419C332.47 3.94419 332.603 3.89419 332.703 3.79419C332.836 3.66086 332.903 3.51086 332.903 3.34419C332.903 3.17752 332.836 3.02752 332.703 2.89419C332.603 2.76086 332.47 2.69419 332.303 2.69419C331.87 2.69419 331.653 2.91086 331.653 3.34419C331.653 3.74419 331.87 3.94419 332.303 3.94419ZM334.953 9.94419C335.353 9.94419 335.553 9.72752 335.553 9.29419C335.553 8.89419 335.353 8.69419 334.953 8.69419C334.52 8.69419 334.303 8.89419 334.303 9.29419C334.303 9.72752 334.52 9.94419 334.953 9.94419ZM336.353 14.2442C336.52 14.2442 336.67 14.1942 336.803 14.0942C336.936 13.9609 337.003 13.8109 337.003 13.6442C337.003 13.2109 336.786 12.9942 336.353 12.9942C336.186 12.9942 336.036 13.0609 335.903 13.1942C335.803 13.3275 335.753 13.4775 335.753 13.6442C335.753 13.8109 335.803 13.9609 335.903 14.0942C336.036 14.1942 336.186 14.2442 336.353 14.2442ZM337.953 18.4442C338.353 18.4442 338.553 18.2442 338.553 17.8442C338.553 17.4442 338.353 17.2442 337.953 17.2442C337.553 17.2442 337.353 17.4442 337.353 17.8442C337.353 18.2442 337.553 18.4442 337.953 18.4442ZM339.853 22.6942C340.253 22.6942 340.453 22.4942 340.453 22.0942C340.453 21.6942 340.253 21.4942 339.853 21.4942C339.42 21.4942 339.203 21.6942 339.203 22.0942C339.203 22.4942 339.42 22.6942 339.853 22.6942ZM341.753 26.8942C342.153 26.8942 342.353 26.6942 342.353 26.2942C342.353 25.8609 342.153 25.6442 341.753 25.6442C341.32 25.6442 341.103 25.8609 341.103 26.2942C341.103 26.6942 341.32 26.8942 341.753 26.8942ZM343.603 31.1942C344.036 31.1942 344.253 30.9942 344.253 30.5942C344.253 30.1942 344.036 29.9942 343.603 29.9942C343.436 29.9942 343.286 30.0609 343.153 30.1942C343.053 30.2942 343.003 30.4275 343.003 30.5942C343.003 30.7609 343.053 30.9109 343.153 31.0442C343.286 31.1442 343.436 31.1942 343.603 31.1942ZM345.703 26.8442C346.136 26.8442 346.353 26.6442 346.353 26.2442C346.353 25.8442 346.136 25.6442 345.703 25.6442C345.536 25.6442 345.386 25.7109 345.253 25.8442C345.153 25.9442 345.103 26.0775 345.103 26.2442C345.103 26.4109 345.153 26.5609 345.253 26.6942C345.386 26.7942 345.536 26.8442 345.703 26.8442ZM347.553 22.6942C347.953 22.6942 348.153 22.4775 348.153 22.0442C348.153 21.8775 348.086 21.7442 347.953 21.6442C347.853 21.5109 347.72 21.4442 347.553 21.4442C347.386 21.4442 347.236 21.5109 347.103 21.6442C347.003 21.7442 346.953 21.8775 346.953 22.0442C346.953 22.2109 347.003 22.3609 347.103 22.4942C347.236 22.6275 347.386 22.6942 347.553 22.6942ZM349.403 18.4442C349.57 18.4442 349.703 18.3775 349.803 18.2442C349.936 18.1109 350.003 17.9609 350.003 17.7942C350.003 17.6275 349.936 17.4942 349.803 17.3942C349.703 17.2609 349.57 17.1942 349.403 17.1942C349.003 17.1942 348.803 17.3942 348.803 17.7942C348.803 18.2275 349.003 18.4442 349.403 18.4442ZM351.253 13.8942C351.42 13.8942 351.553 13.8442 351.653 13.7442C351.786 13.6109 351.853 13.4609 351.853 13.2942C351.853 13.1275 351.786 12.9775 351.653 12.8442C351.553 12.7109 351.42 12.6442 351.253 12.6442C350.853 12.6442 350.653 12.8609 350.653 13.2942C350.653 13.6942 350.853 13.8942 351.253 13.8942ZM353.053 9.84419C353.453 9.84419 353.653 9.62752 353.653 9.19419C353.653 8.79419 353.453 8.59419 353.053 8.59419C352.653 8.59419 352.453 8.79419 352.453 9.19419C352.453 9.62752 352.653 9.84419 353.053 9.84419ZM355.453 31.8442C355.886 31.8442 356.103 31.6442 356.103 31.2442C356.103 30.8442 355.886 30.6442 355.453 30.6442C355.053 30.6442 354.853 30.8442 354.853 31.2442C354.853 31.6442 355.053 31.8442 355.453 31.8442ZM355.453 27.0942C355.886 27.0942 356.103 26.8775 356.103 26.4442C356.103 26.2775 356.036 26.1442 355.903 26.0442C355.77 25.9109 355.62 25.8442 355.453 25.8442C355.286 25.8442 355.136 25.9109 355.003 26.0442C354.903 26.1442 354.853 26.2775 354.853 26.4442C354.853 26.8775 355.053 27.0942 355.453 27.0942ZM355.453 22.5442C355.886 22.5442 356.103 22.3275 356.103 21.8942C356.103 21.4942 355.886 21.2942 355.453 21.2942C355.053 21.2942 354.853 21.4942 354.853 21.8942C354.853 22.3275 355.053 22.5442 355.453 22.5442ZM355.453 17.8942C355.886 17.8942 356.103 17.6775 356.103 17.2442C356.103 17.0775 356.036 16.9442 355.903 16.8442C355.77 16.7109 355.62 16.6442 355.453 16.6442C355.286 16.6442 355.136 16.7109 355.003 16.8442C354.903 16.9442 354.853 17.0775 354.853 17.2442C354.853 17.6775 355.053 17.8942 355.453 17.8942ZM355.503 13.1942C355.67 13.1942 355.803 13.1442 355.903 13.0442C356.036 12.9109 356.103 12.7609 356.103 12.5942C356.103 12.4275 356.036 12.2942 355.903 12.1942C355.803 12.0609 355.67 11.9942 355.503 11.9942C355.07 11.9942 354.853 12.1942 354.853 12.5942C354.853 12.9942 355.07 13.1942 355.503 13.1942ZM354.853 7.99419C354.853 8.39419 355.053 8.59419 355.453 8.59419C355.886 8.59419 356.103 8.39419 356.103 7.99419C356.103 7.59419 355.886 7.39419 355.453 7.39419C355.053 7.39419 354.853 7.59419 354.853 7.99419ZM355.503 3.99419C355.67 3.99419 355.803 3.92752 355.903 3.79419C356.036 3.66086 356.103 3.51086 356.103 3.34419C356.103 3.17752 356.036 3.04419 355.903 2.94419C355.803 2.81085 355.67 2.74419 355.503 2.74419C355.07 2.74419 354.853 2.94419 354.853 3.34419C354.853 3.77752 355.07 3.99419 355.503 3.99419ZM386.305 34.1442C386.405 34.2442 386.438 34.3442 386.405 34.4442C386.372 34.5109 386.288 34.5442 386.155 34.5442H377.355C377.222 34.5442 377.138 34.5109 377.105 34.4442C377.072 34.3442 377.105 34.2442 377.205 34.1442C377.972 33.5442 378.355 32.1609 378.355 29.9942V25.4442H369.205V29.9942C369.205 32.1609 369.588 33.5442 370.355 34.1442C370.622 34.4109 370.572 34.5442 370.205 34.5442H361.405C361.272 34.5442 361.188 34.5109 361.155 34.4442C361.122 34.3442 361.155 34.2442 361.255 34.1442C362.022 33.5442 362.405 32.1609 362.405 29.9942V23.1942V19.1442C362.405 17.7109 362.538 16.3442 362.805 15.0442C363.072 13.7109 363.488 12.3775 364.055 11.0442L366.655 4.99419C367.088 2.86085 366.988 1.46085 366.355 0.794189C366.255 0.694188 366.222 0.610855 366.255 0.544189C366.288 0.444188 366.372 0.394188 366.505 0.394188H381.055C381.388 0.394188 381.455 0.527522 381.255 0.794189C380.622 1.39419 380.505 2.79419 380.905 4.99419L383.505 11.0442C384.072 12.3775 384.488 13.7109 384.755 15.0442C385.022 16.3442 385.155 17.7109 385.155 19.1442V23.1942V29.9942C385.155 32.1609 385.538 33.5442 386.305 34.1442ZM381.155 16.1942C380.755 16.1942 380.555 16.4109 380.555 16.8442C380.555 17.0109 380.605 17.1609 380.705 17.2942C380.838 17.3942 380.988 17.4442 381.155 17.4442C381.322 17.4442 381.472 17.3942 381.605 17.2942C381.738 17.1609 381.805 17.0109 381.805 16.8442C381.805 16.4109 381.588 16.1942 381.155 16.1942ZM376.955 2.59419C376.555 2.59419 376.355 2.79419 376.355 3.19419C376.355 3.62752 376.555 3.84419 376.955 3.84419C377.355 3.84419 377.555 3.62752 377.555 3.19419C377.555 2.79419 377.355 2.59419 376.955 2.59419ZM370.605 3.04419C370.172 3.04419 369.955 3.24419 369.955 3.64419C369.955 4.07752 370.172 4.29419 370.605 4.29419C371.038 4.29419 371.255 4.07752 371.255 3.64419C371.255 3.24419 371.038 3.04419 370.605 3.04419ZM365.805 31.8442C366.238 31.8442 366.455 31.6275 366.455 31.1942C366.455 31.0275 366.388 30.8942 366.255 30.7942C366.122 30.6609 365.972 30.5942 365.805 30.5942C365.638 30.5942 365.488 30.6609 365.355 30.7942C365.222 30.8942 365.155 31.0275 365.155 31.1942C365.155 31.6275 365.372 31.8442 365.805 31.8442ZM365.955 27.0942C366.388 27.0942 366.605 26.8775 366.605 26.4442C366.605 26.2775 366.538 26.1442 366.405 26.0442C366.305 25.9109 366.155 25.8442 365.955 25.8442C365.788 25.8442 365.638 25.9109 365.505 26.0442C365.405 26.1442 365.355 26.2775 365.355 26.4442C365.355 26.8775 365.555 27.0942 365.955 27.0942ZM365.955 22.3442C366.388 22.3442 366.605 22.1442 366.605 21.7442C366.605 21.3109 366.388 21.0942 365.955 21.0942C365.555 21.0942 365.355 21.3109 365.355 21.7442C365.355 22.1442 365.555 22.3442 365.955 22.3442ZM366.255 17.7442C366.422 17.7442 366.572 17.6942 366.705 17.5942C366.838 17.4609 366.905 17.3109 366.905 17.1442C366.905 16.7109 366.688 16.4942 366.255 16.4942C365.855 16.4942 365.655 16.7109 365.655 17.1442C365.655 17.3109 365.705 17.4609 365.805 17.5942C365.938 17.6942 366.088 17.7442 366.255 17.7442ZM366.905 13.1942C367.305 13.1942 367.505 12.9942 367.505 12.5942C367.505 12.1942 367.305 11.9942 366.905 11.9942C366.472 11.9942 366.255 12.1942 366.255 12.5942C366.255 12.9942 366.472 13.1942 366.905 13.1942ZM368.955 8.59419C369.355 8.59419 369.555 8.39419 369.555 7.99419C369.555 7.56085 369.355 7.34419 368.955 7.34419C368.522 7.34419 368.305 7.56085 368.305 7.99419C368.305 8.39419 368.522 8.59419 368.955 8.59419ZM371.055 22.3442C371.488 22.3442 371.705 22.1442 371.705 21.7442C371.705 21.3109 371.488 21.0942 371.055 21.0942C370.622 21.0942 370.405 21.3109 370.405 21.7442C370.405 22.1442 370.622 22.3442 371.055 22.3442ZM376.205 22.3942C376.372 22.3942 376.505 22.3442 376.605 22.2442C376.738 22.1109 376.805 21.9609 376.805 21.7942C376.805 21.3609 376.605 21.1442 376.205 21.1442C375.772 21.1442 375.555 21.3609 375.555 21.7942C375.555 21.9609 375.605 22.1109 375.705 22.2442C375.838 22.3442 376.005 22.3942 376.205 22.3942ZM378.355 18.6442C378.255 16.9442 377.888 15.3109 377.255 13.7442L373.805 5.69419L370.355 13.7442C369.655 15.3109 369.288 16.9442 369.255 18.6442H378.355ZM378.455 8.19419C378.855 8.19419 379.055 7.97752 379.055 7.54419C379.055 7.11085 378.855 6.89419 378.455 6.89419C378.022 6.89419 377.805 7.11085 377.805 7.54419C377.805 7.97752 378.022 8.19419 378.455 8.19419ZM379.505 12.1442C379.505 12.5775 379.722 12.7942 380.155 12.7942C380.555 12.7942 380.755 12.5775 380.755 12.1442C380.755 11.7442 380.555 11.5442 380.155 11.5442C379.722 11.5442 379.505 11.7442 379.505 12.1442ZM380.555 21.5942C380.555 22.0275 380.755 22.2442 381.155 22.2442C381.588 22.2442 381.805 22.0275 381.805 21.5942C381.805 21.1942 381.588 20.9942 381.155 20.9942C380.755 20.9942 380.555 21.1942 380.555 21.5942ZM381.505 31.6942C381.672 31.6942 381.805 31.6442 381.905 31.5442C382.038 31.4109 382.105 31.2609 382.105 31.0942C382.105 30.9275 382.038 30.7775 381.905 30.6442C381.805 30.5109 381.672 30.4442 381.505 30.4442C381.072 30.4442 380.855 30.6609 380.855 31.0942C380.855 31.4942 381.072 31.6942 381.505 31.6942ZM381.505 26.7942C381.672 26.7942 381.805 26.7275 381.905 26.5942C382.038 26.4609 382.105 26.3109 382.105 26.1442C382.105 25.9775 382.038 25.8442 381.905 25.7442C381.805 25.6109 381.672 25.5442 381.505 25.5442C381.338 25.5442 381.188 25.6109 381.055 25.7442C380.922 25.8442 380.855 25.9775 380.855 26.1442C380.855 26.5775 381.072 26.7942 381.505 26.7942ZM400.808 0.394188C402.542 0.394188 404.125 0.727521 405.558 1.39419C406.992 2.06086 408.192 2.94419 409.158 4.04419C410.158 5.11086 410.925 6.34419 411.458 7.74419C411.992 9.14419 412.242 10.5942 412.208 12.0942C412.208 13.5609 411.892 15.0109 411.258 16.4442C410.625 17.8775 409.658 19.1609 408.358 20.2942C407.225 21.2942 406.058 22.0275 404.858 22.4942C403.692 22.9275 402.342 23.1442 400.808 23.1442H396.258V29.9942C396.258 32.0942 396.642 33.4775 397.408 34.1442C397.508 34.2109 397.542 34.2942 397.508 34.3942C397.475 34.4942 397.392 34.5442 397.258 34.5442H394.008H388.458C388.325 34.5442 388.242 34.4942 388.208 34.3942C388.175 34.2942 388.208 34.2109 388.308 34.1442C389.075 33.4775 389.458 32.0942 389.458 29.9942V4.94419C389.458 2.77752 389.075 1.39419 388.308 0.794189C388.208 0.694188 388.175 0.610855 388.208 0.544189C388.242 0.444188 388.325 0.394188 388.458 0.394188H394.008H400.808ZM392.958 31.9442C393.125 31.9442 393.258 31.8775 393.358 31.7442C393.492 31.6109 393.558 31.4609 393.558 31.2942C393.558 31.1275 393.492 30.9942 393.358 30.8942C393.258 30.7609 393.125 30.6942 392.958 30.6942C392.792 30.6942 392.642 30.7609 392.508 30.8942C392.375 30.9942 392.308 31.1275 392.308 31.2942C392.308 31.7275 392.525 31.9442 392.958 31.9442ZM392.958 27.1942C393.125 27.1942 393.258 27.1275 393.358 26.9942C393.492 26.8609 393.558 26.7109 393.558 26.5442C393.558 26.3775 393.492 26.2442 393.358 26.1442C393.258 26.0109 393.125 25.9442 392.958 25.9442C392.792 25.9442 392.642 26.0109 392.508 26.1442C392.375 26.2442 392.308 26.3775 392.308 26.5442C392.308 26.9775 392.525 27.1942 392.958 27.1942ZM392.958 22.6442C393.125 22.6442 393.258 22.5775 393.358 22.4442C393.492 22.3109 393.558 22.1609 393.558 21.9942C393.558 21.8275 393.492 21.6775 393.358 21.5442C393.258 21.4109 393.125 21.3442 392.958 21.3442C392.525 21.3442 392.308 21.5609 392.308 21.9942C392.308 22.4275 392.525 22.6442 392.958 22.6442ZM392.958 17.9942C393.125 17.9942 393.258 17.9275 393.358 17.7942C393.492 17.6609 393.558 17.5109 393.558 17.3442C393.558 17.1775 393.492 17.0442 393.358 16.9442C393.258 16.8109 393.125 16.7442 392.958 16.7442C392.525 16.7442 392.308 16.9442 392.308 17.3442C392.308 17.7775 392.525 17.9942 392.958 17.9942ZM392.958 13.2942C393.392 13.2942 393.608 13.0942 393.608 12.6942C393.608 12.2609 393.392 12.0442 392.958 12.0442C392.558 12.0442 392.358 12.2609 392.358 12.6942C392.358 13.0942 392.558 13.2942 392.958 13.2942ZM392.308 8.09419C392.308 8.49419 392.525 8.69419 392.958 8.69419C393.125 8.69419 393.258 8.64419 393.358 8.54419C393.492 8.41085 393.558 8.26085 393.558 8.09419C393.558 7.92752 393.492 7.77752 393.358 7.64419C393.258 7.51085 393.125 7.44419 392.958 7.44419C392.525 7.44419 392.308 7.66085 392.308 8.09419ZM392.958 4.04419C393.392 4.04419 393.608 3.84419 393.608 3.44419C393.608 3.04419 393.392 2.84419 392.958 2.84419C392.558 2.84419 392.358 3.04419 392.358 3.44419C392.358 3.84419 392.558 4.04419 392.958 4.04419ZM402.458 3.29419C402.025 3.29419 401.808 3.49419 401.808 3.89419C401.808 4.32752 402.025 4.54419 402.458 4.54419C402.858 4.54419 403.058 4.32752 403.058 3.89419C403.058 3.49419 402.858 3.29419 402.458 3.29419ZM397.558 2.84419C397.392 2.84419 397.242 2.91086 397.108 3.04419C397.008 3.14419 396.958 3.27752 396.958 3.44419C396.958 3.61085 397.008 3.76085 397.108 3.89419C397.242 3.99419 397.392 4.04419 397.558 4.04419C397.992 4.04419 398.208 3.84419 398.208 3.44419C398.208 3.04419 397.992 2.84419 397.558 2.84419ZM397.558 20.1442C397.758 20.1442 397.908 20.0942 398.008 19.9942C398.142 19.8609 398.208 19.7109 398.208 19.5442C398.208 19.1109 397.992 18.8942 397.558 18.8942C397.392 18.8942 397.242 18.9609 397.108 19.0942C397.008 19.2275 396.958 19.3775 396.958 19.5442C396.958 19.7109 397.008 19.8609 397.108 19.9942C397.242 20.0942 397.392 20.1442 397.558 20.1442ZM402.908 20.1442C403.075 20.1442 403.225 20.0942 403.358 19.9942C403.492 19.8609 403.558 19.7109 403.558 19.5442C403.558 19.1109 403.342 18.8942 402.908 18.8942C402.475 18.8942 402.258 19.1109 402.258 19.5442C402.258 19.7109 402.325 19.8609 402.458 19.9942C402.592 20.0942 402.742 20.1442 402.908 20.1442ZM400.808 16.2942C402.075 16.2942 403.142 15.8609 404.008 14.9942C404.908 14.0942 405.358 13.0109 405.358 11.7442C405.358 11.1109 405.242 10.5275 405.008 9.99419C404.775 9.42752 404.442 8.94419 404.008 8.54419C403.608 8.11085 403.125 7.77752 402.558 7.54419C402.025 7.31085 401.442 7.19419 400.808 7.19419H396.258V16.2942H400.808ZM406.008 6.24419C406.008 6.67752 406.208 6.89419 406.608 6.89419C407.042 6.89419 407.258 6.67752 407.258 6.24419C407.258 5.84419 407.042 5.64419 406.608 5.64419C406.208 5.64419 406.008 5.84419 406.008 6.24419ZM407.258 16.4942C407.425 16.4942 407.558 16.4442 407.658 16.3442C407.792 16.2109 407.858 16.0609 407.858 15.8942C407.858 15.4609 407.658 15.2442 407.258 15.2442C406.825 15.2442 406.608 15.4609 406.608 15.8942C406.608 16.0609 406.675 16.2109 406.808 16.3442C406.942 16.4442 407.092 16.4942 407.258 16.4942ZM408.208 11.4442C408.642 11.4442 408.858 11.2442 408.858 10.8442C408.858 10.4109 408.642 10.1942 408.208 10.1942C407.808 10.1942 407.608 10.4109 407.608 10.8442C407.608 11.2442 407.808 11.4442 408.208 11.4442Z" fill="#E1A03E"/>
</svg>
