<svg width="259" height="36" viewBox="0 0 259 36" fill="none" xmlns="http://www.w3.org/2000/svg">
<path d="M25.6 0.849999C25.7333 0.849999 25.8167 0.899999 25.85 1C25.8833 1.06667 25.8333 1.15 25.7 1.25C24.9667 1.91667 24.6 3.3 24.6 5.4V7.65V8.65C24.6 8.78333 24.55 8.86667 24.45 8.9C24.35 8.93333 24.2667 8.9 24.2 8.8C23.5333 8.03333 22.15 7.65 20.05 7.65H16.6V11.8V19.05V27.85V30.45C16.6 32.5833 16.9667 33.9667 17.7 34.6C17.8 34.6667 17.8333 34.75 17.8 34.85C17.8 34.95 17.7167 35 17.55 35H8.75C8.61667 35 8.53333 34.95 8.5 34.85C8.46667 34.75 8.51667 34.6667 8.65 34.6C9.38333 33.9333 9.75 32.55 9.75 30.45V7.65H6.3C4.13333 7.65 2.75 8.03333 2.15 8.8C2.05 8.9 1.95 8.93333 1.85 8.9C1.78333 8.86667 1.75 8.78333 1.75 8.65V7.65V5.4C1.75 3.3 1.36667 1.91667 0.6 1.25C0.5 1.15 0.466667 1.06667 0.5 1C0.533333 0.899999 0.616667 0.849999 0.75 0.849999H1.75H8.55H14.3H18.85H24.6H25.6ZM4.45 4.5C4.88333 4.5 5.1 4.28333 5.1 3.85C5.1 3.45 4.88333 3.25 4.45 3.25C4.05 3.25 3.85 3.45 3.85 3.85C3.85 4.28333 4.05 4.5 4.45 4.5ZM8.85 4.5C9.25 4.5 9.45 4.28333 9.45 3.85C9.45 3.45 9.25 3.25 8.85 3.25C8.41667 3.25 8.2 3.45 8.2 3.85C8.2 4.28333 8.41667 4.5 8.85 4.5ZM13.2 32.35C13.3667 32.35 13.5167 32.3 13.65 32.2C13.7833 32.0667 13.85 31.9167 13.85 31.75C13.85 31.3167 13.6333 31.1 13.2 31.1C12.8 31.1 12.6 31.3167 12.6 31.75C12.6 31.9167 12.65 32.0667 12.75 32.2C12.8833 32.3 13.0333 32.35 13.2 32.35ZM13.2 27.6C13.3667 27.6 13.5167 27.55 13.65 27.45C13.7833 27.3167 13.85 27.1667 13.85 27C13.85 26.5667 13.6333 26.35 13.2 26.35C12.8 26.35 12.6 26.5667 12.6 27C12.6 27.1667 12.65 27.3167 12.75 27.45C12.8833 27.55 13.0333 27.6 13.2 27.6ZM13.2 23C13.6333 23 13.85 22.8 13.85 22.4C13.85 22 13.6333 21.8 13.2 21.8C12.8 21.8 12.6 22 12.6 22.4C12.6 22.8 12.8 23 13.2 23ZM13.2 18.4C13.3667 18.4 13.5167 18.35 13.65 18.25C13.7833 18.1167 13.85 17.9667 13.85 17.8C13.85 17.3667 13.6333 17.15 13.2 17.15C12.8 17.15 12.6 17.3667 12.6 17.8C12.6 17.9667 12.65 18.1167 12.75 18.25C12.8833 18.35 13.0333 18.4 13.2 18.4ZM13.25 13.7C13.65 13.7 13.85 13.5 13.85 13.1C13.85 12.6667 13.65 12.45 13.25 12.45C12.8167 12.45 12.6 12.6667 12.6 13.1C12.6 13.5 12.8167 13.7 13.25 13.7ZM12.6 8.5C12.6 8.9 12.8 9.1 13.2 9.1C13.6333 9.1 13.85 8.9 13.85 8.5C13.85 8.06666 13.6333 7.85 13.2 7.85C12.8 7.85 12.6 8.06666 12.6 8.5ZM13.25 4.5C13.65 4.5 13.85 4.28333 13.85 3.85C13.85 3.45 13.65 3.25 13.25 3.25C12.8167 3.25 12.6 3.45 12.6 3.85C12.6 4.28333 12.8167 4.5 13.25 4.5ZM17.6 4.5C18 4.5 18.2 4.28333 18.2 3.85C18.2 3.45 18 3.25 17.6 3.25C17.1667 3.25 16.95 3.45 16.95 3.85C16.95 4.28333 17.1667 4.5 17.6 4.5ZM22 4.5C22.4 4.5 22.6 4.28333 22.6 3.85C22.6 3.45 22.4 3.25 22 3.25C21.5667 3.25 21.35 3.45 21.35 3.85C21.35 4.28333 21.5667 4.5 22 4.5ZM41.3637 1.15C42.9303 1.15 44.397 1.45 45.7637 2.05C47.1637 2.65 48.3803 3.46667 49.4137 4.5C50.447 5.53333 51.2637 6.75 51.8637 8.15C52.4637 9.51667 52.7637 10.9833 52.7637 12.55V23.95C52.7637 25.5167 52.4637 27 51.8637 28.4C51.2637 29.7667 50.447 30.9667 49.4137 32C48.3803 33.0333 47.1637 33.85 45.7637 34.45C44.397 35.0167 42.9303 35.3 41.3637 35.3H39.1137C37.547 35.3 36.0637 35.0167 34.6637 34.45C33.297 33.85 32.097 33.0333 31.0637 32C30.0303 30.9667 29.2137 29.7667 28.6137 28.4C28.0137 27 27.7137 25.5167 27.7137 23.95V12.55C27.7137 10.9833 28.0137 9.51667 28.6137 8.15C29.2137 6.75 30.0303 5.53333 31.0637 4.5C32.097 3.46667 33.297 2.65 34.6637 2.05C36.0637 1.45 37.547 1.15 39.1137 1.15H41.3637ZM49.8637 14.75C49.8637 14.5833 49.797 14.45 49.6637 14.35C49.5303 14.2167 49.3803 14.15 49.2137 14.15C49.047 14.15 48.897 14.2167 48.7637 14.35C48.6637 14.45 48.6137 14.5833 48.6137 14.75C48.6137 14.9167 48.6637 15.0667 48.7637 15.2C48.897 15.3333 49.047 15.4 49.2137 15.4C49.647 15.4 49.8637 15.1833 49.8637 14.75ZM49.8637 18.95C49.8637 18.55 49.647 18.35 49.2137 18.35C48.8137 18.35 48.6137 18.55 48.6137 18.95C48.6137 19.3833 48.8137 19.6 49.2137 19.6C49.647 19.6 49.8637 19.3833 49.8637 18.95ZM48.6137 9.55C48.447 9.55 48.297 9.61667 48.1637 9.75C48.0637 9.85 48.0137 9.98333 48.0137 10.15C48.0137 10.3167 48.0637 10.4667 48.1637 10.6C48.297 10.7333 48.447 10.8 48.6137 10.8C49.047 10.8 49.2637 10.5833 49.2637 10.15C49.2637 9.75 49.047 9.55 48.6137 9.55ZM42.6137 4.1C42.447 4.1 42.297 4.16667 42.1637 4.3C42.0637 4.43333 42.0137 4.58333 42.0137 4.75C42.0137 4.91667 42.0637 5.06667 42.1637 5.2C42.297 5.3 42.447 5.35 42.6137 5.35C42.7803 5.35 42.9303 5.3 43.0637 5.2C43.197 5.06667 43.2637 4.91667 43.2637 4.75C43.2637 4.31667 43.047 4.1 42.6137 4.1ZM37.5637 3.8C37.1637 3.8 36.9637 4.01667 36.9637 4.45C36.9637 4.85 37.1637 5.05 37.5637 5.05C37.997 5.05 38.2137 4.85 38.2137 4.45C38.2137 4.01667 37.997 3.8 37.5637 3.8ZM31.3637 25.35C31.797 25.35 32.0137 25.15 32.0137 24.75C32.0137 24.3167 31.797 24.1 31.3637 24.1C31.197 24.1 31.047 24.1667 30.9137 24.3C30.8137 24.4333 30.7637 24.5833 30.7637 24.75C30.7637 24.9167 30.8137 25.0667 30.9137 25.2C31.047 25.3 31.197 25.35 31.3637 25.35ZM30.6137 20.05C30.6137 20.45 30.8137 20.65 31.2137 20.65C31.647 20.65 31.8637 20.45 31.8637 20.05C31.8637 19.6167 31.647 19.4 31.2137 19.4C30.8137 19.4 30.6137 19.6167 30.6137 20.05ZM31.3637 16.35C31.797 16.35 32.0137 16.1333 32.0137 15.7C32.0137 15.3 31.797 15.1 31.3637 15.1C31.197 15.1 31.047 15.1667 30.9137 15.3C30.8137 15.4 30.7637 15.5333 30.7637 15.7C30.7637 15.8667 30.8137 16.0167 30.9137 16.15C31.047 16.2833 31.197 16.35 31.3637 16.35ZM31.7137 11.5C32.1137 11.5 32.3137 11.2833 32.3137 10.85C32.3137 10.45 32.1137 10.25 31.7137 10.25C31.2803 10.25 31.0637 10.45 31.0637 10.85C31.0637 11.2833 31.2803 11.5 31.7137 11.5ZM32.9637 29.5C33.3637 29.5 33.5637 29.3 33.5637 28.9C33.5637 28.4667 33.3637 28.25 32.9637 28.25C32.5637 28.25 32.3637 28.4667 32.3637 28.9C32.3637 29.3 32.5637 29.5 32.9637 29.5ZM33.5637 7.1C33.7637 7.1 33.9137 7.05 34.0137 6.95C34.147 6.81667 34.2137 6.66667 34.2137 6.5C34.2137 6.06667 33.997 5.85 33.5637 5.85C33.397 5.85 33.247 5.91667 33.1137 6.05C33.0137 6.15 32.9637 6.3 32.9637 6.5C32.9637 6.66667 33.0137 6.81667 33.1137 6.95C33.247 7.05 33.397 7.1 33.5637 7.1ZM36.9637 32C37.3637 32 37.5637 31.8 37.5637 31.4C37.5637 31 37.3637 30.8 36.9637 30.8C36.5303 30.8 36.3137 31 36.3137 31.4C36.3137 31.8 36.5303 32 36.9637 32ZM41.3637 32.45C41.7637 32.45 41.9637 32.25 41.9637 31.85C41.9637 31.45 41.7637 31.25 41.3637 31.25C40.9303 31.25 40.7137 31.45 40.7137 31.85C40.7137 32.25 40.9303 32.45 41.3637 32.45ZM41.3637 28.5C42.6303 28.5 43.697 28.0667 44.5637 27.2C45.4637 26.3 45.9137 25.2167 45.9137 23.95V19.4V17.1V12.55C45.9137 11.2833 45.4637 10.2167 44.5637 9.35C43.697 8.45 42.6303 8 41.3637 8H39.1137C38.4803 8 37.8803 8.11667 37.3137 8.35C36.7803 8.58333 36.297 8.91667 35.8637 9.35C35.4637 9.75 35.147 10.2333 34.9137 10.8C34.6803 11.3333 34.5637 11.9167 34.5637 12.55V17.1V19.4V23.95C34.5637 24.5833 34.6803 25.1833 34.9137 25.75C35.147 26.2833 35.4637 26.7667 35.8637 27.2C36.297 27.6 36.7803 27.9167 37.3137 28.15C37.8803 28.3833 38.4803 28.5 39.1137 28.5H41.3637ZM45.4137 31.4C45.5803 31.4 45.7303 31.35 45.8637 31.25C45.997 31.1167 46.0637 30.9667 46.0637 30.8C46.0637 30.3667 45.847 30.15 45.4137 30.15C45.247 30.15 45.097 30.2167 44.9637 30.35C44.8637 30.45 44.8137 30.6 44.8137 30.8C44.8137 30.9667 44.8637 31.1167 44.9637 31.25C45.097 31.35 45.247 31.4 45.4137 31.4ZM46.7137 6.9C47.147 6.9 47.3637 6.68333 47.3637 6.25C47.3637 5.85 47.147 5.65 46.7137 5.65C46.3137 5.65 46.1137 5.85 46.1137 6.25C46.1137 6.68333 46.3137 6.9 46.7137 6.9ZM48.2637 27.7C48.6637 27.7 48.8637 27.4833 48.8637 27.05C48.8637 26.65 48.6637 26.45 48.2637 26.45C47.8637 26.45 47.6637 26.65 47.6637 27.05C47.6637 27.4833 47.8637 27.7 48.2637 27.7ZM49.3637 23.75C49.797 23.75 50.0137 23.55 50.0137 23.15C50.0137 22.75 49.797 22.55 49.3637 22.55C48.9637 22.55 48.7637 22.75 48.7637 23.15C48.7637 23.55 48.9637 23.75 49.3637 23.75ZM77.4004 30.45C77.4004 32.55 77.7837 33.9333 78.5504 34.6C78.6504 34.6667 78.6837 34.75 78.6504 34.85C78.6171 34.95 78.5337 35 78.4004 35H69.6004C69.4337 35 69.3337 34.95 69.3004 34.85C69.3004 34.75 69.3504 34.6667 69.4504 34.6C70.2171 33.9333 70.6004 32.55 70.6004 30.45V28.15V27.05C70.6004 26.1167 70.4171 25.2333 70.0504 24.4C69.6837 23.5667 69.1837 22.8333 68.5504 22.2C67.9504 21.5667 67.2337 21.0833 66.4004 20.75C65.5671 20.3833 64.6837 20.2 63.7504 20.2H62.6004V23.6V28.15V30.45C62.6004 32.55 62.9671 33.9333 63.7004 34.6C63.8337 34.6667 63.8837 34.75 63.8504 34.85C63.8171 34.95 63.7337 35 63.6004 35H62.6004H60.3504H54.8004C54.6337 35 54.5337 34.95 54.5004 34.85C54.5004 34.75 54.5504 34.6667 54.6504 34.6C55.3837 33.9667 55.7504 32.5833 55.7504 30.45V5.4C55.7504 3.23333 55.3837 1.85 54.6504 1.25C54.3837 0.983332 54.4337 0.849999 54.8004 0.849999H63.6004C63.7337 0.849999 63.8171 0.899999 63.8504 1C63.8837 1.06667 63.8337 1.15 63.7004 1.25C62.9671 1.88333 62.6004 3.26667 62.6004 5.4V8V13.35H63.7504C64.6837 13.35 65.5671 13.1833 66.4004 12.85C67.2337 12.4833 67.9504 12 68.5504 11.4C69.1837 10.7667 69.6837 10.0333 70.0504 9.2C70.4171 8.36667 70.6004 7.48333 70.6004 6.55V5.4C70.6004 3.23333 70.2171 1.85 69.4504 1.25C69.1837 0.983332 69.2337 0.849999 69.6004 0.849999H78.4004C78.5337 0.849999 78.6171 0.899999 78.6504 1C78.6837 1.06667 78.6504 1.15 78.5504 1.25C77.7837 1.85 77.4004 3.23333 77.4004 5.4V6.55C77.4004 8.51666 77.0004 10.4 76.2004 12.2C75.4004 13.9667 74.2504 15.4833 72.7504 16.75C74.2504 18.0833 75.4004 19.6333 76.2004 21.4C77.0004 23.1667 77.4004 25.05 77.4004 27.05V28.15V30.45ZM74.2004 3.3C73.8004 3.3 73.6004 3.5 73.6004 3.9C73.6004 4.33333 73.8004 4.55 74.2004 4.55C74.6337 4.55 74.8504 4.33333 74.8504 3.9C74.8504 3.5 74.6337 3.3 74.2004 3.3ZM73.7004 7.8C73.2671 7.8 73.0504 8.01667 73.0504 8.45C73.0504 8.85 73.2671 9.05 73.7004 9.05C74.1004 9.05 74.3004 8.85 74.3004 8.45C74.3004 8.01667 74.1004 7.8 73.7004 7.8ZM59.2004 32.55C59.6004 32.55 59.8004 32.35 59.8004 31.95C59.8004 31.5167 59.6004 31.3 59.2004 31.3C58.7671 31.3 58.5504 31.5167 58.5504 31.95C58.5504 32.35 58.7671 32.55 59.2004 32.55ZM59.2004 27.8C59.6004 27.8 59.8004 27.6 59.8004 27.2C59.8004 26.7667 59.6004 26.55 59.2004 26.55C58.7671 26.55 58.5504 26.7667 58.5504 27.2C58.5504 27.6 58.7671 27.8 59.2004 27.8ZM59.2004 23.25C59.3671 23.25 59.5004 23.2 59.6004 23.1C59.7337 22.9667 59.8004 22.8167 59.8004 22.65C59.8004 22.2167 59.6004 22 59.2004 22C58.7671 22 58.5504 22.2167 58.5504 22.65C58.5504 22.8167 58.6171 22.9667 58.7504 23.1C58.8837 23.2 59.0337 23.25 59.2004 23.25ZM59.2004 18.6C59.6004 18.6 59.8004 18.4 59.8004 18C59.8004 17.5667 59.6004 17.35 59.2004 17.35C58.7671 17.35 58.5504 17.5667 58.5504 18C58.5504 18.4 58.7671 18.6 59.2004 18.6ZM59.2004 13.95C59.6337 13.95 59.8504 13.7333 59.8504 13.3C59.8504 12.9 59.6337 12.7 59.2004 12.7C58.8004 12.7 58.6004 12.9 58.6004 13.3C58.6004 13.7333 58.8004 13.95 59.2004 13.95ZM58.5504 8.7C58.5504 9.13333 58.7671 9.35 59.2004 9.35C59.6004 9.35 59.8004 9.13333 59.8004 8.7C59.8004 8.3 59.6004 8.1 59.2004 8.1C58.7671 8.1 58.5504 8.3 58.5504 8.7ZM59.2004 4.7C59.6337 4.7 59.8504 4.48333 59.8504 4.05C59.8504 3.88333 59.7837 3.75 59.6504 3.65C59.5171 3.51666 59.3671 3.45 59.2004 3.45C59.0337 3.45 58.8837 3.51666 58.7504 3.65C58.6504 3.75 58.6004 3.88333 58.6004 4.05C58.6004 4.48333 58.8004 4.7 59.2004 4.7ZM63.2504 17.35C63.6837 17.35 63.9004 17.1333 63.9004 16.7C63.9004 16.5333 63.8337 16.4 63.7004 16.3C63.6004 16.1667 63.4504 16.1 63.2504 16.1C63.0837 16.1 62.9337 16.1667 62.8004 16.3C62.7004 16.4 62.6504 16.5333 62.6504 16.7C62.6504 17.1333 62.8504 17.35 63.2504 17.35ZM68.1504 17.2C68.5837 17.2 68.8004 16.9833 68.8004 16.55C68.8004 16.15 68.5837 15.95 68.1504 15.95C67.7504 15.95 67.5504 16.15 67.5504 16.55C67.5504 16.9833 67.7504 17.2 68.1504 17.2ZM71.0504 20.35C71.2171 20.35 71.3504 20.3 71.4504 20.2C71.5837 20.0667 71.6504 19.9167 71.6504 19.75C71.6504 19.3167 71.4504 19.1 71.0504 19.1C70.6171 19.1 70.4004 19.3167 70.4004 19.75C70.4004 19.9167 70.4671 20.0667 70.6004 20.2C70.7337 20.3 70.8837 20.35 71.0504 20.35ZM71.6504 13.6C72.0837 13.6 72.3004 13.4 72.3004 13C72.3004 12.5667 72.0837 12.35 71.6504 12.35C71.2504 12.35 71.0504 12.5667 71.0504 13C71.0504 13.4 71.2504 13.6 71.6504 13.6ZM72.6004 23.6C72.6004 24 72.8171 24.2 73.2504 24.2C73.6504 24.2 73.8504 24 73.8504 23.6C73.8504 23.1667 73.6504 22.95 73.2504 22.95C72.8171 22.95 72.6004 23.1667 72.6004 23.6ZM73.9004 33.2C74.0671 33.2 74.2004 33.15 74.3004 33.05C74.4337 32.9167 74.5004 32.75 74.5004 32.55C74.5004 32.3833 74.4337 32.25 74.3004 32.15C74.2004 32.0167 74.0671 31.95 73.9004 31.95C73.4671 31.95 73.2504 32.15 73.2504 32.55C73.2504 32.9833 73.4671 33.2 73.9004 33.2ZM74.3504 28.8C74.7504 28.8 74.9504 28.5833 74.9504 28.15C74.9504 27.75 74.7504 27.55 74.3504 27.55C73.9504 27.55 73.7504 27.75 73.7504 28.15C73.7504 28.5833 73.9504 28.8 74.3504 28.8ZM104.15 30.45C104.15 32.6167 104.517 34.0167 105.25 34.65C105.35 34.7167 105.384 34.8 105.35 34.9C105.35 34.9667 105.267 35 105.1 35H80.4004C80.2337 35 80.1337 34.9667 80.1004 34.9C80.1004 34.8 80.1504 34.7167 80.2504 34.65C80.9837 34.0167 81.3504 32.6167 81.3504 30.45V28.2V5.4C81.3504 2.36667 80.6004 0.849999 79.1004 0.849999H105.1C105.267 0.849999 105.35 0.899999 105.35 1C105.384 1.1 105.35 1.18333 105.25 1.25C104.517 1.88333 104.15 3.26667 104.15 5.4V7.7V8.7C104.15 8.83333 104.1 8.91667 104 8.95C103.9 8.98333 103.817 8.93333 103.75 8.8C103.117 8.06667 101.734 7.7 99.6004 7.7H88.2004V9.95V14.5H95.0504C97.1837 14.5 98.5671 14.1333 99.2004 13.4C99.2671 13.3 99.3504 13.2667 99.4504 13.3C99.5504 13.3333 99.6004 13.4167 99.6004 13.55V14.5V16.8V21.35V22.35C99.6004 22.4833 99.5504 22.5667 99.4504 22.6C99.3504 22.6333 99.2671 22.6 99.2004 22.5C98.5337 21.7333 97.1504 21.35 95.0504 21.35H88.2004V23.6V28.2H99.6004C101.7 28.2 103.084 27.8167 103.75 27.05C103.817 26.95 103.9 26.9167 104 26.95C104.1 26.9833 104.15 27.0667 104.15 27.2V28.2V30.45ZM97.1004 17.45C96.7004 17.45 96.5004 17.6667 96.5004 18.1C96.5004 18.5 96.7004 18.7 97.1004 18.7C97.5337 18.7 97.7504 18.5 97.7504 18.1C97.7504 17.6667 97.5337 17.45 97.1004 17.45ZM101.45 3.55C101.284 3.55 101.134 3.61667 101 3.75C100.9 3.85 100.85 3.98333 100.85 4.15C100.85 4.31666 100.9 4.46666 101 4.6C101.134 4.73333 101.284 4.8 101.45 4.8C101.884 4.8 102.1 4.58333 102.1 4.15C102.1 3.75 101.884 3.55 101.45 3.55ZM97.4004 3.55C96.9671 3.55 96.7504 3.75 96.7504 4.15C96.7504 4.58333 96.9671 4.8 97.4004 4.8C97.5671 4.8 97.7004 4.73333 97.8004 4.6C97.9337 4.46666 98.0004 4.31666 98.0004 4.15C98.0004 3.98333 97.9337 3.85 97.8004 3.75C97.7004 3.61667 97.5671 3.55 97.4004 3.55ZM93.2004 3.55C92.7671 3.55 92.5504 3.75 92.5504 4.15C92.5504 4.58333 92.7671 4.8 93.2004 4.8C93.3671 4.8 93.5004 4.73333 93.6004 4.6C93.7337 4.46666 93.8004 4.31666 93.8004 4.15C93.8004 3.98333 93.7337 3.85 93.6004 3.75C93.5004 3.61667 93.3671 3.55 93.2004 3.55ZM88.9004 3.55C88.5004 3.55 88.3004 3.75 88.3004 4.15C88.3004 4.58333 88.5004 4.8 88.9004 4.8C89.3004 4.8 89.5004 4.58333 89.5004 4.15C89.5004 3.75 89.3004 3.55 88.9004 3.55ZM92.9004 17.45C92.5004 17.45 92.3004 17.6667 92.3004 18.1C92.3004 18.5 92.5004 18.7 92.9004 18.7C93.3337 18.7 93.5504 18.5 93.5504 18.1C93.5504 17.6667 93.3337 17.45 92.9004 17.45ZM88.8004 17.45C88.3671 17.45 88.1504 17.6667 88.1504 18.1C88.1504 18.5 88.3671 18.7 88.8004 18.7C88.9671 18.7 89.1004 18.65 89.2004 18.55C89.3337 18.4167 89.4004 18.2667 89.4004 18.1C89.4004 17.9333 89.3337 17.7833 89.2004 17.65C89.1004 17.5167 88.9671 17.45 88.8004 17.45ZM84.5504 32.65C84.9837 32.65 85.2004 32.45 85.2004 32.05C85.2004 31.6167 84.9837 31.4 84.5504 31.4C84.1504 31.4 83.9504 31.6167 83.9504 32.05C83.9504 32.45 84.1504 32.65 84.5504 32.65ZM84.5504 27.9C84.9837 27.9 85.2004 27.7 85.2004 27.3C85.2004 26.8667 84.9837 26.65 84.5504 26.65C84.1504 26.65 83.9504 26.8667 83.9504 27.3C83.9504 27.7 84.1504 27.9 84.5504 27.9ZM84.5504 23.35C84.9837 23.35 85.2004 23.1333 85.2004 22.7C85.2004 22.3 84.9837 22.1 84.5504 22.1C84.1504 22.1 83.9504 22.3 83.9504 22.7C83.9504 23.1333 84.1504 23.35 84.5504 23.35ZM84.5504 18.7C84.9837 18.7 85.2004 18.5 85.2004 18.1C85.2004 17.6667 84.9837 17.45 84.5504 17.45C84.1504 17.45 83.9504 17.6667 83.9504 18.1C83.9504 18.5 84.1504 18.7 84.5504 18.7ZM84.6004 14.05C85.0337 14.05 85.2504 13.8333 85.2504 13.4C85.2504 13 85.0337 12.8 84.6004 12.8C84.1671 12.8 83.9504 13 83.9504 13.4C83.9504 13.8333 84.1671 14.05 84.6004 14.05ZM83.9504 8.8C83.9504 9.2 84.1504 9.4 84.5504 9.4C84.9837 9.4 85.2004 9.2 85.2004 8.8C85.2004 8.36667 84.9837 8.15 84.5504 8.15C84.1504 8.15 83.9504 8.36667 83.9504 8.8ZM84.6004 4.8C85.0337 4.8 85.2504 4.58333 85.2504 4.15C85.2504 3.75 85.0337 3.55 84.6004 3.55C84.1671 3.55 83.9504 3.75 83.9504 4.15C83.9504 4.58333 84.1671 4.8 84.6004 4.8ZM88.7504 32.65C89.1837 32.65 89.4004 32.45 89.4004 32.05C89.4004 31.6167 89.1837 31.4 88.7504 31.4C88.3504 31.4 88.1504 31.6167 88.1504 32.05C88.1504 32.45 88.3504 32.65 88.7504 32.65ZM92.9004 32.65C93.0671 32.65 93.2004 32.6 93.3004 32.5C93.4337 32.3667 93.5004 32.2167 93.5004 32.05C93.5004 31.8833 93.4337 31.7333 93.3004 31.6C93.2004 31.4667 93.0671 31.4 92.9004 31.4C92.4671 31.4 92.2504 31.6167 92.2504 32.05C92.2504 32.45 92.4671 32.65 92.9004 32.65ZM97.1004 32.65C97.5004 32.65 97.7004 32.45 97.7004 32.05C97.7004 31.6167 97.5004 31.4 97.1004 31.4C96.6671 31.4 96.4504 31.6167 96.4504 32.05C96.4504 32.45 96.6671 32.65 97.1004 32.65ZM101.5 32.65C101.667 32.65 101.8 32.6 101.9 32.5C102.034 32.3667 102.1 32.2167 102.1 32.05C102.1 31.8833 102.034 31.7333 101.9 31.6C101.8 31.4667 101.667 31.4 101.5 31.4C101.067 31.4 100.85 31.6167 100.85 32.05C100.85 32.45 101.067 32.65 101.5 32.65ZM131.046 30.45C131.046 32.55 131.43 33.9333 132.196 34.6C132.296 34.6667 132.33 34.75 132.296 34.85C132.263 34.95 132.18 35 132.046 35H123.246C123.113 35 123.03 34.95 122.996 34.85C122.963 34.75 122.996 34.6667 123.096 34.6C123.696 34.1 124.046 33.1333 124.146 31.7C124.213 31.1 124.18 30.5667 124.046 30.1C123.946 29.6 123.713 29.1167 123.346 28.65L115.096 17.15V21.35V23.6V30.45C115.096 32.55 115.48 33.9333 116.246 34.6C116.346 34.6667 116.38 34.75 116.346 34.85C116.313 34.95 116.23 35 116.096 35H107.296C107.163 35 107.08 34.95 107.046 34.85C107.013 34.75 107.046 34.6667 107.146 34.6C107.913 33.9333 108.296 32.55 108.296 30.45V28.15V5.4C108.296 3.23333 107.913 1.85 107.146 1.25C107.046 1.15 107.013 1.06667 107.046 1C107.08 0.899999 107.163 0.849999 107.296 0.849999H116.096C116.23 0.849999 116.313 0.899999 116.346 1C116.38 1.06667 116.346 1.15 116.246 1.25C115.813 1.58333 115.496 2.21667 115.296 3.15C115.163 3.85 115.146 4.48333 115.246 5.05C115.38 5.58333 115.646 6.13333 116.046 6.7L124.246 18.15V14.5V9.95V5.4C124.246 3.23333 123.863 1.85 123.096 1.25C122.996 1.15 122.963 1.06667 122.996 1C123.03 0.899999 123.113 0.849999 123.246 0.849999H132.046C132.18 0.849999 132.263 0.899999 132.296 1C132.33 1.06667 132.296 1.15 132.196 1.25C131.43 1.85 131.046 3.23333 131.046 5.4V30.45ZM111.746 32.6C112.146 32.6 112.346 32.3833 112.346 31.95C112.346 31.5167 112.146 31.3 111.746 31.3C111.346 31.3 111.146 31.5167 111.146 31.95C111.146 32.3833 111.346 32.6 111.746 32.6ZM111.746 27.8C112.146 27.8 112.346 27.6 112.346 27.2C112.346 26.7667 112.146 26.55 111.746 26.55C111.346 26.55 111.146 26.7667 111.146 27.2C111.146 27.6 111.346 27.8 111.746 27.8ZM111.746 23.25C112.146 23.25 112.346 23.0333 112.346 22.6C112.346 22.4333 112.28 22.3 112.146 22.2C112.046 22.0667 111.913 22 111.746 22C111.58 22 111.43 22.0667 111.296 22.2C111.196 22.3 111.146 22.4333 111.146 22.6C111.146 23.0333 111.346 23.25 111.746 23.25ZM111.746 18.6C111.913 18.6 112.046 18.55 112.146 18.45C112.28 18.3167 112.346 18.1667 112.346 18C112.346 17.5667 112.146 17.35 111.746 17.35C111.346 17.35 111.146 17.5667 111.146 18C111.146 18.1667 111.196 18.3167 111.296 18.45C111.43 18.55 111.58 18.6 111.746 18.6ZM111.796 13.95C112.196 13.95 112.396 13.7333 112.396 13.3C112.396 12.9 112.196 12.7 111.796 12.7C111.363 12.7 111.146 12.9 111.146 13.3C111.146 13.7333 111.363 13.95 111.796 13.95ZM111.146 8.7C111.146 9.13333 111.346 9.35 111.746 9.35C112.146 9.35 112.346 9.13333 112.346 8.7C112.346 8.3 112.146 8.1 111.746 8.1C111.346 8.1 111.146 8.3 111.146 8.7ZM111.796 4.7C112.196 4.7 112.396 4.48333 112.396 4.05C112.396 3.88333 112.33 3.75 112.196 3.65C112.096 3.51666 111.963 3.45 111.796 3.45C111.63 3.45 111.48 3.51666 111.346 3.65C111.213 3.75 111.146 3.88333 111.146 4.05C111.146 4.48333 111.363 4.7 111.796 4.7ZM114.746 10.75C115.08 10.45 115.08 10.1333 114.746 9.8C114.68 9.76667 114.613 9.73333 114.546 9.7C114.513 9.66666 114.463 9.65 114.396 9.65L114.496 10.9C114.563 10.9 114.646 10.85 114.746 10.75ZM117.046 14.65C117.213 14.65 117.346 14.6 117.446 14.5C117.58 14.3667 117.646 14.2167 117.646 14.05C117.646 13.8833 117.58 13.75 117.446 13.65C117.346 13.5167 117.213 13.45 117.046 13.45C116.613 13.45 116.396 13.65 116.396 14.05C116.396 14.45 116.613 14.65 117.046 14.65ZM119.846 18.25C120.246 18.25 120.446 18.0333 120.446 17.6C120.446 17.4333 120.38 17.3 120.246 17.2C120.146 17.0667 120.013 17 119.846 17C119.68 17 119.53 17.0667 119.396 17.2C119.263 17.3 119.196 17.4333 119.196 17.6C119.196 18.0333 119.413 18.25 119.846 18.25ZM122.496 22.3C122.663 22.3 122.796 22.2333 122.896 22.1C123.03 21.9667 123.096 21.8167 123.096 21.65C123.096 21.4833 123.03 21.3333 122.896 21.2C122.796 21.0667 122.663 21 122.496 21C122.063 21 121.846 21.2167 121.846 21.65C121.846 22.0833 122.063 22.3 122.496 22.3ZM125.046 26.35C125.18 26.4833 125.313 26.55 125.446 26.55L125.346 25.3C125.246 25.3 125.146 25.35 125.046 25.45C124.746 25.75 124.746 26.05 125.046 26.35ZM127.746 32.25C128.146 32.25 128.346 32.0333 128.346 31.6C128.346 31.2 128.146 31 127.746 31C127.313 31 127.096 31.2 127.096 31.6C127.096 32.0333 127.313 32.25 127.746 32.25ZM127.746 27.45C128.146 27.45 128.346 27.25 128.346 26.85C128.346 26.4167 128.146 26.2 127.746 26.2C127.313 26.2 127.096 26.4167 127.096 26.85C127.096 27.25 127.313 27.45 127.746 27.45ZM127.746 22.9C127.913 22.9 128.046 22.85 128.146 22.75C128.28 22.6167 128.346 22.4667 128.346 22.3C128.346 21.8667 128.146 21.65 127.746 21.65C127.313 21.65 127.096 21.8667 127.096 22.3C127.096 22.4667 127.163 22.6167 127.296 22.75C127.43 22.85 127.58 22.9 127.746 22.9ZM127.746 18.25C128.146 18.25 128.346 18.05 128.346 17.65C128.346 17.2167 128.146 17 127.746 17C127.313 17 127.096 17.2167 127.096 17.65C127.096 18.05 127.313 18.25 127.746 18.25ZM127.796 13.6C127.963 13.6 128.096 13.5333 128.196 13.4C128.33 13.2667 128.396 13.1167 128.396 12.95C128.396 12.7833 128.33 12.65 128.196 12.55C128.096 12.4167 127.963 12.35 127.796 12.35C127.363 12.35 127.146 12.55 127.146 12.95C127.146 13.3833 127.363 13.6 127.796 13.6ZM127.096 8.35C127.096 8.78333 127.313 9 127.746 9C128.146 9 128.346 8.78333 128.346 8.35C128.346 7.95 128.146 7.75 127.746 7.75C127.313 7.75 127.096 7.95 127.096 8.35ZM127.796 4.35C127.963 4.35 128.096 4.3 128.196 4.2C128.33 4.06667 128.396 3.91667 128.396 3.75C128.396 3.58333 128.33 3.43333 128.196 3.3C128.096 3.16667 127.963 3.1 127.796 3.1C127.363 3.1 127.146 3.31667 127.146 3.75C127.146 3.91667 127.196 4.06667 127.296 4.2C127.43 4.3 127.596 4.35 127.796 4.35ZM148.151 1.15C149.717 1.15 151.184 1.45 152.551 2.05C153.951 2.65 155.167 3.46667 156.201 4.5C157.234 5.53333 158.051 6.75 158.651 8.15C159.251 9.51667 159.551 10.9833 159.551 12.55V23.95C159.551 25.5167 159.251 27 158.651 28.4C158.051 29.7667 157.234 30.9667 156.201 32C155.167 33.0333 153.951 33.85 152.551 34.45C151.184 35.0167 149.717 35.3 148.151 35.3H145.901C144.334 35.3 142.851 35.0167 141.451 34.45C140.084 33.85 138.884 33.0333 137.851 32C136.817 30.9667 136.001 29.7667 135.401 28.4C134.801 27 134.501 25.5167 134.501 23.95V12.55C134.501 10.9833 134.801 9.51667 135.401 8.15C136.001 6.75 136.817 5.53333 137.851 4.5C138.884 3.46667 140.084 2.65 141.451 2.05C142.851 1.45 144.334 1.15 145.901 1.15H148.151ZM156.651 14.75C156.651 14.5833 156.584 14.45 156.451 14.35C156.317 14.2167 156.167 14.15 156.001 14.15C155.834 14.15 155.684 14.2167 155.551 14.35C155.451 14.45 155.401 14.5833 155.401 14.75C155.401 14.9167 155.451 15.0667 155.551 15.2C155.684 15.3333 155.834 15.4 156.001 15.4C156.434 15.4 156.651 15.1833 156.651 14.75ZM156.651 18.95C156.651 18.55 156.434 18.35 156.001 18.35C155.601 18.35 155.401 18.55 155.401 18.95C155.401 19.3833 155.601 19.6 156.001 19.6C156.434 19.6 156.651 19.3833 156.651 18.95ZM155.401 9.55C155.234 9.55 155.084 9.61667 154.951 9.75C154.851 9.85 154.801 9.98333 154.801 10.15C154.801 10.3167 154.851 10.4667 154.951 10.6C155.084 10.7333 155.234 10.8 155.401 10.8C155.834 10.8 156.051 10.5833 156.051 10.15C156.051 9.75 155.834 9.55 155.401 9.55ZM149.401 4.1C149.234 4.1 149.084 4.16667 148.951 4.3C148.851 4.43333 148.801 4.58333 148.801 4.75C148.801 4.91667 148.851 5.06667 148.951 5.2C149.084 5.3 149.234 5.35 149.401 5.35C149.567 5.35 149.717 5.3 149.851 5.2C149.984 5.06667 150.051 4.91667 150.051 4.75C150.051 4.31667 149.834 4.1 149.401 4.1ZM144.351 3.8C143.951 3.8 143.751 4.01667 143.751 4.45C143.751 4.85 143.951 5.05 144.351 5.05C144.784 5.05 145.001 4.85 145.001 4.45C145.001 4.01667 144.784 3.8 144.351 3.8ZM138.151 25.35C138.584 25.35 138.801 25.15 138.801 24.75C138.801 24.3167 138.584 24.1 138.151 24.1C137.984 24.1 137.834 24.1667 137.701 24.3C137.601 24.4333 137.551 24.5833 137.551 24.75C137.551 24.9167 137.601 25.0667 137.701 25.2C137.834 25.3 137.984 25.35 138.151 25.35ZM137.401 20.05C137.401 20.45 137.601 20.65 138.001 20.65C138.434 20.65 138.651 20.45 138.651 20.05C138.651 19.6167 138.434 19.4 138.001 19.4C137.601 19.4 137.401 19.6167 137.401 20.05ZM138.151 16.35C138.584 16.35 138.801 16.1333 138.801 15.7C138.801 15.3 138.584 15.1 138.151 15.1C137.984 15.1 137.834 15.1667 137.701 15.3C137.601 15.4 137.551 15.5333 137.551 15.7C137.551 15.8667 137.601 16.0167 137.701 16.15C137.834 16.2833 137.984 16.35 138.151 16.35ZM138.501 11.5C138.901 11.5 139.101 11.2833 139.101 10.85C139.101 10.45 138.901 10.25 138.501 10.25C138.067 10.25 137.851 10.45 137.851 10.85C137.851 11.2833 138.067 11.5 138.501 11.5ZM139.751 29.5C140.151 29.5 140.351 29.3 140.351 28.9C140.351 28.4667 140.151 28.25 139.751 28.25C139.351 28.25 139.151 28.4667 139.151 28.9C139.151 29.3 139.351 29.5 139.751 29.5ZM140.351 7.1C140.551 7.1 140.701 7.05 140.801 6.95C140.934 6.81667 141.001 6.66667 141.001 6.5C141.001 6.06667 140.784 5.85 140.351 5.85C140.184 5.85 140.034 5.91667 139.901 6.05C139.801 6.15 139.751 6.3 139.751 6.5C139.751 6.66667 139.801 6.81667 139.901 6.95C140.034 7.05 140.184 7.1 140.351 7.1ZM143.751 32C144.151 32 144.351 31.8 144.351 31.4C144.351 31 144.151 30.8 143.751 30.8C143.317 30.8 143.101 31 143.101 31.4C143.101 31.8 143.317 32 143.751 32ZM148.151 32.45C148.551 32.45 148.751 32.25 148.751 31.85C148.751 31.45 148.551 31.25 148.151 31.25C147.717 31.25 147.501 31.45 147.501 31.85C147.501 32.25 147.717 32.45 148.151 32.45ZM148.151 28.5C149.417 28.5 150.484 28.0667 151.351 27.2C152.251 26.3 152.701 25.2167 152.701 23.95V19.4V17.1V12.55C152.701 11.2833 152.251 10.2167 151.351 9.35C150.484 8.45 149.417 8 148.151 8H145.901C145.267 8 144.667 8.11667 144.101 8.35C143.567 8.58333 143.084 8.91667 142.651 9.35C142.251 9.75 141.934 10.2333 141.701 10.8C141.467 11.3333 141.351 11.9167 141.351 12.55V17.1V19.4V23.95C141.351 24.5833 141.467 25.1833 141.701 25.75C141.934 26.2833 142.251 26.7667 142.651 27.2C143.084 27.6 143.567 27.9167 144.101 28.15C144.667 28.3833 145.267 28.5 145.901 28.5H148.151ZM152.201 31.4C152.367 31.4 152.517 31.35 152.651 31.25C152.784 31.1167 152.851 30.9667 152.851 30.8C152.851 30.3667 152.634 30.15 152.201 30.15C152.034 30.15 151.884 30.2167 151.751 30.35C151.651 30.45 151.601 30.6 151.601 30.8C151.601 30.9667 151.651 31.1167 151.751 31.25C151.884 31.35 152.034 31.4 152.201 31.4ZM153.501 6.9C153.934 6.9 154.151 6.68333 154.151 6.25C154.151 5.85 153.934 5.65 153.501 5.65C153.101 5.65 152.901 5.85 152.901 6.25C152.901 6.68333 153.101 6.9 153.501 6.9ZM155.051 27.7C155.451 27.7 155.651 27.4833 155.651 27.05C155.651 26.65 155.451 26.45 155.051 26.45C154.651 26.45 154.451 26.65 154.451 27.05C154.451 27.4833 154.651 27.7 155.051 27.7ZM156.151 23.75C156.584 23.75 156.801 23.55 156.801 23.15C156.801 22.75 156.584 22.55 156.151 22.55C155.751 22.55 155.551 22.75 155.551 23.15C155.551 23.55 155.751 23.75 156.151 23.75ZM192.338 30.45C192.338 32.55 192.721 33.9333 193.488 34.6C193.754 34.8667 193.704 35 193.338 35H184.538C184.404 35 184.321 34.9667 184.288 34.9C184.254 34.8 184.288 34.7 184.388 34.6C185.154 33.9333 185.538 32.55 185.538 30.45V21.6L181.588 31.2C180.954 32.7 180.821 33.85 181.188 34.65C181.288 34.8833 181.221 35 180.988 35H174.188C173.921 35 173.854 34.8833 173.988 34.65C174.388 33.9167 174.254 32.7667 173.588 31.2L169.588 21.5V29.1V29.15V30.45C169.588 32.5833 169.971 33.9667 170.738 34.6C170.838 34.7 170.871 34.8 170.838 34.9C170.804 34.9667 170.721 35 170.588 35H161.788C161.654 35 161.571 34.9667 161.538 34.9C161.504 34.8 161.538 34.7 161.638 34.6C162.371 33.9667 162.738 32.5833 162.738 30.45V5.4C162.738 3.26667 162.371 1.88333 161.638 1.25C161.538 1.18333 161.504 1.1 161.538 1C161.571 0.899999 161.654 0.849999 161.788 0.849999H167.338H170.588C170.721 0.849999 170.804 0.899999 170.838 1C170.871 1.1 170.838 1.18333 170.738 1.25C170.304 1.58333 169.988 2.16667 169.788 3C169.688 3.46666 169.738 3.91666 169.938 4.35L177.538 22.9L185.188 4.35C185.388 3.88333 185.421 3.43333 185.288 3C185.154 2.2 184.854 1.61667 184.388 1.25C184.288 1.18333 184.254 1.1 184.288 1C184.321 0.899999 184.404 0.849999 184.538 0.849999H190.088H193.338C193.504 0.849999 193.588 0.899999 193.588 1C193.621 1.1 193.588 1.18333 193.488 1.25C192.721 1.91667 192.338 3.3 192.338 5.4V7.7V9.95V11.85V19.05V28.2V30.45ZM165.988 32.3C166.388 32.3 166.588 32.0833 166.588 31.65C166.588 31.4833 166.521 31.35 166.388 31.25C166.288 31.1167 166.154 31.05 165.988 31.05C165.821 31.05 165.671 31.1167 165.538 31.25C165.404 31.35 165.338 31.4833 165.338 31.65C165.338 32.0833 165.554 32.3 165.988 32.3ZM165.988 27.55C166.388 27.55 166.588 27.3333 166.588 26.9C166.588 26.5 166.388 26.3 165.988 26.3C165.554 26.3 165.338 26.5 165.338 26.9C165.338 27.3333 165.554 27.55 165.988 27.55ZM165.988 22.95C166.388 22.95 166.588 22.75 166.588 22.35C166.588 21.9167 166.388 21.7 165.988 21.7C165.554 21.7 165.338 21.9167 165.338 22.35C165.338 22.75 165.554 22.95 165.988 22.95ZM165.988 18.35C166.388 18.35 166.588 18.1333 166.588 17.7C166.588 17.2667 166.388 17.05 165.988 17.05C165.554 17.05 165.338 17.2667 165.338 17.7C165.338 18.1333 165.554 18.35 165.988 18.35ZM166.038 13.65C166.204 13.65 166.338 13.5833 166.438 13.45C166.571 13.3167 166.638 13.1667 166.638 13C166.638 12.8333 166.571 12.7 166.438 12.6C166.338 12.4667 166.204 12.4 166.038 12.4C165.871 12.4 165.721 12.4667 165.588 12.6C165.454 12.7 165.388 12.8333 165.388 13C165.388 13.4333 165.604 13.65 166.038 13.65ZM165.338 8.4C165.338 8.83333 165.554 9.05 165.988 9.05C166.388 9.05 166.588 8.83333 166.588 8.4C166.588 8.23333 166.521 8.1 166.388 8C166.288 7.86667 166.154 7.8 165.988 7.8C165.821 7.8 165.671 7.86667 165.538 8C165.404 8.1 165.338 8.23333 165.338 8.4ZM166.038 4.4C166.204 4.4 166.338 4.35 166.438 4.25C166.571 4.11667 166.638 3.96667 166.638 3.8C166.638 3.63333 166.571 3.48333 166.438 3.35C166.338 3.21667 166.204 3.15 166.038 3.15C165.604 3.15 165.388 3.36667 165.388 3.8C165.388 4.2 165.604 4.4 166.038 4.4ZM168.688 10.4C169.088 10.4 169.288 10.1833 169.288 9.75C169.288 9.35 169.088 9.15 168.688 9.15C168.254 9.15 168.038 9.35 168.038 9.75C168.038 10.1833 168.254 10.4 168.688 10.4ZM170.088 14.7C170.254 14.7 170.404 14.65 170.538 14.55C170.671 14.4167 170.738 14.2667 170.738 14.1C170.738 13.6667 170.521 13.45 170.088 13.45C169.921 13.45 169.771 13.5167 169.638 13.65C169.538 13.7833 169.488 13.9333 169.488 14.1C169.488 14.2667 169.538 14.4167 169.638 14.55C169.771 14.65 169.921 14.7 170.088 14.7ZM171.688 18.9C172.088 18.9 172.288 18.7 172.288 18.3C172.288 17.9 172.088 17.7 171.688 17.7C171.288 17.7 171.088 17.9 171.088 18.3C171.088 18.7 171.288 18.9 171.688 18.9ZM173.588 23.15C173.988 23.15 174.188 22.95 174.188 22.55C174.188 22.15 173.988 21.95 173.588 21.95C173.154 21.95 172.938 22.15 172.938 22.55C172.938 22.95 173.154 23.15 173.588 23.15ZM175.488 27.35C175.888 27.35 176.088 27.15 176.088 26.75C176.088 26.3167 175.888 26.1 175.488 26.1C175.054 26.1 174.838 26.3167 174.838 26.75C174.838 27.15 175.054 27.35 175.488 27.35ZM177.338 31.65C177.771 31.65 177.988 31.45 177.988 31.05C177.988 30.65 177.771 30.45 177.338 30.45C177.171 30.45 177.021 30.5167 176.888 30.65C176.788 30.75 176.738 30.8833 176.738 31.05C176.738 31.2167 176.788 31.3667 176.888 31.5C177.021 31.6 177.171 31.65 177.338 31.65ZM179.438 27.3C179.871 27.3 180.088 27.1 180.088 26.7C180.088 26.3 179.871 26.1 179.438 26.1C179.271 26.1 179.121 26.1667 178.988 26.3C178.888 26.4 178.838 26.5333 178.838 26.7C178.838 26.8667 178.888 27.0167 178.988 27.15C179.121 27.25 179.271 27.3 179.438 27.3ZM181.288 23.15C181.688 23.15 181.888 22.9333 181.888 22.5C181.888 22.3333 181.821 22.2 181.688 22.1C181.588 21.9667 181.454 21.9 181.288 21.9C181.121 21.9 180.971 21.9667 180.838 22.1C180.738 22.2 180.688 22.3333 180.688 22.5C180.688 22.6667 180.738 22.8167 180.838 22.95C180.971 23.0833 181.121 23.15 181.288 23.15ZM183.138 18.9C183.304 18.9 183.438 18.8333 183.538 18.7C183.671 18.5667 183.738 18.4167 183.738 18.25C183.738 18.0833 183.671 17.95 183.538 17.85C183.438 17.7167 183.304 17.65 183.138 17.65C182.738 17.65 182.538 17.85 182.538 18.25C182.538 18.6833 182.738 18.9 183.138 18.9ZM184.988 14.35C185.154 14.35 185.288 14.3 185.388 14.2C185.521 14.0667 185.588 13.9167 185.588 13.75C185.588 13.5833 185.521 13.4333 185.388 13.3C185.288 13.1667 185.154 13.1 184.988 13.1C184.588 13.1 184.388 13.3167 184.388 13.75C184.388 14.15 184.588 14.35 184.988 14.35ZM186.788 10.3C187.188 10.3 187.388 10.0833 187.388 9.65C187.388 9.25 187.188 9.05 186.788 9.05C186.388 9.05 186.187 9.25 186.187 9.65C186.187 10.0833 186.388 10.3 186.788 10.3ZM189.187 32.3C189.621 32.3 189.838 32.1 189.838 31.7C189.838 31.3 189.621 31.1 189.187 31.1C188.788 31.1 188.588 31.3 188.588 31.7C188.588 32.1 188.788 32.3 189.187 32.3ZM189.187 27.55C189.621 27.55 189.838 27.3333 189.838 26.9C189.838 26.7333 189.771 26.6 189.638 26.5C189.504 26.3667 189.354 26.3 189.187 26.3C189.021 26.3 188.871 26.3667 188.738 26.5C188.638 26.6 188.588 26.7333 188.588 26.9C188.588 27.3333 188.788 27.55 189.187 27.55ZM189.187 23C189.621 23 189.838 22.7833 189.838 22.35C189.838 21.95 189.621 21.75 189.187 21.75C188.788 21.75 188.588 21.95 188.588 22.35C188.588 22.7833 188.788 23 189.187 23ZM189.187 18.35C189.621 18.35 189.838 18.1333 189.838 17.7C189.838 17.5333 189.771 17.4 189.638 17.3C189.504 17.1667 189.354 17.1 189.187 17.1C189.021 17.1 188.871 17.1667 188.738 17.3C188.638 17.4 188.588 17.5333 188.588 17.7C188.588 18.1333 188.788 18.35 189.187 18.35ZM189.238 13.65C189.404 13.65 189.538 13.6 189.638 13.5C189.771 13.3667 189.838 13.2167 189.838 13.05C189.838 12.8833 189.771 12.75 189.638 12.65C189.538 12.5167 189.404 12.45 189.238 12.45C188.804 12.45 188.588 12.65 188.588 13.05C188.588 13.45 188.804 13.65 189.238 13.65ZM188.588 8.45C188.588 8.85 188.788 9.05 189.187 9.05C189.621 9.05 189.838 8.85 189.838 8.45C189.838 8.05 189.621 7.85 189.187 7.85C188.788 7.85 188.588 8.05 188.588 8.45ZM189.238 4.45C189.404 4.45 189.538 4.38333 189.638 4.25C189.771 4.11667 189.838 3.96667 189.838 3.8C189.838 3.63333 189.771 3.5 189.638 3.4C189.538 3.26666 189.404 3.2 189.238 3.2C188.804 3.2 188.588 3.4 188.588 3.8C188.588 4.23333 188.804 4.45 189.238 4.45ZM203.489 30.45C203.489 32.5833 203.873 33.9667 204.639 34.6C204.706 34.6667 204.723 34.75 204.689 34.85C204.689 34.95 204.606 35 204.439 35H195.689C195.523 35 195.423 34.95 195.389 34.85C195.389 34.75 195.439 34.6667 195.539 34.6C196.273 33.9667 196.639 32.5833 196.639 30.45V5.4C196.639 3.23333 196.273 1.85 195.539 1.25C195.273 0.983332 195.323 0.849999 195.689 0.849999H201.189H203.489H204.439C204.773 0.849999 204.839 0.983332 204.639 1.25C203.873 1.81666 203.489 3.2 203.489 5.4V7.65V11.8V19.05V28.15V30.45ZM200.089 32.3C200.489 32.3 200.689 32.0833 200.689 31.65C200.689 31.25 200.489 31.05 200.089 31.05C199.656 31.05 199.439 31.25 199.439 31.65C199.439 32.0833 199.656 32.3 200.089 32.3ZM200.089 27.5C200.489 27.5 200.689 27.3 200.689 26.9C200.689 26.5 200.489 26.3 200.089 26.3C199.656 26.3 199.439 26.5 199.439 26.9C199.439 27.3 199.656 27.5 200.089 27.5ZM200.089 22.95C200.489 22.95 200.689 22.75 200.689 22.35C200.689 21.9167 200.489 21.7 200.089 21.7C199.656 21.7 199.439 21.9167 199.439 22.35C199.439 22.75 199.656 22.95 200.089 22.95ZM200.089 18.35C200.489 18.35 200.689 18.1333 200.689 17.7C200.689 17.3 200.489 17.1 200.089 17.1C199.656 17.1 199.439 17.3 199.439 17.7C199.439 18.1333 199.656 18.35 200.089 18.35ZM200.089 13.65C200.523 13.65 200.739 13.45 200.739 13.05C200.739 12.6167 200.523 12.4 200.089 12.4C199.923 12.4 199.773 12.4667 199.639 12.6C199.539 12.7 199.489 12.85 199.489 13.05C199.489 13.2167 199.539 13.3667 199.639 13.5C199.773 13.6 199.923 13.65 200.089 13.65ZM199.439 8.45C199.439 8.85 199.656 9.05 200.089 9.05C200.489 9.05 200.689 8.85 200.689 8.45C200.689 8.01667 200.489 7.8 200.089 7.8C199.656 7.8 199.439 8.01667 199.439 8.45ZM200.089 4.4C200.523 4.4 200.739 4.2 200.739 3.8C200.739 3.36667 200.523 3.15 200.089 3.15C199.923 3.15 199.773 3.21667 199.639 3.35C199.539 3.48333 199.489 3.63333 199.489 3.8C199.489 3.96667 199.539 4.11667 199.639 4.25C199.773 4.35 199.923 4.4 200.089 4.4ZM224.662 23.6H231.512C231.512 25.1667 231.212 26.65 230.612 28.05C230.012 29.4167 229.195 30.6167 228.162 31.65C227.128 32.6833 225.912 33.5 224.512 34.1C223.145 34.7 221.678 35 220.112 35H217.812C216.245 35 214.762 34.7 213.362 34.1C211.995 33.5 210.795 32.6833 209.762 31.65C208.728 30.6167 207.912 29.4167 207.312 28.05C206.745 26.65 206.462 25.1667 206.462 23.6V12.2C206.462 10.6333 206.745 9.16667 207.312 7.8C207.912 6.4 208.728 5.18333 209.762 4.15C210.795 3.11667 211.995 2.3 213.362 1.7C214.762 1.1 216.245 0.799999 217.812 0.799999H220.112C221.678 0.799999 223.145 1.1 224.512 1.7C225.912 2.3 227.128 3.11667 228.162 4.15C229.195 5.18333 230.012 6.4 230.612 7.8C231.212 9.16667 231.512 10.6333 231.512 12.2H224.662H223.412C223.145 12.2 223.095 12.0833 223.262 11.85C223.828 11.0833 223.795 10.15 223.162 9.05C223.028 8.88333 222.895 8.73333 222.762 8.6C222.628 8.43333 222.462 8.3 222.262 8.2C221.628 7.83333 220.912 7.65 220.112 7.65H217.812C216.545 7.65 215.462 8.1 214.562 9C213.695 9.86667 213.262 10.9333 213.262 12.2V16.75V19V23.6C213.262 24.8667 213.695 25.95 214.562 26.85C215.462 27.7167 216.545 28.15 217.812 28.15H220.112C220.512 28.15 220.878 28.1 221.212 28C221.545 27.9 221.895 27.7667 222.262 27.6C222.595 27.4333 222.895 27.1333 223.162 26.7C223.795 25.6333 223.828 24.7167 223.262 23.95C223.095 23.7167 223.145 23.6 223.412 23.6H224.662ZM226.962 8.6C226.562 8.6 226.362 8.81667 226.362 9.25C226.362 9.65 226.562 9.85 226.962 9.85C227.362 9.85 227.562 9.65 227.562 9.25C227.562 8.81667 227.362 8.6 226.962 8.6ZM223.862 4.75C223.695 4.75 223.545 4.81667 223.412 4.95C223.312 5.08333 223.262 5.23333 223.262 5.4C223.262 5.56667 223.312 5.71667 223.412 5.85C223.545 5.95 223.695 6 223.862 6C224.295 6 224.512 5.8 224.512 5.4C224.512 4.96667 224.295 4.75 223.862 4.75ZM219.462 3.55C219.295 3.55 219.145 3.61667 219.012 3.75C218.912 3.85 218.862 3.98333 218.862 4.15C218.862 4.58333 219.062 4.8 219.462 4.8C219.862 4.8 220.062 4.58333 220.062 4.15C220.062 3.98333 219.995 3.85 219.862 3.75C219.762 3.61667 219.628 3.55 219.462 3.55ZM214.962 4.3C214.528 4.3 214.312 4.51667 214.312 4.95C214.312 5.35 214.528 5.55 214.962 5.55C215.128 5.55 215.262 5.5 215.362 5.4C215.495 5.26667 215.562 5.11667 215.562 4.95C215.562 4.78333 215.495 4.63333 215.362 4.5C215.262 4.36667 215.128 4.3 214.962 4.3ZM210.162 11.75C209.995 11.75 209.845 11.8167 209.712 11.95C209.612 12.05 209.562 12.1833 209.562 12.35C209.562 12.5167 209.612 12.6667 209.712 12.8C209.845 12.9333 209.995 13 210.162 13C210.595 13 210.812 12.7833 210.812 12.35C210.812 12.1833 210.745 12.05 210.612 11.95C210.478 11.8167 210.328 11.75 210.162 11.75ZM210.162 16.3C209.995 16.3 209.845 16.3667 209.712 16.5C209.612 16.6333 209.562 16.7833 209.562 16.95C209.562 17.1167 209.612 17.2667 209.712 17.4C209.845 17.5 209.995 17.55 210.162 17.55C210.595 17.55 210.812 17.35 210.812 16.95C210.812 16.5167 210.595 16.3 210.162 16.3ZM209.562 21.55C209.562 21.7167 209.612 21.8667 209.712 22C209.845 22.1 209.995 22.15 210.162 22.15C210.595 22.15 210.812 21.95 210.812 21.55C210.812 21.1167 210.595 20.9 210.162 20.9C209.995 20.9 209.845 20.9667 209.712 21.1C209.612 21.2333 209.562 21.3833 209.562 21.55ZM210.612 27C211.045 27 211.262 26.7833 211.262 26.35C211.262 26.1833 211.195 26.05 211.062 25.95C210.928 25.8167 210.778 25.75 210.612 25.75C210.445 25.75 210.295 25.8167 210.162 25.95C210.062 26.05 210.012 26.1833 210.012 26.35C210.012 26.5167 210.062 26.6667 210.162 26.8C210.295 26.9333 210.445 27 210.612 27ZM211.162 8.65C211.562 8.65 211.762 8.43333 211.762 8C211.762 7.6 211.562 7.4 211.162 7.4C210.728 7.4 210.512 7.6 210.512 8C210.512 8.43333 210.728 8.65 211.162 8.65ZM213.062 30.85C213.462 30.85 213.662 30.6333 213.662 30.2C213.662 30.0333 213.595 29.9 213.462 29.8C213.362 29.6667 213.228 29.6 213.062 29.6C212.895 29.6 212.745 29.6667 212.612 29.8C212.478 29.9 212.412 30.0333 212.412 30.2C212.412 30.6333 212.628 30.85 213.062 30.85ZM217.562 32.3C217.962 32.3 218.162 32.0833 218.162 31.65C218.162 31.25 217.962 31.05 217.562 31.05C217.162 31.05 216.962 31.25 216.962 31.65C216.962 32.0833 217.162 32.3 217.562 32.3ZM222.712 31.65C223.145 31.65 223.362 31.45 223.362 31.05C223.362 30.65 223.145 30.45 222.712 30.45C222.545 30.45 222.395 30.5167 222.262 30.65C222.162 30.75 222.112 30.8833 222.112 31.05C222.112 31.2167 222.162 31.3667 222.262 31.5C222.395 31.6 222.545 31.65 222.712 31.65ZM226.812 27.65C226.378 27.65 226.162 27.85 226.162 28.25C226.162 28.65 226.378 28.85 226.812 28.85C227.212 28.85 227.412 28.65 227.412 28.25C227.412 27.85 227.212 27.65 226.812 27.65ZM248.322 14.55C249.755 14.55 251.089 14.8167 252.322 15.35C253.555 15.8833 254.639 16.6167 255.572 17.55C256.505 18.4833 257.239 19.5667 257.772 20.8C258.305 22.0333 258.572 23.3667 258.572 24.8C258.572 26.2 258.305 27.5333 257.772 28.8C257.239 30.0333 256.505 31.1167 255.572 32.05C254.639 32.95 253.555 33.6667 252.322 34.2C251.089 34.7333 249.755 35 248.322 35H246.072H243.772C242.372 35 241.039 34.7333 239.772 34.2C238.539 33.6667 237.455 32.95 236.522 32.05C235.622 31.1167 234.905 30.0333 234.372 28.8C233.839 27.5333 233.572 26.2 233.572 24.8H240.372H241.322C241.589 24.8 241.672 24.9 241.572 25.1C241.205 25.7667 241.172 26.35 241.472 26.85C241.772 27.35 242.089 27.7 242.422 27.9C242.855 28.1 243.305 28.2 243.772 28.2H246.072H248.322C249.289 28.2 250.105 27.8667 250.772 27.2C251.439 26.5333 251.772 25.7333 251.772 24.8C251.772 23.8333 251.439 23.0167 250.772 22.35C250.105 21.6833 249.289 21.35 248.322 21.35H246.072H243.772C242.372 21.35 241.039 21.0833 239.772 20.55C238.539 20.0167 237.455 19.2833 236.522 18.35C235.622 17.4167 234.905 16.3333 234.372 15.1C233.839 13.8333 233.572 12.5 233.572 11.1C233.572 9.7 233.839 8.38333 234.372 7.15C234.905 5.88333 235.622 4.78333 236.522 3.85C237.455 2.91667 238.539 2.18333 239.772 1.65C241.039 1.11666 242.372 0.849999 243.772 0.849999H246.072H248.322C249.755 0.849999 251.089 1.11666 252.322 1.65C253.555 2.18333 254.639 2.91667 255.572 3.85C256.505 4.78333 257.239 5.88333 257.772 7.15C258.305 8.38333 258.572 9.7 258.572 11.1H251.772H250.772C250.505 11.1 250.439 11 250.572 10.8C250.905 10.1667 250.922 9.58333 250.622 9.05C250.355 8.51666 250.055 8.16667 249.722 8C249.255 7.8 248.789 7.7 248.322 7.7H246.072H243.772C242.839 7.7 242.039 8.03333 241.372 8.7C240.705 9.36666 240.372 10.1667 240.372 11.1C240.372 12.0667 240.705 12.8833 241.372 13.55C242.039 14.2167 242.839 14.55 243.772 14.55H246.072H248.322ZM254.772 8.1C254.605 8.1 254.455 8.16666 254.322 8.3C254.222 8.4 254.172 8.53333 254.172 8.7C254.172 9.13333 254.372 9.35 254.772 9.35C255.205 9.35 255.422 9.13333 255.422 8.7C255.422 8.53333 255.355 8.4 255.222 8.3C255.089 8.16666 254.939 8.1 254.772 8.1ZM251.522 4.3C251.122 4.3 250.922 4.51667 250.922 4.95C250.922 5.35 251.122 5.55 251.522 5.55C251.922 5.55 252.122 5.35 252.122 4.95C252.122 4.51667 251.922 4.3 251.522 4.3ZM246.922 3.45C246.522 3.45 246.322 3.65 246.322 4.05C246.322 4.45 246.522 4.65 246.922 4.65C247.355 4.65 247.572 4.45 247.572 4.05C247.572 3.65 247.355 3.45 246.922 3.45ZM242.172 3.45C241.739 3.45 241.522 3.65 241.522 4.05C241.522 4.45 241.739 4.65 242.172 4.65C242.572 4.65 242.772 4.45 242.772 4.05C242.772 3.65 242.572 3.45 242.172 3.45ZM238.372 6.2C237.972 6.2 237.772 6.41667 237.772 6.85C237.772 7.01667 237.822 7.16667 237.922 7.3C238.055 7.4 238.205 7.45 238.372 7.45C238.539 7.45 238.672 7.4 238.772 7.3C238.905 7.16667 238.972 7.01667 238.972 6.85C238.972 6.41667 238.772 6.2 238.372 6.2ZM237.422 11.75C237.855 11.75 238.072 11.55 238.072 11.15C238.072 10.7167 237.855 10.5 237.422 10.5C237.255 10.5 237.105 10.5667 236.972 10.7C236.872 10.8333 236.822 10.9833 236.822 11.15C236.822 11.3167 236.872 11.4667 236.972 11.6C237.105 11.7 237.255 11.75 237.422 11.75ZM238.972 16.05C239.405 16.05 239.622 15.8333 239.622 15.4C239.622 15 239.405 14.8 238.972 14.8C238.805 14.8 238.655 14.8667 238.522 15C238.422 15.1 238.372 15.2333 238.372 15.4C238.372 15.5667 238.422 15.7167 238.522 15.85C238.655 15.9833 238.805 16.05 238.972 16.05ZM242.772 18.55C243.205 18.55 243.422 18.3333 243.422 17.9C243.422 17.7333 243.355 17.6 243.222 17.5C243.089 17.3667 242.939 17.3 242.772 17.3C242.605 17.3 242.455 17.3667 242.322 17.5C242.222 17.6 242.172 17.7333 242.172 17.9C242.172 18.3333 242.372 18.55 242.772 18.55ZM247.572 18.55C247.739 18.55 247.872 18.5 247.972 18.4C248.105 18.2667 248.172 18.1 248.172 17.9C248.172 17.7333 248.105 17.6 247.972 17.5C247.872 17.3667 247.739 17.3 247.572 17.3C247.405 17.3 247.255 17.3667 247.122 17.5C246.989 17.6 246.922 17.7333 246.922 17.9C246.922 18.3333 247.139 18.55 247.572 18.55ZM238.372 28.5C238.539 28.5 238.689 28.45 238.822 28.35C238.955 28.2167 239.022 28.0667 239.022 27.9C239.022 27.4667 238.805 27.25 238.372 27.25C238.205 27.25 238.055 27.3167 237.922 27.45C237.822 27.5833 237.772 27.7333 237.772 27.9C237.772 28.0667 237.822 28.2167 237.922 28.35C238.055 28.45 238.205 28.5 238.372 28.5ZM242.022 31.4C242.455 31.4 242.672 31.1833 242.672 30.75C242.672 30.35 242.455 30.15 242.022 30.15C241.622 30.15 241.422 30.35 241.422 30.75C241.422 31.1833 241.622 31.4 242.022 31.4ZM246.772 31.7C246.939 31.7 247.089 31.65 247.222 31.55C247.355 31.4167 247.422 31.2667 247.422 31.1C247.422 30.6667 247.205 30.45 246.772 30.45C246.372 30.45 246.172 30.6667 246.172 31.1C246.172 31.2667 246.222 31.4167 246.322 31.55C246.455 31.65 246.605 31.7 246.772 31.7ZM251.822 31.1C252.255 31.1 252.472 30.8833 252.472 30.45C252.472 30.05 252.255 29.85 251.822 29.85C251.422 29.85 251.222 30.05 251.222 30.45C251.222 30.8833 251.422 31.1 251.822 31.1ZM252.122 19.25C252.555 19.25 252.772 19.05 252.772 18.65C252.772 18.25 252.555 18.05 252.122 18.05C251.955 18.05 251.805 18.1167 251.672 18.25C251.572 18.35 251.522 18.4833 251.522 18.65C251.522 18.8167 251.572 18.9667 251.672 19.1C251.805 19.2 251.955 19.25 252.122 19.25ZM254.772 27.3C254.939 27.3 255.089 27.25 255.222 27.15C255.355 27.0167 255.422 26.8667 255.422 26.7C255.422 26.2667 255.205 26.05 254.772 26.05C254.372 26.05 254.172 26.2667 254.172 26.7C254.172 26.8667 254.222 27.0167 254.322 27.15C254.455 27.25 254.605 27.3 254.772 27.3ZM254.772 22.6C255.205 22.6 255.422 22.4 255.422 22C255.422 21.5667 255.205 21.35 254.772 21.35C254.372 21.35 254.172 21.5667 254.172 22C254.172 22.4 254.372 22.6 254.772 22.6Z" fill="#CCA354"/>
</svg>
