<svg width="259" height="36" viewBox="0 0 259 36" fill="none" xmlns="http://www.w3.org/2000/svg">
<path d="M25.2904 0.849999C25.4238 0.849999 25.5071 0.899999 25.5404 1C25.5738 1.06667 25.5238 1.15 25.3904 1.25C24.6571 1.91667 24.2904 3.3 24.2904 5.4V7.65V8.65C24.2904 8.78333 24.2404 8.86667 24.1404 8.9C24.0404 8.93333 23.9571 8.9 23.8904 8.8C23.2238 8.03333 21.8404 7.65 19.7404 7.65H16.2904V11.8V19.05V27.85V30.45C16.2904 32.5833 16.6571 33.9667 17.3904 34.6C17.4904 34.6667 17.5238 34.75 17.4904 34.85C17.4904 34.95 17.4071 35 17.2404 35H8.44043C8.3071 35 8.22376 34.95 8.19043 34.85C8.1571 34.75 8.2071 34.6667 8.34043 34.6C9.07376 33.9333 9.44043 32.55 9.44043 30.45V7.65H5.99043C3.82376 7.65 2.44043 8.03333 1.84043 8.8C1.74043 8.9 1.64043 8.93333 1.54043 8.9C1.47376 8.86667 1.44043 8.78333 1.44043 8.65V7.65V5.4C1.44043 3.3 1.0571 1.91667 0.29043 1.25C0.19043 1.15 0.157096 1.06667 0.19043 1C0.223763 0.899999 0.307096 0.849999 0.44043 0.849999H1.44043H8.24043H13.9904H18.5404H24.2904H25.2904ZM4.14043 4.5C4.57376 4.5 4.79043 4.28333 4.79043 3.85C4.79043 3.45 4.57376 3.25 4.14043 3.25C3.74043 3.25 3.54043 3.45 3.54043 3.85C3.54043 4.28333 3.74043 4.5 4.14043 4.5ZM8.54043 4.5C8.94043 4.5 9.14043 4.28333 9.14043 3.85C9.14043 3.45 8.94043 3.25 8.54043 3.25C8.1071 3.25 7.89043 3.45 7.89043 3.85C7.89043 4.28333 8.1071 4.5 8.54043 4.5ZM12.8904 32.35C13.0571 32.35 13.2071 32.3 13.3404 32.2C13.4738 32.0667 13.5404 31.9167 13.5404 31.75C13.5404 31.3167 13.3238 31.1 12.8904 31.1C12.4904 31.1 12.2904 31.3167 12.2904 31.75C12.2904 31.9167 12.3404 32.0667 12.4404 32.2C12.5738 32.3 12.7238 32.35 12.8904 32.35ZM12.8904 27.6C13.0571 27.6 13.2071 27.55 13.3404 27.45C13.4738 27.3167 13.5404 27.1667 13.5404 27C13.5404 26.5667 13.3238 26.35 12.8904 26.35C12.4904 26.35 12.2904 26.5667 12.2904 27C12.2904 27.1667 12.3404 27.3167 12.4404 27.45C12.5738 27.55 12.7238 27.6 12.8904 27.6ZM12.8904 23C13.3238 23 13.5404 22.8 13.5404 22.4C13.5404 22 13.3238 21.8 12.8904 21.8C12.4904 21.8 12.2904 22 12.2904 22.4C12.2904 22.8 12.4904 23 12.8904 23ZM12.8904 18.4C13.0571 18.4 13.2071 18.35 13.3404 18.25C13.4738 18.1167 13.5404 17.9667 13.5404 17.8C13.5404 17.3667 13.3238 17.15 12.8904 17.15C12.4904 17.15 12.2904 17.3667 12.2904 17.8C12.2904 17.9667 12.3404 18.1167 12.4404 18.25C12.5738 18.35 12.7238 18.4 12.8904 18.4ZM12.9404 13.7C13.3404 13.7 13.5404 13.5 13.5404 13.1C13.5404 12.6667 13.3404 12.45 12.9404 12.45C12.5071 12.45 12.2904 12.6667 12.2904 13.1C12.2904 13.5 12.5071 13.7 12.9404 13.7ZM12.2904 8.5C12.2904 8.9 12.4904 9.1 12.8904 9.1C13.3238 9.1 13.5404 8.9 13.5404 8.5C13.5404 8.06666 13.3238 7.85 12.8904 7.85C12.4904 7.85 12.2904 8.06666 12.2904 8.5ZM12.9404 4.5C13.3404 4.5 13.5404 4.28333 13.5404 3.85C13.5404 3.45 13.3404 3.25 12.9404 3.25C12.5071 3.25 12.2904 3.45 12.2904 3.85C12.2904 4.28333 12.5071 4.5 12.9404 4.5ZM17.2904 4.5C17.6904 4.5 17.8904 4.28333 17.8904 3.85C17.8904 3.45 17.6904 3.25 17.2904 3.25C16.8571 3.25 16.6404 3.45 16.6404 3.85C16.6404 4.28333 16.8571 4.5 17.2904 4.5ZM21.6904 4.5C22.0904 4.5 22.2904 4.28333 22.2904 3.85C22.2904 3.45 22.0904 3.25 21.6904 3.25C21.2571 3.25 21.0404 3.45 21.0404 3.85C21.0404 4.28333 21.2571 4.5 21.6904 4.5ZM41.0541 1.15C42.6208 1.15 44.0874 1.45 45.4541 2.05C46.8541 2.65 48.0708 3.46667 49.1041 4.5C50.1374 5.53333 50.9541 6.75 51.5541 8.15C52.1541 9.51667 52.4541 10.9833 52.4541 12.55V23.95C52.4541 25.5167 52.1541 27 51.5541 28.4C50.9541 29.7667 50.1374 30.9667 49.1041 32C48.0708 33.0333 46.8541 33.85 45.4541 34.45C44.0874 35.0167 42.6208 35.3 41.0541 35.3H38.8041C37.2374 35.3 35.7541 35.0167 34.3541 34.45C32.9874 33.85 31.7874 33.0333 30.7541 32C29.7208 30.9667 28.9041 29.7667 28.3041 28.4C27.7041 27 27.4041 25.5167 27.4041 23.95V12.55C27.4041 10.9833 27.7041 9.51667 28.3041 8.15C28.9041 6.75 29.7208 5.53333 30.7541 4.5C31.7874 3.46667 32.9874 2.65 34.3541 2.05C35.7541 1.45 37.2374 1.15 38.8041 1.15H41.0541ZM49.5541 14.75C49.5541 14.5833 49.4874 14.45 49.3541 14.35C49.2208 14.2167 49.0708 14.15 48.9041 14.15C48.7374 14.15 48.5874 14.2167 48.4541 14.35C48.3541 14.45 48.3041 14.5833 48.3041 14.75C48.3041 14.9167 48.3541 15.0667 48.4541 15.2C48.5874 15.3333 48.7374 15.4 48.9041 15.4C49.3374 15.4 49.5541 15.1833 49.5541 14.75ZM49.5541 18.95C49.5541 18.55 49.3374 18.35 48.9041 18.35C48.5041 18.35 48.3041 18.55 48.3041 18.95C48.3041 19.3833 48.5041 19.6 48.9041 19.6C49.3374 19.6 49.5541 19.3833 49.5541 18.95ZM48.3041 9.55C48.1374 9.55 47.9874 9.61667 47.8541 9.75C47.7541 9.85 47.7041 9.98333 47.7041 10.15C47.7041 10.3167 47.7541 10.4667 47.8541 10.6C47.9874 10.7333 48.1374 10.8 48.3041 10.8C48.7374 10.8 48.9541 10.5833 48.9541 10.15C48.9541 9.75 48.7374 9.55 48.3041 9.55ZM42.3041 4.1C42.1374 4.1 41.9874 4.16667 41.8541 4.3C41.7541 4.43333 41.7041 4.58333 41.7041 4.75C41.7041 4.91667 41.7541 5.06667 41.8541 5.2C41.9874 5.3 42.1374 5.35 42.3041 5.35C42.4708 5.35 42.6208 5.3 42.7541 5.2C42.8874 5.06667 42.9541 4.91667 42.9541 4.75C42.9541 4.31667 42.7374 4.1 42.3041 4.1ZM37.2541 3.8C36.8541 3.8 36.6541 4.01667 36.6541 4.45C36.6541 4.85 36.8541 5.05 37.2541 5.05C37.6874 5.05 37.9041 4.85 37.9041 4.45C37.9041 4.01667 37.6874 3.8 37.2541 3.8ZM31.0541 25.35C31.4874 25.35 31.7041 25.15 31.7041 24.75C31.7041 24.3167 31.4874 24.1 31.0541 24.1C30.8874 24.1 30.7374 24.1667 30.6041 24.3C30.5041 24.4333 30.4541 24.5833 30.4541 24.75C30.4541 24.9167 30.5041 25.0667 30.6041 25.2C30.7374 25.3 30.8874 25.35 31.0541 25.35ZM30.3041 20.05C30.3041 20.45 30.5041 20.65 30.9041 20.65C31.3374 20.65 31.5541 20.45 31.5541 20.05C31.5541 19.6167 31.3374 19.4 30.9041 19.4C30.5041 19.4 30.3041 19.6167 30.3041 20.05ZM31.0541 16.35C31.4874 16.35 31.7041 16.1333 31.7041 15.7C31.7041 15.3 31.4874 15.1 31.0541 15.1C30.8874 15.1 30.7374 15.1667 30.6041 15.3C30.5041 15.4 30.4541 15.5333 30.4541 15.7C30.4541 15.8667 30.5041 16.0167 30.6041 16.15C30.7374 16.2833 30.8874 16.35 31.0541 16.35ZM31.4041 11.5C31.8041 11.5 32.0041 11.2833 32.0041 10.85C32.0041 10.45 31.8041 10.25 31.4041 10.25C30.9708 10.25 30.7541 10.45 30.7541 10.85C30.7541 11.2833 30.9708 11.5 31.4041 11.5ZM32.6541 29.5C33.0541 29.5 33.2541 29.3 33.2541 28.9C33.2541 28.4667 33.0541 28.25 32.6541 28.25C32.2541 28.25 32.0541 28.4667 32.0541 28.9C32.0541 29.3 32.2541 29.5 32.6541 29.5ZM33.2541 7.1C33.4541 7.1 33.6041 7.05 33.7041 6.95C33.8374 6.81667 33.9041 6.66667 33.9041 6.5C33.9041 6.06667 33.6874 5.85 33.2541 5.85C33.0874 5.85 32.9374 5.91667 32.8041 6.05C32.7041 6.15 32.6541 6.3 32.6541 6.5C32.6541 6.66667 32.7041 6.81667 32.8041 6.95C32.9374 7.05 33.0874 7.1 33.2541 7.1ZM36.6541 32C37.0541 32 37.2541 31.8 37.2541 31.4C37.2541 31 37.0541 30.8 36.6541 30.8C36.2208 30.8 36.0041 31 36.0041 31.4C36.0041 31.8 36.2208 32 36.6541 32ZM41.0541 32.45C41.4541 32.45 41.6541 32.25 41.6541 31.85C41.6541 31.45 41.4541 31.25 41.0541 31.25C40.6208 31.25 40.4041 31.45 40.4041 31.85C40.4041 32.25 40.6208 32.45 41.0541 32.45ZM41.0541 28.5C42.3208 28.5 43.3874 28.0667 44.2541 27.2C45.1541 26.3 45.6041 25.2167 45.6041 23.95V19.4V17.1V12.55C45.6041 11.2833 45.1541 10.2167 44.2541 9.35C43.3874 8.45 42.3208 8 41.0541 8H38.8041C38.1708 8 37.5708 8.11667 37.0041 8.35C36.4708 8.58333 35.9874 8.91667 35.5541 9.35C35.1541 9.75 34.8374 10.2333 34.6041 10.8C34.3708 11.3333 34.2541 11.9167 34.2541 12.55V17.1V19.4V23.95C34.2541 24.5833 34.3708 25.1833 34.6041 25.75C34.8374 26.2833 35.1541 26.7667 35.5541 27.2C35.9874 27.6 36.4708 27.9167 37.0041 28.15C37.5708 28.3833 38.1708 28.5 38.8041 28.5H41.0541ZM45.1041 31.4C45.2708 31.4 45.4208 31.35 45.5541 31.25C45.6874 31.1167 45.7541 30.9667 45.7541 30.8C45.7541 30.3667 45.5374 30.15 45.1041 30.15C44.9374 30.15 44.7874 30.2167 44.6541 30.35C44.5541 30.45 44.5041 30.6 44.5041 30.8C44.5041 30.9667 44.5541 31.1167 44.6541 31.25C44.7874 31.35 44.9374 31.4 45.1041 31.4ZM46.4041 6.9C46.8374 6.9 47.0541 6.68333 47.0541 6.25C47.0541 5.85 46.8374 5.65 46.4041 5.65C46.0041 5.65 45.8041 5.85 45.8041 6.25C45.8041 6.68333 46.0041 6.9 46.4041 6.9ZM47.9541 27.7C48.3541 27.7 48.5541 27.4833 48.5541 27.05C48.5541 26.65 48.3541 26.45 47.9541 26.45C47.5541 26.45 47.3541 26.65 47.3541 27.05C47.3541 27.4833 47.5541 27.7 47.9541 27.7ZM49.0541 23.75C49.4874 23.75 49.7041 23.55 49.7041 23.15C49.7041 22.75 49.4874 22.55 49.0541 22.55C48.6541 22.55 48.4541 22.75 48.4541 23.15C48.4541 23.55 48.6541 23.75 49.0541 23.75ZM77.0908 30.45C77.0908 32.55 77.4742 33.9333 78.2408 34.6C78.3408 34.6667 78.3742 34.75 78.3408 34.85C78.3075 34.95 78.2242 35 78.0908 35H69.2908C69.1242 35 69.0242 34.95 68.9908 34.85C68.9908 34.75 69.0408 34.6667 69.1408 34.6C69.9075 33.9333 70.2908 32.55 70.2908 30.45V28.15V27.05C70.2908 26.1167 70.1075 25.2333 69.7408 24.4C69.3742 23.5667 68.8742 22.8333 68.2408 22.2C67.6408 21.5667 66.9242 21.0833 66.0908 20.75C65.2575 20.3833 64.3742 20.2 63.4408 20.2H62.2908V23.6V28.15V30.45C62.2908 32.55 62.6575 33.9333 63.3908 34.6C63.5242 34.6667 63.5742 34.75 63.5408 34.85C63.5075 34.95 63.4242 35 63.2908 35H62.2908H60.0408H54.4908C54.3242 35 54.2242 34.95 54.1908 34.85C54.1908 34.75 54.2408 34.6667 54.3408 34.6C55.0742 33.9667 55.4408 32.5833 55.4408 30.45V5.4C55.4408 3.23333 55.0742 1.85 54.3408 1.25C54.0742 0.983332 54.1242 0.849999 54.4908 0.849999H63.2908C63.4242 0.849999 63.5075 0.899999 63.5408 1C63.5742 1.06667 63.5242 1.15 63.3908 1.25C62.6575 1.88333 62.2908 3.26667 62.2908 5.4V8V13.35H63.4408C64.3742 13.35 65.2575 13.1833 66.0908 12.85C66.9242 12.4833 67.6408 12 68.2408 11.4C68.8742 10.7667 69.3742 10.0333 69.7408 9.2C70.1075 8.36667 70.2908 7.48333 70.2908 6.55V5.4C70.2908 3.23333 69.9075 1.85 69.1408 1.25C68.8742 0.983332 68.9242 0.849999 69.2908 0.849999H78.0908C78.2242 0.849999 78.3075 0.899999 78.3408 1C78.3742 1.06667 78.3408 1.15 78.2408 1.25C77.4742 1.85 77.0908 3.23333 77.0908 5.4V6.55C77.0908 8.51666 76.6908 10.4 75.8908 12.2C75.0908 13.9667 73.9408 15.4833 72.4408 16.75C73.9408 18.0833 75.0908 19.6333 75.8908 21.4C76.6908 23.1667 77.0908 25.05 77.0908 27.05V28.15V30.45ZM73.8908 3.3C73.4908 3.3 73.2908 3.5 73.2908 3.9C73.2908 4.33333 73.4908 4.55 73.8908 4.55C74.3242 4.55 74.5408 4.33333 74.5408 3.9C74.5408 3.5 74.3242 3.3 73.8908 3.3ZM73.3908 7.8C72.9575 7.8 72.7408 8.01667 72.7408 8.45C72.7408 8.85 72.9575 9.05 73.3908 9.05C73.7908 9.05 73.9908 8.85 73.9908 8.45C73.9908 8.01667 73.7908 7.8 73.3908 7.8ZM58.8908 32.55C59.2908 32.55 59.4908 32.35 59.4908 31.95C59.4908 31.5167 59.2908 31.3 58.8908 31.3C58.4575 31.3 58.2408 31.5167 58.2408 31.95C58.2408 32.35 58.4575 32.55 58.8908 32.55ZM58.8908 27.8C59.2908 27.8 59.4908 27.6 59.4908 27.2C59.4908 26.7667 59.2908 26.55 58.8908 26.55C58.4575 26.55 58.2408 26.7667 58.2408 27.2C58.2408 27.6 58.4575 27.8 58.8908 27.8ZM58.8908 23.25C59.0575 23.25 59.1908 23.2 59.2908 23.1C59.4242 22.9667 59.4908 22.8167 59.4908 22.65C59.4908 22.2167 59.2908 22 58.8908 22C58.4575 22 58.2408 22.2167 58.2408 22.65C58.2408 22.8167 58.3075 22.9667 58.4408 23.1C58.5742 23.2 58.7242 23.25 58.8908 23.25ZM58.8908 18.6C59.2908 18.6 59.4908 18.4 59.4908 18C59.4908 17.5667 59.2908 17.35 58.8908 17.35C58.4575 17.35 58.2408 17.5667 58.2408 18C58.2408 18.4 58.4575 18.6 58.8908 18.6ZM58.8908 13.95C59.3242 13.95 59.5408 13.7333 59.5408 13.3C59.5408 12.9 59.3242 12.7 58.8908 12.7C58.4908 12.7 58.2908 12.9 58.2908 13.3C58.2908 13.7333 58.4908 13.95 58.8908 13.95ZM58.2408 8.7C58.2408 9.13333 58.4575 9.35 58.8908 9.35C59.2908 9.35 59.4908 9.13333 59.4908 8.7C59.4908 8.3 59.2908 8.1 58.8908 8.1C58.4575 8.1 58.2408 8.3 58.2408 8.7ZM58.8908 4.7C59.3242 4.7 59.5408 4.48333 59.5408 4.05C59.5408 3.88333 59.4742 3.75 59.3408 3.65C59.2075 3.51666 59.0575 3.45 58.8908 3.45C58.7242 3.45 58.5742 3.51666 58.4408 3.65C58.3408 3.75 58.2908 3.88333 58.2908 4.05C58.2908 4.48333 58.4908 4.7 58.8908 4.7ZM62.9408 17.35C63.3742 17.35 63.5908 17.1333 63.5908 16.7C63.5908 16.5333 63.5242 16.4 63.3908 16.3C63.2908 16.1667 63.1408 16.1 62.9408 16.1C62.7742 16.1 62.6242 16.1667 62.4908 16.3C62.3908 16.4 62.3408 16.5333 62.3408 16.7C62.3408 17.1333 62.5408 17.35 62.9408 17.35ZM67.8408 17.2C68.2742 17.2 68.4908 16.9833 68.4908 16.55C68.4908 16.15 68.2742 15.95 67.8408 15.95C67.4408 15.95 67.2408 16.15 67.2408 16.55C67.2408 16.9833 67.4408 17.2 67.8408 17.2ZM70.7408 20.35C70.9075 20.35 71.0408 20.3 71.1408 20.2C71.2742 20.0667 71.3408 19.9167 71.3408 19.75C71.3408 19.3167 71.1408 19.1 70.7408 19.1C70.3075 19.1 70.0908 19.3167 70.0908 19.75C70.0908 19.9167 70.1575 20.0667 70.2908 20.2C70.4242 20.3 70.5742 20.35 70.7408 20.35ZM71.3408 13.6C71.7742 13.6 71.9908 13.4 71.9908 13C71.9908 12.5667 71.7742 12.35 71.3408 12.35C70.9408 12.35 70.7408 12.5667 70.7408 13C70.7408 13.4 70.9408 13.6 71.3408 13.6ZM72.2908 23.6C72.2908 24 72.5075 24.2 72.9408 24.2C73.3408 24.2 73.5408 24 73.5408 23.6C73.5408 23.1667 73.3408 22.95 72.9408 22.95C72.5075 22.95 72.2908 23.1667 72.2908 23.6ZM73.5908 33.2C73.7575 33.2 73.8908 33.15 73.9908 33.05C74.1242 32.9167 74.1908 32.75 74.1908 32.55C74.1908 32.3833 74.1242 32.25 73.9908 32.15C73.8908 32.0167 73.7575 31.95 73.5908 31.95C73.1575 31.95 72.9408 32.15 72.9408 32.55C72.9408 32.9833 73.1575 33.2 73.5908 33.2ZM74.0408 28.8C74.4408 28.8 74.6408 28.5833 74.6408 28.15C74.6408 27.75 74.4408 27.55 74.0408 27.55C73.6408 27.55 73.4408 27.75 73.4408 28.15C73.4408 28.5833 73.6408 28.8 74.0408 28.8ZM103.841 30.45C103.841 32.6167 104.207 34.0167 104.941 34.65C105.041 34.7167 105.074 34.8 105.041 34.9C105.041 34.9667 104.957 35 104.791 35H80.0908C79.9242 35 79.8242 34.9667 79.7908 34.9C79.7908 34.8 79.8408 34.7167 79.9408 34.65C80.6742 34.0167 81.0408 32.6167 81.0408 30.45V28.2V5.4C81.0408 2.36667 80.2908 0.849999 78.7908 0.849999H104.791C104.957 0.849999 105.041 0.899999 105.041 1C105.074 1.1 105.041 1.18333 104.941 1.25C104.207 1.88333 103.841 3.26667 103.841 5.4V7.7V8.7C103.841 8.83333 103.791 8.91667 103.691 8.95C103.591 8.98333 103.507 8.93333 103.441 8.8C102.807 8.06667 101.424 7.7 99.2908 7.7H87.8908V9.95V14.5H94.7408C96.8742 14.5 98.2575 14.1333 98.8908 13.4C98.9575 13.3 99.0408 13.2667 99.1408 13.3C99.2408 13.3333 99.2908 13.4167 99.2908 13.55V14.5V16.8V21.35V22.35C99.2908 22.4833 99.2408 22.5667 99.1408 22.6C99.0408 22.6333 98.9575 22.6 98.8908 22.5C98.2242 21.7333 96.8408 21.35 94.7408 21.35H87.8908V23.6V28.2H99.2908C101.391 28.2 102.774 27.8167 103.441 27.05C103.507 26.95 103.591 26.9167 103.691 26.95C103.791 26.9833 103.841 27.0667 103.841 27.2V28.2V30.45ZM96.7908 17.45C96.3908 17.45 96.1908 17.6667 96.1908 18.1C96.1908 18.5 96.3908 18.7 96.7908 18.7C97.2242 18.7 97.4408 18.5 97.4408 18.1C97.4408 17.6667 97.2242 17.45 96.7908 17.45ZM101.141 3.55C100.974 3.55 100.824 3.61667 100.691 3.75C100.591 3.85 100.541 3.98333 100.541 4.15C100.541 4.31666 100.591 4.46666 100.691 4.6C100.824 4.73333 100.974 4.8 101.141 4.8C101.574 4.8 101.791 4.58333 101.791 4.15C101.791 3.75 101.574 3.55 101.141 3.55ZM97.0908 3.55C96.6575 3.55 96.4408 3.75 96.4408 4.15C96.4408 4.58333 96.6575 4.8 97.0908 4.8C97.2575 4.8 97.3908 4.73333 97.4908 4.6C97.6242 4.46666 97.6908 4.31666 97.6908 4.15C97.6908 3.98333 97.6242 3.85 97.4908 3.75C97.3908 3.61667 97.2575 3.55 97.0908 3.55ZM92.8908 3.55C92.4575 3.55 92.2408 3.75 92.2408 4.15C92.2408 4.58333 92.4575 4.8 92.8908 4.8C93.0575 4.8 93.1908 4.73333 93.2908 4.6C93.4242 4.46666 93.4908 4.31666 93.4908 4.15C93.4908 3.98333 93.4242 3.85 93.2908 3.75C93.1908 3.61667 93.0575 3.55 92.8908 3.55ZM88.5908 3.55C88.1908 3.55 87.9908 3.75 87.9908 4.15C87.9908 4.58333 88.1908 4.8 88.5908 4.8C88.9908 4.8 89.1908 4.58333 89.1908 4.15C89.1908 3.75 88.9908 3.55 88.5908 3.55ZM92.5908 17.45C92.1908 17.45 91.9908 17.6667 91.9908 18.1C91.9908 18.5 92.1908 18.7 92.5908 18.7C93.0242 18.7 93.2408 18.5 93.2408 18.1C93.2408 17.6667 93.0242 17.45 92.5908 17.45ZM88.4908 17.45C88.0575 17.45 87.8408 17.6667 87.8408 18.1C87.8408 18.5 88.0575 18.7 88.4908 18.7C88.6575 18.7 88.7908 18.65 88.8908 18.55C89.0242 18.4167 89.0908 18.2667 89.0908 18.1C89.0908 17.9333 89.0242 17.7833 88.8908 17.65C88.7908 17.5167 88.6575 17.45 88.4908 17.45ZM84.2408 32.65C84.6742 32.65 84.8908 32.45 84.8908 32.05C84.8908 31.6167 84.6742 31.4 84.2408 31.4C83.8408 31.4 83.6408 31.6167 83.6408 32.05C83.6408 32.45 83.8408 32.65 84.2408 32.65ZM84.2408 27.9C84.6742 27.9 84.8908 27.7 84.8908 27.3C84.8908 26.8667 84.6742 26.65 84.2408 26.65C83.8408 26.65 83.6408 26.8667 83.6408 27.3C83.6408 27.7 83.8408 27.9 84.2408 27.9ZM84.2408 23.35C84.6742 23.35 84.8908 23.1333 84.8908 22.7C84.8908 22.3 84.6742 22.1 84.2408 22.1C83.8408 22.1 83.6408 22.3 83.6408 22.7C83.6408 23.1333 83.8408 23.35 84.2408 23.35ZM84.2408 18.7C84.6742 18.7 84.8908 18.5 84.8908 18.1C84.8908 17.6667 84.6742 17.45 84.2408 17.45C83.8408 17.45 83.6408 17.6667 83.6408 18.1C83.6408 18.5 83.8408 18.7 84.2408 18.7ZM84.2908 14.05C84.7242 14.05 84.9408 13.8333 84.9408 13.4C84.9408 13 84.7242 12.8 84.2908 12.8C83.8575 12.8 83.6408 13 83.6408 13.4C83.6408 13.8333 83.8575 14.05 84.2908 14.05ZM83.6408 8.8C83.6408 9.2 83.8408 9.4 84.2408 9.4C84.6742 9.4 84.8908 9.2 84.8908 8.8C84.8908 8.36667 84.6742 8.15 84.2408 8.15C83.8408 8.15 83.6408 8.36667 83.6408 8.8ZM84.2908 4.8C84.7242 4.8 84.9408 4.58333 84.9408 4.15C84.9408 3.75 84.7242 3.55 84.2908 3.55C83.8575 3.55 83.6408 3.75 83.6408 4.15C83.6408 4.58333 83.8575 4.8 84.2908 4.8ZM88.4408 32.65C88.8742 32.65 89.0908 32.45 89.0908 32.05C89.0908 31.6167 88.8742 31.4 88.4408 31.4C88.0408 31.4 87.8408 31.6167 87.8408 32.05C87.8408 32.45 88.0408 32.65 88.4408 32.65ZM92.5908 32.65C92.7575 32.65 92.8908 32.6 92.9908 32.5C93.1242 32.3667 93.1908 32.2167 93.1908 32.05C93.1908 31.8833 93.1242 31.7333 92.9908 31.6C92.8908 31.4667 92.7575 31.4 92.5908 31.4C92.1575 31.4 91.9408 31.6167 91.9408 32.05C91.9408 32.45 92.1575 32.65 92.5908 32.65ZM96.7908 32.65C97.1908 32.65 97.3908 32.45 97.3908 32.05C97.3908 31.6167 97.1908 31.4 96.7908 31.4C96.3575 31.4 96.1408 31.6167 96.1408 32.05C96.1408 32.45 96.3575 32.65 96.7908 32.65ZM101.191 32.65C101.357 32.65 101.491 32.6 101.591 32.5C101.724 32.3667 101.791 32.2167 101.791 32.05C101.791 31.8833 101.724 31.7333 101.591 31.6C101.491 31.4667 101.357 31.4 101.191 31.4C100.757 31.4 100.541 31.6167 100.541 32.05C100.541 32.45 100.757 32.65 101.191 32.65ZM130.737 30.45C130.737 32.55 131.12 33.9333 131.887 34.6C131.987 34.6667 132.02 34.75 131.987 34.85C131.954 34.95 131.87 35 131.737 35H122.937C122.804 35 122.72 34.95 122.687 34.85C122.654 34.75 122.687 34.6667 122.787 34.6C123.387 34.1 123.737 33.1333 123.837 31.7C123.904 31.1 123.87 30.5667 123.737 30.1C123.637 29.6 123.404 29.1167 123.037 28.65L114.787 17.15V21.35V23.6V30.45C114.787 32.55 115.17 33.9333 115.937 34.6C116.037 34.6667 116.07 34.75 116.037 34.85C116.004 34.95 115.92 35 115.787 35H106.987C106.854 35 106.77 34.95 106.737 34.85C106.704 34.75 106.737 34.6667 106.837 34.6C107.604 33.9333 107.987 32.55 107.987 30.45V28.15V5.4C107.987 3.23333 107.604 1.85 106.837 1.25C106.737 1.15 106.704 1.06667 106.737 1C106.77 0.899999 106.854 0.849999 106.987 0.849999H115.787C115.92 0.849999 116.004 0.899999 116.037 1C116.07 1.06667 116.037 1.15 115.937 1.25C115.504 1.58333 115.187 2.21667 114.987 3.15C114.854 3.85 114.837 4.48333 114.937 5.05C115.07 5.58333 115.337 6.13333 115.737 6.7L123.937 18.15V14.5V9.95V5.4C123.937 3.23333 123.554 1.85 122.787 1.25C122.687 1.15 122.654 1.06667 122.687 1C122.72 0.899999 122.804 0.849999 122.937 0.849999H131.737C131.87 0.849999 131.954 0.899999 131.987 1C132.02 1.06667 131.987 1.15 131.887 1.25C131.12 1.85 130.737 3.23333 130.737 5.4V30.45ZM111.437 32.6C111.837 32.6 112.037 32.3833 112.037 31.95C112.037 31.5167 111.837 31.3 111.437 31.3C111.037 31.3 110.837 31.5167 110.837 31.95C110.837 32.3833 111.037 32.6 111.437 32.6ZM111.437 27.8C111.837 27.8 112.037 27.6 112.037 27.2C112.037 26.7667 111.837 26.55 111.437 26.55C111.037 26.55 110.837 26.7667 110.837 27.2C110.837 27.6 111.037 27.8 111.437 27.8ZM111.437 23.25C111.837 23.25 112.037 23.0333 112.037 22.6C112.037 22.4333 111.97 22.3 111.837 22.2C111.737 22.0667 111.604 22 111.437 22C111.27 22 111.12 22.0667 110.987 22.2C110.887 22.3 110.837 22.4333 110.837 22.6C110.837 23.0333 111.037 23.25 111.437 23.25ZM111.437 18.6C111.604 18.6 111.737 18.55 111.837 18.45C111.97 18.3167 112.037 18.1667 112.037 18C112.037 17.5667 111.837 17.35 111.437 17.35C111.037 17.35 110.837 17.5667 110.837 18C110.837 18.1667 110.887 18.3167 110.987 18.45C111.12 18.55 111.27 18.6 111.437 18.6ZM111.487 13.95C111.887 13.95 112.087 13.7333 112.087 13.3C112.087 12.9 111.887 12.7 111.487 12.7C111.054 12.7 110.837 12.9 110.837 13.3C110.837 13.7333 111.054 13.95 111.487 13.95ZM110.837 8.7C110.837 9.13333 111.037 9.35 111.437 9.35C111.837 9.35 112.037 9.13333 112.037 8.7C112.037 8.3 111.837 8.1 111.437 8.1C111.037 8.1 110.837 8.3 110.837 8.7ZM111.487 4.7C111.887 4.7 112.087 4.48333 112.087 4.05C112.087 3.88333 112.02 3.75 111.887 3.65C111.787 3.51666 111.654 3.45 111.487 3.45C111.32 3.45 111.17 3.51666 111.037 3.65C110.904 3.75 110.837 3.88333 110.837 4.05C110.837 4.48333 111.054 4.7 111.487 4.7ZM114.437 10.75C114.77 10.45 114.77 10.1333 114.437 9.8C114.37 9.76667 114.304 9.73333 114.237 9.7C114.204 9.66666 114.154 9.65 114.087 9.65L114.187 10.9C114.254 10.9 114.337 10.85 114.437 10.75ZM116.737 14.65C116.904 14.65 117.037 14.6 117.137 14.5C117.27 14.3667 117.337 14.2167 117.337 14.05C117.337 13.8833 117.27 13.75 117.137 13.65C117.037 13.5167 116.904 13.45 116.737 13.45C116.304 13.45 116.087 13.65 116.087 14.05C116.087 14.45 116.304 14.65 116.737 14.65ZM119.537 18.25C119.937 18.25 120.137 18.0333 120.137 17.6C120.137 17.4333 120.07 17.3 119.937 17.2C119.837 17.0667 119.704 17 119.537 17C119.37 17 119.22 17.0667 119.087 17.2C118.954 17.3 118.887 17.4333 118.887 17.6C118.887 18.0333 119.104 18.25 119.537 18.25ZM122.187 22.3C122.354 22.3 122.487 22.2333 122.587 22.1C122.72 21.9667 122.787 21.8167 122.787 21.65C122.787 21.4833 122.72 21.3333 122.587 21.2C122.487 21.0667 122.354 21 122.187 21C121.754 21 121.537 21.2167 121.537 21.65C121.537 22.0833 121.754 22.3 122.187 22.3ZM124.737 26.35C124.87 26.4833 125.004 26.55 125.137 26.55L125.037 25.3C124.937 25.3 124.837 25.35 124.737 25.45C124.437 25.75 124.437 26.05 124.737 26.35ZM127.437 32.25C127.837 32.25 128.037 32.0333 128.037 31.6C128.037 31.2 127.837 31 127.437 31C127.004 31 126.787 31.2 126.787 31.6C126.787 32.0333 127.004 32.25 127.437 32.25ZM127.437 27.45C127.837 27.45 128.037 27.25 128.037 26.85C128.037 26.4167 127.837 26.2 127.437 26.2C127.004 26.2 126.787 26.4167 126.787 26.85C126.787 27.25 127.004 27.45 127.437 27.45ZM127.437 22.9C127.604 22.9 127.737 22.85 127.837 22.75C127.97 22.6167 128.037 22.4667 128.037 22.3C128.037 21.8667 127.837 21.65 127.437 21.65C127.004 21.65 126.787 21.8667 126.787 22.3C126.787 22.4667 126.854 22.6167 126.987 22.75C127.12 22.85 127.27 22.9 127.437 22.9ZM127.437 18.25C127.837 18.25 128.037 18.05 128.037 17.65C128.037 17.2167 127.837 17 127.437 17C127.004 17 126.787 17.2167 126.787 17.65C126.787 18.05 127.004 18.25 127.437 18.25ZM127.487 13.6C127.654 13.6 127.787 13.5333 127.887 13.4C128.02 13.2667 128.087 13.1167 128.087 12.95C128.087 12.7833 128.02 12.65 127.887 12.55C127.787 12.4167 127.654 12.35 127.487 12.35C127.054 12.35 126.837 12.55 126.837 12.95C126.837 13.3833 127.054 13.6 127.487 13.6ZM126.787 8.35C126.787 8.78333 127.004 9 127.437 9C127.837 9 128.037 8.78333 128.037 8.35C128.037 7.95 127.837 7.75 127.437 7.75C127.004 7.75 126.787 7.95 126.787 8.35ZM127.487 4.35C127.654 4.35 127.787 4.3 127.887 4.2C128.02 4.06667 128.087 3.91667 128.087 3.75C128.087 3.58333 128.02 3.43333 127.887 3.3C127.787 3.16667 127.654 3.1 127.487 3.1C127.054 3.1 126.837 3.31667 126.837 3.75C126.837 3.91667 126.887 4.06667 126.987 4.2C127.12 4.3 127.287 4.35 127.487 4.35ZM147.841 1.15C149.408 1.15 150.875 1.45 152.241 2.05C153.641 2.65 154.858 3.46667 155.891 4.5C156.925 5.53333 157.741 6.75 158.341 8.15C158.941 9.51667 159.241 10.9833 159.241 12.55V23.95C159.241 25.5167 158.941 27 158.341 28.4C157.741 29.7667 156.925 30.9667 155.891 32C154.858 33.0333 153.641 33.85 152.241 34.45C150.875 35.0167 149.408 35.3 147.841 35.3H145.591C144.025 35.3 142.541 35.0167 141.141 34.45C139.775 33.85 138.575 33.0333 137.541 32C136.508 30.9667 135.691 29.7667 135.091 28.4C134.491 27 134.191 25.5167 134.191 23.95V12.55C134.191 10.9833 134.491 9.51667 135.091 8.15C135.691 6.75 136.508 5.53333 137.541 4.5C138.575 3.46667 139.775 2.65 141.141 2.05C142.541 1.45 144.025 1.15 145.591 1.15H147.841ZM156.341 14.75C156.341 14.5833 156.275 14.45 156.141 14.35C156.008 14.2167 155.858 14.15 155.691 14.15C155.525 14.15 155.375 14.2167 155.241 14.35C155.141 14.45 155.091 14.5833 155.091 14.75C155.091 14.9167 155.141 15.0667 155.241 15.2C155.375 15.3333 155.525 15.4 155.691 15.4C156.125 15.4 156.341 15.1833 156.341 14.75ZM156.341 18.95C156.341 18.55 156.125 18.35 155.691 18.35C155.291 18.35 155.091 18.55 155.091 18.95C155.091 19.3833 155.291 19.6 155.691 19.6C156.125 19.6 156.341 19.3833 156.341 18.95ZM155.091 9.55C154.925 9.55 154.775 9.61667 154.641 9.75C154.541 9.85 154.491 9.98333 154.491 10.15C154.491 10.3167 154.541 10.4667 154.641 10.6C154.775 10.7333 154.925 10.8 155.091 10.8C155.525 10.8 155.741 10.5833 155.741 10.15C155.741 9.75 155.525 9.55 155.091 9.55ZM149.091 4.1C148.925 4.1 148.775 4.16667 148.641 4.3C148.541 4.43333 148.491 4.58333 148.491 4.75C148.491 4.91667 148.541 5.06667 148.641 5.2C148.775 5.3 148.925 5.35 149.091 5.35C149.258 5.35 149.408 5.3 149.541 5.2C149.675 5.06667 149.741 4.91667 149.741 4.75C149.741 4.31667 149.525 4.1 149.091 4.1ZM144.041 3.8C143.641 3.8 143.441 4.01667 143.441 4.45C143.441 4.85 143.641 5.05 144.041 5.05C144.475 5.05 144.691 4.85 144.691 4.45C144.691 4.01667 144.475 3.8 144.041 3.8ZM137.841 25.35C138.275 25.35 138.491 25.15 138.491 24.75C138.491 24.3167 138.275 24.1 137.841 24.1C137.675 24.1 137.525 24.1667 137.391 24.3C137.291 24.4333 137.241 24.5833 137.241 24.75C137.241 24.9167 137.291 25.0667 137.391 25.2C137.525 25.3 137.675 25.35 137.841 25.35ZM137.091 20.05C137.091 20.45 137.291 20.65 137.691 20.65C138.125 20.65 138.341 20.45 138.341 20.05C138.341 19.6167 138.125 19.4 137.691 19.4C137.291 19.4 137.091 19.6167 137.091 20.05ZM137.841 16.35C138.275 16.35 138.491 16.1333 138.491 15.7C138.491 15.3 138.275 15.1 137.841 15.1C137.675 15.1 137.525 15.1667 137.391 15.3C137.291 15.4 137.241 15.5333 137.241 15.7C137.241 15.8667 137.291 16.0167 137.391 16.15C137.525 16.2833 137.675 16.35 137.841 16.35ZM138.191 11.5C138.591 11.5 138.791 11.2833 138.791 10.85C138.791 10.45 138.591 10.25 138.191 10.25C137.758 10.25 137.541 10.45 137.541 10.85C137.541 11.2833 137.758 11.5 138.191 11.5ZM139.441 29.5C139.841 29.5 140.041 29.3 140.041 28.9C140.041 28.4667 139.841 28.25 139.441 28.25C139.041 28.25 138.841 28.4667 138.841 28.9C138.841 29.3 139.041 29.5 139.441 29.5ZM140.041 7.1C140.241 7.1 140.391 7.05 140.491 6.95C140.625 6.81667 140.691 6.66667 140.691 6.5C140.691 6.06667 140.475 5.85 140.041 5.85C139.875 5.85 139.725 5.91667 139.591 6.05C139.491 6.15 139.441 6.3 139.441 6.5C139.441 6.66667 139.491 6.81667 139.591 6.95C139.725 7.05 139.875 7.1 140.041 7.1ZM143.441 32C143.841 32 144.041 31.8 144.041 31.4C144.041 31 143.841 30.8 143.441 30.8C143.008 30.8 142.791 31 142.791 31.4C142.791 31.8 143.008 32 143.441 32ZM147.841 32.45C148.241 32.45 148.441 32.25 148.441 31.85C148.441 31.45 148.241 31.25 147.841 31.25C147.408 31.25 147.191 31.45 147.191 31.85C147.191 32.25 147.408 32.45 147.841 32.45ZM147.841 28.5C149.108 28.5 150.175 28.0667 151.041 27.2C151.941 26.3 152.391 25.2167 152.391 23.95V19.4V17.1V12.55C152.391 11.2833 151.941 10.2167 151.041 9.35C150.175 8.45 149.108 8 147.841 8H145.591C144.958 8 144.358 8.11667 143.791 8.35C143.258 8.58333 142.775 8.91667 142.341 9.35C141.941 9.75 141.625 10.2333 141.391 10.8C141.158 11.3333 141.041 11.9167 141.041 12.55V17.1V19.4V23.95C141.041 24.5833 141.158 25.1833 141.391 25.75C141.625 26.2833 141.941 26.7667 142.341 27.2C142.775 27.6 143.258 27.9167 143.791 28.15C144.358 28.3833 144.958 28.5 145.591 28.5H147.841ZM151.891 31.4C152.058 31.4 152.208 31.35 152.341 31.25C152.475 31.1167 152.541 30.9667 152.541 30.8C152.541 30.3667 152.325 30.15 151.891 30.15C151.725 30.15 151.575 30.2167 151.441 30.35C151.341 30.45 151.291 30.6 151.291 30.8C151.291 30.9667 151.341 31.1167 151.441 31.25C151.575 31.35 151.725 31.4 151.891 31.4ZM153.191 6.9C153.625 6.9 153.841 6.68333 153.841 6.25C153.841 5.85 153.625 5.65 153.191 5.65C152.791 5.65 152.591 5.85 152.591 6.25C152.591 6.68333 152.791 6.9 153.191 6.9ZM154.741 27.7C155.141 27.7 155.341 27.4833 155.341 27.05C155.341 26.65 155.141 26.45 154.741 26.45C154.341 26.45 154.141 26.65 154.141 27.05C154.141 27.4833 154.341 27.7 154.741 27.7ZM155.841 23.75C156.275 23.75 156.491 23.55 156.491 23.15C156.491 22.75 156.275 22.55 155.841 22.55C155.441 22.55 155.241 22.75 155.241 23.15C155.241 23.55 155.441 23.75 155.841 23.75ZM192.028 30.45C192.028 32.55 192.411 33.9333 193.178 34.6C193.445 34.8667 193.395 35 193.028 35H184.228C184.095 35 184.011 34.9667 183.978 34.9C183.945 34.8 183.978 34.7 184.078 34.6C184.845 33.9333 185.228 32.55 185.228 30.45V21.6L181.278 31.2C180.645 32.7 180.511 33.85 180.878 34.65C180.978 34.8833 180.911 35 180.678 35H173.878C173.611 35 173.545 34.8833 173.678 34.65C174.078 33.9167 173.945 32.7667 173.278 31.2L169.278 21.5V29.1V29.15V30.45C169.278 32.5833 169.661 33.9667 170.428 34.6C170.528 34.7 170.561 34.8 170.528 34.9C170.495 34.9667 170.411 35 170.278 35H161.478C161.345 35 161.261 34.9667 161.228 34.9C161.195 34.8 161.228 34.7 161.328 34.6C162.061 33.9667 162.428 32.5833 162.428 30.45V5.4C162.428 3.26667 162.061 1.88333 161.328 1.25C161.228 1.18333 161.195 1.1 161.228 1C161.261 0.899999 161.345 0.849999 161.478 0.849999H167.028H170.278C170.411 0.849999 170.495 0.899999 170.528 1C170.561 1.1 170.528 1.18333 170.428 1.25C169.995 1.58333 169.678 2.16667 169.478 3C169.378 3.46666 169.428 3.91666 169.628 4.35L177.228 22.9L184.878 4.35C185.078 3.88333 185.111 3.43333 184.978 3C184.845 2.2 184.545 1.61667 184.078 1.25C183.978 1.18333 183.945 1.1 183.978 1C184.011 0.899999 184.095 0.849999 184.228 0.849999H189.778H193.028C193.195 0.849999 193.278 0.899999 193.278 1C193.311 1.1 193.278 1.18333 193.178 1.25C192.411 1.91667 192.028 3.3 192.028 5.4V7.7V9.95V11.85V19.05V28.2V30.45ZM165.678 32.3C166.078 32.3 166.278 32.0833 166.278 31.65C166.278 31.4833 166.211 31.35 166.078 31.25C165.978 31.1167 165.845 31.05 165.678 31.05C165.511 31.05 165.361 31.1167 165.228 31.25C165.095 31.35 165.028 31.4833 165.028 31.65C165.028 32.0833 165.245 32.3 165.678 32.3ZM165.678 27.55C166.078 27.55 166.278 27.3333 166.278 26.9C166.278 26.5 166.078 26.3 165.678 26.3C165.245 26.3 165.028 26.5 165.028 26.9C165.028 27.3333 165.245 27.55 165.678 27.55ZM165.678 22.95C166.078 22.95 166.278 22.75 166.278 22.35C166.278 21.9167 166.078 21.7 165.678 21.7C165.245 21.7 165.028 21.9167 165.028 22.35C165.028 22.75 165.245 22.95 165.678 22.95ZM165.678 18.35C166.078 18.35 166.278 18.1333 166.278 17.7C166.278 17.2667 166.078 17.05 165.678 17.05C165.245 17.05 165.028 17.2667 165.028 17.7C165.028 18.1333 165.245 18.35 165.678 18.35ZM165.728 13.65C165.895 13.65 166.028 13.5833 166.128 13.45C166.261 13.3167 166.328 13.1667 166.328 13C166.328 12.8333 166.261 12.7 166.128 12.6C166.028 12.4667 165.895 12.4 165.728 12.4C165.561 12.4 165.411 12.4667 165.278 12.6C165.145 12.7 165.078 12.8333 165.078 13C165.078 13.4333 165.295 13.65 165.728 13.65ZM165.028 8.4C165.028 8.83333 165.245 9.05 165.678 9.05C166.078 9.05 166.278 8.83333 166.278 8.4C166.278 8.23333 166.211 8.1 166.078 8C165.978 7.86667 165.845 7.8 165.678 7.8C165.511 7.8 165.361 7.86667 165.228 8C165.095 8.1 165.028 8.23333 165.028 8.4ZM165.728 4.4C165.895 4.4 166.028 4.35 166.128 4.25C166.261 4.11667 166.328 3.96667 166.328 3.8C166.328 3.63333 166.261 3.48333 166.128 3.35C166.028 3.21667 165.895 3.15 165.728 3.15C165.295 3.15 165.078 3.36667 165.078 3.8C165.078 4.2 165.295 4.4 165.728 4.4ZM168.378 10.4C168.778 10.4 168.978 10.1833 168.978 9.75C168.978 9.35 168.778 9.15 168.378 9.15C167.945 9.15 167.728 9.35 167.728 9.75C167.728 10.1833 167.945 10.4 168.378 10.4ZM169.778 14.7C169.945 14.7 170.095 14.65 170.228 14.55C170.361 14.4167 170.428 14.2667 170.428 14.1C170.428 13.6667 170.211 13.45 169.778 13.45C169.611 13.45 169.461 13.5167 169.328 13.65C169.228 13.7833 169.178 13.9333 169.178 14.1C169.178 14.2667 169.228 14.4167 169.328 14.55C169.461 14.65 169.611 14.7 169.778 14.7ZM171.378 18.9C171.778 18.9 171.978 18.7 171.978 18.3C171.978 17.9 171.778 17.7 171.378 17.7C170.978 17.7 170.778 17.9 170.778 18.3C170.778 18.7 170.978 18.9 171.378 18.9ZM173.278 23.15C173.678 23.15 173.878 22.95 173.878 22.55C173.878 22.15 173.678 21.95 173.278 21.95C172.845 21.95 172.628 22.15 172.628 22.55C172.628 22.95 172.845 23.15 173.278 23.15ZM175.178 27.35C175.578 27.35 175.778 27.15 175.778 26.75C175.778 26.3167 175.578 26.1 175.178 26.1C174.745 26.1 174.528 26.3167 174.528 26.75C174.528 27.15 174.745 27.35 175.178 27.35ZM177.028 31.65C177.461 31.65 177.678 31.45 177.678 31.05C177.678 30.65 177.461 30.45 177.028 30.45C176.861 30.45 176.711 30.5167 176.578 30.65C176.478 30.75 176.428 30.8833 176.428 31.05C176.428 31.2167 176.478 31.3667 176.578 31.5C176.711 31.6 176.861 31.65 177.028 31.65ZM179.128 27.3C179.561 27.3 179.778 27.1 179.778 26.7C179.778 26.3 179.561 26.1 179.128 26.1C178.961 26.1 178.811 26.1667 178.678 26.3C178.578 26.4 178.528 26.5333 178.528 26.7C178.528 26.8667 178.578 27.0167 178.678 27.15C178.811 27.25 178.961 27.3 179.128 27.3ZM180.978 23.15C181.378 23.15 181.578 22.9333 181.578 22.5C181.578 22.3333 181.511 22.2 181.378 22.1C181.278 21.9667 181.145 21.9 180.978 21.9C180.811 21.9 180.661 21.9667 180.528 22.1C180.428 22.2 180.378 22.3333 180.378 22.5C180.378 22.6667 180.428 22.8167 180.528 22.95C180.661 23.0833 180.811 23.15 180.978 23.15ZM182.828 18.9C182.995 18.9 183.128 18.8333 183.228 18.7C183.361 18.5667 183.428 18.4167 183.428 18.25C183.428 18.0833 183.361 17.95 183.228 17.85C183.128 17.7167 182.995 17.65 182.828 17.65C182.428 17.65 182.228 17.85 182.228 18.25C182.228 18.6833 182.428 18.9 182.828 18.9ZM184.678 14.35C184.845 14.35 184.978 14.3 185.078 14.2C185.211 14.0667 185.278 13.9167 185.278 13.75C185.278 13.5833 185.211 13.4333 185.078 13.3C184.978 13.1667 184.845 13.1 184.678 13.1C184.278 13.1 184.078 13.3167 184.078 13.75C184.078 14.15 184.278 14.35 184.678 14.35ZM186.478 10.3C186.878 10.3 187.078 10.0833 187.078 9.65C187.078 9.25 186.878 9.05 186.478 9.05C186.078 9.05 185.878 9.25 185.878 9.65C185.878 10.0833 186.078 10.3 186.478 10.3ZM188.878 32.3C189.311 32.3 189.528 32.1 189.528 31.7C189.528 31.3 189.311 31.1 188.878 31.1C188.478 31.1 188.278 31.3 188.278 31.7C188.278 32.1 188.478 32.3 188.878 32.3ZM188.878 27.55C189.311 27.55 189.528 27.3333 189.528 26.9C189.528 26.7333 189.461 26.6 189.328 26.5C189.195 26.3667 189.045 26.3 188.878 26.3C188.711 26.3 188.561 26.3667 188.428 26.5C188.328 26.6 188.278 26.7333 188.278 26.9C188.278 27.3333 188.478 27.55 188.878 27.55ZM188.878 23C189.311 23 189.528 22.7833 189.528 22.35C189.528 21.95 189.311 21.75 188.878 21.75C188.478 21.75 188.278 21.95 188.278 22.35C188.278 22.7833 188.478 23 188.878 23ZM188.878 18.35C189.311 18.35 189.528 18.1333 189.528 17.7C189.528 17.5333 189.461 17.4 189.328 17.3C189.195 17.1667 189.045 17.1 188.878 17.1C188.711 17.1 188.561 17.1667 188.428 17.3C188.328 17.4 188.278 17.5333 188.278 17.7C188.278 18.1333 188.478 18.35 188.878 18.35ZM188.928 13.65C189.095 13.65 189.228 13.6 189.328 13.5C189.461 13.3667 189.528 13.2167 189.528 13.05C189.528 12.8833 189.461 12.75 189.328 12.65C189.228 12.5167 189.095 12.45 188.928 12.45C188.495 12.45 188.278 12.65 188.278 13.05C188.278 13.45 188.495 13.65 188.928 13.65ZM188.278 8.45C188.278 8.85 188.478 9.05 188.878 9.05C189.311 9.05 189.528 8.85 189.528 8.45C189.528 8.05 189.311 7.85 188.878 7.85C188.478 7.85 188.278 8.05 188.278 8.45ZM188.928 4.45C189.095 4.45 189.228 4.38333 189.328 4.25C189.461 4.11667 189.528 3.96667 189.528 3.8C189.528 3.63333 189.461 3.5 189.328 3.4C189.228 3.26666 189.095 3.2 188.928 3.2C188.495 3.2 188.278 3.4 188.278 3.8C188.278 4.23333 188.495 4.45 188.928 4.45ZM203.18 30.45C203.18 32.5833 203.563 33.9667 204.33 34.6C204.397 34.6667 204.413 34.75 204.38 34.85C204.38 34.95 204.297 35 204.13 35H195.38C195.213 35 195.113 34.95 195.08 34.85C195.08 34.75 195.13 34.6667 195.23 34.6C195.963 33.9667 196.33 32.5833 196.33 30.45V5.4C196.33 3.23333 195.963 1.85 195.23 1.25C194.963 0.983332 195.013 0.849999 195.38 0.849999H200.88H203.18H204.13C204.463 0.849999 204.53 0.983332 204.33 1.25C203.563 1.81666 203.18 3.2 203.18 5.4V7.65V11.8V19.05V28.15V30.45ZM199.78 32.3C200.18 32.3 200.38 32.0833 200.38 31.65C200.38 31.25 200.18 31.05 199.78 31.05C199.347 31.05 199.13 31.25 199.13 31.65C199.13 32.0833 199.347 32.3 199.78 32.3ZM199.78 27.5C200.18 27.5 200.38 27.3 200.38 26.9C200.38 26.5 200.18 26.3 199.78 26.3C199.347 26.3 199.13 26.5 199.13 26.9C199.13 27.3 199.347 27.5 199.78 27.5ZM199.78 22.95C200.18 22.95 200.38 22.75 200.38 22.35C200.38 21.9167 200.18 21.7 199.78 21.7C199.347 21.7 199.13 21.9167 199.13 22.35C199.13 22.75 199.347 22.95 199.78 22.95ZM199.78 18.35C200.18 18.35 200.38 18.1333 200.38 17.7C200.38 17.3 200.18 17.1 199.78 17.1C199.347 17.1 199.13 17.3 199.13 17.7C199.13 18.1333 199.347 18.35 199.78 18.35ZM199.78 13.65C200.213 13.65 200.43 13.45 200.43 13.05C200.43 12.6167 200.213 12.4 199.78 12.4C199.613 12.4 199.463 12.4667 199.33 12.6C199.23 12.7 199.18 12.85 199.18 13.05C199.18 13.2167 199.23 13.3667 199.33 13.5C199.463 13.6 199.613 13.65 199.78 13.65ZM199.13 8.45C199.13 8.85 199.347 9.05 199.78 9.05C200.18 9.05 200.38 8.85 200.38 8.45C200.38 8.01667 200.18 7.8 199.78 7.8C199.347 7.8 199.13 8.01667 199.13 8.45ZM199.78 4.4C200.213 4.4 200.43 4.2 200.43 3.8C200.43 3.36667 200.213 3.15 199.78 3.15C199.613 3.15 199.463 3.21667 199.33 3.35C199.23 3.48333 199.18 3.63333 199.18 3.8C199.18 3.96667 199.23 4.11667 199.33 4.25C199.463 4.35 199.613 4.4 199.78 4.4ZM224.352 23.6H231.202C231.202 25.1667 230.902 26.65 230.302 28.05C229.702 29.4167 228.885 30.6167 227.852 31.65C226.819 32.6833 225.602 33.5 224.202 34.1C222.835 34.7 221.369 35 219.802 35H217.502C215.935 35 214.452 34.7 213.052 34.1C211.685 33.5 210.485 32.6833 209.452 31.65C208.419 30.6167 207.602 29.4167 207.002 28.05C206.435 26.65 206.152 25.1667 206.152 23.6V12.2C206.152 10.6333 206.435 9.16667 207.002 7.8C207.602 6.4 208.419 5.18333 209.452 4.15C210.485 3.11667 211.685 2.3 213.052 1.7C214.452 1.1 215.935 0.799999 217.502 0.799999H219.802C221.369 0.799999 222.835 1.1 224.202 1.7C225.602 2.3 226.819 3.11667 227.852 4.15C228.885 5.18333 229.702 6.4 230.302 7.8C230.902 9.16667 231.202 10.6333 231.202 12.2H224.352H223.102C222.835 12.2 222.785 12.0833 222.952 11.85C223.519 11.0833 223.485 10.15 222.852 9.05C222.719 8.88333 222.585 8.73333 222.452 8.6C222.319 8.43333 222.152 8.3 221.952 8.2C221.319 7.83333 220.602 7.65 219.802 7.65H217.502C216.235 7.65 215.152 8.1 214.252 9C213.385 9.86667 212.952 10.9333 212.952 12.2V16.75V19V23.6C212.952 24.8667 213.385 25.95 214.252 26.85C215.152 27.7167 216.235 28.15 217.502 28.15H219.802C220.202 28.15 220.569 28.1 220.902 28C221.235 27.9 221.585 27.7667 221.952 27.6C222.285 27.4333 222.585 27.1333 222.852 26.7C223.485 25.6333 223.519 24.7167 222.952 23.95C222.785 23.7167 222.835 23.6 223.102 23.6H224.352ZM226.652 8.6C226.252 8.6 226.052 8.81667 226.052 9.25C226.052 9.65 226.252 9.85 226.652 9.85C227.052 9.85 227.252 9.65 227.252 9.25C227.252 8.81667 227.052 8.6 226.652 8.6ZM223.552 4.75C223.385 4.75 223.235 4.81667 223.102 4.95C223.002 5.08333 222.952 5.23333 222.952 5.4C222.952 5.56667 223.002 5.71667 223.102 5.85C223.235 5.95 223.385 6 223.552 6C223.985 6 224.202 5.8 224.202 5.4C224.202 4.96667 223.985 4.75 223.552 4.75ZM219.152 3.55C218.985 3.55 218.835 3.61667 218.702 3.75C218.602 3.85 218.552 3.98333 218.552 4.15C218.552 4.58333 218.752 4.8 219.152 4.8C219.552 4.8 219.752 4.58333 219.752 4.15C219.752 3.98333 219.685 3.85 219.552 3.75C219.452 3.61667 219.319 3.55 219.152 3.55ZM214.652 4.3C214.219 4.3 214.002 4.51667 214.002 4.95C214.002 5.35 214.219 5.55 214.652 5.55C214.819 5.55 214.952 5.5 215.052 5.4C215.185 5.26667 215.252 5.11667 215.252 4.95C215.252 4.78333 215.185 4.63333 215.052 4.5C214.952 4.36667 214.819 4.3 214.652 4.3ZM209.852 11.75C209.685 11.75 209.535 11.8167 209.402 11.95C209.302 12.05 209.252 12.1833 209.252 12.35C209.252 12.5167 209.302 12.6667 209.402 12.8C209.535 12.9333 209.685 13 209.852 13C210.285 13 210.502 12.7833 210.502 12.35C210.502 12.1833 210.435 12.05 210.302 11.95C210.169 11.8167 210.019 11.75 209.852 11.75ZM209.852 16.3C209.685 16.3 209.535 16.3667 209.402 16.5C209.302 16.6333 209.252 16.7833 209.252 16.95C209.252 17.1167 209.302 17.2667 209.402 17.4C209.535 17.5 209.685 17.55 209.852 17.55C210.285 17.55 210.502 17.35 210.502 16.95C210.502 16.5167 210.285 16.3 209.852 16.3ZM209.252 21.55C209.252 21.7167 209.302 21.8667 209.402 22C209.535 22.1 209.685 22.15 209.852 22.15C210.285 22.15 210.502 21.95 210.502 21.55C210.502 21.1167 210.285 20.9 209.852 20.9C209.685 20.9 209.535 20.9667 209.402 21.1C209.302 21.2333 209.252 21.3833 209.252 21.55ZM210.302 27C210.735 27 210.952 26.7833 210.952 26.35C210.952 26.1833 210.885 26.05 210.752 25.95C210.619 25.8167 210.469 25.75 210.302 25.75C210.135 25.75 209.985 25.8167 209.852 25.95C209.752 26.05 209.702 26.1833 209.702 26.35C209.702 26.5167 209.752 26.6667 209.852 26.8C209.985 26.9333 210.135 27 210.302 27ZM210.852 8.65C211.252 8.65 211.452 8.43333 211.452 8C211.452 7.6 211.252 7.4 210.852 7.4C210.419 7.4 210.202 7.6 210.202 8C210.202 8.43333 210.419 8.65 210.852 8.65ZM212.752 30.85C213.152 30.85 213.352 30.6333 213.352 30.2C213.352 30.0333 213.285 29.9 213.152 29.8C213.052 29.6667 212.919 29.6 212.752 29.6C212.585 29.6 212.435 29.6667 212.302 29.8C212.169 29.9 212.102 30.0333 212.102 30.2C212.102 30.6333 212.319 30.85 212.752 30.85ZM217.252 32.3C217.652 32.3 217.852 32.0833 217.852 31.65C217.852 31.25 217.652 31.05 217.252 31.05C216.852 31.05 216.652 31.25 216.652 31.65C216.652 32.0833 216.852 32.3 217.252 32.3ZM222.402 31.65C222.835 31.65 223.052 31.45 223.052 31.05C223.052 30.65 222.835 30.45 222.402 30.45C222.235 30.45 222.085 30.5167 221.952 30.65C221.852 30.75 221.802 30.8833 221.802 31.05C221.802 31.2167 221.852 31.3667 221.952 31.5C222.085 31.6 222.235 31.65 222.402 31.65ZM226.502 27.65C226.069 27.65 225.852 27.85 225.852 28.25C225.852 28.65 226.069 28.85 226.502 28.85C226.902 28.85 227.102 28.65 227.102 28.25C227.102 27.85 226.902 27.65 226.502 27.65ZM248.012 14.55C249.446 14.55 250.779 14.8167 252.012 15.35C253.246 15.8833 254.329 16.6167 255.262 17.55C256.196 18.4833 256.929 19.5667 257.462 20.8C257.996 22.0333 258.262 23.3667 258.262 24.8C258.262 26.2 257.996 27.5333 257.462 28.8C256.929 30.0333 256.196 31.1167 255.262 32.05C254.329 32.95 253.246 33.6667 252.012 34.2C250.779 34.7333 249.446 35 248.012 35H245.762H243.462C242.062 35 240.729 34.7333 239.462 34.2C238.229 33.6667 237.146 32.95 236.212 32.05C235.312 31.1167 234.596 30.0333 234.062 28.8C233.529 27.5333 233.262 26.2 233.262 24.8H240.062H241.012C241.279 24.8 241.362 24.9 241.262 25.1C240.896 25.7667 240.862 26.35 241.162 26.85C241.462 27.35 241.779 27.7 242.112 27.9C242.546 28.1 242.996 28.2 243.462 28.2H245.762H248.012C248.979 28.2 249.796 27.8667 250.462 27.2C251.129 26.5333 251.462 25.7333 251.462 24.8C251.462 23.8333 251.129 23.0167 250.462 22.35C249.796 21.6833 248.979 21.35 248.012 21.35H245.762H243.462C242.062 21.35 240.729 21.0833 239.462 20.55C238.229 20.0167 237.146 19.2833 236.212 18.35C235.312 17.4167 234.596 16.3333 234.062 15.1C233.529 13.8333 233.262 12.5 233.262 11.1C233.262 9.7 233.529 8.38333 234.062 7.15C234.596 5.88333 235.312 4.78333 236.212 3.85C237.146 2.91667 238.229 2.18333 239.462 1.65C240.729 1.11666 242.062 0.849999 243.462 0.849999H245.762H248.012C249.446 0.849999 250.779 1.11666 252.012 1.65C253.246 2.18333 254.329 2.91667 255.262 3.85C256.196 4.78333 256.929 5.88333 257.462 7.15C257.996 8.38333 258.262 9.7 258.262 11.1H251.462H250.462C250.196 11.1 250.129 11 250.262 10.8C250.596 10.1667 250.612 9.58333 250.312 9.05C250.046 8.51666 249.746 8.16667 249.412 8C248.946 7.8 248.479 7.7 248.012 7.7H245.762H243.462C242.529 7.7 241.729 8.03333 241.062 8.7C240.396 9.36666 240.062 10.1667 240.062 11.1C240.062 12.0667 240.396 12.8833 241.062 13.55C241.729 14.2167 242.529 14.55 243.462 14.55H245.762H248.012ZM254.462 8.1C254.296 8.1 254.146 8.16666 254.012 8.3C253.912 8.4 253.862 8.53333 253.862 8.7C253.862 9.13333 254.062 9.35 254.462 9.35C254.896 9.35 255.112 9.13333 255.112 8.7C255.112 8.53333 255.046 8.4 254.912 8.3C254.779 8.16666 254.629 8.1 254.462 8.1ZM251.212 4.3C250.812 4.3 250.612 4.51667 250.612 4.95C250.612 5.35 250.812 5.55 251.212 5.55C251.612 5.55 251.812 5.35 251.812 4.95C251.812 4.51667 251.612 4.3 251.212 4.3ZM246.612 3.45C246.212 3.45 246.012 3.65 246.012 4.05C246.012 4.45 246.212 4.65 246.612 4.65C247.046 4.65 247.262 4.45 247.262 4.05C247.262 3.65 247.046 3.45 246.612 3.45ZM241.862 3.45C241.429 3.45 241.212 3.65 241.212 4.05C241.212 4.45 241.429 4.65 241.862 4.65C242.262 4.65 242.462 4.45 242.462 4.05C242.462 3.65 242.262 3.45 241.862 3.45ZM238.062 6.2C237.662 6.2 237.462 6.41667 237.462 6.85C237.462 7.01667 237.512 7.16667 237.612 7.3C237.746 7.4 237.896 7.45 238.062 7.45C238.229 7.45 238.362 7.4 238.462 7.3C238.596 7.16667 238.662 7.01667 238.662 6.85C238.662 6.41667 238.462 6.2 238.062 6.2ZM237.112 11.75C237.546 11.75 237.762 11.55 237.762 11.15C237.762 10.7167 237.546 10.5 237.112 10.5C236.946 10.5 236.796 10.5667 236.662 10.7C236.562 10.8333 236.512 10.9833 236.512 11.15C236.512 11.3167 236.562 11.4667 236.662 11.6C236.796 11.7 236.946 11.75 237.112 11.75ZM238.662 16.05C239.096 16.05 239.312 15.8333 239.312 15.4C239.312 15 239.096 14.8 238.662 14.8C238.496 14.8 238.346 14.8667 238.212 15C238.112 15.1 238.062 15.2333 238.062 15.4C238.062 15.5667 238.112 15.7167 238.212 15.85C238.346 15.9833 238.496 16.05 238.662 16.05ZM242.462 18.55C242.896 18.55 243.112 18.3333 243.112 17.9C243.112 17.7333 243.046 17.6 242.912 17.5C242.779 17.3667 242.629 17.3 242.462 17.3C242.296 17.3 242.146 17.3667 242.012 17.5C241.912 17.6 241.862 17.7333 241.862 17.9C241.862 18.3333 242.062 18.55 242.462 18.55ZM247.262 18.55C247.429 18.55 247.562 18.5 247.662 18.4C247.796 18.2667 247.862 18.1 247.862 17.9C247.862 17.7333 247.796 17.6 247.662 17.5C247.562 17.3667 247.429 17.3 247.262 17.3C247.096 17.3 246.946 17.3667 246.812 17.5C246.679 17.6 246.612 17.7333 246.612 17.9C246.612 18.3333 246.829 18.55 247.262 18.55ZM238.062 28.5C238.229 28.5 238.379 28.45 238.512 28.35C238.646 28.2167 238.712 28.0667 238.712 27.9C238.712 27.4667 238.496 27.25 238.062 27.25C237.896 27.25 237.746 27.3167 237.612 27.45C237.512 27.5833 237.462 27.7333 237.462 27.9C237.462 28.0667 237.512 28.2167 237.612 28.35C237.746 28.45 237.896 28.5 238.062 28.5ZM241.712 31.4C242.146 31.4 242.362 31.1833 242.362 30.75C242.362 30.35 242.146 30.15 241.712 30.15C241.312 30.15 241.112 30.35 241.112 30.75C241.112 31.1833 241.312 31.4 241.712 31.4ZM246.462 31.7C246.629 31.7 246.779 31.65 246.912 31.55C247.046 31.4167 247.112 31.2667 247.112 31.1C247.112 30.6667 246.896 30.45 246.462 30.45C246.062 30.45 245.862 30.6667 245.862 31.1C245.862 31.2667 245.912 31.4167 246.012 31.55C246.146 31.65 246.296 31.7 246.462 31.7ZM251.512 31.1C251.946 31.1 252.162 30.8833 252.162 30.45C252.162 30.05 251.946 29.85 251.512 29.85C251.112 29.85 250.912 30.05 250.912 30.45C250.912 30.8833 251.112 31.1 251.512 31.1ZM251.812 19.25C252.246 19.25 252.462 19.05 252.462 18.65C252.462 18.25 252.246 18.05 251.812 18.05C251.646 18.05 251.496 18.1167 251.362 18.25C251.262 18.35 251.212 18.4833 251.212 18.65C251.212 18.8167 251.262 18.9667 251.362 19.1C251.496 19.2 251.646 19.25 251.812 19.25ZM254.462 27.3C254.629 27.3 254.779 27.25 254.912 27.15C255.046 27.0167 255.112 26.8667 255.112 26.7C255.112 26.2667 254.896 26.05 254.462 26.05C254.062 26.05 253.862 26.2667 253.862 26.7C253.862 26.8667 253.912 27.0167 254.012 27.15C254.146 27.25 254.296 27.3 254.462 27.3ZM254.462 22.6C254.896 22.6 255.112 22.4 255.112 22C255.112 21.5667 254.896 21.35 254.462 21.35C254.062 21.35 253.862 21.5667 253.862 22C253.862 22.4 254.062 22.6 254.462 22.6Z" fill="#CCA354"/>
</svg>
