<svg width="273" height="35" viewBox="0 0 273 35" fill="none" xmlns="http://www.w3.org/2000/svg">
<path d="M40.75 3.8C40.9167 3.8 41 3.85 41 3.95C41.0333 4.01667 40.9833 4.08333 40.85 4.15C40.0833 4.71667 39.55 5.98333 39.25 7.95L38.25 14.2L37.7 17.85C37.5 19.15 37.1667 20.4 36.7 21.6C36.2667 22.8 35.7 24 35 25.2L31.75 30.8C31.05 32.7667 30.95 34.0333 31.45 34.6C31.5833 34.8667 31.5167 35 31.25 35H18.7C18.5 35 18.4333 34.9 18.5 34.7C18.7 34.3667 18.8333 33.95 18.9 33.45H30.1C30.2 33.45 30.2833 33.4167 30.35 33.35C30.4167 33.25 30.4167 33.1667 30.35 33.1C29.8167 32.5333 29.9 31.25 30.6 29.25L33.85 23.7C35.2167 21.3667 36.1167 18.9 36.55 16.3L37.1 12.65L38.1 6.4C38.2333 5.43333 38.4667 4.56667 38.8 3.8H40.75ZM29.85 32.35C29.9167 32.4167 29.9167 32.5 29.85 32.6C29.8167 32.6667 29.7333 32.7 29.6 32.7H17.05C16.85 32.7 16.8 32.6 16.9 32.4C17.0333 32.1333 17.15 31.85 17.25 31.55C17.35 31.2167 17.4 30.8667 17.4 30.5L17.2 30.8C16.3333 32.3667 15.9833 33.6667 16.15 34.7C16.2167 34.9 16.15 35 15.95 35H3.4C3.26667 35 3.18333 34.9667 3.15 34.9C3.15 34.8 3.2 34.7 3.3 34.6C3.63333 34.3333 3.85 33.95 3.95 33.45H14.8C15 33.45 15.0833 33.35 15.05 33.15C14.85 32.1167 15.2 30.8167 16.1 29.25L16.9 27.75L16.65 26.7L15.6 28.5C14.7 30.0667 14.35 31.3667 14.55 32.4C14.5833 32.6 14.5167 32.7 14.35 32.7H1.8C1.66667 32.7 1.58333 32.6667 1.55 32.6C1.51667 32.5 1.56667 32.4167 1.7 32.35C2.36667 31.7833 2.66667 30.5 2.6 28.5C2.23333 27.1667 1.91667 26.05 1.65 25.15C1.38333 24.2167 1.16667 23.3833 1 22.65C0.833334 21.8833 0.7 21.1833 0.6 20.55C0.533334 19.8833 0.516667 19.1667 0.55 18.4C0.583334 17.6 0.666667 16.6833 0.8 15.65C0.933333 14.6167 1.11667 13.3667 1.35 11.9L2.3 5.7C2.6 3.76666 2.45 2.5 1.85 1.9C1.71667 1.66666 1.78333 1.55 2.05 1.55H10.05C10.1833 1.55 10.2667 1.58333 10.3 1.65C10.3333 1.71667 10.2833 1.8 10.15 1.9C9.35 2.53333 8.8 3.8 8.5 5.7L7.55 11.9L6.95 15.6C6.81667 16.4667 6.76667 17.3 6.8 18.1C6.83333 18.9 6.96667 19.7 7.2 20.5L9.2 27.85L9.35 27.5L7.7 21.25C7.26667 19.7167 7.2 18.0667 7.5 16.3L8.05 12.65L9.05 6.4C9.18333 5.43333 9.41667 4.56667 9.75 3.8H11.7C11.8333 3.8 11.9 3.85 11.9 3.95C11.9333 4.01667 11.9 4.08333 11.8 4.15C11 4.75 10.45 6.01667 10.15 7.95L9.15 14.2L8.6 17.85C8.3 19.5833 8.36667 21.2333 8.8 22.8L9.85 26.65L13.5 20.5C13.9667 19.7 14.35 18.9 14.65 18.1C14.95 17.3 15.1667 16.4667 15.3 15.6L15.9 11.9L16.85 5.7C17.15 3.76666 17 2.5 16.4 1.9C16.2333 1.66666 16.3 1.55 16.6 1.55H24.6C24.7333 1.55 24.8167 1.58333 24.85 1.65C24.8833 1.71667 24.8333 1.8 24.7 1.9C23.9 2.53333 23.35 3.8 23.05 5.7L22.1 11.9L21.5 15.6C21.2333 17.3333 21.3 18.9667 21.7 20.5L23.7 27.85L23.9 27.5L22.2 21.25C22 20.45 21.8667 19.65 21.8 18.85C21.7667 18.0167 21.8333 17.1667 22 16.3L22.55 12.65L23.55 6.4C23.6167 5.86667 23.7167 5.4 23.85 5C23.9833 4.56667 24.1333 4.16667 24.3 3.8H26.25C26.3833 3.8 26.45 3.85 26.45 3.95C26.4833 4.01667 26.4333 4.08333 26.3 4.15C25.5333 4.78333 25 6.05 24.7 7.95L23.7 14.2L23.15 17.85C22.85 19.5833 22.9167 21.2333 23.35 22.8L24.4 26.65L28.05 20.5C28.5167 19.7 28.9 18.9 29.2 18.1C29.5 17.3 29.7167 16.4667 29.85 15.6L30.45 11.9L31.4 5.7C31.7 3.76666 31.55 2.5 30.95 1.9C30.7833 1.66666 30.85 1.55 31.15 1.55H39.15C39.2833 1.55 39.3667 1.58333 39.4 1.65C39.4333 1.71667 39.3833 1.8 39.25 1.9C38.45 2.5 37.9 3.76666 37.6 5.7L36.65 11.9L36.05 15.6C35.85 16.9 35.5167 18.15 35.05 19.35C34.6167 20.55 34.0667 21.75 33.4 22.95L30.15 28.5C29.45 30.4667 29.35 31.75 29.85 32.35ZM68.2691 3.85C68.4025 3.85 68.4691 3.9 68.4691 4C68.5025 4.06667 68.4691 4.13333 68.3691 4.2C67.5691 4.8 67.0191 6.06666 66.7191 8L66.3691 10.1L66.2691 11C66.2358 11.1 66.1691 11.1667 66.0691 11.2C66.0025 11.2333 65.9358 11.2 65.8691 11.1C65.4025 10.4333 64.1858 10.1 62.2191 10.1H51.8691L51.5691 12.15L51.2691 14.05H55.5191C57.4525 14.05 58.7691 13.7 59.4691 13C59.5358 12.9333 59.6191 12.9167 59.7191 12.95C59.8191 12.95 59.8525 13.0167 59.8191 13.15L59.6691 14.05L59.3191 16.15L58.6691 20.3L58.5191 21.15C58.5191 21.2833 58.4691 21.3667 58.3691 21.4C58.2691 21.4333 58.2025 21.4 58.1691 21.3C57.7025 20.6333 56.4858 20.3 54.5191 20.3H48.2691L47.9691 22.35L47.2691 26.5H47.8691L48.4191 23.1L48.7691 21H54.9691C56.9025 21 58.1191 21.35 58.6191 22.05C58.6858 22.15 58.7525 22.1833 58.8191 22.15C58.9191 22.1167 58.9858 22.0333 59.0191 21.9L59.1691 21L59.8191 16.85L59.9691 15.95C60.4358 15.75 60.8025 15.5333 61.0691 15.3C61.1691 15.2 61.2525 15.1667 61.3191 15.2C61.3858 15.2333 61.4025 15.3167 61.3691 15.45L61.2691 16.3L60.9191 18.4L60.2691 22.55L60.1191 23.45C60.0858 23.5833 60.0358 23.6667 59.9691 23.7C59.9025 23.7 59.8358 23.6667 59.7691 23.6C59.2691 22.9 58.0525 22.55 56.1191 22.55H49.9191L49.5691 24.65L49.2691 26.5H57.6691C59.6025 26.5 60.9358 26.1667 61.6691 25.5C61.7358 25.4 61.8025 25.3667 61.8691 25.4C61.9691 25.4 62.0025 25.4667 61.9691 25.6L61.8191 26.5L61.5191 28.6C61.2191 30.5667 61.3525 31.8333 61.9191 32.4C61.9858 32.4667 62.0025 32.55 61.9691 32.65C61.9691 32.7167 61.9025 32.75 61.7691 32.75H39.1691C39.0691 32.75 39.0025 32.7167 38.9691 32.65C38.9358 32.55 38.9858 32.4667 39.1191 32.4C39.8858 31.7667 40.4191 30.5 40.7191 28.6L41.0191 26.5L44.3191 5.75C44.7858 2.98333 44.3191 1.6 42.9191 1.6H66.6691C66.8025 1.6 66.8691 1.65 66.8691 1.75C66.9025 1.81666 66.8525 1.88333 66.7191 1.95C65.9525 2.51666 65.4191 3.78333 65.1191 5.75L64.8191 7.8L64.6691 8.7C64.6358 8.83333 64.5691 8.91667 64.4691 8.95C64.4025 8.98333 64.3358 8.95 64.2691 8.85C63.8025 8.15 62.6025 7.8 60.6691 7.8H50.2691L49.9191 9.9L49.2691 14.05H49.8691L50.4191 10.65L50.7191 8.55H61.1191C63.0525 8.55 64.2525 8.9 64.7191 9.6C64.7858 9.66666 64.8691 9.7 64.9691 9.7C65.0691 9.66666 65.1191 9.58333 65.1191 9.45L65.2691 8.55L65.6191 6.45C65.7525 5.41666 65.9858 4.55 66.3191 3.85H68.2691ZM63.1191 30.85C62.7525 32.8167 62.9025 34.0833 63.5691 34.65C63.6358 34.7167 63.6525 34.8 63.6191 34.9C63.5858 34.9667 63.5025 35 63.3691 35H40.8191C40.6858 35 40.6025 34.9667 40.5691 34.9C40.5691 34.8 40.6191 34.7167 40.7191 34.65C40.8858 34.5167 41.0358 34.3667 41.1691 34.2C41.3358 34 41.4691 33.7667 41.5691 33.5H62.2191C62.3191 33.5 62.3858 33.4667 62.4191 33.4C62.4858 33.3 62.4858 33.2167 62.4191 33.15C61.8191 32.55 61.6691 31.2833 61.9691 29.35L62.1191 28.4C62.5525 28.2667 62.9191 28.05 63.2191 27.75C63.3191 27.65 63.4025 27.6167 63.4691 27.65C63.5691 27.6833 63.6025 27.7667 63.5691 27.9L63.4191 28.8L63.1191 30.85ZM86.0547 30.75C85.7547 32.75 85.9047 34.05 86.5047 34.65C86.5714 34.7167 86.588 34.8 86.5547 34.9C86.5214 34.9667 86.438 35 86.3047 35H85.4047H67.5047H67.4547C67.3547 35 67.288 34.9667 67.2547 34.9C67.2547 34.8 67.3047 34.7167 67.4047 34.65C67.6047 34.4833 67.7714 34.3167 67.9047 34.15C68.038 33.95 68.1714 33.7167 68.3047 33.45H84.2047H85.1047C85.238 33.45 85.3214 33.4 85.3547 33.3C85.4214 33.2 85.4214 33.1167 85.3547 33.05C84.7547 32.4833 84.6047 31.2 84.9047 29.2L85.0547 28.25C85.4214 28.1167 85.788 27.9 86.1547 27.6C86.2547 27.5 86.338 27.4667 86.4047 27.5C86.5047 27.5333 86.5547 27.6 86.5547 27.7L86.4047 28.65L86.0547 30.75ZM84.7047 26.3L84.3547 28.45C84.0547 30.4167 84.2047 31.7 84.8047 32.3C84.9047 32.3667 84.938 32.45 84.9047 32.55C84.8714 32.65 84.7714 32.7 84.6047 32.7H83.7047H65.8547H65.8047C65.7047 32.6667 65.638 32.6167 65.6047 32.55C65.6047 32.45 65.6547 32.3667 65.7547 32.3C66.5547 31.7 67.1047 30.4167 67.4047 28.45L67.7547 26.3L71.1047 5.1C71.4047 3.06666 71.2547 1.78333 70.6547 1.25C70.588 1.18333 70.5714 1.1 70.6047 1C70.6714 0.899999 70.7714 0.849999 70.9047 0.849999H79.1047C79.2047 0.849999 79.2547 0.899999 79.2547 1C79.288 1.1 79.238 1.18333 79.1047 1.25C78.3047 1.81666 77.7547 3.1 77.4547 5.1L76.8047 9.35L76.1047 13.6L75.1047 19.95L74.8047 22.05L74.1047 26.3H74.7047L75.2547 22.85L75.6047 20.7L76.6047 14.35L77.2547 10.1L77.9547 5.85C78.1214 4.71667 78.3714 3.83333 78.7047 3.2H80.7047C80.838 3.2 80.9047 3.25 80.9047 3.35C80.938 3.41666 80.888 3.48333 80.7547 3.55C79.9547 4.18333 79.4047 5.46667 79.1047 7.4L78.4047 11.65L77.7547 15.9L76.7547 22.3L76.4047 24.4L76.1047 26.3H80.4547C82.4547 26.3 83.8047 25.95 84.5047 25.25C84.6047 25.1833 84.688 25.1667 84.7547 25.2C84.8547 25.2 84.888 25.2667 84.8547 25.4L84.7047 26.3ZM113.62 6.55C114.52 7.51667 115.17 8.65 115.57 9.95C115.97 11.25 116.037 12.6667 115.77 14.2H109.52H108.42C108.154 14.2 108.104 14.0833 108.27 13.85C108.604 13.55 108.804 13.1667 108.87 12.7H114.62C114.787 11.5333 114.77 10.4333 114.57 9.4C114.404 8.36666 114.087 7.41667 113.62 6.55ZM100.92 33.45C102.22 33.45 103.487 33.2333 104.72 32.8C105.987 32.3333 107.137 31.7 108.17 30.9C109.204 30.1 110.104 29.1667 110.87 28.1C111.67 27.0333 112.254 25.8667 112.62 24.6H114.12C113.887 26.0333 113.404 27.3833 112.67 28.65C111.937 29.9167 111.02 31.0167 109.92 31.95C108.854 32.8833 107.637 33.6333 106.27 34.2C104.937 34.7333 103.554 35 102.12 35H100.07C98.337 35 96.787 34.6167 95.4203 33.85C94.087 33.05 93.0536 32.0167 92.3203 30.75C93.1203 31.6167 94.0703 32.2833 95.1703 32.75C96.2703 33.2167 97.5036 33.45 98.8703 33.45H100.92ZM98.4203 32.7C96.987 32.7 95.6703 32.4333 94.4703 31.9C93.3036 31.3333 92.3203 30.5833 91.5203 29.65C90.7536 28.7167 90.187 27.6167 89.8203 26.35C89.487 25.0833 89.437 23.7333 89.6703 22.3L91.3203 11.9C91.5536 10.4667 92.037 9.13333 92.7703 7.9C93.5036 6.63333 94.4036 5.53333 95.4703 4.6C96.5703 3.66666 97.787 2.93333 99.1203 2.4C100.487 1.83333 101.887 1.55 103.32 1.55H105.37C106.804 1.55 108.104 1.83333 109.27 2.4C110.47 2.93333 111.47 3.66666 112.27 4.6C113.07 5.53333 113.637 6.63333 113.97 7.9C114.337 9.13333 114.404 10.4667 114.17 11.9H107.92H106.82C106.554 11.9 106.52 11.8 106.72 11.6C107.02 11.2333 107.204 10.7833 107.27 10.25C106.904 10.1167 106.504 10.05 106.07 10.05H104.02C103.42 10.05 102.854 10.1667 102.32 10.4C101.787 10.6 101.287 10.9 100.82 11.3C100.387 11.6667 100.02 12.1 99.7203 12.6C99.4203 13.1 99.2203 13.6333 99.1203 14.2L98.4703 18.35L98.1703 20.45L97.4703 24.6C97.4036 25.1333 97.4203 25.6 97.5203 26C98.0536 26.3 98.687 26.45 99.4203 26.45H101.47C102.17 26.45 102.854 26.2833 103.52 25.95C103.72 25.8833 103.887 25.7833 104.02 25.65C104.187 25.5167 104.337 25.3667 104.47 25.2C104.837 24.6667 105.054 24.2 105.12 23.8C105.187 23.4 105.137 23.0167 104.97 22.65C104.904 22.5833 104.887 22.5167 104.92 22.45C104.954 22.35 105.037 22.3 105.17 22.3H106.27H112.52C112.287 23.7333 111.804 25.0833 111.07 26.35C110.337 27.6167 109.42 28.7167 108.32 29.65C107.22 30.5833 105.987 31.3333 104.62 31.9C103.287 32.4333 101.904 32.7 100.47 32.7H98.4203ZM96.6203 25.25C96.3536 24.65 96.2703 23.9167 96.3703 23.05L97.0203 18.9L97.3703 16.85L98.0203 12.7C98.1203 12.1333 98.3036 11.6 98.5703 11.1C98.8703 10.6 99.237 10.1667 99.6703 9.8C100.104 9.4 100.587 9.1 101.12 8.9C101.687 8.66666 102.254 8.55 102.82 8.55H104.87C105.237 8.55 105.57 8.58333 105.87 8.65C106.204 8.71667 106.52 8.85 106.82 9.05C106.887 9.05 106.92 9.06666 106.92 9.1C106.954 9.13333 107.004 9.16667 107.07 9.2C107.037 9.16667 107.02 9.15 107.02 9.15C107.054 9.11667 107.054 9.08333 107.02 9.05C106.954 8.88333 106.854 8.75 106.72 8.65C106.62 8.51667 106.487 8.38333 106.32 8.25C106.02 8.08333 105.72 7.96667 105.42 7.9C105.12 7.8 104.787 7.75 104.42 7.75H102.37C101.804 7.75 101.237 7.86667 100.67 8.1C100.137 8.3 99.6536 8.6 99.2203 9C98.787 9.36667 98.4203 9.8 98.1203 10.3C97.8536 10.8 97.6703 11.3333 97.5703 11.9L96.8703 16.1L96.5703 18.15L95.9203 22.3C95.7203 23.5 95.9536 24.4833 96.6203 25.25ZM142.23 12.25C142.397 11.0833 142.38 9.96667 142.18 8.9C142.014 7.8 141.697 6.81667 141.23 5.95C142.097 6.91666 142.73 8.08333 143.13 9.45C143.564 10.7833 143.664 12.2333 143.43 13.8L141.73 24.4C141.497 25.8667 140.997 27.25 140.23 28.55C139.497 29.8167 138.564 30.9333 137.43 31.9C136.33 32.8667 135.08 33.6333 133.68 34.2C132.314 34.7333 130.897 35 129.43 35H127.33C125.564 35 123.997 34.6167 122.63 33.85C121.264 33.05 120.197 32 119.43 30.7C120.264 31.5667 121.23 32.25 122.33 32.75C123.464 33.2167 124.73 33.45 126.13 33.45H128.23C129.697 33.45 131.114 33.1833 132.48 32.65C133.88 32.0833 135.13 31.3167 136.23 30.35C137.33 29.3833 138.264 28.2667 139.03 27C139.797 25.7 140.297 24.3167 140.53 22.85L142.23 12.25ZM125.68 32.7C124.214 32.7 122.864 32.4333 121.63 31.9C120.43 31.3333 119.43 30.5667 118.63 29.6C117.83 28.6333 117.247 27.5167 116.88 26.25C116.514 24.95 116.447 23.5667 116.68 22.1L118.38 11.45C118.614 10.0167 119.097 8.66667 119.83 7.4C120.597 6.1 121.547 4.96667 122.68 4C123.814 3.03333 125.064 2.28333 126.43 1.75C127.83 1.18333 129.264 0.899998 130.73 0.899998H132.83C134.297 0.899998 135.63 1.18333 136.83 1.75C138.03 2.28333 139.03 3.03333 139.83 4C140.63 4.96667 141.197 6.1 141.53 7.4C141.897 8.66667 141.964 10.0167 141.73 11.45L140.03 22.1C139.797 23.5667 139.297 24.95 138.53 26.25C137.797 27.5167 136.864 28.6333 135.73 29.6C134.63 30.5667 133.397 31.3333 132.03 31.9C130.664 32.4333 129.247 32.7 127.78 32.7H125.68ZM135.38 11.45C135.447 11.2167 135.464 10.9833 135.43 10.75C135.43 10.5167 135.414 10.2833 135.38 10.05C135.08 9.88333 134.764 9.76667 134.43 9.7C134.13 9.6 133.797 9.55 133.43 9.55H131.33C130.73 9.55 130.147 9.66667 129.58 9.9C129.047 10.1 128.564 10.4 128.13 10.8C127.697 11.1667 127.33 11.6167 127.03 12.15C126.73 12.65 126.53 13.2 126.43 13.8L125.73 18.05L125.43 20.15L124.73 24.4C124.664 24.6667 124.63 24.9167 124.63 25.15C124.664 25.3833 124.697 25.6167 124.73 25.85C125.03 26.0167 125.33 26.15 125.63 26.25C125.964 26.3167 126.314 26.35 126.68 26.35H128.78C129.38 26.35 129.947 26.25 130.48 26.05C131.047 25.8167 131.547 25.5167 131.98 25.15C132.414 24.75 132.78 24.3 133.08 23.8C133.38 23.2667 133.58 22.7 133.68 22.1L134.38 17.85L134.73 15.7L135.38 11.45ZM123.08 22.1C122.914 23.3 123.18 24.3 123.88 25.1C123.547 24.3667 123.447 23.6167 123.58 22.85L124.23 18.6L124.58 16.5L125.28 12.25C125.38 11.65 125.58 11.1 125.88 10.6C126.18 10.0667 126.547 9.61667 126.98 9.25C127.414 8.85 127.897 8.55 128.43 8.35C128.997 8.11667 129.58 8 130.18 8H132.28C133.514 8 134.447 8.4 135.08 9.2C134.814 8.63333 134.38 8.16666 133.78 7.8C133.214 7.43333 132.547 7.25 131.78 7.25H129.68C129.08 7.25 128.497 7.36667 127.93 7.6C127.397 7.8 126.914 8.1 126.48 8.5C126.047 8.86666 125.68 9.31666 125.38 9.85C125.08 10.35 124.88 10.8833 124.78 11.45L124.13 15.7L123.78 17.85L123.08 22.1ZM174.352 34.65C174.419 34.7167 174.435 34.8 174.402 34.9C174.369 34.9667 174.285 35 174.152 35H165.952C165.819 35 165.735 34.9667 165.702 34.9C165.702 34.8 165.752 34.7167 165.852 34.65C166.019 34.4833 166.185 34.3167 166.352 34.15C166.519 33.95 166.652 33.7167 166.752 33.45H172.952C173.085 33.45 173.169 33.4167 173.202 33.35C173.269 33.25 173.252 33.15 173.152 33.05C172.552 32.4833 172.402 31.2 172.702 29.2L173.052 27.1L174.352 18.6L175.452 11.85L175.702 10.1L176.052 8L176.402 5.85C176.469 5.28333 176.569 4.78333 176.702 4.35C176.835 3.91666 176.985 3.53333 177.152 3.2H179.152C179.285 3.2 179.369 3.25 179.402 3.35C179.435 3.41666 179.385 3.48333 179.252 3.55C178.452 4.15 177.902 5.45 177.602 7.45L177.252 9.55L176.902 11.7L176.652 13.4L175.602 20.15L174.252 28.65L173.902 30.75C173.602 32.75 173.752 34.05 174.352 34.65ZM169.152 1.2C169.052 1.13333 169.019 1.06667 169.052 1C169.119 0.899999 169.219 0.849999 169.352 0.849999H174.502H177.552C177.652 0.849999 177.702 0.899999 177.702 1C177.735 1.06667 177.702 1.13333 177.602 1.2C176.869 1.76666 176.319 3.06666 175.952 5.1L175.652 7.2L175.302 9.35L175.002 11.1L173.952 17.85L172.602 26.3L172.252 28.4C171.952 30.4333 172.085 31.7333 172.652 32.3C172.752 32.3667 172.769 32.45 172.702 32.55C172.669 32.6167 172.602 32.65 172.502 32.65H164.302C164.169 32.65 164.085 32.6167 164.052 32.55C164.052 32.45 164.102 32.3667 164.202 32.3C165.002 31.7 165.552 30.4 165.852 28.4L166.052 27.4L163.752 31.45C162.919 32.85 162.619 33.9333 162.852 34.7C162.885 34.9 162.819 35 162.652 35H156.302C156.069 35 156.002 34.9 156.102 34.7C156.369 34.3333 156.502 33.9167 156.502 33.45H161.452C161.685 33.45 161.752 33.35 161.652 33.15C161.452 32.4167 161.769 31.3333 162.602 29.9L166.802 22.45L167.152 20.2L162.102 29.15C161.302 30.55 161.002 31.6167 161.202 32.35C161.235 32.55 161.152 32.65 160.952 32.65H154.652C154.385 32.65 154.335 32.55 154.502 32.35C154.935 31.65 154.985 30.5833 154.652 29.15L153.552 24.95L152.852 29.5V29.55L152.652 30.75C152.352 32.7167 152.502 34.0167 153.102 34.65C153.169 34.7167 153.185 34.8 153.152 34.9C153.152 34.9667 153.085 35 152.952 35H144.752C144.619 35 144.535 34.9667 144.502 34.9C144.502 34.8 144.552 34.7167 144.652 34.65C144.852 34.4833 145.019 34.3167 145.152 34.15C145.285 33.95 145.419 33.7167 145.552 33.45H151.752C152.085 33.45 152.152 33.3167 151.952 33.05C151.352 32.55 151.202 31.2667 151.502 29.2L151.702 28V27.95L152.702 21.55L152.352 20.1L151.202 27.15V27.25L151.002 28.4C150.702 30.4 150.852 31.7 151.452 32.3C151.552 32.3667 151.569 32.45 151.502 32.55C151.469 32.6167 151.385 32.65 151.252 32.65H143.102C142.969 32.65 142.885 32.6167 142.852 32.55C142.852 32.45 142.902 32.3667 143.002 32.3C143.802 31.7 144.352 30.4 144.652 28.4L148.352 5.1C148.685 3.1 148.552 1.8 147.952 1.2C147.852 1.13333 147.819 1.06667 147.852 1C147.919 0.899999 148.019 0.849999 148.152 0.849999H153.302H156.302C156.435 0.849999 156.502 0.899999 156.502 1C156.535 1.06667 156.502 1.13333 156.402 1.2C156.135 1.36667 155.919 1.6 155.752 1.9C155.585 2.16666 155.419 2.48333 155.252 2.85C155.119 3.21667 155.085 3.65 155.152 4.15L159.602 21.4L159.802 21.05L155.702 4.9C155.569 4.46667 155.585 4.05 155.752 3.65C155.785 3.55 155.819 3.46666 155.852 3.4C155.885 3.33333 155.919 3.26667 155.952 3.2H157.952C158.085 3.2 158.152 3.25 158.152 3.35C158.185 3.41666 158.135 3.48333 158.002 3.55C157.535 3.95 157.185 4.5 156.952 5.2C156.719 5.6 156.685 6.01666 156.852 6.45L160.302 20.1L169.402 4.15C169.635 3.71666 169.735 3.28333 169.702 2.85C169.702 2.48333 169.652 2.16666 169.552 1.9C169.452 1.6 169.319 1.36667 169.152 1.2ZM206.404 3.85C206.537 3.85 206.604 3.9 206.604 4C206.637 4.06667 206.604 4.13333 206.504 4.2C205.704 4.8 205.154 6.06666 204.854 8L204.504 10.1L204.404 11C204.371 11.1 204.304 11.1667 204.204 11.2C204.137 11.2333 204.071 11.2 204.004 11.1C203.537 10.4333 202.321 10.1 200.354 10.1H190.004L189.704 12.15L189.404 14.05H193.654C195.587 14.05 196.904 13.7 197.604 13C197.671 12.9333 197.754 12.9167 197.854 12.95C197.954 12.95 197.987 13.0167 197.954 13.15L197.804 14.05L197.454 16.15L196.804 20.3L196.654 21.15C196.654 21.2833 196.604 21.3667 196.504 21.4C196.404 21.4333 196.337 21.4 196.304 21.3C195.837 20.6333 194.621 20.3 192.654 20.3H186.404L186.104 22.35L185.404 26.5H186.004L186.554 23.1L186.904 21H193.104C195.037 21 196.254 21.35 196.754 22.05C196.821 22.15 196.887 22.1833 196.954 22.15C197.054 22.1167 197.121 22.0333 197.154 21.9L197.304 21L197.954 16.85L198.104 15.95C198.571 15.75 198.937 15.5333 199.204 15.3C199.304 15.2 199.387 15.1667 199.454 15.2C199.521 15.2333 199.537 15.3167 199.504 15.45L199.404 16.3L199.054 18.4L198.404 22.55L198.254 23.45C198.221 23.5833 198.171 23.6667 198.104 23.7C198.037 23.7 197.971 23.6667 197.904 23.6C197.404 22.9 196.187 22.55 194.254 22.55H188.054L187.704 24.65L187.404 26.5H195.804C197.737 26.5 199.071 26.1667 199.804 25.5C199.871 25.4 199.937 25.3667 200.004 25.4C200.104 25.4 200.137 25.4667 200.104 25.6L199.954 26.5L199.654 28.6C199.354 30.5667 199.487 31.8333 200.054 32.4C200.121 32.4667 200.137 32.55 200.104 32.65C200.104 32.7167 200.037 32.75 199.904 32.75H177.304C177.204 32.75 177.137 32.7167 177.104 32.65C177.071 32.55 177.121 32.4667 177.254 32.4C178.021 31.7667 178.554 30.5 178.854 28.6L179.154 26.5L182.454 5.75C182.921 2.98333 182.454 1.6 181.054 1.6H204.804C204.937 1.6 205.004 1.65 205.004 1.75C205.037 1.81666 204.987 1.88333 204.854 1.95C204.087 2.51666 203.554 3.78333 203.254 5.75L202.954 7.8L202.804 8.7C202.771 8.83333 202.704 8.91667 202.604 8.95C202.537 8.98333 202.471 8.95 202.404 8.85C201.937 8.15 200.737 7.8 198.804 7.8H188.404L188.054 9.9L187.404 14.05H188.004L188.554 10.65L188.854 8.55H199.254C201.187 8.55 202.387 8.9 202.854 9.6C202.921 9.66666 203.004 9.7 203.104 9.7C203.204 9.66666 203.254 9.58333 203.254 9.45L203.404 8.55L203.754 6.45C203.887 5.41666 204.121 4.55 204.454 3.85H206.404ZM201.254 30.85C200.887 32.8167 201.037 34.0833 201.704 34.65C201.771 34.7167 201.787 34.8 201.754 34.9C201.721 34.9667 201.637 35 201.504 35H178.954C178.821 35 178.737 34.9667 178.704 34.9C178.704 34.8 178.754 34.7167 178.854 34.65C179.021 34.5167 179.171 34.3667 179.304 34.2C179.471 34 179.604 33.7667 179.704 33.5H200.354C200.454 33.5 200.521 33.4667 200.554 33.4C200.621 33.3 200.621 33.2167 200.554 33.15C199.954 32.55 199.804 31.2833 200.104 29.35L200.254 28.4C200.687 28.2667 201.054 28.05 201.354 27.75C201.454 27.65 201.537 27.6167 201.604 27.65C201.704 27.6833 201.737 27.7667 201.704 27.9L201.554 28.8L201.254 30.85ZM244.217 5.85C244.384 4.78333 244.634 3.9 244.967 3.2H246.017H246.967C247.067 3.2 247.134 3.25 247.167 3.35C247.201 3.41666 247.151 3.48333 247.017 3.55C246.217 4.15 245.667 5.45 245.367 7.45L245.017 9.55L244.867 10.45C244.801 10.8167 244.667 10.8667 244.467 10.6C244.001 9.9 242.767 9.55 240.767 9.55H237.567L236.967 13.45L235.867 20.2L234.617 28.35L234.217 30.75C233.917 32.75 234.067 34.05 234.667 34.65C234.734 34.7167 234.751 34.8 234.717 34.9C234.684 34.9667 234.601 35 234.467 35H226.267C226.134 35 226.051 34.9667 226.017 34.9C226.017 34.8 226.084 34.7167 226.217 34.65C226.584 34.35 226.867 33.95 227.067 33.45H233.267C233.401 33.45 233.484 33.4167 233.517 33.35C233.584 33.25 233.584 33.15 233.517 33.05C232.884 32.5167 232.717 31.2333 233.017 29.2L233.367 26.8L234.667 18.6L235.767 11.85L236.367 8H239.617C241.617 8 242.851 8.35 243.317 9.05C243.384 9.15 243.451 9.18333 243.517 9.15C243.617 9.11667 243.684 9.03333 243.717 8.9L243.867 8L244.217 5.85ZM222.417 5.1C222.717 3.1 222.567 1.81666 221.967 1.25C221.901 1.18333 221.884 1.11666 221.917 1.05C221.984 0.949998 222.084 0.899998 222.217 0.899998H223.117H229.467H234.817H239.067H244.417H245.317C245.451 0.899998 245.517 0.949998 245.517 1.05C245.551 1.11666 245.501 1.18333 245.367 1.25C244.567 1.88333 244.017 3.16667 243.717 5.1L243.367 7.25L243.267 8.15C243.234 8.28333 243.167 8.36666 243.067 8.4C243.001 8.43333 242.934 8.4 242.867 8.3C242.367 7.6 241.117 7.25 239.117 7.25H235.917L235.317 11.1L234.267 17.85L232.967 26L232.567 28.45C232.267 30.4167 232.401 31.7 232.967 32.3C233.167 32.5667 233.117 32.7 232.817 32.7H224.617C224.484 32.7 224.401 32.6667 224.367 32.6C224.334 32.5 224.384 32.4 224.517 32.3C225.317 31.7 225.867 30.4167 226.167 28.45L229.167 9.55H227.967C226.001 9.55 224.667 9.9 223.967 10.6C223.834 10.7 223.717 10.75 223.617 10.75C223.551 10.7167 223.534 10.6167 223.567 10.45L223.717 9.55L223.917 8.4C224.584 8.13333 225.551 8 226.817 8H229.417L229.517 7.25H226.317C224.317 7.25 222.967 7.6 222.267 8.3C222.167 8.4 222.084 8.43333 222.017 8.4C221.951 8.36666 221.934 8.28333 221.967 8.15L222.067 7.25L222.417 5.1ZM271.381 12.25C271.548 11.0833 271.531 9.96667 271.331 8.9C271.164 7.8 270.848 6.81667 270.381 5.95C271.248 6.91666 271.881 8.08333 272.281 9.45C272.714 10.7833 272.814 12.2333 272.581 13.8L270.881 24.4C270.648 25.8667 270.148 27.25 269.381 28.55C268.648 29.8167 267.714 30.9333 266.581 31.9C265.481 32.8667 264.231 33.6333 262.831 34.2C261.464 34.7333 260.048 35 258.581 35H256.481C254.714 35 253.148 34.6167 251.781 33.85C250.414 33.05 249.348 32 248.581 30.7C249.414 31.5667 250.381 32.25 251.481 32.75C252.614 33.2167 253.881 33.45 255.281 33.45H257.381C258.848 33.45 260.264 33.1833 261.631 32.65C263.031 32.0833 264.281 31.3167 265.381 30.35C266.481 29.3833 267.414 28.2667 268.181 27C268.948 25.7 269.448 24.3167 269.681 22.85L271.381 12.25ZM254.831 32.7C253.364 32.7 252.014 32.4333 250.781 31.9C249.581 31.3333 248.581 30.5667 247.781 29.6C246.981 28.6333 246.398 27.5167 246.031 26.25C245.664 24.95 245.598 23.5667 245.831 22.1L247.531 11.45C247.764 10.0167 248.248 8.66667 248.981 7.4C249.748 6.1 250.698 4.96667 251.831 4C252.964 3.03333 254.214 2.28333 255.581 1.75C256.981 1.18333 258.414 0.899998 259.881 0.899998H261.981C263.448 0.899998 264.781 1.18333 265.981 1.75C267.181 2.28333 268.181 3.03333 268.981 4C269.781 4.96667 270.348 6.1 270.681 7.4C271.048 8.66667 271.114 10.0167 270.881 11.45L269.181 22.1C268.948 23.5667 268.448 24.95 267.681 26.25C266.948 27.5167 266.014 28.6333 264.881 29.6C263.781 30.5667 262.548 31.3333 261.181 31.9C259.814 32.4333 258.398 32.7 256.931 32.7H254.831ZM264.531 11.45C264.598 11.2167 264.614 10.9833 264.581 10.75C264.581 10.5167 264.564 10.2833 264.531 10.05C264.231 9.88333 263.914 9.76667 263.581 9.7C263.281 9.6 262.948 9.55 262.581 9.55H260.481C259.881 9.55 259.298 9.66667 258.731 9.9C258.198 10.1 257.714 10.4 257.281 10.8C256.848 11.1667 256.481 11.6167 256.181 12.15C255.881 12.65 255.681 13.2 255.581 13.8L254.881 18.05L254.581 20.15L253.881 24.4C253.814 24.6667 253.781 24.9167 253.781 25.15C253.814 25.3833 253.848 25.6167 253.881 25.85C254.181 26.0167 254.481 26.15 254.781 26.25C255.114 26.3167 255.464 26.35 255.831 26.35H257.931C258.531 26.35 259.098 26.25 259.631 26.05C260.198 25.8167 260.698 25.5167 261.131 25.15C261.564 24.75 261.931 24.3 262.231 23.8C262.531 23.2667 262.731 22.7 262.831 22.1L263.531 17.85L263.881 15.7L264.531 11.45ZM252.231 22.1C252.064 23.3 252.331 24.3 253.031 25.1C252.698 24.3667 252.598 23.6167 252.731 22.85L253.381 18.6L253.731 16.5L254.431 12.25C254.531 11.65 254.731 11.1 255.031 10.6C255.331 10.0667 255.698 9.61667 256.131 9.25C256.564 8.85 257.048 8.55 257.581 8.35C258.148 8.11667 258.731 8 259.331 8H261.431C262.664 8 263.598 8.4 264.231 9.2C263.964 8.63333 263.531 8.16666 262.931 7.8C262.364 7.43333 261.698 7.25 260.931 7.25H258.831C258.231 7.25 257.648 7.36667 257.081 7.6C256.548 7.8 256.064 8.1 255.631 8.5C255.198 8.86666 254.831 9.31666 254.531 9.85C254.231 10.35 254.031 10.8833 253.931 11.45L253.281 15.7L252.931 17.85L252.231 22.1Z" fill="white"/>
</svg>
